<?xml version="1.0" encoding="UTF-8" standalone="no"?>
<svg xmlns:ffdec="https://www.free-decompiler.com/flash" xmlns:xlink="http://www.w3.org/1999/xlink" ffdec:objectType="frame" height="119.85px" width="135.525px" xmlns="http://www.w3.org/2000/svg">
  <g transform="matrix(1.5, 0.0, 0.0, 1.5, 0.0, 0.0)">
    <use ffdec:characterId="2" height="93.15" transform="matrix(0.2205, 0.1103, -0.2205, 0.1103, 42.05, 38.75)" width="93.1" xlink:href="#shape0"/>
    <use ffdec:characterId="2" height="93.15" transform="matrix(0.2205, 0.1103, -0.2205, 0.1103, 54.0, 44.75)" width="93.1" xlink:href="#shape1"/>
    <use ffdec:characterId="2" height="93.15" transform="matrix(0.2205, 0.1103, -0.2205, 0.1103, 65.95, 50.75)" width="93.1" xlink:href="#shape2"/>
    <use ffdec:characterId="2" height="93.15" transform="matrix(0.2205, 0.1103, -0.2205, 0.1103, 30.3, 44.6)" width="93.1" xlink:href="#shape3"/>
    <use ffdec:characterId="2" height="93.15" transform="matrix(0.2205, 0.1103, -0.2205, 0.1103, 42.25, 50.6)" width="93.1" xlink:href="#shape4"/>
    <use ffdec:characterId="2" height="93.15" transform="matrix(0.2205, 0.1103, -0.2205, 0.1103, 30.2, 56.65)" width="93.1" xlink:href="#shape0"/>
    <use ffdec:characterId="2" height="93.15" transform="matrix(0.2205, 0.1103, -0.2205, 0.1103, 42.15, 62.65)" width="93.1" xlink:href="#shape5"/>
    <use ffdec:characterId="3" height="10.9" transform="matrix(1.9207, -0.4106, 0.0, 0.6033, 41.7, 41.2)" width="13.15" xlink:href="#shape6"/>
    <use ffdec:characterId="3" height="10.9" transform="matrix(2.6141, -0.5588, 0.0, 0.8127, 67.45, 51.95)" width="13.15" xlink:href="#shape6"/>
    <use ffdec:characterId="3" height="10.9" transform="matrix(1.7879, -0.3822, 0.0, 0.8127, 49.55, 56.75)" width="13.15" xlink:href="#shape6"/>
    <use ffdec:characterId="3" height="10.9" transform="matrix(4.1514, -0.8874, 0.0, 1.628, 37.3, 65.2)" width="13.15" xlink:href="#shape6"/>
    <use ffdec:characterId="3" height="10.9" transform="matrix(3.1963, -0.6832, 0.0, 1.0959, 24.15, 54.35)" width="13.15" xlink:href="#shape6"/>
    <use ffdec:characterId="3" height="10.9" transform="matrix(1.1919, -0.2548, 0.0, 0.5418, 25.85, 46.3)" width="13.15" xlink:href="#shape6"/>
    <use ffdec:characterId="3" height="10.9" transform="matrix(0.0455, 0.0351, -0.0761, 0.2118, 44.05, 50.4)" width="13.15" xlink:href="#shape7"/>
    <use ffdec:characterId="5" height="22.9" transform="matrix(1.1305, -0.3413, 0.0, 0.5009, 41.45, 45.55)" width="22.9" xlink:href="#sprite0"/>
    <use ffdec:characterId="5" height="22.9" transform="matrix(-1.092, -0.2926, 0.7096, -0.4229, 40.9, 56.6)" width="22.9" xlink:href="#sprite0"/>
    <use ffdec:characterId="5" height="22.9" transform="matrix(-1.2973, 1.2973, -2.2277, -0.3562, 80.7, 46.25)" width="22.9" xlink:href="#sprite1"/>
    <use ffdec:characterId="5" height="22.9" transform="matrix(2.3461, -0.1787, 0.5667, 0.8389, 23.65, 41.8)" width="22.9" xlink:href="#sprite2"/>
    <use ffdec:characterId="7" height="51.4" transform="matrix(1.0, 0.0, 0.0, 1.0, 31.25, 1.35)" width="14.15" xlink:href="#sprite3"/>
  </g>
  <defs>
    <g id="shape0">
      <path d="M21.15 -21.2 Q24.85 -17.5 24.85 -12.3 L24.85 12.35 Q24.85 17.55 21.15 21.2 17.55 24.85 12.35 24.85 L-12.35 24.85 Q-17.5 24.85 -21.2 21.2 -24.85 17.55 -24.85 12.35 L-24.85 -12.3 Q-24.85 -17.5 -21.2 -21.2 -17.5 -24.85 -12.35 -24.85 L12.35 -24.85 Q17.55 -24.85 21.15 -21.2" fill="#4bfed2" fill-rule="evenodd" stroke="none"/>
      <path d="M32.95 -33.15 Q46.6 -19.5 46.6 -0.2 46.6 19.1 32.95 32.75 19.35 46.4 0.05 46.4 -19.25 46.4 -32.9 32.75 -46.5 19.1 -46.5 -0.2 -46.5 -19.5 -32.9 -33.15 -19.25 -46.75 0.05 -46.75 19.35 -46.75 32.95 -33.15 M21.15 -21.2 Q17.55 -24.85 12.35 -24.85 L-12.35 -24.85 Q-17.5 -24.85 -21.2 -21.2 -24.85 -17.5 -24.85 -12.3 L-24.85 12.35 Q-24.85 17.55 -21.2 21.2 -17.5 24.85 -12.35 24.85 L12.35 24.85 Q17.55 24.85 21.15 21.2 24.85 17.55 24.85 12.35 L24.85 -12.3 Q24.85 -17.5 21.15 -21.2" fill="url(#gradient0)" fill-rule="evenodd" stroke="none"/>
    </g>
    <radialGradient cx="0" cy="0" gradientTransform="matrix(0.0559, 0.0, 0.0, 0.0559, 0.0, 0.0)" gradientUnits="userSpaceOnUse" id="gradient0" r="819.2" spreadMethod="pad">
      <stop offset="0.0" stop-color="#4bfed2"/>
      <stop offset="1.0" stop-color="#4bfed2" stop-opacity="0.0"/>
    </radialGradient>
    <g id="shape1">
      <path d="M21.15 -21.2 Q24.85 -17.5 24.85 -12.3 L24.85 12.35 Q24.85 17.55 21.15 21.2 17.55 24.85 12.35 24.85 L-12.35 24.85 Q-17.5 24.85 -21.2 21.2 -24.85 17.55 -24.85 12.35 L-24.85 -12.3 Q-24.85 -17.5 -21.2 -21.2 -17.5 -24.85 -12.35 -24.85 L12.35 -24.85 Q17.55 -24.85 21.15 -21.2" fill="#4ba5fe" fill-rule="evenodd" stroke="none"/>
      <path d="M32.95 -33.15 Q46.6 -19.5 46.6 -0.2 46.6 19.1 32.95 32.75 19.35 46.4 0.05 46.4 -19.25 46.4 -32.9 32.75 -46.5 19.1 -46.5 -0.2 -46.5 -19.5 -32.9 -33.15 -19.25 -46.75 0.05 -46.75 19.35 -46.75 32.95 -33.15 M21.15 -21.2 Q17.55 -24.85 12.35 -24.85 L-12.35 -24.85 Q-17.5 -24.85 -21.2 -21.2 -24.85 -17.5 -24.85 -12.3 L-24.85 12.35 Q-24.85 17.55 -21.2 21.2 -17.5 24.85 -12.35 24.85 L12.35 24.85 Q17.55 24.85 21.15 21.2 24.85 17.55 24.85 12.35 L24.85 -12.3 Q24.85 -17.5 21.15 -21.2" fill="url(#gradient1)" fill-rule="evenodd" stroke="none"/>
    </g>
    <radialGradient cx="0" cy="0" gradientTransform="matrix(0.0559, 0.0, 0.0, 0.0559, 0.0, 0.0)" gradientUnits="userSpaceOnUse" id="gradient1" r="819.2" spreadMethod="pad">
      <stop offset="0.0" stop-color="#4ba5fe"/>
      <stop offset="1.0" stop-color="#4ba5fe" stop-opacity="0.0"/>
    </radialGradient>
    <g id="shape2">
      <path d="M21.15 -21.2 Q24.85 -17.5 24.85 -12.3 L24.85 12.35 Q24.85 17.55 21.15 21.2 17.55 24.85 12.35 24.85 L-12.35 24.85 Q-17.5 24.85 -21.2 21.2 -24.85 17.55 -24.85 12.35 L-24.85 -12.3 Q-24.85 -17.5 -21.2 -21.2 -17.5 -24.85 -12.35 -24.85 L12.35 -24.85 Q17.55 -24.85 21.15 -21.2" fill="#9bffe6" fill-rule="evenodd" stroke="none"/>
      <path d="M32.95 -33.15 Q46.6 -19.5 46.6 -0.2 46.6 19.1 32.95 32.75 19.35 46.4 0.05 46.4 -19.25 46.4 -32.9 32.75 -46.5 19.1 -46.5 -0.2 -46.5 -19.5 -32.9 -33.15 -19.25 -46.75 0.05 -46.75 19.35 -46.75 32.95 -33.15 M21.15 -21.2 Q17.55 -24.85 12.35 -24.85 L-12.35 -24.85 Q-17.5 -24.85 -21.2 -21.2 -24.85 -17.5 -24.85 -12.3 L-24.85 12.35 Q-24.85 17.55 -21.2 21.2 -17.5 24.85 -12.35 24.85 L12.35 24.85 Q17.55 24.85 21.15 21.2 24.85 17.55 24.85 12.35 L24.85 -12.3 Q24.85 -17.5 21.15 -21.2" fill="url(#gradient2)" fill-rule="evenodd" stroke="none"/>
    </g>
    <radialGradient cx="0" cy="0" gradientTransform="matrix(0.0559, 0.0, 0.0, 0.0559, 0.0, 0.0)" gradientUnits="userSpaceOnUse" id="gradient2" r="819.2" spreadMethod="pad">
      <stop offset="0.0" stop-color="#9bffe6"/>
      <stop offset="1.0" stop-color="#9bffe6" stop-opacity="0.0"/>
    </radialGradient>
    <g id="shape3">
      <path d="M21.15 -21.2 Q24.85 -17.5 24.85 -12.3 L24.85 12.35 Q24.85 17.55 21.15 21.2 17.55 24.85 12.35 24.85 L-12.35 24.85 Q-17.5 24.85 -21.2 21.2 -24.85 17.55 -24.85 12.35 L-24.85 -12.3 Q-24.85 -17.5 -21.2 -21.2 -17.5 -24.85 -12.35 -24.85 L12.35 -24.85 Q17.55 -24.85 21.15 -21.2" fill="#bfffff" fill-rule="evenodd" stroke="none"/>
      <path d="M32.95 -33.15 Q46.6 -19.5 46.6 -0.2 46.6 19.1 32.95 32.75 19.35 46.4 0.05 46.4 -19.25 46.4 -32.9 32.75 -46.5 19.1 -46.5 -0.2 -46.5 -19.5 -32.9 -33.15 -19.25 -46.75 0.05 -46.75 19.35 -46.75 32.95 -33.15 M21.15 -21.2 Q17.55 -24.85 12.35 -24.85 L-12.35 -24.85 Q-17.5 -24.85 -21.2 -21.2 -24.85 -17.5 -24.85 -12.3 L-24.85 12.35 Q-24.85 17.55 -21.2 21.2 -17.5 24.85 -12.35 24.85 L12.35 24.85 Q17.55 24.85 21.15 21.2 24.85 17.55 24.85 12.35 L24.85 -12.3 Q24.85 -17.5 21.15 -21.2" fill="url(#gradient3)" fill-rule="evenodd" stroke="none"/>
    </g>
    <radialGradient cx="0" cy="0" gradientTransform="matrix(0.0559, 0.0, 0.0, 0.0559, 0.0, 0.0)" gradientUnits="userSpaceOnUse" id="gradient3" r="819.2" spreadMethod="pad">
      <stop offset="0.0" stop-color="#bfffff"/>
      <stop offset="1.0" stop-color="#bfffff" stop-opacity="0.0"/>
    </radialGradient>
    <g id="shape4">
      <path d="M21.15 -21.2 Q24.85 -17.5 24.85 -12.3 L24.85 12.35 Q24.85 17.55 21.15 21.2 17.55 24.85 12.35 24.85 L-12.35 24.85 Q-17.5 24.85 -21.2 21.2 -24.85 17.55 -24.85 12.35 L-24.85 -12.3 Q-24.85 -17.5 -21.2 -21.2 -17.5 -24.85 -12.35 -24.85 L12.35 -24.85 Q17.55 -24.85 21.15 -21.2" fill="#d14747" fill-rule="evenodd" stroke="none"/>
      <path d="M32.95 -33.15 Q46.6 -19.5 46.6 -0.2 46.6 19.1 32.95 32.75 19.35 46.4 0.05 46.4 -19.25 46.4 -32.9 32.75 -46.5 19.1 -46.5 -0.2 -46.5 -19.5 -32.9 -33.15 -19.25 -46.75 0.05 -46.75 19.35 -46.75 32.95 -33.15 M21.15 -21.2 Q17.55 -24.85 12.35 -24.85 L-12.35 -24.85 Q-17.5 -24.85 -21.2 -21.2 -24.85 -17.5 -24.85 -12.3 L-24.85 12.35 Q-24.85 17.55 -21.2 21.2 -17.5 24.85 -12.35 24.85 L12.35 24.85 Q17.55 24.85 21.15 21.2 24.85 17.55 24.85 12.35 L24.85 -12.3 Q24.85 -17.5 21.15 -21.2" fill="url(#gradient4)" fill-rule="evenodd" stroke="none"/>
    </g>
    <radialGradient cx="0" cy="0" gradientTransform="matrix(0.0559, 0.0, 0.0, 0.0559, 0.0, 0.0)" gradientUnits="userSpaceOnUse" id="gradient4" r="819.2" spreadMethod="pad">
      <stop offset="0.0" stop-color="#d14747"/>
      <stop offset="1.0" stop-color="#d14747" stop-opacity="0.0"/>
    </radialGradient>
    <g id="shape5">
      <path d="M21.15 -21.2 Q24.85 -17.5 24.85 -12.3 L24.85 12.35 Q24.85 17.55 21.15 21.2 17.55 24.85 12.35 24.85 L-12.35 24.85 Q-17.5 24.85 -21.2 21.2 -24.85 17.55 -24.85 12.35 L-24.85 -12.3 Q-24.85 -17.5 -21.2 -21.2 -17.5 -24.85 -12.35 -24.85 L12.35 -24.85 Q17.55 -24.85 21.15 -21.2" fill="#4b78fe" fill-rule="evenodd" stroke="none"/>
      <path d="M32.95 -33.15 Q46.6 -19.5 46.6 -0.2 46.6 19.1 32.95 32.75 19.35 46.4 0.05 46.4 -19.25 46.4 -32.9 32.75 -46.5 19.1 -46.5 -0.2 -46.5 -19.5 -32.9 -33.15 -19.25 -46.75 0.05 -46.75 19.35 -46.75 32.95 -33.15 M21.15 -21.2 Q17.55 -24.85 12.35 -24.85 L-12.35 -24.85 Q-17.5 -24.85 -21.2 -21.2 -24.85 -17.5 -24.85 -12.3 L-24.85 12.35 Q-24.85 17.55 -21.2 21.2 -17.5 24.85 -12.35 24.85 L12.35 24.85 Q17.55 24.85 21.15 21.2 24.85 17.55 24.85 12.35 L24.85 -12.3 Q24.85 -17.5 21.15 -21.2" fill="url(#gradient5)" fill-rule="evenodd" stroke="none"/>
    </g>
    <radialGradient cx="0" cy="0" gradientTransform="matrix(0.0559, 0.0, 0.0, 0.0559, 0.0, 0.0)" gradientUnits="userSpaceOnUse" id="gradient5" r="819.2" spreadMethod="pad">
      <stop offset="0.0" stop-color="#4b78fe"/>
      <stop offset="1.0" stop-color="#4b78fe" stop-opacity="0.0"/>
    </radialGradient>
    <g id="shape6">
      <path d="M-4.4 -5.35 Q-0.6 -6.1 3.4 -3.6 11.6 8.95 -2.2 4.0 -5.1 1.1 -6.1 -1.0 -7.3 -3.45 -6.1 -4.9 L-4.4 -5.35" fill="url(#gradient6)" fill-rule="evenodd" stroke="none"/>
    </g>
    <radialGradient cx="0" cy="0" gradientTransform="matrix(0.0069, 0.004, -0.0024, 0.0042, -0.15, 0.15)" gradientUnits="userSpaceOnUse" id="gradient6" r="819.2" spreadMethod="pad">
      <stop offset="0.32941176470588235" stop-color="#ffffff"/>
      <stop offset="0.3686274509803922" stop-color="#ffffff" stop-opacity="0.6"/>
      <stop offset="0.4392156862745098" stop-color="#5bf0d2" stop-opacity="0.6"/>
      <stop offset="0.8509803921568627" stop-color="#6cf1d6" stop-opacity="0.0"/>
    </radialGradient>
    <g id="shape7">
      <path d="M-4.4 -5.35 Q-0.6 -6.1 3.4 -3.6 11.6 8.95 -2.2 4.0 -5.1 1.1 -6.1 -1.0 -7.3 -3.45 -6.1 -4.9 L-4.4 -5.35" fill="url(#gradient7)" fill-rule="evenodd" stroke="none"/>
    </g>
    <radialGradient cx="0" cy="0" gradientTransform="matrix(0.0069, 0.004, -0.0024, 0.0042, -0.15, 0.15)" gradientUnits="userSpaceOnUse" id="gradient7" r="819.2" spreadMethod="pad">
      <stop offset="0.32941176470588235" stop-color="#ffffff" stop-opacity="0.30588236"/>
      <stop offset="0.3686274509803922" stop-color="#ffffff" stop-opacity="0.18431373"/>
      <stop offset="0.4392156862745098" stop-color="#5bf0d2" stop-opacity="0.18431373"/>
      <stop offset="0.8509803921568627" stop-color="#6cf1d6" stop-opacity="0.0"/>
    </radialGradient>
    <g id="sprite0">
      <use ffdec:characterId="4" height="22.9" transform="matrix(1.0, 0.0, 0.0, 1.0, 0.0, 0.0)" width="22.9" xlink:href="#shape8"/>
    </g>
    <g id="shape8">
      <path d="M22.9 11.45 Q22.9 16.2 19.55 19.55 16.2 22.9 11.45 22.9 6.7 22.9 3.35 19.55 0.0 16.2 0.0 11.45 0.0 6.7 3.35 3.35 6.7 0.0 11.45 0.0 16.2 0.0 19.55 3.35 22.9 6.7 22.9 11.45" fill="url(#gradient8)" fill-rule="evenodd" stroke="none"/>
    </g>
    <radialGradient cx="0" cy="0" gradientTransform="matrix(0.0189, 0.0, 0.0, 0.0085, 11.05, 11.65)" gradientUnits="userSpaceOnUse" id="gradient8" r="819.2" spreadMethod="pad">
      <stop offset="0.13333333333333333" stop-color="#000000" stop-opacity="0.15294118"/>
      <stop offset="0.2235294117647059" stop-color="#000000" stop-opacity="0.05882353"/>
      <stop offset="0.4588235294117647" stop-color="#000000" stop-opacity="0.0"/>
    </radialGradient>
    <g id="sprite1">
      <use ffdec:characterId="4" height="22.9" transform="matrix(1.0, 0.0, 0.0, 1.0, 0.0, 0.0)" width="22.9" xlink:href="#shape9"/>
    </g>
    <g id="shape9">
      <path d="M22.9 11.45 Q22.9 16.2 19.55 19.55 16.2 22.9 11.45 22.9 6.7 22.9 3.35 19.55 0.0 16.2 0.0 11.45 0.0 6.7 3.35 3.35 6.7 0.0 11.45 0.0 16.2 0.0 19.55 3.35 22.9 6.7 22.9 11.45" fill="url(#gradient9)" fill-rule="evenodd" stroke="none"/>
    </g>
    <radialGradient cx="0" cy="0" gradientTransform="matrix(0.0189, 0.0, 0.0, 0.0085, 11.05, 11.65)" gradientUnits="userSpaceOnUse" id="gradient9" r="819.2" spreadMethod="pad">
      <stop offset="0.13333333333333333" stop-color="#000000" stop-opacity="0.5019608"/>
      <stop offset="0.2235294117647059" stop-color="#000000" stop-opacity="0.2"/>
      <stop offset="0.4588235294117647" stop-color="#000000" stop-opacity="0.0"/>
    </radialGradient>
    <g id="sprite2">
      <use ffdec:characterId="4" height="22.9" transform="matrix(1.0, 0.0, 0.0, 1.0, 0.0, 0.0)" width="22.9" xlink:href="#shape10"/>
    </g>
    <g id="shape10">
      <path d="M22.9 11.45 Q22.9 16.2 19.55 19.55 16.2 22.9 11.45 22.9 6.7 22.9 3.35 19.55 0.0 16.2 0.0 11.45 0.0 6.7 3.35 3.35 6.7 0.0 11.45 0.0 16.2 0.0 19.55 3.35 22.9 6.7 22.9 11.45" fill="url(#gradient10)" fill-rule="evenodd" stroke="none"/>
    </g>
    <radialGradient cx="0" cy="0" gradientTransform="matrix(0.0189, 0.0, 0.0, 0.0085, 11.05, 11.65)" gradientUnits="userSpaceOnUse" id="gradient10" r="819.2" spreadMethod="pad">
      <stop offset="0.13333333333333333" stop-color="#000000" stop-opacity="0.25882354"/>
      <stop offset="0.2235294117647059" stop-color="#000000" stop-opacity="0.101960786"/>
      <stop offset="0.4588235294117647" stop-color="#000000" stop-opacity="0.0"/>
    </radialGradient>
    <g id="sprite3">
      <use ffdec:characterId="6" height="49.85" transform="matrix(1.0, 0.0, 0.0, 1.0, 0.0, 0.0)" width="12.2" xlink:href="#shape11"/>
      <use ffdec:characterId="3" height="10.9" transform="matrix(-0.2667, -0.7807, 0.2138, -0.073, 5.05, 16.45)" width="13.15" xlink:href="#shape12"/>
      <use ffdec:characterId="3" height="10.9" transform="matrix(-0.0025, -0.3553, 0.3414, 0.2428, 11.5, 25.35)" width="13.15" xlink:href="#shape12"/>
      <use ffdec:characterId="3" height="10.9" transform="matrix(-0.3161, -0.4826, 0.2466, -0.1501, 8.2, 30.75)" width="13.15" xlink:href="#shape12"/>
      <use ffdec:characterId="3" height="10.9" transform="matrix(-0.004, -0.5748, 0.5523, 0.3928, 9.6, 13.2)" width="13.15" xlink:href="#shape13"/>
      <use ffdec:characterId="3" height="10.9" transform="matrix(0.1999, -0.2497, 0.2721, 0.981, 5.15, 5.65)" width="13.15" xlink:href="#shape12"/>
      <use ffdec:characterId="3" height="10.9" transform="matrix(-0.2113, -0.3226, 0.1649, -0.1003, 10.8, 21.8)" width="13.15" xlink:href="#shape12"/>
      <use ffdec:characterId="3" height="10.9" transform="matrix(0.237, 0.005, 0.1597, 0.3602, 12.85, 34.4)" width="13.15" xlink:href="#shape12"/>
    </g>
    <g id="shape11">
      <path d="M12.0 19.95 L12.0 22.9 Q11.85 30.45 13.6 37.8 15.55 39.25 16.15 40.35 L16.2 40.45 15.7 42.15 13.0 42.05 Q13.6 44.5 13.45 46.95 L14.5 47.95 13.85 49.45 Q13.25 50.05 12.85 49.9 12.4 49.95 11.6 49.1 L10.65 47.9 11.55 46.95 Q10.9 46.7 10.1 40.95 6.3 38.85 5.8 36.55 L5.6 34.75 Q5.75 34.55 7.6 34.75 7.8 28.75 5.75 18.8 L4.2 8.5 Q4.85 5.15 4.2 0.3 L7.0 4.8 9.85 10.95 Q10.4 15.55 12.0 19.95 M10.1 40.95 L13.0 42.05 10.1 40.95 M14.5 47.95 Q13.55 48.85 12.4 48.7 L12.2 48.65 10.65 47.9 12.2 48.65 12.4 48.7 Q13.55 48.85 14.5 47.95 M9.25 37.7 L8.7 37.7 8.85 37.2 8.65 36.95 7.55 17.5 7.4 16.35 7.4 14.35 Q7.45 13.8 7.3 14.05 7.65 12.35 7.0 10.2 L7.0 4.8 7.0 10.2 Q7.65 12.35 7.3 14.05 7.45 13.8 7.4 14.35 L7.4 16.35 7.55 17.5 8.65 36.95 8.85 37.2 9.25 37.7 9.3 37.7 13.55 39.3 13.6 37.8 13.8 39.4 13.55 39.3 8.7 37.7 8.65 36.95 7.95 36.1 7.7 35.9 7.7 35.5 7.6 34.75 7.7 34.75 7.7 35.5 7.95 36.1 7.7 35.5 7.7 34.75 7.6 34.75 7.7 35.5 7.7 35.9 7.95 36.1 8.65 36.95 8.7 37.7 13.55 39.3 13.8 39.4 13.6 37.8 13.55 39.3 9.3 37.7 9.25 37.7 8.85 37.2 8.7 37.7 9.25 37.7" fill="#6ca69c" fill-rule="evenodd" stroke="none"/>
      <path d="M12.0 19.95 L12.0 22.9 Q11.85 30.45 13.6 37.8 15.55 39.25 16.15 40.35 L16.2 40.45 15.7 42.15 13.0 42.05 Q13.6 44.5 13.45 46.95 L14.5 47.95 13.85 49.45 Q13.25 50.05 12.85 49.9 12.4 49.95 11.6 49.1 L10.65 47.9 11.55 46.95 Q10.9 46.7 10.1 40.95 6.3 38.85 5.8 36.55 L5.6 34.75 Q5.75 34.55 7.6 34.75 7.8 28.75 5.75 18.8 L4.2 8.5 Q4.85 5.15 4.2 0.3 L7.0 4.8 9.85 10.95 M7.0 4.8 L7.0 10.2 Q7.65 12.35 7.3 14.05 7.45 13.8 7.4 14.35 L7.4 16.35 7.55 17.5 8.65 36.95 8.85 37.2 9.25 37.7 9.3 37.7 13.55 39.3 13.6 37.8 13.8 39.4 13.55 39.3 8.7 37.7 8.65 36.95 7.95 36.1 7.7 35.9 7.7 35.5 7.6 34.75 7.7 34.75 7.7 35.5 7.95 36.1 M8.85 37.2 L8.7 37.7 9.25 37.7 M10.65 47.9 L12.2 48.65 12.4 48.7 Q13.55 48.85 14.5 47.95 M13.0 42.05 L10.1 40.95" ffdec:has-small-stroke="true" ffdec:original-stroke-width="0.375" fill="none" stroke="#5a7974" stroke-linecap="round" stroke-linejoin="round" stroke-width="0.6666666666666667"/>
      <path d="M9.85 10.95 Q10.4 15.55 12.0 19.95" ffdec:has-small-stroke="true" ffdec:original-stroke-width="0.375" fill="none" stroke="#556c67" stroke-linecap="round" stroke-linejoin="round" stroke-width="0.6666666666666667"/>
      <path d="M7.0 10.2 Q5.7 7.1 4.2 8.5 4.9 5.15 4.2 0.3 L7.0 4.8 7.0 10.2 7.0 4.8 9.85 10.95 Q8.8 9.2 7.0 10.2" fill="#6ca69c" fill-rule="evenodd" stroke="none"/>
      <path d="M4.4 9.85 Q6.55 15.4 7.3 14.05 7.5 13.7 7.4 14.35 L7.4 16.35 Q7.1 17.8 4.65 11.75 L4.4 9.85" fill="#74b8a9" fill-rule="evenodd" stroke="none"/>
      <path d="M4.2 8.5 Q5.7 7.1 7.0 10.2 7.7 12.35 7.3 14.05 6.55 15.4 4.4 9.85 L4.2 8.5" fill="#7bc9b6" fill-rule="evenodd" stroke="none"/>
      <path d="M7.85 24.8 L6.75 22.1 Q6.5 21.75 5.75 18.8 L4.65 11.75 Q7.1 17.8 7.4 16.35 L7.55 17.5 7.85 24.8 M7.6 34.75 L7.7 34.75 7.7 35.5 7.6 34.75" fill="#6ba296" fill-rule="evenodd" stroke="none"/>
      <path d="M7.3 14.05 Q7.7 12.35 7.0 10.2 8.8 9.2 9.85 10.95 10.35 15.75 12.0 19.95 L7.55 17.5 7.4 16.35 7.4 14.35 Q7.5 13.7 7.3 14.05 M5.75 18.8 Q6.5 21.75 6.75 22.1 L7.85 24.8 8.65 36.95 8.25 36.5 7.95 36.1 7.7 35.9 7.7 35.5 7.7 34.75 7.6 34.75 Q7.8 28.55 5.75 18.8 M7.95 36.1 L7.7 35.5 7.95 36.1 M8.7 37.7 L8.85 37.2 8.7 37.7 8.65 36.95 8.85 37.2 9.25 37.7 8.7 37.7" fill="#5a7974" fill-rule="evenodd" stroke="none"/>
      <path d="M12.0 19.95 L12.0 22.9 7.55 17.5 12.0 19.95" fill="#4d5b59" fill-rule="evenodd" stroke="none"/>
      <path d="M7.85 24.8 L7.55 17.5 12.0 22.9 Q11.85 30.55 13.6 37.8 L13.8 39.4 13.55 39.3 8.7 37.7 9.25 37.7 8.85 37.2 8.65 36.95 7.85 24.8 M13.35 45.1 L13.45 46.9 14.5 47.9 Q13.3 48.35 12.65 46.95 L13.35 45.1 M10.65 47.85 L11.15 47.4 11.6 46.85 11.8 47.1 Q11.2 47.35 10.85 48.0 L10.65 47.85 M9.25 37.7 L9.3 37.7 13.55 39.3 9.3 37.7 9.25 37.7 M13.6 37.8 L13.55 39.3 13.6 37.8" fill="#454545" fill-rule="evenodd" stroke="none"/>
      <path d="M7.95 36.1 L8.25 36.5 8.65 36.95 8.7 37.7 13.55 39.3 13.8 39.4 13.6 37.8 Q15.55 39.2 16.15 40.35 14.75 41.05 11.3 39.95 8.55 38.95 6.9 37.25 L5.6 34.95 5.6 34.75 Q5.75 34.5 7.6 34.75 L7.7 35.5 7.7 35.9 7.95 36.1" fill="#5f8176" fill-rule="evenodd" stroke="none"/>
      <path d="M16.15 40.35 L16.2 40.45 15.7 42.15 13.0 42.05 12.1 41.75 11.35 41.5 10.1 40.95 Q6.35 38.85 5.8 36.55 L5.6 34.95 6.9 37.25 Q8.55 38.95 11.3 39.95 14.75 41.05 16.15 40.35" fill="url(#gradient11)" fill-rule="evenodd" stroke="none"/>
      <path d="M12.85 49.85 Q12.4 49.9 11.6 49.05 L10.9 48.2 11.8 48.7 12.4 48.65 Q14.6 49.5 12.85 49.85 M10.75 48.0 L10.65 47.85 10.85 48.0 10.75 48.0" fill="url(#gradient12)" fill-rule="evenodd" stroke="none"/>
      <path d="M13.0 42.05 L13.35 45.1 12.65 46.95 Q13.3 48.35 14.5 47.9 L13.85 49.4 Q13.25 50.0 12.85 49.85 14.6 49.5 12.4 48.65 L11.8 48.7 10.9 48.2 10.85 48.1 10.75 48.0 10.85 48.0 Q11.2 47.35 11.8 47.1 L11.6 46.85 10.95 45.55 11.9 46.55 Q13.35 45.1 12.15 42.0 11.9 42.25 11.35 41.5 L12.1 41.75 13.0 42.05 M10.85 48.1 L11.05 48.15 10.85 48.0 11.05 48.15 10.85 48.1" fill="#648f86" fill-rule="evenodd" stroke="none"/>
      <path d="M10.95 45.55 L10.1 40.95 11.35 41.5 Q11.9 42.25 12.15 42.0 13.35 45.1 11.9 46.55 L10.95 45.55" fill="#c5e7e1" fill-rule="evenodd" stroke="none"/>
      <path d="M4.2 8.5 L4.4 9.85 4.65 11.75 5.75 18.8 Q7.8 28.55 7.6 34.75 L7.7 34.75 7.7 35.5 7.95 36.1 8.25 36.5 8.65 36.95 7.85 24.8 7.55 17.5 7.4 16.35 7.4 14.35 Q7.5 13.7 7.3 14.05 7.7 12.35 7.0 10.2 L7.0 4.8 4.2 0.3 Q4.9 5.15 4.2 8.5 M9.85 10.95 L7.0 4.8 M12.0 19.95 L12.0 22.9 Q11.85 30.55 13.6 37.8 15.55 39.2 16.15 40.35 L16.2 40.45 15.7 42.15 13.0 42.05 13.35 45.1 13.45 46.9 14.5 47.9 13.85 49.4 Q13.25 50.0 12.85 49.85 12.4 49.9 11.6 49.05 L10.9 48.2 10.85 48.1 10.75 48.0 10.65 47.85 11.15 47.4 M11.6 46.85 L10.95 45.55 10.1 40.95 Q6.35 38.85 5.8 36.55 L5.6 34.95 5.6 34.75 Q5.75 34.5 7.6 34.75 L7.7 35.5 7.7 35.9 7.95 36.1 M9.85 10.95 Q10.35 15.75 12.0 19.95 M8.85 37.2 L8.7 37.7 9.25 37.7 8.85 37.2 8.65 36.95 8.7 37.7 13.55 39.3 9.3 37.7 9.25 37.7 M13.0 42.05 L12.1 41.75 11.35 41.5 10.1 40.95 M13.6 37.8 L13.8 39.4 13.55 39.3 13.6 37.8 M10.85 48.0 L10.65 47.85 M10.85 48.0 L11.05 48.15 10.85 48.1 M10.9 48.2 L11.8 48.7 12.4 48.65" ffdec:has-small-stroke="true" ffdec:original-stroke-width="0.075" fill="none" stroke="#454545" stroke-linecap="round" stroke-linejoin="round" stroke-opacity="0.3019608" stroke-width="0.6666666666666667"/>
      <path d="M11.15 47.4 L11.6 46.85" ffdec:has-small-stroke="true" ffdec:original-stroke-width="0.375" fill="none" stroke="#5a7974" stroke-linecap="round" stroke-linejoin="round" stroke-width="0.6666666666666667"/>
    </g>
    <radialGradient cx="0" cy="0" gradientTransform="matrix(0.0079, 0.0, 0.0, 0.0079, 10.9, 38.7)" gradientUnits="userSpaceOnUse" id="gradient11" r="819.2" spreadMethod="pad">
      <stop offset="0.32941176470588235" stop-color="#ffffff"/>
      <stop offset="0.3686274509803922" stop-color="#ffffff" stop-opacity="0.6"/>
      <stop offset="0.4392156862745098" stop-color="#87f4de" stop-opacity="0.6"/>
      <stop offset="0.8509803921568627" stop-color="#93f5e1" stop-opacity="0.0"/>
    </radialGradient>
    <radialGradient cx="0" cy="0" gradientTransform="matrix(1.0, 0.0, 0.0, 1.0, 0.0, 0.0)" gradientUnits="userSpaceOnUse" id="gradient12" r="819.2" spreadMethod="pad">
      <stop offset="0.32941176470588235" stop-color="#ffffff"/>
      <stop offset="0.3686274509803922" stop-color="#ffffff" stop-opacity="0.6"/>
      <stop offset="0.4392156862745098" stop-color="#87f4de" stop-opacity="0.6"/>
      <stop offset="0.8509803921568627" stop-color="#93f5e1" stop-opacity="0.0"/>
    </radialGradient>
    <g id="shape12">
      <path d="M-4.4 -5.35 Q-0.6 -6.1 3.4 -3.6 11.6 8.95 -2.2 4.0 -5.1 1.1 -6.1 -1.0 -7.3 -3.45 -6.1 -4.9 L-4.4 -5.35" fill="url(#gradient13)" fill-rule="evenodd" stroke="none"/>
    </g>
    <radialGradient cx="0" cy="0" gradientTransform="matrix(0.0069, 0.004, -0.0024, 0.0042, -0.15, 0.15)" gradientUnits="userSpaceOnUse" id="gradient13" r="819.2" spreadMethod="pad">
      <stop offset="0.32941176470588235" stop-color="#ffffff"/>
      <stop offset="0.3686274509803922" stop-color="#ffffff" stop-opacity="0.6"/>
      <stop offset="0.4392156862745098" stop-color="#87f4de" stop-opacity="0.6"/>
      <stop offset="0.8509803921568627" stop-color="#93f5e1" stop-opacity="0.0"/>
    </radialGradient>
    <g id="shape13">
      <path d="M-4.4 -5.35 Q-0.6 -6.1 3.4 -3.6 11.6 8.95 -2.2 4.0 -5.1 1.1 -6.1 -1.0 -7.3 -3.45 -6.1 -4.9 L-4.4 -5.35" fill="url(#gradient14)" fill-rule="evenodd" stroke="none"/>
    </g>
    <radialGradient cx="0" cy="0" gradientTransform="matrix(0.0069, 0.004, -0.0024, 0.0042, -0.15, 0.15)" gradientUnits="userSpaceOnUse" id="gradient14" r="819.2" spreadMethod="pad">
      <stop offset="0.32941176470588235" stop-color="#ffffff" stop-opacity="0.5176471"/>
      <stop offset="0.3686274509803922" stop-color="#ffffff" stop-opacity="0.30980393"/>
      <stop offset="0.4392156862745098" stop-color="#87f4de" stop-opacity="0.30980393"/>
      <stop offset="0.8509803921568627" stop-color="#93f5e1" stop-opacity="0.0"/>
    </radialGradient>
  </defs>
</svg>
