<?xml version="1.0" encoding="UTF-8" standalone="no"?>
<svg xmlns:ffdec="https://www.free-decompiler.com/flash" xmlns:xlink="http://www.w3.org/1999/xlink" ffdec:objectType="frame" height="69.625px" width="69.75px" xmlns="http://www.w3.org/2000/svg">
  <g transform="matrix(2.5, 0.0, 0.0, 2.5, 35.625, 52.5)">
    <use ffdec:characterId="26" height="55.75" transform="matrix(0.5, 0.0, 0.0, 0.5009, 0.0, 0.0)" width="55.9" xlink:href="#sprite0"/>
  </g>
  <defs>
    <g id="sprite0">
      <use ffdec:characterId="8" height="24.85" transform="matrix(1.0, 0.0, 0.0, -1.0, 10.75, -6.8)" width="51.6" xlink:href="#sprite1"/>
      <use ffdec:characterId="10" height="11.6" transform="matrix(0.7702, 1.7956, 1.0316, -0.6148, 14.1, -16.05)" width="6.95" xlink:href="#sprite5"/>
      <use ffdec:characterId="10" height="11.6" transform="matrix(0.8955, 2.1292, 1.1996, -0.6597, 2.45, -10.95)" width="6.95" xlink:href="#sprite6"/>
      <use ffdec:characterId="18" height="43.05" transform="matrix(1.0, 0.0, 0.0, 1.0, 13.2, 6.75)" width="27.4" xlink:href="#sprite7"/>
      <use ffdec:characterId="25" height="42.8" transform="matrix(1.0, 0.0, 0.0, 1.0, -15.0, 6.45)" width="30.35" xlink:href="#sprite11"/>
      <use ffdec:characterId="8" height="24.85" transform="matrix(1.0, 0.0, 0.0, 1.0, 10.75, -22.55)" width="51.6" xlink:href="#sprite15"/>
    </g>
    <g id="sprite1">
      <use ffdec:characterId="2" height="24.85" id="cRface3" transform="matrix(1.0, 0.0, 0.0, 1.0, -11.25, -7.0)" width="51.6" xlink:href="#sprite2"/>
      <use ffdec:characterId="4" height="12.65" id="cRcontours3" transform="matrix(1.0, 0.0, 0.0, 1.0, -11.25, -13.1)" width="51.6" xlink:href="#sprite3"/>
      <use ffdec:characterId="6" height="15.35" id="cRboules3" transform="matrix(1.0, 0.0, 0.0, 1.0, -13.75, -8.9)" width="25.35" xlink:href="#sprite4"/>
      <use ffdec:characterId="7" height="6.85" transform="matrix(1.0, 0.0, 0.0, 1.0, 0.0, 0.0)" width="9.65" xlink:href="#shape3"/>
    </g>
    <g id="sprite2">
      <use ffdec:characterId="1" height="24.85" transform="matrix(1.0, 0.0, 0.0, 1.0, 0.0, 0.0)" width="51.6" xlink:href="#shape0"/>
    </g>
    <g id="shape0">
      <path d="M25.8 0.2 Q21.5 6.15 0.6 12.4 -13.9 6.45 -25.8 0.2 -16.2 -7.8 0.2 -12.45 18.45 -7.65 25.8 0.2" fill="url(#gradient0)" fill-rule="evenodd" stroke="none"/>
    </g>
    <linearGradient gradientTransform="matrix(3.0E-4, 0.0198, -0.0315, 4.0E-4, 0.15, 9.8)" gradientUnits="userSpaceOnUse" id="gradient0" spreadMethod="pad" x1="-819.2" x2="819.2">
      <stop offset="0.0" stop-color="#d3f1c6"/>
      <stop offset="0.054901960784313725" stop-color="#f7ffdc"/>
      <stop offset="1.0" stop-color="#fffff1"/>
    </linearGradient>
    <g id="sprite3">
      <use ffdec:characterId="3" height="12.65" transform="matrix(1.0, 0.0, 0.0, 1.0, 0.0, 0.0)" width="51.6" xlink:href="#shape1"/>
    </g>
    <g id="shape1">
      <path d="M25.8 6.3 Q18.45 -1.55 0.2 -6.35 -16.2 -1.7 -25.8 6.3" ffdec:has-small-stroke="true" ffdec:original-stroke-width="0.125" fill="none" stroke="#648461" stroke-linecap="round" stroke-linejoin="round" stroke-width="0.7992807562794045"/>
    </g>
    <g id="sprite4">
      <use ffdec:characterId="5" height="15.35" transform="matrix(1.0, 0.0, 0.0, 1.0, 0.0, 0.0)" width="25.35" xlink:href="#shape2"/>
    </g>
    <g id="shape2">
      <path d="M1.6 -2.4 Q0.7 -1.35 -0.6 -1.15 L-1.45 -1.2 Q-0.9 -0.15 -0.75 1.1 -0.55 3.5 -2.1 5.4 -3.7 7.35 -6.1 7.65 -8.6 7.9 -10.55 6.3 -12.45 4.75 -12.65 2.3 -12.9 -0.2 -11.3 -2.15 -9.75 -4.0 -7.3 -4.25 -5.6 -4.45 -4.15 -3.75 L-4.2 -4.1 Q-4.3 -5.45 -3.45 -6.55 -2.6 -7.55 -1.25 -7.65 0.05 -7.8 1.1 -7.0 2.15 -6.1 2.3 -4.75 2.45 -3.45 1.6 -2.4 M11.9 2.25 L12.0 2.4 11.85 2.35 11.7 2.35 11.8 2.4 12.2 2.65 12.45 3.2 12.4 3.5 12.2 3.8 11.7 4.05 11.8 4.05 12.4 3.8 12.6 3.5 12.65 4.15 Q12.55 5.3 11.75 6.05 10.95 6.85 9.9 6.8 8.75 6.75 8.0 5.95 7.2 5.15 7.3 4.0 7.3 2.9 8.1 2.15 8.9 1.4 10.05 1.4 11.1 1.45 11.9 2.25" fill="#648461" fill-rule="evenodd" stroke="none"/>
    </g>
    <g id="shape3">
      <path d="M-16.25 -14.7 L-16.05 -15.45 Q-15.8 -15.8 -15.35 -15.8 L-14.65 -15.6 Q-14.3 -15.35 -14.25 -14.9 L-14.5 -14.2 -15.15 -13.8 -15.9 -14.05 Q-16.25 -14.3 -16.25 -14.7" fill="#fffffe" fill-opacity="0.5019608" fill-rule="evenodd" stroke="none"/>
      <path d="M-23.9 -10.65 Q-23.95 -11.45 -23.5 -12.0 L-22.3 -12.65 Q-21.5 -12.7 -20.95 -12.2 -20.3 -11.7 -20.25 -10.95 -20.15 -10.3 -20.65 -9.65 -21.1 -9.1 -21.85 -8.95 -22.6 -8.9 -23.25 -9.4 -23.8 -9.9 -23.9 -10.65" fill="#fffffe" fill-opacity="0.5019608" fill-rule="evenodd" stroke="none"/>
    </g>
    <g id="sprite5">
      <use ffdec:characterId="9" height="11.6" transform="matrix(1.0, 0.0, 0.0, 1.0, 0.0, 0.0)" width="6.95" xlink:href="#shape4"/>
    </g>
    <g id="shape4">
      <path d="M1.9 -4.4 L2.2 -3.7 Q3.0 -1.55 2.7 0.7 2.4 3.0 1.2 4.05 0.05 5.1 -1.35 4.3 -2.75 3.55 -3.55 1.4 L-3.6 1.15 Q-3.55 -2.4 -1.7 -4.15 0.1 -5.85 1.9 -4.4" fill="#ffffed" fill-rule="evenodd" stroke="none"/>
      <path d="M-3.6 1.15 Q-4.35 -0.9 -4.05 -3.05 -3.75 -5.3 -2.55 -6.35 -1.4 -7.4 0.0 -6.65 1.15 -6.0 1.9 -4.4 0.1 -5.85 -1.7 -4.15 -3.55 -2.4 -3.6 1.15" fill="#f9f3d6" fill-rule="evenodd" stroke="none"/>
      <path d="M1.9 -4.4 L2.2 -3.7 Q3.0 -1.55 2.7 0.7 2.4 3.0 1.2 4.05 0.05 5.1 -1.35 4.3 -2.75 3.55 -3.55 1.4 L-3.6 1.15 Q-4.35 -0.9 -4.05 -3.05 -3.75 -5.3 -2.55 -6.35 -1.4 -7.4 0.0 -6.65 1.15 -6.0 1.9 -4.4 Z" ffdec:has-small-stroke="true" ffdec:original-stroke-width="0.125" fill="none" stroke="#c7c1a4" stroke-linecap="round" stroke-linejoin="round" stroke-width="0.5240910578429915"/>
      <path d="M0.55 0.7 L0.25 1.05 -0.2 0.7 -0.45 0.1 -0.35 -0.6 Q-0.25 -0.8 0.0 -0.8 L0.4 -0.6 0.6 0.1 0.55 0.7" fill="#918b6e" fill-rule="evenodd" stroke="none"/>
    </g>
    <g id="sprite6">
      <use ffdec:characterId="9" height="11.6" transform="matrix(1.0, 0.0, 0.0, 1.0, 0.0, 0.0)" width="6.95" xlink:href="#shape5"/>
    </g>
    <g id="shape5">
      <path d="M1.9 -4.4 L2.2 -3.7 Q3.0 -1.55 2.7 0.7 2.4 3.0 1.2 4.05 0.05 5.1 -1.35 4.3 -2.75 3.55 -3.55 1.4 L-3.6 1.15 Q-3.55 -2.4 -1.7 -4.15 0.1 -5.85 1.9 -4.4" fill="#ffffed" fill-rule="evenodd" stroke="none"/>
      <path d="M-3.6 1.15 Q-4.35 -0.9 -4.05 -3.05 -3.75 -5.3 -2.55 -6.35 -1.4 -7.4 0.0 -6.65 1.15 -6.0 1.9 -4.4 0.1 -5.85 -1.7 -4.15 -3.55 -2.4 -3.6 1.15" fill="#f9f3d6" fill-rule="evenodd" stroke="none"/>
      <path d="M1.9 -4.4 L2.2 -3.7 Q3.0 -1.55 2.7 0.7 2.4 3.0 1.2 4.05 0.05 5.1 -1.35 4.3 -2.75 3.55 -3.55 1.4 L-3.6 1.15 Q-4.35 -0.9 -4.05 -3.05 -3.75 -5.3 -2.55 -6.35 -1.4 -7.4 0.0 -6.65 1.15 -6.0 1.9 -4.4 Z" ffdec:has-small-stroke="true" ffdec:original-stroke-width="0.125" fill="none" stroke="#c7c1a4" stroke-linecap="round" stroke-linejoin="round" stroke-width="0.45071393407475124"/>
      <path d="M0.55 0.7 L0.25 1.05 -0.2 0.7 -0.45 0.1 -0.35 -0.6 Q-0.25 -0.8 0.0 -0.8 L0.4 -0.6 0.6 0.1 0.55 0.7" fill="#918b6e" fill-rule="evenodd" stroke="none"/>
    </g>
    <g id="sprite7">
      <use ffdec:characterId="12" height="43.05" id="cRface2" transform="matrix(1.0, 0.0, 0.0, 1.0, -3.2, -18.8)" width="27.4" xlink:href="#sprite8"/>
      <use ffdec:characterId="14" height="43.05" id="cRcontour1" transform="matrix(1.0, 0.0, 0.0, 1.0, 0.45, -14.5)" width="27.4" xlink:href="#sprite9"/>
      <use ffdec:characterId="16" height="20.05" id="cRboules" transform="matrix(1.0, 0.0, 0.0, 1.0, -2.4, -9.25)" width="14.7" xlink:href="#sprite10"/>
      <use ffdec:characterId="17" height="14.35" transform="matrix(1.0, 0.0, 0.0, 1.0, 0.0, 0.0)" width="10.15" xlink:href="#shape9"/>
    </g>
    <g id="sprite8">
      <use ffdec:characterId="11" height="43.05" transform="matrix(1.0, 0.0, 0.0, 1.0, 0.0, 0.0)" width="27.4" xlink:href="#shape6"/>
    </g>
    <g id="shape6">
      <path d="M15.9 12.3 Q9.3 18.25 -10.05 25.8 -6.2 11.6 -9.65 -5.0 10.4 -11.05 15.7 -17.25 18.85 -1.0 15.9 12.3" fill="url(#gradient1)" fill-rule="evenodd" stroke="none"/>
    </g>
    <linearGradient gradientTransform="matrix(-0.0125, 0.0238, -0.0166, -0.0087, 2.35, 5.25)" gradientUnits="userSpaceOnUse" id="gradient1" spreadMethod="pad" x1="-819.2" x2="819.2">
      <stop offset="0.0" stop-color="#e3f8d1"/>
      <stop offset="0.054901960784313725" stop-color="#f4ffdb"/>
      <stop offset="1.0" stop-color="#ffffed" stop-opacity="0.0"/>
    </linearGradient>
    <g id="sprite9">
      <use ffdec:characterId="13" height="43.05" transform="matrix(1.0, 0.0, 0.0, 1.0, 0.0, 0.0)" width="27.4" xlink:href="#shape7"/>
    </g>
    <g id="shape7">
      <path d="M12.05 -21.55 Q15.2 -5.3 12.25 8.0 5.65 13.95 -13.7 21.5" ffdec:has-small-stroke="true" ffdec:original-stroke-width="0.125" fill="none" stroke="#acc19e" stroke-linecap="round" stroke-linejoin="round" stroke-width="0.7992807562794045"/>
      <path d="M-13.7 21.5 Q-9.85 7.3 -13.3 -9.3 6.75 -15.35 12.05 -21.55" ffdec:has-small-stroke="true" ffdec:original-stroke-width="0.125" fill="none" stroke="#acc19e" stroke-linecap="round" stroke-linejoin="round" stroke-width="0.7992807562794045"/>
    </g>
    <g id="sprite10">
      <use ffdec:characterId="15" height="20.05" transform="matrix(1.0, 0.0, 0.0, 1.0, 0.0, 0.0)" width="14.7" xlink:href="#shape8"/>
    </g>
    <g id="shape8">
      <path d="M1.05 -4.15 Q0.0 -5.15 0.0 -6.6 0.0 -8.0 1.05 -9.05 2.15 -10.05 3.65 -10.05 5.15 -10.05 6.25 -9.05 7.35 -8.0 7.35 -6.6 7.35 -5.15 6.25 -4.15 5.15 -3.15 3.65 -3.1 2.15 -3.15 1.05 -4.15 M-3.7 10.0 Q-5.2 10.0 -6.3 8.95 -7.35 7.95 -7.35 6.55 -7.35 5.1 -6.3 4.1 -5.2 3.1 -3.7 3.1 -2.2 3.1 -1.1 4.1 0.0 5.1 0.0 6.55 0.0 7.95 -1.1 8.95 -2.2 10.0 -3.7 10.0" fill="#acc19e" fill-rule="evenodd" stroke="none"/>
    </g>
    <g id="shape9">
      <path d="M-8.75 -3.2 Q-9.15 -3.2 -9.45 -3.55 -9.75 -3.9 -9.75 -4.4 L-9.45 -5.2 -8.75 -5.55 Q-8.3 -5.55 -8.0 -5.2 -7.75 -4.9 -7.75 -4.4 -7.75 -3.9 -8.0 -3.55 -8.3 -3.2 -8.75 -3.2" fill="#ffffed" fill-opacity="0.5019608" fill-rule="evenodd" stroke="none"/>
      <path d="M-0.6 -15.55 Q-1.0 -15.55 -1.3 -15.85 L-1.6 -16.55 -1.3 -17.25 Q-1.0 -17.55 -0.6 -17.55 L0.15 -17.25 0.4 -16.55 0.15 -15.85 Q-0.15 -15.55 -0.6 -15.55" fill="#ffffed" fill-opacity="0.5019608" fill-rule="evenodd" stroke="none"/>
    </g>
    <g id="sprite11">
      <use ffdec:characterId="20" height="42.8" id="cRface1" transform="matrix(1.0, 0.0, 0.0, 1.0, 1.6, -14.3)" width="30.35" xlink:href="#sprite12"/>
      <use ffdec:characterId="22" height="26.55" id="cRtaches" transform="matrix(1.0, 0.0, 0.0, 1.0, 1.95, -10.85)" width="26.75" xlink:href="#sprite13"/>
      <use ffdec:characterId="24" height="42.8" id="cRcontours2" transform="matrix(1.0, 0.0, 0.0, 1.0, 0.5, -14.3)" width="28.15" xlink:href="#sprite14"/>
    </g>
    <g id="sprite12">
      <use ffdec:characterId="19" height="42.8" transform="matrix(1.0, 0.0, 0.0, 1.0, 0.0, 0.0)" width="30.35" xlink:href="#shape10"/>
    </g>
    <g id="shape10">
      <path d="M-13.0 -21.4 Q-2.0 -15.7 13.4 -9.2 17.2 8.1 13.0 21.4 0.4 16.4 -13.0 8.4 -14.0 4.9 -14.5 1.45 -15.5 -5.0 -14.95 -11.3 -14.5 -16.4 -13.0 -21.4" fill="url(#gradient2)" fill-rule="evenodd" stroke="none"/>
    </g>
    <linearGradient gradientTransform="matrix(0.0116, -0.0089, 0.0184, 0.0242, 2.25, -1.75)" gradientUnits="userSpaceOnUse" id="gradient2" spreadMethod="pad" x1="-819.2" x2="819.2">
      <stop offset="0.0" stop-color="#e3f8d1"/>
      <stop offset="0.09803921568627451" stop-color="#f4ffdb"/>
      <stop offset="1.0" stop-color="#ffffed" stop-opacity="0.0"/>
    </linearGradient>
    <g id="sprite13">
      <use ffdec:characterId="21" height="26.55" transform="matrix(1.0, 0.0, 0.0, 1.0, 0.0, 0.0)" width="26.75" xlink:href="#shape11"/>
    </g>
    <g id="shape11">
      <path d="M8.6 -11.7 Q10.25 -10.05 10.25 -7.7 10.25 -5.4 8.6 -3.8 7.0 -2.15 4.65 -2.15 2.35 -2.15 0.7 -3.8 -0.9 -5.4 -0.9 -7.7 -0.9 -10.05 0.7 -11.7 2.35 -13.3 4.65 -13.3 7.0 -13.3 8.6 -11.7 M13.4 11.65 Q13.4 12.3 12.95 12.75 L11.85 13.25 Q11.15 13.2 10.7 12.75 10.25 12.3 10.25 11.65 10.25 11.0 10.7 10.55 11.15 10.1 11.85 10.1 12.45 10.1 12.95 10.55 13.4 11.0 13.4 11.65 M-12.55 -3.0 Q-13.4 -3.85 -13.35 -5.05 -13.4 -6.25 -12.55 -7.05 -11.7 -7.9 -10.5 -7.9 -9.3 -7.9 -8.45 -7.05 -7.6 -6.25 -7.6 -5.05 -7.6 -3.85 -8.45 -3.0 -9.3 -2.15 -10.5 -2.15 -11.7 -2.15 -12.55 -3.0 M-7.95 -0.85 Q-7.5 -0.4 -7.5 0.25 -7.5 0.9 -7.95 1.35 -8.45 1.8 -9.05 1.85 -9.75 1.8 -10.2 1.35 L-10.65 0.25 -10.2 -0.85 Q-9.75 -1.3 -9.05 -1.3 -8.45 -1.3 -7.95 -0.85" fill="#acc19e" fill-rule="evenodd" stroke="none"/>
    </g>
    <g id="sprite14">
      <use ffdec:characterId="23" height="42.8" transform="matrix(1.0, 0.0, 0.0, 1.0, 0.0, 0.0)" width="28.15" xlink:href="#shape12"/>
    </g>
    <g id="shape12">
      <path d="M14.1 21.4 Q1.5 16.4 -11.9 8.4 -16.2 -6.85 -11.9 -21.4" ffdec:has-small-stroke="true" ffdec:original-stroke-width="0.125" fill="none" stroke="#acc19e" stroke-linecap="round" stroke-linejoin="round" stroke-width="0.7992807562794045"/>
    </g>
    <g id="sprite15">
      <use ffdec:characterId="2" height="24.85" id="cRface3" transform="matrix(1.0, 0.0, 0.0, 1.0, -11.25, -7.0)" width="51.6" xlink:href="#sprite16"/>
      <use ffdec:characterId="4" height="12.65" id="cRcontours3" transform="matrix(1.0, 0.0, 0.0, 1.0, -11.25, -13.1)" width="51.6" xlink:href="#sprite17"/>
      <use ffdec:characterId="6" height="15.35" id="cRboules3" transform="matrix(1.0, 0.0, 0.0, 1.0, -13.75, -8.9)" width="25.35" xlink:href="#sprite18"/>
      <use ffdec:characterId="7" height="6.85" transform="matrix(1.0, 0.0, 0.0, 1.0, 0.0, 0.0)" width="9.65" xlink:href="#shape16"/>
    </g>
    <g id="sprite16">
      <use ffdec:characterId="1" height="24.85" transform="matrix(1.0, 0.0, 0.0, 1.0, 0.0, 0.0)" width="51.6" xlink:href="#shape13"/>
    </g>
    <g id="shape13">
      <path d="M25.8 0.2 Q21.5 6.15 0.6 12.4 -13.9 6.45 -25.8 0.2 -16.2 -7.8 0.2 -12.45 18.45 -7.65 25.8 0.2" fill="url(#gradient3)" fill-rule="evenodd" stroke="none"/>
    </g>
    <linearGradient gradientTransform="matrix(3.0E-4, 0.0198, -0.0315, 4.0E-4, 0.15, 9.8)" gradientUnits="userSpaceOnUse" id="gradient3" spreadMethod="pad" x1="-819.2" x2="819.2">
      <stop offset="0.0" stop-color="#e3f8d1"/>
      <stop offset="0.054901960784313725" stop-color="#f5ffdc"/>
      <stop offset="1.0" stop-color="#ffffe6"/>
    </linearGradient>
    <g id="sprite17">
      <use ffdec:characterId="3" height="12.65" transform="matrix(1.0, 0.0, 0.0, 1.0, 0.0, 0.0)" width="51.6" xlink:href="#shape14"/>
    </g>
    <g id="shape14">
      <path d="M25.8 6.3 Q18.45 -1.55 0.2 -6.35 -16.2 -1.7 -25.8 6.3" ffdec:has-small-stroke="true" ffdec:original-stroke-width="0.125" fill="none" stroke="#acc19e" stroke-linecap="round" stroke-linejoin="round" stroke-width="0.7992807562794045"/>
    </g>
    <g id="sprite18">
      <use ffdec:characterId="5" height="15.35" transform="matrix(1.0, 0.0, 0.0, 1.0, 0.0, 0.0)" width="25.35" xlink:href="#shape15"/>
    </g>
    <g id="shape15">
      <path d="M1.6 -2.4 Q0.7 -1.35 -0.6 -1.15 L-1.45 -1.2 Q-0.9 -0.15 -0.75 1.1 -0.55 3.5 -2.1 5.4 -3.7 7.35 -6.1 7.65 -8.6 7.9 -10.55 6.3 -12.45 4.75 -12.65 2.3 -12.9 -0.2 -11.3 -2.15 -9.75 -4.0 -7.3 -4.25 -5.6 -4.45 -4.15 -3.75 L-4.2 -4.1 Q-4.3 -5.45 -3.45 -6.55 -2.6 -7.55 -1.25 -7.65 0.05 -7.8 1.1 -7.0 2.15 -6.1 2.3 -4.75 2.45 -3.45 1.6 -2.4 M11.9 2.25 L12.0 2.4 11.85 2.35 11.7 2.35 11.8 2.4 12.2 2.65 12.45 3.2 12.4 3.5 12.2 3.8 11.7 4.05 11.8 4.05 12.4 3.8 12.6 3.5 12.65 4.15 Q12.55 5.3 11.75 6.05 10.95 6.85 9.9 6.8 8.75 6.75 8.0 5.95 7.2 5.15 7.3 4.0 7.3 2.9 8.1 2.15 8.9 1.4 10.05 1.4 11.1 1.45 11.9 2.25" fill="#acc19e" fill-rule="evenodd" stroke="none"/>
    </g>
    <g id="shape16">
      <path d="M-16.25 -14.7 L-16.05 -15.45 Q-15.8 -15.8 -15.35 -15.8 L-14.65 -15.6 Q-14.3 -15.35 -14.25 -14.9 L-14.5 -14.2 -15.15 -13.8 -15.9 -14.05 Q-16.25 -14.3 -16.25 -14.7" fill="#ffffed" fill-opacity="0.5019608" fill-rule="evenodd" stroke="none"/>
      <path d="M-23.9 -10.65 Q-23.95 -11.45 -23.5 -12.0 L-22.3 -12.65 Q-21.5 -12.7 -20.95 -12.2 -20.3 -11.7 -20.25 -10.95 -20.15 -10.3 -20.65 -9.65 -21.1 -9.1 -21.85 -8.95 -22.6 -8.9 -23.25 -9.4 -23.8 -9.9 -23.9 -10.65" fill="#ffffed" fill-opacity="0.5019608" fill-rule="evenodd" stroke="none"/>
    </g>
  </defs>
</svg>
