<?xml version='1.0' encoding='utf-8'?><svg xmlns="http://www.w3.org/2000/svg" xmlns:ns1="http://www.w3.org/1999/xlink" width="294.8" height="298.1" viewBox="0 -0 268 271"><defs><g transform="matrix(1,0,0,1,192.55,294) " id="shape0"><path id="svg_1" stroke-opacity="0" stroke-linejoin="round" stroke-linecap="round" stroke="#ff00ff" fill="none" d="m187.95,-293.5l0,380l-379.95,0l-0.05,0l0,-380l380,0" /><path id="svg_2" stroke-opacity="0" stroke-linejoin="round" stroke-linecap="round" stroke="#ff00ff" fill="none" d="m187.95,-293.5l-190,190l190,190m-380,-380l190,190l-189.95,190" /><path id="svg_3" stroke-opacity="0" stroke-linejoin="round" stroke-linecap="round" stroke="#ff00ff" fill="none" d="m92.95,-38.4l-189.95,0" /></g><g id="shape1"><path id="svg_4" fill-rule="evenodd" fill="#2b4241" d="m50.4,6.25l-0.2,1.75l-3.5,1.85l-14.5,5.2l-10.45,0.75l-3.95,-0.2q-4.25,-0.6 -7.7,-2.65l-0.5,-0.3l-9.55,-4.1l-0.05,0l0.05,-0.05l17.1,0.65l6.7,-3.2l9.7,-2.75l3,-0.2q3.1,-0.75 4.6,-3l6.3,3.85l2.85,1.4l0.1,0.05l0.35,0.15l-0.35,0.8" /><path id="svg_5" fill-rule="evenodd" fill="#2b4241" d="m33.55,3.2l-9.7,2.75l0.95,-0.45l-0.35,-2.6l3.25,0.65l5.85,-0.35" /><path id="svg_6" stroke-width="0.05" stroke-opacity="0.25098" stroke-linejoin="round" stroke-linecap="round" stroke="#2b4241" fill="none" d="m23.85,5.95l-6.7,3.2l-17.1,-0.65l-0.05,0.05l0.05,0l9.55,4.1l0.5,0.3q3.45,2.05 7.7,2.65l3.95,0.2l10.45,-0.75l14.5,-5.2l3.5,-1.85l0.2,-1.75m0.35,-0.8l-0.35,-0.15l-0.1,-0.05l-2.85,-1.4l-6.3,-3.85q-1.5,2.25 -4.6,3l-3,0.2l-9.7,2.75l0.95,-0.45l-0.35,-2.6l3.25,0.65l5.85,-0.35" /></g><g transform="matrix(1,0,0,1,1,0.5) " id="shape2"><path id="svg_7" fill-rule="evenodd" fill-opacity="0.670588" fill="#662142" d="m24.05,19.3q5.75,-1.65 13.3,-1.75l0.75,0l10.35,0.9q3.4,0.6 6.3,1.7q1.25,0.5 2.35,1.05l1.8,1.05l1.75,1.6q1,1.25 1,2.7l-0.2,1.2l-0.45,1l-1.25,1.45l-0.85,0.65l-4.5,1.95l-4,1.25l-0.2,0.05l-6.6,1.1l-1.6,0.1l-1.65,0.1l-1.75,-2.1l0.3,-0.25l13.55,-3.75l2.65,-4.6l0.4,-0.6l0,-0.1l0.05,-0.1l-0.2,-0.15q-0.95,-1.45 -4.85,-2.55l-2.15,-0.55q-4.4,-1 -10.2,-1l-0.8,0l-6.65,0.5l-2.6,0.45l-2.4,0.6l-1.75,0.55l-0.35,0.15l-0.45,-0.05q0.8,-0.6 0.9,-1.75l0,-0.8m34.85,12.2q2.65,1.9 5.1,4.35q11,11 11,26.55q0,5.7 -1.45,10.8q-1.5,2.9 -3.55,5.55l-1.2,1.45q-2.3,2.45 -6.45,4.55q-2.85,1.4 -6.05,2.4q-7.25,2.2 -16.35,2.25l-8.9,-0.6q-3.7,-0.55 -9.75,-2.55l-2.15,-0.75l-1.65,-0.75l-1.6,-0.85l-0.6,-0.8l0.9,2.3q1,2.4 -5.6,-3.85q-5.1,-4.85 -5.7,-15.75q-1.85,-16.5 16.2,-24.5l8.9,2.8l11.45,-0.5q8.25,-4.55 12.2,-7.95l1.1,-0.4q2.55,-0.95 4.15,-2.05l0,-1.5l0,-0.2m-40.15,-10.1l0.45,-0.25l0.15,0.3l-0.6,-0.05" /><path id="svg_8" fill-rule="evenodd" fill="#7b3f1e" d="m48.35,20.65l2.15,0.55q3.9,1.1 4.85,2.55l0.15,0.25l0,0.1l-0.4,0.6l-1.95,2.1l-4.8,-1.7l0,-4.45" /><path id="svg_9" fill-rule="evenodd" fill-opacity="0.670588" fill="#300f20" d="m24.05,19.3l0,0.8q-0.1,1.15 -0.9,1.75l0.45,0.05l-1.1,0.55q1,0.8 1.25,2.3l0,0.1l0.95,0.8l-0.25,0.1l-0.3,0.1l0.4,0.55q0.35,0.55 -0.2,0.95l-0.4,0.3l-0.4,-0.15l2.15,0.75l2.55,0.65l-2.9,2.8l0,2.4l-0.2,0l0.2,0.05l0.85,0.2l1.85,0.35l0.7,0.15l5.25,0.55l0.35,0l0.25,0l3.15,0.05l2.6,-0.05l1.65,-0.1l1.6,-0.1l6.6,-1.1l0.2,-0.05l4,-1.25l4.5,-1.95l0,0.65l0,0.2l0,1.5q-1.6,1.1 -4.15,2.05l-1.1,0.4l-2.9,0.85l-0.2,0.05l-6.6,1.1l-1.6,0.1l-4.25,0.15l-3.15,-0.05l-0.5,0l-0.1,0l-5.25,-0.55l-0.7,-0.15l-0.3,-0.1l0.15,0.05l-0.85,-0.15l-0.85,-0.15l-1.05,-0.25l-0.15,-0.05l-1.8,-0.5l-0.3,-0.1l-1.75,-0.65l-0.3,-0.1q-4.85,-1.85 -2.85,-3.7l-0.05,-0.05l-0.25,-0.1l-0.65,-0.4l-0.15,-0.15l-0.8,-0.6q-1.3,-1.15 -1.7,-2.45l-0.15,-1.15q-0.05,-1.45 1,-2.7l0.7,-0.75l1.95,-1.4l0.1,-0.05l0.4,-0.25l0.6,0.05l-0.15,-0.3q1,-0.5 2.3,-1l2.55,-0.85" /><path id="svg_10" fill-rule="evenodd" fill="#894521" d="m37.35,19.65l0.8,0q5.8,0 10.2,1l0,4.45l-1.3,-0.45l-5.9,-0.9l-3.8,0l0,-4.1m-19,11.8l-0.3,-0.15l0.25,0.1l0.05,0.05" /><path id="svg_11" fill-rule="evenodd" fill="#75411b" d="m53.15,26.8l-1.2,0.85l-1.45,0.6l-2,0.5q-4.4,1 -10.35,1l-3,-0.05l-6.9,-0.8l-2.55,-0.65l-2.15,-0.75l0.4,0.15l0.4,-0.3q0.55,-0.4 0.2,-0.95l-0.4,-0.55l0.3,-0.1l0.25,-0.1q1.55,-0.55 3.4,-0.95l2.6,-0.45l6.65,-0.5l3.8,0l5.9,0.9l1.3,0.45l4.8,1.7" /><path id="svg_12" fill-rule="evenodd" fill="#8d5831" d="m55.35,23.75l0.2,0.15l-0.05,0.1l-0.15,-0.25m-0.25,0.95l-2.65,4.6l-13.55,3.75l-0.3,0.25l1.75,2.1l-2.6,0.05l-3.15,-0.05l-0.25,0l-0.1,-2.55l0.9,-3.15l3,0.05q5.95,0 10.35,-1l2,-0.5l1.45,-0.6l1.2,-0.85l1.95,-2.1m-27.7,12.25l0.85,0.15l0.15,0.05l-1,-0.2" /><path id="svg_13" fill-rule="evenodd" fill-opacity="0.670588" fill="#481830" d="m73.55,73.2q-1.85,6.3 -6,11.7l-1.2,1.45q-2.3,2.45 -6.45,4.55q-2.85,1.4 -6.05,2.4q-7.25,2.2 -16.35,2.25l-8.9,-0.6q-3.7,-0.55 -9.75,-2.55l-2.15,-0.75l-1.65,-0.75q-4.1,-2.05 -6.4,-4.5l-1.25,-1.6l-0.15,-0.2l-0.05,-0.05l-0.25,-0.35q-6.95,-9.45 -6.95,-21.8q0,-9.35 3.95,-17.05q2.65,-5.1 7,-9.5l0.4,-0.35q2.8,-2.75 5.9,-4.75l0.15,0.15l0.65,0.4l0.3,0.15q-2,1.85 2.85,3.7l0.3,0.1l1.75,0.65l0.3,0.1l1.8,0.5l0.15,0.05l1.05,0.25l0.85,0.15l1,0.2l0.7,0.15l5.25,0.55l0.1,0l0.5,0l3.15,0.05l4.25,-0.15l1.6,-0.1l6.6,-1.1l0.2,-0.05l2.9,-0.85q-3.95,3.4 -12.2,7.95l-11.45,0.5l-8.9,-2.8q-18.05,8 -16.2,24.5q0.6,10.9 5.7,15.75q6.6,6.25 5.6,3.85l-0.9,-2.3l0.6,0.8l1.6,0.85l1.65,0.75l2.15,0.75q6.05,2 9.75,2.55l8.9,0.6q9.1,-0.05 16.35,-2.25q3.2,-1 6.05,-2.4q4.15,-2.1 6.45,-4.55l1.2,-1.45q2.05,-2.65 3.55,-5.55" /><path id="svg_14" fill-rule="evenodd" fill="#874b20" d="m23.6,21.9l0.35,-0.15l1.75,-0.55l2.4,-0.6l0,4.1q-1.85,0.4 -3.4,0.95l-0.95,-0.8l0,-0.1q-0.25,-1.5 -1.25,-2.3l1.1,-0.55m7.1,-1.75l6.65,-0.5l0,4.1l-6.65,0.5l0,-4.1m4.45,9.55l-0.9,3.15l0.1,2.55l-0.35,0l-5.25,-0.55l-0.7,-0.15l-1.85,-0.35l-0.85,-0.2l0,-0.05l0,-2.4l2.9,-2.8l6.9,0.8" /><path id="svg_15" fill-rule="evenodd" fill="#8d5335" d="m28.1,20.6l2.6,-0.45l0,4.1l-2.6,0.45l0,-4.1" /><path id="svg_16" fill-rule="evenodd" fill="#7e3920" d="m25.35,34.15l-0.2,-0.05l0.2,0l0,0.05" /><path id="svg_17" fill-rule="evenodd" fill="#874c1e" d="m28.25,37.1l-0.15,-0.05l0.3,0.1l-0.15,-0.05l0.15,0.05l-0.15,-0.05" /><path id="svg_18" stroke-opacity="0.65098" stroke-linejoin="round" stroke-linecap="round" stroke="#572f14" fill="none" d="m61,28.75l0.45,-1l0.2,-1.2q0,-1.45 -1,-2.7l-1.75,-1.6l-1.8,-1.05q-1.1,-0.55 -2.35,-1.05q-2.9,-1.1 -6.3,-1.7l-10.35,-0.9l-0.75,0q-7.55,0.1 -13.3,1.75m-0.1,2.45l1.75,-0.55l2.4,-0.6l2.6,-0.45l6.65,-0.5l0.8,0q5.8,0 10.2,1l2.15,0.55q3.9,1.1 4.85,2.55l0.15,0.25m3.4,6.85l0.85,-0.65m-0.85,0.65l0,0.65m-41.65,-0.75l-0.8,-0.6q-1.3,-1.15 -1.7,-2.45l-0.15,-1.15q-0.05,-1.45 1,-2.7l0.7,-0.75l1.95,-1.4l0.1,-0.05l0.4,-0.25l0.45,-0.25q1,-0.5 2.3,-1l2.55,-0.85m34.85,12.4l0,1.5q-1.6,1.1 -4.15,2.05l-1.1,0.4m-0.5,-8.85l-1.2,0.85l-1.45,0.6l-2,0.5q-4.4,1 -10.35,1l-3,-0.05m2.2,-5.95l3.8,0l5.9,0.9l1.3,0.45l4.8,1.7l1.95,-2.1m-26.7,12.45l0.7,0.15l5.25,0.55l0.1,0l0.5,0l3.15,0.05l4.25,-0.15l1.6,-0.1l6.6,-1.1l0.2,-0.05l2.9,-0.85m-31.15,-13.2l1.1,-0.55m-5.25,9.55l-0.3,-0.15l-0.65,-0.4l-0.15,-0.15m1.1,0.7q-2,1.85 2.85,3.7l0.3,0.1l1.75,0.65l0.3,0.1l1.8,0.5l0.15,0.05l1.05,0.25l0.85,0.15l0.85,0.15l-0.15,-0.05l0.3,0.1l-0.15,-0.05m-3.8,-11.35l0.25,-0.1q1.55,-0.55 3.4,-0.95l2.6,-0.45l6.65,-0.5m-9.1,5.15l-2.55,-0.65l-2.15,-0.75m4.7,1.4l6.9,0.8" /><path id="svg_19" stroke-width="2" stroke-opacity="0.65098" stroke-linejoin="round" stroke-linecap="round" stroke="#572f14" fill="none" d="m58.9,31.5q2.65,1.9 5.1,4.35q11,11 11,26.55q0,5.7 -1.45,10.8q-1.85,6.3 -6,11.7l-1.2,1.45q-2.3,2.45 -6.45,4.55q-2.85,1.4 -6.05,2.4q-7.25,2.2 -16.35,2.25l-8.9,-0.6q-3.7,-0.55 -9.75,-2.55l-2.15,-0.75l-1.65,-0.75q-4.1,-2.05 -6.4,-4.5l-1.25,-1.6l-0.15,-0.2l-0.05,-0.05l-0.25,-0.35q-6.95,-9.45 -6.95,-21.8q0,-9.35 3.95,-17.05q2.65,-5.1 7,-9.5l0.4,-0.35" /><path id="svg_20" fill-rule="evenodd" fill-opacity="0.670588" fill="#3d1428" d="m18,84.55l-0.35,-0.35l-0.95,-1.25l-0.15,-0.2l-0.2,-0.25q-4.65,-6.35 -5.2,-14.4q9.85,7.55 25.35,-2.3q6.9,-4.4 13.9,-4.4l4.4,0.45q3,0.6 5.75,1.8q3.85,1.7 7.3,4.45q-0.55,8.4 -5.55,14.9l-0.95,1.15l-0.4,0.4q-26.6,6.7 -42.95,0" /><path id="svg_21" fill-rule="evenodd" fill="#7d1470" d="m50.4,61.4q-7,0 -13.9,4.4q-15.5,9.85 -25.35,2.3q0.55,-8.05 20.85,-7.45l18.4,0.75" /><path id="svg_22" fill-rule="evenodd" fill="#2c1c24" d="m18,84.55q16.35,6.7 42.95,0q-1.7,1.6 -4.45,3q-7.05,3.5 -17,3.55l-6.75,-0.45q-2.8,-0.4 -7.4,-1.95l-1.6,-0.55l-1.25,-0.6q-2.8,-1.4 -4.5,-3" /><path id="svg_23" fill-rule="evenodd" fill="#935c02" d="m31.25,12.6l-6.2,-1.45q-5.6,-1.95 -5.6,-4.65q0,-1.25 1.25,-2.35q3.1,-1 6.8,-1.15l-1.2,-1.5l3.15,-0.75l3,-0.45l6.05,-0.3q5.6,-0.05 10.1,0.95l-5,3.1l8.35,-1.6l1.3,-0.15q3.55,1.5 4.2,3.4l-0.3,2.3q-1.15,1.75 -5.15,3.15l-2.45,0.7l-2.45,-0.55l-4.9,1.25l0.8,0.3l-1.9,0.15l-0.65,0l-1.25,0.05l-0.1,0l-0.25,0l0.05,-0.1l-2.8,-0.4l-2.4,0.05l0.45,0.3l-1.2,-0.1l-1.7,-0.2" /><path id="svg_24" fill-rule="evenodd" fill="#7b4d02" d="m32.7,28.1l-1.45,-15.5l1.7,0.2l1.2,0.1l2.55,0.7l1.85,-0.4l-0.05,-0.15l0.35,0l0.25,0l0.1,0l1.25,-0.05l0.65,0l1.55,15.25l-4.15,0.15l-1.15,0l-4.55,-0.3l-0.1,0" /><path id="svg_25" fill-rule="evenodd" fill="#633f02" d="m19.45,6.5q0,2.7 5.6,4.65l6.2,1.45l1.45,15.5q-3.35,-0.45 -6.05,-1.4q-2.5,-0.85 -3.75,-1.9l-0.35,-0.35l-0.85,-4.55l0.65,-0.15l-0.9,-1.1l-0.45,-2.4q1.2,-0.55 1.8,-1.6l-0.1,-0.3q-0.95,-0.5 -2.1,-0.6l-1.35,-7.2l0.2,-0.05m32.5,-4.05l-8.35,1.6l5,-3.1l0.8,0.2l-0.1,0.05l-0.1,0.4q1.2,0.8 2.75,0.85" /><path id="svg_26" fill-rule="evenodd" fill="#835202" d="m41.1,13l1.9,-0.15l3.8,1.4l-0.05,0.9l-0.85,12.7l-1.15,0.2l-2.1,0.2l-1.55,-15.25" /><path id="svg_27" fill-rule="evenodd" fill="#724702" d="m49.55,11.85l2.45,-0.7q4,-1.4 5.15,-3.15l-1.05,7.2l-1.7,0.4q0.9,0.2 1.5,0.65l-0.35,2.65l-1.15,0.35l1.1,0.4l-0.65,4.4l-1.15,1.1q-1.2,0.85 -3.3,1.55l-4.5,1.15l0.85,-12.7l0.05,-0.9l0.65,0.25l3.6,-2.3l-1.5,-0.35" /><path id="svg_28" fill-rule="evenodd" fill="#3f2201" d="m22.55,24.45l0.35,0.35l-0.3,0.05l-0.05,-0.4" /><path id="svg_29" fill-rule="evenodd" fill="#a9855a" d="m34.15,12.9l-0.45,-0.3l2.4,-0.05l2.8,0.4l-0.05,0.1l-0.35,0l0.05,0.15l-1.85,0.4l-2.55,-0.7m8.85,-0.05l-0.8,-0.3l4.9,-1.25l2.45,0.55l1.5,0.35l-3.6,2.3l-0.65,-0.25l-3.8,-1.4" /><path id="svg_30" fill-rule="evenodd" fill-opacity="0.85098" fill="#3f2100" d="m22.9,24.8q1.25,1.05 3.75,1.9q2.7,0.95 6.05,1.4l0.1,0l2.45,14.4l-4.15,0l0,-0.5l-5.7,-2.45l-2.8,-14.7l0.3,-0.05" /><path id="svg_31" fill-rule="evenodd" fill-opacity="0.882353" fill="#5a3001" d="m45.9,27.85l4.5,-1.15l3.2,0.15l-0.3,5.4l-2.55,8.6l-8.8,1.65l-6.7,0l-2.45,-14.4l4.55,0.3l1.15,0l4.15,-0.15l2.1,-0.2l1.15,-0.2" /><path id="svg_32" stroke-linejoin="round" stroke-linecap="round" stroke="#442200" fill="none" d="m19.45,6.5l-0.2,0.05l1.35,7.2q1.15,0.1 2.1,0.6l0.1,0.3q-0.6,1.05 -1.8,1.6l0.45,2.4l0.9,1.1l-0.65,0.15l0.85,4.55m34.6,-16.45l0.3,-2.3q-0.65,-1.9 -4.2,-3.4l-1.3,0.15m-3.35,-1.5q-4.5,-1 -10.1,-0.95l-6.05,0.3l-3,0.45l-3.15,0.75l1.2,1.5q-3.7,0.15 -6.8,1.15q-1.25,1.1 -1.25,2.35m29.15,-5.55l0.8,0.2l-0.1,0.05l-0.1,0.4q1.2,0.8 2.75,0.85m-1.55,24.25q2.1,-0.7 3.3,-1.55l1.15,-1.1l0.65,-4.4l-1.1,-0.4l1.15,-0.35l0.35,-2.65q-0.6,-0.45 -1.5,-0.65l1.7,-0.4l1.05,-7.2m-14.5,20.25l2.1,-0.2l1.15,-0.2" /><path id="svg_33" fill-rule="evenodd" fill-opacity="0.25098" fill="#725462" d="m68.7,54.2q1.05,5.8 -0.55,9.9q-1.6,4.1 -5,4.1q-3.35,0 -6.5,-4.1q-3.15,-4.1 -4.2,-9.9q-1.1,-5.8 0.55,-9.9q1.6,-4.1 4.95,-4.1q3.4,0 6.55,4.1q3.1,4.1 4.2,9.9" /><path id="svg_34" fill-rule="evenodd" fill="#9e81a7" d="m64.3,52.4q-0.2,-1.15 0.15,-1.95q0.3,-0.8 0.95,-0.8q0.65,0 1.25,0.8q0.6,0.8 0.85,1.95q0.2,1.1 -0.1,1.9q-0.35,0.8 -1,0.8q-0.65,0 -1.25,-0.8q-0.65,-0.8 -0.85,-1.9" /><path id="svg_35" fill-rule="evenodd" fill="#abab89" d="m58.45,28.6q-0.65,0 -1.25,-0.45q-0.65,-0.45 -0.85,-1.05q-0.2,-0.65 0.15,-1.1q0.3,-0.45 0.95,-0.45q0.65,0 1.25,0.45q0.6,0.45 0.85,1.1q0.2,0.6 -0.1,1.05q-0.35,0.45 -1,0.45" /><path id="svg_36" stroke-linejoin="round" stroke-linecap="round" stroke="#ab8900" fill="none" d="m29.6,32.7l-0.35,-0.05l-0.05,0m18.2,-0.3l-4,0.6m13.75,-4.4l-3.2,1.8" /><path id="svg_37" stroke-linejoin="round" stroke-linecap="round" stroke="#abab89" fill="none" d="m53.95,30.35l-0.65,0.25l-3.8,1.25l-0.15,0.05l-1.95,0.45" /><path id="svg_38" stroke-linejoin="round" stroke-linecap="round" stroke="#4b3639" fill="none" d="m26.85,32.15l-0.95,-0.25l-1.85,-0.55l-1.95,-0.75l-0.25,-0.1l-1.1,-0.5" /><path id="svg_39" stroke-linejoin="round" stroke-linecap="round" stroke="#5a4044" fill="none" d="m29.2,32.65l-0.4,-0.1l-0.35,-0.1l-0.8,-0.15" /><path id="svg_40" stroke-linejoin="round" stroke-linecap="round" stroke="#705a5d" fill="none" d="m43.4,32.95l-0.25,0.05l-1.5,0.1l-3.95,0.15l-0.4,0l-2.6,-0.05l-0.55,0l-4.55,-0.5l13.8,0.25z" /><path id="svg_41" stroke-width="2" stroke-opacity="0.65098" stroke-linejoin="round" stroke-linecap="round" stroke="#572f14" fill="none" d="m11.35,35.5q2.8,-2.75 5.9,-4.75" /><path id="svg_42" fill-rule="evenodd" fill-opacity="0.611765" fill="#38232d" d="m54.9,81.95q-4,2.15 -7.35,1.95q-3.4,-0.25 -4.2,-2.7q-0.8,-2.45 1.5,-5.75q2.25,-3.25 6.25,-5.4q4,-2.15 7.4,-1.9q3.35,0.2 4.15,2.65q0.8,2.5 -1.45,5.75q-2.3,3.25 -6.3,5.4" /></g><g transform="matrix(1,0,0,1,133.15,134.35) " id="shape3"><path id="svg_43" stroke-linejoin="round" stroke-linecap="round" stroke="#5f4221" fill="none" d="m-15.7,-89.45l0.4,0.3l0.15,0.1l3.25,2.55l7,6.1q2.5,-0.25 6.7,1.35l11.4,5.35l4,2.4l0.25,-1.6l10.7,3l21.65,11.25l0.1,0.05l-11.2,-8.35l-0.5,-0.45l-1.3,-1.05q-3.45,-2.75 -7.85,-5.3l-5,-2.65l-13.5,-6.25l-19.9,-6.55l-4.95,-1.25l-0.75,0.8" /><path id="svg_44" fill-rule="evenodd" fill="#a89c7b" d="m113.4,53.25l0.1,0.45l-1.85,2.55l1.75,-3m-190.3,22.85l6.25,-4.2l-5.1,5.3l-1.15,-1.1m-41.9,-39.1l-5.55,1.8l4.75,-3.15l0.8,1.35m9.4,-6.25l-8.05,0.7l7.85,-1.65l0.2,0.95m74.45,-77.9l-0.8,1l-2.45,0.15l-1.05,0.45l-0.7,-0.6l-1.3,-0.35l-1.65,0.3l-1.95,-0.95l-1.1,0.05l-2.05,0.1l-1.85,-0.85l2.75,-1.8l0.3,0.35l1.65,-0.95l1.35,1.5l0.45,-0.3l1,0.5l1.05,-0.5l0.55,0.75l0.9,1.2l0.2,-0.95l3.1,-0.25l0.5,1.15l1.1,0m-21.05,-0.8l-2.35,0.45l-1.35,0.25l-4.05,1.9l-0.15,-0.05l-1.85,-0.65l3.6,-2.55l0.85,0.2l1.55,0.3l1.3,-0.5l2.45,0.65m-8.65,3.5l-1.15,1.85l0,0.05l-1.95,-0.6l1.65,-2.35l1.45,1.05m6.15,-89.05l0,0.1l-3.2,-0.2l-2.25,0.7l1.5,-1.45l3.95,0.85m15.1,57.65l5.4,1.35l-13.3,0.55l7.9,-1.9m-16.5,-11.25l-12.55,1.75l-0.5,0.3l0.3,-0.65l4.35,-2.25l8.4,0.85m1.85,28.65q-5.2,-1.8 -10.25,-2.4l0.1,0l-2.4,0.15q-2.6,-1.6 -5.3,-2.5l7.55,2.3q5.6,-0.15 12.3,1.25l-2,1.2m-10.4,-2.45l0.15,0.05l-0.05,-0.05l-0.1,0m8.7,12.8l1.4,0.6l-1.4,-0.6m14.35,0.4l-1.4,-1.6l1.4,1.6l1.6,-1.05l-1.6,1.05l-0.55,0.6l0.55,-0.6m-9.85,108.05l-5.55,2.15l-2.1,-1.35l0.15,-1.95l3.15,-1l-1.65,1.6q-1.15,0.85 0.45,1.65l5.35,-1.65l0.2,0.55" /><path id="svg_45" fill-rule="evenodd" fill="#b58e40" d="m5.2,-62.8l-0.05,0.05l0.05,-0.05m10.45,50.75l0.4,0.55l0,0.05l-0.5,-0.65l0.1,0.05" /><path id="svg_46" fill-rule="evenodd" fill="#ebe9d3" d="m24.95,75.5l0.05,0.05l-0.1,0l0.05,-0.05m-66.1,50.85l0,-0.05l1.05,-1.15l-1.05,1.2m-13.7,-68.7l-3.5,-5.45l4.25,2.55l-0.75,2.9" /><path id="svg_47" fill-rule="evenodd" fill="#b19f7c" d="m36.9,99.8l-2,1l1.2,-1.55l0.8,0.55" /><path id="svg_48" fill-rule="evenodd" fill="#c4b49b" d="m-29.7,63.6l1.15,-2.15l0.6,1l-1.75,1.15" /><path id="svg_49" fill-rule="evenodd" fill="#967134" d="m-1.3,-53.65l3.3,2.4l1.25,-0.5l1.9,-0.3l2,0.25q1.1,0.25 2.25,0.95l0.5,0.3l1.6,2.15l0.45,1.05l1.1,1.25l-0.1,0.55l-4.35,-3.6l-0.6,-0.3l-0.25,-0.05l-0.55,0.1l-0.85,0.2l-1.7,0l-0.1,0l-3.45,-0.55l-1.25,-0.25l0.95,1.9q-2.35,-1.75 -3.5,-1.85l-2.7,2.05l-1.85,1.4l-4.55,-0.8q6.45,0.35 4.75,-1.1l-0.25,-0.2l-2,-1.05l2.05,-2.25q2.95,-0.6 4.6,-1.7l0.65,0.05l0.35,-0.05l0.35,-0.05m6.5,-9.15l-0.05,0.05l0,-0.05l0.05,0m7.35,35.4q-3.55,-1.45 -4.15,-4.8l6.3,1.3l0.2,3.1l-0.55,0.95l-1.8,-0.55m12.9,20.95l0.65,0.1l2.2,1.45l-0.1,0.55l-0.4,1.9l-0.55,2.65l-0.35,1.8l-0.5,2.35l-0.75,0.2l-0.2,-11m-9.4,-5l0.25,0.15l0.2,0.15l0.2,0.7l0.05,0.15l0.6,2l-0.2,0.75l-0.05,0.2l-0.15,0.6l-0.6,-0.35l-0.55,-3.5l0.1,-0.25l0.15,-0.6m-29.6,-42.3q1.2,-2.55 -0.25,-4.1l2.6,-1.6l-0.95,3.25l-1.4,2.45m7.75,4.7l-3.5,-0.6l3.5,0.6m0.4,1.15l-1.65,-0.5l1.65,0.5m-11.2,16.7l0.2,-5.7l0.45,-0.85l4.45,-0.5l0,0.15l0.8,9.15l-0.75,-0.85l-0.45,-0.1l-4.7,-1.3m4.55,-6.35l0.55,-0.55l-0.55,0.55m-1.6,2.2l-2.4,3.55l2.4,-3.55m-13.85,38.25q1.85,0.7 3.5,2.65l0.35,0.45l0.65,3.6l-0.75,-0.15l-1.5,-1.2l-0.25,-0.2l-2,-5.15" /><path id="svg_50" fill-rule="evenodd" fill="#bb451e" d="m16.4,-36.8l0.3,1.1l0.15,0.7l-0.2,0.2l-0.75,0.7l0.8,-1.6l-0.8,1.6l-1.15,1.05l-0.45,-2.55l0.7,-1.8l1.4,0.6m-14.6,3.2l1.6,1.8l-1.4,2l-2,0.6l-1.35,-1.9l0.5,-2.3l2.65,-0.2m-0.4,0.8l0.2,1.2l-0.2,-1.2m0.1,2.15l-1.4,-0.1l-0.45,-1.05l0.45,1.05l1.4,0.1" /><path id="svg_51" fill-rule="evenodd" fill="#f3f1e4" d="m-52.4,-113.35q5.7,-2.5 10.6,-4.15l0.65,-0.2q-1.55,5.4 -3.5,8.75l-0.6,1q-1.7,2.85 -3.7,5.2l-0.15,0.2q-1.9,2.15 -3.95,3.85q-1.15,0.9 -2.35,1.7l-15.4,1l-0.1,-1.55q2.95,-1 5.8,-2.95q4.05,-2.85 7.8,-7.65q1.6,-2.05 3.15,-4.45l1.75,-0.75" /><path id="svg_52" fill-rule="evenodd" fill="#dbd6b3" d="m38.1,26.2l-0.4,1.95l-0.9,3.6l-2.85,5.1l-1.65,5.5l-4.15,5.4l-1.25,-1.55l-0.15,-1.7l-0.1,-1.65l-0.25,-0.75l-0.5,-1.5l0.15,-0.4l0.6,-2.15l0.55,-1.9l5,-1.55l5.9,-8.4m-65.65,29.75l0.75,-4l-4.65,-9.3l9.15,5.55l1.8,5.55l2.6,0.3l5.15,-17.15l0.95,4.3q0.15,2.2 -0.05,4.5q0.2,-2.3 0.05,-4.5l1.7,7.4l0.1,0.3l2.4,2.65l0.4,-0.55l6.15,4.2l0.05,0.05l7.75,4.45q-4.1,1.25 -9.65,1.25l-1.7,-0.05q-6.4,-1.15 -9.8,-3.2q-4.2,0.65 -7.8,2q-3.1,1.1 -5.75,2.75l-0.6,-1l1,-5.5m-34.6,-9.25l0.15,-0.1l0.1,0.1l-0.25,0m55.8,5.85l-1.25,-1l1.25,1m-20,-3.3l-0.45,2.7l0.45,-2.7" /><path id="svg_53" fill-rule="evenodd" fill="#244a49" d="m8.15,93.4l-0.6,1.15l-0.15,2.25l1.2,1.8l-6.85,0.6l-2.1,1.35l-4.35,-0.9l-0.75,-1.2q1.55,-5.35 5.3,-11.35q4,-1.8 7.95,-2.1l4.35,1.2l0,0.85l-3.05,4.85l-0.95,1.5m-13,19.95l10.45,6.15l1.75,6.1l-4.95,1.45l-9.5,-4.75l-0.3,-6l-2.55,-0.95l5.1,-2m-27.5,3.75l-0.05,0.9l0.9,1.55l-3.4,4.75l5.65,7.2l7.45,1.5l0.9,-0.45l0.4,-0.2l0.15,0.85l-3.3,2.4l-7.45,0.25l-10,-4.15l-0.05,-5.35l1.05,-1.2l1.75,-1.9l0.8,-0.9l1.95,-2.15l0.4,-0.45l1.3,-1.45l0.25,-0.25l0.9,-1.05l0.4,0.1" /><path id="svg_54" fill-rule="evenodd" fill="#63513d" d="m-2.9,60.95l-0.3,0.6l-1.4,-0.65l1.7,0.05" /><path id="svg_55" fill-rule="evenodd" fill="#866b53" d="m-10.4,-115.5q4.05,-4.35 8.8,-1.9q3.65,3.6 6.3,8.05q-2.35,-2.25 -5.15,-2.95l-2.9,0.3q-0.95,0.55 -1.4,1.55q-1.6,-2.9 -4.2,-4.95l0.35,1.7q-0.65,-0.95 -1.8,-1.8m-3.4,57.65l-5.3,1.65l-1.05,1.75l-1.95,0.05l-0.75,2.25l-3.05,0.85l-0.6,0.65l-1.35,-0.55l-1.55,2.3l-2,-0.35l-0.2,-0.05l0.1,1.05l-0.9,1.1l-2.55,0l-1.1,0l-0.5,-1.15l-3.1,0.25l-0.2,0.95l-0.9,-1.2l2.7,-1.85l1.05,0.05l1.35,-2.35l2.65,-0.75l0.5,-2.1l3,-3.5l3.95,0.2l10.45,-0.75l4.85,-1.7l-0.55,1.3l-0.4,0.3l-2.6,1.6m-36.05,10l-2.35,-1.05l-0.4,-0.2l-1.2,0.2l0.4,-0.95l0.35,-0.75l0.25,-0.65l4.45,0.15l1.25,1.45l-2.75,1.8m-10.7,-76.2l0.95,2.6q2.2,4.7 7.2,8.1l-1.75,0.75q-1.55,2.4 -3.15,4.45q-6.35,-4.2 -5.75,-13.8l2.5,-2.1m11.6,21.3q2,-2.35 3.7,-5.2l2.55,2.15l2.65,-0.15l5.9,-3.35l1.95,0.1l7.9,3.05l0.95,0.7q-3.3,0.9 -9.75,4.85l-5.5,1.05l-3.75,1.35l-1.25,-0.45l-5.35,-4.1m14.5,8.45l4,-0.2q4.9,1.25 8.95,3.75l-5.25,0.5l-2.2,-1.15l-5.5,-2.9l5.5,2.9l-5.55,-1.35q-5.7,1.05 -10.1,3.45l-3.1,-1.55l2.35,0.85q4.9,-2.9 10.9,-4.3m-12.85,28.45l0.05,0l9.55,4.1l0.5,0.3q-8.7,1.4 -16.6,4.6l-0.95,-0.4l-0.15,-0.05l-3.15,-1.15l2,-1.2q3.65,-3.8 8.75,-6.2m15,12.45l-0.7,0.2l0.7,-0.2m1.8,0l2.15,2l0.5,0.2l-0.5,-0.2l-2.15,-2m-6.5,3.3l0.75,0l-0.75,0" /><path id="svg_56" fill-rule="evenodd" fill="#b39a82" d="m18.2,-97.2l-0.8,2.1l-0.7,-0.9l1.5,-1.2m-14.75,28.25l-0.35,0.8l-0.2,1.75l-3.5,1.85l-2.1,0.8l-7.55,2.7l-4.85,1.7l-10.45,0.75l-3.95,-0.2q-4.25,-0.6 -7.7,-2.65l-0.5,-0.3l-9.55,-4.1l-0.05,0l0.05,-0.05l17.1,0.65l6.7,-3.2l0.95,-0.45l-0.35,-2.6l3.25,0.65l8.85,-0.55q3.1,-0.75 4.6,-3l6.3,3.85q0.35,0.15 0.65,0.35l2.2,1.05l0.1,0.05q0.15,0.1 0.35,0.15m-17.8,-1.15l-9.1,1.65l9.1,-1.65m11.2,-14.1l0.3,0.05l-0.2,0l-0.1,-0.05" /><path id="svg_57" fill-rule="evenodd" fill="#dbcfc4" d="m-60.55,-124.05l2.6,-2.1q0.1,-3.9 -0.55,-7.25l2.15,9.05q-1.9,0.5 -3.25,2.9l-0.95,-2.6m-27.55,7.35l1.85,4l-1.85,-4m2.15,6.35l-3.15,-6.45q-0.8,-2.55 0.35,-5.1q4.05,-2.8 8.35,-4.7q-4.85,2.85 -5.4,7.65q-0.75,2.4 -0.45,6.25l0.1,0.7l0.1,1.15l0.1,0.5m32.55,60.5l-1.75,-1.15l2.1,0.4l-0.35,0.75" /><path id="svg_58" fill-rule="evenodd" fill="#bb8b3e" d="m9.2,-34.55l-0.15,-1.2l0.15,0.65l0,0.55" /><path id="svg_59" fill-rule="evenodd" fill="#7b5b28" d="m16.65,-34.8l3.35,3.45l1.5,4.7l0.55,3.05l5.7,4.55l4,8.45l0.45,4.2l2.25,1.7l1.15,4.55l-0.25,2.15l-1.9,1.15l-2.6,-3.9l-0.95,-1.45l0,-1.7l-1.6,-1l-2.2,-1.45l-0.65,-0.1l-0.55,-0.05l-0.1,-2.2l-4.05,-5.7l-3.05,-1.25l-0.05,0l-1.25,-3.3l-0.15,-0.45l-0.95,-2.05l-2.1,-3.85l0.25,-0.3l0.45,-0.5l0.45,-0.75l0.55,-0.95l-0.2,-3.1l-0.15,-2l0.2,-0.15l1.15,-1.05l0.75,-0.7m-23.55,-20.75l1.4,1.05l0.2,0.1q1.1,0.55 2.65,0.8q-1.65,1.1 -4.6,1.7l-2.05,2.25l2,1.05l0.25,0.2q1.7,1.45 -4.75,1.1l-0.2,0q0.3,-1.95 -3,-0.55l-0.3,0.15l-0.4,-0.95l5,-3.6l1.25,-0.9l2.55,-2.4m11.55,6.35l-1.75,1.35l-2.1,-0.25l-0.95,-1.9l1.25,0.25l3.45,0.55l0.1,0m3.35,-0.25l-0.8,0.05l0.55,-0.1l0.25,0.05m-19.95,-1.2l1.35,-1.35l-0.1,-0.25l0.1,0.25l-1.35,1.35" /><path id="svg_60" fill-rule="evenodd" fill="#2e5c58" d="m46.8,100.8l1.9,6.9l-0.3,4.1l-6.75,5.9l-5.8,-4.45l-1.65,-6.55l2.7,-6.9l0.2,-0.1l1.25,0.35l5.15,1.4l3.3,-0.65m-8.1,0.35l-0.35,-1.1l0.35,1.1m-70.2,18.4l0.25,0.5l2,1.4l-1.15,3.55l9.5,7.55l-0.9,0.45l-7.45,-1.5l-5.65,-7.2l3.4,-4.75" /><path id="svg_61" fill-rule="evenodd" fill="#a88c71" d="m5,-108.35l8.55,0.1l-0.35,-3.4l2.5,4.7l2.5,9.75l-1.5,1.2q-1.75,-2.25 -4,-4.15l-0.05,0l-2.35,-1.8l1.4,3l-1.6,-1.2l-3.25,-1.65q-0.5,-3 -1.85,-6.55" /><path id="svg_62" fill-rule="evenodd" fill="#835b2c" d="m5.15,-62.8l0.05,0l-0.05,0" /><path id="svg_63" fill-rule="evenodd" fill="#926530" d="m-18.25,-73.15l-0.2,-2.8l1.1,-2.85l4,0.25q1.15,1.3 1.55,3.6l-5.25,2.25l-1.2,-0.45m1.45,-3.45l1.85,-0.4l1.35,2.2l-1.35,-2.2l-1.85,0.4" /><path id="svg_64" fill-rule="evenodd" fill="#724f25" d="m14.6,-64.45l-1.65,2.1l-0.45,-0.4l-0.2,0l0.25,-0.4l-1.45,0.3l-3.6,-0.35l-2,0.35l-0.3,0.05l-0.05,0l-0.25,-0.1l-0.2,-0.1l0,0.05l-1.45,-0.45q3.4,-1.65 7.35,-1.55l4,0.5" /><path id="svg_65" fill-rule="evenodd" fill="#4b7070" d="m14.25,-73.35l-0.75,-0.05l-1.7,-0.75l2.45,0.8" /><path id="svg_66" fill-rule="evenodd" fill="#567e7e" d="m7.2,-70l-0.55,-0.15l-0.25,-0.1l0.8,0.25" /><path id="svg_67" fill-rule="evenodd" fill="#294a56" d="m-83.95,32.1l1.65,-0.55l0.65,-1.25l3.9,-0.55l0.4,-1.85l6.5,-0.25q-3.15,4.9 -5.05,11l-3.35,1.3l-0.5,-1l-0.55,-1.05l0.55,1.05l-4.55,0.25l-0.5,-0.1l-0.6,-2.95l-0.3,-1.25l1.35,-2.7l0.4,-0.1m5.85,-0.95l0.35,-1.4l-0.35,1.4m-2.65,5.25l-1.7,-4.5l0.15,-0.35l-0.15,0.35l1.7,4.5" /><path id="svg_68" fill-rule="evenodd" fill="#43788b" d="m-29.25,121.45l7.85,5.45l0.9,5.45l-0.4,0.2l-9.5,-7.55l1.15,-3.55" /><path id="svg_69" fill-rule="evenodd" fill="#dfdabd" d="m35.45,78.45q-3.05,1.8 -5.65,4l1.7,-5.25l3.95,1.25l-3.95,-1.25l-0.25,-0.1l-2.35,-4.6l3.4,-4.05l0.5,0.9l0.2,0.3l0.25,1.3l0.55,2.35l6.1,2.55l-0.15,1.85l-1.55,0.9l-2.75,-0.15m-47.25,-37.25q-0.1,-2 -0.5,-3.9l-0.1,-0.45l-0.15,-0.65l-0.25,-0.8l-0.25,-0.8l-0.15,-0.9l-0.25,-1.2l0.45,0.7l8.05,13.1l20.85,14l10.4,10.1l0,10.15l-1.6,-0.2l-5.25,7.35l-5.55,4.35l-4.8,-0.15l3.05,-4.85l0,1.25l3.55,-0.9l0.2,-1.8q5.15,-4.7 9,-10.05l0.1,0l-0.05,-0.05l-1.95,-3.35q-5.75,-5.45 -13.25,-10.55l-3,-1.9l-7.75,-4.45l-0.05,-0.05l-6.15,-4.2l-0.4,0.55l-2.4,-2.65l-0.1,-0.3l-1.7,-7.4m37.1,36.8l-0.3,-2.4l0,-0.05l0,0.05l0.3,2.4m-9.7,10l0.1,-0.6l-0.1,0.6m-28.8,-54.3l0.2,-0.5l-0.2,0.5m-40.85,44.8l0.05,0l0,0.3l-0.05,-0.3" /><path id="svg_70" fill-rule="evenodd" fill="#f1efe2" d="m29.8,82.45q-2.35,1.95 -4.35,4.2l-5.6,8.45l0.1,0.65l-0.05,0.15l-0.8,1.75l0,0.05l-0.35,0.45l-3.45,2.55l-3.85,-0.15l-0.45,-1.35l-1.25,-0.75l-0.7,-0.45l-0.45,0.6l-1.2,-1.8l0.15,-2.25l0.6,-1.15l0.95,-1.5l4.8,0.15l5.55,-4.35l5.25,-7.35l1.6,0.2l0,-10.15l-10.4,-10.1l-20.85,-14l-8.05,-13.1l-0.45,-0.7l0.25,1.2l0.15,0.9l0.25,0.8l0.25,0.8l0.15,0.65l0.1,0.45q0.4,1.9 0.5,3.9l-0.95,-4.3l-5.15,17.15l-2.6,-0.3l-1.8,-5.55l-9.15,-5.55l4.65,9.3l-0.75,4l-17.1,-12.15l3.2,-2.4l-2.5,-5.85l-5,2.45l-0.55,2.4l-4.35,-3.1l5.75,-5.25l2.1,-9.9l2.7,0.15l1.35,2l1.1,1l1.55,7.55l6.3,2.4l10,-4.7l4.55,-6.8l6.95,-4l8,1.05l0.8,-3.7l11.4,1l0.25,0.25l5.6,2.2l0.9,1.1l1.7,0.45l8.15,-1.5l12.7,1.4l0.65,0.1l-0.55,4.1l-5.9,8.4l-5,1.55l1.35,-5.55l-1.35,5.55l-0.55,1.9l-0.6,2.15l-0.15,0.4l0.5,1.5l0.25,0.75l0.1,1.65l0.15,1.7l1.25,1.55l0.4,0.45l4.1,10.95l-0.1,-0.8l0.25,0.9l0.05,0.3l0.1,0.25l0,0.05l0.05,0.2l0.4,1l0.1,0.35l1,1.95l0.1,-0.1l2.75,4.85l2.25,0.2l1.2,1.95l-0.6,1.8l-0.3,3.8l-6.1,-2.55l-0.55,-2.35l-0.25,-1.3l-0.2,-0.3l-0.5,-0.9l-3.4,4.05l2.35,4.6l0.25,0.1l-1.7,5.25m-42.25,-51.15l-0.55,1.9l0.55,-1.9m29.95,-4.3l-0.15,0.25l-8.55,6.4l5.7,19.5l13.55,10.25l-1.1,-8.65l-6.95,-7.75l1.9,-18.15l-4.4,-1.85m7.2,16.55l2.2,2.65l-2.2,-2.65m-24.45,-20.3l-5.1,0.15l-2.65,4.65l2.4,1.65l2.15,-0.05l4.55,-2.7l-1.35,-3.7m32.7,36.6l-0.3,-0.7l0.1,0.8l0.75,1.45l-0.75,-1.45l-0.1,-0.8l0.3,0.7m-4.55,-36.45l0.15,2.1l-0.15,-2.1m7.7,47.6l1.5,1.25l2.1,-1.3l-2.45,-1.75l-1.15,1.8m0.1,-3l1.15,0.1l-1.15,-0.1m-17.45,-6.45q-9.8,-6.3 -16.75,-16.8q6.95,10.5 16.75,16.8m-75.25,31.75l-0.4,0.65l0,2.7q6.35,2.35 12.55,6.45l0.6,4.3l0.05,0.1l1.5,-0.2l0.05,0q2.15,0.95 4.35,2.4q2.55,1.65 5.2,4l0.15,1.3l3.6,3l-3.5,-0.9l-0.4,-0.1l-0.9,1.05l-0.25,0.25l-1.3,1.45l-9.85,-1.95l-3.9,-9.5l-4,-1.95l0.3,-0.8l-10.45,-5.65l-0.35,-0.5l-1.95,-2.6l0.4,-0.45l1.85,-2.1l-1.85,2.1l-1.1,0.7l2.95,-2.8l6.65,-0.95m23.3,-52.7l-0.05,0l-3.4,-1.35l-1,1.25l0.15,2.35l1.15,0.5l2.6,-1.15l0.55,-1.6m0.5,34l0.15,-0.05l-0.1,0.2l-0.05,-0.15m-2.45,41.8l-4.45,-6.3l-4.2,0.15l3.3,7.1l5.35,-0.95m-7.15,-6.9l-1.4,-2l1.4,2" /><path id="svg_71" fill-rule="evenodd" fill="#f9f7f2" d="m17.5,27l4.4,1.85l-1.9,18.15l6.95,7.75l1.1,8.65l-13.55,-10.25l-5.7,-19.5l8.55,-6.4l0.15,-0.25m18.6,44l1.15,-1.8l2.45,1.75l-2.1,1.3l-1.5,-1.25m-71.25,45.4l-5.35,0.95l-3.3,-7.1l4.2,-0.15l4.45,6.3" /><path id="svg_72" fill-rule="evenodd" fill="#726438" d="m-4.85,113.35l-5.1,2l-0.55,0.2l-2.3,3.9l-5,-2.2l-0.3,-3.1l-2.25,-0.75l-3.25,3.1l-0.3,-2.35l-0.6,1.35l-2.25,-8.5l-1.8,-0.6l0.3,-1.35l-5.4,-5.6l-3.25,-0.7q-1.5,-2.65 -1.05,-6.25l4.05,-6.7l-0.05,-2l25.7,-11.4l-1.5,3.2q-6.85,8 -12.1,12.7q-1.2,0.8 -1.35,4.65l2.2,2.45q1.2,1.6 2.25,3.4q1.4,2.45 2.4,5.35q3.6,1.9 6.55,5.95l2.4,0.15l0.75,2l1.8,1.1" /><path id="svg_73" fill-rule="evenodd" fill="#a48c66" d="m33.4,61.05l1.2,2.2l-0.1,0.1l-1,-1.95l-0.1,-0.35" /><path id="svg_74" fill-rule="evenodd" fill="#695834" d="m-33.95,83.8l-0.25,-5.35l0.1,-0.6q-0.35,-0.25 1.45,-3.1l0.1,-0.2q1.7,-2.95 2.85,-10.95l1.75,-1.15q2.65,-1.65 5.75,-2.75q3.6,-1.35 7.8,-2q3.4,2.05 9.8,3.2l1.4,0.65l-5.05,10.85l-25.7,11.4" /><path id="svg_75" fill-rule="evenodd" fill="#e6dec8" d="m103.9,1.25l-1.3,-7.8q-0.25,-1.05 0.05,-1.7l1.25,9.5m0.2,-10.4q3.25,0.35 6.15,2.15q4.25,3.7 7.15,9.35l0.05,0.2l1.8,8l0,0.05l-1.55,-0.05l-2.05,0l-3.4,0.3l-1.05,0.1q2.55,-15.55 -7.1,-20.1m27.7,30.2l0.5,1.1l0,0.25l-5.7,-2.85l-3,-1.5l-6.65,-1.6l-0.6,0.15q4.35,-5.1 9.9,-4.15l5,5.6l0.1,2l0.45,0.95l0,0.05m-51.95,33.45l0.05,-0.05l4.7,-5.3l6.2,1.2l1.6,1.95l-7.5,4l-5.05,-1.8m15.25,-21.65l0,-0.15l3.3,-4.1l1.65,-0.55l11.45,2.75l4.55,2.8l1.25,0.8l-5.25,4.7l-1.8,-3.15l-1.75,-3l-13.4,-0.1m31.15,-18.9l4,4.8l-4,-4.8m-16.8,17.2l6.6,2.45l-6.6,-2.45m-23.95,23.95l5.6,-2.8l-5.6,2.8m25.95,-59.1l4.8,7.6l-4.8,-7.6" /><path id="svg_76" fill-rule="evenodd" fill="#d8cca7" d="m-84.1,31.95l0.15,0.15l-0.4,0.1l0.25,-0.25m-14.75,28.3l0.15,-0.2l0.05,0.15l-0.2,0.05" /><path id="svg_77" fill-rule="evenodd" fill="#bca672" d="m117.45,2.55l1.95,-1.95l1.85,0.65q1.8,3.3 2.3,8.2l0.9,1.75l-5.2,-0.6l0,-0.05l-1.8,-8" /><path id="svg_78" fill-rule="evenodd" fill="#b09659" d="m-96,55.95l0.05,-0.05l0,0.05l-0.05,0" /><path id="svg_79" fill-rule="evenodd" fill="#e8dfd9" d="m-10.95,-115.9l1.7,-2.2l3.15,-1.15l8.35,0.35l0.15,-1.2l1.85,1.35l5.3,1q4.95,1.9 7.95,6.15l1.15,-1.6q1.65,6.75 0.35,13l-0.8,3l-2.5,-9.75l-2.5,-4.7l0.35,3.4l-8.55,-0.1l-0.35,-0.9l0.05,-0.1q-2.65,-4.45 -6.3,-8.05q-4.75,-2.45 -8.8,1.9l-0.55,-0.4m8.25,52.15l-0.8,2.45q-1,2.6 -2.9,5.15l-0.5,0.6l-2.55,2.4l-1.25,0.9l-5,3.6l-7.7,2.6l2.85,-1.95l4.55,-3.05l1.45,-1l1,-1.7l1.4,-2.45l0.95,-3.25l0.4,-0.3l0.55,-1.3l7.55,-2.7m-3.45,-10.65q-1.5,2.25 -4.6,3l-8.85,0.55l-3.25,-0.65l-15.15,-3l-5.4,-1.35l1.3,-0.35l14.85,0.1l3.75,1.25l5.25,1.7l1.2,0.45l5.25,-2.25l3.3,-1.4l2.3,1.9l0.05,0.05" /><path id="svg_80" fill-rule="evenodd" fill="#d8cabe" d="m-10.95,-115.9l0.55,0.4q1.15,0.85 1.8,1.8l-0.35,-1.7q2.6,2.05 4.2,4.95l0.7,0.8q1.65,3.8 2.4,8.2l0.05,0.4l1.4,-0.1l0.15,-0.05l2.25,-0.2l-1.9,-1.35l3.85,0.25l2.45,0.65l4.4,8l0,4.85l2.35,-0.35l-4.3,9.85l3.6,2.5l4.65,0.55l1.85,-2.1l1.6,2l-1,0.9l-0.8,0.6l-2.35,0.45l-0.5,0.05l-6.3,-1.6l-3.65,-2.25l-6.4,-4l-2.8,-1.75l0.2,0l-0.3,-0.05l-2.45,-0.4l-3,-0.5l-5.1,0.1l2.05,-4.05l1.8,-0.15l0.35,0l2.35,0.1l0.55,0.05l1.6,0.15l-1.6,-0.15l-0.55,-0.05l-4.4,-5.95l-0.5,-1.4l-0.4,-1.1l-1.7,-1.25l-9.2,-6.65l-0.95,-0.7l-7.9,-3.05l-1.95,-0.1q-5.05,-0.2 -8.9,0.2l-1.6,0.15q1.95,-3.35 3.5,-8.75q4.55,-1.45 9.2,-1.6q7.15,-0.05 14.45,1.5l-0.6,-1.05q4.55,1.3 7.15,2.95m14.8,31.75q-1,-1.9 -3.05,-3.1l-2.3,-0.9l0.15,-1.45l0,-0.2q0.3,-5.15 -0.15,-10.3l-0.1,-0.95l0.1,0.95q0.45,5.15 0.15,10.3l0,0.2l-0.15,1.45l2.3,0.9q2.05,1.2 3.05,3.1m-75.95,147.95l-1.25,4.2l-3.55,8.1l1.15,1.1l-6.85,7.1q-3.55,2.15 -8.65,3.55l-3.65,0.35q-5.35,0.15 -9.25,-1.85l-2.5,-0.85l-2.75,-0.95l-0.1,0l-14.85,-1.95l-2.9,-0.4q-5.9,-6.2 -5.85,-14.5l0.15,-3.65q1.1,6.05 8.5,12.45l3.95,-13.75q-1.45,17.35 21.85,21.5l12.4,-3.6l6.45,-10.65l-4.75,0.5l12.45,-6.7m19.9,-112.7l-1.6,1.55l-2.2,-0.6l-2.45,-0.65l-1.3,0.5l-1.55,-0.3l4.5,-3.85l1.65,1.25l1.75,1.15l-0.4,0.95l1.2,-0.2l0.4,0.2m-11.7,3.5l-0.75,0.95l-1.45,-1.05l0.35,-0.55l1.85,0.65m-1.9,2.85l-0.85,4.55l-2.5,1.7l-4.3,-0.5l-4.55,1.5l-1.8,0.25l0.35,-0.25l3.6,-5.25l6,-3.6l2.1,1l1.95,0.6m0.7,-57.95q-2.85,1.95 -5.8,2.95l0.1,1.55l-0.75,0.05l-2.85,-1.35q-8.3,-4.5 -11.5,-12.95l-0.05,-0.1l-0.1,-0.5l-0.1,-1.15q8.2,9.3 21.05,11.5m40.15,-16.6q9.4,1.4 16.9,7.5q2.1,4.75 3.35,9.5q1.35,5.25 1.65,10.55l0.05,1l-2,-0.35l-0.1,-0.35q-1.55,-6.1 -5.3,-10.9l-3.3,-3.55l3.3,3.55q3.75,4.8 5.3,10.9l0.1,0.35l2,0.35l-0.05,-1q-0.3,-5.3 -1.65,-10.55q-1.25,-4.75 -3.35,-9.5q-7.5,-6.1 -16.9,-7.5m25.9,34.65l-2.05,-1.4l-1.75,-0.3l1.75,0.3l2.05,1.4m-11.85,-14l-1.55,-1.1l1.55,1.1m7.9,7.9l1.5,0.4l-1.5,-0.4m-82.4,124.7l0.6,2.95l0.5,0.1q0.8,2.75 -0.8,6q-4.5,5.9 -10.85,10.7l-0.05,0.05l-2.3,3.5q2.6,-5.85 -7,-1.05l9.3,-10.25q3.85,-6.55 -4.1,-5.2q7.35,-9.95 14.7,-6.8" /><path id="svg_81" fill-rule="evenodd" fill="#999999" d="m-2.7,17.1l-0.8,3.7l-8,-1.05l-6.95,4l-4.55,6.8l-10,4.7l-6.3,-2.4l-1.55,-7.55l-1.1,-1l-1.35,-2l18.15,0.95l8.15,-6.85l14.3,0.7m-46.8,23.3l0.55,-2.4l5,-2.45l2.5,5.85l-3.2,2.4l-1.85,1.35l-3.45,-2.9l0.45,-1.85m49.75,-17.15l1.35,3.7l-4.55,2.7l-2.15,0.05l-2.4,-1.65l2.65,-4.65l5.1,-0.15m-5.1,-24.85l2.4,1.05l-0.5,2.95l-3.2,0.25l0,-3.2l1.3,-1.05m1.9,11.75l-1.55,-2.1l0.35,-1.5l0.2,0l3.15,-0.7l1.85,2.15l-4,2.15m-30.25,30.45l-0.55,1.6l-2.6,1.15l-1.15,-0.5l-0.15,-2.35l1,-1.25l3.4,1.35l0.05,0" /><path id="svg_82" fill-rule="evenodd" fill="#888888" d="m-53.25,15.25q2.65,-0.75 5.5,-1.15l3.2,-0.45l2.4,5.75l1.2,0.45l1.1,0.15l1.25,-0.8l1.4,0.65l1.35,-0.1l1.5,-1l1.45,0.75l1.25,-0.1l1.35,-0.95l0.05,-0.05l0.7,0.25l1.1,0.3l2.6,-0.9l2.25,-2.85l0.4,0l5.2,1.7l0.6,-0.55l0.4,0.05l-8.15,6.85l-18.15,-0.95l-2.7,-4.15l-7.25,-2.9m29.25,-9.7q5.15,-3.8 9.85,-5.3l2.15,-0.85l1.3,3.25l3.45,-0.25l0.65,4l0.85,5.05l-5.75,-1l-7.15,0.3l-0.7,-0.9l-3.65,-0.25l-0.65,-3.6l-0.35,-0.45m9.2,-4.25l0.65,-1.05l-0.65,1.05m-33.5,18.5l-0.85,2.2l-12.95,13.35l-0.65,4.2l-3.25,-0.85l0,-8.25l0.25,0l3.9,-7.25l7.85,-5.6l5.7,2.2" /><path id="svg_83" fill-rule="evenodd" fill="#8b8b8b" d="m-46,22.15l-2.1,9.9l-5.75,5.25l-3.9,3.55l-5,-1.3l0.65,-4.2l12.95,-13.35l0.85,-2.2l2.6,1l-0.3,1.35" /><path id="svg_84" fill-rule="evenodd" fill="#a68028" d="m86.2,47.3q-1,-1.55 -0.5,-2.75l3.2,-2.25l-0.15,-0.2l-0.05,-0.1l11.05,-0.25l5.3,2.1l-5.75,-4.7l-9.05,-0.7l0.85,-0.8l-0.6,-2.35q0.9,-1.5 2.15,-2.3l0.3,-0.2l2.15,0.05l13.4,0.1l1.75,3l-10.75,-0.3q16.2,5.45 6.6,9.6l-1.75,-0.1q-0.2,1.6 -1.95,5.05l-4.8,0.95l0,-0.3l-3.55,-3.7l-7.65,-0.2l-0.2,0.35m30.15,-30.7l0.6,-0.15l6.65,1.6l3,1.5q4.1,2.9 -1.65,7l-5.15,0.65l-0.35,0.7l-6.2,-0.8q-7.55,-0.6 -13.05,0.95l-0.3,-1.7l8.3,-4l12.05,1l-8.15,-3.2l1.05,-1l-8.4,0.35l11.6,-2.9m-15.25,28.1l-8.4,-0.4l8.4,0.4m15.55,-20.35l-11.2,0.8l11.2,-0.8m-10.4,9.2l-13.55,0.4l13.55,-0.4m12.8,-14.8l8,3.6l-8,-3.6" /><path id="svg_85" fill-rule="evenodd" fill="#926030" d="m-25.55,-48.1l1.75,-1.9l1.9,-1.05q3.25,-0.45 5.9,0l-4.55,3.05q-0.5,-2.15 -5,-0.1" /><path id="svg_86" fill-rule="evenodd" fill="#c29a8b" d="m-37.8,-84l-4.6,1.95l-5.75,-0.05l-10.8,-5.05l4.05,-0.2l11.15,2.65l5.95,0.7" /><path id="svg_87" fill-rule="evenodd" fill="#bfa340" d="m83.55,29.65l-1.7,-0.75l-0.05,-0.05l-0.5,-0.35l2.25,1.15" /><path id="svg_88" fill-rule="evenodd" fill="#d8caab" d="m100.5,20.55l-0.15,-5.95q1.05,-0.6 2.15,-1.1q2.15,-4.95 1.7,-10.5l-0.3,-1.75l-1.25,-9.5q0.3,-0.65 1.05,-0.95l0.4,0.05q9.65,4.55 7.1,20.1l1.05,-0.1l3.4,-0.3l2.05,0l1.55,0.05l5.2,0.6l0.7,0l1.1,1.25q-5.55,-0.95 -9.9,4.15l-11.6,2.9l-4.25,1.05m20.85,25.1l-6.5,4.15l-0.3,-6.4l-2.5,-4.3l5.25,-4.7l-1.25,-0.8l-4.55,-2.8l-11.45,-2.75l0.15,0q5.5,-1.55 13.05,-0.95l6.2,0.8q2.4,0.5 3.4,1.25q2,1.45 1.9,5.2q0.05,1.6 -0.6,6.05l-0.85,4.05l-1.95,1.2m-25.95,14.05l-0.3,0.2l-5.9,1.55l-11.8,0.15l-1.9,-2.35l0.5,-3.4l3.85,-1.35l5.05,1.8l7.5,-4l-1.6,-1.95l-6.2,-1.2l1.6,-1.85l0.2,-0.35l7.65,0.2l3.55,3.7l0,0.3l0.15,6.7l-2.35,1.85m7.1,-46.2q4.3,-2.05 8.7,-2.55q-4.4,0.5 -8.7,2.55" /><path id="svg_89" fill-rule="evenodd" fill="#cab88e" d="m123.55,9.45l3.9,-3.75q1.1,-0.5 2.05,0.65q2.2,2 2.55,8.1l-0.25,6.6l0,-0.05l-0.45,-0.95l-0.1,-2l-5,-5.6l-1.1,-1.25l-0.7,0l-0.9,-1.75" /><path id="svg_90" fill-rule="evenodd" fill="#b98b47" d="m8.7,-58.15l-1.15,1.9q-1.15,1.25 -4.1,1.8l-4.75,0.8l-0.35,0.05q-5.3,-1.25 -4.05,-3.05q1.25,-1.85 2.15,-3.45q0.9,-1.6 4.6,-2l2.15,1.45q-3.05,0.05 -1.95,1.5l0.2,0.25l1.75,0.35l1.4,-0.55l4.1,0.95m4.25,12.6l0.45,0.9l0.2,0.4l0.3,0.6l0.5,1.1l1.05,2.75l0.3,0.75l0,0.05l0.65,2.2l-1.4,-0.6l-0.7,1.8l0.45,2.55l-0.2,0.15l0.15,2l-6.3,-1.3q0.6,3.35 4.15,4.8l0.6,1.95l-0.6,-1.95l1.8,0.55l-0.45,0.75l-0.45,0.5l-0.3,0.15l0.05,0.15l2.1,3.85l0.95,2.05l0.15,0.45l1.25,3.3l0.05,0l3.05,1.25l4.05,5.7l0.1,2.2l0.55,0.05l0.2,11l-4.45,1.1l-5,-1.25l-6.2,-4.7l0.05,-0.65l-6.25,-9.8l-5.75,-2.8l-7.15,-3.55l2.25,-6.2l10.45,-0.45q5.2,-5.25 4.3,-8.4l-4.95,4.65l-2.15,0.8l-1.35,-0.25l-10.05,-1.95l-0.1,-0.05l-0.8,-9.15l0,-0.15l-4.45,0.5l-0.45,0.85l-0.2,5.7l-0.1,2.5l-4.4,8.05l-1.2,2.2l-3,2.3l0.1,0.8l-3.5,2.8q1,5.65 -3.25,11.95l1.95,-2.3l3.4,-8.1l1.55,-2.2l0.1,1.35l-3.05,12.5l0.25,1.85q-5.4,6.4 -2.8,8.85l-8.85,-3.7q0.45,-17.75 7.6,-26.15l4.5,1.1l-0.6,-1.6l-2.3,-6.4l4.25,-11.2l6.15,-1.35l-1.35,-7.2l5.85,-2.55l0.3,-0.15q3.3,-1.4 3,0.55l0.2,0l4.55,0.8l1.85,-1.4l2.7,-2.05q1.15,0.1 3.5,1.85l2.1,0.25l1.75,-1.35l1.7,0l0.85,-0.2l0.8,-0.05l0.6,0.3l4.35,3.6m0.05,1.6l-0.15,0.1q-2.95,1.55 -3.35,6.05q2.65,-4.55 5.3,-1.75l-1.8,-4.4m2.4,5.95l-0.6,-1.55l0.6,1.55m-15.4,-8.3l-5.4,-1.6l5.4,1.6m6.15,3.6l0.45,1.05l-0.45,-1.05m1,-1.15l0.85,4.1l-0.85,-4.1m-1.5,10.25l0.55,0.2l-0.7,-5.55q-5.25,-4.6 -7.55,-3.2q5.45,3.15 7.7,8.55m3.4,-2.15l0.15,1.2l0,-0.55l-0.15,-0.65l-2.45,-5.9l2.45,5.9m-7.25,2.15l-2.65,0.2l-0.5,2.3l1.35,1.9l2,-0.6l1.4,-2l-1.6,-1.8m0.4,20.45l-4.15,-0.4l4.15,0.4m11.4,-5.4l-1.5,-5.35q-2.7,-1.9 -3.7,-2l-4.2,4.8l-1.35,-0.15q8.4,4.5 11.25,16.45q1.95,0.05 6.6,6.3q0.65,-6.55 -0.8,-12.45q-0.65,-1.7 -2.55,-3.25l-0.6,-0.5l-3.15,-3.85m1.95,6.4l0.1,0.1l-0.1,-0.05l0,-0.05l0,0.05l0.5,0.65l-0.15,0.6l-0.35,-1.3m1.15,1.7l0.2,0.25l-0.15,-0.1l-0.05,-0.15m-31.25,-36.1q-5.25,1.9 -3.95,6.3q0.4,-4.75 5.1,-5.15q13.8,2.95 -1.15,-1.15m-7.5,22.6l2.8,-5.7l0,-0.8l-0.1,-6.25q-1.6,5.6 -2.5,7.15l-5.2,8.35l4.75,-2.2l0.25,-0.55m14.95,-18.8l-4.4,4.65l4.4,-4.65m-17,21.35l-3.8,2.4l3.8,-2.4m0.35,30.85l-2,-0.35l-0.2,0.2l0.7,-1.05l-0.7,1.05l-1,0.9l0.15,0.7l-0.2,-0.05l-0.25,-0.95l1.45,-2.05l0.3,0.2l0.25,0.2l1.5,1.2m20.85,-66.25l4.45,0.95l-4.45,-0.95m2.9,1.2l-1.4,0.2l1.4,-0.2m0.3,36.4l-4.15,-1.35l4.15,1.35m0.8,2.75l-3,-0.55l3,0.55" /><path id="svg_91" fill-rule="evenodd" fill="#ece4e1" d="m17.4,-95.1l1.55,1.55l0.45,0.55q1.05,1.55 2.2,4.55q1.4,4.35 1.6,9.15l-0.1,0.15l-2.15,2.45l0.05,0.15l-1.25,0.9l1,-0.9l-1.6,-2l-1.85,2.1l-4.65,-0.55l-3.6,-2.5l4.3,-9.85l-2.35,0.35l0,-4.85l-4.4,-8l0.25,0.05l3.25,1.65l1.6,1.2l-1.4,-3l2.35,1.8l0.05,0q2.25,1.9 4,4.15l0.7,0.9m-89.2,157.95l-0.3,0.95l-12.45,6.7l4.75,-0.5l-6.45,10.65l-12.4,3.6q-23.3,-4.15 -21.85,-21.5l-3.95,13.75q-7.4,-6.4 -8.5,-12.45q-0.8,-4.2 1.45,-8.2q0.85,-3.1 2.1,-6.2q3.65,-7.45 10.6,-12.65l-0.8,-1.35q2.45,-1.5 5.1,-2.75q2.45,-1.2 5.1,-2.15l-0.2,-0.95l7.5,-1.6q7.7,-0.5 15.25,1.6l2.75,2.15l-0.25,0.25l-1.35,2.7l0.3,1.25q-7.35,-3.15 -14.7,6.8q7.95,-1.35 4.1,5.2l-9.3,10.25q9.6,-4.8 7,1.05l-0.4,0.6l-0.15,0.2l0.2,-0.05l-0.25,0.8l-0.4,3.65q0.65,4.95 8.65,5.95q-4.05,-5.6 1.5,-4.2q4.4,-1.35 6.55,-6.05l-4,2.35l4,-2.45q2.5,-3.35 5.25,-6.05l0.15,-0.2q2.55,-2.55 5.35,-4.6l-4.2,5.3l-0.3,0.35l-2.65,3.3l3.25,-2.55l8.85,-7.15l4.75,-1.95l0.25,0l6.6,-0.3l7.5,2.7l-7.2,-1.65l-7.9,1.05l5.1,1.3l4.9,2.1l1.05,2.25l-2.4,5.8l-1,0.4l-0.2,-0.55l0.6,-2.15l0.75,-2.9l-4.25,-2.55l-1.45,-0.85l-2.9,-0.15q-2.65,0.15 -4.65,1.5l-1.95,1.6l-2.5,8.55m-37,-32.45l-0.6,0.35l0.6,-0.35m-22.7,25.45q-1.1,4.1 -1.45,8.2q0.35,-4.1 1.45,-8.2m32.6,5.15l0.05,-0.75l-0.05,0.75" /><path id="svg_92" fill-rule="evenodd" fill="#a5846b" d="m-14.1,-81.9l1.2,1.3l4.4,4.25l-3.3,1.4q-0.4,-2.3 -1.55,-3.6l-4,-0.25l-1.1,2.85l0.2,2.8l-5.25,-1.7q-0.55,-2.7 -0.2,-5.5l-1.4,0.65q-0.5,-2 1.15,-5.15l7.35,-0.1l1.75,2.15l0.75,0.9" /><path id="svg_93" fill-rule="evenodd" fill="#946b3a" d="m15.45,-66.35l0,0.05l-0.3,1.15l-0.55,0.7l-4,-0.5q-3.95,-0.1 -7.35,1.55l1.45,0.45l0,-0.05l0.2,0.1l1.05,0.65l1.15,0.7l0.05,-0.6l0.1,0l3.85,-0.7l1.2,0.1l-1.2,-0.1l1.45,-0.3l-0.25,0.4l-1.15,1.6l-0.95,0.45l-1.5,2.55l-4.1,-0.95l0,-0.2l-0.2,0l-1.25,-1.3l0.05,-0.05l-2.15,-1.45q-3.7,0.4 -4.6,2q-0.9,1.6 -2.15,3.45q-1.25,1.8 4.05,3.05l-0.35,0.05l-0.65,-0.05q-1.55,-0.25 -2.65,-0.8l-0.2,-0.1l-1.4,-1.05l0.5,-0.6q1.9,-2.55 2.9,-5.15l0.8,-2.45l2.1,-0.8l3.5,-1.85l0.2,-1.75l0.35,-0.8l4.95,1.9l0.1,0l0.8,0.2l2.1,0.3l0.2,0l1.05,0.1l2.6,0.1l0.2,0m-10.05,5.1l-0.55,-0.6l-0.15,-1.1l0.15,1.1l0.55,0.6m-0.25,-1.5l-0.25,-0.15l0.25,0.1l0,0.05" /><path id="svg_94" fill-rule="evenodd" fill="#cca77b" d="m3.2,-60.65l-0.05,0.05l1.25,1.3l0.2,0l0,0.2l-1.4,0.55l-1.75,-0.35l-0.2,-0.25q-1.1,-1.45 1.95,-1.5" /><path id="svg_95" fill-rule="evenodd" fill="#e4c48d" d="m12.95,-62.35l-0.45,0.55l-1.35,0.65l1.15,-1.6l0.2,0l0.45,0.4m-1.85,-0.5l-3.85,0.7l-0.1,0l-0.05,0.6l-1.15,-0.7l-1.05,-0.65l0.25,0.15l0.05,-0.05l0.3,-0.05l2,-0.35l3.6,0.35m-5.15,0.6l1.2,0.1l-1.2,-0.1" /><path id="svg_96" fill-rule="evenodd" fill="#c4a26a" d="m14.8,-39.55q-2.65,-2.8 -5.3,1.75q0.4,-4.5 3.35,-6.05l0.15,-0.1l1.8,4.4m-9.15,5.95q-2.25,-5.4 -7.7,-8.55q2.3,-1.4 7.55,3.2l0.7,5.55l-0.55,-0.2m7.55,8.3l-0.05,-0.15l0.3,-0.15l-0.25,0.3m-27.75,-21.25q14.95,4.1 1.15,1.15q-4.7,0.4 -5.1,5.15q-1.3,-4.4 3.95,-6.3m-4.7,16.1l0,0.8l-2.8,5.7l-0.25,0.55l-4.75,2.2l5.2,-8.35q0.9,-1.55 2.5,-7.15l0.1,6.25m-5.95,15.1l0.25,2.75l-0.1,-0.6l-1.55,2.2l-3.4,8.1l-1.95,2.3q4.25,-6.3 3.25,-11.95l3.5,-2.8m-2.55,17.85l0,0.3l0.25,0.1l2,5.15l-0.3,-0.2l-1.45,2.05l0.25,0.95l0.5,2.15q-1.4,4.5 -4.05,-1.65q-2.6,-2.45 2.8,-8.85" /><path id="svg_97" fill-rule="evenodd" fill="#8f7549" d="m37.1,99.7l1,-0.5l0.25,0.85l-1.25,-0.35" /><path id="svg_98" fill-rule="evenodd" fill="#d1caa0" d="m28.3,-4.9l1.6,1l0,1.7l0.95,1.45l-0.95,9.05l-0.1,0l-4.75,0.45l-6.3,-1.4l-2.9,3.3l-7.45,-2.15l0.5,-1.9l-7.6,-2.9l-0.45,0.15l-1.25,0.45l-6.2,2.1l-0.65,-4l-3.45,0.25l-1.3,-3.25l-2.15,0.85l3.6,-6.45l3.95,-0.9l2.7,1.85l2.55,5.15l1.45,1.3l1.1,1l1.15,1l0.7,-0.85l2.65,0.4l3.05,0.4l2.15,0.8l0.9,0.35l-0.2,1.15l3,0.5l1.4,0.25l1.35,0.25l0.45,0.05l3.4,-0.85l4.45,-1.1l0.75,-0.2l0.5,-2.35l0.35,-1.8l0.55,-2.65l0.4,-1.9l0.1,-0.55m-33.15,3.3l-1.3,1.05l0,3.2l3.2,-0.25l0.5,-2.95l-2.4,-1.05" /><path id="svg_99" fill-rule="evenodd" fill="#845e20" d="m99.25,21.35l0.4,-0.55l0.85,-0.25l4.25,-1.05l8.4,-0.35l-1.05,1l8.15,3.2l-12.05,-1l-8.3,4l0.3,1.7l-0.15,0l-1.65,0.55l-3.3,4.1l0.9,-3.05l-0.2,-0.9l1.85,-4.95l1.6,-2.45m33.05,1.05l-0.5,4.3l1.3,4.1l-0.1,1.8l-0.65,3.7l-0.35,1.1l-0.2,0.7q-0.75,2.15 -1.9,4.2l-6.6,4.2l-1.95,-0.85l1.95,-1.2l0.85,-4.05q0.65,-4.45 0.6,-6.05q0.1,-3.75 -1.9,-5.2q-1,-0.75 -3.4,-1.25l0.35,-0.7l5.15,-0.65q5.75,-4.1 1.65,-7l5.7,2.85m-17.45,27.4l0,0.3l-1.45,3.15l-1.75,3l-5.1,2.25l-0.4,0.95l-6.15,1.5l-4.6,-1.25l2.35,-1.85l-0.15,-6.7l4.8,-0.95q1.75,-3.45 1.95,-5.05l1.75,0.1q9.6,-4.15 -6.6,-9.6l10.75,0.3l1.8,3.15l2.5,4.3l0.3,6.4m-26.15,-7.8q-0.25,-0.45 -0.2,-1.2l0.1,-0.85l1.65,-1.5l9.05,0.7l5.75,4.7l-5.3,-2.1l-11.05,0.25m17.85,16.5l0.6,-1.5l0.9,-6.6l-0.9,6.6l-0.6,1.5m5.5,-11.2l1.35,5.95l-1.35,-5.95" /><path id="svg_100" fill-rule="evenodd" fill="#c79d6a" d="m-63.85,4.95l2.35,-1.2l1.35,-0.1l-3.7,1.3m37.7,9.35l0.25,0.85l-0.05,0l-0.2,-0.85" /><path id="svg_101" fill-rule="evenodd" fill="#ae7844" d="m38.7,16.2l3.6,0.35l0.6,0.3l4.9,-0.4l4.15,0.5l-4.35,5.3l-2.25,-1.05l-4.3,0.45l-2.4,0.25l-0.65,0.1l-12.7,-1.4l-8.15,1.5l-1.7,-0.45l-0.9,-1.1l-5.6,-2.2l-0.25,-0.25l-11.4,-1l-14.3,-0.7l-0.4,-0.05l-0.6,0.55l-5.2,-1.7l-0.4,0l-2.3,-0.05l2.3,0.05l-2.25,2.85l-2.6,0.9l-1.1,-0.3l-0.7,-0.25l-0.05,0.05l-1.35,0.95l-1.25,0.1l-1.45,-0.75l-1.5,1l-1.35,0.1l-1.4,-0.65l-1.25,0.8l-1.1,-0.15l-1.2,-0.45l-2.4,-5.75l-0.05,-1.4l0.3,-3.15q-0.15,-0.6 0.25,-1.5q0.65,-1.8 1.75,-3.2l0.2,-0.3l-0.3,-1.9l0.35,-1.75q1.55,-7.95 3.85,-16.4l0.55,-2.05q1.95,-2.7 3.75,-3.95l-0.25,-3.55l0.8,-2.75q1.55,-5.1 4.45,-10l-0.35,-4.5q1.45,-2.75 3.7,-5.35q4.5,-2.05 5,0.1l-2.85,1.95l7.7,-2.6l0.4,0.95l-5.85,2.55l1.35,7.2l-6.15,1.35l-4.25,11.2l2.3,6.4l-0.6,0.35l0.6,-0.35l0.6,1.6l-4.5,-1.1q-7.15,8.4 -7.6,26.15l8.85,3.7q2.65,6.15 4.05,1.65l-0.5,-2.15l0.2,0.05l-0.15,-0.7l1,-0.9l0.2,-0.2l2,0.35l0.75,0.15l3.65,0.25l0.7,0.9l7.15,-0.3l5.75,1l1.4,0.25l9.25,-0.1l3.5,-0.8l7.3,1.9l4.1,2.6l18.9,0.9m-39.25,-43.15l1.35,0.25l2.15,-0.8l4.95,-4.65q0.9,3.15 -4.3,8.4l-10.45,0.45l-2.25,6.2l7.15,3.55l5.75,2.8l6.25,9.8l-0.05,0.65l6.2,4.7l5,1.25l-3.4,0.85l-0.45,-0.05l-1.35,-0.25l-1.4,-0.25l-3,-0.5l0.2,-1.15l-0.9,-0.35l-2.15,-0.8l-3.05,-0.4l-4.6,-8.5l-10.1,-4.1l-2.55,-0.65l-1.5,-0.35l-2,-1.15l-2.1,-8.5q0.75,-5.15 3.7,-5.95l12.9,-0.5m24.2,47.25l1.65,0.3l-1.65,-0.3m-15.8,-3.05l0.85,0.85l-0.85,-0.85m-75.3,-4.7l-0.35,0.05l-5.8,-2.75l-0.05,-0.15l-0.05,0l-4.2,1.05l-4,-2.6l-4.45,-1.35l-0.9,0.75l-2.6,0.25l-1.7,0.9l-2.75,0.7l-1.55,-1.7l-5.15,2.6l-5.35,0.1l-2.85,-5.9l0.25,-3.85l1.1,-2.3l4.9,-0.65l2.3,1.8l0.9,-0.8l2.5,-0.45l1.9,1.4l0.05,-0.1l1.8,0l2.05,2.9l3.65,-1.1l3,1.1l1.2,-0.4l2.9,2.3l3.6,-1.55l4.45,2.65l5.8,1.05l3,-1.55l3.7,-1.3l0.45,-0.05l3.3,1.8l-11.05,7.15m-40.1,-13.6l4.25,-0.35l-4.25,0.35m90.75,16.85l-0.6,0.55l0.6,-0.55m23.85,-3.8l-11,0.35l-7.4,-1.05l7.4,1.05l11,-0.35m-33.2,2.3l-0.65,-3.4l0.65,3.4l-0.35,-1.3l0.35,1.3l0.2,0.85l0.05,0l-0.25,-0.85m-46.75,-7.6l5.3,0.35l-5.3,-0.35m-10.95,-3.5l1.75,1.4l-1.75,-1.4m-12.6,0.05l-0.8,1.25l-0.1,1.6l1.5,1.6l-1.5,-1.6l0.1,-1.6l0.8,-1.25" /><path id="svg_102" fill-rule="evenodd" fill="#996a3c" d="m1.2,2.2l-1.1,-1l-1.45,-1.3l-2.55,-5.15l-2.7,-1.85l-3.95,0.9l-0.75,-3.25l-0.1,-0.45l-0.15,-0.6l2.55,0.65l10.1,4.1l4.6,8.5l-2.65,-0.4l-0.7,0.85l-1.15,-1m-10.15,-9.95l0.55,0.4l1.8,0.25l-1.8,-0.25l-0.55,-0.4m-7.65,-23.45l4.7,1.3l0.45,0.1l0.75,0.85l0.1,0.05l10.05,1.95l-12.9,0.5q-2.95,0.8 -3.7,5.95l2.1,8.5l-1.2,-0.7l-4.85,-7.95l4.4,-8.05l0.1,-2.5" /><path id="svg_103" fill-rule="evenodd" fill="#e1dcc1" d="m33.45,3.15l0.55,0.9l1.95,5.45l0.35,1.95l1.65,2.7l0.75,2.05l-18.9,-0.9l-4.1,-2.6l-7.3,-1.9l-3.5,0.8l-9.25,0.1l-1.4,-0.25l-0.85,-5.05l6.2,-2.1l1.25,-0.45l0.45,-0.15l7.6,2.9l-0.5,1.9l7.45,2.15l2.9,-3.3l6.3,1.4l4.75,-0.45l0.1,0l0.95,-9.05l2.6,3.9m-36.4,7l4,-2.15l-1.85,-2.15l-3.15,0.7l-0.2,0l-0.35,1.5l1.55,2.1" /><path id="svg_104" fill-rule="evenodd" fill="#926d5a" d="m-11.65,-89.05l-2.05,4.05l-2.9,0.05l-7.35,0.1l-3.3,0.05l-8.15,2.35l-7,0.4l4.6,-1.95l5.95,-2.5l13.45,-1.9l1,-0.1l1.35,-0.15l4.4,-0.4" /><path id="svg_105" fill-rule="evenodd" fill="#be935f" d="m13.6,-18.55l3.15,3.85l0.6,0.5q1.9,1.55 2.55,3.25q1.45,5.9 0.8,12.45q-4.65,-6.25 -6.6,-6.3q-2.85,-11.95 -11.25,-16.45l1.35,0.15l4.2,-4.8q1,0.1 3.7,2l1.5,5.35m0.6,4.55l0.15,0.25l1.2,1.6l-1.2,-1.6l-0.15,-0.25l-4.6,-10.15l4.6,10.15m1.45,1.95l-0.1,-0.1l0.35,1.3l-0.1,0.25l0.55,3.5l0.6,0.35l0.15,-0.6l0.05,-0.2l0.2,-0.75l-0.6,-2l0.15,0.1l-0.2,-0.25l-0.2,-0.7l-0.2,-0.15l-0.25,-0.15l0,-0.05l-0.4,-0.55" /><path id="svg_106" fill-rule="evenodd" fill="#5695ae" d="m57.75,19.1l0.2,-1.35l0.2,-0.2q2.4,-2.25 5.75,-2.15l1.95,1.05l1.35,1.45l1.5,0l0.75,0.3l1.6,0l2.8,1.35l2.3,-0.3l2.1,-1.2l0.85,0.45l3.6,-0.6l2.3,0.7l0.85,-1l5.65,1.2l0.65,2.45l-1.1,-0.05l-3.15,1.5l0,1.05q-6.45,3.65 -9.15,1.15l0,-0.1l-4.9,0.7q-9.8,0.8 -9.5,-4.95l-0.9,2.2l0.05,-0.25q-5.1,4.1 -5.75,-3.4m24.05,9.8l0.05,0l-0.05,0m-75.65,-107.3l3.65,2.25l6.3,1.6l0.5,-0.05q0,4 -5,8.05l-0.2,0l-2.1,-0.3l-0.8,-0.2l-0.1,0l-4.95,-1.9q-0.2,-0.05 -0.35,-0.15l-0.1,-0.05l-2.2,-1.05l5.35,-8.2m5.65,4.25l1.7,0.75l0.75,0.05l-2.45,-0.8m-5.4,3.9l0.25,0.1l0.55,0.15l-0.8,-0.25l-2.9,-1.3l2.9,1.3m78.7,89.8l3.6,-0.4l-3.6,0.4m-19.6,-1.2l-2.35,-2l2.35,2m7.8,5.7l0.55,1.45l-0.55,-1.45m-8.95,-4.95l-0.85,3.4l0.85,-3.4m8.75,0.85l-3.2,-0.8l3.2,0.8m5.55,3.5l0.1,1.35l-0.1,-1.35m-0.75,-3.5l3.6,-0.8l-3.6,0.8" /><path id="svg_107" fill-rule="evenodd" fill="#7cacbe" d="m21,-76.55l0.7,1.45l-2.25,5.15l-1.9,1.9l-1.7,1.7l-0.4,0l-0.2,0l-2.6,-0.1l-1.05,-0.1q5,-4.05 5,-8.05l2.35,-0.45l0.8,-0.6l1.25,-0.9" /><path id="svg_108" fill-rule="evenodd" fill="#427486" d="m90,28.65l-1.05,1.2l-2.65,1.05l-2.75,-1.25l-2.25,-1.15l0.5,0.35l0,0.05l-4.75,0.8l-2.1,-2.6l-4.2,1.4l-3.1,0.45l-3.3,-1.8l-5.95,0.6l-1,-2.55l-0.5,-1.15l0.85,-4.95q0.65,7.5 5.75,3.4l-0.05,0.25l0.9,-2.2q-0.3,5.75 9.5,4.95l4.9,-0.7l0,0.1l0.05,1.8l2.5,1.8l-2.5,-1.8l-0.05,-1.8q2.7,2.5 9.15,-1.15l0,2.65l2.1,2.25m-26.55,-5.9l-0.3,1.15l1.2,3.25l-1.2,-3.25l0.3,-1.15m11.5,4.35l-0.9,-1.1l-0.2,-0.5l0.2,0.5l0.9,1.1m-87,-123.55q-6.2,1.75 -5.35,7.95l-1,0.1l-0.85,-1.8l-0.1,-2.25l0.6,-1.05l2.15,-3.85l1.05,-0.6l1.4,-0.85l1.7,1.25l0.4,1.1" /><path id="svg_109" fill-rule="evenodd" fill="#345b69" d="m0.8,-70.2q-0.3,-0.2 -0.65,-0.35l-6.3,-3.85l-0.05,-0.05l-2.3,-1.9l-4.4,-4.25l-1.2,-1.3l13.85,-0.5l6.4,4l-5.35,8.2m-8.25,-7.25l-2.75,-2.7l2.75,2.7" /><path id="svg_110" fill-rule="evenodd" fill="#284651" d="m-0.25,-82.4l-13.85,0.5l-0.75,-0.9l-1.75,-2.15l2.9,-0.05l5.1,-0.1l3,0.5l2.45,0.4l0.1,0.05l2.8,1.75" /><path id="svg_111" fill-rule="evenodd" fill="#243f48" d="m-9.5,-89.2l-0.35,0l-1.8,0.15l-4.4,0.4l-1.35,0.15q-0.85,-6.2 5.35,-7.95l0.5,1.4l4.4,5.95l-2.35,-0.1" /><path id="svg_112" fill-rule="evenodd" fill="#ccbc99" d="m41.05,21.65l1.25,9.4l-1.2,8.5l2.05,6.7q-1.9,8.05 -8.55,17l-1.2,-2.2l-0.4,-1l-0.05,-0.25l0.05,0.25l-0.05,-0.2l0,-0.05l3.85,-16.65l1.25,-9.75l-0.35,-5.25l0.4,-1.95l0.55,-4.1l0,-0.2l2.4,-0.25m-84.35,0.65l-2.7,-0.15l0.3,-1.35l-2.6,-1l-5.7,-2.2l-7.85,5.6l-3.9,7.25l-0.25,0l0,8.25l3.25,0.85l5,1.3l3.9,-3.55l4.35,3.1l-0.45,1.85l3.45,2.9l1.85,-1.35l17.1,12.15l-1,5.5l-1.15,2.15q-1.15,8 -2.85,10.95l-0.15,0.05l-6.85,2.3q-7.55,3.55 -14.45,1.6l-0.05,0l-0.3,0.05l-11.1,-8.35l-0.25,-0.55l-0.1,-0.15l-0.2,-0.4q-2,-3.9 -4.35,-5.85l-1.45,-0.4l2.5,-8.55l1.95,-1.6q2,-1.35 4.65,-1.5l2.9,0.15l1.45,0.85l3.5,5.45l-0.6,2.15l-5.35,1.65q-1.6,-0.8 -0.45,-1.65l1.65,-1.6l-3.15,1l-0.15,1.95l2.1,1.35l5.55,-2.15l1,-0.4l2.4,-5.8l-1.05,-2.25l-4.9,-2.1l-5.1,-1.3l7.9,-1.05l7.2,1.65l-7.5,-2.7l-6.6,0.3l-0.1,-0.1l-0.15,0.1l-4.75,1.95l-8.85,7.15l-0.6,-0.75l0.3,-0.35l4.2,-5.3q-2.8,2.05 -5.35,4.6l-0.75,-6.25q0.7,-4.85 2.05,-9.1q1.9,-6.1 5.05,-11q2.75,-4.35 6.5,-7.85q3.25,-1.95 7,-3.3l2.7,-0.9l0.05,0l0.05,0l1.25,-0.35l0.05,0l7.25,2.9l2.7,4.15" /><path id="svg_113" fill-rule="evenodd" fill="#d5c8aa" d="m43.15,46.25q1.3,4.95 2.3,10.9l0.15,5.55l5.25,4.4q-0.25,3.2 -1.45,6.25l-1.15,0.45l-1.25,1.45q0.1,6.8 -0.9,13.1l2.3,8.65l-1.85,2.85l0.25,0.95l-3.3,0.65l-5.15,-1.4l-0.25,-0.85l-1,0.5l-0.2,0.1l-0.8,-0.55l1.7,-2.25q0.75,-2.85 -0.25,-4.8l1.8,-0.65l0.4,-4.9l-1.55,-8.05l1.55,-0.9l0.15,-1.85l0.3,-3.8l0.6,-1.8l-1.2,-1.95l-2.25,-0.2l-2.75,-4.85q6.65,-8.95 8.55,-17m1.5,24.2l1.2,2.65q0.9,1.05 2.4,0.7q-1.5,0.35 -2.4,-0.7l-1.2,-2.65m-78.85,8q-5,5.8 -14.2,12.7q-4.85,1.95 -7.75,1.55l-0.35,0.6l-6.65,0.95l-2.95,2.8l1.1,-0.7l-0.4,0.45l1.95,2.6l0.35,0.5l10.45,5.65l-0.3,0.8l4,1.95l3.9,9.5l9.85,1.95l-0.4,0.45l-1.95,2.15l-0.55,-0.35l0.55,0.35l-0.8,0.9l-1.75,1.9l-1.05,1.15l-0.3,0.4l-0.7,0.05l-1.85,-4.5l-0.1,-0.05l-0.8,-0.65l-2.15,-0.25q-1.4,-0.65 -2.85,1q-1.05,-5.1 -3,-9.8l-4.15,-2.85l-0.75,1.8l-1.95,-4.2l-5.95,-3l-4.05,0.3q-2.85,-3.25 -2.55,-7.9l0.45,-1.9l3.15,-1.2q3.75,-7.4 6.25,-15.25q-1.4,-4.7 -3,-8.1l11.1,8.35l0.3,-0.05l0.05,0.3l0,-0.3q6.9,1.95 14.45,-1.6l6.85,-2.3l0.05,0.15q-1.8,2.85 -1.45,3.1l-0.1,0.6m75.6,21.8l-1.35,-0.45l1.35,0.45m-108.65,-7.9l-1.45,1.2l1.45,-1.2m5.45,0.3l-1.2,1.45l-0.15,0.15l0.15,-0.15l1.2,-1.45m6.7,-2.25l-1.05,2.3l1.05,-2.3m18.5,29.85l1,-0.05l-1,0.05m-6.85,1.45l-0.6,-0.1l-0.05,0l-0.8,-0.05l0.8,0.05l0.05,0l0.6,0.1" /><path id="svg_114" fill-rule="evenodd" fill="#1c3936" d="m-9.95,115.35l2.55,0.95l0.3,6l9.5,4.75l-3.4,0.95l-11.3,-3l-0.3,-5.5l-0.2,-0.05l2.3,-3.9l0.55,-0.2" /><path id="svg_115" fill-rule="evenodd" fill="#c7b3a5" d="m-98.3,59.45l2.3,-3.5l0.05,0l0.2,2.6l0,0.1q0.7,3.25 3.95,4.45l4.75,-0.15l0.45,-0.25l4,-2.35q-2.15,4.7 -6.55,6.05q-5.55,-1.4 -1.5,4.2q-8,-1 -8.65,-5.95l0.4,-3.65l0.25,-0.8l-0.05,-0.15l0.4,-0.6" /><path id="svg_116" fill-rule="evenodd" fill="#815a34" d="m51.95,16.95l2,0.2l3.8,1.95l-0.85,4.95l0.5,1.15l-6.1,-1.2l-3.7,-1.75l4.35,-5.3m40.2,4.3l7.1,0.1l-1.6,2.45l-1.85,4.95l0.2,0.9l-5.85,-0.85l-0.15,-0.15l-2.1,-2.25l0,-2.65l0,-1.05l3.15,-1.5l1.1,0.05m-136.75,-9l-3.3,0.8l-11.45,-1.5l-8.1,1l11.05,-7.15l1.7,0.95l10.65,1.25q-0.4,0.9 -0.25,1.5l-0.3,3.15" /><path id="svg_117" fill-rule="evenodd" fill="#bea57c" d="m37.7,28.15l0.35,5.25l-1.25,9.75l-3.85,16.65l-0.1,-0.25l-0.05,-0.3l-0.25,-0.9l0.1,0.8l-4.1,-10.95l-0.4,-0.45l4.15,-5.4l1.65,-5.5l2.85,-5.1l0.9,-3.6" /><path id="svg_118" stroke-width="0.05" stroke-opacity="0.25098" stroke-linejoin="round" stroke-linecap="round" stroke="#111a1f" fill="none" d="m18.2,-97.2l0.8,-3q1.3,-6.25 -0.35,-13l-1.15,1.6q-3,-4.25 -7.95,-6.15l-5.3,-1l-1.85,-1.35l-0.15,1.2l-8.35,-0.35l-3.15,1.15l-1.7,2.2l0.55,0.4q4.05,-4.35 8.8,-1.9q3.65,3.6 6.3,8.05l-0.05,0.1l0.35,0.9m13.2,11.15l-0.8,2.1l1.55,1.55l0.45,0.55q1.05,1.55 2.2,4.55q1.4,4.35 1.6,9.15l-0.1,0.15l-2.15,2.45m-3.4,8.65l-1.7,1.7l-0.4,0l0,0.05l-0.3,1.15l-0.55,0.7l-1.65,2.1l-0.45,0.55l-1.35,0.65l-0.95,0.45l-1.5,2.55l-1.15,1.9q-1.15,1.25 -4.1,1.8l-4.75,0.8l-0.35,0.05m3.65,2.35l1.25,-0.5l1.9,-0.3l2,0.25q1.1,0.25 2.25,0.95l0.5,0.3l1.6,2.15l0.45,1.05l1.1,1.25l-0.1,0.55m3.45,8.75l0.3,1.1l0.15,0.7l-0.2,0.2l3.35,3.45l1.5,4.7l0.55,3.05l5.7,4.55l4,8.45l0.45,4.2l2.25,1.7l1.15,4.55l-0.25,2.15l-1.9,1.15l0.55,0.9l1.95,5.45l0.35,1.95l1.65,2.7l0.75,2.05m60.55,5.15l0.4,-0.55l0.85,-0.25l-0.15,-5.95q1.05,-0.6 2.15,-1.1q2.15,-4.95 1.7,-10.5l-0.3,-1.75l-1.3,-7.8q-0.25,-1.05 0.05,-1.7q0.3,-0.65 1.05,-0.95l0.4,0.05q3.25,0.35 6.15,2.15q4.25,3.7 7.15,9.35l0.05,0.2l1.95,-1.95l1.85,0.65q1.8,3.3 2.3,8.2l3.9,-3.75q1.1,-0.5 2.05,0.65q2.2,2 2.55,8.1l-0.25,6.6l0.5,1.1l0,0.25l-0.5,4.3l1.3,4.1l-0.1,1.8l-0.65,3.7l-0.35,1.1l-0.2,0.7q-0.75,2.15 -1.9,4.2l-6.6,4.2l-1.95,-0.85l-6.5,4.15l0,0.3l-1.45,3.15l0.1,0.45l-1.85,2.55l-5.1,2.25l-0.4,0.95l-6.15,1.5l-4.6,-1.25l-0.3,0.2l-5.9,1.55l-11.8,0.15l-1.9,-2.35l0.5,-3.4l3.85,-1.35l0.05,-0.05l4.7,-5.3l1.6,-1.85q-1,-1.55 -0.5,-2.75l3.2,-2.25l-0.15,-0.2l-0.05,-0.1q-0.25,-0.45 -0.2,-1.2l0.1,-0.85l1.65,-1.5l0.85,-0.8l-0.6,-2.35q0.9,-1.5 2.15,-2.3l0.3,-0.2l2.15,0.05l13.4,0.1l1.75,3l1.8,3.15l2.5,4.3l0.3,6.4m-19.75,-17.1l0.9,-3.05m-12.45,0l-1.7,-0.75l-0.05,-0.05m-40.75,-7.2l1.25,9.4l-1.2,8.5l2.05,6.7q1.3,4.95 2.3,10.9l0.15,5.55l5.25,4.4q-0.25,3.2 -1.45,6.25l-1.15,0.45l-1.25,1.45q0.1,6.8 -0.9,13.1l2.3,8.65l-1.85,2.85l0.25,0.95l1.9,6.9l-0.3,4.1l-6.75,5.9l-5.8,-4.45l-1.65,-6.55l2.7,-6.9l-2,1l1.2,-1.55l1.7,-2.25q0.75,-2.85 -0.25,-4.8l1.8,-0.65l0.4,-4.9l-1.55,-8.05l-0.8,0.45l-1.95,-0.6q-3.05,1.8 -5.65,4q-2.35,1.95 -4.35,4.2l-5.6,8.45l0.1,0.65l0.05,0l1,-0.15m-14.15,-197.4q-0.5,-3 -1.85,-6.55m1.85,6.55l-0.25,-0.05l-2.45,-0.65l-3.85,-0.25l1.9,1.35l-2.25,0.2m16.75,5.2q-1.75,-2.25 -4,-4.15l-0.05,0l-2.35,-1.8l1.4,3l-1.6,-1.2l-3.25,-1.65m-7.05,0.65l-1.4,0.1l0.1,0.95q0.45,5.15 0.15,10.3l0,0.2l-0.15,1.45l2.3,0.9q2.05,1.2 3.05,3.1m12.85,-11.85l0.7,0.9m-11.25,16.7l3.65,2.25l6.3,1.6l0.5,-0.05l2.35,-0.45l0.8,-0.6m-8.15,9.1l-0.2,0l-2.1,-0.3l-0.8,-0.2l-0.1,0l-4.95,-1.9q-0.2,-0.05 -0.35,-0.15l-0.1,-0.05l-2.2,-1.05q-0.3,-0.2 -0.65,-0.35l-6.3,-3.85q-1.5,2.25 -4.6,3l-8.85,0.55l-3.25,-0.65l0.35,2.6l-0.95,0.45l9.1,-1.65m17.45,1.95l-0.2,1.75l-3.5,1.85l-2.1,0.8l-0.8,2.45q-1,2.6 -2.9,5.15l-0.5,0.6l1.4,1.05l0.2,0.1q1.1,0.55 2.65,0.8l0.65,0.05l0.35,-0.05m17.1,-12.75l-0.2,0l-2.6,-0.1l-1.05,-0.1m0.7,3.8l-1.2,-0.1l-3.85,0.7l-0.1,0l-1.2,-0.1l-1.05,-0.65l-0.2,-0.1l0,0.05l0.15,1.1l0.55,0.6m1.7,-0.3l-1.15,-0.7m6.6,-0.9l-1.45,0.3l-3.6,-0.35l-2,0.35m-0.3,0.05l-0.05,0.05m7.35,0l-0.2,0m-6.15,-15.65l-6.4,-4m-13.85,0.5l1.2,1.3l4.4,4.25l2.3,1.9l0.05,0.05m5.8,42.6l0.45,1.05l1.4,0.1m14.4,-3.45l0.75,-0.7m-1.9,1.75l1.15,-1.05m-2.75,8.65l0.05,0.15l0.25,-0.3l0.45,-0.5l0.45,-0.75l0.55,-0.95l-0.2,-3.1l-0.15,-2m-1.4,7.45l-0.6,-1.95m3.85,8.45l1.25,3.3l0.05,0l3.05,1.25l4.05,5.7l0.1,2.2l0.55,0.05l0.65,0.1l2.2,1.45l1.6,1l0,1.7l0.95,1.45l2.6,3.9m-20.25,-28.45l2.1,3.85l0.95,2.05m-0.7,7.25l-1.2,-1.6l-0.15,-0.25m1.45,1.95l0.4,0.55l0,0.05l0.25,0.15m1.05,3l-0.2,0.75m-0.05,0.2l-0.15,0.6l-0.6,-0.35l-0.55,-3.5l0.1,-0.25l0.15,-0.6l-0.5,-0.65l0.1,0.05m-0.1,-0.1l0,0.05m12.25,9.65l0.4,-1.9m98.05,16.8l-1.1,-1.25l-0.7,0l-5.2,-0.6l-1.55,-0.05l-2.05,0l-3.4,0.3l-1.05,0.1q-4.4,0.5 -8.7,2.55m21.05,-4.05l0.9,1.75m7.35,9.85l0,-0.05l-0.45,-0.95l-0.1,-2l-5,-5.6m-9.9,4.15l0.6,-0.15l6.65,1.6l3,1.5l5.7,2.85m-12.85,5.5q2.4,0.5 3.4,1.25q2,1.45 1.9,5.2q0.05,1.6 -0.6,6.05l-0.85,4.05l-1.95,1.2m-3.9,-43.1l1.8,8l0,0.05m-14.5,8.9l-4.25,1.05m4.25,-1.05l11.6,-2.9m-16.3,11.45l0.15,0q5.5,-1.55 13.05,-0.95l6.2,0.8m-24.35,4.8l3.3,-4.1l1.65,-0.55m-2.45,23.1l0,-0.3l-3.55,-3.7l-7.65,-0.2l-0.2,0.35m27.2,5.95l-1.35,-5.95m-4,3.1l-0.9,6.6l-0.6,1.5m-11.15,1.2l2.35,-1.85l-0.15,-6.7m-70.7,-49.15l0.35,-1.8m11.4,21.7l0,0.2l-0.55,4.1l-0.4,1.95l-0.9,3.6l-2.85,5.1l-1.65,5.5l-4.15,5.4l0.4,0.45l4.1,10.95l-0.1,-0.8l0.25,0.9l0.05,0.3l0.1,0.25l0.05,0.25l0.4,1l1.2,2.2l2.75,4.85l2.25,0.2l1.2,1.95l-0.6,1.8l-0.3,3.8l-0.15,1.85l-1.55,0.9m-65.75,-22.65l0.75,-4l0.45,-2.7m14.55,-8.05q-0.1,-2 -0.5,-3.9l-0.1,-0.45l-0.15,-0.65l-0.25,-0.8l-0.25,-0.8m0.05,-1.4l0.55,-1.9m28.45,-25.1l1.35,0.25m-17.25,-5.25l1.1,1m1.85,0.15l2.65,0.4m-14.7,-12.6l-2.55,-0.65l0.15,0.6m0.1,0.45l0.75,3.25m3.95,-0.9l-1.8,-0.25l-0.55,-0.4m41.9,67.6l0.05,0.2m-5.8,-23.9l1.35,-5.55m-1.9,7.45l0.55,-1.9m-0.8,5.95l-0.5,-1.5l0.15,-0.4m0.6,2.65l0.1,1.65m0.15,1.7l1.25,1.55m-1.25,-1.55l-2.2,-2.65m3.85,-18.05l-0.15,-2.1m5.1,38l-0.75,-1.45l-0.1,-0.8l0.3,0.7m0.45,1.2l0.1,0.35m1.95,17.05l-3.95,-1.25m1.5,-7.55l0.25,1.3m-0.45,-1.6l-0.5,-0.9l-3.4,4.05l2.35,4.6l0.25,0.1m5.85,-9.1l-1.15,-0.1m-29.45,-8.3l3,1.9q7.5,5.1 13.25,10.55l1.95,3.35l0.05,0.05l0,0.05l0.3,2.4m-16.25,20l0.7,0.45l1.25,0.75l0.45,1.35l3.85,0.15l3.45,-2.55l0.35,-0.45l0,-0.05l0.8,-1.75l0.05,-0.15m-11.8,-2.35l-0.6,1.15l-0.15,2.25l1.2,1.8l1.15,-0.15m5.95,-11.05l-0.1,0.6m-3.45,-0.95l0,1.25l3.55,-0.9l0.2,-1.8q5.15,-4.7 9,-10.05l0.05,-0.05m-5.85,22.15l0.85,0.35m0.05,-2.25l-0.1,0.15m-7.75,-8.85l0,-0.85l-4.35,-1.2q-3.95,0.3 -7.95,2.1q-3.75,6 -5.3,11.35l0.75,1.2l4.35,0.9l2.1,-1.35l6.85,-0.6m39.65,-24.8q-1.5,0.35 -2.4,-0.7l-1.2,-2.65m-7.75,29.35l0.2,-0.1l1,-0.5l0.25,0.85l0.35,1.1m-36.3,25.9l4.95,-1.45l-1.75,-6.1l-10.45,-6.15m7.25,13.7l-3.4,0.95l-11.3,-3l-0.3,-5.5l-0.2,-0.05l-5,-2.2l-0.3,-3.1l-2.25,-0.75l-3.25,3.1l-0.3,-2.35l-0.6,1.35l-2.25,-8.5l-1.8,-0.6l0.3,-1.35l-5.4,-5.6l-3.25,-0.7q-1.5,-2.65 -1.05,-6.25l4.05,-6.7l-0.05,-2l-0.25,-5.35q-5,5.8 -14.2,12.7q-4.85,1.95 -7.75,1.55l-0.35,0.6l-0.4,0.65l0,2.7q6.35,2.35 12.55,6.45l0.6,4.3l0.05,0.1l1.5,-0.2l0.05,0q2.15,0.95 4.35,2.4q2.55,1.65 5.2,4l0.15,1.3l3.6,3l-3.5,-0.9l-0.05,0.9l0.9,1.55l0.25,0.5l2,1.4l7.85,5.45l0.9,5.45l0.15,0.85l-3.3,2.4l-7.45,0.25l-10,-4.15l-0.05,-5.35l0,-0.05l-0.3,0.4l-0.7,0.05l-1.85,-4.5l-0.1,-0.05l-0.8,-0.65l-2.15,-0.25q-1.4,-0.65 -2.85,1q-1.05,-5.1 -3,-9.8l-4.15,-2.85l-0.75,1.8l-1.95,-4.2l-5.95,-3l-4.05,0.3q-2.85,-3.25 -2.55,-7.9l0.45,-1.9l3.15,-1.2q3.75,-7.4 6.25,-15.25q-1.4,-4.7 -3,-8.1l-0.25,-0.55l-0.1,-0.15l-0.2,-0.4q-2,-3.9 -4.35,-5.85m-1.45,-0.4l-0.3,0.95l-1.25,4.2l-3.55,8.1l6.25,-4.2l-5.1,5.3l-6.85,7.1q-3.55,2.15 -8.65,3.55l-3.65,0.35m-11.75,-2.7l-2.75,-0.95l-0.1,0m-14.85,-1.95l-2.9,-0.4q-5.9,-6.2 -5.85,-14.5l0.15,-3.65q0.35,-4.1 1.45,-8.2q0.85,-3.1 2.1,-6.2q3.65,-7.45 10.6,-12.65l-5.55,1.8l4.75,-3.15q2.45,-1.5 5.1,-2.75q2.45,-1.2 5.1,-2.15l-8.05,0.7l7.85,-1.65l7.5,-1.6q7.7,-0.5 15.25,1.6l2.75,2.15l0.15,0.15l1.65,-0.55l0.65,-1.25l3.9,-0.55l0.4,-1.85l6.5,-0.25q2.75,-4.35 6.5,-7.85q3.25,-1.95 7,-3.3l2.7,-0.9l0.05,0l0.05,0l1.25,-0.35l0.05,0q2.65,-0.75 5.5,-1.15l3.2,-0.45l-0.05,-1.4m0.55,-4.65q0.65,-1.8 1.75,-3.2l0.2,-0.3l-0.3,-1.9l0.35,-1.75q1.55,-7.95 3.85,-16.4l0.55,-2.05q1.95,-2.7 3.75,-3.95l-0.25,-3.55l0.8,-2.75q1.55,-5.1 4.45,-10l-0.35,-4.5q1.45,-2.75 3.7,-5.35l1.75,-1.9l1.9,-1.05q3.25,-0.45 5.9,0l1.45,-1l1,-1.7q1.2,-2.55 -0.25,-4.1l-5.3,1.65l-1.05,1.75l-1.95,0.05l-0.75,2.25l-3.05,0.85l-0.6,0.65l-1.35,-0.55l-1.55,2.3l-2,-0.35l0,0.85l-0.1,0.15l-0.9,1.1l-2.55,0l-0.8,1l-2.45,0.15l-1.05,0.45l-0.7,-0.6l-1.3,-0.35l-1.65,0.3l-1.95,-0.95l-1.1,0.05l-2.05,0.1l-1.85,-0.85l-2.35,-1.05l-1.6,1.55l-2.2,-0.6l-2.35,0.45l-1.35,0.25l-4.05,1.9l-0.15,-0.05l-0.75,0.95l-1.15,1.85l0,0.05l-0.85,4.55l-2.5,1.7l-4.3,-0.5l-4.55,1.5l-1.8,0.25l0.35,-0.25l3.6,-5.25l6,-3.6l-0.65,-0.35m110.55,144.3l1.35,0.45m-99.9,-233.75l-3.95,-0.85l-1.5,1.45l2.25,-0.7l3.2,0.2l0,-0.1m-1.1,12.05q1.35,-2.4 3.25,-2.9l-2.15,-9.05q0.65,3.35 0.55,7.25l-2.6,2.1l0.95,2.6q2.2,4.7 7.2,8.1q5.7,-2.5 10.6,-4.15l0.65,-0.2q4.55,-1.45 9.2,-1.6q7.15,-0.05 14.45,1.5l-0.6,-1.05q4.55,1.3 7.15,2.95m-69.45,-10.7l2.2,-0.9m25.8,14.15l-1.75,0.75q-1.55,2.4 -3.15,4.45q-3.75,4.8 -7.8,7.65q-2.85,1.95 -5.8,2.95m0.1,1.55l15.4,-1q1.2,-0.8 2.35,-1.7q2.05,-1.7 3.95,-3.85l0.15,-0.2q2,-2.35 3.7,-5.2l0.6,-1m10.5,-0.35l-5.9,3.35l-2.65,0.15l-2.55,-2.15m11.1,-1.35q-5.05,-0.2 -8.9,0.2l-1.6,0.15m-15.9,-15.1l-2.5,2.1q-0.6,9.6 5.75,13.8m24.2,7.55l-1.35,0.8l-0.65,0.4m-13.85,-3.35l5.35,4.1l1.25,0.45l3.75,-1.35l5.5,-1.05q6.45,-3.95 9.75,-4.85l-0.95,-0.7l-7.9,-3.05l-1.95,-0.1m38.85,-0.05q-2.35,-2.25 -5.15,-2.95l-2.9,0.3q-0.95,0.55 -1.4,1.55l0.7,0.8q1.65,3.8 2.4,8.2l0.05,0.4m-3.15,-9.4q-1.6,-2.9 -4.2,-4.95l0.35,1.7q-0.65,-0.95 -1.8,-1.8m-3.3,11.8l3.3,3.55q3.75,4.8 5.3,10.9l0.1,0.35l2,0.35l-0.05,-1q-0.3,-5.3 -1.65,-10.55q-1.25,-4.75 -3.35,-9.5q-7.5,-6.1 -16.9,-7.5m-61,6.75l0.05,0.1q3.2,8.45 11.5,12.95l2.85,1.35l0.75,-0.05m-15.45,-16.7l-1.85,-4m1.95,4.7l-0.1,-0.7q-0.3,-3.85 0.45,-6.25q0.55,-4.8 5.4,-7.65q-4.3,1.9 -8.35,4.7q-1.15,2.55 -0.35,5.1l3.15,6.45l-0.1,-0.5l-0.1,-1.15q8.2,9.3 21.05,11.5m59.5,15.9l2.45,0.4l0.3,0.05l1.75,0.3l2.05,1.4m-8.1,-6.65l-2.35,-0.1m4.5,0.3l-1.6,-0.15l-0.55,-0.05l-4.4,-5.95l-0.5,-1.4l-0.4,-1.1l-1.7,-1.25l-1.4,0.85m-1.85,9.45l1.35,-0.15m14.55,0.5l-1.5,-0.4m-9.45,-9l1.55,1.1m-7.85,2.95l-0.6,1.05l0.1,2.25l0.85,1.8l1,-0.1m3.3,6.6l-0.75,-0.9l-1.75,-2.15l-7.35,0.1q-1.65,3.15 -1.15,5.15l1.4,-0.65q-0.35,2.8 0.2,5.5l5.25,1.7l-0.2,-2.8l1.1,-2.85l4,0.25q1.15,1.3 1.55,3.6l3.3,-1.4m-8.1,-8.6l2.9,-0.05m10.55,0.8l0.1,0.05l2.8,1.75m-28.7,-9l2.2,1.15l5.25,-0.5q-4.05,-2.5 -8.95,-3.75l-4,0.2l5.5,2.9l-5.55,-1.35q-5.7,1.05 -10.1,3.45l-3.1,-1.55l-4.2,-1.55m17.45,-1.9q-6,1.4 -10.9,4.3l-2.35,-0.85m29.3,2.45l-13.45,1.9l-5.95,2.5l-4.6,1.95l7,-0.4l8.15,-2.35l3.3,-0.05m0.45,10l-3.75,-1.25l-14.85,-0.1l-1.3,0.35l5.4,1.35l15.15,3m-0.6,3.05l-6.7,3.2l-17.1,-0.65l-0.05,0.05l0.05,0l9.55,4.1l0.5,0.3q3.45,2.05 7.7,2.65l3.95,0.2l10.45,-0.75l4.85,-1.7l7.55,-2.7m-30.3,10.55l0.7,-0.2m-8.45,5.1l2.7,-1.85l1.05,0.05l1.35,-2.35l2.65,-0.75l0.5,-2.1l3,-3.5m-6.75,8.7l-0.75,0m9.15,-1.1l-0.5,-0.2l-2.15,-2m18.7,-21.55l-5.25,2.25l-1.2,-0.45m4.45,15.3l2.6,-1.6l0.4,-0.3l0.55,-1.3m-0.95,1.6l-0.95,3.25l-1.4,2.45m2.85,1.5l0.1,0.25l-1.35,1.35m2.65,1l3.5,0.6m-1.1,-6.5l-2.55,2.4l-1.25,0.9l-5,3.6l-7.7,2.6l2.85,-1.95l4.55,-3.05m-42.95,-36.1l4.05,-0.2l11.15,2.65l5.95,0.7m-21.15,-3.15l-0.65,0.05l-0.3,0l-12.55,1.75l-0.5,0.3l-2.35,1.25m32.9,1.75l-5.75,-0.05l-10.8,-5.05m-0.95,0.05l-8.4,-0.85l-4.35,2.25l-0.3,0.65m-2.95,21.85l-0.6,-0.2m18.45,4.95q-5.2,-1.8 -10.25,-2.4l0.1,0l-2.4,0.15q-2.6,-1.6 -5.3,-2.5l7.55,2.3q5.6,-0.15 12.3,1.25q3.65,-3.8 8.75,-6.2m-21.15,4.95l0.15,0.05l-0.05,-0.05l-0.1,0m17.15,-13.05l-3.95,1.45m18.05,11.05q-8.7,1.4 -16.6,4.6l-0.95,-0.4l-0.15,-0.05l-3.15,-1.15l2,-1.2m2.65,9.8l-1.75,-1.15l-1.65,-1.25l-4.5,3.85l1.55,0.3l1.3,-0.5l2.45,0.65m2.95,-2.65l-0.35,0.75l-0.4,0.95l1.2,-0.2l0.4,0.2m-2.95,-2.1l2.1,0.4l0.25,-0.65l4.45,0.15l1.25,1.45l0.3,0.35l1.65,-0.95l1.35,1.5l0.45,-0.3l1,0.5l1.05,-0.5l0.55,0.75l0.9,1.2l0.2,-0.95l3.1,-0.25l0.5,1.15l1.1,0m-8.45,-28.7l-7.9,1.9l13.3,-0.55m-5.8,25.75l-1.6,1.05l-0.55,0.6m-0.85,-2.2l1.4,1.6m-12.95,0.2l-1.4,-0.6m-1.55,-0.3l-0.85,-0.2l-3.6,2.55l1.85,0.65m-2.2,-0.1l-1.65,2.35l1.95,0.6m-1.95,-0.6l-2.1,-1m3.75,-1.35l1.45,1.05m-1.1,-1.6l-0.35,0.55m54.2,15.6l0.45,0.1l0.75,0.85m-4.35,16.95l2,1.15l1.5,0.35m-4.5,-21.3l2.4,-3.55m-17.85,-12.9l-0.1,-1.05l0.2,0.05m7.4,54.8q5.15,-3.8 9.85,-5.3l3.6,-6.45m-10.55,-14.45l4.85,7.95l1.2,0.7m-34.8,-35.85l2.75,-1.8m32.95,-49.15l-9.2,-6.65m9.2,105.7l-0.65,1.05m-14.75,17.35l-0.7,-0.25l-0.05,0.05l-1.35,0.95l-1.25,0.1l-1.45,-0.75l-1.5,1l-1.35,0.1l-1.4,-0.65l-1.25,0.8l-1.1,-0.15l-1.2,-0.45l-2.4,-5.75m31.55,19.55l-0.2,0.5m1.4,7.5q0.15,2.2 -0.05,4.5m1.75,2.9l0.1,0.3l2.4,2.65l1.25,1m5.35,2.7l7.75,4.45q-4.1,1.25 -9.65,1.25l-0.3,0.6l-5.05,10.85l-1.5,3.2q-6.85,8 -12.1,12.7q-1.2,0.8 -1.35,4.65l2.2,2.45q1.2,1.6 2.25,3.4q1.4,2.45 2.4,5.35q3.6,1.9 6.55,5.95l2.4,0.15l0.75,2l1.8,1.1m-72.9,-83.6l-0.35,1.4m-1.65,7.8l0.5,1l3.35,-1.3q1.9,-6.1 5.05,-11m-8.9,11.3l-0.55,-1.05m4.4,0.75q-1.35,4.25 -2.05,9.1l0.75,6.25q2.55,-2.55 5.35,-4.6l-4.2,5.3m0.3,1.1l8.85,-7.15l4.75,-1.95l0.25,0l6.6,-0.3l7.5,2.7l-7.2,-1.65l-7.9,1.05l5.1,1.3l4.9,2.1l1.05,2.25l-2.4,5.8l-1,0.4l-5.55,2.15l-2.1,-1.35l0.15,-1.95l3.15,-1l-1.65,1.6q-1.15,0.85 0.45,1.65l5.35,-1.65l0.6,-2.15l0.75,-2.9l-4.25,-2.55l-1.45,-0.85l-2.9,-0.15q-2.65,0.15 -4.65,1.5l-1.95,1.6l-2.5,8.55m-4.55,-7.8l-2.65,3.3l3.25,-2.55m-10.85,6.9l4,-2.45q2.5,-3.35 5.25,-6.05l0.15,-0.2m12.2,42.35l1.85,-2.1l0.15,-0.15l1.2,-1.45m-3.2,3.7l-0.4,0.45l1.95,2.6m29.55,18.9l0.25,-0.25m0.9,-1.05l0.4,0.1m-36.35,-23.55l1.45,-1.2m34.7,-17.8q1.7,-2.95 2.85,-10.95l1.15,-2.15l1,-5.5m-28.6,36.75l1.05,-2.3m50.5,-29.5l1.7,0.05m-25.05,1.5q2.65,-1.65 5.75,-2.75q3.6,-1.35 7.8,-2q3.4,2.05 9.8,3.2m-25.1,2.7l1.75,-1.15m-6.25,16l0.1,-0.6q-0.35,-0.25 1.45,-3.1l0.1,-0.2m-76.85,-43.8l0.6,-0.35m24.45,1.8l-1.35,2.7l0.3,1.25l0.6,2.95l0.5,0.1l4.55,-0.25m-4.2,-6.85l-0.4,0.1m2.05,-0.65l-0.15,0.35l1.7,4.5m-17.55,23.05l2.3,-3.5l0.05,-0.05q6.35,-4.8 10.85,-10.7q1.6,-3.25 0.8,-6m-14.4,20.85l-0.15,0.2l-0.05,0.75l-0.4,3.65m0.6,-4.6l0.4,-0.6m11.7,3.25l-0.45,0.25l-4.75,0.15q-3.25,-1.2 -3.95,-4.45l0,-0.1l-0.2,-2.6l0,-0.05m57.85,66.1l0.55,0.35m1.95,-2.15l-1,0.05m-1.75,3l-1.75,1.9m-3.6,-17.65l1.4,2m-2.6,12.05l0.8,0.05l0.05,0l0.6,0.1m2.3,4.6l1.05,-1.15m41.65,-181l-4.45,-0.95" /><path id="svg_119" stroke-width="0.05" stroke-linejoin="round" stroke-linecap="round" stroke="#ffcc99" fill="none" d="m1.6,-31.6l-0.2,-1.2m14.5,-1.3l0.8,-1.6" /><path id="svg_120" stroke-linejoin="round" stroke-linecap="round" stroke="#b58840" fill="none" d="m13,-43.95l1.8,4.4l0.6,1.55m-8.8,-3.65l-0.45,-1.05m-4.35,9.1l-2.65,0.2l-0.5,2.3l1.35,1.9l2,-0.6l1.4,-2l-1.6,-1.8m-17.1,-14.1l0.3,-0.15m-0.3,0.15l-5.85,2.55l1.35,7.2l-6.15,1.35l-4.25,11.2l2.3,6.4m-11.5,26.65q0.45,-17.75 7.6,-26.15l4.5,1.1l-0.6,-1.6" /><path id="svg_121" stroke-width="0.05" stroke-linejoin="round" stroke-linecap="round" stroke="#cccc00" fill="none" d="m14.25,-73.35l-2.45,-0.8m-4.6,4.15l-0.8,-0.25l-2.9,-1.3m-13.7,-8.6l2.75,2.7" /><path id="svg_122" stroke-width="0.05" stroke-opacity="0.533333" stroke-linejoin="round" stroke-linecap="round" stroke="#885f2d" fill="none" d="m-5.4,-47.9l5.4,1.6m8,6.55l-0.85,-4.1m2.05,9.3l-0.15,-1.2l-2.45,-5.9m-8.55,28.1l4.15,0.4m12,-0.85l-4.6,-10.15m-16.65,-24.25l-0.25,-0.2m0.25,0.2l1.65,0.5m-6.1,9.8l-0.55,0.55m-7.2,7.1l0,0.8l-2.8,5.7m10.55,-14.15l4.4,-4.65m-20.8,23.75l3.8,-2.4m-3.8,2.4l-0.6,0.35m26.6,1.65l3,0.55m-4.95,-4.1l4.15,1.35" /><path id="svg_123" stroke-width="0.05" stroke-linejoin="round" stroke-linecap="round" stroke="#cc6600" fill="none" d="m33,69.65l-0.2,-0.3" /><path id="svg_124" stroke-width="0.05" stroke-linejoin="round" stroke-linecap="round" stroke="#5b3f1e" fill="none" d="m3.2,-58.55l-1.75,-0.35l-0.2,-0.25m-14.85,-15.65l-1.35,-2.2l-1.85,0.4m15.4,21.2l1.4,-0.2" /><path id="svg_125" stroke-width="0.05" stroke-linejoin="round" stroke-linecap="round" stroke="#695834" fill="none" d="m-23.75,9.45l-1.5,-1.2l-0.7,1.05m-0.2,5l0.25,0.85m2.3,0.05l-2.25,2.85l-2.6,0.9l-1.1,-0.3m4.05,-10.6l-0.3,-0.2l-1.45,2.05l0.25,0.95l0.5,2.15l0.35,1.3m0.65,-6.25l0.25,0.2" /><path id="svg_126" stroke-width="0.05" stroke-linejoin="round" stroke-linecap="round" stroke="#593f20" fill="none" d="m-23,9.6l-0.65,-3.6l-0.35,-0.45" /><path id="svg_127" stroke-linejoin="round" stroke-linecap="round" stroke="#432f16" fill="none" d="m57.75,19.1l0.2,-1.35m38.05,11.9l-5.85,-0.85l-0.15,-0.15l-1.05,1.2l-2.65,1.05l-2.75,-1.25l-2.25,-1.15l0.5,0.35l0,0.05l0.05,0l-0.05,0l-4.75,0.8l-2.1,-2.6l-4.2,1.4l-3.1,0.45l-3.3,-1.8l-5.95,0.6l-1,-2.55l-6.1,-1.2l-3.7,-1.75l-2.25,-1.05l-4.3,0.45m51.1,-0.4l-1.1,-0.05l-3.15,1.5l0,1.05l0,2.65l2.1,2.25m-64.7,-8.05l-1.65,-0.3m14.35,1.7l0.65,-0.1l2.4,-0.25m-3.05,0.35l-12.7,-1.4l-8.15,1.5l-1.7,-0.45l-0.9,-1.1l-5.6,-2.2l-0.25,-0.25l-11.4,-1m11.4,1l-0.85,-0.85m-52.45,-5l-3.3,0.8l-11.45,-1.5l-8.1,1l-0.35,0.05l-5.8,-2.75l-0.05,-0.15l-0.05,0l-4.2,1.05l-4,-2.6l-4.45,-1.35l-0.9,0.75l-2.6,0.25l-1.7,0.9l-2.75,0.7l-1.55,-1.7l-5.15,2.6l-5.35,0.1l-2.85,-5.9l0.25,-3.85l1.1,-2.3m84.25,16.85l0.4,0l5.2,1.7l0.6,-0.55l0.6,-0.55m-0.6,0.55l0.4,0.05l14.3,0.7m-23.25,-7.8l0.2,-0.2l2,0.35m-2.2,-0.15l-1,0.9l0.15,0.7l0.65,3.4l0.2,0.85l0.05,0l2.3,0.05m-20.45,-7.6q-0.4,0.9 -0.25,1.5l-0.3,3.15m-51.25,-4.55l-1.5,-1.6l0.1,-1.6l0.8,-1.25" /><path id="svg_128" stroke-width="0.05" stroke-linejoin="round" stroke-linecap="round" stroke="#694727" fill="none" d="m57.95,17.75l0.2,-0.2q2.4,-2.25 5.75,-2.15l1.95,1.05l1.35,1.45l1.5,0l0.75,0.3l1.6,0l2.8,1.35l2.3,-0.3l2.1,-1.2l0.85,0.45l3.6,-0.6l2.3,0.7l0.85,-1l5.65,1.2l0.65,2.45l7.1,0.1l-1.6,2.45l-1.85,4.95l0.2,0.9m-22.15,-4.15l-0.55,-1.45m-8.95,3.1l-1.2,-3.25l0.3,-1.15l0.05,-0.25l0.85,-3.4m-6.6,0l-0.85,4.95l0.5,1.15m21.35,-0.4l-0.1,-1.35m-4.8,2.05l0.2,0.5l0.9,1.1m3.8,-2.2l0,-0.1m2.55,3.7l-2.5,-1.8l-0.05,-1.8m-84.5,-13.45l1.4,0.25l9.25,-0.1l3.5,-0.8l7.3,1.9l4.1,2.6l18.9,0.9m-146.55,-17.85l4.9,-0.65l2.3,1.8l0.9,-0.8l2.5,-0.45l1.9,1.4l0.05,-0.1l1.8,0l2.05,2.9l3.65,-1.1l3,1.1l1.2,-0.4l2.9,2.3l3.6,-1.55l4.45,2.65l5.8,1.05l3,-1.55l2.35,-1.2l1.35,-0.1l0.45,-0.05l3.3,1.8m33.4,4.2l3.65,0.25l0.7,0.9l7.15,-0.3l5.75,1" /><path id="svg_129" stroke-width="0.05" stroke-linejoin="round" stroke-linecap="round" stroke="#d9be9f" fill="none" d="m-103.3,-1.4l-4.25,0.35m96.2,12.35l7.4,1.05l11,-0.35m-74.65,-4.95l-5.3,-0.35m12.75,-3.05l-3.7,1.3m-18.25,-0.35l-1.75,-1.4" /><path id="svg_130" stroke-linejoin="round" stroke-linecap="round" stroke="#eaf2f4" fill="none" d="m130.25,18.75l-4,-4.8m-10.2,19.65l-6.6,-2.45m-18.35,21.15l-5.6,2.8m30.75,-51.5l-4.8,-7.6" /><path id="svg_131" stroke-width="0.05" stroke-linejoin="round" stroke-linecap="round" stroke="#d5a555" fill="none" d="m92.7,44.3l8.4,0.4m-8.4,-10.75l13.55,-0.4m-0.8,-8.4l11.2,-0.8m10.4,-2l-8,-3.6" /><path id="svg_132" stroke-width="0.05" stroke-linejoin="round" stroke-linecap="round" stroke="#8db8c7" fill="none" d="m88.7,19.15l-3.6,0.4m-21.95,-3.2l2.35,2m4.4,0.8l3.2,0.8m8.4,-0.8l-3.6,0.8" /><path id="svg_133" stroke-width="0.05" stroke-opacity="0.231373" stroke-linejoin="round" stroke-linecap="round" stroke="#927c5c" fill="none" d="m2,44.75q6.95,10.5 16.75,16.8" /><path id="svg_134" stroke-width="0.05" stroke-linejoin="round" stroke-linecap="round" stroke="#996a3c" fill="none" d="m10.9,3.95l0.9,0.35" /><path id="svg_135" stroke-width="0.05" stroke-linejoin="round" stroke-linecap="round" stroke="#5f4225" fill="none" d="m11.8,4.3l-0.2,1.15l3,0.5m-8.9,-3.2l3.05,0.4l2.15,0.8m-9.7,-1.75l1.15,1l0.7,-0.85m-9.65,-9.45l2.7,1.85l2.55,5.15l1.45,1.3m-0.5,3.1l1.25,-0.45" /></g><g transform="matrix(1,0,0,1,16.5,16.15) " id="shape4"><path id="svg_136" stroke-linejoin="round" stroke-linecap="round" stroke="#990000" fill="none" d="m-5.9,5.25l2.3,-1.3m-6.6,7.35l2.1,-0.7l-0.6,-2.7m-5.3,3.5l1.3,0.65l1.2,-0.35" /><path id="svg_137" stroke-linejoin="round" stroke-linecap="round" stroke="#720101" fill="none" d="m5.4,-1.8l0.2,-0.15m-3.05,7.35l1.25,-0.7l0.85,-0.9l-0.45,-1.1m-0.75,-1.8l-0.4,-0.9l0.9,-0.7m-7.55,4.65l0.55,-0.3m1.25,1.9l1.1,1.65l1.25,-0.7" /><path id="svg_138" stroke-linejoin="round" stroke-linecap="round" stroke="#fe0c0c" fill="none" d="m-14.35,11.15l0.35,0.25m-2,-3.3l0.25,1.4" /><path id="svg_139" stroke-linejoin="round" stroke-linecap="round" stroke="#540101" fill="none" d="m14.95,-13.1q0.7,-1.35 0.65,-2.55q1,1.35 1.65,2.8m-4.65,2.85l1.15,-1.3m4.25,0.35l0.15,0.55" /></g><g transform="matrix(1,0,0,1,47.5,74.4) " id="shape5"><path id="svg_140" stroke-width="0.05" stroke-linejoin="round" stroke-linecap="round" stroke="#5f4225" fill="none" d="m17.35,6.45l0.45,0.05l2.4,-0.6m1.6,-0.4l2.25,-0.55m1.2,-0.3l1.15,-0.3l0.5,-2.35" /><path id="svg_141" stroke-width="0.05" stroke-linejoin="round" stroke-linecap="round" stroke="#ffffff" fill="none" d="m8.2,-62.8l-0.8,1" /><path id="svg_142" stroke-width="2" stroke-linejoin="round" stroke-linecap="round" stroke="#63513d" fill="none" d="m7.7,-62.6l0.5,0.25" /><path id="svg_143" stroke-width="2" stroke-linejoin="round" stroke-linecap="round" stroke="#724f25" fill="none" d="m1.35,-64.4l-1.25,-0.55" /><path id="svg_144" stroke-width="0.05" stroke-linejoin="round" stroke-linecap="round" stroke="#e4c48d" fill="none" d="m0.6,-63.6l-1.4,-0.4" /><path id="svg_145" fill-rule="evenodd" fill="#e8dfd9" d="m-13.95,-71.2l3,-0.2q3.1,-0.75 4.6,-3l6.3,3.85l2.85,1.4l0.1,0.05l0.35,0.15l-0.35,0.8l-0.2,1.75l-3.5,1.85l-14.5,5.2l-10.45,0.75l-3.95,-0.2q-4.25,-0.6 -7.7,-2.65l-0.5,-0.3l-9.55,-4.1l-0.05,0l0.05,-0.05l17.1,0.65l6.7,-3.2l9.7,-2.75" /><path id="svg_146" fill-rule="evenodd" fill="#a5846b" d="m-13.95,-71.2l-9.7,2.75l0.95,-0.45l-0.35,-2.6l3.25,0.65l5.85,-0.35" /><path id="svg_147" stroke-width="0.05" stroke-opacity="0.25098" stroke-linejoin="round" stroke-linecap="round" stroke="#111a1f" fill="none" d="m3.25,-68.95l-0.35,-0.15l-0.1,-0.05l-2.85,-1.4l-6.3,-3.85q-1.5,2.25 -4.6,3l-3,0.2l-9.7,2.75l-6.7,3.2l-17.1,-0.65l-0.05,0.05l0.05,0l9.55,4.1l0.5,0.3q3.45,2.05 7.7,2.65l3.95,0.2l10.45,-0.75l14.5,-5.2l3.5,-1.85l0.2,-1.75m-16.85,-3.05l-5.85,0.35l-3.25,-0.65l0.35,2.6l-0.95,0.45" /><path id="svg_148" stroke-width="0.05" stroke-linejoin="round" stroke-linecap="round" stroke="#b9b9b9" fill="none" d="m8.6,-62.8l-0.2,0.6" /></g><g id="shape6"><path id="svg_149" fill-rule="evenodd" fill="#2b4241" d="m12.75,1.35l-0.95,-0.3q-0.55,0 -0.95,0.3q-0.4,0.3 -0.4,0.75q0,0.45 0.4,0.75q0.4,0.3 0.95,0.3l0.95,-0.3q0.4,-0.3 0.4,-0.75q0,-0.45 -0.4,-0.75m-12.25,-0.65l-0.45,1.15q-0.2,0.5 0.65,0.5l1.45,-0.35q0.55,-0.35 0.55,-0.85q0,-0.5 -0.55,-0.85l-1,-0.3q-0.4,0 -0.65,0.7" /></g><g transform="matrix(1,0,0,1,0.5,0.5) " id="shape7"><path id="svg_150" stroke-linejoin="round" stroke-linecap="round" stroke="#5f4221" fill="none" d="m235.7,126.85l1.6,9.55q0.45,5.55 -1.7,10.5q-1.1,0.5 -2.15,1.1l0.15,5.95l-0.85,0.25l-0.4,0.55l-7.1,-0.1l-0.65,-2.45l-5.65,-1.2l-0.85,1l-2.3,-0.7l-3.6,0.6l-0.85,-0.45l-2.1,1.2l-2.3,0.3l-2.8,-1.35l-1.6,0l-0.75,-0.3l-1.5,0l-1.35,-1.45l-1.95,-1.05q-3.35,-0.1 -5.75,2.15l-0.2,0.2l-0.2,1.35l-3.8,-1.95l-6.15,-0.7l-4.9,0.4l-0.6,-0.3l-3.6,-0.35l-0.75,-2.05l-1.65,-2.7l-0.35,-1.95l-1.95,-5.45l-0.55,-0.9l1.9,-1.15l0.25,-2.15l-1.15,-4.55l-2.25,-1.7l-0.45,-4.2l-4,-8.45l-5.7,-4.55l-0.55,-3.05l-1.5,-4.7l-3.35,-3.45l0.2,-0.2l-0.15,-0.7l-0.3,-1.1l-0.65,-2.2l-1.85,-4.65l-0.95,-1.9l0.1,-0.55l-1.1,-1.25l-0.45,-1.05l-1.6,-2.15l-0.5,-0.3q-1.15,-0.7 -2.25,-0.95l-2,-0.25l-1.9,0.3l-1.25,0.5l-3.3,-2.4l4.75,-0.8q2.95,-0.55 4.1,-1.8l2.65,-4.45l2.3,-1.1l2.65,-3.35l0.3,-1.15l0,-0.05l0.4,0l3.6,-3.6l2.25,-5.15l-0.75,-1.6l2.15,-2.45l0.1,-0.15q-0.2,-4.8 -1.6,-9.15q-1.15,-3 -2.2,-4.55l-0.45,-0.55l-1.55,-1.55l0.8,-2.1l0.8,-3q1.3,-6.25 -0.35,-13l-1.15,1.6q-3,-4.25 -7.95,-6.15l-5.3,-1l-1.85,-1.35l-0.15,1.2l-8.35,-0.35l-3.15,1.15l-1.7,2.2q-2.6,-1.65 -7.15,-2.95l0.6,1.05q-7.3,-1.55 -14.45,-1.5q-4.65,0.15 -9.2,1.6l-0.65,0.2q-4.9,1.65 -10.6,4.15q-5,-3.4 -7.2,-8.1q1.35,-2.4 3.25,-2.9l-2.15,-9.05q0.65,3.35 0.55,7.25l-5.1,4.2q-0.6,9.6 5.75,13.8q-3.75,4.8 -7.8,7.65q-12.85,-2.2 -21.05,-11.5l-0.1,-0.7q-0.3,-3.85 0.45,-6.25q0.55,-4.8 5.4,-7.65q-4.3,1.9 -8.35,4.7q-1.15,2.55 -0.35,5.1l3.15,6.45l0.05,0.1q3.2,8.45 11.5,12.95l2.85,1.35l16.15,-1.05l2.35,-1.7l3.95,-3.85l0.15,-0.2l5.35,4.1l1.25,0.45l3.75,-1.35q2.7,-0.8 5.5,-1.05q6.45,-3.95 9.75,-4.85l9.2,6.65l-1.4,0.85l-1.05,0.6l-2.75,4.9l0.1,2.25l0.85,1.8l-13.45,1.9l-5.95,2.5l-5.95,-0.7l-11.15,-2.65l-4.05,0.2l10.8,5.05l12.75,-0.35l8.15,-2.35l3.3,-0.05q-1.65,3.15 -1.15,5.15l1.4,-0.65q-0.35,2.8 0.2,5.5l-3.75,-1.25l-14.85,-0.1l-9.2,2.25l13.3,-0.55l15.15,3l0,0.05l-0.2,-0.05l0.35,2.6l-7.65,3.65l-17.1,-0.65l-0.05,0.05l0.1,0.05q-5.05,2.35 -8.65,6.15q-6.7,-1.4 -12.3,-1.25l0.05,0.05q5.05,0.6 10.25,2.4q1.55,0.5 3.15,1.15l0.15,0.05l0.95,0.4q7.8,-3.15 16.45,-4.6q3.4,2.05 7.65,2.65l0.15,0l-2.95,3.5l-0.5,2.1l-2.65,0.75l-1.35,2.35l-1.05,-0.05l-2.7,1.85l-0.55,-0.75l-1.05,0.5l-1,-0.5l-0.45,0.3l-1.35,-1.5l-1.65,0.95l-1.55,-1.8l-4.45,-0.15l-0.25,0.65l-2.1,-0.4l-1.65,-1.25l-4.5,3.85l-0.85,-0.2l-3.6,2.55l-2,2.9l-2.1,-1l-6,3.6l-3.6,5.25l-0.35,0.25l1.8,-0.25l4.55,-1.5l4.3,0.5l2.5,-1.7l0.85,-4.55l0,-0.05l1.15,-1.85l0.75,-0.95l0.15,0.05l4.05,-1.9l3.7,-0.7l2.2,0.6l1.6,-1.55l4.2,1.9l3.15,-0.15l1.95,0.95l1.65,-0.3l1.3,0.35l0.7,0.6l1.05,-0.45l2.45,-0.15l0.8,-1l2.55,0l0.9,-1.1l-0.1,-1.05l2.2,0.4l1.55,-2.3l1.35,0.55l0.6,-0.65l3.05,-0.85l0.75,-2.25l1.95,-0.05l1.05,-1.75l5.3,-1.65q1.45,1.55 0.25,4.1l-1,1.7l-1.45,1q-2.65,-0.45 -5.9,0l-1.9,1.05q-3.5,3.5 -5.45,7.25l0.35,4.5q-3.7,6.25 -5.25,12.75l0.25,3.55q-1.8,1.25 -3.75,3.95q-2.95,10.55 -4.75,20.2l0.3,1.9l-0.2,0.3q-1.1,1.4 -1.75,3.2l-10.65,-1.25l-5,-2.75l-1.8,0.15l-5.35,2.75l-5.8,-1.05l-4.45,-2.65l-3.6,1.55l-2.9,-2.3l-1.2,0.4l-3,-1.1l-3.65,1.1l-2.05,-2.9l-1.8,0l-0.05,0.1l-1.9,-1.4l-2.5,0.45l-0.9,0.8l-2.3,-1.8l-4.9,0.65l-1.1,2.3l-0.25,3.85l2.85,5.9l5.35,-0.1l5.15,-2.6l1.55,1.7l2.75,-0.7l1.7,-0.9l2.6,-0.25l0.9,-0.75l4.45,1.35l4,2.6l4.2,-1.05l0.05,0l0.05,0.15l5.8,2.75l8.45,-1.05l11.45,1.5l3.3,-0.8l0.05,1.4l-3.2,0.45q-2.85,0.4 -5.5,1.15l-0.05,0l-1.25,0.35l-0.05,0l-0.05,0l-2.7,0.9q-3.75,1.35 -7,3.3q-3.75,3.5 -6.5,7.85l-6.5,0.25l-0.4,1.85l-3.9,0.55l-0.65,1.25l-1.65,0.55l-2.9,-2.3q-7.55,-2.1 -15.25,-1.6l-15.35,3.25l8.05,-0.7q-8.1,3 -14.95,8.05l5.55,-1.8q-6.95,5.2 -10.6,12.65q-3.75,9.1 -3.7,18.05q-0.05,8.3 5.85,14.5l17.75,2.35l0.1,0l5.25,1.8q5.2,2.65 12.9,1.5q5.1,-1.4 8.65,-3.55l11.95,-12.4l-6.25,4.2l3.55,-8.1l1.55,-5.15l1.45,0.4q2.35,1.95 4.35,5.85l0.2,0.4l0.1,0.15q1.75,3.55 3.25,8.65q-2.5,7.85 -6.25,15.25l-3.15,1.2l-0.45,1.9q-0.3,4.65 2.55,7.9l4.05,-0.3l5.95,3l1.95,4.2l0.75,-1.8l4.15,2.85q1.95,4.7 3,9.8q1.45,-1.65 2.85,-1l2.15,0.25l0.8,0.65l0.1,0.05l1.85,4.5l0.7,-0.05l0.3,-0.4l0.05,5.4l10,4.15l7.45,-0.25l3.3,-2.4l-1.05,-6.3l-9.85,-6.85l-1.15,-2.05l0.05,-0.9l3.5,0.9l-3.6,-3l-0.15,-1.3q-4.85,-4.35 -9.55,-6.4l-0.05,0l-1.5,0.2l-0.05,-0.1l-0.6,-4.3q-6.2,-4.1 -12.55,-6.45l0,-2.7l0.75,-1.25q2.9,0.4 7.75,-1.55q9.2,-6.9 14.2,-12.7l0.3,7.35l-4.05,6.7q-0.45,3.6 1.05,6.25l3.25,0.7l5.4,5.6l-0.3,1.35l1.8,0.6l2.25,8.5l0.6,-1.35l0.3,2.35l3.25,-3.1l2.25,0.75l0.3,3.1l5.2,2.25l0.3,5.5l11.3,3l8.35,-2.4l-1.75,-6.1l-12.25,-7.25l-0.75,-2l-2.4,-0.15q-2.95,-4.05 -6.55,-5.95q-1.75,-5 -4.65,-8.75l-2.2,-2.45q0.15,-3.85 1.35,-4.65q5.25,-4.7 12.1,-12.7l6.85,-14.65q5.55,0 9.65,-1.25l3,1.9q7.5,5.1 13.25,10.55l1.95,3.35l-0.05,0.05q-3.85,5.35 -9,10.05l-0.2,1.8l-3.55,0.9l0,-2.1l-4.35,-1.2q-3.95,0.3 -7.95,2.1q-3.75,6 -5.3,11.35l0.75,1.2l4.35,0.9l2.1,-1.35l6.85,-0.6l0.45,-0.6l1.95,1.2l0.45,1.35l3.85,0.15l3.45,-2.55l0.35,-0.45l0,-0.05l0.8,-1.75l0.05,-0.15l-0.1,-0.65l5.6,-8.45q4.25,-4.8 10,-8.2l2.75,0.15l1.55,8.05l-0.4,4.9l-1.8,0.65q1,1.95 0.25,4.8l-2.9,3.8l2,-1l-2.7,6.9l1.65,6.55l5.8,4.45l6.75,-5.9l0.3,-4.1l-2.15,-7.85l1.85,-2.85l-2.3,-8.65q1,-6.3 0.9,-13.1l1.25,-1.45l1.15,-0.45q1.2,-3.05 1.45,-6.25l-5.25,-4.4l-0.15,-5.55q-1.75,-10.35 -4.35,-17.6l1.2,-8.5l-1.25,-9.4l4.3,-0.45l5.95,2.8l6.1,1.2l1,2.55l5.95,-0.6l3.3,1.8l3.1,-0.45l4.2,-1.4l2.1,2.6l4.75,-0.8l0.05,0l-0.05,-0.05l0.05,0.05l4.45,2l2.65,-1.05l1.05,-1.2l0.15,0.15l5.85,0.85l-0.9,3.05l0,0.15l-2.15,-0.05q-1.45,0.8 -2.45,2.5l0.6,2.35l-2.5,2.3l-0.1,0.85q-0.05,1 0.4,1.5l-3.2,2.25q-0.5,1.2 0.5,2.75l-6.3,7.15l-3.9,1.4l-0.5,3.4l1.9,2.35l11.8,-0.15l5.9,-1.55l0.3,-0.2l4.6,1.25l6.15,-1.5l0.4,-0.95l5.1,-2.25l1.85,-2.55l-0.1,-0.45l1.45,-3.15l0,-0.3l6.5,-4.15l1.95,0.85l6.6,-4.2q1.15,-2.05 1.9,-4.2q1.15,-3.5 1.3,-7.3l-1.3,-4.1l0.5,-4.55l-0.5,-1.1l0.25,-6.6q-0.35,-6.1 -2.55,-8.1q-0.95,-1.15 -2.05,-0.65l-3.9,3.75q-0.5,-4.9 -2.3,-8.2l-1.85,-0.65l-1.95,1.95l-0.05,-0.2q-2.9,-5.65 -7.15,-9.35q-3.1,-1.9 -6.55,-2.2q-1.55,0.6 -1.1,2.65m-107.35,-103.9l0.7,0.8q1.65,3.8 2.4,8.2l0.05,0.4l3.8,-0.35l-1.9,-1.35l3.85,0.25l2.7,0.7q-0.5,-3 -1.85,-6.55l-0.35,-0.9l0.05,-0.1q-2.35,-2.25 -5.15,-2.95l-2.9,0.3q-0.95,0.55 -1.4,1.55m-39.9,1.5l-0.6,1l2.55,2.15l2.65,-0.15l5.9,-3.35q-5.05,-0.2 -8.9,0.2l-1.6,0.15m42.85,55.35l-2.4,0l-2.1,-1.4m-89.65,110.9q6.35,-4.8 10.85,-10.7q1.6,-3.25 0.8,-6l4.55,-0.25l0.5,1l3.35,-1.3q-1.35,4.25 -2.05,9.1l0.75,6.25q-2.85,2.8 -5.4,6.25l-4.45,2.7l-4.75,0.15q-4.4,-1.6 -4.15,-7.15l0,-0.05m19.6,-0.85l0.6,0.75l-3.25,2.55l2.65,-3.3m65.8,-61.25l-3.6,6.45q-4.7,1.5 -9.85,5.3q-1.75,-2.05 -3.75,-2.75l-0.25,-2.15l3.05,-12.5l-0.35,-4.3l3,-2.3l1.2,-2.2l4.85,7.95l3.2,1.85l1.5,0.35l1,4.3" /></g><g transform="matrix(1,0,0,1,41.15,0.45) " id="shape8"><path id="svg_151" stroke-width="3" stroke-linejoin="round" stroke-linecap="round" stroke="#634521" fill="none" d="m-19.45,9.05l1.4,-7.65m-5.25,4.5l3.5,-4.85" /><path id="svg_152" stroke-width="3" stroke-linejoin="round" stroke-linecap="round" stroke="#322010" fill="none" d="m-20.85,29.55l0.35,-11.8m-19.15,10.75l6,-8.35" /></g><g transform="matrix(1,0,0,1,1,0.5) " id="shape9"><path id="svg_153" fill-rule="evenodd" fill="#264d4d" d="m17.25,30.75l-0.8,-0.6q-1.3,-1.15 -1.7,-2.45l-0.15,-1.15q-0.05,-1.45 1,-2.7l0.7,-0.75l1.95,-1.4l0.1,-0.05l0.4,-0.25l2.75,-1.25q6.6,-2.5 15.85,-2.6l0.75,0l10.35,0.9q3.4,0.6 6.3,1.7q1.25,0.5 2.35,1.05l-1.6,2.8l-0.15,-0.25q-0.95,-1.45 -4.85,-2.55l-2.15,-0.55q-4.4,-1 -10.2,-1l-0.8,0l-6.65,0.5l-2.6,0.45l-2.4,0.6l-1.75,0.55l1.75,-0.55l2.4,-0.6l0,4.1q-3.35,0.7 -2.95,3.4l0.15,0.05l0.4,0.1l2.55,0.65l-2.9,2.8l0,2.4l-0.2,0l0.2,0.05l0.85,0.2l1.85,0.35l0.7,0.15l5.25,0.55l0.35,0l0.25,0l3.15,0.05l2.6,-0.05l1.65,-0.1l1.6,-0.1l6.6,-1.1l0.2,-0.05l4,-1.25l4.5,-1.95l0,0.65l0,0.2l0,1.5q-1.6,1.1 -4.15,2.05l-1.1,0.4l-2.9,0.85l-0.2,0.05l-6.6,1.1l-1.6,0.1l-4.25,0.15l-3.15,-0.05l-0.5,0l-0.1,0l-5.25,-0.55l-0.7,-0.15l-0.3,-0.1l0.15,0.05l-0.85,-0.15l-0.85,-0.15l-1.05,-0.25l-0.15,-0.05l-1.8,-0.5l-0.3,-0.1l-1.75,-0.65l-0.3,-0.1q-4.85,-1.85 -2.85,-3.7l-0.05,-0.05l-0.25,-0.1l-0.65,-0.4l-0.15,-0.15m7.9,-2.65l-2.15,-0.85l0.5,0.25l1.65,0.6l-1.65,-0.6l-0.5,-0.25l2.15,0.85" /><path id="svg_154" fill-rule="evenodd" fill="#d38449" d="m27.4,36.95l0.85,0.15l0.15,0.05l-1,-0.2m25.75,-10.15l1.95,-2.1l-2.65,4.6l-13.55,3.75l-0.3,0.25l1.75,2.1l-2.6,0.05l-3.15,-0.05l-0.25,0l-0.1,-2.55l0.9,-3.15l3,0.05q5.95,0 10.35,-1l2,-0.5l1.45,-0.6l1.2,-0.85" /><path id="svg_155" fill-rule="evenodd" fill="#b85e2e" d="m55.1,24.7l-1.95,2.1l-4.8,-1.7l0,-4.45l2.15,0.55q3.9,1.1 4.85,2.55l0.15,0.25l0,0.1l-0.4,0.6" /><path id="svg_156" fill-rule="evenodd" fill-opacity="0.862745" fill="#3a7575" d="m57.1,21.2l1.8,1.05l1.75,1.6q1,1.25 1,2.7l-0.2,1.2l-0.45,1l-1.25,1.45l-0.85,0.65l-4.5,1.95l-4,1.25l-0.2,0.05l-6.6,1.1l-1.6,0.1l-1.65,0.1l-1.75,-2.1l0.3,-0.25l13.55,-3.75l2.65,-4.6l0.4,-0.6l0,-0.1l1.6,-2.8" /><path id="svg_157" fill-rule="evenodd" fill-opacity="0.701961" fill="#157099" d="m58.9,31.5q2.65,1.9 5.1,4.35q11,11 11,26.55q0,5.7 -1.45,10.8q-1.5,2.9 -3.55,5.55l-1.2,1.45q-2.3,2.45 -6.45,4.55q-2.85,1.4 -6.05,2.4q-7.25,2.2 -16.35,2.25l-8.9,-0.6q-3.7,-0.55 -9.75,-2.55l-2.15,-0.75l-1.65,-0.75l-1.6,-0.85l-0.6,-0.8l0.9,2.3q1,2.4 -5.6,-3.85q-5.1,-4.85 -5.7,-15.75q-1.85,-16.5 16.2,-24.5l8.9,2.8l11.45,-0.5q8.25,-4.55 12.2,-7.95l1.1,-0.4q2.55,-0.95 4.15,-2.05l0,-1.5l0,-0.2" /><path id="svg_158" fill-rule="evenodd" fill="#cd6832" d="m18.05,31.3l0.25,0.1l0.05,0.05l-0.3,-0.15m30.3,-10.65l0,4.45l-1.3,-0.45l-5.9,-0.9l-3.8,0l0,-4.1l0.8,0q5.8,0 10.2,1" /><path id="svg_159" fill-rule="evenodd" fill="#af6229" d="m53.15,26.8l-1.2,0.85l-1.45,0.6l-2,0.5q-4.4,1 -10.35,1l-3,-0.05l-6.9,-0.8l-2.55,-0.65l-0.4,-0.1l-0.15,-0.05q-0.4,-2.7 2.95,-3.4l2.6,-0.45l6.65,-0.5l3.8,0l5.9,0.9l1.3,0.45l4.8,1.7" /><path id="svg_160" fill-rule="evenodd" fill="#c97130" d="m35.15,29.7l-0.9,3.15l0.1,2.55l-0.35,0l-5.25,-0.55l-0.7,-0.15l-1.85,-0.35l-0.85,-0.2l0,-0.05l0,-2.4l2.9,-2.8l6.9,0.8m2.2,-10.05l0,4.1l-6.65,0.5l0,-4.1l6.65,-0.5" /><path id="svg_161" fill-rule="evenodd" fill="#336666" d="m73.55,73.2q-1.85,6.3 -6,11.7l-1.2,1.45q-2.3,2.45 -6.45,4.55q-2.85,1.4 -6.05,2.4q-7.25,2.2 -16.35,2.25l-8.9,-0.6q-3.7,-0.55 -9.75,-2.55l-2.15,-0.75l-1.65,-0.75q-4.1,-2.05 -6.4,-4.5l-1.25,-1.6l-0.15,-0.2l-0.05,-0.05l-0.25,-0.35q-6.95,-9.45 -6.95,-21.8q0,-9.35 3.95,-17.05q2.65,-5.1 7,-9.5l0.4,-0.35q2.8,-2.75 5.9,-4.75l0.15,0.15l0.65,0.4l0.3,0.15q-2,1.85 2.85,3.7l0.3,0.1l1.75,0.65l0.3,0.1l1.8,0.5l0.15,0.05l1.05,0.25l0.85,0.15l1,0.2l0.7,0.15l5.25,0.55l0.1,0l0.5,0l3.15,0.05l4.25,-0.15l1.6,-0.1l6.6,-1.1l0.2,-0.05l2.9,-0.85q-3.95,3.4 -12.2,7.95l-11.45,0.5l-8.9,-2.8q-18.05,8 -16.2,24.5q0.6,10.9 5.7,15.75q6.6,6.25 5.6,3.85l-0.9,-2.3l0.6,0.8l1.6,0.85l1.65,0.75l2.15,0.75q6.05,2 9.75,2.55l8.9,0.6q9.1,-0.05 16.35,-2.25q3.2,-1 6.05,-2.4q4.15,-2.1 6.45,-4.55l1.2,-1.45q2.05,-2.65 3.55,-5.55" /><path id="svg_162" fill-rule="evenodd" fill="#d37d50" d="m30.7,24.25l-2.6,0.45l0,-4.1l2.6,-0.45l0,4.1" /><path id="svg_163" fill-rule="evenodd" fill="#bc5630" d="m25.35,34.15l-0.2,-0.05l0.2,0l0,0.05" /><path id="svg_164" fill-rule="evenodd" fill="#c9722e" d="m28.25,37.1l-0.15,-0.05l0.3,0.1l-0.15,-0.05l0.15,0.05l-0.15,-0.05" /><path id="svg_165" stroke-opacity="0.65098" stroke-linejoin="round" stroke-linecap="round" stroke="#82461e" fill="none" d="m17.25,30.75l-0.8,-0.6q-1.3,-1.15 -1.7,-2.45l-0.15,-1.15q-0.05,-1.45 1,-2.7l0.7,-0.75l1.95,-1.4l0.1,-0.05l0.4,-0.25l2.75,-1.25q6.6,-2.5 15.85,-2.6l0.75,0l10.35,0.9q3.4,0.6 6.3,1.7q1.25,0.5 2.35,1.05l1.8,1.05l1.75,1.6q1,1.25 1,2.7l-0.2,1.2l-0.45,1m-1.25,1.45l-0.85,0.65l0,0.65m-41.65,-0.75l0.15,0.15l0.65,0.4m0.3,0.15q-2,1.85 2.85,3.7l0.3,0.1l1.75,0.65l0.3,0.1l1.8,0.5l0.15,0.05l1.05,0.25l0.85,0.15l0.85,0.15l-0.15,-0.05l0.3,0.1l0.7,0.15l5.25,0.55l0.1,0l0.5,0l3.15,0.05l4.25,-0.15l1.6,-0.1l6.6,-1.1l0.2,-0.05l2.9,-0.85l1.1,-0.4q2.55,-0.95 4.15,-2.05l0,-1.5m-3.8,-7l-1.95,2.1l-1.2,0.85l-1.45,0.6l-2,0.5q-4.4,1 -10.35,1l-3,-0.05m20.35,-5.7l-0.15,-0.25q-0.95,-1.45 -4.85,-2.55l-2.15,-0.55q-4.4,-1 -10.2,-1l-0.8,0l-6.65,0.5m17.65,4.95l4.8,1.7m-15.8,-3.05l3.8,0l5.9,0.9l1.3,0.45m-11,-1.35l-6.65,0.5l-2.6,0.45m-2.95,3.4l0.15,0.05l0.4,0.1l2.55,0.65l6.9,0.8m-7.05,-9.1l2.6,-0.45m-2.6,0.45l-2.4,0.6l-1.75,0.55m1.2,6.35l-1.65,-0.6l-0.5,-0.25l2.15,0.85m-6.8,3.35l-0.3,-0.15m10.35,5.85l-0.15,-0.05" /><path id="svg_166" stroke-width="2" stroke-opacity="0.65098" stroke-linejoin="round" stroke-linecap="round" stroke="#82461e" fill="none" d="m58.9,31.5q2.65,1.9 5.1,4.35q11,11 11,26.55q0,5.7 -1.45,10.8q-1.85,6.3 -6,11.7l-1.2,1.45q-2.3,2.45 -6.45,4.55q-2.85,1.4 -6.05,2.4q-7.25,2.2 -16.35,2.25l-8.9,-0.6q-3.7,-0.55 -9.75,-2.55l-2.15,-0.75l-1.65,-0.75q-4.1,-2.05 -6.4,-4.5l-1.25,-1.6l-0.15,-0.2l-0.05,-0.05l-0.25,-0.35q-6.95,-9.45 -6.95,-21.8q0,-9.35 3.95,-17.05q2.65,-5.1 7,-9.5l0.4,-0.35" /><path id="svg_167" fill-rule="evenodd" fill="#6da3a2" d="m50.4,61.4q-7,0 -13.9,4.4q-15.5,9.85 -25.35,2.3q0.55,-8.05 20.85,-7.45l18.4,0.75" /><path id="svg_168" fill-rule="evenodd" fill="#406464" d="m11.15,68.1q9.85,7.55 25.35,-2.3q6.9,-4.4 13.9,-4.4l4.4,0.45q3,0.6 5.75,1.8q3.85,1.7 7.3,4.45q-0.55,8.4 -5.55,14.9l-0.95,1.15l-0.4,0.4q-26.6,6.7 -42.95,0l-0.35,-0.35l-0.95,-1.25l-0.15,-0.2l-0.2,-0.25q-4.65,-6.35 -5.2,-14.4" /><path id="svg_169" fill-rule="evenodd" fill="#2b4241" d="m18,84.55q16.35,6.7 42.95,0q-1.7,1.6 -4.45,3q-7.05,3.5 -17,3.55l-6.75,-0.45q-2.8,-0.4 -7.4,-1.95l-1.6,-0.55l-1.25,-0.6q-2.8,-1.4 -4.5,-3" /><path id="svg_170" fill-rule="evenodd" fill="#db8a04" d="m31.25,12.6l-6.2,-1.45q-5.6,-1.95 -5.6,-4.65q0,-1.25 1.25,-2.35q3.1,-1 6.8,-1.15l-1.2,-1.5l3.15,-0.75l3,-0.45l6.05,-0.3q5.6,-0.05 10.1,0.95l-5,3.1l8.35,-1.6l1.3,-0.15q3.55,1.5 4.2,3.4l-0.3,2.3q-1.15,1.75 -5.15,3.15l-2.45,0.7l-2.45,-0.55l-4.9,1.25l0.8,0.3l-1.9,0.15l-0.65,0l-1.25,0.05l-0.1,0l-0.25,0l0.05,-0.1l-2.8,-0.4l-2.4,0.05l0.45,0.3l-1.2,-0.1l-1.7,-0.2" /><path id="svg_171" fill-rule="evenodd" fill="#b87403" d="m32.7,28.1l-1.45,-15.5l1.7,0.2l1.2,0.1l2.55,0.7l1.85,-0.4l-0.05,-0.15l0.35,0l0.25,0l0.1,0l1.25,-0.05l0.65,0l1.55,15.25l-4.15,0.15l-1.15,0l-4.55,-0.3l-0.1,0" /><path id="svg_172" fill-rule="evenodd" fill="#945e03" d="m19.45,6.5q0,2.7 5.6,4.65l6.2,1.45l1.45,15.5q-3.35,-0.45 -6.05,-1.4q-2.5,-0.85 -3.75,-1.9l-0.35,-0.35l-0.85,-4.55l0.65,-0.15l-0.9,-1.1l-0.45,-2.4q1.2,-0.55 1.8,-1.6l-0.1,-0.3q-0.95,-0.5 -2.1,-0.6l-1.35,-7.2l0.2,-0.05m32.5,-4.05l-8.35,1.6l5,-3.1l0.8,0.2l-0.1,0.05l-0.1,0.4q1.2,0.8 2.75,0.85" /><path id="svg_173" fill-rule="evenodd" fill="#c47b04" d="m41.1,13l1.9,-0.15l3.8,1.4l-0.05,0.9l-0.85,12.7l-1.15,0.2l-2.1,0.2l-1.55,-15.25" /><path id="svg_174" fill-rule="evenodd" fill="#ab6b03" d="m49.55,11.85l2.45,-0.7q4,-1.4 5.15,-3.15l-1.05,7.2l-1.7,0.4q0.9,0.2 1.5,0.65l-0.35,2.65l-1.15,0.35l1.1,0.4l-0.65,4.4l-1.15,1.1q-1.2,0.85 -3.3,1.55l-4.5,1.15l0.85,-12.7l0.05,-0.9l0.65,0.25l3.6,-2.3l-1.5,-0.35" /><path id="svg_175" fill-rule="evenodd" fill="#5e3402" d="m22.55,24.45l0.35,0.35l-0.3,0.05l-0.05,-0.4" /><path id="svg_176" fill-rule="evenodd" fill="#fcc787" d="m34.15,12.9l-0.45,-0.3l2.4,-0.05l2.8,0.4l-0.05,0.1l-0.35,0l0.05,0.15l-1.85,0.4l-2.55,-0.7m8.85,-0.05l-0.8,-0.3l4.9,-1.25l2.45,0.55l1.5,0.35l-3.6,2.3l-0.65,-0.25l-3.8,-1.4" /><path id="svg_177" fill-rule="evenodd" fill-opacity="0.85098" fill="#5e3201" d="m22.9,24.8q1.25,1.05 3.75,1.9q2.7,0.95 6.05,1.4l0.1,0l2.45,14.4l-4.15,0l0,-0.5l-5.7,-2.45l-2.8,-14.7l0.3,-0.05" /><path id="svg_178" fill-rule="evenodd" fill-opacity="0.882353" fill="#874802" d="m45.9,27.85l4.5,-1.15l3.2,0.15l-0.3,5.4l-2.55,8.6l-8.8,1.65l-6.7,0l-2.45,-14.4l4.55,0.3l1.15,0l4.15,-0.15l2.1,-0.2l1.15,-0.2" /><path id="svg_179" stroke-linejoin="round" stroke-linecap="round" stroke="#663300" fill="none" d="m19.45,6.5l-0.2,0.05l1.35,7.2q1.15,0.1 2.1,0.6l0.1,0.3q-0.6,1.05 -1.8,1.6l0.45,2.4l0.9,1.1l-0.65,0.15l0.85,4.55m34.6,-16.45l0.3,-2.3q-0.65,-1.9 -4.2,-3.4l-1.3,0.15m-3.35,-1.5q-4.5,-1 -10.1,-0.95l-6.05,0.3l-3,0.45l-3.15,0.75l1.2,1.5q-3.7,0.15 -6.8,1.15q-1.25,1.1 -1.25,2.35m29.15,-5.55l0.8,0.2l-0.1,0.05l-0.1,0.4q1.2,0.8 2.75,0.85m-1.55,24.25q2.1,-0.7 3.3,-1.55l1.15,-1.1l0.65,-4.4l-1.1,-0.4l1.15,-0.35l0.35,-2.65q-0.6,-0.45 -1.5,-0.65l1.7,-0.4l1.05,-7.2m-14.5,20.25l2.1,-0.2l1.15,-0.2" /><path id="svg_180" fill-rule="evenodd" fill-opacity="0.282353" fill="#7eabab" d="m68.7,54.2q1.05,5.8 -0.55,9.9q-1.6,4.1 -5,4.1q-3.35,0 -6.5,-4.1q-3.15,-4.1 -4.2,-9.9q-1.1,-5.8 0.55,-9.9q1.6,-4.1 4.95,-4.1q3.4,0 6.55,4.1q3.1,4.1 4.2,9.9" /><path id="svg_181" fill-rule="evenodd" fill="#fff0ab" d="m66.5,50.4q0.2,1.1 -0.1,1.9q-0.35,0.8 -1,0.8q-0.65,0 -1.25,-0.8q-0.65,-0.8 -0.85,-1.9q-0.2,-1.15 0.15,-1.95q0.3,-0.8 0.95,-0.8q0.65,0 1.25,0.8q0.6,0.8 0.85,1.95" /><path id="svg_182" fill-rule="evenodd" fill="#ffffcc" d="m58.45,28.6q-0.65,0 -1.25,-0.45q-0.65,-0.45 -0.85,-1.05q-0.2,-0.65 0.15,-1.1q0.3,-0.45 0.95,-0.45q0.65,0 1.25,0.45q0.6,0.45 0.85,1.1q0.2,0.6 -0.1,1.05q-0.35,0.45 -1,0.45" /><path id="svg_183" stroke-linejoin="round" stroke-linecap="round" stroke="#ffcc00" fill="none" d="m57.15,28.55l-3.2,1.8m-6.55,2l-4.25,0.65l-1.5,0.1l-3.95,0.15l-0.4,0l-2.6,-0.05l-0.55,0l-4.9,-0.55l-0.05,0" /><path id="svg_184" stroke-linejoin="round" stroke-linecap="round" stroke="#ffffcc" fill="none" d="m53.95,30.35l-0.65,0.25l-3.8,1.25l-0.15,0.05l-1.95,0.45" /><path id="svg_185" stroke-linejoin="round" stroke-linecap="round" stroke="#ff6600" fill="none" d="m29.2,32.65l-0.4,-0.1l-0.35,-0.1l-0.8,-0.15" /><path id="svg_186" stroke-linejoin="round" stroke-linecap="round" stroke="#457d9a" fill="none" d="m26.85,32.15l-0.95,-0.25l-1.85,-0.55l-1.95,-0.75l-0.25,-0.1l-1.1,-0.5" /><path id="svg_187" stroke-width="2" stroke-opacity="0.65098" stroke-linejoin="round" stroke-linecap="round" stroke="#82461e" fill="none" d="m11.35,35.5q2.8,-2.75 5.9,-4.75" /><path id="svg_188" fill-rule="evenodd" fill="#34504f" d="m53.9,81.95q-4,2.15 -7.35,1.95q-3.4,-0.25 -4.2,-2.7q-0.8,-2.45 1.5,-5.75q2.25,-3.25 6.25,-5.4q4,-2.15 7.4,-1.9q3.35,0.2 4.15,2.65q0.8,2.5 -1.45,5.75q-2.3,3.25 -6.3,5.4" /></g><g transform="matrix(1,0,0,1,100.4,91.55) " id="shape10"><path id="svg_189" fill-rule="evenodd" fill="#787370" d="m-44.7,-79.65l-15.5,10l1.45,-1.15l-1.7,-2.1l5.9,-1.95l9.85,-4.8" /><path id="svg_190" fill-rule="evenodd" fill="#d8cabe" d="m-18.5,-90.25l-1.95,4.25l-15.55,4.85l-5.05,-0.3l1.5,-0.75q5.05,-3.15 6.65,-6.35l12.45,-1.35l1.95,-0.35m-51.2,28.15l10.9,-1.95l-6.95,6.45l-32.55,8q13.95,-6 27.85,-11.95l0.75,-0.55" /><path id="svg_191" fill-rule="evenodd" fill="#f3f1e4" d="m-10.6,-88.95l-3.4,0.65l-5.3,4.4l-22.8,16l-17.7,8.8q-3.55,1.65 -6.9,2.9q-7.55,2.75 -14.35,3.6l-0.95,0.1l-18.25,3.75l0.15,-0.1l0.75,-0.3q0.5,-0.25 1.05,-0.45l32.55,-8l6.95,-6.45l-10.9,1.95l9.5,-7.55l15.5,-10l3.65,-1.8l5.05,0.3l15.55,-4.85l1.95,-4.25l3.5,-0.6l0.2,-0.05l0.7,-0.1l3.5,2.05" /><path id="svg_192" stroke-width="0.05" stroke-opacity="0.25098" stroke-linejoin="round" stroke-linecap="round" stroke="#111a1f" fill="none" d="m-99.35,-49.15l-0.75,0.3l-0.15,0.1l18.25,-3.75l0.95,-0.1q6.8,-0.85 14.35,-3.6q3.35,-1.25 6.9,-2.9l17.7,-8.8l22.8,-16l5.3,-4.4l3.4,-0.65m-3.5,-2.05l-0.7,0.1l-0.2,0.05l-3.5,0.6l-1.95,0.35l-12.45,1.35q-1.6,3.2 -6.65,6.35l-1.5,0.75l-3.65,1.8l-15.5,10l-9.5,7.55l-0.75,0.55q-13.9,5.95 -27.85,11.95m53.6,-30.05l-9.85,4.8l-5.9,1.95l1.7,2.1l-1.45,1.15" /><path id="svg_193" fill-rule="evenodd" fill="#ece4e1" d="m-80.65,57.85l3.4,-3.7l0.15,-0.2q2.55,-2.55 5.35,-4.6l-7.15,8.95l12.1,-9.7l4.75,-1.95l6.85,-0.3l7.5,2.7l-7.2,-1.65l-7.9,1.05l5.1,1.3l4.9,2.1l1.05,2.25l-2.4,5.8l-1,0.4l-0.2,-0.55l1.35,-5.05l-5.7,-3.4l-2.9,-0.15q-2.65,0.15 -4.65,1.5q-1.05,0.65 -1.95,1.6l-2.8,9.5l-8.65,4.65l0,-10.55m0,12.2l0.95,-0.1l-0.95,1.6l0,-1.5" /><path id="svg_194" stroke-width="0.05" stroke-opacity="0.25098" stroke-linejoin="round" stroke-linecap="round" stroke="#111a1f" fill="none" d="m-80.65,57.85l3.4,-3.7l0.15,-0.2q2.55,-2.55 5.35,-4.6l-7.15,8.95l12.1,-9.7l4.75,-1.95l6.85,-0.3l7.5,2.7l-7.2,-1.65l-7.9,1.05l5.1,1.3l4.9,2.1l1.05,2.25l-2.4,5.8l-1,0.4m-0.2,-0.55l1.35,-5.05l-5.7,-3.4l-2.9,-0.15q-2.65,0.15 -4.65,1.5q-1.05,0.65 -1.95,1.6l-2.8,9.5" /><path id="svg_195" stroke-linejoin="round" stroke-linecap="round" stroke="#5f4221" fill="none" d="m-14.65,-90.9l-3.5,0.6l-1.95,0.35l-12.45,1.35q-1.6,3.2 -6.65,6.35l-15,7.35l-5.9,1.95l1.7,2.1l-11.7,9.25l-29.65,12.7l-0.15,0.1l18.25,-3.75l0.95,-0.1q6.8,-0.85 14.35,-3.6q3.35,-1.25 6.9,-2.9l17.7,-8.8l22.8,-16l5.3,-4.4l3.4,-0.65l-3.5,-2.05l-0.7,0.1l-0.2,0.05z" /><path id="svg_196" stroke-width="2" stroke-linejoin="round" stroke-linecap="round" stroke="#345b69" fill="none" d="m19.9,-75.55l-4.15,3.2l1,3.55l3.15,-3.75m0,-1.05l-3,2" /><path id="svg_197" stroke-width="2" stroke-linejoin="round" stroke-linecap="round" stroke="#26454d" fill="none" d="m23.25,-78.15l-3.35,2.6m0,3l2,-2.4l-2,1.35" /></g><g transform="matrix(1,0,0,1,7.9,1.95) " id="shape11"><path id="svg_198" fill-rule="evenodd" fill="#7cb1be" d="m10.2,14.4l0.45,-1.4l0.1,1.4l-0.55,0" /><path id="svg_199" fill-rule="evenodd" fill="#3c6979" d="m9.6,23.55q0.45,1.65 -3.45,1.15l1.45,-0.35q0.45,-0.35 0.6,-1.2q0.2,-0.95 -3.1,-5.2l2.15,2.65q2.05,1.9 2.35,2.95" /><path id="svg_200" fill-rule="evenodd" fill="#3f757c" d="m10.65,13l0.45,0.5l-0.05,0.85q1.35,4.95 2.55,6.5l-1.8,-2.2l-0.7,-1.15l-0.2,-1.45l-0.15,-1.65l-0.1,-1.4" /><path id="svg_201" fill-rule="evenodd" fill="#cde0e7" d="m3.1,16.8l1.65,-1.35l0.05,-0.1l4.45,1.95l-0.95,-2.8l1.9,-0.1l0.55,0l0.15,1.65l0.2,1.45l0.7,1.15l1.8,2.2l0.35,0.55l0,0.05q0.95,1.9 -2.5,3.35l-0.75,0.15l-1.1,-1.4q-0.3,-1.05 -2.35,-2.95l-2.15,-2.65l-2,-1.15m8.3,4.75l0.65,0.4l-0.65,-0.4" /><path id="svg_202" fill-rule="evenodd" fill="#5494ab" d="m3.1,16.8l-2,-1.5l-0.15,-3.75l-8.85,-7.75l6.7,2.1l-2.05,-7.85l7.6,5.65q0.8,3.25 1,-1.95q-1.55,-4.8 0.05,-2.35l0,-0.6q4.55,3.95 5.05,9.9l0.1,0.15q1.25,1.7 0.25,3.7l0,0.05l-0.15,0.4l-0.45,1.4l-1.9,0.1l0.95,2.8l-4.45,-1.95l-0.05,0.1l-1.65,1.35m3.35,-3.7q0.1,-0.2 1.7,1q-1.6,-1.2 -1.7,-1" /><path id="svg_203" stroke-width="0.05" stroke-linejoin="round" stroke-linecap="round" stroke="#666666" fill="none" d="m4.75,15.45l0.05,-0.1" /><path id="svg_204" stroke-linejoin="round" stroke-linecap="round" stroke="#666666" fill="none" d="m13.95,21.4l0,0.05m-1.9,0.5l-0.65,-0.4" /><path id="svg_205" stroke-width="0.5" stroke-linejoin="round" stroke-linecap="round" stroke="#523821" fill="none" d="m10.2,14.4l0.45,-1.4l0.45,0.5m-2.95,0.6q-1.6,-1.2 -1.7,-1" /></g><g transform="matrix(1,0,0,1,-18.65,86.25) " id="shape12"><path id="svg_206" stroke-width="0.5" stroke-linejoin="round" stroke-linecap="round" stroke="#523821" fill="none" d="m30.1,-81.55q-1,4.2 -1.1,1.35l-5.3,-5.8l0.4,6.8l-5.2,-2.9l6,7.9l-0.45,3.1l1.35,1.55l1.45,1.25q2,4.1 1.7,4.75q-0.3,0.75 -0.65,0.95l-1.25,0.05q3.1,1.05 3.05,-0.4l0.6,1.35l0.7,0q3,-0.65 2.6,-2.35l0,-0.05l-0.2,-0.5q-0.75,-1.45 -1.05,-5.7l0.2,-0.75l-0.35,-0.5l0.25,-0.3l0,-0.05q1.15,-1.5 0.4,-3.05l-0.05,-0.1q0.55,-5 -2.55,-9.05l-0.1,0.5q-0.9,-2.25 -0.45,1.95z" /></g><g id="sprite0"><use id="svg_207" ns1:href="#shape13" width="102.95" height="45" /></g><g id="shape13"><path id="svg_208" fill-rule="evenodd" fill-opacity="0" fill="#ff00ff" d="m102.95,45l-102.95,0l0,-45l102.95,0l0,45" /></g></defs><g><title>background</title><rect fill="none" id="canvas_background" height="273" width="270" y="-1" x="-1" /></g><g><title>Layer 1</title><g id="svg_209"><use x="129" y="256" id="svg_210" ns1:href="#shape0" width="381" transform="matrix(1,0,0,1,-192.55,-294) " height="381" /><use x="0.448401" y="-490.399553" id="svg_211" ns1:href="#shape1" width="50.75" transform="matrix(1.2586,-0.6307,-0.2619,-0.5226,-42,-175.75) " height="15.8" /><use x="-119.663519" y="183.333386" id="svg_212" ns1:href="#shape1" width="50.75" transform="matrix(-1.6979,-0.7669,-0.4046,0.8958,105.85,-178.7) " height="15.8" /><use x="-153.07653" y="564.211954" id="svg_213" ns1:href="#shape2" width="77" transform="matrix(-0.4804,0.0983,0.0983,0.4804,-14.3187,-122.2885) " height="97.05" /><use x="-130.752078" y="259.476992" id="svg_214" ns1:href="#shape3" width="266.25" transform="matrix(-0.9866,0,0,0.9866,136.4702,-255.0542) " height="270.2" /><use x="130.752078" y="259.476992" id="svg_215" ns1:href="#shape4" width="35.15" transform="matrix(0.9866,0,0,0.9866,-11.7794,-217.7841) " height="28.7" /><use x="-130.752078" y="259.476992" id="svg_216" ns1:href="#shape5" width="74.4" transform="matrix(-0.9866,0,0,0.9866,51.9651,-195.9055) " height="80.9" /><use x="-130.752078" y="259.476992" id="svg_217" ns1:href="#shape6" width="13.15" transform="matrix(-0.9866,0,0,0.9866,9.2,-183.2) " height="3.15" /><use x="-130.752078" y="259.476992" id="svg_218" ns1:href="#shape7" width="267.2" transform="matrix(-0.9866,0,0,0.9866,137.0933,-254.7433) " height="270.25" /><use x="-130.752078" y="259.476992" id="svg_219" ns1:href="#shape8" width="24.6" transform="matrix(-0.9866,0,0,0.9866,45.7,-122.944) " height="31.5" /><use x="-396.491553" y="289.577829" id="svg_220" ns1:href="#shape9" width="77" transform="matrix(-0.5197,-0.2661,-0.2661,0.5197,84.3027,-96.2938) " height="97.05" /><use x="0.727364" y="-6.031106" id="svg_221" ns1:href="#shape2" width="77" transform="matrix(-0.5099999999999997,0.10429999999999998,0.10429999999999998,0.5099999999999997,165.40789999999996,153.6406) " height="97.05" /><use x="-130.752078" y="259.476992" id="svg_222" ns1:href="#shape10" width="124.65" transform="matrix(-0.9866,0,0,0.9866,104.158,-212.8263) " height="163.1" /><use x="-0.235306" y="-7.343064" id="svg_223" ns1:href="#shape11" width="22.35" transform="matrix(-0.8118999999999997,0.16219999999999996,0.16219999999999996,0.8118999999999997,115.59759999999999,53.7853) " height="26.9" /><use x="-130.752078" y="259.476992" id="svg_224" ns1:href="#shape12" width="15.65" transform="matrix(-0.9866,0,0,0.9866,-13.3007,-207.5971) " height="24.9" /><use x="75.394506" y="163.505141" ns1:href="#sprite0" width="102.95" transform="matrix(1.711,0,0,1.5657,-87.45,-219.6) " id="_mcMask" height="45" /></g></g></svg>