<?xml version="1.0" encoding="UTF-8" standalone="no"?>
<svg xmlns:ffdec="https://www.free-decompiler.com/flash" xmlns:xlink="http://www.w3.org/1999/xlink" ffdec:objectType="shape" height="513.75px" width="539.4px" xmlns="http://www.w3.org/2000/svg">
  <g transform="matrix(3.0, 0.0, 0.0, 3.0, 581.85, 48.6)">
    <path d="M-131.5 -6.25 Q-135.3 -4.95 -138.4 -3.25 L-138.7 -3.1 -140.0 -2.35 Q-141.8 -1.25 -142.6 -0.3 -144.05 1.5 -143.75 4.45 -145.2 9.55 -144.8 13.65 L-144.8 13.7 -144.9 14.3 -145.5 18.35 -146.2 21.15 Q-156.75 47.1 -181.35 37.35 L-183.3 37.35 Q-180.6 41.2 -170.25 44.35 L-176.3 43.8 Q-187.1 41.15 -189.5 35.95 L-190.9 36.8 Q-188.75 45.05 -182.15 48.85 -189.35 46.95 -191.85 43.55 L-193.1 44.8 -190.1 47.8 -189.5 48.25 Q-185.3 53.95 -174.5 57.75 L-179.65 58.1 -180.0 59.05 Q-175.3 61.8 -169.9 61.85 L-167.65 61.75 -169.9 62.5 -174.3 63.0 Q-172.2 64.6 -169.85 65.4 L-166.85 66.05 -160.1 65.45 -159.6 65.4 Q-152.5 64.55 -148.75 63.15 L-148.7 63.15 -152.9 68.25 -145.8 64.05 Q-149.3 69.9 -148.95 78.0 L-147.2 81.1 Q-148.05 86.65 -146.05 91.9 L-140.6 97.4 -140.55 98.85 Q-141.1 108.95 -150.15 114.45 L-150.9 114.9 -167.15 124.1 -167.15 154.2 -15.0 154.2 -15.0 75.2 Q-23.8 70.7 -32.0 62.5 -31.95 58.85 -30.9 54.1 -27.4 41.8 -26.95 37.6 L-24.8 36.85 Q-23.4 29.1 -28.7 20.2 -31.6 16.75 -33.6 12.3 L-35.5 7.6 -36.4 5.3 -36.75 3.25 -38.75 0.75 -41.05 -3.25 -41.9 -3.85 -42.45 -4.2 -43.2 -4.55 -45.6 -5.35 -45.75 -5.35 -48.85 -5.7 Q-54.45 -3.7 -60.1 2.25 L-61.95 3.5 -62.35 3.65 -62.95 3.9 -64.95 4.3 -65.1 4.3 Q-67.55 7.4 -68.95 10.65 L-68.9 10.75 -68.05 11.8 -67.75 12.35 -67.45 12.85 -66.45 14.7 -66.4 14.7 Q-68.8 17.15 -70.6 21.55 -72.05 25.2 -73.1 30.15 L-73.55 30.15 -73.8 30.2 -77.7 28.8 Q-81.95 26.7 -86.45 26.8 L-86.15 26.55 Q-79.35 20.95 -79.85 13.1 -81.3 15.65 -84.55 17.9 -80.3 12.8 -79.9 6.15 L-80.9 5.9 Q-81.95 8.2 -84.05 10.0 -81.15 -1.1 -83.55 -7.8 L-83.6 -8.5 Q-83.75 -10.75 -84.35 -12.7 L-86.1 -12.3 Q-84.7 -8.4 -87.15 -1.35 -86.6 -8.95 -92.2 -15.35 L-93.75 -14.65 Q-90.75 -9.7 -94.6 0.65 -97.25 6.95 -101.2 9.45 -105.0 11.9 -110.05 10.8 L-110.1 9.6 -110.0 8.5 -110.1 8.3 -110.35 8.05 -111.7 4.0 -112.35 2.7 -112.5 2.35 Q-113.25 0.85 -113.95 -0.1 L-114.45 -0.75 -116.25 -1.85 -117.1 -2.35 Q-121.65 -5.05 -123.7 -5.6 L-124.25 -5.8 -131.5 -6.25 M-31.15 48.0 L-31.25 49.0 -31.5 50.05 Q-33.2 55.7 -33.3 61.0 L-37.05 55.4 -37.0 55.3 Q-35.25 53.6 -35.3 51.2 -35.25 50.25 -35.55 49.45 -32.7 47.9 -30.8 43.7 -30.65 45.45 -31.15 48.0 M-31.35 41.55 Q-32.5 45.7 -36.05 48.25 L-37.0 47.05 Q-38.7 45.35 -41.15 45.35 L-43.3 45.75 -44.95 42.5 -42.85 41.9 -34.6 39.75 Q-32.25 39.7 -31.35 41.55 M-57.75 10.75 L-58.5 12.55 -58.95 13.65 -59.05 13.8 -59.1 13.9 -59.1 14.0 -59.15 14.05 -59.15 14.15 Q-58.9 14.95 -59.45 15.75 -59.95 16.6 -61.35 17.45 -63.75 18.25 -65.3 15.65 L-65.1 15.35 Q-68.85 20.3 -69.55 28.95 L-69.45 29.2 -69.1 30.15 Q-65.85 30.4 -63.85 31.4 L-63.5 31.6 Q-58.8 31.5 -54.05 30.15 -52.9 28.65 -52.05 28.1 L-48.8 29.6 -48.3 29.4 Q-45.1 28.35 -42.05 27.95 L-41.2 23.3 Q-41.9 21.5 -42.6 20.5 L-43.75 21.2 -46.65 19.8 Q-47.55 18.05 -46.85 15.0 L-46.05 14.6 -46.15 13.75 Q-46.7 13.95 -47.35 14.4 -48.85 17.25 -49.9 20.3 L-49.9 20.35 Q-50.85 21.15 -53.6 20.75 L-54.9 19.65 -56.0 20.35 -57.9 19.0 -58.2 16.6 -58.1 16.4 -56.4 11.75 -56.2 10.85 -57.75 10.75 Z" fill="none" stroke="#000000" stroke-linecap="round" stroke-linejoin="round" stroke-opacity="0.9607843" stroke-width="1.75"/>
    <path d="M-140.0 -2.35 L-138.7 -3.1 -138.4 -3.25 Q-135.3 -4.95 -131.5 -6.25 L-124.25 -5.8 -123.85 -5.5 -123.8 -5.5 Q-120.6 -3.2 -119.05 2.9 -121.1 3.7 -123.8 5.2 -126.5 1.55 -130.05 -0.5 -134.4 -2.85 -138.35 -2.55 L-140.0 -2.35 M-116.25 -1.85 L-114.45 -0.75 -113.95 -0.1 Q-113.25 0.85 -112.5 2.35 -113.1 1.95 -113.95 1.85 L-114.45 0.35 Q-115.1 -1.05 -116.25 -1.85 M-66.4 14.7 L-66.45 14.7 -67.45 12.85 -67.75 12.35 -68.05 11.8 -68.9 10.75 -68.95 10.65 Q-67.55 7.4 -65.1 4.3 L-64.95 4.3 -62.95 3.9 -62.35 3.65 Q-59.3 3.2 -59.6 4.7 L-59.25 4.8 -58.95 4.8 -60.35 6.05 -60.75 6.3 -61.75 7.05 -62.15 8.05 -63.75 12.45 Q-63.8 13.05 -64.0 13.5 L-65.2 14.65 -65.25 14.7 -66.0 14.75 -66.05 14.75 -66.35 14.6 -66.4 14.7 M-41.9 -3.85 L-41.05 -3.25 -40.85 -2.9 -40.6 -2.5 -38.75 0.75 -36.75 3.25 -36.4 5.3 -35.5 7.6 -33.6 12.3 Q-31.6 16.75 -28.7 20.2 -23.4 29.1 -24.8 36.85 L-26.95 37.6 Q-27.4 41.8 -30.9 54.1 -31.95 58.85 -32.0 62.5 L-32.35 62.25 Q-32.85 56.8 -31.5 50.05 -32.85 56.8 -32.35 62.25 L-31.55 66.75 -31.3 67.65 -28.9 74.2 -28.1 75.75 Q-29.7 73.85 -30.3 75.2 -31.0 73.5 -32.2 74.7 L-31.55 71.7 Q-33.3 66.55 -33.3 61.0 -33.2 55.7 -31.5 50.05 L-31.25 49.0 -31.15 48.0 Q-30.65 45.45 -30.8 43.7 -30.9 42.4 -31.35 41.55 -32.25 39.7 -34.6 39.75 L-42.85 41.9 -44.95 42.5 -52.45 44.65 -52.9 41.05 -52.8 38.3 -49.4 37.3 -52.8 38.3 -52.35 33.5 -52.25 32.75 -49.3 32.35 -52.25 32.75 -52.05 32.15 -51.5 30.6 -48.8 29.6 -48.3 29.4 -49.3 32.35 Q-50.1 35.2 -49.4 37.3 -48.9 38.65 -47.8 39.65 -42.45 36.05 -37.1 35.75 L-35.4 35.7 -32.3 36.1 -32.25 36.0 Q-29.6 30.7 -31.25 25.0 L-39.95 7.25 -40.35 4.6 Q-40.1 3.8 -40.15 2.55 -40.1 3.8 -40.35 4.6 L-39.95 7.25 -39.8 10.25 -40.2 11.4 -40.3 11.55 -41.45 13.25 -41.85 13.75 -41.55 18.05 Q-43.7 19.7 -45.85 16.5 L-45.85 16.45 -45.9 16.25 -46.05 14.6 -46.15 13.75 Q-46.7 13.95 -47.35 14.4 -48.85 17.25 -49.9 20.3 L-49.9 20.35 Q-52.85 20.05 -54.1 18.3 -56.3 19.45 -58.1 16.4 L-56.4 11.75 -56.2 10.85 -56.7 9.8 -56.2 10.85 -57.75 10.75 Q-57.8 9.9 -57.45 9.45 L-57.05 9.05 -56.7 9.75 -56.7 9.8 -53.5 8.55 -53.05 9.65 -51.9 9.3 -51.75 8.5 Q-49.5 10.7 -47.7 10.05 L-47.1 11.1 -45.2 10.1 Q-43.8 11.2 -42.65 10.35 L-41.65 11.8 -40.9 10.5 -41.9 8.3 Q-40.6 5.55 -40.8 2.25 L-40.85 1.9 -40.95 1.6 -41.15 1.4 -41.6 -1.85 -40.6 -2.5 -41.6 -1.85 -41.9 -3.85 M-144.8 13.65 Q-145.2 9.55 -143.75 4.45 -142.55 2.7 -138.8 4.05 -135.85 5.2 -129.7 8.9 L-130.6 9.45 -131.25 10.2 Q-132.4 11.6 -132.25 14.75 -135.25 14.35 -138.3 14.8 L-144.15 14.6 -144.8 13.65 M-29.85 39.4 L-30.3 39.9 -33.75 39.55 -34.6 39.75 -33.75 39.55 -30.3 39.9 -29.85 39.4 Q-26.0 29.0 -34.2 15.45 L-40.15 2.55 -34.2 15.45 Q-26.0 29.0 -29.85 39.4 L-27.65 36.7 -29.85 39.4 M-40.5 -0.35 L-40.15 2.55 -40.5 -0.35 M-27.25 26.3 Q-26.0 29.2 -26.95 37.6 -26.0 29.2 -27.25 26.3 M-50.9 12.2 Q-52.55 13.6 -54.1 18.3 -52.55 13.6 -50.9 12.2 M-51.25 6.0 L-51.3 6.0 -51.2 5.7 -51.25 6.0 M-59.45 14.7 L-59.25 14.35 -59.15 14.15 Q-58.9 14.95 -59.45 15.75 -59.95 16.6 -61.35 17.45 L-60.75 16.75 -59.45 14.7 M-43.8 13.5 Q-44.7 13.1 -46.15 13.75 -44.7 13.1 -43.8 13.5 M-47.35 14.4 L-46.8 13.35 -47.35 14.4 M-65.45 7.6 Q-63.2 9.55 -63.65 11.55 L-63.75 12.45 -63.65 11.55 Q-63.2 9.55 -65.45 7.6 M-65.45 13.7 Q-64.85 12.4 -66.3 10.75 -67.8 10.45 -67.75 12.3 L-67.75 12.35 -67.75 12.3 Q-67.8 10.45 -66.3 10.75 -64.85 12.4 -65.45 13.7 M-59.3 63.85 Q-57.45 60.75 -54.85 58.25 L-54.45 58.65 -55.5 60.8 -53.4 61.65 -53.45 61.8 Q-56.1 62.9 -58.1 64.9 -59.35 66.25 -60.35 67.95 L-60.4 68.0 -61.2 67.5 -59.3 63.85 M-35.85 97.75 Q-35.7 98.15 -35.95 98.8 -38.0 103.0 -38.7 108.95 -40.8 111.1 -42.0 115.55 L-42.3 116.75 Q-41.75 116.65 -41.25 117.35 L-40.7 118.1 -41.25 117.35 Q-37.25 104.8 -27.7 103.4 L-27.75 103.85 -31.55 106.75 -35.55 112.4 -37.1 115.7 -37.35 116.15 Q-42.05 123.0 -44.95 121.8 L-44.95 120.1 -44.95 115.8 -44.95 120.1 Q-48.45 127.4 -58.5 130.4 L-58.9 130.5 Q-97.1 139.6 -110.0 130.75 L-108.75 128.3 Q-106.6 124.55 -104.4 122.95 L-96.75 122.55 -96.4 122.55 Q-101.75 123.95 -104.5 127.75 -95.15 130.45 -84.8 131.7 L-99.6 131.15 Q-106.5 130.25 -108.75 128.3 -106.5 130.25 -99.6 131.15 L-84.8 131.7 -79.95 132.15 Q-65.55 131.1 -58.4 127.55 L-57.9 128.0 -58.4 127.55 -58.8 127.2 Q-58.0 125.25 -56.65 123.95 -54.5 121.9 -50.85 121.25 -48.2 117.9 -47.2 114.9 L-47.0 114.3 -47.7 109.75 -47.4 109.5 Q-45.7 107.8 -42.5 107.9 L-42.5 108.0 -42.95 108.65 -44.5 113.8 -44.5 114.25 -44.6 114.65 -43.75 115.3 Q-43.15 106.75 -35.85 97.75 M-49.3 107.9 Q-50.3 110.9 -49.6 113.5 L-49.6 113.55 -48.55 113.4 -48.55 113.45 -48.9 114.7 -50.95 114.15 -51.05 113.9 Q-52.6 109.25 -49.05 104.9 L-47.95 104.9 -49.3 107.9 M-31.55 71.7 Q-30.8 72.7 -30.3 75.2 -30.8 72.7 -31.55 71.7 M-40.8 2.25 L-40.35 4.6 -40.8 2.25 M-120.65 18.55 Q-120.0 18.85 -119.4 19.1 L-119.0 18.5 -118.75 21.05 -118.75 21.15 Q-117.0 23.35 -116.85 25.5 L-116.95 25.8 -117.2 26.35 -118.15 28.4 -118.35 28.9 -118.35 29.8 -118.15 30.7 -117.9 31.2 -119.65 30.6 -120.5 30.35 -120.45 27.9 -119.8 22.25 -119.55 21.9 -119.85 20.8 -119.7 20.05 -120.4 20.05 -119.7 20.05 -119.85 20.8 -120.0 21.35 -121.15 20.8 -122.5 20.15 -121.95 19.5 -122.15 19.0 -122.05 18.65 -122.15 18.45 -122.2 18.35 -122.5 18.0 -122.15 18.15 -122.05 18.15 -121.9 18.2 -120.65 18.55 M-129.85 25.2 L-128.65 28.65 -128.4 29.2 -128.1 30.0 -128.05 30.2 -129.35 32.3 -129.95 33.35 Q-131.1 33.85 -132.5 32.55 -128.85 36.25 -126.85 39.8 -126.9 39.5 -125.8 39.8 -124.6 41.95 -124.1 44.2 -124.6 41.95 -125.8 39.8 L-125.4 39.9 -124.95 39.05 -124.35 34.9 -124.3 34.9 -123.5 35.65 -119.45 38.8 -118.55 39.5 -116.55 40.15 -116.55 38.5 Q-114.25 35.55 -111.45 35.85 -111.95 37.8 -109.2 38.3 L-109.05 39.3 -111.45 37.7 -110.6 39.4 -113.45 36.85 -113.55 36.8 -113.55 36.85 -113.9 41.0 -114.4 39.25 -115.5 41.6 -116.5 43.25 -116.55 43.25 Q-120.95 41.2 -124.55 40.15 L-124.1 44.2 Q-123.9 47.7 -125.3 51.2 L-125.35 51.35 Q-126.0 52.95 -126.9 54.1 L-127.6 54.95 Q-128.85 56.2 -130.5 56.7 L-130.55 56.75 -132.25 57.05 -132.1 57.65 -133.35 57.45 -133.7 56.15 -133.65 55.65 -133.75 55.65 -134.15 55.5 -131.45 54.65 Q-125.55 46.6 -131.15 36.65 L-133.65 33.6 -133.8 33.4 -135.15 33.55 -136.3 33.0 -137.95 32.3 -141.8 32.25 Q-143.55 31.4 -145.85 28.4 L-146.05 28.25 -146.15 26.1 -146.1 25.9 -146.05 25.6 Q-145.8 24.6 -145.15 23.95 L-141.4 24.6 Q-143.65 24.55 -142.15 26.15 -138.55 26.95 -135.1 30.05 -133.25 30.35 -134.75 28.4 L-130.05 31.85 Q-131.15 29.75 -134.85 26.7 L-131.6 27.55 Q-134.05 24.9 -137.5 23.15 L-138.7 22.55 -136.9 22.05 -135.4 22.25 -135.25 22.25 -130.9 21.9 -129.85 25.2 M-113.55 36.8 L-112.45 36.45 -113.55 36.8 Q-114.3 37.0 -115.7 38.5 -114.3 37.0 -113.55 36.8 M-119.45 38.8 L-119.05 39.75 Q-118.1 41.75 -116.5 43.25 -118.1 41.75 -119.05 39.75 L-119.45 38.8 M-102.65 48.0 Q-99.5 49.7 -96.65 49.7 L-101.35 46.85 Q-97.0 47.7 -94.5 46.8 L-93.65 46.4 -92.35 50.15 -92.55 55.1 -93.45 56.9 -94.9 56.75 -97.1 57.2 -97.7 58.45 -97.75 58.6 -99.25 58.85 Q-99.95 59.8 -100.1 60.9 L-103.55 62.1 -107.2 62.45 -107.4 62.3 Q-108.4 61.55 -109.7 61.4 L-109.9 61.7 -111.1 54.2 -108.2 59.8 -108.15 59.8 -105.15 59.1 -107.65 52.2 -103.0 58.65 -103.8 54.8 -102.7 56.65 -102.55 56.9 -102.1 57.55 -100.45 56.85 Q-102.05 54.2 -102.95 51.5 -100.45 54.25 -97.55 56.4 L-95.4 56.3 -97.35 54.15 -102.65 48.0 M-133.9 31.2 L-132.5 32.55 -133.9 31.2 M-143.1 26.4 L-144.9 26.15 -143.1 26.4 -142.4 26.6 Q-140.4 27.1 -138.6 28.15 L-138.25 28.35 -137.9 30.35 -135.85 30.75 -137.9 30.35 -138.25 28.35 -138.6 28.15 Q-140.4 27.1 -142.4 26.6 L-143.1 26.4 Q-143.9 27.45 -142.0 30.5 -143.9 27.45 -143.1 26.4 M-124.55 40.15 L-125.4 39.9 -124.55 40.15 M-128.15 58.55 L-127.7 58.3 -126.85 57.7 -125.5 56.6 Q-126.1 57.85 -126.95 58.9 L-128.15 58.55 M-125.55 59.35 L-122.95 56.6 -123.95 59.85 -125.55 59.35 M-117.8 61.8 L-117.85 61.8 -117.6 55.0 -116.4 61.85 -114.65 61.75 Q-114.75 58.1 -115.0 55.25 L-113.95 60.1 -113.95 52.7 -112.9 56.1 -111.25 61.5 Q-112.4 61.7 -113.3 62.45 L-113.65 62.4 -117.8 61.8 M-44.5 113.8 L-44.5 113.15 -44.0 110.75 -42.95 108.65 -44.0 110.75 -44.5 113.15 -44.5 113.8 M-43.8 108.9 Q-44.8 108.5 -47.15 110.6 L-44.0 110.75 -47.15 110.6 Q-44.8 108.5 -43.8 108.9 M-46.15 118.05 L-47.8 121.25 -48.2 121.65 Q-51.9 125.45 -54.65 124.15 L-56.65 123.95 -54.65 124.15 Q-51.9 125.45 -48.2 121.65 L-47.8 121.25 -46.15 118.05 -45.0 115.8 -46.15 118.05 M-44.95 115.75 L-45.0 115.8 -44.95 115.8 -44.95 115.75 -44.6 114.65 -44.95 115.75 M-51.05 119.2 L-51.3 119.25 Q-54.55 119.65 -56.45 120.6 -51.4 115.6 -50.1 117.7 L-51.05 119.2 M-44.25 116.75 L-42.3 116.75 -44.25 116.75 M-43.75 115.3 L-42.0 115.55 -43.75 115.3 M-45.1 121.9 L-44.95 121.8 -44.95 122.05 -45.1 121.9 M-45.9 127.85 L-46.55 128.45 -46.65 128.45 -45.9 127.85" fill="#4f482e" fill-rule="evenodd" stroke="none"/>
    <path d="M-140.0 -2.35 L-138.35 -2.55 Q-134.4 -2.85 -130.05 -0.5 -126.5 1.55 -123.8 5.2 L-129.7 8.9 Q-135.85 5.2 -138.8 4.05 -142.55 2.7 -143.75 4.45 -144.05 1.5 -142.6 -0.3 -141.8 -1.25 -140.0 -2.35 M-119.05 2.9 Q-120.6 -3.2 -123.8 -5.5 L-123.7 -5.6 Q-121.65 -5.05 -117.1 -2.35 L-116.25 -1.85 Q-115.1 -1.05 -114.45 0.35 L-113.95 1.85 Q-115.85 1.65 -119.05 2.9 M-115.1 19.3 L-114.15 19.25 -113.35 19.55 Q-110.25 20.7 -107.9 20.65 L-107.85 20.8 -106.95 23.25 -108.45 24.55 -110.0 25.0 -114.75 21.15 -114.9 20.8 -115.15 19.4 -115.1 19.3 M-132.25 14.75 L-131.95 17.55 -133.95 17.9 -131.95 17.55 -130.9 21.9 -135.25 22.25 -135.4 22.25 -136.9 22.05 -135.3 21.55 Q-137.95 21.4 -143.0 19.55 L-144.7 14.05 -144.15 14.6 -138.3 14.8 Q-135.25 14.35 -132.25 14.75 M-125.8 39.8 Q-126.9 39.5 -126.85 39.8 -128.85 36.25 -132.5 32.55 -131.1 33.85 -129.95 33.35 L-129.35 32.3 -128.05 30.2 -127.5 31.25 -124.35 34.9 -124.95 39.05 -125.4 39.9 -125.8 39.8" fill="#690000" fill-rule="evenodd" stroke="none"/>
    <path d="M-123.85 -5.5 L-124.25 -5.8 -123.7 -5.6 -123.85 -5.5 M-124.05 17.25 L-124.0 17.25 -123.7 17.4 -123.95 17.45 Q-124.1 17.45 -124.2 17.6 L-124.05 17.25 M-133.75 55.65 L-133.65 55.65 -133.7 56.15 -133.75 55.65" fill="#ff9900" fill-rule="evenodd" stroke="none"/>
    <path d="M-123.8 -5.5 L-123.85 -5.5 -123.7 -5.6 -123.8 -5.5 M-32.35 62.25 L-32.0 62.5 Q-32.0 64.85 -31.55 66.75 L-32.35 62.25 M-65.2 14.65 L-64.0 13.5 -64.5 14.25 -65.2 14.65 M-46.05 107.2 Q-44.15 102.75 -40.75 101.05 L-42.65 107.45 -42.75 106.85 Q-44.0 106.25 -46.05 107.2 M-112.5 17.95 L-112.45 18.1 -113.0 18.2 -112.5 17.95 M-109.2 16.0 L-109.95 12.6 -110.05 12.0 -110.05 11.9 -110.05 11.2 Q-109.35 11.15 -108.9 12.2 L-108.85 12.45 Q-106.8 17.55 -107.85 20.8 L-107.9 20.65 -109.2 16.0 M-116.75 16.25 L-116.7 16.15 -116.35 16.3 -116.75 16.25 M-123.7 17.4 L-123.3 17.5 -121.5 18.05 -120.65 18.55 -121.9 18.2 -122.05 18.15 -122.15 18.15 -122.5 18.0 -124.2 17.6 Q-124.1 17.45 -123.95 17.45 L-123.7 17.4 M-119.2 17.45 L-119.3 17.3 -119.1 17.4 -119.2 17.45 M-123.3 17.5 L-122.75 17.85 -122.5 18.0 -122.75 17.85 -123.3 17.5 M-84.8 131.7 Q-95.15 130.45 -104.5 127.75 -101.75 123.95 -96.4 122.55 L-93.5 123.0 -92.8 123.2 -92.2 123.6 Q-88.8 128.05 -93.65 128.25 -86.65 130.65 -77.3 127.85 L-74.35 128.0 Q-67.65 127.95 -63.7 126.85 L-62.95 126.6 -62.75 126.5 -62.65 126.5 -61.3 126.3 -60.35 126.45 -59.4 126.85 -58.8 127.2 -58.4 127.55 Q-65.55 131.1 -79.95 132.15 L-84.8 131.7 Q-68.5 131.4 -59.4 126.85 -68.5 131.4 -84.8 131.7 M-51.3 119.25 L-51.05 119.2 -51.25 119.3 -51.3 119.25" fill="#7c7349" fill-rule="evenodd" stroke="none"/>
    <path d="M-110.05 10.8 Q-105.0 11.9 -101.2 9.45 -97.25 6.95 -94.6 0.65 -90.75 -9.7 -93.75 -14.65 L-92.2 -15.35 Q-86.6 -8.95 -87.15 -1.35 -84.7 -8.4 -86.1 -12.3 L-84.35 -12.7 Q-83.75 -10.75 -83.6 -8.5 L-83.55 -7.8 Q-81.15 -1.1 -84.05 10.0 -81.95 8.2 -80.9 5.9 L-79.9 6.15 Q-80.3 12.8 -84.55 17.9 -81.3 15.65 -79.85 13.1 -79.35 20.95 -86.15 26.55 L-86.45 26.8 Q-91.8 26.9 -97.55 30.15 L-98.7 29.9 -98.7 29.85 -98.7 29.3 -99.4 29.25 Q-101.05 29.25 -102.75 30.25 -104.0 30.95 -104.8 31.9 L-105.75 31.65 Q-106.95 31.2 -107.8 30.6 L-107.95 30.5 -107.55 28.3 -107.55 28.25 Q-106.45 25.95 -106.85 23.55 L-106.95 23.25 -107.85 20.8 Q-106.8 17.55 -108.85 12.45 L-108.9 12.2 Q-109.35 11.15 -110.05 11.2 L-110.05 10.8 M-84.2 10.6 L-84.05 10.0 -84.2 10.6 M-86.55 20.0 L-84.55 17.9 -86.55 20.0 M-95.0 11.6 Q-98.1 12.85 -101.2 13.3 L-105.55 13.5 -101.2 12.5 Q-96.35 10.7 -92.4 6.05 -96.35 10.7 -101.2 12.5 L-105.55 13.5 -101.2 13.3 Q-98.1 12.85 -95.0 11.6 M-105.55 13.5 Q-107.9 13.2 -108.85 12.45 -107.9 13.2 -105.55 13.5 M-89.6 4.6 Q-88.2 1.55 -87.15 -1.35 -88.2 1.55 -89.6 4.6 M-85.4 2.8 Q-83.3 -2.55 -83.55 -7.8 -83.3 -2.55 -85.4 2.8" fill="url(#gradient0)" fill-rule="evenodd" stroke="none"/>
    <path d="M-62.35 3.65 L-61.95 3.5 -60.1 2.25 Q-54.45 -3.7 -48.85 -5.7 L-45.75 -5.35 Q-50.15 -4.2 -53.35 0.45 L-53.75 0.95 Q-56.6 4.3 -57.8 4.75 L-58.1 4.85 -58.2 4.85 -58.3 4.85 -58.95 4.8 -59.25 4.8 -59.6 4.7 Q-59.3 3.2 -62.35 3.65 M-42.45 -4.2 L-41.9 -3.85 -41.6 -1.85 Q-45.05 0.8 -46.2 7.8 L-48.35 8.85 -47.7 10.05 Q-49.5 10.7 -51.75 8.5 L-51.25 6.0 -51.2 5.7 Q-47.8 -3.45 -42.45 -4.2 M-31.35 41.55 Q-30.9 42.4 -30.8 43.7 -32.7 47.9 -35.55 49.45 L-36.05 48.25 Q-32.5 45.7 -31.35 41.55 M-37.35 116.15 L-38.8 119.25 -39.45 121.85 -41.55 123.75 -42.85 125.0 -45.45 127.4 -45.7 127.65 -45.9 127.85 -46.65 128.45 Q-49.8 130.95 -52.65 130.65 L-53.05 130.85 Q-87.1 140.2 -111.85 135.15 L-110.0 130.75 Q-97.1 139.6 -58.9 130.5 L-58.5 130.4 Q-48.45 127.4 -44.95 120.1 L-44.95 121.8 Q-42.05 123.0 -37.35 116.15 M-44.95 121.8 L-45.1 121.9 -44.95 122.05 -44.95 121.8 M-50.45 129.35 Q-46.55 126.35 -45.3 123.35 L-44.95 122.05 -45.3 123.35 Q-46.55 126.35 -50.45 129.35" fill="#453f28" fill-rule="evenodd" stroke="none"/>
    <path d="M-45.75 -5.35 L-45.6 -5.35 -43.2 -4.55 -42.45 -4.2 Q-47.8 -3.45 -51.2 5.7 L-51.3 6.0 -54.0 7.35 -53.5 8.55 -56.7 9.8 -56.7 9.75 -57.05 9.05 -57.45 9.45 -57.6 9.45 -58.6 9.0 Q-59.15 5.85 -62.15 8.05 L-61.75 7.05 -60.75 6.3 -60.35 6.05 -58.95 4.8 -58.3 4.85 -58.2 4.85 -58.1 4.85 -57.8 4.75 Q-56.6 4.3 -53.75 0.95 L-53.35 0.45 Q-50.15 -4.2 -45.75 -5.35 M-40.85 1.9 L-40.8 2.25 Q-40.6 5.55 -41.9 8.3 L-42.85 10.05 -42.65 10.35 Q-43.8 11.2 -45.2 10.1 L-45.25 10.05 -46.2 7.8 Q-45.05 0.8 -41.6 -1.85 L-41.15 1.4 -40.95 1.6 -40.85 1.9 M-56.05 7.95 Q-56.2 5.2 -58.2 4.85 -56.2 5.2 -56.05 7.95 M-56.7 8.1 Q-57.75 4.75 -60.35 6.05 -57.75 4.75 -56.7 8.1" fill="#403a25" fill-rule="evenodd" stroke="none"/>
    <path d="M-39.95 7.25 L-31.25 25.0 Q-29.6 30.7 -32.25 36.0 L-32.3 36.1 -35.4 35.7 Q-33.3 21.25 -40.3 11.55 L-40.2 11.4 -39.8 10.25 -39.95 7.25 M-41.45 13.25 L-38.55 23.6 -38.55 26.2 Q-39.6 28.5 -39.25 34.3 L-39.25 34.4 -39.35 34.4 Q-41.0 33.15 -41.95 31.45 L-42.0 31.3 -42.5 30.15 -42.05 27.95 -41.2 23.3 Q-41.9 21.5 -42.6 20.5 L-41.55 19.85 -41.45 19.8 -41.55 18.05 -41.85 13.75 -41.45 13.25 M-40.05 26.75 Q-40.6 24.75 -41.2 23.3 -40.6 24.75 -40.05 26.75 M-39.25 34.5 L-39.35 34.4 -39.25 34.4 -39.25 34.5" fill="url(#gradient1)" fill-rule="evenodd" stroke="none"/>
    <path d="M-35.4 35.7 L-37.1 35.75 Q-38.3 35.2 -39.25 34.5 L-39.25 34.4 -39.25 34.3 Q-39.6 28.5 -38.55 26.2 L-38.55 23.6 -41.45 13.25 -40.3 11.55 Q-33.3 21.25 -35.4 35.7" fill="url(#gradient2)" fill-rule="evenodd" stroke="none"/>
    <path d="M-37.1 35.75 Q-42.45 36.05 -47.8 39.65 -48.9 38.65 -49.4 37.3 L-39.35 34.4 -39.25 34.5 Q-38.3 35.2 -37.1 35.75 M-42.0 31.3 Q-45.8 31.15 -49.3 32.35 L-48.3 29.4 Q-45.1 28.35 -42.05 27.95 L-42.5 30.15 -42.0 31.3" fill="#6b623e" fill-rule="evenodd" stroke="none"/>
    <path d="M-37.05 55.4 Q-38.2 56.5 -39.7 56.85 -36.95 54.85 -39.85 50.55 -43.55 46.2 -46.15 48.1 L-45.25 47.05 Q-44.35 46.15 -43.3 45.75 L-41.15 45.35 Q-38.7 45.35 -37.0 47.05 L-36.05 48.25 -35.55 49.45 Q-35.25 50.25 -35.3 51.2 -35.25 53.6 -37.0 55.3 L-37.05 55.4 M-83.95 48.8 L-86.75 51.15 -88.65 49.05 -88.6 49.05 -88.15 49.2 -85.8 48.4 -83.95 48.8 M-94.45 59.85 L-96.2 62.5 -96.75 62.1 -96.75 60.3 -97.5 58.65 -96.55 59.35 -94.55 59.75 -94.45 59.85 M-91.15 39.4 L-91.15 38.1 -89.95 37.35 -88.05 37.5 -87.05 37.05 -87.25 38.8 -89.6 39.4 -91.15 39.4 M-128.2 66.3 L-127.7 65.35 -128.35 64.35 -127.4 62.75 -125.85 62.35 -125.5 61.75 -124.35 63.75 -124.35 64.75 -128.2 66.3 M-139.4 57.05 L-138.8 56.45 -137.65 56.55 -136.6 56.6 -136.4 56.65 -137.8 57.55 -139.85 57.55 -139.7 57.35 -139.4 57.05 M-110.4 68.65 L-111.15 67.85 -111.95 66.6 -112.05 65.55 -110.35 63.5 -110.35 63.05 -110.3 63.05 -109.45 63.95 -108.6 65.35 -108.6 67.2 -110.4 68.65" fill="#ae4602" fill-rule="evenodd" stroke="none"/>
    <path d="M-46.2 7.8 L-45.25 10.05 -45.2 10.1 -47.1 11.1 -47.7 10.05 -48.35 8.85 -46.2 7.8 M-42.65 10.35 L-42.85 10.05 -41.9 8.3 -40.9 10.5 -41.65 11.8 -42.65 10.35 M-51.75 8.5 L-51.9 9.3 -53.05 9.65 -53.5 8.55 -54.0 7.35 -51.3 6.0 -51.25 6.0 -51.75 8.5" fill="#474029" fill-rule="evenodd" stroke="none"/>
    <path d="M-41.55 18.05 L-41.45 19.8 -41.55 19.85 -42.6 20.5 -43.75 21.2 -46.65 19.8 Q-47.55 18.05 -46.85 15.0 L-46.05 14.6 -45.9 16.25 -45.85 16.45 -45.85 16.5 -45.25 19.1 -45.85 16.5 Q-46.6 17.65 -46.35 19.0 -46.6 17.65 -45.85 16.5 -43.7 19.7 -41.55 18.05 M-58.1 16.4 Q-56.3 19.45 -54.1 18.3 L-54.4 19.35 -54.9 19.65 -56.0 20.35 -57.9 19.0 -58.2 16.6 -58.1 16.4 M-57.6 9.45 L-57.45 9.45 Q-57.8 9.9 -57.75 10.75 L-58.5 12.55 -58.95 13.65 -57.6 9.6 -57.6 9.45 M-64.0 13.5 Q-60.8 17.15 -59.45 14.7 L-60.75 16.75 -61.35 17.45 Q-63.75 18.25 -65.3 15.65 L-65.1 15.35 -65.1 15.3 -65.05 15.3 -65.05 15.2 -64.5 14.25 -64.0 13.5 M-49.9 20.35 Q-50.85 21.15 -53.6 20.75 L-54.9 19.65 -54.4 19.35 -54.1 18.3 Q-52.85 20.05 -49.9 20.35 M-65.05 15.3 L-65.1 15.35 -65.05 15.3 M-39.55 98.1 Q-37.65 97.05 -36.15 97.4 L-35.85 97.75 Q-43.15 106.75 -43.75 115.3 L-44.6 114.65 -44.5 114.25 -44.5 113.8 -42.95 108.65 -42.5 108.0 -42.5 107.9 -42.65 107.45 -40.75 101.05 -39.6 98.15 -39.55 98.15 -39.55 98.1 M-38.7 108.95 L-36.7 107.05 -34.55 103.75 Q-29.8 101.4 -27.65 102.8 L-27.7 103.4 Q-37.25 104.8 -41.25 117.35 -41.75 116.65 -42.3 116.75 L-42.0 115.55 Q-40.8 111.1 -38.7 108.95 M-117.9 31.2 L-118.15 30.7 Q-118.2 30.0 -116.75 29.35 L-115.0 29.1 Q-112.75 28.65 -111.55 27.85 L-111.5 27.8 -111.4 27.7 -111.3 27.65 -111.1 27.5 -111.15 27.7 -111.15 27.75 -111.25 27.9 -111.4 28.2 -111.9 29.0 -112.35 29.45 -112.75 29.8 -113.15 30.05 -113.35 30.55 -113.45 30.75 -113.5 31.1 -115.3 32.3 -117.1 31.5 -117.9 31.2 M-114.85 30.05 Q-116.15 30.3 -117.1 31.5 -116.15 30.3 -114.85 30.05" fill="#b8a86c" fill-rule="evenodd" stroke="none"/>
    <path d="M-57.6 9.45 L-57.6 9.6 -58.95 13.65 -59.05 13.8 -59.1 13.9 -59.1 14.0 -59.15 14.05 -59.15 14.15 -59.25 14.35 -59.45 14.7 Q-60.8 17.15 -64.0 13.5 -63.8 13.05 -63.75 12.45 L-62.15 8.05 Q-59.15 5.85 -58.6 9.0 L-57.6 9.45" fill="#5e5536" fill-rule="evenodd" stroke="none"/>
    <path d="M-70.6 21.55 Q-68.8 17.15 -66.4 14.7 L-66.35 14.6 -66.05 14.75 -65.05 15.2 -65.05 15.3 -65.1 15.3 -65.1 15.35 Q-68.85 20.3 -69.55 28.95 -70.1 27.25 -70.6 21.55 M-67.8 32.75 Q-64.6 32.3 -62.45 33.35 L-62.2 34.45 -62.1 34.75 Q-61.9 35.7 -62.05 36.45 L-62.25 37.1 Q-62.55 37.8 -63.2 38.35 L-63.25 38.3 -64.8 36.8 -67.8 32.75 M-62.35 40.95 L-60.55 41.75 -60.3 41.9 Q-58.75 42.75 -57.65 43.95 L-57.6 44.1 Q-54.95 48.15 -62.7 50.15 L-63.15 50.25 -65.75 50.65 Q-66.35 48.1 -67.8 47.6 L-71.2 48.65 Q-68.45 45.6 -67.7 41.4 L-65.7 42.8 -62.55 41.1 -62.35 40.95 M-87.85 79.15 L-87.8 79.15 Q-88.15 75.45 -87.75 72.0 L-87.75 71.95 -87.7 71.95 Q-83.75 65.95 -78.75 63.5 L-78.7 63.5 Q-54.45 94.8 -47.6 77.1 -46.45 81.2 -46.6 86.55 -47.15 87.8 -48.15 88.65 L-50.3 90.2 Q-49.55 86.4 -49.3 81.9 -51.2 87.55 -54.35 91.9 -60.95 93.55 -70.8 90.15 L-65.9 92.8 -71.1 92.25 -73.3 91.5 Q-72.5 90.05 -72.0 88.25 L-71.95 88.1 -71.5 86.05 -72.65 87.75 -72.9 88.05 -74.95 89.8 -75.5 90.15 -75.75 89.4 Q-75.65 88.6 -74.2 87.85 L-77.15 86.7 Q-80.0 85.4 -83.05 83.15 L-83.45 82.75 -83.55 82.8 -87.85 79.15" fill="#b98d3e" fill-rule="evenodd" stroke="none"/>
    <path d="M-73.1 30.15 Q-72.05 25.2 -70.6 21.55 -70.1 27.25 -69.55 28.95 L-69.45 29.2 -69.1 30.15 -68.6 31.3 -67.8 32.75 -64.8 36.8 -63.25 38.3 -63.2 38.35 Q-62.55 37.8 -62.25 37.1 L-62.05 36.45 Q-61.9 35.7 -62.1 34.75 L-61.7 36.4 -61.7 36.45 -61.1 38.6 -61.25 38.75 -62.7 40.85 -62.55 41.1 -65.7 42.8 -67.7 41.4 -69.5 40.15 -71.6 37.05 -73.75 33.95 -73.75 33.7 -73.65 33.1 -73.5 32.15 -73.1 30.15 M-80.75 38.6 L-79.9 41.15 -79.45 42.3 -79.1 43.25 -78.4 44.9 -78.25 44.85 Q-76.85 47.25 -73.85 49.5 L-71.85 50.85 Q-77.0 50.95 -75.4 56.05 L-76.15 55.6 Q-77.1 54.5 -78.25 52.3 L-80.6 46.7 -80.7 46.4 -81.05 45.45 -81.95 42.9 -80.75 38.6" fill="#79160e" fill-rule="evenodd" stroke="none"/>
    <path d="M-150.15 114.45 Q-141.1 108.95 -140.55 98.85 L-140.6 97.4 Q-141.8 93.15 -144.1 89.6 -143.2 88.5 -141.3 87.65 -130.45 85.9 -121.1 91.55 -118.05 93.35 -115.15 96.0 L-114.7 96.4 Q-103.5 109.0 -83.95 114.05 -62.4 117.6 -51.6 107.15 L-53.5 110.5 -53.7 112.7 Q-70.15 133.4 -108.5 105.85 -121.3 93.7 -132.3 95.95 -133.6 101.2 -132.25 105.55 -129.9 102.4 -114.75 107.75 -119.75 106.1 -127.5 106.55 L-133.15 107.1 Q-141.8 109.6 -150.15 114.45 M-147.2 81.1 L-148.95 78.0 Q-149.3 69.9 -145.8 64.05 -144.55 61.9 -142.85 60.05 L-141.1 61.25 Q-138.4 61.25 -136.35 60.3 L-131.0 63.05 -131.15 63.75 -131.15 64.15 -131.05 65.05 -131.1 66.5 -129.55 68.0 -127.25 68.65 -124.85 68.75 -122.55 67.65 -122.0 66.15 -122.0 66.1 -115.1 66.9 -114.75 68.2 -114.6 68.5 -114.6 68.55 -113.4 71.0 -111.6 71.85 -109.2 71.85 -108.15 71.3 Q-106.25 79.25 -94.55 84.5 -107.05 83.85 -119.75 70.6 -142.15 66.55 -123.6 76.4 L-105.9 86.85 Q-112.95 83.85 -121.65 79.05 L-128.6 76.05 Q-138.5 73.2 -145.25 77.05 L-146.45 77.8 -147.2 81.1 M-51.5 30.6 L-52.05 32.15 -52.35 32.75 -52.6 33.45 Q-52.5 28.8 -55.9 32.95 L-56.1 33.25 -57.0 34.75 -57.45 35.55 -57.6 35.6 -60.3 41.9 -60.55 41.75 -62.35 40.95 -62.7 40.85 -61.25 38.75 -61.1 38.6 -61.7 36.45 -61.65 36.4 -61.7 36.4 -62.1 34.75 -62.2 34.45 -62.45 33.35 Q-64.6 32.3 -67.8 32.75 L-68.6 31.3 -63.5 31.6 Q-58.8 31.5 -54.05 30.15 -52.9 28.65 -52.05 28.1 L-49.65 29.2 -49.7 29.2 Q-50.85 29.35 -51.5 30.6 M-54.05 30.15 L-55.9 32.95 -54.05 30.15 M-73.65 33.1 Q-75.0 33.65 -76.45 34.6 -75.1 33.0 -73.5 32.15 L-73.65 33.1 M-80.7 46.4 L-81.35 46.85 -81.05 45.45 -80.7 46.4 M-89.6 53.9 L-92.5 57.25 Q-92.95 57.0 -93.45 56.9 L-92.55 55.1 -92.35 50.15 -93.65 46.4 -93.05 46.0 -90.9 45.9 -93.25 44.95 -92.85 43.65 -94.8 43.3 -96.7 42.7 -97.6 42.25 -91.8 43.05 -91.8 42.65 -89.25 43.35 -88.75 44.75 -90.4 44.8 -90.4 47.05 -89.85 47.4 -91.1 52.05 -92.55 55.1 -91.1 52.05 -89.85 47.4 -90.4 47.05 -90.4 44.8 -88.75 44.75 -89.25 43.35 -89.1 43.4 -87.15 42.9 -86.1 45.9 Q-87.6 46.15 -88.75 47.25 -89.45 47.85 -89.8 48.6 L-89.95 49.7 -90.2 49.8 -90.25 50.45 -90.2 51.15 -90.35 52.55 -89.6 53.9 M-46.0 81.25 L-46.05 81.15 -46.3 79.35 -46.0 81.25 M-45.7 77.15 L-46.95 74.85 Q-47.9 68.8 -49.05 63.65 -46.75 70.75 -45.7 77.15 M-45.5 87.25 L-44.8 84.6 Q-44.0 98.1 -49.3 107.9 L-47.95 104.9 -49.05 104.9 -49.35 104.9 -48.95 104.3 -48.15 103.2 Q-45.05 97.3 -45.5 87.25 M-95.25 37.6 L-97.65 37.6 -93.7 36.85 -93.55 36.9 -93.95 37.55 -95.25 37.6 M-97.85 35.6 L-97.6 35.35 -97.5 35.2 -96.55 35.6 -97.85 35.6 M-133.35 57.45 L-132.1 57.65 -131.35 59.8 -130.35 59.5 -129.0 58.95 -128.45 58.7 -128.15 58.55 -126.95 58.9 -128.75 60.65 -128.5 60.8 Q-129.15 61.0 -129.75 61.45 L-130.1 61.75 -134.9 59.35 -133.3 57.7 -133.35 57.45 M-125.05 61.05 L-124.75 60.55 -126.3 60.4 -126.6 60.4 -125.55 59.35 -123.95 59.85 -124.25 60.9 -125.05 61.05 M-122.25 62.0 L-120.3 62.25 -117.9 62.45 -117.8 61.8 -113.65 62.4 -113.7 62.8 Q-114.85 64.0 -115.1 65.6 L-121.45 64.6 -121.4 64.15 Q-121.4 62.9 -122.25 62.0 M-147.85 78.85 L-146.45 77.8 -147.85 78.85 M-100.1 60.9 L-100.15 61.55 -100.1 62.3 -99.8 63.35 -105.7 64.45 Q-106.05 63.55 -106.8 62.8 L-107.2 62.45 -103.55 62.1 -100.1 60.9 M-71.3 103.75 L-70.05 103.95 Q-60.05 105.1 -52.85 98.6 L-53.7 100.3 Q-66.85 117.8 -102.15 104.5 -83.65 107.5 -71.3 103.75" fill="url(#gradient3)" fill-rule="evenodd" stroke="none"/>
    <path d="M-86.45 26.8 Q-81.95 26.7 -77.7 28.8 L-73.8 30.2 -73.55 30.15 -73.1 30.15 -73.5 32.15 Q-75.1 33.0 -76.45 34.6 -78.5 35.95 -80.65 38.05 L-80.75 38.6 -80.9 38.25 -80.65 38.05 -80.9 38.25 -80.75 38.6 -81.95 42.9 -81.05 45.45 -81.35 46.85 -81.8 47.2 Q-83.0 46.1 -84.6 45.9 L-86.0 42.5 -84.1 40.75 -84.2 38.8 -84.2 38.6 -84.25 38.1 Q-84.4 37.45 -84.9 36.85 L-86.2 36.7 -86.35 36.7 -86.1 35.95 Q-87.4 35.2 -89.2 35.2 L-91.4 35.5 -91.75 35.6 -91.85 35.4 -92.05 34.9 -93.65 35.3 -96.0 34.3 -95.6 34.0 -93.85 33.4 -93.05 33.1 -91.15 32.3 -93.2 32.6 -93.95 32.85 -96.3 33.3 -96.25 32.2 -96.35 32.0 -94.25 31.05 -96.2 29.75 -97.2 30.25 -97.35 30.15 -97.35 30.2 -97.55 30.15 Q-91.8 26.9 -86.45 26.8 M-69.1 30.15 Q-65.85 30.4 -63.85 31.4 L-63.5 31.6 -68.6 31.3 -69.1 30.15 M-89.15 33.25 Q-77.45 29.8 -73.8 30.2 -77.45 29.8 -89.15 33.25" fill="url(#gradient4)" fill-rule="evenodd" stroke="none"/>
    <path d="M-61.7 36.4 L-61.65 36.4 -61.7 36.45 -61.7 36.4 M-79.1 43.25 Q-76.9 38.45 -71.6 37.05 L-69.5 40.15 Q-74.2 42.3 -78.25 44.85 L-78.4 44.9 -79.1 43.25 M-87.75 72.0 L-87.8 72.05 -87.75 71.95 -87.75 72.0 M-87.75 71.9 Q-87.4 69.2 -86.7 66.65 -84.45 58.95 -78.25 52.3 -77.1 54.5 -76.15 55.6 L-75.4 56.05 Q-71.9 58.15 -67.95 59.05 L-68.25 61.65 -69.65 61.85 Q-74.55 61.45 -78.75 63.5 -83.75 65.95 -87.7 71.95 L-87.75 71.9 M-71.85 50.85 L-73.85 49.5 -71.2 48.65 -67.8 47.6 Q-66.35 48.1 -65.75 50.65 L-71.45 50.9 -71.75 50.9 -71.85 50.85 M-65.5 59.5 L-65.95 61.7 -67.85 61.6 -67.8 59.1 -65.5 59.5 M-42.85 125.0 Q-44.45 131.45 -51.05 139.45 -64.85 151.9 -84.45 139.55 L-80.45 138.8 -79.55 138.6 Q-67.65 147.3 -55.6 140.9 L-54.85 140.45 -54.6 140.35 -54.4 140.2 -53.8 139.6 Q-47.05 132.45 -47.4 129.55 L-47.4 129.5 -47.65 129.55 -47.4 129.3 -46.6 128.5 -46.55 128.45 -45.9 127.85 -45.7 127.65 -45.45 127.4 -42.85 125.0 M-96.05 90.3 Q-100.5 89.1 -105.9 86.85 L-123.6 76.4 Q-142.15 66.55 -119.75 70.6 -107.05 83.85 -94.55 84.5 -106.25 79.25 -108.15 71.3 L-107.55 71.05 -106.35 69.8 -105.8 68.3 -105.75 68.15 -105.6 67.75 -105.35 66.25 -105.35 66.0 -99.4 64.7 -99.2 65.35 -97.95 66.35 Q-98.5 68.8 -98.0 70.5 L-97.9 70.85 Q-94.25 77.4 -93.9 83.2 L-92.8 86.65 Q-92.0 88.3 -89.25 91.4 L-96.05 90.3 M-96.75 122.55 Q-98.2 119.95 -101.15 119.35 L-103.1 115.7 -103.85 115.65 -105.2 115.4 -106.5 115.05 Q-108.35 109.85 -114.75 107.75 -108.35 109.85 -106.5 115.05 L-105.2 115.4 -107.2 115.35 Q-110.05 115.6 -114.85 118.8 -125.3 119.9 -125.45 116.55 -116.3 109.85 -110.75 112.1 -109.65 113.65 -107.6 114.6 L-109.0 111.9 Q-113.6 107.6 -122.4 111.0 L-122.95 111.15 Q-133.8 111.35 -127.5 106.55 -119.75 106.1 -114.75 107.75 -129.9 102.4 -132.25 105.55 -133.6 101.2 -132.3 95.95 -121.3 93.7 -108.5 105.85 -70.15 133.4 -53.7 112.7 L-53.5 115.65 Q-56.15 117.05 -56.45 118.9 -59.7 120.5 -62.6 122.8 L-63.7 126.85 Q-67.65 127.95 -74.35 128.0 L-77.3 127.85 Q-86.9 127.0 -92.2 123.6 L-92.8 123.2 -93.5 123.0 -96.4 122.55 -96.75 122.55 M-106.5 115.05 L-107.6 114.6 -106.5 115.05" fill="#ecdfa8" fill-rule="evenodd" stroke="none"/>
    <path d="M-73.65 33.1 L-73.75 33.7 -73.75 33.95 -71.6 37.05 Q-76.9 38.45 -79.1 43.25 L-79.45 42.3 -79.9 41.15 -80.75 38.6 -80.65 38.05 Q-78.5 35.95 -76.45 34.6 -75.0 33.65 -73.65 33.1" fill="#eebe66" fill-rule="evenodd" stroke="none"/>
    <path d="M-69.5 40.15 L-67.7 41.4 Q-68.45 45.6 -71.2 48.65 L-73.85 49.5 Q-76.85 47.25 -78.25 44.85 -74.2 42.3 -69.5 40.15 M-80.7 46.4 L-80.6 46.7 -78.25 52.3 Q-84.45 58.95 -86.7 66.65 -87.4 69.2 -87.75 71.9 L-87.75 71.95 -87.8 72.05 -87.75 72.0 Q-88.15 75.45 -87.8 79.15 L-87.85 79.15 -89.55 77.55 -92.25 74.75 Q-95.9 71.95 -97.85 66.4 L-97.9 66.2 -97.75 65.65 -97.6 65.15 -97.45 64.75 -96.2 62.5 -94.45 59.85 -92.5 57.25 -89.6 53.9 -89.05 53.35 -86.75 51.15 -83.95 48.8 -81.8 47.2 -81.35 46.85 -80.7 46.4" fill="#fdda73" fill-rule="evenodd" stroke="none"/>
    <path d="M-28.1 75.75 L-23.95 83.6 -24.0 84.0 Q-24.6 92.0 -30.65 95.2 -29.05 94.3 -29.2 92.8 L-29.2 92.4 Q-29.2 80.45 -30.3 75.2 -29.7 73.85 -28.1 75.75 M-62.7 40.85 L-62.35 40.95 -62.55 41.1 -62.7 40.85" fill="#756b24" fill-rule="evenodd" stroke="none"/>
    <path d="M-48.8 29.6 L-51.5 30.6 Q-50.85 29.35 -49.7 29.2 L-49.65 29.2 -48.8 29.6 M-102.55 39.1 L-100.15 39.1 -100.0 39.1 -99.9 39.1 -94.8 38.7 -94.2 38.6 -93.95 39.65 -93.85 39.85 -93.5 40.6 -97.3 40.35 -97.75 40.3 -101.55 39.3 -102.55 39.1 M-100.0 35.5 L-99.85 35.45 -97.65 35.0 -97.6 35.15 -97.6 35.35 -97.85 35.6 -100.0 35.5" fill="#9e926b" fill-rule="evenodd" stroke="none"/>
    <path d="M-39.35 34.4 L-49.4 37.3 Q-50.1 35.2 -49.3 32.35 -45.8 31.15 -42.0 31.3 L-41.95 31.45 Q-41.0 33.15 -39.35 34.4" fill="#7a6f46" fill-rule="evenodd" stroke="none"/>
    <path d="M-52.9 41.05 L-52.45 44.65 Q-50.8 54.1 -44.4 66.3 -43.3 68.35 -42.6 70.55 L-42.3 71.35 Q-37.7 85.3 -39.6 98.1 L-39.6 98.15 -40.75 101.05 Q-44.15 102.75 -46.05 107.2 -47.0 107.65 -48.2 108.45 -48.9 111.0 -48.55 113.4 L-49.6 113.55 -49.6 113.5 Q-50.3 110.9 -49.3 107.9 -44.0 98.1 -44.8 84.6 -44.4 82.4 -44.4 80.15 L-44.35 79.85 -45.7 77.15 Q-46.75 70.75 -49.05 63.65 -47.9 68.8 -46.95 74.85 -48.05 73.0 -48.65 72.65 -47.5 74.65 -46.5 78.8 L-46.3 79.35 -46.05 81.15 -46.0 81.25 -46.0 81.35 -46.0 81.6 Q-45.8 84.6 -46.6 86.55 -46.45 81.2 -47.6 77.1 L-47.7 76.85 -47.8 76.4 -47.85 76.25 Q-49.95 69.75 -55.6 66.45 L-55.65 66.4 -58.1 64.9 Q-56.1 62.9 -53.45 61.8 L-53.4 61.65 Q-52.85 60.3 -54.45 58.65 L-54.85 58.25 Q-57.45 60.75 -59.3 63.85 -62.85 62.0 -65.95 61.7 L-65.5 59.5 -62.75 59.65 Q-63.75 58.55 -60.85 54.55 L-56.25 46.0 -56.5 45.55 -57.65 43.95 Q-58.75 42.75 -60.3 41.9 L-57.6 35.6 -57.45 35.55 -57.0 34.75 -56.1 33.25 -55.9 32.95 Q-52.5 28.8 -52.6 33.45 -54.55 39.25 -52.7 49.05 L-52.85 44.7 -52.85 44.65 -52.9 41.05 M-48.7 72.55 L-48.65 72.65 -48.7 72.55 -49.45 71.45 -48.7 72.55 -48.85 72.25 -49.15 71.8 -49.45 71.45 -49.15 71.8 -48.85 72.25 -48.7 72.55 M-49.25 62.75 Q-50.0 59.55 -50.85 56.75 L-51.85 52.9 -52.7 49.05 -51.85 52.9 -50.85 56.75 Q-50.0 59.55 -49.25 62.75 M-67.95 59.05 L-67.8 59.1 -67.85 61.6 -68.25 61.65 -67.95 59.05 M-52.85 98.6 L-51.4 97.15 Q-47.2 92.35 -45.5 87.25 -45.05 97.3 -48.15 103.2 L-48.95 104.3 -49.35 104.9 -50.6 105.35 -51.6 107.15 Q-62.4 117.6 -83.95 114.05 -103.5 109.0 -114.7 96.4 L-115.15 96.0 Q-118.05 93.35 -121.1 91.55 -128.5 84.55 -134.0 85.2 -136.05 80.6 -133.6 76.65 -126.4 78.05 -118.25 83.3 L-117.8 83.45 Q-95.65 97.0 -84.0 97.05 -78.5 102.2 -71.3 103.75 -83.65 107.5 -102.15 104.5 -66.85 117.8 -53.7 100.3 L-52.85 98.6 M-88.9 91.75 L-96.05 90.3 -89.25 91.4 -88.9 91.75" fill="#fff0b5" fill-rule="evenodd" stroke="none"/>
    <path d="M-52.8 38.3 L-52.9 41.05 -52.85 44.65 -52.85 44.7 -52.7 49.05 Q-54.55 39.25 -52.6 33.45 L-52.35 32.75 -52.05 32.15 -52.25 32.75 -52.35 33.5 -52.8 38.3 M-52.35 32.75 L-52.25 32.75 -52.35 32.75" fill="#d1c7a4" fill-rule="evenodd" stroke="none"/>
    <path d="M-57.6 44.1 L-57.65 43.95 -56.5 45.55 -56.25 46.0 -57.6 44.1" fill="#c9ae3e" fill-rule="evenodd" stroke="none"/>
    <path d="M-75.4 56.05 Q-77.0 50.95 -71.85 50.85 L-71.75 50.9 -71.45 50.9 -65.75 50.65 -63.15 50.25 -62.7 50.15 Q-54.95 48.15 -57.6 44.1 L-56.25 46.0 -60.85 54.55 Q-63.75 58.55 -62.75 59.65 L-65.5 59.5 -67.8 59.1 -67.95 59.05 Q-71.9 58.15 -75.4 56.05 M-68.4 55.55 Q-62.75 57.05 -60.85 54.55 -62.75 57.05 -68.4 55.55" fill="url(#gradient5)" fill-rule="evenodd" stroke="none"/>
    <path d="M-32.0 62.5 Q-23.8 70.7 -15.0 75.2 L-15.0 154.2 -116.25 154.2 -115.6 148.9 Q-115.0 145.25 -113.9 141.2 -96.7 141.65 -84.45 139.55 -64.85 151.9 -51.05 139.45 -44.45 131.45 -42.85 125.0 L-41.55 123.75 -39.45 121.85 -38.8 119.25 -37.35 116.15 -37.1 115.7 -35.55 112.4 -31.55 106.75 -27.75 103.85 -27.7 103.4 -27.65 102.8 Q-29.8 101.4 -34.55 103.75 L-36.7 107.05 -38.7 108.95 Q-38.0 103.0 -35.95 98.8 -35.7 98.15 -35.85 97.75 L-36.15 97.4 Q-37.65 97.05 -39.55 98.1 L-39.6 98.1 Q-37.7 85.3 -42.3 71.35 L-42.6 70.55 Q-43.3 68.35 -44.4 66.3 -50.8 54.1 -52.45 44.65 L-44.95 42.5 -43.3 45.75 Q-44.35 46.15 -45.25 47.05 L-46.15 48.1 Q-46.95 49.45 -46.95 51.2 -46.95 53.6 -45.25 55.3 -43.55 57.0 -41.15 57.05 L-39.7 56.85 Q-38.2 56.5 -37.05 55.4 L-33.3 61.0 Q-33.3 66.55 -31.55 71.7 L-32.2 74.7 -32.65 77.05 Q-29.85 84.55 -29.2 92.4 L-29.2 92.8 Q-29.05 94.3 -30.65 95.2 -24.6 92.0 -24.0 84.0 L-23.95 83.6 -28.1 75.75 -28.9 74.2 -31.3 67.65 -31.55 66.75 Q-32.0 64.85 -32.0 62.5" fill="url(#gradient6)" fill-rule="evenodd" stroke="none"/>
    <path d="M-39.7 56.85 L-41.15 57.05 Q-43.55 57.0 -45.25 55.3 -46.95 53.6 -46.95 51.2 -46.95 49.45 -46.15 48.1 -43.55 46.2 -39.85 50.55 -36.95 54.85 -39.7 56.85 M-45.1 51.85 L-45.1 53.35 -44.4 54.55 -43.75 53.4 -45.1 51.85" fill="url(#gradient7)" fill-rule="evenodd" stroke="none"/>
    <path d="M-45.1 51.85 L-43.75 53.4 -44.4 54.55 -45.1 53.35 -45.1 51.85" fill="#d84703" fill-rule="evenodd" stroke="none"/>
    <path d="M-54.45 58.65 Q-52.85 60.3 -53.4 61.65 L-55.5 60.8 -54.45 58.65 M-112.45 18.1 L-110.95 17.9 -109.2 16.0 -107.9 20.65 Q-110.25 20.7 -113.35 19.55 L-114.15 19.25 -115.1 19.3 -115.45 18.9 -115.25 18.8 -115.2 18.8 -113.6 18.4 -113.0 18.2 -112.45 18.1 M-117.2 26.35 Q-114.6 23.15 -113.05 25.5 L-112.45 26.3 -112.4 26.4 Q-111.75 27.0 -111.05 27.2 L-111.1 27.5 -111.3 27.65 -111.4 27.7 -111.5 27.8 -111.55 27.85 Q-112.75 28.65 -115.0 29.1 L-116.75 29.35 Q-118.2 30.0 -118.15 30.7 L-118.35 29.8 -118.35 28.9 -118.15 28.4 -117.2 26.35 M-120.35 33.6 L-119.95 36.75 -119.95 36.9 -119.75 38.05 -119.45 38.8 -123.5 35.65 -124.3 34.9 -121.1 34.8 -120.35 33.6 M-134.75 28.4 Q-133.25 30.35 -135.1 30.05 -138.55 26.95 -142.15 26.15 -143.65 24.55 -141.4 24.6 -139.95 25.0 -138.65 25.7 L-138.3 25.9 -134.95 28.3 -134.75 28.4" fill="#8a7f51" fill-rule="evenodd" stroke="none"/>
    <path d="M-65.95 61.7 Q-62.85 62.0 -59.3 63.85 L-61.2 67.5 -60.4 68.0 -60.35 67.95 Q-59.35 66.25 -58.1 64.9 L-55.65 66.4 -55.6 66.45 Q-54.05 68.8 -54.0 69.85 L-54.0 70.1 Q-54.15 71.1 -56.1 70.55 L-56.95 73.05 -60.6 70.55 Q-63.8 71.65 -66.05 65.7 L-66.4 65.35 -66.45 64.8 Q-66.65 63.85 -67.9 62.95 L-68.35 62.6 Q-68.9 62.2 -69.65 61.85 L-68.25 61.65 -67.85 61.6 -65.95 61.7 M-56.8 67.35 Q-57.55 70.15 -60.35 67.95 -57.55 70.15 -56.8 67.35 M-64.55 64.6 Q-65.15 65.85 -61.2 67.5 -65.15 65.85 -64.55 64.6" fill="#700e0e" fill-rule="evenodd" stroke="none"/>
    <path d="M-87.75 71.95 L-87.75 71.9 -87.7 71.95 -87.75 71.95 M-55.6 66.45 Q-49.95 69.75 -47.85 76.25 -49.2 72.5 -54.0 69.85 -54.05 68.8 -55.6 66.45 M-68.35 62.6 L-67.9 62.95 Q-66.65 63.85 -66.45 64.8 L-66.4 65.35 -66.05 65.7 Q-63.8 71.65 -60.6 70.55 L-56.95 73.05 -56.1 70.55 Q-54.15 71.1 -54.0 70.1 -48.3 78.55 -59.65 73.9 -71.0 69.2 -68.35 62.6" fill="#8a1515" fill-rule="evenodd" stroke="none"/>
    <path d="M-47.85 76.25 L-47.8 76.4 -47.7 76.85 -47.6 77.1 Q-54.45 94.8 -78.7 63.5 L-78.75 63.5 Q-74.55 61.45 -69.65 61.85 -68.9 62.2 -68.35 62.6 -71.0 69.2 -59.65 73.9 -48.3 78.55 -54.0 70.1 L-54.0 69.85 Q-49.2 72.5 -47.85 76.25 M-83.05 83.15 L-83.55 82.8 -83.45 82.75 -83.05 83.15" fill="#b12323" fill-rule="evenodd" stroke="none"/>
    <path d="M-75.5 90.15 L-74.95 89.8 -72.9 88.05 -72.65 87.75 -71.5 86.05 -71.95 88.1 -72.0 88.25 Q-72.5 90.05 -73.3 91.5 -74.95 90.8 -75.5 90.15 M-54.35 91.9 Q-51.2 87.55 -49.3 81.9 -49.55 86.4 -50.3 90.2 -52.1 91.3 -54.35 91.9" fill="#770a0a" fill-rule="evenodd" stroke="none"/>
    <path d="M-97.9 66.2 L-97.85 66.4 Q-95.9 71.95 -92.25 74.75 L-89.55 77.55 -87.85 79.15 -83.55 82.8 -83.05 83.15 Q-80.0 85.4 -77.15 86.7 L-74.2 87.85 Q-75.65 88.6 -75.75 89.4 L-75.5 90.15 Q-74.95 90.8 -73.3 91.5 L-71.1 92.25 -65.9 92.8 -70.8 90.15 Q-60.95 93.55 -54.35 91.9 -52.1 91.3 -50.3 90.2 L-48.15 88.65 Q-47.15 87.8 -46.6 86.55 -45.8 84.6 -46.0 81.6 L-46.0 81.35 -46.0 81.25 -46.3 79.35 -46.5 78.8 Q-47.5 74.65 -48.65 72.65 -48.05 73.0 -46.95 74.85 L-45.7 77.15 -44.35 79.85 -44.4 80.15 Q-44.4 82.4 -44.8 84.6 L-45.5 87.25 Q-47.2 92.35 -51.4 97.15 L-52.85 98.6 Q-60.05 105.1 -70.05 103.95 L-71.3 103.75 Q-78.5 102.2 -84.0 97.05 L-86.35 94.6 -86.7 94.05 -88.9 91.75 -89.25 91.4 Q-92.0 88.3 -92.8 86.65 L-93.9 83.2 Q-94.25 77.4 -97.9 70.85 L-98.0 70.5 Q-98.5 68.8 -97.95 66.35 L-97.9 66.2 M-65.9 92.8 L-65.35 93.1 -65.9 92.8" fill="url(#gradient8)" fill-rule="evenodd" stroke="none"/>
    <path d="M-29.2 92.4 Q-29.85 84.55 -32.65 77.05 L-32.2 74.7 Q-31.0 73.5 -30.3 75.2 -29.2 80.45 -29.2 92.4" fill="#8a7c2a" fill-rule="evenodd" stroke="none"/>
    <path d="M-110.1 8.3 L-110.0 8.5 -110.1 9.6 -110.05 10.8 -110.05 11.2 -110.05 11.9 -110.05 12.0 -109.95 12.6 -109.2 16.0 -110.95 17.9 -112.45 18.1 -112.5 17.95 Q-110.35 16.7 -111.5 16.4 L-111.6 15.2 -112.4 14.7 Q-113.45 13.4 -113.15 11.6 -111.55 9.2 -110.15 8.3 L-110.1 8.3 M-111.2 14.65 Q-110.0 13.5 -109.95 12.6 -110.0 13.5 -111.2 14.65 M-119.05 2.9 Q-115.85 1.65 -113.95 1.85 -113.75 2.7 -113.7 3.75 L-114.55 8.65 Q-117.85 7.35 -116.1 14.35 L-116.3 15.0 -116.45 15.4 -116.55 15.7 -116.7 16.15 -116.75 16.25 -117.25 16.2 -117.45 15.85 -117.6 15.35 Q-117.45 10.3 -118.6 4.9 L-119.05 2.9 M-126.35 11.0 L-127.45 10.2 Q-128.6 9.5 -129.7 8.9 L-123.8 5.2 Q-120.5 9.55 -118.3 16.2 L-118.3 16.25 -118.5 16.95 -118.7 17.1 Q-123.5 8.55 -126.35 11.0 M-132.25 14.75 Q-128.1 15.25 -124.05 17.25 L-124.2 17.6 -129.0 17.3 -131.95 17.55 -132.25 14.75 M-119.85 20.8 L-119.55 21.9 -119.8 22.25 -121.8 24.95 -122.95 28.9 -123.0 29.0 -127.0 28.75 Q-124.95 25.8 -122.45 23.25 L-120.1 21.7 -120.0 21.35 -119.85 20.8 M-128.05 30.2 L-127.45 29.3 -126.05 31.9 -124.25 34.35 -124.35 34.9 -127.5 31.25 -128.05 30.2" fill="#890505" fill-rule="evenodd" stroke="none"/>
    <path d="M-123.8 5.2 Q-121.1 3.7 -119.05 2.9 L-118.6 4.9 Q-117.45 10.3 -117.6 15.35 L-117.45 15.85 -118.3 16.25 -118.3 16.2 Q-120.5 9.55 -123.8 5.2 M-112.5 2.35 L-112.35 2.7 -111.7 4.0 -110.35 8.05 -110.1 8.3 -110.15 8.3 Q-111.55 9.2 -113.15 11.6 L-115.9 16.5 -116.35 16.3 -116.7 16.15 -116.55 15.7 -116.45 15.4 -116.3 15.0 -116.1 14.35 -116.05 14.6 -112.6 9.75 -114.55 8.65 -113.7 3.75 Q-113.75 2.7 -113.95 1.85 -113.1 1.95 -112.5 2.35 M-120.65 18.55 L-121.5 18.05 -123.3 17.5 -123.7 17.4 -124.0 17.25 -124.05 17.25 Q-128.1 15.25 -132.25 14.75 -132.4 11.6 -131.25 10.2 L-130.6 9.45 -129.7 8.9 Q-128.6 9.5 -127.45 10.2 L-126.35 11.0 Q-127.25 11.7 -127.95 13.55 L-119.3 17.3 -119.2 17.45 -119.1 17.9 -119.0 18.5 -119.4 19.1 Q-120.0 18.85 -120.65 18.55 M-113.05 25.5 L-114.05 23.3 -114.2 22.95 -114.25 22.7 -114.75 21.15 -110.0 25.0 -112.1 25.6 -112.45 26.3 -113.05 25.5 M-119.8 22.25 L-120.45 27.9 -122.95 28.9 -121.8 24.95 -119.8 22.25 M-120.0 21.35 L-120.1 21.7 -122.45 23.25 Q-124.95 25.8 -127.0 28.75 L-127.45 29.3 -128.05 30.2 -128.1 30.0 -128.4 29.2 -128.65 28.65 -129.85 25.2 Q-125.65 23.85 -122.5 21.75 L-122.1 21.55 -121.15 20.8 -120.0 21.35 M-110.25 31.9 L-109.7 32.55 -108.5 34.8 -108.45 34.95 -108.45 35.7 -108.4 39.15 -108.35 39.6 -108.45 39.7 -109.05 39.3 -109.2 38.3 -109.7 34.2 -110.25 31.9" fill="#968958" fill-rule="evenodd" stroke="none"/>
    <path d="M-114.55 8.65 L-112.6 9.75 -116.05 14.6 -116.1 14.35 Q-115.15 11.45 -114.55 8.65 M-119.3 17.3 L-127.95 13.55 Q-127.25 11.7 -126.35 11.0 -121.85 14.0 -119.3 17.3 M-122.5 21.75 Q-125.65 23.85 -129.85 25.2 L-130.9 21.9 -129.3 21.4 -129.1 21.1 -128.6 21.85 -128.95 22.45 -128.7 22.7 -127.5 22.9 Q-124.15 22.5 -122.5 21.75" fill="#665e3c" fill-rule="evenodd" stroke="none"/>
    <path d="M-113.15 11.6 Q-113.45 13.4 -112.4 14.7 L-111.6 15.2 -111.5 16.4 Q-110.35 16.7 -112.5 17.95 L-113.0 18.2 -113.6 18.4 -115.2 18.8 -115.25 18.8 -115.45 18.9 -115.1 19.3 -115.15 19.4 Q-116.9 19.2 -118.75 21.05 L-119.0 18.5 -119.1 17.9 -119.2 17.45 -119.1 17.4 -118.7 17.1 -118.5 16.95 -118.3 16.25 -117.45 15.85 -117.25 16.2 -116.75 16.25 -116.35 16.3 -115.9 16.5 -113.15 11.6 M-117.8 17.4 L-116.35 17.4 -116.1 17.85 -116.05 17.95 -115.45 18.9 -116.05 17.95 -116.1 17.85 -116.35 17.4 -117.8 17.4 M-112.4 15.95 Q-112.65 17.1 -115.35 17.45 -112.65 17.1 -112.4 15.95 M-124.2 17.6 L-122.5 18.0 -122.2 18.35 -122.15 18.45 -122.05 18.65 -122.15 19.0 -121.95 19.5 -122.5 20.15 -121.15 20.8 -122.1 21.55 -122.5 21.75 Q-124.15 22.5 -127.5 22.9 L-128.7 22.7 -128.95 22.45 -128.6 21.85 -129.1 21.1 -128.7 20.4 -129.15 19.95 -128.55 19.65 Q-129.3 18.75 -129.0 17.3 L-124.2 17.6 M-127.35 21.1 Q-124.05 21.0 -122.5 20.15 -124.05 21.0 -127.35 21.1" fill="#786d46" fill-rule="evenodd" stroke="none"/>
    <path d="M-116.1 14.35 Q-117.85 7.35 -114.55 8.65 -115.15 11.45 -116.1 14.35 M-119.1 17.4 L-119.3 17.3 Q-121.85 14.0 -126.35 11.0 -123.5 8.55 -118.7 17.1 L-119.1 17.4 M-127.45 29.3 L-127.0 28.75 -123.0 29.0 -124.25 34.35 -126.05 31.9 -127.45 29.3 M-106.95 23.25 L-106.85 23.55 Q-106.45 25.95 -107.55 28.25 L-108.55 26.2 -110.0 25.0 -108.45 24.55 -106.95 23.25 M-131.95 17.55 L-129.0 17.3 Q-129.3 18.75 -128.55 19.65 L-129.15 19.95 -128.7 20.4 -129.1 21.1 -129.3 21.4 -130.9 21.9 -131.95 17.55" fill="#950d0d" fill-rule="evenodd" stroke="none"/>
    <path d="M-116.95 25.8 L-116.85 25.5 Q-117.0 23.35 -118.75 21.15 L-118.75 21.05 Q-116.9 19.2 -115.15 19.4 L-114.9 20.8 -114.75 21.15 -114.25 22.7 -114.2 22.95 -114.05 23.3 -113.05 25.5 Q-114.6 23.15 -117.2 26.35 L-116.95 25.8 M-108.45 34.95 L-108.5 34.8 -108.45 34.8 -108.45 34.95" fill="#a3945f" fill-rule="evenodd" stroke="none"/>
    <path d="M-120.45 27.9 L-120.5 30.35 -119.65 30.6 -119.8 32.85 -120.35 33.6 -121.1 34.8 -124.3 34.9 -124.35 34.9 -124.25 34.35 -123.0 29.0 -122.95 28.9 -120.45 27.9 M-107.55 28.25 L-107.55 28.3 -107.95 30.5 -108.05 31.15 -108.45 34.8 -108.5 34.8 -109.7 32.55 -110.25 31.9 -110.85 29.2 -111.4 28.2 -111.25 27.9 -111.15 27.75 -111.15 27.7 -111.1 27.5 -111.05 27.2 Q-111.75 27.0 -112.4 26.4 L-112.45 26.3 -112.1 25.6 -110.0 25.0 -108.55 26.2 -107.55 28.25 M-112.35 29.45 L-111.9 29.0 -111.4 28.2 -110.85 29.2 -110.25 31.9 -112.35 29.45 M-120.5 30.35 L-120.35 33.6 -120.5 30.35" fill="#a89962" fill-rule="evenodd" stroke="none"/>
    <path d="M-107.8 30.6 Q-106.95 31.2 -105.75 31.65 L-104.8 31.9 -103.2 32.0 -102.45 31.95 -101.05 31.7 -100.95 31.65 -100.5 31.55 Q-98.8 31.0 -97.25 30.25 L-97.2 30.3 -97.2 30.25 -96.2 29.75 -94.25 31.05 -96.35 32.0 -97.2 32.35 -101.2 33.45 -102.55 33.75 -101.45 33.75 -97.95 33.55 -96.3 33.3 -93.95 32.85 -93.2 32.6 -91.15 32.3 -93.05 33.1 -93.85 33.4 -95.6 34.0 -96.0 34.3 -96.25 34.15 -96.1 34.35 -97.65 35.0 -99.85 35.45 -100.0 35.5 -100.85 35.6 -100.0 35.5 -97.85 35.6 -96.55 35.6 -93.65 35.3 -92.05 34.9 -91.85 35.4 Q-102.5 39.3 -107.9 36.1 L-108.1 35.95 -108.0 36.15 Q-106.6 39.35 -102.6 39.35 L-101.55 39.3 -97.75 40.3 -97.3 40.35 -93.5 40.6 -93.25 40.6 -92.75 40.55 -93.25 40.6 -93.5 40.35 -92.75 40.2 -92.75 40.55 -91.6 40.5 -91.65 41.15 -102.0 40.8 -102.45 40.8 -107.85 39.75 -108.35 39.6 -108.4 39.15 -108.45 35.7 -108.45 34.95 -108.45 34.8 -108.05 31.15 -107.8 30.6 M-100.15 39.1 Q-97.95 38.65 -95.25 37.6 L-93.95 37.55 -91.35 37.15 -91.35 37.95 -91.35 38.05 -94.2 38.6 -94.8 38.7 -99.9 39.1 -100.0 39.1 -100.15 39.1 M-93.2 36.7 L-91.6 36.0 -91.45 36.45 -93.2 36.7 M-113.55 36.85 L-113.45 36.85 Q-111.8 42.4 -112.9 56.1 L-113.95 52.7 -113.95 60.1 -115.0 55.25 Q-114.75 58.1 -114.65 61.75 L-116.4 61.85 -117.6 55.0 -117.85 61.8 -117.9 62.45 -120.3 62.25 -117.1 49.45 -128.25 60.9 -128.5 60.8 -128.75 60.65 -126.95 58.9 Q-126.1 57.85 -125.5 56.6 L-126.85 57.7 -127.7 58.3 -128.15 58.55 -128.45 58.7 -129.0 58.95 -130.35 59.5 -131.35 59.8 -132.1 57.65 -132.25 57.05 -130.55 56.75 -130.5 56.7 Q-128.85 56.2 -127.6 54.95 L-126.9 54.1 Q-126.0 52.95 -125.35 51.35 L-125.3 51.2 Q-123.9 47.7 -124.1 44.2 L-124.55 40.15 Q-120.95 41.2 -116.55 43.25 L-116.5 43.25 -115.5 41.6 -114.4 39.25 -113.9 41.0 -113.55 36.85 M-114.2 45.15 L-113.9 41.0 -114.2 45.15 M-121.6 48.8 Q-118.55 46.4 -116.55 43.25 -118.55 46.4 -121.6 48.8 M-101.75 34.8 L-99.95 34.8 -99.25 34.7 -97.7 34.5 -96.25 34.15 -97.7 34.5 -99.25 34.7 -99.95 34.8 -101.75 34.8 M-96.25 34.15 L-95.6 34.0 -96.25 34.15 M-122.3 51.65 L-123.3 53.75 -122.3 51.65 M-123.85 54.6 L-125.05 56.15 -125.5 56.6 -125.05 56.15 -123.85 54.6 M-97.35 54.15 L-95.4 56.3 -97.55 56.4 Q-100.45 54.25 -102.95 51.5 L-103.15 51.3 -106.8 46.0 -97.35 54.15 M-108.15 59.8 L-108.2 59.8 -111.1 54.2 -111.4 52.55 -111.4 48.1 -109.05 54.5 -108.15 59.8 M-115.3 52.4 L-115.05 54.65 -115.0 55.25 -115.05 54.65 -115.3 52.4 M-113.95 48.6 L-113.95 52.7 -113.95 48.6" fill="#c7ba8a" fill-rule="evenodd" stroke="none"/>
    <path d="M-107.9 36.1 L-108.0 36.15 -108.1 35.95 -107.9 36.1 M-102.6 39.35 L-102.55 39.1 -101.55 39.3 -102.6 39.35 M-113.45 36.85 L-113.55 36.85 -113.55 36.8 -113.45 36.85 M-138.3 25.9 L-138.65 25.7 -138.25 25.8 -138.3 25.9" fill="#f4edd0" fill-rule="evenodd" stroke="none"/>
    <path d="M-109.05 39.3 L-108.45 39.7 -108.35 39.75 -108.35 39.6 -107.85 39.75 -102.45 40.8 -102.0 40.8 -91.65 41.15 -91.7 41.55 -91.8 42.65 -91.8 43.05 -97.6 42.25 -96.7 42.7 -94.8 43.3 -92.85 43.65 -93.25 44.95 -90.9 45.9 -93.05 46.0 -93.65 46.0 -93.65 46.4 -94.5 46.8 Q-97.0 47.7 -101.35 46.85 L-96.65 49.7 Q-99.5 49.7 -102.65 48.0 L-103.5 47.05 -104.05 46.35 -103.5 47.05 -102.65 48.0 -97.35 54.15 -106.8 46.0 -108.15 43.85 -106.8 46.0 -103.15 51.3 -102.95 51.5 Q-102.05 54.2 -100.45 56.85 L-102.1 57.55 -102.55 56.9 -102.7 56.65 -103.8 54.8 -103.0 58.65 -107.65 52.2 -105.15 59.1 -108.15 59.8 -109.05 54.5 -111.4 48.1 -111.4 52.55 -111.1 54.2 -109.9 61.7 -109.7 63.0 -110.3 63.05 -110.35 63.0 -110.35 63.05 -110.8 63.1 -111.25 61.5 -112.9 56.1 Q-111.8 42.4 -113.45 36.85 L-110.6 39.4 -111.45 37.7 -109.05 39.3 M-108.0 36.15 L-107.9 36.1 Q-102.5 39.3 -91.85 35.4 L-91.75 35.6 -91.6 36.0 -93.2 36.7 -93.45 36.8 -93.7 36.85 -97.65 37.6 -95.25 37.6 Q-97.95 38.65 -100.15 39.1 L-102.55 39.1 -102.6 39.35 Q-106.6 39.35 -108.0 36.15 M-109.9 40.05 L-110.6 39.4 -109.9 40.05 M-102.5 46.15 L-101.35 46.85 -102.5 46.15 M-102.65 44.4 Q-98.55 45.85 -94.55 46.0 L-93.65 46.0 -94.55 46.0 Q-98.55 45.85 -102.65 44.4 M-126.6 60.4 L-127.5 61.3 -128.25 60.9 -117.1 49.45 -120.3 62.25 -122.25 62.0 -124.45 61.75 -124.25 60.9 -123.95 59.85 -122.95 56.6 -125.55 59.35 -126.6 60.4 M-104.05 53.7 L-103.8 54.8 -104.05 53.7" fill="#fcf2c9" fill-rule="evenodd" stroke="none"/>
    <path d="M-119.65 30.6 L-117.9 31.2 -117.1 31.5 -115.3 32.3 -113.5 31.1 -113.45 30.75 -113.35 30.55 -113.15 30.05 -112.75 29.8 -112.35 29.45 -110.25 31.9 -109.7 34.2 -109.2 38.3 Q-111.95 37.8 -111.45 35.85 -114.25 35.55 -116.55 38.5 L-116.55 40.15 -118.55 39.5 -119.45 38.8 -119.75 38.05 -119.95 36.9 -119.95 36.75 -120.35 33.6 -119.8 32.85 -119.65 30.6 M-113.3 31.95 L-113.5 31.1 -113.3 31.95 M-118.75 36.65 L-118.05 36.05 Q-113.95 33.6 -111.15 33.25 -113.95 33.6 -118.05 36.05 L-118.75 36.65" fill="#82764c" fill-rule="evenodd" stroke="none"/>
    <path d="M-104.8 31.9 Q-104.0 30.95 -102.75 30.25 -101.05 29.25 -99.4 29.25 L-98.7 29.3 -98.7 29.85 -98.75 29.9 -98.7 29.9 -97.55 30.15 -97.35 30.2 -97.25 30.25 Q-98.8 31.0 -100.5 31.55 L-100.5 31.45 -100.55 31.2 -100.6 31.25 -102.3 31.7 -102.45 31.95 -103.2 32.0 -104.8 31.9 M-93.45 36.8 L-93.2 36.7 -91.45 36.45 -91.6 36.0 -91.75 35.6 -91.4 35.5 -89.2 35.2 Q-87.4 35.2 -86.1 35.95 L-86.35 36.7 -86.2 36.7 -84.9 36.85 Q-84.4 37.45 -84.25 38.1 L-84.2 38.8 Q-84.3 40.1 -85.7 41.0 -87.15 42.0 -89.2 42.0 L-91.7 41.55 -91.65 41.15 -91.6 40.5 -92.75 40.55 -92.75 40.2 -93.5 40.35 -93.85 39.85 -93.95 39.65 -94.2 38.6 -91.35 38.05 -91.35 37.95 -91.35 37.15 -93.95 37.55 -93.55 36.9 -93.45 36.8 M-101.45 33.75 L-102.55 33.75 -101.2 33.45 -101.45 33.75 -101.2 33.45 -97.2 32.35 -97.4 32.7 -97.6 33.05 -97.95 33.55 -101.45 33.75 M-86.2 36.7 L-87.05 37.05 -86.2 36.7 M-100.5 31.45 L-97.55 30.15 -100.5 31.45 M-91.15 39.4 L-91.15 39.45 -92.55 40.15 -92.75 40.2 -92.55 40.15 -91.15 39.45 -91.15 39.4 -89.6 39.4 -87.25 38.8 -87.05 37.05 -88.05 37.5 -89.95 37.35 -91.15 38.1 -91.15 39.4 M-100.55 31.2 L-98.75 29.9 -100.55 31.2 M-130.1 61.75 L-129.75 61.45 Q-129.15 61.0 -128.5 60.8 L-128.25 60.9 -127.5 61.3 -126.6 60.4 -126.3 60.4 -124.75 60.55 -125.05 61.05 -125.5 61.75 -125.05 61.05 -124.25 60.9 -124.45 61.75 -122.25 62.0 Q-121.4 62.9 -121.4 64.15 L-121.45 64.6 -121.45 64.75 Q-121.55 65.4 -121.95 65.95 L-122.05 66.1 -122.85 66.85 Q-124.25 68.0 -126.3 68.0 L-127.45 67.9 -127.7 67.8 -128.65 66.95 -129.15 67.25 -129.75 66.85 Q-130.75 66.05 -131.05 65.05 L-131.15 63.75 -131.0 63.05 -130.1 61.75 M-128.2 66.3 L-128.4 66.85 -128.65 66.95 -128.4 66.85 -128.2 66.3 -124.35 64.75 -124.35 63.75 -125.5 61.75 -125.85 62.35 -127.4 62.75 -128.35 64.35 -127.7 65.35 -128.2 66.3" fill="#c7b677" fill-rule="evenodd" stroke="none"/>
    <path d="M-100.95 31.65 L-101.05 31.7 -102.45 31.95 -102.3 31.7 -100.6 31.25 -100.55 31.2 -100.5 31.45 -100.95 31.65" fill="#daaa6b" fill-rule="evenodd" stroke="none"/>
    <path d="M-92.5 57.25 L-94.45 59.85 -94.55 59.75 -96.55 59.35 -97.5 58.65 -96.75 60.3 -96.75 62.1 -96.2 62.5 -97.45 64.75 -97.6 65.15 -97.75 65.65 -98.6 64.95 -99.65 63.65 -99.8 63.35 -100.1 62.3 -100.15 61.55 -100.1 60.9 Q-99.95 59.8 -99.25 58.85 L-97.75 58.6 -97.7 58.45 -97.5 58.65 -97.7 58.45 -97.1 57.2 -94.9 56.75 -93.45 56.9 Q-92.95 57.0 -92.5 57.25 M-98.7 29.85 L-98.7 29.9 -98.75 29.9 -98.7 29.85 M-114.6 68.55 L-114.6 68.5 -114.75 68.2 -115.1 66.9 -115.1 66.25 -115.1 65.6 Q-114.85 64.0 -113.7 62.8 L-113.3 62.45 Q-112.4 61.7 -111.25 61.5 L-110.8 63.1 -110.35 63.05 -110.35 63.5 -112.05 65.55 -111.95 66.6 -111.15 67.85 -110.4 68.65 -110.35 68.65 -110.1 69.95 -110.15 70.0 -110.1 69.95 -110.35 68.65 -110.4 68.65 -108.6 67.2 -108.6 65.35 -109.45 63.95 -110.3 63.05 -109.7 63.0 -109.9 61.7 -109.7 61.4 Q-108.4 61.55 -107.4 62.3 L-107.2 62.45 -106.8 62.8 Q-106.05 63.55 -105.7 64.45 -105.4 65.15 -105.35 66.0 L-105.35 66.25 -105.6 67.75 -105.75 68.15 -105.8 68.3 -106.8 69.75 -108.65 70.9 -109.35 71.05 -110.15 70.0 -110.95 71.15 Q-112.5 70.9 -113.7 69.75 L-114.6 68.55" fill="#f5e7b2" fill-rule="evenodd" stroke="none"/>
    <path d="M-97.75 65.65 L-97.9 66.2 -97.95 66.35 -99.2 65.35 -99.4 64.7 -99.65 63.65 -98.6 64.95 -97.75 65.65 M-97.2 32.35 L-96.35 32.0 -96.25 32.2 -96.3 33.3 -97.95 33.55 -97.6 33.05 -97.4 32.7 -97.2 32.35 M-122.0 66.1 L-122.0 66.15 -122.05 66.1 -122.0 66.1 M-108.15 71.3 L-109.2 71.85 -111.6 71.85 -113.4 71.0 -114.6 68.55 -113.7 69.75 Q-112.5 70.9 -110.95 71.15 L-110.15 70.0 -109.35 71.05 -108.65 70.9 -106.8 69.75 -105.8 68.3 -106.35 69.8 -107.55 71.05 -108.15 71.3" fill="#b0c265" fill-rule="evenodd" stroke="none"/>
    <path d="M-86.0 42.5 L-84.6 45.9 -85.25 45.85 -86.1 45.9 -87.15 42.9 -87.35 42.4 -86.8 42.0 -86.1 42.25 -86.0 42.5 M-97.65 35.0 L-96.1 34.35 -96.0 34.3 -93.65 35.3 -96.55 35.6 -97.5 35.2 -97.6 35.15 -97.65 35.0 M-130.1 61.75 L-131.0 63.05 -136.35 60.3 -136.65 60.15 -136.25 59.25 -135.35 59.15 -134.9 59.35 -130.1 61.75 M-122.0 66.1 L-121.95 65.95 Q-121.55 65.4 -121.45 64.75 L-121.45 64.6 -115.1 65.6 -115.1 66.25 -115.1 66.9 -122.0 66.1 M-99.8 63.35 L-99.65 63.65 -99.4 64.7 -105.35 66.0 Q-105.4 65.15 -105.7 64.45 L-99.8 63.35" fill="#5e5537" fill-rule="evenodd" stroke="none"/>
    <path d="M-89.05 53.35 L-89.6 53.9 -90.35 52.55 -90.2 51.15 Q-89.95 52.35 -89.05 53.35 M-84.2 38.8 L-84.1 40.75 -86.0 42.5 -86.1 42.25 -86.8 42.0 -87.35 42.4 -87.15 42.9 -89.1 43.4 -89.25 43.35 -91.8 42.65 -91.7 41.55 -89.2 42.0 Q-87.15 42.0 -85.7 41.0 -84.3 40.1 -84.2 38.8 M-88.6 49.05 L-88.65 49.05 -89.95 49.7 -89.8 48.6 -88.6 49.05" fill="#869949" fill-rule="evenodd" stroke="none"/>
    <path d="M-81.8 47.2 L-83.95 48.8 -85.8 48.4 -88.15 49.2 -88.6 49.05 -89.8 48.6 Q-89.45 47.85 -88.75 47.25 -87.6 46.15 -86.1 45.9 L-85.25 45.85 -84.6 45.9 Q-83.0 46.1 -81.8 47.2 M-86.75 51.15 L-89.05 53.35 Q-89.95 52.35 -90.2 51.15 L-89.95 49.7 -88.65 49.05 -86.75 51.15" fill="#dbc883" fill-rule="evenodd" stroke="none"/>
    <path d="M-148.75 63.15 Q-152.5 64.55 -159.6 65.4 L-160.1 65.45 -166.85 66.05 -169.85 65.4 Q-172.2 64.6 -174.3 63.0 L-169.9 62.5 -167.65 61.75 -169.9 61.85 Q-175.3 61.8 -180.0 59.05 L-179.65 58.1 -174.5 57.75 Q-185.3 53.95 -189.5 48.25 L-190.1 47.8 -193.1 44.8 -191.85 43.55 Q-189.35 46.95 -182.15 48.85 -188.75 45.05 -190.9 36.8 L-189.5 35.95 Q-187.1 41.15 -176.3 43.8 L-170.25 44.35 Q-167.5 44.2 -165.3 43.25 -150.05 36.25 -146.2 21.15 L-145.5 18.35 -144.9 14.3 -144.75 14.3 -144.8 13.75 -144.8 13.7 -144.8 13.65 -144.7 14.05 -143.0 19.55 Q-137.95 21.4 -135.3 21.55 L-136.9 22.05 -138.7 22.55 -137.5 23.15 Q-134.05 24.9 -131.6 27.55 L-134.85 26.7 -138.25 25.8 -138.65 25.7 Q-139.95 25.0 -141.4 24.6 L-145.15 23.95 Q-145.8 24.6 -146.05 25.6 L-146.1 25.9 -146.15 26.1 -146.05 28.25 -145.85 28.4 Q-143.55 31.4 -141.8 32.25 L-137.95 32.3 -136.3 33.0 Q-137.05 47.95 -148.7 63.15 L-148.75 63.15 M-144.8 13.75 L-144.7 14.05 -144.8 13.75 M-162.8 44.95 Q-166.0 47.25 -170.2 48.2 L-173.1 48.65 -170.2 48.2 Q-166.0 47.25 -162.8 44.95 M-167.05 49.6 Q-164.25 47.75 -162.15 45.4 -164.25 47.75 -167.05 49.6 M-179.7 52.6 Q-185.3 51.35 -189.5 48.25 -185.3 51.35 -179.7 52.6 M-175.85 50.15 L-182.15 48.85 -175.85 50.15 M-174.5 57.75 L-173.9 58.0 -174.5 57.75 M-164.85 61.3 L-167.65 61.75 -164.85 61.3" fill="url(#gradient9)" fill-rule="evenodd" stroke="none"/>
    <path d="M-145.8 64.05 L-152.9 68.25 -148.7 63.15 Q-137.05 47.95 -136.3 33.0 L-135.15 33.55 -133.8 33.4 -133.65 33.6 -131.15 36.65 Q-125.55 46.6 -131.45 54.65 L-134.15 55.5 -135.4 54.95 -138.0 54.95 -142.15 56.35 -143.2 57.95 -143.25 58.0 -143.2 58.0 -142.95 59.95 -142.85 60.05 Q-144.55 61.9 -145.8 64.05 M-170.25 44.35 Q-180.6 41.2 -183.3 37.35 L-181.35 37.35 Q-156.75 47.1 -146.2 21.15 -150.05 36.25 -165.3 43.25 -167.5 44.2 -170.25 44.35 M-144.9 14.3 L-144.8 13.7 -144.8 13.75 -144.75 14.3 -144.9 14.3 M-134.85 26.7 Q-131.15 29.75 -130.05 31.85 L-134.75 28.4 -134.95 28.3 -138.3 25.9 -138.25 25.8 -134.85 26.7" fill="url(#gradient10)" fill-rule="evenodd" stroke="none"/>
    <path d="M-144.15 14.6 L-144.7 14.05 -144.8 13.65 -144.15 14.6" fill="#780404" fill-rule="evenodd" stroke="none"/>
    <path d="M-134.15 55.5 L-133.75 55.65 -133.7 56.15 -133.7 56.5 -135.45 58.05 Q-137.15 59.3 -140.1 59.55 L-142.1 58.95 -142.05 58.15 -142.05 58.0 -143.2 58.0 -143.2 57.95 -142.15 56.35 -138.0 54.95 -135.4 54.95 -134.15 55.5 -135.45 55.85 -137.65 56.55 -138.8 56.45 -139.4 57.05 -139.95 57.45 -142.05 58.15 -139.95 57.45 -139.7 57.35 -139.85 57.55 -137.8 57.55 -136.4 56.65 -135.8 56.2 -134.15 55.5" fill="#b5a66c" fill-rule="evenodd" stroke="none"/>
    <path d="M-133.7 56.15 L-133.35 57.45 -133.3 57.7 -134.9 59.35 -135.35 59.15 -136.25 59.25 -136.65 60.15 -136.35 60.3 Q-138.4 61.25 -141.1 61.25 L-142.85 60.05 -142.95 59.95 -143.2 58.0 -142.05 58.0 -142.05 58.15 -142.1 58.95 -140.1 59.55 Q-137.15 59.3 -135.45 58.05 L-133.7 56.5 -133.7 56.15 M-131.05 65.05 Q-130.75 66.05 -129.75 66.85 L-129.15 67.25 -128.65 66.95 -127.7 67.8 -127.45 67.9 -126.3 68.0 Q-124.25 68.0 -122.85 66.85 L-122.05 66.1 -122.0 66.15 -122.55 67.65 -124.85 68.75 -127.25 68.65 -129.55 68.0 -131.1 66.5 -131.05 65.05" fill="#80914b" fill-rule="evenodd" stroke="none"/>
    <path d="M-137.65 56.55 L-135.45 55.85 -134.15 55.5 -135.8 56.2 -135.45 55.85 -135.8 56.2 -136.6 56.6 -137.65 56.55" fill="#ccbd86" fill-rule="evenodd" stroke="none"/>
    <path d="M-143.2 57.95 L-143.2 58.0 -143.25 58.0 -143.2 57.95" fill="#ffffff" fill-rule="evenodd" stroke="none"/>
    <path d="M-140.6 97.4 L-146.05 91.9 Q-148.05 86.65 -147.2 81.1 L-146.45 77.8 -145.25 77.05 Q-138.5 73.2 -128.6 76.05 L-121.65 79.05 Q-112.95 83.85 -105.9 86.85 -100.5 89.1 -96.05 90.3 L-88.9 91.75 -86.7 94.05 -86.35 94.6 -84.0 97.05 Q-95.65 97.0 -117.8 83.45 L-118.25 83.3 Q-126.4 78.05 -133.6 76.65 -136.05 80.6 -134.0 85.2 -128.5 84.55 -121.1 91.55 -130.45 85.9 -141.3 87.65 -143.2 88.5 -144.1 89.6 -141.8 93.15 -140.6 97.4 M-144.55 90.4 L-144.1 89.6 -144.55 90.4" fill="url(#gradient11)" fill-rule="evenodd" stroke="none"/>
    <path d="M-116.25 154.2 L-159.2 154.2 -157.05 151.15 Q-136.55 121.9 -124.55 114.1 -121.7 112.3 -119.05 111.2 -113.6 109.8 -111.55 111.2 L-110.8 112.0 -110.75 112.05 -110.75 112.1 Q-116.3 109.85 -125.45 116.55 -125.3 119.9 -114.85 118.8 -110.05 115.6 -107.2 115.35 L-105.2 115.4 -103.85 115.65 -103.1 115.7 -101.15 119.35 Q-98.2 119.95 -96.75 122.55 L-104.4 122.95 Q-106.6 124.55 -108.75 128.3 L-110.0 130.75 -111.85 135.15 -113.9 141.2 Q-115.0 145.25 -115.6 148.9 L-116.25 154.2 M-102.15 119.25 L-101.65 119.3 -101.15 119.35 -101.65 119.3 -102.15 119.25 -104.45 117.7 -105.05 117.3 Q-107.85 117.0 -111.95 120.2 -105.6 118.95 -102.15 119.25 M-118.35 126.5 Q-114.8 122.45 -111.95 120.2 -114.8 122.45 -118.35 126.5 M-104.4 122.95 Q-102.45 121.5 -100.4 121.7 -102.45 121.5 -104.4 122.95" fill="url(#gradient12)" fill-rule="evenodd" stroke="none"/>
    <path d="M-159.2 154.2 L-167.15 154.2 -167.15 124.1 -152.6 115.85 -150.9 114.9 -150.15 114.45 Q-141.8 109.6 -133.15 107.1 L-127.5 106.55 Q-133.8 111.35 -122.95 111.15 L-122.4 111.0 Q-113.6 107.6 -109.0 111.9 L-107.6 114.6 Q-109.65 113.65 -110.75 112.1 L-110.75 112.05 -110.8 112.0 -111.55 111.2 Q-113.6 109.8 -119.05 111.2 -121.7 112.3 -124.55 114.1 -136.55 121.9 -157.05 151.15 L-159.2 154.2" fill="url(#gradient13)" fill-rule="evenodd" stroke="none"/>
    <path d="M-102.15 119.25 Q-105.6 118.95 -111.95 120.2 -107.85 117.0 -105.05 117.3 L-104.45 117.7 -102.15 119.25" fill="#94855a" fill-rule="evenodd" stroke="none"/>
    <path d="M-84.45 139.55 Q-96.7 141.65 -113.9 141.2 L-111.85 135.15 Q-87.1 140.2 -53.05 130.85 L-52.65 130.65 Q-49.8 130.95 -46.65 128.45 L-46.6 128.5 -47.4 129.3 -47.65 129.55 -50.45 131.85 Q-52.25 133.2 -79.55 138.6 L-80.45 138.8 -84.45 139.55" fill="#3b3522" fill-rule="evenodd" stroke="none"/>
    <path d="M-92.2 123.6 Q-86.9 127.0 -77.3 127.85 -86.65 130.65 -93.65 128.25 -88.8 128.05 -92.2 123.6" fill="#6e6540" fill-rule="evenodd" stroke="none"/>
    <path d="M-51.6 107.15 L-50.6 105.35 -49.35 104.9 -49.05 104.9 Q-52.6 109.25 -51.05 113.9 L-50.95 114.15 -48.9 114.7 -49.5 116.7 -50.1 117.7 Q-51.4 115.6 -56.45 120.6 L-57.85 121.5 -58.05 121.7 Q-58.85 122.35 -59.45 123.6 L-60.35 126.45 -61.3 126.3 -62.65 126.5 -62.75 126.5 -62.95 126.6 -63.7 126.85 -62.6 122.8 Q-59.7 120.5 -56.45 118.9 -56.15 117.05 -53.5 115.65 L-53.7 112.7 -53.5 110.5 -51.6 107.15 M-51.3 114.65 Q-52.55 115.1 -53.5 115.65 -52.55 115.1 -51.3 114.65 M-54.9 118.2 L-56.45 118.9 -54.9 118.2" fill="url(#gradient14)" fill-rule="evenodd" stroke="none"/>
    <path d="M-48.55 113.4 Q-48.9 111.0 -48.2 108.45 -47.0 107.65 -46.05 107.2 -44.0 106.25 -42.75 106.85 L-42.65 107.45 -42.5 107.9 Q-45.7 107.8 -47.4 109.5 L-47.7 109.75 -47.0 114.3 -47.2 114.9 Q-48.2 117.9 -50.85 121.25 -54.5 121.9 -56.65 123.95 L-59.45 123.6 -56.65 123.95 Q-58.0 125.25 -58.8 127.2 L-59.4 126.85 -60.35 126.45 -59.45 123.6 Q-58.85 122.35 -58.05 121.7 L-57.85 121.5 -56.45 120.6 Q-54.55 119.65 -51.3 119.25 L-51.25 119.3 -51.05 119.2 -50.1 117.7 -49.5 116.7 -48.9 114.7 -48.55 113.45 -48.55 113.4 M-54.35 121.7 Q-53.25 120.4 -51.25 119.3 -53.25 120.4 -54.35 121.7" fill="url(#gradient15)" fill-rule="evenodd" stroke="none"/>
    <path d="M-47.65 129.55 L-47.4 129.5 -47.4 129.55 -47.65 129.55" fill="url(#gradient16)" fill-rule="evenodd" stroke="none"/>
    <path d="M-47.4 129.55 Q-47.05 132.45 -53.8 139.6 L-54.4 140.2 -54.6 140.35 -54.85 140.45 -55.6 140.9 Q-67.65 147.3 -79.55 138.6 -52.25 133.2 -50.45 131.85 L-47.65 129.55 -47.4 129.55" fill="url(#gradient17)" fill-rule="evenodd" stroke="none"/>
    <path d="M-46.55 128.45 L-46.6 128.5 -46.65 128.45 -46.55 128.45" fill="#332e1d" fill-rule="evenodd" stroke="none"/>
    <path d="M-124.25 -5.8 L-131.5 -6.25 Q-135.3 -4.95 -138.4 -3.25 L-138.7 -3.1 -140.0 -2.35 -138.35 -2.55 Q-134.4 -2.85 -130.05 -0.5 -126.5 1.55 -123.8 5.2 -120.5 9.55 -118.3 16.2 L-118.3 16.25 M-119.05 2.9 Q-120.6 -3.2 -123.8 -5.5 L-123.85 -5.5 -124.25 -5.8 -123.7 -5.6 Q-121.65 -5.05 -117.1 -2.35 L-116.25 -1.85 -114.45 -0.75 -113.95 -0.1 Q-113.25 0.85 -112.5 2.35 L-112.35 2.7 -111.7 4.0 -110.35 8.05 -110.1 8.3 -110.0 8.5 -110.1 9.6 -110.05 10.8 Q-105.0 11.9 -101.2 9.45 -97.25 6.95 -94.6 0.65 -90.75 -9.7 -93.75 -14.65 L-92.2 -15.35 Q-86.6 -8.95 -87.15 -1.35 -84.7 -8.4 -86.1 -12.3 L-84.35 -12.7 Q-83.75 -10.75 -83.6 -8.5 L-83.55 -7.8 Q-81.15 -1.1 -84.05 10.0 -81.95 8.2 -80.9 5.9 L-79.9 6.15 Q-80.3 12.8 -84.55 17.9 -81.3 15.65 -79.85 13.1 -79.35 20.95 -86.15 26.55 L-86.45 26.8 Q-81.95 26.7 -77.7 28.8 L-73.8 30.2 -73.55 30.15 -73.1 30.15 Q-72.05 25.2 -70.6 21.55 -68.8 17.15 -66.4 14.7 L-66.45 14.7 -67.45 12.85 -67.75 12.35 -68.05 11.8 -68.9 10.75 -68.95 10.65 Q-67.55 7.4 -65.1 4.3 L-64.95 4.3 M-62.95 3.9 L-62.35 3.65 -61.95 3.5 M-60.1 2.25 Q-54.45 -3.7 -48.85 -5.7 L-45.75 -5.35 -45.6 -5.35 -43.2 -4.55 -42.45 -4.2 -41.9 -3.85 -41.05 -3.25 M-40.85 -2.9 L-40.6 -2.5 -38.75 0.75 -36.75 3.25 -36.4 5.3 -35.5 7.6 -33.6 12.3 Q-31.6 16.75 -28.7 20.2 -23.4 29.1 -24.8 36.85 L-26.95 37.6 Q-27.4 41.8 -30.9 54.1 -31.95 58.85 -32.0 62.5 -23.8 70.7 -15.0 75.2 L-15.0 154.2 M-167.15 154.2 L-167.15 124.1 -152.6 115.85 M-150.9 114.9 L-150.15 114.45 Q-141.1 108.95 -140.55 98.85 L-140.6 97.4 -146.05 91.9 Q-148.05 86.65 -147.2 81.1 L-148.95 78.0 Q-149.3 69.9 -145.8 64.05 L-152.9 68.25 -148.75 63.15 Q-152.5 64.55 -159.6 65.4 L-160.1 65.45 Q-163.7 66.4 -166.85 66.05 L-169.85 65.4 Q-172.2 64.6 -174.3 63.0 L-169.9 62.5 -167.65 61.75 -169.9 61.85 Q-175.3 61.8 -180.0 59.05 L-179.65 58.1 -174.5 57.75 Q-185.3 53.95 -189.5 48.25 L-190.1 47.8 -193.1 44.8 -191.85 43.55 Q-189.35 46.95 -182.15 48.85 -188.75 45.05 -190.9 36.8 L-189.5 35.95 Q-187.1 41.15 -176.3 43.8 L-170.25 44.35 Q-180.6 41.2 -183.3 37.35 L-181.35 37.35 Q-156.75 47.1 -146.2 21.15 L-145.5 18.35 -144.9 14.3 -144.8 13.7 -144.8 13.65 Q-145.2 9.55 -143.75 4.45 -144.05 1.5 -142.6 -0.3 -141.8 -1.25 -140.0 -2.35 M-40.15 2.55 Q-40.1 3.8 -40.35 4.6 L-39.95 7.25 -39.8 10.25 -40.2 11.4 M-52.8 38.3 L-52.9 41.05 -52.45 44.65 -44.95 42.5 -42.85 41.9 -34.6 39.75 -33.75 39.55 -30.3 39.9 -29.85 39.4 -27.65 36.7 M-40.15 2.55 L-40.5 -0.35 M-41.45 13.25 L-41.85 13.75 -41.55 18.05 -41.45 19.8 -41.55 19.85 -42.6 20.5 Q-41.9 21.5 -41.2 23.3 -40.6 24.75 -40.05 26.75 M-37.1 35.75 Q-38.3 35.2 -39.25 34.5 L-39.35 34.4 Q-41.0 33.15 -41.95 31.45 M-52.25 32.75 L-52.35 33.5 -52.8 38.3 M-48.3 29.4 L-48.8 29.6 -51.5 30.6 -52.05 32.15 -52.25 32.75 M-52.35 32.75 L-52.6 33.45 Q-54.55 39.25 -52.7 49.05 L-52.85 44.7 -52.85 44.65 -52.9 41.05 M-34.6 39.75 Q-32.25 39.7 -31.35 41.55 -30.9 42.4 -30.8 43.7 -30.65 45.45 -31.15 48.0 L-31.25 49.0 -31.5 50.05 Q-32.85 56.8 -32.35 62.25 L-32.0 62.5 Q-32.0 64.85 -31.55 66.75 L-31.3 67.65 -28.9 74.2 -28.1 75.75 -23.95 83.6 -24.0 84.0 Q-24.6 92.0 -30.65 95.2 -29.05 94.3 -29.2 92.8 L-29.2 92.4 Q-29.85 84.55 -32.65 77.05 L-32.2 74.7 -31.55 71.7 Q-33.3 66.55 -33.3 61.0 L-37.05 55.4 Q-38.2 56.5 -39.7 56.85 L-41.15 57.05 Q-43.55 57.0 -45.25 55.3 -46.95 53.6 -46.95 51.2 -46.95 49.45 -46.15 48.1 L-45.25 47.05 Q-44.35 46.15 -43.3 45.75 L-44.95 42.5 M-36.05 48.25 L-37.0 47.05 Q-38.7 45.35 -41.15 45.35 L-43.3 45.75 M-35.55 49.45 L-36.05 48.25 Q-32.5 45.7 -31.35 41.55 M-35.55 49.45 Q-32.7 47.9 -30.8 43.7 M-26.95 37.6 Q-26.0 29.2 -27.25 26.3 M-40.85 1.9 L-40.95 1.6 M-56.7 9.8 L-56.2 10.85 -56.4 11.75 -58.1 16.4 -58.2 16.6 -57.9 19.0 -56.0 20.35 -54.9 19.65 -53.6 20.75 Q-50.85 21.15 -49.9 20.35 M-54.1 18.3 Q-52.55 13.6 -50.9 12.2 M-53.75 0.95 Q-56.6 4.3 -57.8 4.75 L-58.1 4.85 -58.2 4.85 Q-56.2 5.2 -56.05 7.95 M-60.35 6.05 Q-57.75 4.75 -56.7 8.1 M-58.95 4.8 L-58.3 4.85 -58.2 4.85 M-59.6 4.7 L-59.25 4.8 M-58.95 13.65 L-58.5 12.55 M-57.75 10.75 Q-57.8 9.9 -57.45 9.45 L-57.05 9.05 -56.7 9.75 M-56.2 10.85 L-57.75 10.75 M-57.6 9.45 L-58.6 9.0 Q-59.15 5.85 -62.15 8.05 L-63.75 12.45 Q-63.8 13.05 -64.0 13.5 L-64.5 14.25 -65.05 15.2 -66.05 14.75 -66.35 14.6 -66.4 14.7 M-59.45 14.7 L-59.25 14.35 -59.15 14.15 Q-58.9 14.95 -59.45 15.75 -59.95 16.6 -61.35 17.45 -63.75 18.25 -65.3 15.65 L-65.1 15.35 Q-68.85 20.3 -69.55 28.95 L-69.45 29.2 -69.1 30.15 Q-65.85 30.4 -63.85 31.4 L-63.5 31.6 Q-58.8 31.5 -54.05 30.15 -52.9 28.65 -52.05 28.1 L-49.65 29.2 -48.8 29.6 M-59.15 14.05 L-59.1 14.0 -59.1 13.9 -59.05 13.8 -58.95 13.65 M-60.75 6.3 L-61.75 7.05 -62.15 8.05 M-61.35 17.45 L-60.75 16.75 -59.45 14.7 M-54.1 18.3 L-54.4 19.35 -54.9 19.65 M-45.85 16.5 L-45.85 16.45 M-45.9 16.25 L-46.05 14.6 -46.85 15.0 Q-47.55 18.05 -46.65 19.8 L-43.75 21.2 -42.6 20.5 M-46.05 14.6 L-46.15 13.75 Q-46.7 13.95 -47.35 14.4 -48.85 17.25 -49.9 20.3 M-46.8 13.35 L-47.35 14.4 M-46.15 13.75 Q-44.7 13.1 -43.8 13.5 M-45.25 19.1 L-45.85 16.5 Q-46.6 17.65 -46.35 19.0 M-67.75 12.35 L-67.75 12.3 Q-67.8 10.45 -66.3 10.75 -64.85 12.4 -65.45 13.7 M-63.75 12.45 L-63.65 11.55 Q-63.2 9.55 -65.45 7.6 M-65.1 15.35 L-65.1 15.3 -65.05 15.3 -65.05 15.2 M-65.1 15.35 L-65.05 15.3 M-66.05 14.75 L-66.0 14.75 -65.25 14.7 -65.2 14.65 -64.5 14.25 M-68.6 31.3 L-67.8 32.75 Q-64.6 32.3 -62.45 33.35 L-62.2 34.45 -62.1 34.75 -61.7 36.4 -61.7 36.45 -61.1 38.6 -61.25 38.75 -62.7 40.85 -62.35 40.95 -60.55 41.75 -60.3 41.9 Q-58.75 42.75 -57.65 43.95 L-57.6 44.1 -56.25 46.0 -60.85 54.55 Q-63.75 58.55 -62.75 59.65 L-65.5 59.5 -67.8 59.1 -67.95 59.05 Q-71.9 58.15 -75.4 56.05 L-76.15 55.6 Q-77.1 54.5 -78.25 52.3 L-80.6 46.7 -80.7 46.4 -81.35 46.85 -81.8 47.2 -83.95 48.8 -86.75 51.15 -89.05 53.35 -89.6 53.9 -92.5 57.25 -94.45 59.85 -96.2 62.5 -97.45 64.75 -97.6 65.15 -97.75 65.65 -97.9 66.2 -97.85 66.4 Q-95.9 71.95 -92.25 74.75 L-89.55 77.55 -87.85 79.15 -87.8 79.15 Q-88.15 75.45 -87.75 72.0 M-57.45 35.55 L-57.0 34.75 M-56.1 33.25 L-55.9 32.95 -54.05 30.15 M-67.8 32.75 L-64.8 36.8 -63.25 38.3 -63.2 38.35 Q-62.55 37.8 -62.25 37.1 L-62.05 36.45 Q-61.9 35.7 -62.1 34.75 M-68.6 31.3 L-63.5 31.6 M-69.1 30.15 L-68.6 31.3 M-71.6 37.05 L-73.75 33.95 -73.75 33.7 -73.65 33.1 Q-75.0 33.65 -76.45 34.6 -78.5 35.95 -80.65 38.05 L-80.75 38.6 -79.9 41.15 -79.45 42.3 -79.1 43.25 Q-76.9 38.45 -71.6 37.05 L-69.5 40.15 -67.7 41.4 -65.7 42.8 -62.55 41.1 -62.35 40.95 M-73.5 32.15 L-73.65 33.1 M-76.45 34.6 Q-75.1 33.0 -73.5 32.15 L-73.1 30.15 M-80.75 38.6 L-80.9 38.25 -80.65 38.05 M-79.1 43.25 L-78.4 44.9 -78.25 44.85 Q-74.2 42.3 -69.5 40.15 M-87.75 71.95 L-87.75 71.9 Q-87.4 69.2 -86.7 66.65 -84.45 58.95 -78.25 52.3 M-71.85 50.85 L-73.85 49.5 Q-76.85 47.25 -78.25 44.85 M-71.2 48.65 L-67.8 47.6 Q-66.35 48.1 -65.75 50.65 L-63.15 50.25 -62.7 50.15 Q-54.95 48.15 -57.6 44.1 M-42.0 31.3 L-42.5 30.15 -42.05 27.95 Q-45.1 28.35 -48.3 29.4 M-49.65 29.2 L-49.7 29.2 Q-50.85 29.35 -51.5 30.6 M-52.35 32.75 L-52.05 32.15 M-56.25 46.0 L-56.5 45.55 -57.65 43.95 M-65.95 61.7 Q-62.85 62.0 -59.3 63.85 -57.45 60.75 -54.85 58.25 L-54.45 58.65 Q-52.85 60.3 -53.4 61.65 L-53.45 61.8 Q-56.1 62.9 -58.1 64.9 L-55.65 66.4 -55.6 66.45 Q-54.05 68.8 -54.0 69.85 L-54.0 70.1 Q-54.15 71.1 -56.1 70.55 L-56.95 73.05 -60.6 70.55 Q-63.8 71.65 -66.05 65.7 L-66.4 65.35 -66.45 64.8 Q-66.65 63.85 -67.9 62.95 L-68.35 62.6 Q-68.9 62.2 -69.65 61.85 L-68.25 61.65 -67.85 61.6 -65.95 61.7 M-46.6 86.55 Q-45.8 84.6 -46.0 81.6 L-46.0 81.35 -46.0 81.25 -46.05 81.15 -46.3 79.35 -46.5 78.8 Q-47.5 74.65 -48.65 72.65 L-48.7 72.55 -48.85 72.25 -49.15 71.8 -49.45 71.45 M-42.05 27.95 L-41.2 23.3 M-70.6 21.55 Q-70.1 27.25 -69.55 28.95 M-45.1 51.85 L-45.1 53.35 -44.4 54.55 -43.75 53.4 -45.1 51.85 M-52.7 49.05 L-51.85 52.9 -50.85 56.75 Q-50.0 59.55 -49.25 62.75 M-54.45 58.65 L-55.5 60.8 -53.4 61.65 M-59.3 63.85 L-61.2 67.5 -60.4 68.0 -60.35 67.95 Q-59.35 66.25 -58.1 64.9 M-60.35 67.95 Q-57.55 70.15 -56.8 67.35 M-52.45 44.65 Q-50.8 54.1 -44.4 66.3 -43.3 68.35 -42.6 70.55 L-42.3 71.35 Q-37.7 85.3 -39.6 98.1 L-39.6 98.15 -39.55 98.15 -39.55 98.1 Q-37.65 97.05 -36.15 97.4 L-35.85 97.75 Q-35.7 98.15 -35.95 98.8 -38.0 103.0 -38.7 108.95 L-36.7 107.05 -34.55 103.75 Q-29.8 101.4 -27.65 102.8 L-27.7 103.4 -27.75 103.85 -31.55 106.75 -35.55 112.4 -37.1 115.7 M-37.35 116.15 L-38.8 119.25 -39.45 121.85 -41.55 123.75 -42.85 125.0 Q-44.45 131.45 -51.05 139.45 -64.85 151.9 -84.45 139.55 -96.7 141.65 -113.9 141.2 -115.0 145.25 -115.6 148.9 L-116.25 154.2 M-60.85 54.55 Q-62.75 57.05 -68.4 55.55 M-65.75 50.65 L-71.45 50.9 -71.75 50.9 -71.85 50.85 M-61.2 67.5 Q-65.15 65.85 -64.55 64.6 M-73.3 91.5 L-71.1 92.25 -65.9 92.8 -70.8 90.15 Q-60.95 93.55 -54.35 91.9 -52.1 91.3 -50.3 90.2 L-48.15 88.65 Q-47.15 87.8 -46.6 86.55 M-83.05 83.15 Q-80.0 85.4 -77.15 86.7 L-74.2 87.85 Q-75.65 88.6 -75.75 89.4 L-75.5 90.15 Q-74.95 90.8 -73.3 91.5 M-65.35 93.1 L-65.9 92.8 M-44.8 84.6 Q-44.4 82.4 -44.4 80.15 L-44.35 79.85 -45.7 77.15 -46.95 74.85 Q-48.05 73.0 -48.65 72.65 M-46.3 79.35 L-46.0 81.25 M-52.85 98.6 L-51.4 97.15 Q-47.2 92.35 -45.5 87.25 L-44.8 84.6 M-49.3 107.9 Q-50.3 110.9 -49.6 113.5 L-49.6 113.55 -48.55 113.4 Q-48.9 111.0 -48.2 108.45 -47.0 107.65 -46.05 107.2 -44.15 102.75 -40.75 101.05 L-39.6 98.15 M-49.05 63.65 Q-47.9 68.8 -46.95 74.85 M-37.05 55.4 L-37.0 55.3 Q-35.25 53.6 -35.3 51.2 -35.25 50.25 -35.55 49.45 M-31.5 50.05 Q-33.2 55.7 -33.3 61.0 M-31.55 66.75 L-32.35 62.25 M-30.3 75.2 Q-29.2 80.45 -29.2 92.4 M-30.3 75.2 Q-30.8 72.7 -31.55 71.7 M-40.3 11.55 L-41.45 13.25 M-73.85 49.5 L-71.2 48.65 M-40.35 4.6 L-40.8 2.25 M-92.4 6.05 Q-96.35 10.7 -101.2 12.5 L-105.55 13.5 -101.2 13.3 Q-98.1 12.85 -95.0 11.6 M-84.55 17.9 L-86.55 20.0 M-84.05 10.0 L-84.2 10.6 M-110.1 8.3 L-110.15 8.3 Q-111.55 9.2 -113.15 11.6 -113.45 13.4 -112.4 14.7 M-111.5 16.4 Q-110.35 16.7 -112.5 17.95 L-113.0 18.2 -112.45 18.1 -110.95 17.9 M-109.2 16.0 L-109.95 12.6 Q-110.0 13.5 -111.2 14.65 M-110.05 11.2 L-110.05 11.9 -110.05 12.0 -109.95 12.6 M-110.05 10.8 L-110.05 11.2 Q-109.35 11.15 -108.9 12.2 L-108.85 12.45 Q-107.9 13.2 -105.55 13.5 M-116.25 -1.85 Q-115.1 -1.05 -114.45 0.35 L-113.95 1.85 Q-113.75 2.7 -113.7 3.75 L-114.55 8.65 Q-115.15 11.45 -116.1 14.35 L-116.3 15.0 -116.45 15.4 -116.55 15.7 -116.7 16.15 -116.35 16.3 -116.75 16.25 -116.7 16.15 M-119.05 2.9 L-118.6 4.9 Q-117.45 10.3 -117.6 15.35 L-117.45 15.85 -117.25 16.2 -116.75 16.25 M-116.35 16.3 L-115.9 16.5 -113.15 11.6 M-115.45 18.9 L-116.05 17.95 -116.1 17.85 -116.35 17.4 -117.8 17.4 M-113.0 18.2 L-113.6 18.4 -115.2 18.8 -115.25 18.8 -115.45 18.9 -115.1 19.3 -114.15 19.25 -113.35 19.55 Q-110.25 20.7 -107.9 20.65 L-109.2 16.0 M-123.7 17.4 L-123.3 17.5 -121.5 18.05 -120.65 18.55 Q-120.0 18.85 -119.4 19.1 L-119.0 18.5 -119.1 17.9 M-119.2 17.45 L-119.3 17.3 Q-121.85 14.0 -126.35 11.0 L-127.45 10.2 Q-128.6 9.5 -129.7 8.9 -135.85 5.2 -138.8 4.05 -142.55 2.7 -143.75 4.45 M-132.25 14.75 Q-128.1 15.25 -124.05 17.25 L-124.0 17.25 -123.7 17.4 -123.95 17.45 Q-124.1 17.45 -124.2 17.6 L-122.5 18.0 -122.75 17.85 -123.3 17.5 M-119.1 17.4 L-118.7 17.1 -118.5 16.95 M-119.1 17.4 L-119.2 17.45 M-118.75 21.05 L-118.75 21.15 Q-117.0 23.35 -116.85 25.5 L-116.95 25.8 M-113.05 25.5 L-114.05 23.3 -114.2 22.95 -114.25 22.7 -114.75 21.15 -114.9 20.8 -115.15 19.4 -115.1 19.3 M-118.75 21.05 L-119.0 18.5 M-120.4 20.05 L-119.7 20.05 -119.85 20.8 -119.55 21.9 -119.8 22.25 -120.45 27.9 -120.5 30.35 -120.35 33.6 -119.95 36.75 -119.95 36.9 -119.75 38.05 -119.45 38.8 -119.05 39.75 Q-118.1 41.75 -116.5 43.25 L-116.55 43.25 Q-118.55 46.4 -121.6 48.8 M-117.9 31.2 L-118.15 30.7 -118.35 29.8 -118.35 28.9 -118.15 28.4 M-127.0 28.75 Q-124.95 25.8 -122.45 23.25 L-120.1 21.7 -120.0 21.35 -119.85 20.8 M-121.15 20.8 L-122.1 21.55 -122.5 21.75 Q-125.65 23.85 -129.85 25.2 M-128.05 30.2 L-127.45 29.3 -127.0 28.75 M-123.0 29.0 L-122.95 28.9 -121.8 24.95 -119.8 22.25 M-107.85 20.8 L-106.95 23.25 -106.85 23.55 Q-106.45 25.95 -107.55 28.25 L-107.55 28.3 -107.95 30.5 -107.8 30.6 Q-106.95 31.2 -105.75 31.65 L-104.8 31.9 Q-104.0 30.95 -102.75 30.25 -101.05 29.25 -99.4 29.25 L-98.7 29.3 -98.7 29.85 -98.7 29.9 -97.55 30.15 Q-91.8 26.9 -86.45 26.8 M-110.0 25.0 L-108.55 26.2 -107.55 28.25 M-107.9 20.65 L-107.85 20.8 Q-106.8 17.55 -108.85 12.45 M-111.1 27.5 L-111.3 27.65 -111.4 27.7 -111.5 27.8 -111.55 27.85 Q-112.75 28.65 -115.0 29.1 L-116.75 29.35 Q-118.2 30.0 -118.15 30.7 M-112.35 29.45 L-111.9 29.0 -111.4 28.2 -111.25 27.9 -111.15 27.75 -111.15 27.7 -111.1 27.5 -111.05 27.2 Q-111.75 27.0 -112.4 26.4 L-112.45 26.3 -113.05 25.5 M-110.25 31.9 L-109.7 34.2 -109.2 38.3 -109.05 39.3 -108.45 39.7 -108.35 39.75 -108.35 39.6 -108.4 39.15 -108.45 35.7 -108.45 34.95 -108.45 34.8 -108.05 31.15 -107.95 30.5 M-102.55 39.1 L-100.15 39.1 -100.0 39.1 -99.9 39.1 -94.8 38.7 -94.2 38.6 -93.95 39.65 -93.85 39.85 -93.5 40.35 -92.75 40.2 -92.55 40.15 -91.15 39.45 -91.15 39.4 -91.15 38.1 -89.95 37.35 -88.05 37.5 -87.05 37.05 -87.25 38.8 -89.6 39.4 -91.15 39.4 M-95.25 37.6 L-97.65 37.6 -93.7 36.85 -93.45 36.8 -93.2 36.7 -91.45 36.45 -91.6 36.0 -91.75 35.6 -91.85 35.4 -92.05 34.9 -93.65 35.3 -96.0 34.3 -96.1 34.35 -97.65 35.0 -99.85 35.45 -100.0 35.5 -97.85 35.6 -97.6 35.35 -97.6 35.15 -97.65 35.0 M-101.2 33.45 L-102.55 33.75 -101.45 33.75 -101.2 33.45 -97.2 32.35 -96.35 32.0 -94.25 31.05 -96.2 29.75 -97.2 30.25 -97.2 30.3 -97.25 30.25 Q-98.8 31.0 -100.5 31.55 L-100.95 31.65 -101.05 31.7 -102.45 31.95 -103.2 32.0 -104.8 31.9 M-100.5 31.45 L-100.55 31.2 -100.6 31.25 -102.3 31.7 -102.45 31.95 M-110.25 31.9 L-110.85 29.2 -111.4 28.2 M-112.35 29.45 L-112.75 29.8 -113.15 30.05 -113.35 30.55 -113.45 30.75 M-113.5 31.1 L-113.3 31.95 M-111.15 33.25 Q-113.95 33.6 -118.05 36.05 L-118.75 36.65 M-113.55 36.85 L-113.9 41.0 -114.2 45.15 M-113.55 36.85 L-113.55 36.8 Q-114.3 37.0 -115.7 38.5 M-112.45 36.45 L-113.55 36.8 -113.45 36.85 -110.6 39.4 -111.45 37.7 -109.05 39.3 M-117.1 31.5 Q-116.15 30.3 -114.85 30.05 M-113.9 41.0 L-114.4 39.25 -115.5 41.6 -116.5 43.25 M-108.35 39.6 L-107.85 39.75 -102.45 40.8 -102.0 40.8 M-91.65 41.15 L-91.6 40.5 -92.75 40.55 -93.25 40.6 -93.5 40.6 -97.3 40.35 -97.75 40.3 -101.55 39.3 -102.55 39.1 M-110.6 39.4 L-109.9 40.05 M-106.8 46.0 L-108.15 43.85 M-104.05 46.35 L-103.5 47.05 -102.65 48.0 Q-99.5 49.7 -96.65 49.7 L-101.35 46.85 -102.5 46.15 M-87.05 37.05 L-86.2 36.7 -86.35 36.7 -86.1 35.95 Q-87.4 35.2 -89.2 35.2 L-91.4 35.5 -91.75 35.6 M-86.2 36.7 L-84.9 36.85 Q-84.4 37.45 -84.25 38.1 L-84.2 38.6 -84.2 38.8 -84.1 40.75 -86.0 42.5 -84.6 45.9 Q-83.0 46.1 -81.8 47.2 M-97.35 30.2 L-97.25 30.25 -97.2 30.25 -97.35 30.15 -97.35 30.2 -97.55 30.15 -100.5 31.45 -100.5 31.55 M-98.7 29.85 L-98.75 29.9 -100.55 31.2 M-97.2 32.35 L-97.4 32.7 -97.6 33.05 -97.95 33.55 -96.3 33.3 -96.25 32.2 -96.35 32.0 M-100.95 31.65 L-100.5 31.45 M-96.25 34.15 L-97.7 34.5 -99.25 34.7 -99.95 34.8 -101.75 34.8 M-100.85 35.6 L-100.0 35.5 M-97.5 35.2 L-97.6 35.35 M-97.85 35.6 L-96.55 35.6 -97.5 35.2 -97.6 35.15 M-96.3 33.3 L-93.95 32.85 -93.2 32.6 -91.15 32.3 -93.05 33.1 -93.85 33.4 -95.6 34.0 -96.0 34.3 -96.25 34.15 -95.6 34.0 M-93.45 36.8 L-93.55 36.9 -93.95 37.55 -91.35 37.15 -91.35 37.95 -91.35 38.05 -94.2 38.6 M-93.7 36.85 L-93.55 36.9 M-96.55 35.6 L-93.65 35.3 M-93.95 37.55 L-95.25 37.6 M-91.65 41.15 L-91.7 41.55 -89.2 42.0 Q-87.15 42.0 -85.7 41.0 -84.3 40.1 -84.2 38.8 L-84.25 38.1 M-93.25 40.6 L-93.5 40.35 M-91.8 42.65 L-91.8 43.05 -97.6 42.25 -96.7 42.7 -94.8 43.3 -92.85 43.65 -93.25 44.95 -90.9 45.9 -93.05 46.0 -93.65 46.4 -92.35 50.15 -92.55 55.1 -91.1 52.05 -89.85 47.4 -90.4 47.05 -90.4 44.8 -88.75 44.75 -89.25 43.35 -91.8 42.65 -91.7 41.55 M-92.75 40.2 L-92.75 40.55 M-93.85 39.85 L-93.5 40.6 M-93.65 46.4 L-94.5 46.8 Q-97.0 47.7 -101.35 46.85 M-93.05 46.0 L-93.65 46.0 -94.55 46.0 Q-98.55 45.85 -102.65 44.4 M-86.0 42.5 L-86.1 42.25 -86.8 42.0 -87.35 42.4 -87.15 42.9 -86.1 45.9 -85.25 45.85 -84.6 45.9 M-87.15 42.9 L-89.1 43.4 -89.25 43.35 M-88.6 49.05 L-88.65 49.05 -86.75 51.15 M-88.6 49.05 L-89.8 48.6 -89.95 49.7 -88.65 49.05 M-89.8 48.6 Q-89.45 47.85 -88.75 47.25 -87.6 46.15 -86.1 45.9 M-83.95 48.8 L-85.8 48.4 -88.15 49.2 -88.6 49.05 M-81.35 46.85 L-81.05 45.45 -81.95 42.9 -80.75 38.6 M-110.0 25.0 L-114.75 21.15 M-101.45 33.75 L-97.95 33.55 M-131.95 17.55 L-129.0 17.3 -124.2 17.6 M-131.95 17.55 L-133.95 17.9 M-136.9 22.05 L-138.7 22.55 -137.5 23.15 Q-134.05 24.9 -131.6 27.55 L-134.85 26.7 Q-131.15 29.75 -130.05 31.85 L-134.75 28.4 M-141.4 24.6 L-145.15 23.95 Q-145.8 24.6 -146.05 25.6 L-146.1 25.9 -146.15 26.1 -146.05 28.25 -145.85 28.4 Q-143.55 31.4 -141.8 32.25 L-137.95 32.3 -136.3 33.0 -135.15 33.55 -133.8 33.4 -133.65 33.6 -131.15 36.65 Q-125.55 46.6 -131.45 54.65 L-134.15 55.5 -133.75 55.65 -133.65 55.65 -133.7 56.15 -133.35 57.45 -132.1 57.65 -132.25 57.05 -130.55 56.75 -130.5 56.7 Q-128.85 56.2 -127.6 54.95 L-126.9 54.1 Q-126.0 52.95 -125.35 51.35 L-125.3 51.2 Q-123.9 47.7 -124.1 44.2 -124.6 41.95 -125.8 39.8 -126.9 39.5 -126.85 39.8 -128.85 36.25 -132.5 32.55 L-133.9 31.2 M-136.9 22.05 L-135.4 22.25 -135.25 22.25 -130.9 21.9 -129.3 21.4 -129.1 21.1 -128.7 20.4 M-144.7 14.05 L-143.0 19.55 Q-137.95 21.4 -135.3 21.55 L-136.9 22.05 M-132.25 14.75 Q-135.25 14.35 -138.3 14.8 L-144.15 14.6 -144.7 14.05 -144.8 13.75 -144.75 14.3 M-122.5 18.0 L-122.15 18.15 -122.05 18.15 -121.9 18.2 -120.65 18.55 M-122.5 18.0 L-122.2 18.35 -122.15 18.45 -122.05 18.65 -122.15 19.0 -121.95 19.5 M-128.55 19.65 Q-129.3 18.75 -129.0 17.3 M-129.1 21.1 L-128.6 21.85 -128.95 22.45 -128.7 22.7 -127.5 22.9 Q-124.15 22.5 -122.5 21.75 M-144.8 13.7 L-144.8 13.75 M-144.7 14.05 L-144.8 13.65 M-135.85 30.75 L-137.9 30.35 -138.25 28.35 -138.6 28.15 Q-140.4 27.1 -142.4 26.6 L-143.1 26.4 Q-143.9 27.45 -142.0 30.5 M-144.9 26.15 L-143.1 26.4 M-132.5 32.55 Q-131.1 33.85 -129.95 33.35 L-129.35 32.3 -128.05 30.2 M-124.35 34.9 L-124.25 34.35 -123.0 29.0 M-134.95 28.3 L-138.3 25.9 -138.65 25.7 Q-139.95 25.0 -141.4 24.6 M-138.25 25.8 L-138.65 25.7 M-134.85 26.7 L-138.25 25.8 M-124.35 34.9 L-124.95 39.05 -125.4 39.9 -124.55 40.15 Q-120.95 41.2 -116.55 43.25 M-125.4 39.9 L-125.8 39.8 M-124.55 40.15 L-124.1 44.2 M-123.3 53.75 L-122.3 51.65 M-132.1 57.65 L-131.35 59.8 -130.35 59.5 -129.0 58.95 -128.45 58.7 -128.15 58.55 -127.7 58.3 -126.85 57.7 -125.5 56.6 -125.05 56.15 -123.85 54.6 M-128.5 60.8 Q-129.15 61.0 -129.75 61.45 L-130.1 61.75 -131.0 63.05 -131.15 63.75 -131.05 65.05 Q-130.75 66.05 -129.75 66.85 L-129.15 67.25 -128.65 66.95 -128.4 66.85 -128.2 66.3 -127.7 65.35 -128.35 64.35 -127.4 62.75 -125.85 62.35 -125.5 61.75 -125.05 61.05 -124.75 60.55 -126.3 60.4 -126.6 60.4 -127.5 61.3 -128.25 60.9 -128.5 60.8 -128.75 60.65 -126.95 58.9 -128.15 58.55 M-124.25 60.9 L-124.45 61.75 -122.25 62.0 -120.3 62.25 -117.9 62.45 -117.85 61.8 -117.8 61.8 -113.65 62.4 -113.3 62.45 Q-112.4 61.7 -111.25 61.5 L-112.9 56.1 -113.95 52.7 -113.95 60.1 -115.0 55.25 Q-114.75 58.1 -114.65 61.75 L-116.4 61.85 -117.6 55.0 -117.85 61.8 M-124.25 60.9 L-125.05 61.05 M-125.55 59.35 L-122.95 56.6 -123.95 59.85 -124.25 60.9 M-123.95 59.85 L-125.55 59.35 -126.6 60.4 M-126.95 58.9 Q-126.1 57.85 -125.5 56.6 M-134.15 55.5 L-135.4 54.95 -138.0 54.95 -142.15 56.35 -143.2 57.95 -143.2 58.0 -142.05 58.0 -142.05 58.15 -139.95 57.45 -139.4 57.05 -138.8 56.45 -137.65 56.55 -135.45 55.85 -134.15 55.5 -135.8 56.2 -136.4 56.65 -137.8 57.55 -139.85 57.55 -139.7 57.35 -139.95 57.45 M-139.7 57.35 L-139.4 57.05 M-133.7 56.15 L-133.7 56.5 -135.45 58.05 Q-137.15 59.3 -140.1 59.55 L-142.1 58.95 -142.05 58.15 M-134.9 59.35 L-133.3 57.7 -133.35 57.45 M-135.45 55.85 L-135.8 56.2 -136.6 56.6 -136.4 56.65 M-134.9 59.35 L-135.35 59.15 -136.25 59.25 -136.65 60.15 -136.35 60.3 -131.0 63.05 M-136.6 56.6 L-137.65 56.55 M-133.75 55.65 L-133.7 56.15 M-136.35 60.3 Q-138.4 61.25 -141.1 61.25 L-142.85 60.05 Q-144.55 61.9 -145.8 64.05 M-128.2 66.3 L-124.35 64.75 -124.35 63.75 -125.5 61.75 M-122.0 66.15 L-122.0 66.1 -122.05 66.1 -122.85 66.85 Q-124.25 68.0 -126.3 68.0 L-127.45 67.9 -127.7 67.8 -128.65 66.95 M-122.0 66.15 L-122.55 67.65 -124.85 68.75 -127.25 68.65 -129.55 68.0 -131.1 66.5 -131.05 65.05 -131.15 64.15 -131.15 63.75 M-121.95 65.95 L-122.05 66.1 M-122.0 66.1 L-121.95 65.95 Q-121.55 65.4 -121.45 64.75 L-121.45 64.6 -121.4 64.15 Q-121.4 62.9 -122.25 62.0 M-130.1 61.75 L-134.9 59.35 M-143.2 57.95 L-143.25 58.0 -143.2 58.0 -142.95 59.95 -142.85 60.05 M-148.7 63.15 Q-137.05 47.95 -136.3 33.0 M-152.9 68.25 L-148.7 63.15 M-147.2 81.1 L-146.45 77.8 -147.85 78.85 M-105.9 86.85 Q-112.95 83.85 -121.65 79.05 L-128.6 76.05 Q-138.5 73.2 -145.25 77.05 L-146.45 77.8 M-144.1 89.6 L-144.55 90.4 M-84.0 97.05 L-86.35 94.6 -86.7 94.05 -88.9 91.75 -89.25 91.4 -96.05 90.3 Q-100.5 89.1 -105.9 86.85 M-108.15 71.3 L-109.2 71.85 -111.6 71.85 -113.4 71.0 -114.6 68.55 -114.6 68.5 -114.75 68.2 -115.1 66.9 -122.0 66.1 M-140.6 97.4 Q-141.8 93.15 -144.1 89.6 -143.2 88.5 -141.3 87.65 -130.45 85.9 -121.1 91.55 -118.05 93.35 -115.15 96.0 L-114.7 96.4 Q-103.5 109.0 -83.95 114.05 -62.4 117.6 -51.6 107.15 L-50.6 105.35 -49.35 104.9 -48.95 104.3 -48.15 103.2 Q-45.05 97.3 -45.5 87.25 M-89.95 49.7 L-90.2 49.8 -90.25 50.45 -90.2 51.15 -89.95 49.7 M-90.2 51.15 L-90.35 52.55 -89.6 53.9 M-89.05 53.35 Q-89.95 52.35 -90.2 51.15 M-97.7 58.45 L-97.75 58.6 -99.25 58.85 Q-99.95 59.8 -100.1 60.9 L-100.15 61.55 -100.1 62.3 -99.8 63.35 -99.65 63.65 -98.6 64.95 -97.75 65.65 M-96.2 62.5 L-96.75 62.1 -96.75 60.3 -97.5 58.65 -97.7 58.45 -97.1 57.2 -94.9 56.75 -93.45 56.9 -92.55 55.1 M-97.5 58.65 L-96.55 59.35 -94.55 59.75 -94.45 59.85 M-92.5 57.25 Q-92.95 57.0 -93.45 56.9 M-97.35 54.15 L-95.4 56.3 -97.55 56.4 Q-100.45 54.25 -102.95 51.5 -102.05 54.2 -100.45 56.85 L-102.1 57.55 -102.55 56.9 -102.7 56.65 -103.8 54.8 -103.0 58.65 -107.65 52.2 -105.15 59.1 -108.15 59.8 -108.2 59.8 -111.1 54.2 -109.9 61.7 -109.7 61.4 Q-108.4 61.55 -107.4 62.3 L-107.2 62.45 -103.55 62.1 -100.1 60.9 M-99.65 63.65 L-99.4 64.7 -99.2 65.35 -97.95 66.35 -97.9 66.2 M-97.95 66.35 Q-98.5 68.8 -98.0 70.5 L-97.9 70.85 Q-94.25 77.4 -93.9 83.2 L-92.8 86.65 Q-92.0 88.3 -89.25 91.4 M-102.95 51.5 L-103.15 51.3 -106.8 46.0 M-97.35 54.15 L-102.65 48.0 M-103.8 54.8 L-104.05 53.7 M-109.05 54.5 L-108.15 59.8 M-115.0 55.25 L-115.05 54.65 -115.3 52.4 M-113.7 62.8 L-113.3 62.45 M-110.4 68.65 L-111.15 67.85 -111.95 66.6 -112.05 65.55 -110.35 63.5 -110.35 63.05 -110.8 63.1 -111.25 61.5 M-113.7 62.8 Q-114.85 64.0 -115.1 65.6 L-115.1 66.25 -115.1 66.9 M-114.6 68.55 L-113.7 69.75 Q-112.5 70.9 -110.95 71.15 L-110.15 70.0 -110.1 69.95 -110.35 68.65 -110.4 68.65 -108.6 67.2 -108.6 65.35 -109.45 63.95 -110.3 63.05 -110.35 63.05 -110.35 63.0 -110.3 63.05 -109.7 63.0 -109.9 61.7 M-121.45 64.6 L-115.1 65.6 M-105.35 66.0 Q-105.4 65.15 -105.7 64.45 -106.05 63.55 -106.8 62.8 L-107.2 62.45 M-105.8 68.3 L-105.75 68.15 -105.6 67.75 -105.35 66.25 -105.35 66.0 -99.4 64.7 M-108.15 71.3 L-107.55 71.05 -106.35 69.8 -105.8 68.3 -106.8 69.75 -108.65 70.9 -109.35 71.05 -110.15 70.0 M-111.1 54.2 L-111.4 52.55 M-83.05 83.15 L-83.55 82.8 -87.85 79.15 M-99.8 63.35 L-105.7 64.45 M-113.95 52.7 L-113.95 48.6 M-96.75 122.55 Q-98.2 119.95 -101.15 119.35 L-101.65 119.3 -102.15 119.25 Q-105.6 118.95 -111.95 120.2 -114.8 122.45 -118.35 126.5 M-96.4 122.55 L-96.75 122.55 -104.4 122.95 Q-106.6 124.55 -108.75 128.3 L-110.0 130.75 -111.85 135.15 -113.9 141.2 M-96.4 122.55 L-93.5 123.0 -92.8 123.2 -92.2 123.6 Q-86.9 127.0 -77.3 127.85 L-74.35 128.0 Q-67.65 127.95 -63.7 126.85 L-62.6 122.8 Q-59.7 120.5 -56.45 118.9 -56.15 117.05 -53.5 115.65 L-53.7 112.7 -53.5 110.5 -51.6 107.15 M-114.75 107.75 Q-108.35 109.85 -106.5 115.05 L-105.2 115.4 -103.85 115.65 -103.1 115.7 -101.15 119.35 M-110.75 112.1 L-110.75 112.05 -110.8 112.0 -111.55 111.2 Q-113.6 109.8 -119.05 111.2 -121.7 112.3 -124.55 114.1 -136.55 121.9 -157.05 151.15 L-159.2 154.2 M-107.6 114.6 L-106.5 115.05 M-107.6 114.6 Q-109.65 113.65 -110.75 112.1 M-102.15 119.25 L-104.45 117.7 -105.05 117.3 Q-107.85 117.0 -111.95 120.2 M-100.4 121.7 Q-102.45 121.5 -104.4 122.95 M-150.15 114.45 Q-141.8 109.6 -133.15 107.1 L-127.5 106.55 Q-119.75 106.1 -114.75 107.75 M-49.3 107.9 L-47.95 104.9 -49.05 104.9 -49.35 104.9 M-48.9 114.7 L-48.55 113.45 -48.55 113.4 M-42.5 107.9 L-42.65 107.45 -42.75 106.85 Q-44.0 106.25 -46.05 107.2 M-42.5 108.0 L-42.95 108.65 -44.5 113.8 -44.5 114.25 -44.6 114.65 -43.75 115.3 -42.0 115.55 -42.3 116.75 -44.25 116.75 M-42.95 108.65 L-44.0 110.75 -44.5 113.15 -44.5 113.8 M-42.65 107.45 L-40.75 101.05 M-44.0 110.75 L-47.15 110.6 Q-44.8 108.5 -43.8 108.9 M-53.5 115.65 Q-52.55 115.1 -51.3 114.65 M-56.45 120.6 L-57.85 121.5 -58.05 121.7 Q-58.85 122.35 -59.45 123.6 L-60.35 126.45 -61.3 126.3 -62.65 126.5 -62.75 126.5 -62.95 126.6 -63.7 126.85 M-46.15 118.05 L-45.0 115.8 -44.95 115.75 -44.6 114.65 M-51.05 119.2 L-51.3 119.25 Q-54.55 119.65 -56.45 120.6 M-51.25 119.3 L-51.05 119.2 -50.1 117.7 -49.5 116.7 -48.9 114.7 M-51.25 119.3 Q-53.25 120.4 -54.35 121.7 M-56.45 118.9 L-54.9 118.2 M-45.0 115.8 L-44.95 115.8 -44.95 115.75 M-41.25 117.35 Q-41.75 116.65 -42.3 116.75 M-38.7 108.95 Q-40.8 111.1 -42.0 115.55 M-44.95 120.1 L-44.95 121.8 -44.95 122.05 -45.3 123.35 Q-46.55 126.35 -50.45 129.35 M-44.95 115.8 L-44.95 120.1 M-40.7 118.1 L-41.25 117.35 M-71.3 103.75 L-70.05 103.95 Q-60.05 105.1 -52.85 98.6 M-71.3 103.75 Q-78.5 102.2 -84.0 97.05 M-79.55 138.6 L-80.45 138.8 -84.45 139.55 M-42.85 125.0 L-45.45 127.4 M-45.9 127.85 L-46.55 128.45 -46.6 128.5 -47.4 129.3 -47.65 129.55 -50.45 131.85 Q-52.25 133.2 -79.55 138.6 -67.65 147.3 -55.6 140.9 M-58.4 127.55 L-57.9 128.0 M-58.8 127.2 L-58.4 127.55 M-59.4 126.85 L-60.35 126.45 M-58.8 127.2 L-59.4 126.85 M-73.8 30.2 Q-77.45 29.8 -89.15 33.25 M-81.05 45.45 L-80.7 46.4 M-173.1 48.65 L-170.2 48.2 Q-166.0 47.25 -162.8 44.95 M-146.2 21.15 Q-150.05 36.25 -165.3 43.25 -167.5 44.2 -170.25 44.35 M-167.65 61.75 L-164.85 61.3 M-173.9 58.0 L-174.5 57.75 M-182.15 48.85 L-175.85 50.15 M-189.5 48.25 Q-185.3 51.35 -179.7 52.6 M-162.15 45.4 Q-164.25 47.75 -167.05 49.6 M-166.85 66.05 L-160.1 65.45 M-87.15 -1.35 Q-88.2 1.55 -89.6 4.6 M-83.55 -7.8 Q-83.3 -2.55 -85.4 2.8" fill="none" stroke="#000000" stroke-linecap="round" stroke-linejoin="round" stroke-opacity="0.4" stroke-width="0.25"/>
    <path d="M-41.6 -1.85 L-40.6 -2.5 M-49.4 37.3 L-52.8 38.3 M-29.85 39.4 Q-26.0 29.0 -34.2 15.45 L-40.15 2.55 M-40.2 11.4 L-40.3 11.55 Q-33.3 21.25 -35.4 35.7 M-39.25 34.4 L-39.25 34.3 Q-39.6 28.5 -38.55 26.2 L-38.55 23.6 -41.45 13.25 M-39.35 34.4 L-49.4 37.3 M-49.3 32.35 L-52.25 32.75 -52.35 32.75 M-39.25 34.4 L-39.35 34.4 M-41.95 31.45 L-42.0 31.3 Q-45.8 31.15 -49.3 32.35 M-39.25 34.5 L-39.25 34.4 M-41.9 8.3 Q-40.6 5.55 -40.8 2.25 L-40.85 1.9 M-41.6 -1.85 Q-45.05 0.8 -46.2 7.8 L-45.25 10.05 M-42.65 10.35 L-42.85 10.05 -41.9 8.3 -40.9 10.5 -41.65 11.8 -42.65 10.35 M-47.7 10.05 L-48.35 8.85 -46.2 7.8 M-45.2 10.1 L-47.1 11.1 -47.7 10.05 M-51.75 8.5 L-51.9 9.3 -53.05 9.65 -53.5 8.55 -54.0 7.35 -51.3 6.0 -51.2 5.7 -51.25 6.0 -51.75 8.5 M-45.75 -5.35 Q-50.15 -4.2 -53.35 0.45 L-53.75 0.95 M-37.1 115.7 L-37.35 116.15 Q-42.05 123.0 -44.95 121.8 L-45.1 121.9 M-108.75 128.3 Q-106.5 130.25 -99.6 131.15 L-84.8 131.7 Q-68.5 131.4 -59.4 126.85 M-59.45 123.6 L-56.65 123.95 -54.65 124.15 Q-51.9 125.45 -48.2 121.65 L-47.8 121.25 -46.15 118.05 M-44.95 120.1 Q-48.45 127.4 -58.5 130.4 L-58.9 130.5 Q-97.1 139.6 -110.0 130.75 M-45.45 127.4 L-45.7 127.65 -45.9 127.85 -46.65 128.45 Q-49.8 130.95 -52.65 130.65 L-53.05 130.85 Q-87.1 140.2 -111.85 135.15 M-42.45 -4.2 Q-47.8 -3.45 -51.2 5.7" fill="none" stroke="#000000" stroke-linecap="round" stroke-linejoin="round" stroke-opacity="0.2" stroke-width="0.25"/>
    <path d="M-87.75 72.0 L-87.8 72.05 -87.75 71.95 -87.75 72.0 M-55.6 66.45 Q-49.95 69.75 -47.85 76.25 L-47.8 76.4 -47.7 76.85 M-47.6 77.1 Q-46.45 81.2 -46.6 86.55 M-48.7 72.55 L-49.45 71.45 M-78.75 63.5 Q-83.75 65.95 -87.7 71.95 L-87.75 71.95 M-69.65 61.85 Q-74.55 61.45 -78.75 63.5" ffdec:has-small-stroke="true" ffdec:original-stroke-width="0.15" fill="none" stroke="#000000" stroke-linecap="round" stroke-linejoin="round" stroke-opacity="0.3019608" stroke-width="0.11111111111111112"/>
    <path d="M-115.35 17.45 Q-112.65 17.1 -112.4 15.95 M-121.95 19.5 L-122.5 20.15 Q-124.05 21.0 -127.35 21.1" fill="none" stroke="#000000" stroke-linecap="round" stroke-linejoin="round" stroke-opacity="0.6431373" stroke-width="1.0"/>
  </g>
  <defs>
    <linearGradient gradientTransform="matrix(-0.0049, 0.0183, 0.0247, 0.0066, -99.25, 23.0)" gradientUnits="userSpaceOnUse" id="gradient0" spreadMethod="pad" x1="-819.2" x2="819.2">
      <stop offset="0.0" stop-color="#b0a26d"/>
      <stop offset="1.0" stop-color="#6e6033"/>
    </linearGradient>
    <linearGradient gradientTransform="matrix(0.0044, 0.0166, 0.0072, -0.0019, -40.95, 17.25)" gradientUnits="userSpaceOnUse" id="gradient1" spreadMethod="pad" x1="-819.2" x2="819.2">
      <stop offset="0.0" stop-color="#b8a86c"/>
      <stop offset="1.0" stop-color="#7c7349"/>
    </linearGradient>
    <linearGradient gradientTransform="matrix(0.0044, 0.0166, 0.0072, -0.0019, -40.95, 17.25)" gradientUnits="userSpaceOnUse" id="gradient2" spreadMethod="pad" x1="-819.2" x2="819.2">
      <stop offset="0.0" stop-color="#bdac6f"/>
      <stop offset="1.0" stop-color="#82774c"/>
    </linearGradient>
    <radialGradient cx="0" cy="0" gradientTransform="matrix(-0.0648, 0.0, 0.0, 0.0648, -84.35, 86.95)" gradientUnits="userSpaceOnUse" id="gradient3" r="819.2" spreadMethod="pad">
      <stop offset="0.34509803921568627" stop-color="#e3cc8a"/>
      <stop offset="1.0" stop-color="#a79665"/>
    </radialGradient>
    <radialGradient cx="0" cy="0" gradientTransform="matrix(-0.0648, 0.0, 0.0, 0.0648, -84.35, 86.95)" gradientUnits="userSpaceOnUse" id="gradient4" r="819.2" spreadMethod="pad">
      <stop offset="0.34509803921568627" stop-color="#e3cc8a"/>
      <stop offset="1.0" stop-color="#8a794a"/>
    </radialGradient>
    <linearGradient gradientTransform="matrix(-0.0329, 0.0, 0.0, 0.0232, -71.3, 85.15)" gradientUnits="userSpaceOnUse" id="gradient5" spreadMethod="pad" x1="-819.2" x2="819.2">
      <stop offset="0.0" stop-color="#e3512c"/>
      <stop offset="0.23921568627450981" stop-color="#700e0e"/>
      <stop offset="0.6941176470588235" stop-color="#b12323"/>
      <stop offset="1.0" stop-color="#e04e2b"/>
    </linearGradient>
    <linearGradient gradientTransform="matrix(-0.0559, 0.0034, 0.004, 0.0658, -66.25, 97.9)" gradientUnits="userSpaceOnUse" id="gradient6" spreadMethod="pad" x1="-819.2" x2="819.2">
      <stop offset="0.0" stop-color="#5d512a"/>
      <stop offset="1.0" stop-color="#5c502a"/>
    </linearGradient>
    <radialGradient cx="0" cy="0" gradientTransform="matrix(-0.0096, 0.0, 0.0, 0.0096, -45.5, 54.25)" gradientUnits="userSpaceOnUse" id="gradient7" r="819.2" spreadMethod="pad">
      <stop offset="0.43137254901960786" stop-color="#fcbd03"/>
      <stop offset="1.0" stop-color="#ff9900"/>
    </radialGradient>
    <radialGradient cx="0" cy="0" gradientTransform="matrix(-0.0591, 0.0, 0.0, 0.0455, -66.15, 93.55)" gradientUnits="userSpaceOnUse" id="gradient8" r="819.2" spreadMethod="pad">
      <stop offset="0.0196078431372549" stop-color="#580f0f"/>
      <stop offset="0.36470588235294116" stop-color="#8a1515"/>
      <stop offset="1.0" stop-color="#c62f2f"/>
    </radialGradient>
    <linearGradient gradientTransform="matrix(0.0171, 0.0072, 0.0076, -0.018, -142.05, 40.25)" gradientUnits="userSpaceOnUse" id="gradient9" spreadMethod="pad" x1="-819.2" x2="819.2">
      <stop offset="0.0" stop-color="#b0a26d"/>
      <stop offset="1.0" stop-color="#786838"/>
    </linearGradient>
    <linearGradient gradientTransform="matrix(0.0171, 0.0072, 0.0076, -0.018, -142.05, 40.25)" gradientUnits="userSpaceOnUse" id="gradient10" spreadMethod="pad" x1="-819.2" x2="819.2">
      <stop offset="0.0" stop-color="#b0a26d"/>
      <stop offset="1.0" stop-color="#6e6033"/>
    </linearGradient>
    <radialGradient cx="0" cy="0" gradientTransform="matrix(-0.0648, 0.0, 0.0, 0.0648, -84.35, 86.95)" gradientUnits="userSpaceOnUse" id="gradient11" r="819.2" spreadMethod="pad">
      <stop offset="0.34509803921568627" stop-color="#e3cc8a"/>
      <stop offset="1.0" stop-color="#9c8c5f"/>
    </radialGradient>
    <radialGradient cx="0" cy="0" gradientTransform="matrix(-0.0648, 0.0, 0.0, 0.0648, -84.35, 86.95)" gradientUnits="userSpaceOnUse" id="gradient12" r="819.2" spreadMethod="pad">
      <stop offset="0.34509803921568627" stop-color="#e3cc8a"/>
      <stop offset="1.0" stop-color="#968658"/>
    </radialGradient>
    <radialGradient cx="0" cy="0" gradientTransform="matrix(-0.0648, 0.0, 0.0, 0.0648, -84.35, 86.95)" gradientUnits="userSpaceOnUse" id="gradient13" r="819.2" spreadMethod="pad">
      <stop offset="0.34509803921568627" stop-color="#e3cc8a"/>
      <stop offset="1.0" stop-color="#9e8d5c"/>
    </radialGradient>
    <linearGradient gradientTransform="matrix(-0.0051, 0.0066, 0.0038, 0.0029, -55.45, 118.1)" gradientUnits="userSpaceOnUse" id="gradient14" spreadMethod="pad" x1="-819.2" x2="819.2">
      <stop offset="0.0" stop-color="#b8a86c"/>
      <stop offset="1.0" stop-color="#7c7349"/>
    </linearGradient>
    <linearGradient gradientTransform="matrix(-0.0064, 0.0064, 0.0031, 0.0031, -53.3, 118.6)" gradientUnits="userSpaceOnUse" id="gradient15" spreadMethod="pad" x1="-819.2" x2="819.2">
      <stop offset="0.0" stop-color="#b8a86c"/>
      <stop offset="1.0" stop-color="#7c7349"/>
    </linearGradient>
    <linearGradient gradientTransform="matrix(-0.001, -0.0038, -0.0197, 0.0053, -62.6, 137.25)" gradientUnits="userSpaceOnUse" id="gradient16" spreadMethod="pad" x1="-819.2" x2="819.2">
      <stop offset="0.0" stop-color="#cdb87c"/>
      <stop offset="1.0" stop-color="#ecdfa8"/>
    </linearGradient>
    <linearGradient gradientTransform="matrix(8.0E-4, 0.0029, 0.0196, -0.0054, -62.15, 138.75)" gradientUnits="userSpaceOnUse" id="gradient17" spreadMethod="pad" x1="-819.2" x2="819.2">
      <stop offset="0.0" stop-color="#cdb87c"/>
      <stop offset="1.0" stop-color="#ecdfa8"/>
    </linearGradient>
  </defs>
</svg>
