<?xml version='1.0' encoding='utf-8'?><svg xmlns="http://www.w3.org/2000/svg" xmlns:ns1="http://www.w3.org/1999/xlink" width="150.7" height="290.4" viewBox="-0 0 136.999 264"><defs><g transform="matrix(1,0,0,1,192.55,294) " id="shape0"><path id="svg_1" stroke-opacity="0" stroke-linejoin="round" stroke-linecap="round" stroke="#ff00ff" fill="none" d="m187.95,-293.5l0,380l-379.95,0l-0.05,0l0,-380l380,0m-95,294.1l-189.95,0" /><path id="svg_2" stroke-opacity="0" stroke-linejoin="round" stroke-linecap="round" stroke="#ff00ff" fill="none" d="m187.95,-293.5l-190,190l190,190m-379.95,0l189.95,-190l-190,-190" /></g><g transform="matrix(1,0,0,1,-31.1,1) " id="sprite0"><use id="svg_3" ns1:href="#shape1" width="187.5" transform="matrix(1,0,0,1,31.1,-1) " height="369.5" /><use id="svg_4" ns1:href="#sprite1" width="30.6" transform="matrix(1.6373,0,0,0.4799,128.45,99.35) " height="30.6" /><use id="svg_5" ns1:href="#shape3" width="7.8" transform="matrix(1,0,0,1,151.1,125.8) " height="1.45" /><use id="svg_6" ns1:href="#sprite3" width="43.35" transform="matrix(1,0,0,1,130.9,92.1) " height="14.9" /><use id="svg_7" ns1:href="#sprite1" width="30.6" transform="matrix(2.1039,-3.1984,1.9141,0.8459,41.05,99.55) " height="30.6" /></g><g transform="matrix(1,0,0,1,-31.1,1) " id="shape1"><path id="svg_8" stroke-width="2" stroke-opacity="0.4" stroke-linejoin="round" stroke-linecap="round" stroke="#000033" fill="none" d="m32.1,367.5q4.75,-12.95 10.15,-26.15q11.85,-49.8 15.95,-97.7l-2.45,-2.05l-2.45,-7.8l-3.55,-3.95l0,-3.25q5.35,-10.55 12.15,-20.25q-0.2,-3.75 0.55,-7.9l0.4,-2.05l0.8,-3.05l14.7,-11l6,-10.45q-2.2,-3.8 -3.65,-8.2q-16.25,-10.35 -16.6,-40.6l0,-1.2q0.5,-6.9 1.4,-13.55q-5.8,-13.4 -4.35,-27.2q1.05,-10.3 6.1,-20.8q3.3,-6.35 6.95,-12.1q3.85,-6.25 8,-11.8l0.2,-0.2l1.25,-1.7q4.65,-5.95 9.65,-11.15l6.2,-6.05q14.5,-13.4 41.6,-17.35q23.95,0.2 48.8,14.7l6.35,3.9l3.1,2.1l4.1,5.35q8.35,12.4 5.95,24.1q-1.25,5.8 -5.1,11.5q0.05,24.9 -13.65,38.15l-1.25,1.05q-1.2,7.05 -1.5,13.9q-0.65,13.35 1.95,25.85q4.25,17.85 16.5,15.75q7.25,-2.65 5.55,-11q-2.2,-7.2 -5.65,-3.25q0.4,-4.4 5,-3q9.95,5.25 4.25,22.25q-4.85,12.25 -17.95,15.65q9.8,8 10.7,14.6q0.8,6.9 0.05,12.35q-0.5,3.55 -1.7,6.5q-3,7.45 -10.35,10.9l1.5,2l-1.75,2.05l3.85,16.15l3.9,1.8l1.4,3.35l0.1,0.95l2.15,19.75q1.6,19.35 1.35,37.95l2,3l0,3.75l4.75,14.25l-6,14l-2.55,2.05l0,6.7l-2.5,3l1.4,15.4" /><path id="svg_9" fill-rule="evenodd" fill="url(#gradient0)" d="m196.25,18.6l3.1,2.1q-32.65,27.75 -80,16.7l9.55,-10.05q36.3,6.7 67.35,-8.75" /><path id="svg_10" fill-rule="evenodd" fill="url(#gradient1)" d="m199.35,20.7l4.1,5.35q8.35,12.4 5.95,24.1q-4.65,-13.05 -10.7,-15.05q5.75,15 5.6,26.55q0.05,24.9 -13.65,38.15l-1.25,1.05l-2.45,1.3q-1.3,5.1 -4.6,7.35q-3.85,0.75 0.5,-4.5q0.7,-0.85 1.05,-2l0.05,-0.1q0.8,-3.15 -0.85,-8.5q-1.2,-3.65 -5,-7.4q-3.95,-3.9 -10.7,-7.85q-10.1,-5.95 -15.75,-15.5q-4.2,-2.85 -7.45,-3.6l-4.95,0.3q-2.15,0.8 -4,2.5q-16.3,18.6 -9.75,41.75q1.55,3.75 3.6,6.05q6.2,6.95 16.9,0.45q-1.05,2 -2.6,3.55q-9.7,3.7 -14.65,1.2q-8.1,-3.85 -12.75,-15.25q-3.85,-11.55 -4,-21.6q-0.1,-8.9 2.65,-16.6q2.5,-7 5.85,-11.1l0.15,-0.05q-11.45,2 -19.65,0.55q-11.6,11.55 -18.45,30.15l-6.45,-0.4l-1.6,-0.2q5.8,-20 14.05,-35.2q-1.65,-1.45 -2.95,-3.2q-8,13.2 -15.1,31.65q1.5,-12.85 6.05,-21.85q-7.85,10.6 -15.4,28.4q1.05,-10.3 6.1,-20.8q3.3,-6.35 6.95,-12.1q3.85,-6.25 8,-11.8l0.2,-0.2l1.25,-1.7q4.65,-5.95 9.65,-11.15l6.2,-6.05q14.5,-13.4 41.6,-17.35q23.95,0.2 48.8,14.7l6.35,3.9q-31.05,15.45 -67.35,8.75l-9.55,10.05q47.35,11.05 80,-16.7m-11.45,94.05q-0.65,13.35 1.95,25.85q4.25,17.85 16.5,15.75q7.25,-2.65 5.55,-11q-2.2,-7.2 -5.65,-3.25q0.4,-4.4 5,-3q9.95,5.25 4.25,22.25q-12.3,9.75 -25.25,4.5q-17.45,-12.65 -16,-31q1.8,-10.1 4.9,-15.15q-0.85,16.45 8.1,30.65q-6.85,-17.85 -4.3,-34.7q2.25,-1.35 4.95,-0.9m-15.45,-61.65q16.6,23.1 15.3,43q-0.1,2.8 -0.55,5.05q3.75,-2.55 5.8,-6.8q9.55,-30.5 -4.5,-46.5q-8.05,3.3 -16.05,5.25l-3.95,-5.25l3.95,5.25m14.75,48.05l-0.25,1l0.25,-1m-69.6,-76.4q-6.45,-1.8 -13.05,-4.2l-9.5,9q5.05,2.05 9.95,3.7l12.6,-8.5m-0.8,150q-7.45,-3.15 -12.55,-6.8q-5.85,-4.1 -8.75,-8.85q-10.6,-15.9 -9.25,-40.25q2.25,-13.7 4.95,-21.85q2.2,-6.85 4.75,-9.8l0.15,-0.15q0.8,-0.95 1.7,-1.5l-0.45,1.65q-1.4,5.4 -2.3,10.95q-2.5,14.7 -1.55,30.2q1.95,-17 6.65,-30.65q1.2,-3.65 2.65,-7l1.1,-2.5q1.4,3.1 1.45,7.6q0.05,5.55 -2.1,13.3q-7.4,37.45 8.65,55.85q3.75,3.65 8.5,4.85l6.2,0.55l1.35,-0.1l1,-0.15l2.05,-1.25q6.3,-6.05 6,-13.4q-0.5,6.8 -7,7.65q-6,1.3 -10.45,-0.85q-7.5,-3.65 -10.6,-17.2q-5,-21.55 0.9,-40.25q3.6,12.3 8.15,18.1q-1,10.05 1.95,19.95l1.05,3.25q5,8.8 10.25,7.25q4.55,-0.85 4.25,-4.6l-1,-2.15q-2.45,-4.8 -5.75,0.75q-0.65,3.15 2.5,4q-3,1.15 -4,-3.5q-0.3,-1.95 0.35,-3.5q3.55,-3.95 7.15,-1.5q5.25,5.8 3.75,20q-1.7,8 -7.8,13.75q-1.7,1.6 -3.7,3l-4.4,1.85l-0.8,0.3l-2.75,0.8l-6.7,0.85l-6.45,-0.85q-3.45,-0.95 -6.65,-2.95q-7.2,-6.6 -10.55,-13.45q-2.85,-5.85 -2.95,-11.8q-0.5,-11.4 6.55,4.5l0.4,0.9q2.25,4.3 4.85,7.45q7.9,9.4 19.25,7.55l4.05,-1l1.25,-0.4q1.9,-0.7 3.9,-1.7l2.1,-1.05l0.85,-0.5l-0.85,0.5l-2.1,1.05q-2,1 -3.9,1.7l-1.25,0.4l-4.05,1m-48.3,-52.1q0.85,-14.2 3,-25.3l4,2.75q-3.9,8.75 -7,22.55m67,26.1q1.35,3.5 1.5,6.7q-0.15,-3.2 -1.5,-6.7" /><path id="svg_11" fill-rule="evenodd" fill="url(#gradient2)" d="m171.25,92.15q-1,0.2 -2.05,0.85q-3.05,1.6 -4.85,11.55l-0.15,0.8q2.6,2.1 7,1.55q1.45,3.45 5.05,4l-0.5,3q-1.5,-2.25 -4.9,-3.4q-15.4,-4.65 -27.5,-13.4q-2.6,-3.65 -6.6,-5.7l-0.75,-0.25l-3.25,-3.15q-0.9,1.45 -1.65,3.05q-2.3,-0.35 -3.5,-2.4q-0.2,2.15 2.3,3.8l-0.55,1.15q-2.1,0.6 -3.35,-0.55q0.35,1.5 2.9,2.25l-0.05,0.25q-0.15,1.6 0.1,3.25q-0.8,5.35 0.15,11.85q-2.05,-2.3 -3.6,-6.05q-6.55,-23.15 9.75,-41.75q10.9,24.2 28.65,27.4q4.25,0.75 7.35,1.9m-35.55,-13.7q-5.15,-2.2 -8.2,4.2q8,-9.1 17.75,7.75q-4.4,-9.8 -9.55,-11.95" /><path id="svg_12" fill-rule="evenodd" fill="#154040" d="m164.35,104.55q1.8,-9.95 4.85,-11.55q1.05,-0.65 2.05,-0.85q3.7,1.3 5.85,3.15l0,0.05l-1.25,0.75l0,0.95l1.15,-0.1l1.25,-0.5l0.2,0.3l-1.55,1.4l-1.15,0.5q-0.35,2.85 -1.7,6.9l-1.95,1.2q3.1,-8.6 1.7,-12.05q-1.4,-3.5 -5.65,0.35q-2.55,3.5 -3.8,9.5m-35.4,-5.75q-0.25,-1.65 -0.1,-3.25l0.05,-0.25q-2.55,-0.75 -2.9,-2.25q1.25,1.15 3.35,0.55l0.55,-1.15q-2.5,-1.65 -2.3,-3.8q1.2,2.05 3.5,2.4l0.3,0.05q1.75,-0.95 4.6,0.05l0.75,0.25q4,2.05 6.6,5.7q2.3,3.25 3.5,7.8q-1.95,-5.3 -6.35,-9.75q-4.9,-4 -7.9,-2.75q-4.05,3 1.5,14l-2.5,-1.1q-2.2,-3.25 -2.65,-6.5m6.75,-20.35q5.15,2.15 9.55,11.95q-9.75,-16.85 -17.75,-7.75q3.05,-6.4 8.2,-4.2" /><path id="svg_13" fill-rule="evenodd" fill="url(#gradient3)" d="m209.4,50.15q-1.25,5.8 -5.1,11.5q0.15,-11.55 -5.6,-26.55q6.05,2 10.7,15.05m-125.05,121.75q-2.2,-3.8 -3.65,-8.2q-16.25,-10.35 -16.6,-40.6l0,-1.2q0.5,-6.9 1.4,-13.55q-5.8,-13.4 -4.35,-27.2q7.55,-17.8 15.4,-28.4q-4.55,9 -6.05,21.85q7.1,-18.45 15.1,-31.65q1.3,1.75 2.95,3.2q-8.25,15.2 -14.05,35.2l1.6,0.2l-4.95,-0.35l-5.4,-0.35q-2.5,1.05 -2.6,2.5q-0.05,0.8 0.6,1.75q2.7,1.6 5.55,3.05q6.15,3.15 13.1,5.85l2.85,1.05l0.55,-1.35l2.7,-6.05l0.65,-1.3l2.05,-3.8l-2,-0.15l-6.65,-0.45q6.85,-18.6 18.45,-30.15q8.2,1.45 19.65,-0.55l-0.15,0.05q-3.35,4.1 -5.85,11.1q-2.75,7.7 -2.65,16.6q0.15,10.05 4,21.6q4.65,11.4 12.75,15.25q4.95,2.5 14.65,-1.2q-3.25,3.1 -8.65,3.95q-8.75,1.75 -15,-5.15l-0.9,3.8q-0.6,2.8 -0.85,5.65q-4.55,-5.8 -8.15,-18.1q-5.9,18.7 -0.9,40.25q3.1,13.55 10.6,17.2q4.45,2.15 10.45,0.85q6.5,-0.85 7,-7.65q0.3,7.35 -6,13.4l-2.05,1.25l-1,0.15l-1.35,0.1l-6.2,-0.55q-4.75,-1.2 -8.5,-4.85q-16.05,-18.4 -8.65,-55.85q2.15,-7.75 2.1,-13.3q-0.05,-4.5 -1.45,-7.6l-1.1,2.5q-1.45,3.35 -2.65,7q-4.7,13.65 -6.65,30.65q-0.95,-15.5 1.55,-30.2q0.9,-5.55 2.3,-10.95l0.45,-1.65q-0.9,0.55 -1.7,1.5l-0.15,0.15q-2.55,2.95 -4.75,9.8q-2.7,8.15 -4.95,21.85q-1.35,24.35 9.25,40.25q2.9,4.75 8.75,8.85q5.1,3.65 12.55,6.8q-11.35,1.85 -19.25,-7.55q-2.6,-3.15 -4.85,-7.45l-0.4,-0.9q-7.05,-15.9 -6.55,-4.5q0.1,5.95 2.95,11.8q3.35,6.85 10.55,13.45q3.2,2 6.65,2.95l6.45,0.85l6.7,-0.85l2.75,-0.8l0.8,-0.3l4.4,-1.85q2,-1.4 3.7,-3q6.1,-5.75 7.8,-13.75q1.5,-14.2 -3.75,-20q-3.6,-2.45 -7.15,1.5q0.75,-1.95 2.9,-3.25q3.75,-2.55 7.2,2.15l0.55,0.85q4.7,7.15 3.45,16.15q-0.45,3.3 -1.7,6.85q-2.6,5.15 -5.45,9.15l-2.45,3.2l-0.05,0.05q-5,5.9 -10.65,8.5q-4.35,1.95 -9.15,2l-5.4,-0.55l-3.85,-1.1l-2.8,-1.35l-1.15,-0.55l-0.4,-0.2l-0.1,-0.1l-4.3,-2.9q-6.15,-4.8 -9.9,-11.35m86.9,-79.75q-3.1,-1.15 -7.35,-1.9q-17.75,-3.2 -28.65,-27.4q1.85,-1.7 4,-2.5l4.95,-0.3q3.25,0.75 7.45,3.6q5.65,9.55 15.75,15.5q6.75,3.95 10.7,7.85q3.8,3.75 5,7.4q1.65,5.35 0.85,8.5l-0.05,0.1q-0.35,1.15 -1.05,2q-4.35,5.25 -0.5,4.5q-1.4,0.95 -3.15,1.4q-1.65,0.2 -2.95,0q-3.6,-0.55 -5.05,-4l-0.45,-1.3l1.35,1.15l0,0.05q2.6,2 4.4,1.5l0.25,-4.2l0,-1l0.15,-4.95l1.55,-1.4l-0.2,-0.3l-1.25,0.5l0.1,-1.6l0,-0.05q-2.15,-1.85 -5.85,-3.15m7,4.3l-1.15,-1.15l1.15,1.15m8.95,4.7q0.45,-2.25 0.55,-5.05q1.3,-19.9 -15.3,-43q8,-1.95 16.05,-5.25q14.05,16 4.5,46.5q-2.05,4.25 -5.8,6.8m-10.7,7.15q2.15,-0.6 3.15,-4.9l-2.9,-0.3l2.9,0.3l0.1,-0.5q0.7,-3.5 -1.3,-6.15q2,2.65 1.3,6.15l-0.1,0.5q-1,4.3 -3.15,4.9m-81.25,-32.45l-0.45,0.7l-3.6,6l3.6,-6l0.45,-0.7m-14.55,87.85q-2.5,-7.7 -2.95,-17.35q-1.5,-28.4 7.5,-51.3q-9,22.9 -7.5,51.3q0.45,9.65 2.95,17.35m24.8,-104.85q-0.05,8.05 1,16q0.5,4.1 1.3,8.2q2,9.95 5.7,19.8q2.75,6.7 6.25,10.6q-3.5,-3.9 -6.25,-10.6q-3.7,-9.85 -5.7,-19.8q-0.8,-4.1 -1.3,-8.2l-2.5,-4.75l2.5,4.75q-1.05,-7.95 -1,-16m-37,63.8q3.1,-13.8 7,-22.55l-4,-2.75q-2.15,11.1 -3,25.3m-3,-14.3q1.4,-10.35 3.8,-20.2q-2.4,9.85 -3.8,20.2m5.65,-27.15q4.3,-15.35 11.1,-29.35q-6.8,14 -11.1,29.35" /><path id="svg_14" fill-rule="evenodd" fill="#b4e1fe" d="m172.1,106.75l1.95,-1.2q1.35,-4.05 1.7,-6.9l1.15,-0.5l-0.15,4.95l0,1l-0.25,4.2q-1.8,0.5 -4.4,-1.5l0,-0.05m4.9,-9.8l-1.15,0.1l0,-0.95l1.25,-0.75l-0.1,1.6" /><path id="svg_15" fill-rule="evenodd" fill="#ffffff" d="m171.2,106.9q-4.4,0.55 -7,-1.55l0.15,-0.8q1.25,-6 3.8,-9.5q4.25,-3.85 5.65,-0.35q1.4,3.45 -1.7,12.05l-1.35,-1.15l0.45,1.3m-37.1,-0.5q-5.55,-11 -1.5,-14q3,-1.25 7.9,2.75q4.4,4.45 6.35,9.75q-6.05,2.7 -12.75,1.5m12.75,18.5q6.4,-2.4 12,-1.8l0.6,0l-0.8,0.95l-0.8,0.9q-6.15,1.05 -11,-0.05" /><path id="svg_16" fill-rule="evenodd" fill="url(#gradient4)" d="m189.4,100.85q-1.2,7.05 -1.5,13.9q-2.7,-0.45 -4.95,0.9q-2.55,16.85 4.3,34.7q-8.95,-14.2 -8.1,-30.65q-3.1,5.05 -4.9,15.15q-1.45,18.35 16,31q12.95,5.25 25.25,-4.5q-4.85,12.25 -17.95,15.65q-4.75,-3.9 -11.55,-8.15l-10.9,-6.35q-1.1,-5.65 -9.35,-13.65q-3.55,-2.3 -8.65,-3q-3.35,-1.6 -3.2,-7.95q2.2,-0.2 4.1,-1.4q1.5,7.1 7.8,10.35q-4.3,-5.7 -4.1,-14.1l12.55,-15.4q0.9,-0.65 1.5,-3.45l0.5,-3q1.3,0.2 2.95,0q1.75,-0.45 3.15,-1.4q3.3,-2.25 4.6,-7.35l2.45,-1.3" /><path id="svg_17" fill-rule="evenodd" fill="#e8f4ff" d="m196,225.4l3.85,16.15l1.15,3.55l-1.35,0.8l-4.65,0.95q-0.1,-10.1 0.4,-20.75l0.6,-0.7m-66.9,-114.75q-0.95,-6.5 -0.15,-11.85q0.45,3.25 2.65,6.5l2.5,1.1q6.7,1.2 12.75,-1.5q-1.2,-4.55 -3.5,-7.8q12.1,8.75 27.5,13.4q3.4,1.15 4.9,3.4q-0.6,2.8 -1.5,3.45l-12.55,15.4l-0.7,0.85q-1.35,1.8 -3,2.9q-11.4,1.2 -25.4,-12.5q6.6,-0.7 11,-5.4q-4.25,1.45 -8.85,0q5.4,-0.85 8.65,-3.95q1.55,-1.55 2.6,-3.55q-10.7,6.5 -16.9,-0.45m2,-19.6q0.75,-1.6 1.65,-3.05l3.25,3.15q-2.85,-1 -4.6,-0.05l-0.3,-0.05m44,71.45l-1.3,-0.8q-0.5,-2.85 -5.8,-8.6q-4.15,1.25 -12,-3.45l-2.75,-2.8l-0.95,-1.3l4.8,0.3q5.1,0.7 8.65,3q8.25,8 9.35,13.65m-32.15,-21.2l0.55,2.55q6.85,10.35 29.25,22.5q12.65,8.5 21.1,16.3q3.6,4.85 -0.35,6.95q-15.1,8.7 -25.8,-8.45q0.4,-2.2 1.3,-4.3l-2.25,3.5l-10,-3.5q6.6,3.7 10.65,7.75q3.3,3.25 4.95,6.8q-1.45,2.35 -4.85,2.7q-15.95,3.55 -27.7,-10.45q4.8,-4.4 5.45,-13.8q-1.05,-6.65 -3.55,-9.6q1.25,-9 -3.45,-16.15l-0.55,-0.85q0.55,-4.95 4.8,-5.35l0.1,1l0.35,2.4m-66.85,-59.75l6.45,0.4l6.65,0.45q0.05,1.7 -2.6,2.55l-23.45,-1.6q0.1,-1.45 2.6,-2.5l5.4,0.35l4.95,0.35m83.35,41.55q2.2,-0.05 3.05,-1.5q0.65,-1.45 -2.05,-0.8l-6.15,-0.15q-3.5,-0.75 -7.25,2.2q-3.8,2.9 -2.35,2.6l0.9,-0.2q-1.5,1.2 1,3q5,1.7 10.75,0q2.8,-0.6 2.3,-3.15l-1,-1.05l0.8,-0.95m-6.2,-8.1q1.75,-1.05 3.2,0.5l3.15,0.25q2.95,-0.75 4,-3.4q-3.55,1.5 -6.25,0.65q-5.25,0.15 -6.75,1.35l2.65,0.65m-60.95,82.3l-4.35,4.85l-10.05,12.65q-2.8,2.45 -4.2,5.3q-3.5,-2.05 -8.2,-0.95l5.5,1.2l1.75,2.25l2.65,3.35q-6.9,1.35 -11.45,9.25l-2.35,-2.5q-9.25,-7.6 -0.75,-12.85q-10.95,2.35 9.35,-21q13.75,-6.5 22.1,-1.55m-28.05,21.55l1.25,0.3l-1.25,-0.3m92.9,88.6l-1.15,-0.35l-4.5,1.25l-0.2,0.95l-1.7,0.15l-2.15,-1l-8.6,-4.05l-5,-2.55q15.05,-20.15 32.4,-16.75q3.4,1.6 4.25,5.75l-0.9,2.35l-1.9,4.95l-1.7,4.45l0,2l0,-2l1.7,-4.45l0.3,2.35q5.45,-11.1 13.5,-15.15q5.95,-3.1 12.85,2.35q4.7,13.55 5.75,28.65l0.1,1.25l0.1,2.5l-5.75,0.35l-2.85,0l-7.9,-0.6l-1,-0.15l-1,-0.15l0.45,-2.95l-2,-2.25l-10.3,-3.05l-1.45,-1.95l-0.5,-2.4l1.75,-4.1l-2.25,1.75l-1.5,0l0,2l-0.45,3.35l-8.4,-2.5m10.85,-6.95l0.25,2.35l-0.25,-2.35" /><path id="svg_18" fill-rule="evenodd" fill="#5c92c5" d="m197.55,177q9.8,8 10.7,14.6q0.8,6.9 0.05,12.35q-9.15,10.15 -20.5,9.45q-14.45,-2.6 -31.25,2l-1.05,0.1q-26.2,2.25 -22.7,-21.85q1.25,-5.9 5.4,-5q6.7,8.1 15.2,10.2l8.25,0.7l1.85,-0.2q5.6,0.1 10.3,-0.2q23.3,-1.4 23.95,-11.55q0.35,-3.6 -6.2,-9.55l-0.95,-0.85q-6.55,-5.7 -19,-13.45l-0.3,-0.2l-1.4,-1.1q-9.2,-5.6 -16.15,-11.1q-1.55,-3.2 3.8,-0.45q5.25,4.2 16.25,10.8l1.3,0.8l10.9,6.35q6.8,4.25 11.55,8.15m0.2,46.35l-1.75,2.05l-0.6,0.7q-0.5,10.65 -0.4,20.75l4.65,-0.95l1.35,-0.8l-1.15,-3.55l3.9,1.8l1.4,3.35l0.1,0.95l2.15,19.75l-2.6,1.15l-1.25,-21.45q-3.35,3.15 -8.5,2.55q0.1,8.75 0.7,17.15l0.25,3.3q-4.7,2.3 -10.2,3.05q5,0 9.75,-1.5q2.45,-1.05 1.75,-3.05l1.6,1.85l0.35,0.4l-0.6,1.85q-7.05,1.6 -12.6,1.7q-27.85,0.05 -21.9,-1.45l8.3,-0.5l2.85,-0.25q7.1,-0.65 13.75,-3.55l-17.4,0.65q-15.7,-3.05 -7.6,-6.25l2.35,0.7l5.85,1.35l1.5,0.25q-6.75,-2.5 -9.4,-4.8q-13.2,-11.4 28.95,-33.15l-9.75,1.5l12.1,-4.7l2.1,-0.85m6.7,128.75l1.4,15.4l-17.85,0q-10.75,-5.1 -17.6,-12.6q17.85,1.35 33.2,-12.9l0.25,2.9l0.6,7.2m-26.05,15.4l-19.4,0q-2.95,-3.9 -4.85,-8.9q14.15,6.45 24.25,8.9m-102.15,-140.45q2.2,-0.5 4,0.05l13.1,15.95q-6.65,-2.5 -11.75,7.2l-14.3,-13.1q-1,-2.3 4.15,-7.7l0.95,-0.95q2.05,-1.1 3.85,-1.45m99.75,38.55l-2.25,-0.25l2.25,0.25m25,-20.5l1.25,-0.75l-1.25,0.75m-6,1.75l0.05,2.8l-0.05,-2.8" /><path id="svg_19" fill-rule="evenodd" fill="#bfe2f8" d="m153.75,151.35q6.95,5.5 16.15,11.1l1.4,1.1l0.3,0.2q12.45,7.75 19,13.45l0.95,0.85q6.55,5.95 6.2,9.55q-0.65,10.15 -23.95,11.55q0.25,-4 -1.45,-7.75q-1.65,-3.55 -4.95,-6.8q0,-1.75 0.3,-3.45q-0.3,1.7 -0.3,3.45q-4.05,-4.05 -10.65,-7.75l10,3.5l2.25,-3.5q-0.9,2.1 -1.3,4.3q10.7,17.15 25.8,8.45q3.95,-2.1 0.35,-6.95q-8.45,-7.8 -21.1,-16.3q-22.4,-12.15 -29.25,-22.5l-0.55,-2.55q4.5,5 10.8,10.05m2.25,-1.7q7.85,4.7 12,3.45q5.3,5.75 5.8,8.6q-11,-6.6 -16.25,-10.8l-1.55,-1.25" /><path id="svg_20" fill-rule="evenodd" fill="url(#gradient5)" d="m173.8,199.15q-4.7,0.3 -10.3,0.2l-1.85,0.2l-8.25,-0.7q-8.5,-2.1 -15.2,-10.2l-2.75,-3.65q-1.7,-2.5 -3.25,-5.4l-0.1,-0.15l2.45,-3.2q2.85,-4 5.45,-9.15q1.25,-3.55 1.7,-6.85q2.5,2.95 3.55,9.6q-0.65,9.4 -5.45,13.8q11.75,14 27.7,10.45q3.4,-0.35 4.85,-2.7q1.7,3.75 1.45,7.75" /><path id="svg_21" fill-rule="evenodd" fill="url(#gradient6)" d="m117.6,24.75l-12.6,8.5q-4.9,-1.65 -9.95,-3.7l9.5,-9q6.6,2.4 13.05,4.2" /><path id="svg_22" fill-rule="evenodd" fill="#97cce3" d="m86.6,84.95q2.65,-0.85 2.6,-2.55l2,0.15l-2.05,3.8l-3.05,-0.25l0.5,-1.15m-0.8,8.75l-0.55,1.35l-2.85,-1.05l0.65,-1.4l2.75,1.1" /><path id="svg_23" fill-rule="evenodd" fill="#449299" d="m89.15,86.35l-0.65,1.3l-2.7,6.05l-2.75,-1.1l2.05,-4.35l1,-2.15l3.05,0.25m-0.65,1.3l-3.4,0.6l3.4,-0.6" /><path id="svg_24" fill-rule="evenodd" fill="#c4e8ff" d="m86.6,84.95l-0.5,1.15q-6.15,-0.35 -10.85,0l-7.8,0l15.6,6.5l-0.65,1.4q-6.95,-2.7 -13.1,-5.85q-2.85,-1.45 -5.55,-3.05q-0.65,-0.95 -0.6,-1.75l23.45,1.6m69.85,30.55q-1.45,-1.55 -3.2,-0.5l-2.65,-0.65q1.5,-1.2 6.75,-1.35q2.7,0.85 6.25,-0.65q-1.05,2.65 -4,3.4l-3.15,-0.25" /><path id="svg_25" fill-rule="evenodd" fill="url(#gradient7)" d="m81.75,89.85q0.8,-1 3.35,-1.6q-2.55,0.6 -3.35,1.6m3.35,-1.6l-2.05,4.35l-15.6,-6.5l7.8,0q4.7,-0.35 10.85,0l-1,2.15" /><path id="svg_26" fill-rule="evenodd" fill="#235454" d="m67.5,367.5l-6.95,0l1.4,-13.35l4.7,2.8l0.85,10.55m-29.9,0l-5.5,0q4.75,-12.95 10.15,-26.15q11.85,-49.8 15.95,-97.7l2.6,2.15q-2.25,6.15 -0.55,8.3l3.5,2.75q-1.75,22.35 -4.85,43.05l-13.4,43.25q-4.1,11.55 -7.9,24.35m24.3,-161.15q-0.2,-3.75 0.55,-7.9l2.55,0.15q3.3,-3.05 5.85,-3.95q-4.75,5.65 -8.95,11.7m0.95,-9.95l0.8,-3.05l14.7,-11l6,-10.45q3.75,6.55 9.9,11.35l4.3,2.9l0.1,0.1l-0.1,0.2l-2.15,0l-6.45,0.95q-1.25,0.25 -2.55,0.65q5.9,-6.4 -5.9,-4.9q-10.25,4.75 -18.65,13.25m35.9,-7.3q2.4,31.1 3.85,62.45q-3.75,-2.8 -7.35,-6.2l-1.9,-2.3l-13.1,-15.95q-1.8,-0.55 -4,-0.05l-0.85,-1.1l-2.65,-3.35q0.35,-1.3 0.95,-2.5q1.4,-2.85 4.2,-5.3l10.05,-12.65l4.35,-4.85l6.45,-8.2m-13.6,-12.4q-2.85,3 -6.8,5.65q3.95,-2.65 6.8,-5.65m-4.6,89.45l0.45,0.2q9.85,4.25 21.7,7.05l0.8,1.2l0.25,6.65l-0.25,-6.65l4,6l3.05,0l-2,1.3l-4.8,-0.65l-1.25,-0.15l-2.55,0l-6.7,8.75l-5.25,0l0,4l1.4,1.45l-18.9,19.05l-6.45,17.1q3.1,-35.1 5,-71.15q5.1,3.05 11.5,5.85" /><path id="svg_27" fill-rule="evenodd" fill="#e9e7fe" d="m159.45,123.1l-0.6,0q-5.6,-0.6 -12,1.8l-1.25,0.35l1.25,-0.35q4.85,1.1 11,0.05l0.8,-0.9l1,1.05q0.5,2.55 -2.3,3.15q-5.75,1.7 -10.75,0q-2.5,-1.8 -1,-3l-0.9,0.2q-1.45,0.3 2.35,-2.6q3.75,-2.95 7.25,-2.2l6.15,0.15q2.7,-0.65 2.05,0.8q-0.85,1.45 -3.05,1.5" /><path id="svg_28" fill-rule="evenodd" fill="url(#gradient8)" d="m127.6,144.35q-0.65,1.55 -0.35,3.5q1,4.65 4,3.5q-3.15,-0.85 -2.5,-4q3.3,-5.55 5.75,-0.75l1,2.15q0.3,3.75 -4.25,4.6q-5.25,1.55 -10.25,-7.25l-1.05,-3.25q4.6,-4.1 4.35,-15.45q6.75,6.25 18.15,9.4l0.05,1.1q-4.25,0.4 -4.8,5.35q-3.45,-4.7 -7.2,-2.15q-2.15,1.3 -2.9,3.25" /><path id="svg_29" fill-rule="evenodd" fill="#276160" d="m45.25,367.5l-7.65,0q3.8,-12.8 7.9,-24.35l13.4,-43.25q-2.15,13.95 -4.9,27.2q-4.85,20.05 -8.75,40.4m17.2,-169.05l0.4,-2.05q8.4,-8.5 18.65,-13.25q11.8,-1.5 5.9,4.9q-7.45,2 -16.55,6.6q-2.55,0.9 -5.85,3.95l-2.55,-0.15m94.65,-52.6l-4.8,-0.3q-3.5,-4.3 -6.3,-3.45l-3.4,-3.2l-0.1,-1l-0.05,-1.1l0.2,-2.95l0.65,0.45q6,3.95 10.6,3.6q-0.15,6.35 3.2,7.95m0.9,-9.35q1.65,-1.1 3,-2.9l0.7,-0.85q-0.2,8.4 4.1,14.1q-6.3,-3.25 -7.8,-10.35m-57.8,50.5l2.8,1.35l3.85,1.1q4.85,33.55 14,64.9l-6.55,4.2q-6,-2.75 -11.7,-7q-1.45,-31.35 -3.85,-62.45l1.45,-2.1" /><path id="svg_30" fill-rule="evenodd" fill="url(#gradient9)" d="m118.85,117.25l0.9,-3.8q6.25,6.9 15,5.15q4.6,1.45 8.85,0q-4.4,4.7 -11,5.4q14,13.7 25.4,12.5q-1.9,1.2 -4.1,1.4q-4.6,0.35 -10.6,-3.6l-0.65,-0.45q-8,-5.3 -18.8,-13l-5,-3.6" /><path id="svg_31" fill-rule="evenodd" fill="#3e73a8" d="m208.3,203.95q-0.5,3.55 -1.7,6.5q-3,7.45 -10.35,10.9l-1.15,0.2l-3.35,0.35q-7.15,0.65 -12.15,-0.65l0.05,-0.1q12.4,0.4 17.15,-1.75q-0.8,-1.25 -8.05,-1.8q-10.75,0.25 -20.45,2.65l-3,0.8l-4.35,1.4l-1.2,0.4q-17.35,3.6 -26.85,-2.15q-6.35,-3.9 -9.2,-11.85q-0.75,-9.55 1.85,-14.05q5.15,-2.75 9.9,-9.8l2.75,3.65q-4.15,-0.9 -5.4,5q-3.5,24.1 22.7,21.85l1.05,-0.1q16.8,-4.6 31.25,-2q11.35,0.7 20.5,-9.45m-20.3,163.55l-9.6,0q-10.1,-2.45 -24.25,-8.9q1.9,5 4.85,8.9l-13.4,0q-4.9,-3.8 -7.7,-8.05q-11.35,-13.85 0,-17.8l3.9,3.8q13.65,12.3 35.05,19.35l4.15,1.3q-17.8,-9.3 -19.65,-15.9l2.2,0.15q12.75,0.4 22.7,-6.05q3,-2 5.8,-4.65l2.75,0.05l3.35,-0.15l5.15,-0.45l0.3,2.9q-15.35,14.25 -33.2,12.9q6.85,7.5 17.6,12.6m-35.7,-221.95l0.95,1.3l2.75,2.8l1.55,1.25q-5.35,-2.75 -3.8,0.45q-6.3,-5.05 -10.8,-10.05l-0.35,-2.4l3.4,3.2q2.8,-0.85 6.3,3.45m-1.8,0.3l-4.5,-3.75l4.5,3.75m-11.05,81.65q9.6,4.35 23.3,7.35q16.55,1.05 9.3,-1.9l-8.25,-0.7q-9.1,-1 -15.3,-2.75q24.4,0.45 47.15,-5.3l-12.1,4.7l9.75,-1.5q-42.15,21.75 -28.95,33.15q2.65,2.3 9.4,4.8l-1.5,-0.25l-5.85,-1.35q-10,-5.15 -11.65,-9.4l0,-3.5l-6.5,-2.25l-4.3,-3.3q-5.45,-9.4 -3.55,-14.7l9.4,6.05l-10.35,-9.15m12.55,34.35l-2.95,-2.05l5.7,-0.4q4.7,2.2 9.3,3.65q-8.1,3.2 7.6,6.25l17.4,-0.65q-6.65,2.9 -13.75,3.55l-2.85,0.25q-16.45,-0.95 -21.7,-3.6l0,-1.75l2.25,-2.75l-1,-2.5m-70.6,-11.3q-2.65,5.1 -2.8,9.05q-0.2,3.8 1.95,6.55q-6.4,-2.8 -11.5,-5.85l-1.15,-0.7l-4.15,-2.75l-3.5,-2.75q-1.7,-2.15 0.55,-8.3q1.85,-4.9 4.2,-8.8q2.05,-3.5 4.5,-6.15l1.75,-1.75l0.2,0.35q-5.15,5.4 -4.15,7.7l14.3,13.1l-0.2,0.3m69.45,24.05l4.25,-1.75l9.05,0.1q-5.95,1.5 21.9,1.45q5.55,-0.1 12.6,-1.7l-0.65,1.9l-4.75,0.95l-1.75,0.3l-0.55,0.05l-7.95,0.3l-8.25,0.1q-12.45,-0.15 -23.9,-1.7m46.45,-6q0.7,2 -1.75,3.05q-4.75,1.5 -9.75,1.5q5.5,-0.75 10.2,-3.05l-0.25,-3.3l1.55,1.8l-1.55,-1.8q-0.6,-8.4 -0.7,-17.15q5.15,0.6 8.5,-2.55l1.25,21.45q-3.35,1.4 -5.9,1.9l-1.6,-1.85" /><path id="svg_32" fill-rule="evenodd" fill="#449198" d="m142.45,136.8q-11.4,-3.15 -18.15,-9.4l-0.45,-6.55q10.8,7.7 18.8,13l-0.2,2.95" /><path id="svg_33" fill-rule="evenodd" fill="url(#gradient10)" d="m58.2,243.65l-2.45,-2.05l-2.45,-7.8l-3.55,-3.95l0,-3.25q5.35,-10.55 12.15,-20.25q4.2,-6.05 8.95,-11.7q9.1,-4.6 16.55,-6.6q1.3,-0.4 2.55,-0.65l6.45,-0.95l2.15,0l0.5,0l1.15,0.55l-1.45,2.1l-6.45,8.2q-8.35,-4.95 -22.1,1.55q-20.3,23.35 -9.35,21q-8.5,5.25 0.75,12.85l2.35,2.5q4.55,-7.9 11.45,-9.25l0.85,1.1q-1.8,0.35 -3.85,1.45l-1.15,0.6l-1.75,1.75q-2.45,2.65 -4.5,6.15q-2.35,3.9 -4.2,8.8l-2.6,-2.15m15.5,-23.55q-0.6,1.2 -0.95,2.5l-1.75,-2.25l-5.5,-1.2q4.7,-1.1 8.2,0.95m-14.95,19.75l-5.45,-6.05l5.45,6.05" /><path id="svg_34" fill-rule="evenodd" fill="#66cccc" d="m207.4,267.4q1.6,19.35 1.35,37.95l2,3l0,3.75l4.75,14.25l-0.45,1.05q-3.95,5.8 -7,6l-1,-16.75q-2.9,-2.85 0,-9l-4,2.5q2.8,-19.85 1.75,-41.6l2.6,-1.15m-75.3,-87.95l0.1,0.15l-0.15,-0.1l0.05,-0.05m-33.45,6.8l0.4,0.2l-0.5,0l0.1,-0.2m3.95,65.3q5.7,4.25 11.7,7l1.2,0.55q-1.3,4.9 -8.65,6.35q-13.55,-6.1 -25.2,-15.2l-0.05,0q5.1,-9.7 11.75,-7.2l1.9,2.3q3.6,3.4 7.35,6.2m29.15,-5.45l5.5,0.75l2.4,3.55l3.35,5.2l6.05,4.2l2.95,2.05l-3.05,2.45l-8.2,-4.7l-4,-3.85l4,3.85l8.2,4.7l1.8,1.05l-2.95,3.3l-9,-4.5l-5.55,-4.05l1.9,3.8l2.6,5.2l3.25,3.9l1.5,1.85l-5.2,1.8l-5.5,-8.5l-3.5,-7.75l-1.65,1.55l2.7,-4.95l0.05,-0.05l1.55,0.85l-0.65,-2.9l2.45,-3.05l4,3.9l-3.2,-5.85l-4.5,1.25l2.7,-5.05m23,4.75l-4.7,3.05l-2.25,0l-3,-1.7l-8.5,-7.55l-5.65,0.4l1.35,-3.5l0.65,-0.95l0.05,0l5.05,0l6.2,4.7l4.3,3.3l6.5,2.25m-6.8,21.1q-2,-0.5 -3.3,-1.2l3.35,1.1l-0.05,0.1m-14.7,-11.85l-0.75,-1.5l-1.55,-0.8l1.55,0.8l0.75,1.5m-4.05,8.65l0.8,1.75l-1.15,-0.35l0.35,-1.4" /><path id="svg_35" fill-rule="evenodd" fill="#284d71" d="m196.25,221.35l1.5,2l-2.1,0.85q-22.75,5.75 -47.15,5.3q6.2,1.75 15.3,2.75l8.25,0.7q7.25,2.95 -9.3,1.9q-13.7,-3 -23.3,-7.35l-5.2,-2.65l5.2,2.65l10.35,9.15l-9.4,-6.05q-1.9,5.3 3.55,14.7l-6.2,-4.7l-5.05,0l1.55,-12.25l-4,-4.75l2.65,-2.9q9.5,5.75 26.85,2.15l1.2,-0.4l4.35,-1.4l3.05,-0.45l0.05,0l-0.1,-0.35q9.7,-2.4 20.45,-2.65q7.25,0.55 8.05,1.8q-4.75,2.15 -17.15,1.75l-0.4,0l0.35,0.1q5,1.3 12.15,0.65l3.35,-0.35l1.15,-0.2m-50.65,146.15l-56.6,0q-11.95,-4.7 -22.35,-10.55l-4.7,-2.8l-5.2,-3.3l7.3,-19.4l6.45,-17.1l18.9,-19.05q6.05,6.1 15,11.7q4.85,3.05 10.55,5.95q4.95,2.5 10.6,4.95l-3.65,3.4q-3.35,3.35 -5.9,7.3l0,2.75l3,12.25l3.5,3.25l2.5,0l0,-4l7.7,-7.35l5.8,-5.65l8.35,-2.35l-0.6,2.35l3.25,2.5l27,7.25l2.5,-1.5l6.6,1.1l6.45,0.45q-2.8,2.65 -5.8,4.65q-9.95,6.45 -22.7,6.05l-2.2,-0.15q-9.1,-0.7 -19.55,-4.75q10.45,4.05 19.55,4.75q1.85,6.6 19.65,15.9l-4.15,-1.3q-21.4,-7.05 -35.05,-19.35l-3.9,-3.8l-5.2,-6.15l5.2,6.15q-11.35,3.95 0,17.8q2.8,4.25 7.7,8.05m-13.4,-187.9q1.55,2.9 3.25,5.4q-4.75,7.05 -9.9,9.8q-2.6,4.5 -1.85,14.05q-0.85,-2.4 -1.4,-5.15q-4.55,-2.6 -7.45,-6.6l1.1,-1.45l0.95,1.15l-0.7,0.15l0.7,-0.15q2.35,-0.8 4.2,-4.3l0.3,-4.5q5.65,-2.6 10.65,-8.5l0.15,0.1m-10.8,18.6l0.5,3.4l0.1,0.5l0.3,1.6l-0.3,-1.6l-0.1,-0.5l-0.5,-3.4m24.35,30.4l2.75,0.9l-2.75,-0.9m3.3,31.2l-6.05,-4.2l-3.35,-5.2l3.85,2.95l5.65,3.25l0.85,0.5l0.05,0l4.7,-2.75q1.65,4.25 11.65,9.4l-2.35,-0.7q-4.6,-1.45 -9.3,-3.65l-5.7,0.4m-13.9,4.1l5.85,5.7l3.5,1.1l0.1,0.05l0.05,0q1.3,0.7 3.3,1.2l0.05,0l7.1,0.9l-7.1,-0.9l0,-0.1l2.75,-3q5.25,2.65 21.7,3.6l-8.3,0.5l-9.05,-0.1l-4.25,1.75l-9.85,-1.6l-3.25,-3.9l-2.6,-5.2m19.6,-4.5q-2.35,-1.05 -4.7,-2.3q2.35,1.25 4.7,2.3m-39.8,53.55l6.95,8.35l-6.95,-8.35m64.3,-91.8q-5,-1.25 -10.85,-0.55q5.85,-0.7 10.85,0.55" /><path id="svg_36" fill-rule="evenodd" fill="#a3d6f0" d="m112.25,190q4.8,-0.05 9.15,-2l-0.3,4.5q-1.85,3.5 -4.2,4.3l-0.95,-1.15q-2.1,-2.65 -3.7,-5.65m53.3,119.95l0.45,-3.35l0,-2l1.5,0l2.25,-1.75l-1.75,4.1l0.5,2.4l1.45,1.95l-4.4,-1.35" /><path id="svg_37" fill-rule="evenodd" fill="#339999" d="m215.05,327.4l-5.55,12.95l-2.55,2.05l0,6.7l-2.5,3l-0.6,-7.2l-0.25,-2.9l-0.3,-2.9l1.7,-0.25l2,-2.25l-2.75,-12.75l1.75,-3.75l-5.9,-3.75q-1.05,-15.1 -5.75,-28.65l-0.6,-1.6l-0.5,-10.55l4.75,-0.95l0.65,-1.9l0.6,-1.85l-0.35,-0.4q2.55,-0.5 5.9,-1.9q1.05,21.75 -1.75,41.6l4,-2.5q-2.9,6.15 0,9l1,16.75q3.05,-0.2 7,-6m-133.4,-77.15l-0.25,0.3l0.2,-0.3l0.05,0m-10.2,-20.8l-0.2,-0.35l1.15,-0.6l-0.95,0.95m135.5,112.95l-3.1,2.5l3.1,-2.5" /><path id="svg_38" fill-rule="evenodd" fill="#11142b" d="m89.4,295.3l-1.4,-1.45l0,-4l26.3,17.3q13.15,5.35 25.55,-0.05l0.25,0.15l2.7,1.3l2.55,1.2l-7.85,0.6q-6.7,3.2 -11.95,7.55q-5.65,-2.45 -10.6,-4.95q-5.7,-2.9 -10.55,-5.95q-8.95,-5.6 -15,-11.7m3.85,-5.45l6.7,-8.75l-2.7,8.75l-4,0m57.5,21.7l-3.9,15.95l-8.35,2.35l0,-14.7q-13.95,8.1 -17.25,16.2q1.1,7.75 3.75,11.5l0,4l-2.5,-2.5l-3.1,-12.9l-0.15,-0.6l1.5,-3q7.4,-9.45 17.75,-14.5l12.25,-1.8m41.3,28.1l-6.45,-0.45l-6.6,-1.1l2.55,-16.7l1.55,0.15l1.8,0.15l7.05,0.3l2.85,-0.05q6.45,-0.3 11.2,-1.85l-1.75,3.75l-6.95,5.3q-3.35,8.5 9.7,7.45l-2,2.25l-1.7,0.25l-5.15,0.45l-3.35,0.15l-2.75,-0.05m1.2,-9.7l0,-0.05l-0.15,-1.1l-0.4,-0.75q-0.5,-0.75 -1.2,-0.75q-0.7,0 -1.25,0.75q-0.5,0.8 -0.5,1.9q0,1.1 0.5,1.85q0.55,0.8 1.25,0.8q0.7,0 1.2,-0.8q0.55,-0.75 0.55,-1.85" /><path id="svg_39" fill-rule="evenodd" fill="#1b1f43" d="m145.35,309.75l-2.55,-1.2l4.65,-0.1l2.15,1l-4.25,0.3m-5.5,-2.65q-12.4,5.4 -25.55,0.05l-26.3,-17.3l5.25,0l4,0l2.7,-8.75l12.05,10.25q12.25,8.15 27.85,15.75m-34.4,-22.9l-1.65,-1.3l3.65,-0.2q-1.05,0.7 -2,1.5m48.4,41.3l0.4,-1.8l15.25,4.15l1.05,-1.35l0.4,-1.1q0.2,-1.15 -0.45,-2.3l-14.95,-4.6l1.2,-5.15l19.5,5.5l-2.5,15l-20.75,-4.75l0.85,-3.6m-18.85,-1.4q-0.55,-0.55 -1.35,-0.55q-0.8,0 -1.35,0.55q-0.55,0.55 -0.55,1.35q0,0.8 0.55,1.35q0.55,0.55 1.35,0.55q0.8,0 1.35,-0.55q0.55,-0.55 0.55,-1.35q0,-0.8 -0.55,-1.35m46.55,-2.7l0.25,-1.85l1,0.15l1,0.15l1.1,1.85l-1.8,-0.15l-1.55,-0.15m-43.05,8.45l-5.8,5.65l-7.7,7.35q-2.65,-3.75 -3.75,-11.5q3.3,-8.1 17.25,-16.2l0,14.7m65.75,-6l2.75,12.75q-13.05,1.05 -9.7,-7.45l6.95,-5.3m-3.95,-3.75l-0.1,-2.5l2.3,2.2l-2.2,0.3" /><path id="svg_40" fill-rule="evenodd" fill="#353e86" d="m142.8,308.55l-2.7,-1.3l-0.25,-0.15q-15.6,-7.6 -27.85,-15.75l-12.05,-10.25l2.55,0l1.25,0.15l4.8,0.65l-1.1,0.8l-3.65,0.2l1.65,1.3q11.45,8.95 28.4,17.65l5,2.55l8.6,4.05l-4.65,0.1" /><path id="svg_41" fill-rule="evenodd" fill="url(#gradient11)" d="m105.45,284.2q0.95,-0.8 2,-1.5l1.1,-0.8l2,-1.3l6.95,0l10.5,-7.25l0.85,-3.2l1.15,0.35l2.75,5.85l3.5,2.75l6.25,-1.75l0,-2.5l-1.5,-1.85l9.85,1.6q11.45,1.55 23.9,1.7l8.25,-0.1l7.95,-0.3l0.55,-0.05l1.75,-0.3l0.5,10.55l0.6,1.6q-6.9,-5.45 -12.85,-2.35q-8.05,4.05 -13.5,15.15l-0.3,-2.35l1.9,-4.95l0.9,-2.35q-0.85,-4.15 -4.25,-5.75q-17.35,-3.4 -32.4,16.75q-16.95,-8.7 -28.4,-17.65" /><path id="svg_42" fill-rule="evenodd" fill="#3cb3b3" d="m179.65,221.15l-0.05,0.1l-0.35,-0.1l0.4,0m-31.65,50.8l-0.05,0l0.05,-0.1l0,0.1" /><path id="svg_43" fill-rule="evenodd" fill="#405313" d="m151.3,309.3l0.2,-0.95l4.5,-1.25l1.15,0.35q-1.8,0.65 -2.3,1.3l-0.15,0.3l-1.15,1.85l24,7.35l-2.65,15.9l-1.15,-0.3l2.5,-15l-19.5,-5.5l-2.95,0l-1.25,4.55l1.7,0.2q-0.9,1 -1.25,2.25q-0.15,0.6 -0.15,1.3l0.15,1.7l1.25,0.35l-1.25,-0.35l-0.15,-1.7l17.7,4.85l-1.05,1.35l-15.25,-4.15l-0.4,1.8l-2.05,-1.1l-1.5,5.5l28.7,8.2l-2.5,1.5l-27,-7.25l-3.25,-2.5l0.6,-2.35l3.9,-15.95l0.55,-2.25" /><path id="svg_44" fill-rule="evenodd" fill="#b4da58" d="m179,338.1l-28.7,-8.2l1.5,-5.5l2.05,1.1l-0.85,3.6l20.75,4.75l1.15,0.3l1.15,0.25l2.75,-17l-23.5,-7.25q-0.8,-0.55 -0.6,-1.1l0.15,-0.3q0.5,-0.65 2.3,-1.3l8.4,2.5l4.4,1.35l10.3,3.05l2,2.25l-0.45,2.95l-0.25,1.85l-2.55,16.7m-26,-17.75q0.35,-1.25 1.25,-2.25l-1.7,-0.2l1.25,-4.55l2.95,0l-1.2,5.15l-1.3,-0.4l1.3,0.4l14.95,4.6q0.65,1.15 0.45,2.3l-17.95,-5.05" /><path id="svg_45" fill-rule="evenodd" fill="#4854b7" d="m125.55,317.9q5.25,-4.35 11.95,-7.55l7.85,-0.6l4.25,-0.3l1.7,-0.15l-0.55,2.25l-12.25,1.8q-10.35,5.05 -17.75,14.5l-1.5,3l0.15,0.6l-3.4,-0.1l0,-2.75q2.55,-3.95 5.9,-7.3l3.65,-3.4m74.55,-1.55l5.9,3.75q-4.75,1.55 -11.2,1.85l-2.85,0.05l-7.05,-0.3l-1.1,-1.85l7.9,0.6l2.85,0l5.75,-0.35l2.2,-0.3l-2.3,-2.2l-0.1,-1.25" /><path id="svg_46" fill-rule="evenodd" fill="#e0efba" d="m152.85,321.65q0,-0.7 0.15,-1.3l17.95,5.05l-0.4,1.1l-17.7,-4.85m22.05,12.5l2.65,-15.9l-24,-7.35l1.15,-1.85q-0.2,0.55 0.6,1.1l23.5,7.25l-2.75,17l-1.15,-0.25" /><path id="svg_47" fill-rule="evenodd" fill="#000000" d="m135,324.1q0.55,0.55 0.55,1.35q0,0.8 -0.55,1.35q-0.55,0.55 -1.35,0.55q-0.8,0 -1.35,-0.55q-0.55,-0.55 -0.55,-1.35q0,-0.8 0.55,-1.35q0.55,-0.55 1.35,-0.55q0.8,0 1.35,0.55m58.25,5.85q0,1.1 -0.55,1.85q-0.5,0.8 -1.2,0.8q-0.7,0 -1.25,-0.8q-0.5,-0.75 -0.5,-1.85q0,-1.1 0.5,-1.9q0.55,-0.75 1.25,-0.75q0.7,0 1.2,0.75l0.4,0.75l0.15,1.1l0,0.05" /><path id="svg_48" fill-rule="evenodd" fill="#293067" d="m125,346.85l-2.5,0l-3.5,-3.25l-3,-12.25l3.4,0.1l3.1,12.9l2.5,2.5" /><path id="svg_49" fill-rule="evenodd" fill="url(#gradient12)" d="m89,367.5l-21.5,0l-0.85,-10.55q10.4,5.85 22.35,10.55" /><path id="svg_50" fill-rule="evenodd" fill="#28714d" d="m165.3,221.05l3,-0.8l0.1,0.35l-0.05,0l-3.05,0.45" /><path id="svg_51" fill-rule="evenodd" fill="url(#gradient13)" d="m144.65,270.75l-0.05,0l-0.1,-0.05l-3.5,-1.1l-5.85,-5.7l-1.9,-3.8l5.55,4.05l9,4.5l2.95,-3.3l0,1.75l0,1.75l-2.75,3l-3.35,-1.1" /><path id="svg_52" fill-rule="evenodd" fill="url(#gradient14)" d="m148.95,264.3l3.05,-2.45l1,2.5l-2.25,2.75l0,-1.75l-1.8,-1.05" /><path id="svg_53" fill-rule="evenodd" fill="url(#gradient15)" d="m114.3,258.55l6.55,-4.2l3.9,-2.5l7.25,-10.3l-1.35,3.5l5.65,-0.4l8.5,7.55l3,1.7l2.25,0l4.7,-3.05l0,3.5l-4.7,2.75l-0.05,0l-0.85,-0.5l-5.65,-3.25l-3.85,-2.95l-2.4,-3.55l-5.5,-0.75l-2.7,5.05l4.5,-1.25l3.2,5.85l-4,-3.9l-2.45,3.05l0.65,2.9l-1.55,-0.85l-0.05,0.05l-2.7,4.95l1.65,-1.55l3.5,7.75l5.5,8.5l5.2,-1.8l0,2.5l-6.25,1.75l-3.5,-2.75l-2.75,-5.85l-0.8,-1.75l-0.35,1.4l-0.85,3.2l-10.5,7.25l-6.95,0l-3.05,0l-4,-6l-0.8,-1.2q-11.85,-2.8 -21.7,-7.05l-0.45,-0.2q-2.15,-2.75 -1.95,-6.55q0.15,-3.95 2.8,-9.05l0.25,-0.3q11.65,9.1 25.2,15.2q7.35,-1.45 8.65,-6.35l-1.2,-0.55m-9.55,15.3l-1.25,-0.3l-0.8,-0.15l0.8,0.15l1.25,0.3m19.75,-14l4.85,-2.85l-4.85,2.85m4.7,8.9l-1.2,-2.15l1.2,2.15m3.55,-16.9q-2.85,1.9 -5.75,3.75q2.9,-1.85 5.75,-3.75m-4.5,-2.25l3.5,-3.5l-3.5,3.5" /><path id="svg_54" fill-rule="evenodd" fill="#16373f" d="m60.55,367.5l-15.3,0q3.9,-20.35 8.75,-40.4q2.75,-13.25 4.9,-27.2q3.1,-20.7 4.85,-43.05l4.15,2.75l1.15,0.7q-1.9,36.05 -5,71.15l-7.3,19.4l5.2,3.3l-1.4,13.35m57.45,-244.6q0.25,-2.85 0.85,-5.65l5,3.6l0.45,6.55q0.25,11.35 -4.35,15.45q-2.95,-9.9 -1.95,-19.95m-11.15,66.55l5.4,0.55q1.6,3 3.7,5.65l-1.1,1.45q2.9,4 7.45,6.6q0.55,2.75 1.4,5.15q2.85,7.95 9.2,11.85l-2.65,2.9l4,4.75l-1.55,12.25l-0.05,0l-0.65,0.95l-7.25,10.3l-3.9,2.5q-9.15,-31.35 -14,-64.9" /><path id="svg_55" stroke-width="0.2" stroke-opacity="0.4" stroke-linejoin="round" stroke-linecap="round" stroke="#000033" fill="none" d="m196.25,18.6l3.1,2.1l4.1,5.35q8.35,12.4 5.95,24.1q-1.25,5.8 -5.1,11.5q0.05,24.9 -13.65,38.15l-1.25,1.05q-1.2,7.05 -1.5,13.9q-0.65,13.35 1.95,25.85q4.25,17.85 16.5,15.75q7.25,-2.65 5.55,-11q-2.2,-7.2 -5.65,-3.25q0.4,-4.4 5,-3q9.95,5.25 4.25,22.25q-4.85,12.25 -17.95,15.65q9.8,8 10.7,14.6q0.8,6.9 0.05,12.35q-0.5,3.55 -1.7,6.5q-3,7.45 -10.35,10.9l1.5,2l-1.75,2.05l3.85,16.15l3.9,1.8l1.4,3.35l0.1,0.95l2.15,19.75q1.6,19.35 1.35,37.95l2,3l0,3.75l4.75,14.25l-0.45,1.05l-5.55,12.95l-2.55,2.05l0,6.7l-2.5,3l1.4,15.4m-173.75,0q4.75,-12.95 10.15,-26.15q11.85,-49.8 15.95,-97.7l-2.45,-2.05l-2.45,-7.8l-3.55,-3.95l0,-3.25q5.35,-10.55 12.15,-20.25q-0.2,-3.75 0.55,-7.9l0.4,-2.05l0.8,-3.05l14.7,-11l6,-10.45q-2.2,-3.8 -3.65,-8.2q-16.25,-10.35 -16.6,-40.6l0,-1.2q0.5,-6.9 1.4,-13.55q-5.8,-13.4 -4.35,-27.2q1.05,-10.3 6.1,-20.8q3.3,-6.35 6.95,-12.1q3.85,-6.25 8,-11.8l0.2,-0.2l1.25,-1.7q4.65,-5.95 9.65,-11.15l6.2,-6.05q14.5,-13.4 41.6,-17.35q23.95,0.2 48.8,14.7l6.35,3.9m-25,73.55q-3.1,-1.15 -7.35,-1.9q-17.75,-3.2 -28.65,-27.4q-16.3,18.6 -9.75,41.75q1.55,3.75 3.6,6.05m46.65,3.25l0.5,-3q-3.6,-0.55 -5.05,-4q-4.4,0.55 -7,-1.55l0.15,-0.8m14.1,-7.8l-0.2,-0.3m-1.15,-1.15q-2.15,-1.85 -5.85,-3.15m5.85,3.2l-0.1,1.6m0.1,-1.65l1.15,1.15m-39,-36.1q-2.15,0.8 -4,2.5m37.2,-9.75q16.6,23.1 15.3,43q-0.1,2.8 -0.55,5.05m-14.75,-48.05l-3.95,-5.25m35.8,13.8q0.15,-11.55 -5.6,-26.55m-16.35,74.4q3.3,-2.25 4.6,-7.35l0.25,-1m-0.25,1l2.45,-1.3m-17.3,5.9l0,0.05q2.6,2 4.4,1.5l0.25,-4.2l0,-1l0.15,-4.95m-0.15,4.95l2.9,0.3l0.1,-0.5q0.7,-3.5 -1.3,-6.15m1.2,6.65q-1,4.3 -3.15,4.9m-0.25,2.6q1.3,0.2 2.95,0q1.75,-0.45 3.15,-1.4m-10.25,-2.75l-1.35,-1.15l0.45,1.3m-9.5,25.85l12.55,-15.4q0.9,-0.65 1.5,-3.45m-22,37.45q6.95,5.5 16.15,11.1l1.4,1.1l0.3,0.2q12.45,7.75 19,13.45l0.95,0.85q6.55,5.95 6.2,9.55q-0.65,10.15 -23.95,11.55q-4.7,0.3 -10.3,0.2l-1.85,0.2l-8.25,-0.7q-8.5,-2.1 -15.2,-10.2m35.6,-26.95l1.3,0.8q-1.1,-5.65 -9.35,-13.65q-3.55,-2.3 -8.65,-3l-4.8,-0.3l0.95,1.3l2.75,2.8m17.8,12.05q-11,-6.6 -16.25,-10.8l-1.55,-1.25m-2.25,1.7q-6.3,-5.05 -10.8,-10.05l0.55,2.55m24.2,37.3q-0.3,1.7 -0.3,3.45q3.3,3.25 4.95,6.8q1.7,3.75 1.45,7.75m-4.8,-22.3q-0.9,2.1 -1.3,4.3m7.4,-18.65l10.9,6.35q6.8,4.25 11.55,8.15m-121.45,-95.45l6.45,0.4m60.85,32.7q1.55,-1.55 2.6,-3.55q-10.7,6.5 -16.9,-0.45m-37.9,-28.1l3.6,-6l0.45,-0.7m-6.05,6.55l-6.65,-0.45m6.65,0.45l2,0.15l-2.05,3.8l-0.65,1.3l-2.7,6.05l-0.55,1.35q-9,22.9 -7.5,51.3q0.45,9.65 2.95,17.35m5.4,-77.6l3.05,0.25m-6.75,7.65l2.85,1.05m-0.15,-6.8q-2.55,0.6 -3.35,1.6m-6.5,-3.75q4.7,-0.35 10.85,0m-1,2.15l3.4,-0.6m14.75,21.45q-7.4,37.45 8.65,55.85q3.75,3.65 8.5,4.85l6.2,0.55l1.35,-0.1l1,-0.15l2.05,-1.25q6.3,-6.05 6,-13.4q-0.15,-3.2 -1.5,-6.7l-1,-2.15q-2.45,-4.8 -5.75,0.75q-0.65,3.15 2.5,4q-3,1.15 -4,-3.5q-0.3,-1.95 0.35,-3.5q0.75,-1.95 2.9,-3.25q3.75,-2.55 7.2,2.15l0.55,0.85q4.7,7.15 3.45,16.15q-0.45,3.3 -1.7,6.85q-2.6,5.15 -5.45,9.15l-2.45,3.2l0.1,0.15q1.55,2.9 3.25,5.4l2.75,3.65m-20.2,-65.75q0.25,-2.85 0.85,-5.65l0.9,-3.8q-3.5,-3.9 -6.25,-10.6q-3.7,-9.85 -5.7,-19.8q-0.8,-4.1 -1.3,-8.2l-2.5,-4.75m2.5,4.75q-1.05,-7.95 -1,-16m-29.4,22.7l-4.95,-0.35l-5.4,-0.35q-2.5,1.05 -2.6,2.5q-0.05,0.8 0.6,1.75q2.7,1.6 5.55,3.05q6.15,3.15 13.1,5.85m64.45,30.9q6.4,-2.4 12,-1.8l0.6,0m-13.85,2.15l1.25,-0.35q4.85,1.1 11,0.05l0.8,-0.9l0.8,-0.95m-3,-7.6q-1.45,-1.55 -3.2,-0.5m10.35,-2.65q-1.05,2.65 -4,3.4m-39.65,27.1l1.05,3.25q5,8.8 10.25,7.25q4.55,-0.85 4.25,-4.6m7,-10.85l-0.05,-1.1m-18.15,-9.4q0.25,11.35 -4.35,15.45q-2.95,-9.9 -1.95,-19.95m-25.7,35.95l0.4,0.9q2.25,4.3 4.85,7.45q7.9,9.4 19.25,7.55l4.05,-1l1.25,-0.4q1.9,-0.7 3.9,-1.7l2.1,-1.05l0.85,-0.5m28.4,-41.85q-5.75,1.7 -10.75,0m11.4,8.25q1.65,-1.1 3,-2.9l0.7,-0.85m-3.7,3.75q-1.9,1.2 -4.1,1.4m-11.25,-4.05l0.65,0.45q6,3.95 10.6,3.6m-7.9,4.2l4.5,3.75m-7.9,-6.95l3.4,3.2q2.8,-0.85 6.3,3.45m-9.35,-4.25l-0.35,-2.4l-0.1,-1m0.15,-4.05l-0.2,2.95m-18.15,-9.4l-0.45,-6.55l-5,-3.6m5,3.6q10.8,7.7 18.8,13m4.2,-28.95q-6.05,2.7 -12.75,1.5m9.3,8.25q-3.25,3.1 -8.65,3.95q-8.75,1.75 -15,-5.15m-21.2,73l-2.15,0l-6.45,0.95q-1.25,0.25 -2.55,0.65q-7.45,2 -16.55,6.6q-4.75,5.65 -8.95,11.7m36.75,-20.1l0.4,0.2l1.15,0.55l2.8,1.35l3.85,1.1l5.4,0.55q4.8,-0.05 9.15,-2q5.65,-2.6 10.65,-8.5l0.05,-0.05m-33.45,6.8l-0.1,-0.1l-4.3,-2.9q-6.15,-4.8 -9.9,-11.35m14.7,14.55l-0.5,0m1.65,0.55l-1.45,2.1q2.4,31.1 3.85,62.45q5.7,4.25 11.7,7l6.55,-4.2q-9.15,-31.35 -14,-64.9m-8.1,-0.35l-6.45,8.2l-4.35,4.85l-10.05,12.65q-2.8,2.45 -4.2,5.3q-0.6,1.2 -0.95,2.5l2.65,3.35l0.85,1.1q2.2,-0.5 4,0.05l13.1,15.95l1.9,2.3q3.6,3.4 7.35,6.2m14.3,-54.75l-0.95,-1.15l-1.1,1.45q2.9,4 7.45,6.6l-0.3,-1.6l-0.1,-0.5l-0.5,-3.4m-4.5,-1.4l-0.7,0.15m-0.25,-1.3q-2.1,-2.65 -3.7,-5.65m9.15,-2l-0.3,4.5q-1.85,3.5 -4.2,4.3m6.8,12.05q2.85,7.95 9.2,11.85q9.5,5.75 26.85,2.15l1.2,-0.4l4.35,-1.4l3,-0.8q9.7,-2.4 20.45,-2.65m-9.15,3.65q5,1.3 12.15,0.65l3.35,-0.35l1.15,-0.2m-114,-169.5q-6.8,14 -11.1,29.35m-1.85,6.95q-2.4,9.85 -3.8,20.2m12.85,74q3.95,-2.65 6.8,-5.65m38.55,32.15q-0.85,-2.4 -1.4,-5.15m11.95,21.15l5.2,2.65q9.6,4.35 23.3,7.35m9.3,-1.9l-8.25,-0.7q-9.1,-1 -15.3,-2.75l-2.75,-0.9m-6.1,21.8l-2.4,-3.55l-5.5,-0.75l-3.5,3.5m8.5,6.15l4,3.85l8.2,4.7m3.05,-2.45l-2.95,-2.05l-6.05,-4.2l-3.35,-5.2l3.85,2.95l5.65,3.25l0.85,0.5l0.05,0l4.7,-2.75l0,-3.5l-6.5,-2.25l-4.3,-3.3m-11.95,-3.75l-7.25,10.3l-3.9,2.5m11.85,-13.75l5.05,0l6.2,4.7m-11.95,-3.75l0.65,-0.95l0.05,0l1.55,-12.25l-4,-4.75l2.65,-2.9m-51.5,29.85q-2.65,5.1 -2.8,9.05q-0.2,3.8 1.95,6.55l0.45,0.2q9.85,4.25 21.7,7.05l0.8,0.15l1.25,0.3m9.55,-15.3l1.2,0.55m-33.9,-8.85l-0.2,0.3m-10.15,-21.45l-1.75,1.75q-2.45,2.65 -4.5,6.15q-2.35,3.9 -4.2,8.8q-2.25,6.15 -0.55,8.3l3.5,2.75l4.15,2.75l1.15,0.7q5.1,3.05 11.5,5.85m7.45,23.7l0,4l1.4,1.45q6.05,6.1 15,11.7q4.85,3.05 10.55,5.95q4.95,2.5 10.6,4.95q5.25,-4.35 11.95,-7.55l7.85,-0.6l-2.55,-1.2l-2.7,-1.3l-0.25,-0.15m-51.85,-17.25l5.25,0l6.7,-8.75l2.55,0l1.25,0.15l-0.25,-6.65l-0.8,-1.2m-2.75,7.7l12.05,10.25q12.25,8.15 27.85,15.75m-36.05,-24.2l1.65,1.3q0.95,-0.8 2,-1.5m3.1,-2.1l-2,1.3l-1.1,0.8m3.1,-2.1l-3.05,0l-4,-6m0.25,6.65l4.8,0.65m20.3,-11.75l-0.85,3.2l-10.5,7.25l-6.95,0m40.2,-15.25l-1.8,-1.05m-4.3,6.45l-0.05,0l-0.1,-0.05l-3.5,-1.1l-5.85,-5.7l2.6,5.2l3.25,3.9l9.85,1.6m4.25,-1.75l-7.1,-0.9l-0.05,0q-2,-0.5 -3.3,-1.2l3.35,1.1l2.75,-3l0,-1.75l0,-1.75m-17.5,-5.25l1.9,3.8m15.6,3.2l2.25,-2.75l-1,-2.5m-1.95,-4.75q2.35,1.25 4.7,2.3q4.7,2.2 9.3,3.65l2.35,0.7l5.85,1.35l1.5,0.25l2.25,0.25m-39.25,-9.85l-4,-3.9m-1.8,5.95l1.55,0.8l0.75,1.5m-3.9,-3.1l-4.85,2.85m6.45,-2.05l-1.55,-0.85l-0.05,0.05m13.15,17.85l-1.5,-1.85m-13,-6.4l1.2,2.15l0.8,1.75l2.75,5.85l3.5,2.75l6.25,-1.75l0,-2.5m-13.3,-6.1l-0.35,1.4l1.15,0.35m-3,-14.9q2.9,-1.85 5.75,-3.75m-51.15,-1.6q5.1,-9.7 11.75,-7.2m-20.6,-20.45l-1.75,-2.25l-5.5,-1.2l-1.25,-0.3m-10.95,14.95l5.45,6.05m13.65,-11.35l-1.15,0.6m1.15,-0.6q2.05,-1.1 3.85,-1.45m-15.45,18.75l-2.6,-2.15m-12.95,123.85q3.9,-20.35 8.75,-40.4q2.75,-13.25 4.9,-27.2q3.1,-20.7 4.85,-43.05m0.3,74.6l6.45,-17.1l18.9,-19.05m-27.45,58.85l-1.4,13.35m6.95,0l-0.85,-10.55l-4.7,-2.8l-5.2,-3.3l7.3,-19.4q3.1,-35.1 5,-71.15m88.1,47.15l-1.15,-0.35l-4.5,1.25l-0.2,0.95l-0.55,2.25l-3.9,15.95l-0.6,2.35l3.25,2.5l27,7.25l2.5,-1.5l2.55,-16.7l0.25,-1.85l0.45,-2.95l-2,-2.25l-10.3,-3.05l-4.4,-1.35m-11.7,15.55l0.4,-1.8l-1.25,-0.35l-0.15,-1.7q0,-0.7 0.15,-1.3q0.35,-1.25 1.25,-2.25l1.3,0.4l14.95,4.6q0.65,1.15 0.45,2.3l-0.4,1.1l-1.05,1.35l-15.25,-4.15m2.5,-10.35l19.5,5.5l-2.5,15m-16.6,-26.4l8.4,2.5m0.45,-3.35l0,-2l0,-2l1.7,-4.45l1.9,-4.95m-35.75,8.65l5,2.55l8.6,4.05l2.15,1l1.7,-0.15m-1.7,0.15l-4.25,0.3m10.2,8.75l1.2,-5.15m-34.85,7.95l3.65,-3.4m9.45,6.2q0.55,0.55 0.55,1.35q0,0.8 -0.55,1.35q-0.55,0.55 -1.35,0.55q-0.8,0 -1.35,-0.55q-0.55,-0.55 -0.55,-1.35q0,-0.8 0.55,-1.35q0.55,-0.55 1.35,-0.55q0.8,0 1.35,0.55m-2.3,11.4l5.2,6.15l3.9,3.8q10.45,4.05 19.55,4.75l2.2,0.15q12.75,0.4 22.7,-6.05q3,-2 5.8,-4.65l-6.45,-0.45l-6.6,-1.1m-54,4.75l7.7,-7.35l5.8,-5.65l8.35,-2.35m-25.6,3.85q1.1,7.75 3.75,11.5l0,4l-2.5,0l-3.5,-3.25l-3,-12.25l0,-2.75q2.55,-3.95 5.9,-7.3l-6.95,-8.35m38.9,12.55l-0.85,3.6l20.75,4.75m-23,-22.3l-12.25,1.8q-10.35,5.05 -17.75,14.5l-1.5,3l0.15,0.6l3.1,12.9l2.5,2.5m-36,20.65q-11.95,-4.7 -22.35,-10.55m67.2,-55.1q-16.95,-8.7 -28.4,-17.65m59.85,-63.15l3.05,-0.45l0.05,0q5.85,-0.7 10.85,0.55l0.35,0.1m16.4,4.15l-0.6,0.7q-0.5,10.65 -0.4,20.75l4.65,-0.95l1.35,-0.8l-1.15,-3.55m2.4,2.8l-1.25,0.75m-3.7,23.5l-1.55,-1.8l0.25,3.3m-0.95,-20.45q0.1,8.75 0.7,17.15m1.55,1.8l1.6,1.85q2.55,-0.5 5.9,-1.9l2.6,-1.15m-12.35,-17.75l-0.05,-2.8m3.9,23.6l0.35,0.4l-0.6,1.85l-0.65,1.9l-4.75,0.95l0.5,10.55l0.6,1.6q4.7,13.55 5.75,28.65l5.9,3.75l-1.75,3.75l2.75,12.75l-2,2.25l-1.7,0.25l0.3,2.9l0.25,2.9l3.1,-2.5m-13.7,-66.85l-1.75,0.3l-0.55,0.05l-7.95,0.3l-8.25,0.1q-12.45,-0.15 -23.9,-1.7m49.45,45.5l-0.1,-2.5l-0.1,-1.25m-16.3,3.5l7.9,0.6l2.85,0l5.75,-0.35l2.2,-0.3m-20.95,1.6l1.55,0.15l1.8,0.15l7.05,0.3l2.85,-0.05q6.45,-0.3 11.2,-1.85m-22.2,-0.25l-1,-0.15l-1,-0.15m-13.55,-16.7l-0.25,-2.35l-0.3,-2.35m-1.7,6.45l1.5,0m25.75,25.35q0,1.1 -0.55,1.85q-0.5,0.8 -1.2,0.8q-0.7,0 -1.25,-0.8q-0.5,-0.75 -0.5,-1.85q0,-1.1 0.5,-1.9q0.55,-0.75 1.25,-0.75q0.7,0 1.2,0.75l0.4,0.75l0.15,1.1l0,0.05m10.05,9.15l-5.15,0.45l-3.35,0.15l-2.75,-0.05m-11.05,26.45l-4.15,-1.3q-21.4,-7.05 -35.05,-19.35m62.05,-0.55l0.6,7.2m-49.35,-79.25l9.05,0.1m-93.3,-78.3q-2.55,0.9 -5.85,3.95m102.4,-14q-4.05,-4.05 -10.65,-7.75" /></g><g id="sprite1"><use id="svg_56" ns1:href="#sprite2" width="30.6" height="30.6" /></g><g id="sprite2"><use id="svg_57" ns1:href="#shape2" width="30.6" height="30.6" /></g><g id="shape2"><path id="svg_58" fill-rule="evenodd" fill="url(#gradient16)" d="m30.6,15.3q0,6.35 -4.5,10.8q-4.45,4.5 -10.8,4.5q-6.35,0 -10.85,-4.5q-4.45,-4.45 -4.45,-10.8q0,-6.35 4.45,-10.85q4.5,-4.45 10.85,-4.45q6.35,0 10.8,4.45q4.5,4.5 4.5,10.85" /></g><g transform="matrix(1,0,0,1,-151.1,-125.8) " id="shape3"><path id="svg_59" fill-rule="evenodd" fill="#ffffff" d="m158.1,126.7l-1.95,0.4l-1.95,0.05l-0.8,-0.35q0,-0.25 0.8,-0.5q0.8,-0.3 1.95,-0.45l1.95,0q0.8,0.15 0.8,0.4l-0.8,0.45" /><path id="svg_60" fill-rule="evenodd" fill="#ffffff" d="m152.3,127.15l-0.6,0.1l-0.5,-0.3l-0.1,-0.3l0.3,-0.35l0.55,-0.05q0.35,0.05 0.55,0.25l0.15,0.35l-0.35,0.3" /></g><g id="sprite3"><use id="svg_61" ns1:href="#shape4" width="43.35" height="14.9" /></g><g id="shape4"><path id="svg_62" fill-rule="evenodd" fill="#ffffff" d="m33.45,12.45q1.25,-6 3.8,-9.5q4.25,-3.85 5.65,-0.35q1.4,3.45 -1.7,12.05l-1.35,-1.15l0.45,1.3q-4.4,0.55 -7,-1.55l0.15,-0.8m-17.5,0.35q-6.05,2.7 -12.75,1.5q-5.55,-11 -1.5,-14q3,-1.25 7.9,2.75q4.4,4.45 6.35,9.75" /></g><g id="sprite4"><use id="svg_63" ns1:href="#shape5" width="102.95" height="45" /></g><g id="shape5"><path id="svg_64" fill-rule="evenodd" fill-opacity="0" fill="#ff00ff" d="m102.95,45l-102.95,0l0,-45l102.95,0l0,45" /></g><linearGradient y2="3.186058" y1="3.40255" x2="0.793822" x1="-0.236322" spreadMethod="pad" id="gradient0"><stop stop-color="#9fdfdf" offset="0" /><stop stop-color="#ade2e1" offset="1" /></linearGradient><linearGradient y2="0.482684" y1="0.508592" x2="0.77804" x1="0.2512" spreadMethod="pad" id="gradient1"><stop stop-color="#66cccc" offset="0" /><stop stop-color="#ade2e1" offset="1" /></linearGradient><linearGradient y2="0.415431" y1="0.887213" x2="0.292187" x1="0.584827" spreadMethod="pad" id="gradient2"><stop stop-color="#b4e1fe" offset="0" /><stop stop-color="#449299" offset="1" /></linearGradient><linearGradient y2="0.527796" y1="0.469622" x2="0.233376" x1="0.890766" spreadMethod="pad" id="gradient3"><stop stop-color="#66cccc" offset="0" /><stop stop-color="#2f8c8c" offset="1" /></linearGradient><linearGradient y2="0.309712" y1="0.539927" x2="0.271741" x1="0.556303" spreadMethod="pad" id="gradient4"><stop stop-color="#66cccc" offset="0" /><stop stop-color="#2f8c8c" offset="1" /></linearGradient><linearGradient y2="0.501272" y1="0.501272" x2="-0.913025" x1="0.932195" spreadMethod="pad" id="gradient5"><stop stop-color="#b4e1fe" offset="0" /><stop stop-color="#66afbb" offset="1" /></linearGradient><linearGradient y2="5.352309" y1="5.726431" x2="3.893826" x1="0.239212" spreadMethod="pad" id="gradient6"><stop stop-color="#ace3e2" offset="0" /><stop stop-color="#ade2e1" offset="1" /></linearGradient><linearGradient y2="1.103467" y1="0.072563" x2="1.73959" x1="0.351562" spreadMethod="pad" id="gradient7"><stop stop-color="#b4e1fe" offset="0" /><stop stop-color="#66afbb" offset="1" /></linearGradient><linearGradient y2="0.122117" y1="0.848011" x2="0.503326" x1="0.503326" spreadMethod="pad" id="gradient8"><stop stop-color="#b4e1fe" offset="0" /><stop stop-color="#66afbb" offset="1" /></linearGradient><linearGradient y2="0.202601" y1="0.483716" x2="-0.20208" x1="0.454954" spreadMethod="pad" id="gradient9"><stop stop-color="#b4e1fe" offset="0" /><stop stop-color="#66afbb" offset="1" /></linearGradient><linearGradient y2="0.259585" y1="0.825503" x2="0.541307" x1="0.255521" spreadMethod="pad" id="gradient10"><stop stop-color="#b4e1fe" offset="0" /><stop stop-color="#66afbb" offset="1" /></linearGradient><linearGradient y2="-0.982301" y1="0.764636" x2="0.448219" x1="0.509037" spreadMethod="pad" id="gradient11"><stop stop-color="#b4e1fe" offset="0" /><stop stop-color="#66afbb" offset="1" /></linearGradient><linearGradient y2="3.473224" y1="19.872774" x2="2.052424" x1="1.473303" spreadMethod="pad" id="gradient12"><stop stop-color="#b4e1fe" offset="0" /><stop stop-color="#66afbb" offset="1" /></linearGradient><linearGradient y2="0.300302" y1="0.746505" x2="0.332141" x1="0.856429" spreadMethod="pad" id="gradient13"><stop stop-color="#246d6d" offset="0" /><stop stop-color="#2f8c8c" offset="1" /></linearGradient><linearGradient y2="-2.456429" y1="0.57071" x2="-3.233636" x1="0.690431" spreadMethod="pad" id="gradient14"><stop stop-color="#246d6d" offset="0" /><stop stop-color="#2f8c8c" offset="1" /></linearGradient><linearGradient y2="0.641971" y1="0.797209" x2="0.697706" x1="0.837526" spreadMethod="pad" id="gradient15"><stop stop-color="#246d6d" offset="0" /><stop stop-color="#2f8c8c" offset="1" /></linearGradient><radialGradient spreadMethod="pad" r="819.2" id="gradient16" gradientUnits="userSpaceOnUse" gradientTransform="matrix(0.0189, 0.0, 0.0, 0.0189, 15.3, 15.3)" cy="0" cx="0"><stop stop-opacity="0.188235" stop-color="#ff6600" offset="0" /><stop stop-opacity="0" stop-color="#ff6600" offset="1" /></radialGradient></defs><g><title>background</title><rect fill="none" id="canvas_background" height="266" width="139" y="-1" x="-1" /></g><g><title>Layer 1</title><g id="svg_65"><use x="73" y="251" id="svg_66" ns1:href="#shape0" width="381" transform="matrix(1,0,0,1,-192.55,-294) " height="381" /><use x="103.840683" y="357.041252" id="svg_67" ns1:href="#sprite0" width="187.5" transform="matrix(0.703,0,0,0.703,-70.1871,-249.553) " height="369.5" /><use x="-6.086764" y="0" ns1:href="#sprite4" width="102.95" transform="matrix(1.8072000000000004,0,0,1.6538,-8.049999999999997,30.5) " id="_mcMask" height="45" /></g></g></svg>