<?xml version="1.0" encoding="UTF-8" standalone="no"?>
<svg xmlns:ffdec="https://www.free-decompiler.com/flash" xmlns:xlink="http://www.w3.org/1999/xlink" ffdec:objectType="shape" height="204.125px" width="172.875px" xmlns="http://www.w3.org/2000/svg">
  <g transform="matrix(2.5, 0.0, 0.0, 2.5, 86.375, 102.0)">
    <path d="M19.85 -6.8 L19.85 -6.7 19.9 -6.9 19.85 -6.8 M20.75 -12.55 L20.45 -11.85 20.4 -11.4 20.7 -11.55 20.75 -12.55 M-13.3 -17.65 L-10.45 -14.25 -9.75 -22.2 Q-8.25 -26.85 -6.65 -30.55 -4.25 -36.05 -1.55 -39.6 L-1.5 -39.7 Q0.9 -34.05 5.35 -31.15 6.85 -30.1 8.65 -29.45 9.6 -31.75 8.15 -35.25 L10.3 -33.5 13.05 -30.55 15.1 -27.9 15.85 -22.15 17.3 -25.25 Q18.4 -20.3 21.3 -16.95 L21.15 -15.9 22.45 -16.4 22.4 -16.25 21.8 -14.9 Q25.9 -14.6 28.5 -11.65 30.8 -9.15 32.35 -3.35 34.15 3.05 33.15 7.85 29.75 2.4 26.35 2.7 L25.65 2.8 Q23.35 3.45 21.6 6.95 L21.85 8.05 Q22.5 7.45 23.25 7.8 23.95 8.15 24.3 9.25 24.65 10.4 24.45 11.7 L23.95 13.0 24.4 13.4 Q24.95 14.05 25.15 14.95 25.3 15.9 24.95 16.55 L24.55 16.95 24.55 17.1 24.55 20.65 24.0 21.4 Q24.4 22.35 24.4 23.3 24.4 24.55 23.65 24.95 22.95 25.3 21.9 24.65 L21.8 24.7 22.0 25.75 23.25 26.15 Q25.35 27.85 25.75 30.05 25.65 30.8 24.6 31.0 L22.15 31.3 22.4 33.0 Q22.2 33.7 21.25 33.8 17.95 33.8 15.35 32.7 L14.95 32.7 14.85 32.8 Q14.05 34.05 13.0 34.6 11.95 35.1 11.25 34.6 10.55 34.05 10.6 32.75 L8.95 33.7 7.75 34.0 7.85 35.75 Q7.55 36.55 6.5 36.7 5.25 36.85 2.85 36.0 L1.45 36.6 1.4 38.2 Q1.1 39.55 -1.7 39.75 L-3.25 39.6 Q-4.9 39.1 -5.35 37.2 L-5.4 36.45 -6.2 36.3 Q-6.4 37.05 -7.8 37.2 L-8.65 37.05 Q-9.45 36.75 -9.7 35.65 -9.8 34.95 -9.5 34.4 L-8.9 33.45 -8.85 33.35 Q-9.0 31.65 -7.6 30.1 -6.85 29.2 -5.55 28.4 L-5.45 28.35 -5.65 28.2 Q-6.2 28.55 -6.55 27.7 L-6.65 27.9 Q-7.45 28.4 -8.2 28.6 -9.1 28.85 -9.95 28.6 -11.6 28.05 -13.2 25.85 L-13.2 22.3 -13.2 22.15 -13.55 21.75 Q-13.95 21.1 -13.75 20.15 -13.6 19.25 -13.0 18.6 L-12.55 18.2 -13.05 16.9 Q-13.3 15.6 -12.95 14.45 -12.6 13.35 -11.85 13.0 L-11.15 12.9 -10.45 13.25 -10.4 12.85 -11.15 12.8 -11.85 12.85 -12.5 12.95 Q-15.65 13.7 -16.85 16.2 -20.15 10.6 -24.05 11.0 L-24.95 11.2 Q-29.1 12.3 -32.55 19.1 -34.25 14.8 -32.75 7.7 -31.45 1.3 -28.95 -2.1 -25.75 -6.65 -19.9 -8.6 -19.95 -5.3 -18.95 -2.95 -17.6 0.65 -16.05 2.8 -13.55 6.6 -8.6 7.9 L-8.8 8.7 -8.55 8.55 -8.2 8.5 -7.65 8.95 -6.7 7.25 Q-13.15 4.9 -13.25 -0.35 L-10.35 -0.2 -12.9 -6.3 Q-14.4 -12.1 -13.3 -17.65" fill="#000000" fill-rule="evenodd" stroke="none"/>
    <path d="M-13.3 -17.65 Q-14.4 -12.1 -12.9 -6.3 L-10.35 -0.2 -13.25 -0.35 Q-13.15 4.9 -6.7 7.25 L-7.65 8.95 -8.2 8.5 -8.55 8.55 -8.8 8.7 -8.6 7.9 Q-13.55 6.6 -16.05 2.8 -17.6 0.65 -18.95 -2.95 -19.95 -5.3 -19.9 -8.6 -25.75 -6.65 -28.95 -2.1 -31.45 1.3 -32.75 7.7 -34.25 14.8 -32.55 19.1 -29.1 12.3 -24.95 11.2 L-24.05 11.0 Q-20.15 10.6 -16.85 16.2 -15.65 13.7 -12.5 12.95 L-11.85 12.85 -11.15 12.8 -10.4 12.85 -10.45 13.25 -11.15 12.9 -11.85 13.0 Q-12.6 13.35 -12.95 14.45 -13.3 15.6 -13.05 16.9 L-12.55 18.2 -13.0 18.6 Q-13.6 19.25 -13.75 20.15 -13.95 21.1 -13.55 21.75 L-13.2 22.15 -13.2 22.3 -13.2 25.85 Q-11.6 28.05 -9.95 28.6 -9.1 28.85 -8.2 28.6 -7.45 28.4 -6.65 27.9 L-6.55 27.7 Q-6.2 28.55 -5.65 28.2 L-5.45 28.35 -5.55 28.4 Q-6.85 29.2 -7.6 30.1 -9.0 31.65 -8.85 33.35 L-8.9 33.45 -9.5 34.4 Q-9.8 34.95 -9.7 35.65 -9.45 36.75 -8.65 37.05 L-7.8 37.2 Q-6.4 37.05 -6.2 36.3 L-5.4 36.45 -5.35 37.2 Q-4.9 39.1 -3.25 39.6 L-1.7 39.75 Q1.1 39.55 1.4 38.2 L1.45 36.6 2.85 36.0 Q5.25 36.85 6.5 36.7 7.55 36.55 7.85 35.75 L7.75 34.0 8.95 33.7 10.6 32.75 Q10.55 34.05 11.25 34.6 11.95 35.1 13.0 34.6 14.05 34.05 14.85 32.8 L14.95 32.7 15.35 32.7 Q17.95 33.8 21.25 33.8 22.2 33.7 22.4 33.0 L22.15 31.3 24.6 31.0 Q25.65 30.8 25.75 30.05 25.35 27.85 23.25 26.15 L22.0 25.75 21.8 24.7 21.9 24.65 Q22.95 25.3 23.65 24.95 24.4 24.55 24.4 23.3 24.4 22.35 24.0 21.4 L24.55 20.65 24.55 17.1 24.55 16.95 24.95 16.55 Q25.3 15.9 25.15 14.95 24.95 14.05 24.4 13.4 L23.95 13.0 24.45 11.7 Q24.65 10.4 24.3 9.25 23.95 8.15 23.25 7.8 22.5 7.45 21.85 8.05 L21.6 6.95 Q23.35 3.45 25.65 2.8 L26.35 2.7 Q29.75 2.4 33.15 7.85 34.15 3.05 32.35 -3.35 30.8 -9.15 28.5 -11.65 25.9 -14.6 21.8 -14.9 L22.4 -16.25 22.45 -16.4 21.15 -15.9 21.3 -16.95 Q18.4 -20.3 17.3 -25.25 L15.85 -22.15 15.1 -27.9 13.05 -30.55 10.3 -33.5 8.15 -35.25 Q9.6 -31.75 8.65 -29.45 6.85 -30.1 5.35 -31.15 0.9 -34.05 -1.5 -39.7 L-1.55 -39.6 Q-4.25 -36.05 -6.65 -30.55 -8.25 -26.85 -9.75 -22.2 L-10.45 -14.25 -13.3 -17.65 M20.75 -12.55 L20.7 -11.55 20.4 -11.4 20.45 -11.85 20.75 -12.55 M19.85 -6.8 L19.9 -6.9 19.85 -6.7 19.85 -6.8 Z" fill="none" stroke="#1f1f29" stroke-linecap="round" stroke-linejoin="round" stroke-width="2.25"/>
    <path d="M12.9 5.0 Q16.8 2.05 18.55 -2.55 19.55 -5.15 20.35 -9.1 20.95 -11.75 20.65 -14.95 31.45 -7.7 33.15 7.85 29.75 2.4 26.35 2.7 L25.65 2.8 Q22.9 -0.15 22.35 -7.9 18.25 2.7 20.25 10.3 19.1 8.3 16.5 8.6 13.85 9.1 13.0 11.2 14.15 8.05 12.9 5.0" fill="#a1330b" fill-rule="evenodd" stroke="none"/>
    <path d="M33.15 7.85 Q31.45 -7.7 20.65 -14.95 25.5 -15.0 28.5 -11.65 30.8 -9.15 32.35 -3.35 34.15 3.05 33.15 7.85" fill="#ff6b47" fill-rule="evenodd" stroke="none"/>
    <path d="M20.25 10.3 Q18.25 2.7 22.35 -7.9 22.9 -0.15 25.65 2.8 22.4 3.75 20.25 10.3" fill="#771e09" fill-rule="evenodd" stroke="none"/>
    <path d="M20.65 -14.95 Q20.95 -11.75 20.35 -9.1 19.55 -5.15 18.55 -2.55 16.8 2.05 12.9 5.0 M13.0 11.2 Q13.85 9.1 16.5 8.6 19.1 8.3 20.25 10.3 22.4 3.75 25.65 2.8 L26.35 2.7 Q29.75 2.4 33.15 7.85 34.15 3.05 32.35 -3.35 30.8 -9.15 28.5 -11.65 25.5 -15.0 20.65 -14.95" ffdec:has-small-stroke="true" ffdec:original-stroke-width="0.125" fill="none" stroke="#1f1f29" stroke-linecap="round" stroke-linejoin="round" stroke-width="0.16000000000000003"/>
    <path d="M-24.05 11.0 Q-21.1 6.95 -21.2 -0.95 -15.2 7.85 -16.85 16.2 -20.15 10.6 -24.05 11.0" fill="#771e09" fill-rule="evenodd" stroke="none"/>
    <path d="M-16.85 16.2 Q-15.2 7.85 -21.2 -0.95 -21.1 6.95 -24.05 11.0 L-24.95 11.2 Q-29.1 12.3 -32.55 19.1 -32.15 3.0 -19.9 -8.6 -19.95 -5.3 -18.95 -2.95 -17.6 0.65 -16.05 2.8 -13.55 6.6 -8.6 7.9 -9.8 11.45 -8.1 14.1 -9.3 12.35 -12.5 12.95 -15.65 13.7 -16.85 16.2" fill="#a1330b" fill-rule="evenodd" stroke="none"/>
    <path d="M-19.9 -8.6 Q-32.15 3.0 -32.55 19.1 -34.25 14.8 -32.75 7.7 -31.45 1.3 -28.95 -2.1 -25.75 -6.65 -19.9 -8.6" fill="#ff6b47" fill-rule="evenodd" stroke="none"/>
    <path d="M-24.05 11.0 Q-20.15 10.6 -16.85 16.2 -15.65 13.7 -12.5 12.95 -9.3 12.35 -8.1 14.1 M-8.6 7.9 Q-13.55 6.6 -16.05 2.8 -17.6 0.65 -18.95 -2.95 -19.95 -5.3 -19.9 -8.6 -25.75 -6.65 -28.95 -2.1 -31.45 1.3 -32.75 7.7 -34.25 14.8 -32.55 19.1 -29.1 12.3 -24.95 11.2 L-24.05 11.0" ffdec:has-small-stroke="true" ffdec:original-stroke-width="0.125" fill="none" stroke="#1f1f29" stroke-linecap="round" stroke-linejoin="round" stroke-width="0.16000000000000003"/>
    <path d="M19.6 3.3 L19.9 3.35 20.7 3.85 Q21.4 4.5 21.3 5.45 L21.2 5.8 Q20.95 6.45 20.3 6.9 19.7 7.3 18.95 7.4 19.85 8.35 19.9 9.3 19.95 10.2 19.15 10.6 L17.45 10.75 17.25 10.7 15.85 9.9 15.8 10.5 Q15.5 11.25 14.85 11.45 L14.35 11.45 13.4 11.0 12.95 10.55 12.35 9.45 12.25 9.05 19.6 3.3" fill="#dac492" fill-rule="evenodd" stroke="none"/>
    <path d="M21.2 5.8 L21.4 6.25 21.85 8.05 Q22.5 7.45 23.25 7.8 23.95 8.15 24.3 9.25 24.65 10.4 24.45 11.7 L23.95 13.0 24.4 13.4 Q24.95 14.05 25.15 14.95 25.3 15.9 24.95 16.55 L24.55 16.95 24.55 17.1 24.55 20.65 Q22.95 22.85 21.35 23.4 21.2 16.4 17.4 14.4 L17.4 14.35 17.45 10.75 19.15 10.6 Q19.95 10.2 19.9 9.3 19.85 8.35 18.95 7.4 19.7 7.3 20.3 6.9 20.95 6.45 21.2 5.8" fill="#381952" fill-rule="evenodd" stroke="none"/>
    <path d="M21.35 23.4 Q20.45 23.65 19.55 23.4 L15.75 19.65 15.7 19.1 15.5 19.4 14.85 20.05 Q13.95 17.2 15.25 13.0 14.55 12.5 14.35 11.45 L14.85 11.45 Q15.5 11.25 15.8 10.5 L15.85 9.9 17.25 10.7 17.45 10.75 17.4 14.35 17.4 14.4 Q21.2 16.4 21.35 23.4" fill="#582578" fill-rule="evenodd" stroke="none"/>
    <path d="M19.55 23.4 L18.05 22.7 17.9 22.5 Q17.55 23.35 17.05 23.0 16.45 22.65 16.05 21.25 L15.75 19.65 19.55 23.4 M14.85 20.05 L14.55 20.05 Q14.0 19.95 13.75 18.7 13.4 17.35 13.55 15.65 13.65 14.6 13.9 13.75 L13.6 13.45 Q13.1 12.9 12.95 11.8 L12.95 10.55 13.4 11.0 14.35 11.45 Q14.55 12.5 15.25 13.0 13.95 17.2 14.85 20.05" fill="#9467b0" fill-rule="evenodd" stroke="none"/>
    <path d="M19.6 3.3 L19.9 3.35 20.7 3.85 Q21.4 4.5 21.3 5.45 L21.2 5.8 Q20.95 6.45 20.3 6.9 19.7 7.3 18.95 7.4 19.85 8.35 19.9 9.3 19.95 10.2 19.15 10.6 L17.45 10.75 17.25 10.7 15.85 9.9 15.8 10.5 Q15.5 11.25 14.85 11.45 L14.35 11.45 13.4 11.0 12.95 10.55 12.35 9.45 12.25 9.05" ffdec:has-small-stroke="true" ffdec:original-stroke-width="0.125" fill="none" stroke="#1f1f29" stroke-linecap="round" stroke-linejoin="round" stroke-width="0.16000000000000003"/>
    <path d="M21.2 5.8 L21.4 6.25 21.85 8.05 Q22.5 7.45 23.25 7.8 23.95 8.15 24.3 9.25 24.65 10.4 24.45 11.7 L23.95 13.0 24.4 13.4 Q24.95 14.05 25.15 14.95 25.3 15.9 24.95 16.55 L24.55 16.95 24.55 17.1 24.55 20.65 Q22.95 22.85 21.35 23.4 20.45 23.65 19.55 23.4 L18.05 22.7 17.9 22.5 Q17.55 23.35 17.05 23.0 16.45 22.65 16.05 21.25 L15.75 19.65 15.7 19.1 15.5 19.4 14.85 20.05 14.55 20.05 Q14.0 19.95 13.75 18.7 13.4 17.35 13.55 15.65 13.65 14.6 13.9 13.75 L13.6 13.45 Q13.1 12.9 12.95 11.8 L12.95 10.55" ffdec:has-small-stroke="true" ffdec:original-stroke-width="0.125" fill="none" stroke="#1f1f29" stroke-linecap="round" stroke-linejoin="round" stroke-width="0.16000000000000003"/>
    <path d="M17.85 26.85 L17.6 25.85 Q15.65 25.15 13.9 25.3 L12.65 25.5 13.95 25.7 17.0 26.55 17.1 26.6 17.45 27.25 17.3 27.4 17.3 27.7 Q16.2 27.95 15.15 28.9 L15.1 29.65 14.75 32.4 15.35 32.7 13.6 32.55 Q13.45 29.55 14.1 28.75 L12.0 27.6 11.65 27.4 9.15 26.7 Q10.2 25.25 12.7 23.95 13.2 24.4 13.95 24.6 L16.6 24.7 18.55 24.6 19.15 24.8 19.5 25.5 19.65 25.8 Q18.65 26.1 17.85 26.85 M16.05 26.5 L14.8 26.1 14.6 26.05 Q13.35 26.05 12.2 27.4 L12.0 27.6 12.2 27.4 Q13.35 26.05 14.6 26.05 L14.8 26.1 16.05 26.5" fill="#eaa32d" fill-rule="evenodd" stroke="none"/>
    <path d="M17.45 27.25 L17.1 26.6 17.0 26.55 13.95 25.7 12.65 25.5 13.9 25.3 Q15.65 25.15 17.6 25.85 L17.85 26.85 17.45 27.25 M9.15 26.7 L11.65 27.4 12.0 27.6 14.1 28.75 Q13.45 29.55 13.6 32.55 L9.15 31.7 8.6 29.55 Q8.2 28.05 9.15 26.7" fill="#cf7b16" fill-rule="evenodd" stroke="none"/>
    <path d="M17.85 26.85 Q18.65 26.1 19.65 25.8 21.25 25.35 23.25 26.15 25.35 27.85 25.75 30.05 25.65 30.8 24.6 31.0 22.9 28.55 20.1 28.1 L19.75 28.05 20.75 28.6 Q21.75 29.9 22.15 31.3 L22.4 33.0 Q22.2 33.7 21.25 33.8 20.55 32.15 19.45 31.2 L17.4 30.0 15.1 29.65 15.15 28.9 Q16.2 27.95 17.3 27.7 L17.3 27.4 17.45 27.25 17.85 26.85 M18.55 24.6 L16.6 24.7 13.95 24.6 Q15.3 22.9 17.35 23.4 L18.55 24.6 M17.3 27.7 Q18.5 27.45 19.75 28.05 18.5 27.45 17.3 27.7" fill="#fef7e0" fill-rule="evenodd" stroke="none"/>
    <path d="M14.75 32.4 L15.1 29.65 17.4 30.0 19.45 31.2 Q20.55 32.15 21.25 33.8 17.95 33.8 15.35 32.7 L14.75 32.4 M22.15 31.3 Q21.75 29.9 20.75 28.6 L19.75 28.05 20.1 28.1 Q22.9 28.55 24.6 31.0 L22.15 31.3" fill="#d9ceb4" fill-rule="evenodd" stroke="none"/>
    <path d="M17.85 26.85 Q18.65 26.1 19.65 25.8 L19.5 25.5 19.15 24.8 18.55 24.6 16.6 24.7 13.95 24.6 Q13.2 24.4 12.7 23.95 10.2 25.25 9.15 26.7 8.2 28.05 8.6 29.55 L9.15 31.7 13.6 32.55 15.35 32.7 Q17.95 33.8 21.25 33.8 22.2 33.7 22.4 33.0 L22.15 31.3 Q21.75 29.9 20.75 28.6 L19.75 28.05 Q18.5 27.45 17.3 27.7 16.2 27.95 15.15 28.9 M12.0 27.6 L12.2 27.4 Q13.35 26.05 14.6 26.05 L14.8 26.1 16.05 26.5 M17.3 27.4 L17.45 27.25 17.85 26.85 M15.35 32.7 L14.75 32.4 M18.55 24.6 L17.35 23.4 Q15.3 22.9 13.95 24.6 M19.65 25.8 Q21.25 25.35 23.25 26.15 25.35 27.85 25.75 30.05 25.65 30.8 24.6 31.0 L22.15 31.3" ffdec:has-small-stroke="true" ffdec:original-stroke-width="0.125" fill="none" stroke="#1f1f29" stroke-linecap="round" stroke-linejoin="round" stroke-width="0.16000000000000003"/>
    <path d="M-7.6 30.1 Q-6.15 28.45 -3.0 27.0 -1.9 28.2 0.95 28.2 3.45 28.2 4.25 29.95 L4.3 30.1 Q2.95 29.9 1.6 30.7 L1.1 29.25 -3.45 28.85 -1.7 30.35 Q-3.05 29.95 -4.9 31.05 -3.05 29.95 -1.7 30.35 L-1.5 30.45 Q-0.9 30.7 -0.4 31.3 L0.25 31.75 0.1 32.5 Q-1.1 31.2 -2.3 31.85 L-2.9 32.25 -4.9 31.05 -7.6 30.1 M2.85 36.0 L1.45 36.6 1.35 35.4 2.85 36.0" fill="#eaa32d" fill-rule="evenodd" stroke="none"/>
    <path d="M4.3 30.1 Q5.35 30.2 6.45 30.95 8.0 33.15 7.85 35.75 7.55 36.55 6.5 36.7 5.8 34.6 4.3 33.55 3.45 32.95 2.35 32.7 L1.55 32.55 0.1 32.5 0.5 33.0 Q1.15 33.8 1.35 35.4 L1.45 36.6 1.4 38.2 Q1.1 39.55 -1.7 39.75 L-3.25 39.6 Q-2.45 38.8 -2.2 36.95 -1.95 35.0 -2.3 31.85 -1.1 31.2 0.1 32.5 L0.25 31.75 0.25 31.7 Q0.95 31.05 1.6 30.7 2.95 29.9 4.3 30.1 M-6.2 36.3 Q-6.4 37.05 -7.8 37.2 L-8.65 37.05 Q-8.2 36.9 -8.0 36.05 -7.7 34.85 -7.75 32.35 L-7.7 32.3 Q-7.1 32.2 -6.55 33.1 -6.0 34.0 -6.15 36.25 L-6.2 36.3" fill="#fef7e0" fill-rule="evenodd" stroke="none"/>
    <path d="M6.5 36.7 Q5.25 36.85 2.85 36.0 L1.35 35.4 Q1.15 33.8 0.5 33.0 L0.1 32.5 1.55 32.55 2.35 32.7 Q3.45 32.95 4.3 33.55 5.8 34.6 6.5 36.7 M-3.25 39.6 Q-4.9 39.1 -5.35 37.2 L-5.4 36.45 -5.1 35.15 -4.0 33.5 -2.9 32.25 -2.3 31.85 Q-1.95 35.0 -2.2 36.95 -2.45 38.8 -3.25 39.6 M-8.65 37.05 Q-9.45 36.75 -9.7 35.65 -9.8 34.95 -9.5 34.4 L-8.9 33.45 -8.85 33.35 Q-8.3 32.45 -7.75 32.35 -7.7 34.85 -8.0 36.05 -8.2 36.9 -8.65 37.05" fill="#d9ceb4" fill-rule="evenodd" stroke="none"/>
    <path d="M-5.4 36.45 L-6.2 36.3 -6.15 36.25 Q-6.0 34.0 -6.55 33.1 -7.1 32.2 -7.7 32.3 L-7.75 32.35 Q-8.3 32.45 -8.85 33.35 -9.0 31.65 -7.6 30.1 L-4.9 31.05 -5.45 31.35 -4.9 31.05 -2.9 32.25 -4.0 33.5 -5.1 35.15 -5.4 36.45 M-1.7 30.35 L-3.45 28.85 1.1 29.25 1.6 30.7 Q0.95 31.05 0.25 31.7 L0.25 31.75 -0.4 31.3 Q-0.9 30.7 -1.5 30.45 L-1.7 30.35" fill="#cf7b16" fill-rule="evenodd" stroke="none"/>
    <path d="M-7.6 30.1 Q-6.15 28.45 -3.0 27.0 -1.9 28.2 0.95 28.2 3.45 28.2 4.25 29.95 L4.3 30.1 Q5.35 30.2 6.45 30.95 8.0 33.15 7.85 35.75 7.55 36.55 6.5 36.7 5.25 36.85 2.85 36.0 L1.45 36.6 1.4 38.2 Q1.1 39.55 -1.7 39.75 L-3.25 39.6 Q-4.9 39.1 -5.35 37.2 L-5.4 36.45 -6.2 36.3 Q-6.4 37.05 -7.8 37.2 L-8.65 37.05 Q-9.45 36.75 -9.7 35.65 -9.8 34.95 -9.5 34.4 L-8.9 33.45 -8.85 33.35 Q-9.0 31.65 -7.6 30.1 M1.6 30.7 Q2.95 29.9 4.3 30.1 M0.1 32.5 L0.5 33.0 Q1.15 33.8 1.35 35.4 L2.85 36.0 M0.25 31.7 Q0.95 31.05 1.6 30.7 M-2.3 31.85 L-2.9 32.25 -4.0 33.5 -5.1 35.15 -5.4 36.45 M0.1 32.5 Q-1.1 31.2 -2.3 31.85 M1.45 36.6 L1.35 35.4 M-7.75 32.35 Q-8.3 32.45 -8.85 33.35 M-6.2 36.3 L-6.15 36.25 Q-6.0 34.0 -6.55 33.1 -7.1 32.2 -7.7 32.3" ffdec:has-small-stroke="true" ffdec:original-stroke-width="0.125" fill="none" stroke="#1f1f29" stroke-linecap="round" stroke-linejoin="round" stroke-width="0.16000000000000003"/>
    <path d="M-4.9 31.05 Q-3.05 29.95 -1.7 30.35 L-1.5 30.45 Q-0.9 30.7 -0.4 31.3 M-4.9 31.05 L-5.45 31.35" ffdec:has-small-stroke="true" ffdec:original-stroke-width="0.125" fill="none" stroke="#1f1f29" stroke-linecap="round" stroke-linejoin="round" stroke-width="0.16000000000000003"/>
    <path d="M17.5 7.3 L16.95 6.3 17.75 7.3 17.5 7.3 M-0.95 30.9 Q4.35 28.1 4.75 25.1 4.0 22.55 4.15 22.2 4.55 21.1 5.85 20.65 L6.0 22.45 8.85 22.15 8.8 21.8 9.0 21.6 Q9.6 21.15 10.2 21.35 10.8 21.5 11.1 22.2 11.4 22.85 11.2 23.65 L11.2 23.7 11.3 24.25 12.05 24.7 Q12.8 25.35 13.05 26.3 13.25 27.2 12.85 27.85 12.5 28.4 11.85 28.5 L11.6 28.5 12.05 29.7 11.6 28.5 11.85 28.5 12.05 29.7 12.1 29.95 12.2 30.75 12.0 31.8 Q11.7 32.55 11.05 32.45 L10.45 32.25 10.25 32.05 10.45 32.25 11.05 32.45 Q11.7 32.55 12.0 31.8 L12.2 30.75 12.25 31.15 16.8 30.15 16.2 23.25 16.05 20.8 Q18.75 20.6 19.6 19.25 22.2 19.25 20.35 15.5 L21.7 15.5 22.2 15.05 22.45 15.25 Q23.15 15.95 23.3 17.0 23.45 17.9 23.05 18.6 L22.95 18.7 22.5 19.15 23.1 19.8 22.5 19.15 22.95 18.7 23.05 18.6 23.1 19.8 23.65 20.65 Q24.4 22.05 24.4 23.3 24.4 24.55 23.65 24.95 22.95 25.3 21.9 24.65 L21.8 24.7 22.0 26.7 Q21.9 28.15 21.25 28.7 20.6 29.25 19.8 28.55 L19.3 28.05 19.05 28.25 18.85 28.45 18.8 29.4 Q18.55 30.35 17.75 31.0 L16.1 31.3 15.55 31.1 14.85 32.8 Q14.05 34.05 13.0 34.6 11.95 35.1 11.25 34.6 10.55 34.05 10.6 32.75 L8.95 33.7 6.85 33.9 Q6.15 33.55 6.15 32.7 2.65 32.45 -0.95 30.9 M20.95 12.2 L20.0 11.35 20.35 11.1 20.95 12.2 M11.2 23.65 L11.0 24.15 11.3 24.25 11.0 24.15 11.2 23.65 M21.9 24.65 L21.8 24.6 21.8 24.7 21.8 24.6 21.9 24.65" fill="#ebe0c3" fill-rule="evenodd" stroke="none"/>
    <path d="M16.95 6.3 L17.5 7.3 17.75 7.3 18.25 7.4 Q19.3 7.65 20.05 8.45 20.8 9.25 20.8 10.1 20.75 10.7 20.35 11.1 L20.0 11.35 20.95 12.2 21.25 12.5 Q22.05 13.5 22.2 14.4 L22.2 15.05 21.7 15.5 20.35 15.5 Q22.2 19.25 19.6 19.25 18.75 20.6 16.05 20.8 L16.05 20.55 19.6 19.25 18.55 14.7 15.4 14.95 14.0 9.9 9.3 10.8 9.55 16.1 5.5 17.25 5.85 20.65 Q4.55 21.1 4.15 22.2 4.0 22.55 4.75 25.1 4.35 28.1 -0.95 30.9 L-3.7 29.45 Q-16.2 22.3 -5.85 5.85 -0.55 0.55 5.4 0.15 10.7 -0.25 13.4 2.45 L16.95 6.3 M13.75 5.8 Q14.05 5.1 14.75 5.0 15.35 4.85 16.0 5.4 16.6 5.9 16.9 6.75 L17.0 7.4 17.5 7.3 17.0 7.4 16.9 6.75 Q16.6 5.9 16.0 5.4 15.35 4.85 14.75 5.0 14.05 5.1 13.75 5.8" fill="#dac492" fill-rule="evenodd" stroke="none"/>
    <path d="M5.85 20.65 L5.5 17.25 9.55 16.1 9.3 10.8 14.0 9.9 15.4 14.95 18.55 14.7 19.6 19.25 16.05 20.55 16.05 20.8 16.2 23.25 11.2 23.7 11.2 23.65 Q11.4 22.85 11.1 22.2 10.8 21.5 10.2 21.35 9.6 21.15 9.0 21.6 L8.8 21.8 8.85 22.15 6.0 22.45 5.85 20.65" fill="#d1591d" fill-rule="evenodd" stroke="none"/>
    <path d="M11.2 23.7 L16.2 23.25 16.8 30.15 12.25 31.15 12.2 30.75 12.1 29.95 12.05 29.7 11.85 28.5 Q12.5 28.4 12.85 27.85 13.25 27.2 13.05 26.3 12.8 25.35 12.05 24.7 L11.3 24.25 11.2 23.7" fill="#f26c28" fill-rule="evenodd" stroke="none"/>
    <path d="M17.5 7.3 L17.75 7.3 18.25 7.4 Q19.3 7.65 20.05 8.45 20.8 9.25 20.8 10.1 20.75 10.7 20.35 11.1 L20.0 11.35 20.95 12.2 21.25 12.5 Q22.05 13.5 22.2 14.4 L22.2 15.05 21.7 15.5 20.35 15.5 M-5.85 5.85 Q-16.2 22.3 -3.7 29.45 L-0.95 30.9 Q2.65 32.45 6.15 32.7 6.15 33.55 6.85 33.9 L8.95 33.7 10.6 32.75 Q10.55 34.05 11.25 34.6 11.95 35.1 13.0 34.6 14.05 34.05 14.85 32.8 L15.55 31.1 16.1 31.3 17.75 31.0 Q18.55 30.35 18.8 29.4 L18.85 28.45 19.05 28.25 19.3 28.05 19.8 28.55 Q20.6 29.25 21.25 28.7 21.9 28.15 22.0 26.7 L21.8 24.7 21.8 24.6 21.9 24.65 Q22.95 25.3 23.65 24.95 24.4 24.55 24.4 23.3 24.4 22.05 23.65 20.65 L23.1 19.8 22.5 19.15 22.95 18.7 23.05 18.6 Q23.45 17.9 23.3 17.0 23.15 15.95 22.45 15.25 L22.2 15.05 M17.5 7.3 L17.0 7.4 16.9 6.75 Q16.6 5.9 16.0 5.4 15.35 4.85 14.75 5.0 14.05 5.1 13.75 5.8 M8.8 21.8 L9.0 21.6 Q9.6 21.15 10.2 21.35 10.8 21.5 11.1 22.2 11.4 22.85 11.2 23.65 L11.0 24.15 11.3 24.25 12.05 24.7 Q12.8 25.35 13.05 26.3 13.25 27.2 12.85 27.85 12.5 28.4 11.85 28.5 L11.6 28.5 12.05 29.7 12.1 29.95 12.2 30.75 12.0 31.8 Q11.7 32.55 11.05 32.45 L10.45 32.25 10.25 32.05" ffdec:has-small-stroke="true" ffdec:original-stroke-width="0.125" fill="none" stroke="#1f1f29" stroke-linecap="round" stroke-linejoin="round" stroke-width="0.16000000000000003"/>
    <path d="M15.35 -9.5 L22.05 -12.05 16.9 -7.05 Q16.0 -8.0 15.35 -9.5 M22.05 -12.05 L22.15 -12.1 22.1 -11.95 22.05 -12.05" fill="#fef7e0" fill-rule="evenodd" stroke="none"/>
    <path d="M16.9 -7.05 L22.05 -12.05 22.1 -11.95 19.25 -5.45 Q17.9 -5.85 16.9 -7.05" fill="#d1bb90" fill-rule="evenodd" stroke="none"/>
    <path d="M22.05 -12.05 L15.35 -9.5 M22.05 -12.05 L22.15 -12.1 22.1 -11.95 19.25 -5.45" ffdec:has-small-stroke="true" ffdec:original-stroke-width="0.125" fill="none" stroke="#1f1f29" stroke-linecap="round" stroke-linejoin="round" stroke-width="0.16000000000000003"/>
    <path d="M-0.85 -3.25 Q-1.85 -2.25 -4.05 -2.25 L-6.85 -8.4 -6.8 -8.4 -0.85 -3.25" fill="#d1bb90" fill-rule="evenodd" stroke="none"/>
    <path d="M-6.8 -8.4 L-0.2 -6.9 Q0.3 -4.4 -0.85 -3.25 L-6.8 -8.4" fill="#fef7e0" fill-rule="evenodd" stroke="none"/>
    <path d="M-4.05 -2.25 L-6.85 -8.4 -6.8 -8.4 -0.2 -6.9" ffdec:has-small-stroke="true" ffdec:original-stroke-width="0.125" fill="none" stroke="#1f1f29" stroke-linecap="round" stroke-linejoin="round" stroke-width="0.16000000000000003"/>
    <path d="M-0.85 14.25 L-1.0 14.65 Q-1.2 15.3 -1.55 15.75 L-2.0 16.2 -2.95 16.65 -3.45 16.65 Q-4.15 16.45 -4.4 15.7 L-4.5 15.1 -5.9 15.9 -6.1 15.95 -7.8 15.8 Q-8.6 15.4 -8.55 14.5 -8.5 13.55 -7.6 12.6 L-8.9 12.1 Q-9.6 11.65 -9.85 11.0 L-9.95 10.65 Q-10.05 9.7 -9.3 9.05 L-8.55 8.55 -8.2 8.5 -0.85 14.25" fill="#dac492" fill-rule="evenodd" stroke="none"/>
    <path d="M-2.95 16.65 L-2.0 16.2 -1.55 15.75 -1.6 17.0 Q-1.75 18.1 -2.25 18.65 L-2.55 18.95 -2.15 20.85 Q-2.05 22.55 -2.35 23.9 -2.65 25.15 -3.2 25.25 L-3.5 25.25 Q-2.6 22.4 -3.9 18.2 -3.2 17.7 -2.95 16.65 M-4.4 24.85 L-4.7 26.45 Q-5.1 27.85 -5.65 28.2 -6.2 28.55 -6.55 27.7 L-6.65 27.9 Q-7.45 28.4 -8.2 28.6 L-4.4 24.85" fill="#9467b0" fill-rule="evenodd" stroke="none"/>
    <path d="M-6.1 15.95 L-5.9 15.9 -4.5 15.1 -4.4 15.7 Q-4.15 16.45 -3.45 16.65 L-2.95 16.65 Q-3.2 17.7 -3.9 18.2 -2.6 22.4 -3.5 25.25 L-4.15 24.6 -4.3 24.3 -4.4 24.85 -8.2 28.6 Q-9.1 28.85 -9.95 28.6 -9.85 21.6 -6.05 19.6 L-6.05 19.55 -6.1 15.95" fill="#582578" fill-rule="evenodd" stroke="none"/>
    <path d="M-9.85 11.0 Q-9.6 11.65 -8.9 12.1 L-7.6 12.6 Q-8.5 13.55 -8.55 14.5 -8.6 15.4 -7.8 15.8 L-6.1 15.95 -6.05 19.55 -6.05 19.6 Q-9.85 21.6 -9.95 28.6 -11.6 28.05 -13.2 25.85 L-13.2 22.3 -13.2 22.15 -13.55 21.75 Q-13.95 21.1 -13.75 20.15 -13.6 19.25 -13.0 18.6 L-12.55 18.2 -13.05 16.9 Q-13.3 15.6 -12.95 14.45 -12.6 13.35 -11.85 13.0 -11.15 12.65 -10.45 13.25 L-10.0 11.45 -9.85 11.0" fill="#381952" fill-rule="evenodd" stroke="none"/>
    <path d="M-1.55 15.75 Q-1.2 15.3 -1.0 14.65 L-0.85 14.25 M-8.2 8.5 L-8.55 8.55 -9.3 9.05 Q-10.05 9.7 -9.95 10.65 L-9.85 11.0 Q-9.6 11.65 -8.9 12.1 L-7.6 12.6 Q-8.5 13.55 -8.55 14.5 -8.6 15.4 -7.8 15.8 L-6.1 15.95 -5.9 15.9 -4.5 15.1 -4.4 15.7 Q-4.15 16.45 -3.45 16.65 L-2.95 16.65 -2.0 16.2 -1.55 15.75" ffdec:has-small-stroke="true" ffdec:original-stroke-width="0.125" fill="none" stroke="#1f1f29" stroke-linecap="round" stroke-linejoin="round" stroke-width="0.16000000000000003"/>
    <path d="M-1.55 15.75 L-1.6 17.0 Q-1.75 18.1 -2.25 18.65 L-2.55 18.95 -2.15 20.85 Q-2.05 22.55 -2.35 23.9 -2.65 25.15 -3.2 25.25 L-3.5 25.25 -4.15 24.6 -4.3 24.3 -4.4 24.85 -4.7 26.45 Q-5.1 27.85 -5.65 28.2 -6.2 28.55 -6.55 27.7 L-6.65 27.9 Q-7.45 28.4 -8.2 28.6 -9.1 28.85 -9.95 28.6 -11.6 28.05 -13.2 25.85 L-13.2 22.3 -13.2 22.15 -13.55 21.75 Q-13.95 21.1 -13.75 20.15 -13.6 19.25 -13.0 18.6 L-12.55 18.2 -13.05 16.9 Q-13.3 15.6 -12.95 14.45 -12.6 13.35 -11.85 13.0 -11.15 12.65 -10.45 13.25 L-10.0 11.45 -9.85 11.0" ffdec:has-small-stroke="true" ffdec:original-stroke-width="0.125" fill="none" stroke="#1f1f29" stroke-linecap="round" stroke-linejoin="round" stroke-width="0.16000000000000003"/>
    <path d="M-10.45 -14.25 L-9.75 -22.2 Q-8.25 -26.85 -6.65 -30.55 L-7.35 -21.45 -5.5 -13.85 -10.45 -14.25 M-1.55 -39.6 L-1.5 -39.7 Q0.9 -34.05 5.35 -31.15 L9.95 -19.45 11.6 -4.9 Q9.15 -5.95 6.95 -7.5 4.25 -9.5 2.0 -12.2 L-1.0 -25.2 -1.55 -39.6 M15.85 -22.15 L17.3 -25.25 18.25 -14.8 16.15 -14.0 14.95 -14.65 14.55 -14.75 15.85 -22.15 M-12.15 -4.5 L-12.9 -6.3 Q-14.4 -12.1 -13.3 -17.65 L-11.75 -15.85 -10.0 -6.3 -7.6 -3.5 -12.15 -4.5" fill="#ff8d0f" fill-rule="evenodd" stroke="none"/>
    <path d="M-10.45 -14.25 L-5.5 -13.85 -7.35 -21.45 -6.65 -30.55 Q-4.25 -36.05 -1.55 -39.6 L-1.0 -25.2 2.0 -12.2 Q-1.6 -13.3 -4.15 -12.15 L-6.55 -12.7 -6.6 -12.7 -5.85 -11.05 -5.95 -10.95 -6.35 -10.3 Q-7.7 -7.55 -5.9 -0.45 L-6.35 0.4 Q-7.55 0.0 -9.3 -0.15 L-10.25 -0.2 -10.35 -0.2 -12.15 -4.5 -7.6 -3.5 -10.0 -6.3 -11.75 -15.85 -10.45 -14.25 M5.35 -31.15 Q6.85 -30.1 8.65 -29.45 9.6 -31.75 8.15 -35.25 L10.3 -33.5 12.45 -26.25 9.95 -19.45 5.35 -31.15" fill="#d86c01" fill-rule="evenodd" stroke="none"/>
    <path d="M21.15 -15.9 L22.35 -16.35 22.45 -16.4 22.4 -16.25 22.35 -16.35 17.2 -11.35 Q16.3 -12.3 15.65 -13.8 L16.15 -14.0 18.25 -14.8 21.15 -15.9 M-6.55 -12.7 L-4.15 -12.15 0.05 -11.2 Q0.55 -8.7 -0.6 -7.55 L-6.55 -12.7" fill="#fef7e0" fill-rule="evenodd" stroke="none"/>
    <path d="M22.4 -16.25 L20.45 -11.85 19.55 -9.75 18.85 -10.0 Q17.9 -10.5 17.2 -11.35 L22.35 -16.35 22.4 -16.25 M-5.85 -11.05 L-6.6 -12.7 -6.55 -12.7 -0.6 -7.55 Q-1.6 -6.55 -3.8 -6.55 L-5.85 -11.05" fill="#d1bb90" fill-rule="evenodd" stroke="none"/>
    <path d="M3.15 10.35 Q-0.45 9.7 -4.7 8.2 L-6.3 7.35 -4.65 7.85 Q-4.85 6.4 -5.75 5.05 -5.8 3.45 -7.1 1.9 -7.95 0.85 -9.3 -0.15 -7.55 0.0 -6.35 0.4 L-5.9 -0.45 Q-7.7 -7.55 -6.35 -10.3 L-5.95 -10.95 -5.85 -11.05 -3.8 -6.55 Q-1.6 -6.55 -0.6 -7.55 0.55 -8.7 0.05 -11.2 L-4.15 -12.15 Q-1.6 -13.3 2.0 -12.2 4.25 -9.5 6.95 -7.5 6.85 -4.45 5.9 -0.35 L5.05 0.9 2.25 -1.65 2.15 -1.7 2.0 -1.85 Q-2.3 -2.95 -5.0 -1.3 -5.4 0.0 -4.8 1.1 L-4.25 1.55 -4.25 1.85 -2.35 3.35 -1.1 3.7 Q1.5 4.5 3.35 4.6 L3.2 5.25 2.9 5.05 0.6 4.5 Q-0.7 4.35 -1.55 4.5 -2.5 4.75 -2.5 5.25 -2.5 5.75 -1.55 6.15 L0.6 6.8 2.9 6.7 2.95 6.7 Q2.75 8.5 3.15 10.35 M4.25 -3.35 Q5.15 -2.9 5.15 -3.1 L4.45 -3.9 Q3.75 -4.5 2.45 -4.85 L-0.15 -5.3 -1.7 -5.2 Q-1.95 -5.0 -0.6 -4.8 L2.05 -4.25 4.25 -3.35 M-6.35 0.4 Q-5.45 0.7 -4.8 1.1 -5.45 0.7 -6.35 0.4" fill="#381952" fill-rule="evenodd" stroke="none"/>
    <path d="M13.05 -30.55 L15.1 -27.9 15.85 -22.15 14.55 -14.75 Q15.05 -12.35 14.15 -8.95 13.15 -5.4 11.6 -4.9 L9.95 -19.45 12.45 -26.25 13.05 -30.55 M17.3 -25.25 Q18.4 -20.3 21.3 -16.95 L21.15 -15.9 18.25 -14.8 17.3 -25.25 M20.45 -11.85 L19.95 -8.8 19.65 -7.1 18.85 -10.0 19.55 -9.75 20.45 -11.85" fill="#ffb945" fill-rule="evenodd" stroke="none"/>
    <path d="M10.3 -33.5 L13.05 -30.55 12.45 -26.25 10.3 -33.5" fill="#ffa40f" fill-rule="evenodd" stroke="none"/>
    <path d="M18.5 6.65 L16.9 8.0 Q11.9 11.8 3.15 10.35 2.75 8.5 2.95 6.7 3.7 6.5 3.75 6.0 L3.2 5.25 3.35 4.6 Q5.55 4.7 6.55 3.7 6.3 2.35 5.05 0.9 L5.9 -0.35 Q6.85 -4.45 6.95 -7.5 9.15 -5.95 11.6 -4.9 13.15 -5.4 14.15 -8.95 15.05 -12.35 14.55 -14.75 L14.95 -14.65 Q17.85 -8.3 15.8 -6.05 L16.8 -4.25 17.05 -3.8 16.95 -3.6 Q15.9 -1.2 15.95 0.95 16.55 2.15 17.8 1.75 17.6 1.85 17.5 2.0 17.15 2.5 17.35 2.8 L18.1 2.95 19.3 2.5 Q19.6 5.05 18.5 6.65 M9.0 2.0 Q7.6 2.8 7.8 3.8 7.9 4.7 9.35 4.15 10.8 3.6 12.55 3.35 L15.0 3.0 Q15.8 3.0 15.7 2.4 15.55 1.75 14.5 1.4 L11.95 1.15 Q10.35 1.2 9.0 2.0" fill="#582578" fill-rule="evenodd" stroke="none"/>
    <path d="M19.95 -8.8 L19.9 -8.0 Q19.75 -6.25 19.85 -4.5 L17.4 -4.55 17.3 -4.5 17.05 -3.8 16.8 -4.25 15.8 -6.05 Q17.85 -8.3 14.95 -14.65 L16.15 -14.0 15.65 -13.8 Q16.3 -12.3 17.2 -11.35 17.9 -10.5 18.85 -10.0 L19.65 -7.1 19.95 -8.8 M20.4 -1.2 Q21.5 3.4 18.5 6.65 19.6 5.05 19.3 2.5 L19.35 2.5 20.35 1.6 20.5 0.95 Q20.3 0.65 19.75 0.7 L19.25 0.85 19.6 0.55 Q20.15 -0.25 20.4 -1.2 M-13.25 -0.35 L-10.35 -0.2 -10.25 -0.2 -9.3 -0.15 Q-7.95 0.85 -7.1 1.9 -5.8 3.45 -5.75 5.05 L-7.65 3.05 -9.55 1.65 Q-11.15 0.6 -13.25 -0.35 M4.25 -3.35 L2.05 -4.25 -0.6 -4.8 Q-1.95 -5.0 -1.7 -5.2 L-0.15 -5.3 2.45 -4.85 Q3.75 -4.5 4.45 -3.9 L5.15 -3.1 Q5.15 -2.9 4.25 -3.35 M2.95 6.7 L2.9 6.7 0.6 6.8 -1.55 6.15 Q-2.5 5.75 -2.5 5.25 -2.5 4.75 -1.55 4.5 -0.7 4.35 0.6 4.5 L2.9 5.05 3.2 5.25 3.75 6.0 Q3.7 6.5 2.95 6.7" fill="#9467b0" fill-rule="evenodd" stroke="none"/>
    <path d="M19.85 -4.5 L20.35 -4.0 Q20.65 -2.45 20.4 -1.2 20.15 -0.25 19.6 0.55 L19.25 0.85 18.5 1.25 18.3 1.35 Q16.3 -0.05 16.95 -3.6 L17.05 -3.8 17.3 -4.5 17.4 -4.55 19.85 -4.5 M-1.1 3.7 Q-3.4 -0.6 2.25 -1.65 L5.05 0.9 Q6.3 2.35 6.55 3.7 5.55 4.7 3.35 4.6 1.5 4.5 -1.1 3.7" fill="#ffffff" fill-rule="evenodd" stroke="none"/>
    <path d="M19.25 0.85 L19.75 0.7 Q20.3 0.65 20.5 0.95 L20.35 1.6 19.35 2.5 19.3 2.5 18.1 2.95 17.35 2.8 Q17.15 2.5 17.5 2.0 17.6 1.85 17.8 1.75 L18.3 1.35 18.5 1.25 19.25 0.85" fill="#b59bca" fill-rule="evenodd" stroke="none"/>
    <path d="M18.3 1.35 L17.8 1.75 Q16.55 2.15 15.95 0.95 15.9 -1.2 16.95 -3.6 16.3 -0.05 18.3 1.35 M-1.1 3.7 L-2.35 3.35 -4.25 1.85 -4.25 1.55 -4.8 1.1 Q-5.4 0.0 -5.0 -1.3 -2.3 -2.95 2.0 -1.85 L2.15 -1.7 2.25 -1.65 Q-3.4 -0.6 -1.1 3.7" fill="#f0e0c2" fill-rule="evenodd" stroke="none"/>
    <path d="M9.0 2.0 Q10.35 1.2 11.95 1.15 L14.5 1.4 Q15.55 1.75 15.7 2.4 15.8 3.0 15.0 3.0 L12.55 3.35 Q10.8 3.6 9.35 4.15 7.9 4.7 7.8 3.8 7.6 2.8 9.0 2.0" fill="#270f33" fill-rule="evenodd" stroke="none"/>
    <path d="M-6.3 7.35 Q-13.15 5.05 -13.25 -0.35 -11.15 0.6 -9.55 1.65 L-7.65 3.05 -5.75 5.05 Q-4.85 6.4 -4.65 7.85 L-6.3 7.35" fill="#411a53" fill-rule="evenodd" stroke="none"/>
    <path d="M-6.65 -30.55 Q-8.25 -26.85 -9.75 -22.2 L-10.45 -14.25 -11.75 -15.85 -13.3 -17.65 Q-14.4 -12.1 -12.9 -6.3 L-12.15 -4.5 -10.35 -0.2 -10.25 -0.2 -9.3 -0.15 Q-7.55 0.0 -6.35 0.4 L-5.9 -0.45 Q-7.7 -7.55 -6.35 -10.3 L-5.95 -10.95 -5.85 -11.05 -6.6 -12.7 -6.55 -12.7 -4.15 -12.15 Q-1.6 -13.3 2.0 -12.2 4.25 -9.5 6.95 -7.5 9.15 -5.95 11.6 -4.9 13.15 -5.4 14.15 -8.95 15.05 -12.35 14.55 -14.75 L15.85 -22.15 15.1 -27.9 13.05 -30.55 10.3 -33.5 8.15 -35.25 Q9.6 -31.75 8.65 -29.45 6.85 -30.1 5.35 -31.15 0.9 -34.05 -1.5 -39.7 L-1.55 -39.6 Q-4.25 -36.05 -6.65 -30.55 M17.3 -25.25 Q18.4 -20.3 21.3 -16.95 L21.15 -15.9 22.35 -16.35 22.45 -16.4 22.4 -16.25 20.45 -11.85 19.95 -8.8 19.65 -7.1 18.85 -10.0 M19.85 -4.5 L20.35 -4.0 Q20.65 -2.45 20.4 -1.2 20.15 -0.25 19.6 0.55 L19.25 0.85 M-6.3 7.35 Q-13.15 5.05 -13.25 -0.35 L-10.35 -0.2 M14.55 -14.75 L14.95 -14.65 16.15 -14.0 18.25 -14.8 21.15 -15.9 M20.45 -11.85 L19.55 -9.75 M16.15 -14.0 L15.65 -13.8 M-4.15 -12.15 L0.05 -11.2 M-3.8 -6.55 L-5.85 -11.05 M17.3 -4.5 L17.4 -4.55 19.85 -4.5 M17.8 1.75 Q16.55 2.15 15.95 0.95 15.9 -1.2 16.95 -3.6 M-4.25 1.85 L-2.35 3.35 -1.1 3.7 Q1.5 4.5 3.35 4.6 5.55 4.7 6.55 3.7 6.3 2.35 5.05 0.9 L2.25 -1.65 M2.15 -1.7 L2.0 -1.85 Q-2.3 -2.95 -5.0 -1.3 -5.4 0.0 -4.8 1.1 L-4.25 1.55 M-4.65 7.85 L-6.3 7.35 M-4.8 1.1 Q-5.45 0.7 -6.35 0.4" ffdec:has-small-stroke="true" ffdec:original-stroke-width="0.125" fill="none" stroke="#1f1f29" stroke-linecap="round" stroke-linejoin="round" stroke-width="0.16000000000000003"/>
    <path d="M19.95 -8.8 L19.9 -8.0 Q19.75 -6.25 19.85 -4.5 M20.4 -1.2 Q21.5 3.4 18.5 6.65 L16.9 8.0 Q11.9 11.8 3.15 10.35 -0.45 9.7 -4.7 8.2 L-6.3 7.35" ffdec:has-small-stroke="true" ffdec:original-stroke-width="0.125" fill="none" stroke="#1f1f29" stroke-linecap="round" stroke-linejoin="round" stroke-width="0.16000000000000003"/>
    <path d="M21.95 -16.2 L22.45 -16.4 22.35 -16.35 21.95 -16.2 M24.35 20.9 L24.0 21.4 24.0 21.35 24.35 20.9 M21.8 24.7 L22.0 25.75 22.5 25.9 22.0 25.8 21.8 24.7 M14.95 32.7 L14.85 32.8 14.95 32.7 M-5.45 28.35 L-5.65 28.2 -5.6 28.2 -5.45 28.35 M-10.4 12.85 L-11.15 12.8 -10.4 12.85 M-7.65 8.95 L-7.15 8.1 -7.6 8.95 -7.65 8.95 M-6.7 7.25 L-9.15 6.1 -6.65 7.25 -6.7 7.25 M20.4 -11.4 L20.45 -11.85 20.4 -11.4 20.7 -11.55 20.7 -11.5 20.4 -11.4" fill="#000000" fill-rule="evenodd" stroke="none"/>
    <path d="M21.6 6.95 L21.85 8.05 Q22.5 7.45 23.25 7.8 23.95 8.15 24.3 9.25 24.65 10.4 24.45 11.7 L23.95 13.0 24.4 13.4 Q24.95 14.05 25.15 14.95 25.3 15.9 24.95 16.55 L24.55 16.95 24.55 17.1 24.55 20.65 24.35 20.9 24.0 21.35 23.65 20.65 23.1 19.8 23.05 18.6 Q23.45 17.9 23.3 17.0 23.15 15.95 22.45 15.25 L22.2 15.05 22.2 14.4 Q22.05 13.5 21.25 12.5 L20.95 12.2 20.35 11.1 Q20.75 10.7 20.8 10.1 20.8 9.25 20.05 8.45 L19.35 7.85 18.95 7.4 19.7 7.2 20.3 6.9 Q20.95 6.45 21.2 5.8 L21.4 6.25 21.6 6.95 M-9.95 28.6 Q-11.6 28.05 -13.2 25.85 L-13.2 22.3 -13.2 22.15 -13.55 21.75 Q-13.95 21.1 -13.75 20.15 -13.6 19.25 -13.0 18.6 L-12.55 18.2 -13.05 16.9 Q-13.3 15.6 -12.95 14.45 -12.6 13.35 -11.85 13.0 L-11.25 12.9 -10.8 13.0 -10.45 13.25 -10.4 12.85 -10.0 11.45 -9.85 11.0 -9.05 12.0 -8.9 12.1 -7.6 12.6 Q-8.5 13.55 -8.55 14.5 -8.6 15.4 -7.8 15.8 L-6.1 15.95 -6.05 19.55 -6.05 19.6 Q-8.4 20.85 -9.3 24.0 -9.9 25.9 -9.95 28.6 M6.95 -7.5 Q6.85 -4.45 5.9 -0.35 L5.55 0.15 5.05 0.9 4.45 0.25 2.25 -1.65 2.15 -1.7 2.0 -1.85 Q-2.3 -2.95 -5.0 -1.3 -5.4 0.0 -4.8 1.1 -5.45 0.7 -6.35 0.4 -5.45 0.7 -4.8 1.1 L-4.25 1.55 -4.25 1.85 -2.65 3.15 -2.35 3.35 -1.1 3.7 Q1.5 4.5 3.35 4.6 L3.2 5.25 2.9 5.05 0.6 4.5 Q-0.7 4.35 -1.55 4.5 -2.5 4.75 -2.5 5.25 -2.5 5.75 -1.55 6.15 L0.6 6.8 2.9 6.7 2.95 6.7 Q2.75 8.5 3.15 10.35 -0.45 9.7 -4.7 8.2 L-6.3 7.35 -4.65 7.85 Q-4.8 6.65 -5.45 5.5 L-5.75 5.05 Q-5.8 3.45 -7.1 1.9 -7.95 0.85 -9.3 -0.15 -7.55 0.0 -6.35 0.4 L-5.9 -0.45 Q-7.7 -7.55 -6.35 -10.3 L-5.95 -10.95 -5.85 -11.05 -3.8 -6.55 Q-2.15 -6.55 -1.15 -7.1 L-0.6 -7.55 Q0.55 -8.7 0.05 -11.2 L-4.15 -12.15 Q-1.6 -13.3 2.0 -12.2 4.25 -9.5 6.95 -7.5 M2.45 -4.85 L-0.05 -5.3 -0.15 -5.3 -1.7 -5.2 Q-1.95 -5.0 -0.6 -4.8 L-0.1 -4.7 2.05 -4.25 4.25 -3.35 Q5.15 -2.9 5.15 -3.1 L4.45 -3.9 Q3.75 -4.5 2.45 -4.85" fill="#381952" fill-rule="evenodd" stroke="none"/>
    <path d="M-5.65 28.2 Q-6.2 28.55 -6.55 27.7 L-6.65 27.9 Q-7.45 28.4 -8.2 28.6 L-4.4 24.85 -4.7 26.45 Q-5.1 27.85 -5.6 28.2 L-5.65 28.2 M-13.25 -0.35 L-10.35 -0.2 -10.25 -0.2 -9.3 -0.15 Q-7.95 0.85 -7.1 1.9 -5.8 3.45 -5.75 5.05 L-7.65 3.05 -9.55 1.65 Q-11.15 0.6 -13.25 -0.35 M14.95 -14.65 L16.15 -14.0 15.65 -13.8 Q16.3 -12.3 17.2 -11.35 L18.05 -10.5 18.85 -10.0 19.1 -9.2 19.65 -7.1 19.95 -8.8 19.9 -8.0 19.85 -6.75 19.85 -4.5 19.35 -4.85 Q18.45 -5.25 17.4 -4.55 L17.3 -4.5 17.05 -3.8 16.8 -4.25 15.8 -6.05 Q16.35 -6.65 16.55 -7.45 16.75 -8.5 16.55 -9.95 16.2 -11.9 14.95 -14.65 M3.2 5.25 L3.75 6.0 Q3.7 6.5 2.95 6.7 L2.9 6.7 0.6 6.8 -1.55 6.15 Q-2.5 5.75 -2.5 5.25 -2.5 4.75 -1.55 4.5 -0.7 4.35 0.6 4.5 L2.9 5.05 3.2 5.25 M18.5 6.65 Q19.4 5.35 19.4 3.5 L19.3 2.5 19.35 2.5 19.75 2.25 20.35 1.6 20.5 0.95 Q20.35 0.7 19.95 0.7 L19.75 0.7 19.25 0.85 19.6 0.55 20.15 -0.45 20.4 -1.2 Q21.0 1.4 20.35 3.55 19.8 5.25 18.5 6.65 M2.45 -4.85 Q3.75 -4.5 4.45 -3.9 L5.15 -3.1 Q5.15 -2.9 4.25 -3.35 L2.05 -4.25 -0.1 -4.7 -0.6 -4.8 Q-1.95 -5.0 -1.7 -5.2 L-0.15 -5.3 -0.05 -5.3 2.45 -4.85 M-2.95 16.65 L-2.0 16.2 -1.55 15.75 -1.6 17.0 Q-1.75 18.1 -2.25 18.65 L-2.55 18.95 -2.15 20.85 Q-2.05 22.55 -2.35 23.9 -2.65 25.15 -3.2 25.25 L-3.5 25.25 Q-2.6 22.4 -3.9 18.2 -3.2 17.7 -2.95 16.65" fill="#9467b0" fill-rule="evenodd" stroke="none"/>
    <path d="M11.6 -4.9 Q13.15 -5.4 14.15 -8.95 15.05 -12.35 14.55 -14.75 L14.95 -14.65 Q16.2 -11.9 16.55 -9.95 16.75 -8.5 16.55 -7.45 16.35 -6.65 15.8 -6.05 L16.8 -4.25 17.05 -3.8 16.95 -3.6 Q15.9 -1.2 15.95 0.95 L16.35 1.55 Q16.9 2.05 17.8 1.75 17.6 1.85 17.5 2.0 17.15 2.5 17.35 2.8 L18.1 2.95 19.3 2.5 19.4 3.5 Q19.4 5.35 18.5 6.65 L17.8 7.3 16.9 8.0 Q14.7 9.65 11.85 10.35 L10.75 10.55 3.15 10.35 Q2.75 8.5 2.95 6.7 3.7 6.5 3.75 6.0 L3.2 5.25 3.35 4.6 Q5.55 4.7 6.55 3.7 6.3 2.35 5.05 0.9 L5.55 0.15 5.9 -0.35 Q6.85 -4.45 6.95 -7.5 9.15 -5.95 11.6 -4.9 M-8.2 28.6 Q-9.1 28.85 -9.95 28.6 -9.9 25.9 -9.3 24.0 -8.4 20.85 -6.05 19.6 L-6.05 19.55 -6.1 15.95 -5.9 15.9 -4.5 15.1 -4.4 15.7 Q-4.15 16.45 -3.45 16.65 L-2.95 16.65 Q-3.2 17.7 -3.9 18.2 -2.6 22.4 -3.5 25.25 L-4.15 24.6 -4.3 24.3 -4.4 24.85 -8.2 28.6 M15.7 2.4 Q15.55 1.75 14.5 1.4 L11.95 1.15 11.65 1.2 Q10.2 1.25 9.0 2.0 7.6 2.8 7.8 3.8 7.9 4.7 9.35 4.15 10.8 3.6 12.55 3.35 L14.05 3.1 15.0 3.0 15.15 3.0 Q15.8 2.95 15.7 2.4" fill="#582578" fill-rule="evenodd" stroke="none"/>
    <path d="M15.35 32.7 L15.15 32.7 14.95 32.7 15.05 32.55 15.35 32.7 M2.85 36.0 L1.45 36.6 1.35 35.4 2.85 36.0 M-7.6 30.1 L-6.0 28.7 -5.45 28.35 -3.7 29.45 -2.35 30.25 -0.95 30.9 -0.65 31.05 -0.4 31.3 0.25 31.75 0.1 32.5 Q-1.1 31.2 -2.3 31.85 L-2.9 32.25 -4.9 31.05 -7.6 30.1 M-4.9 31.05 Q-3.5 30.2 -2.35 30.25 -3.5 30.2 -4.9 31.05" fill="#eaa32d" fill-rule="evenodd" stroke="none"/>
    <path d="M21.15 -15.9 L21.9 -16.15 21.95 -16.2 22.35 -16.35 17.2 -11.35 Q16.3 -12.3 15.65 -13.8 L16.15 -14.0 18.25 -14.8 21.15 -15.9 M22.45 -16.4 L22.4 -16.25 22.35 -16.35 22.45 -16.4 M22.5 25.9 L23.25 26.15 Q25.35 27.85 25.75 30.05 25.65 30.8 24.6 31.0 23.35 29.2 21.5 28.5 21.9 27.9 22.0 26.7 L22.0 25.8 22.5 25.9 M22.15 31.3 L22.4 33.0 Q22.2 33.7 21.25 33.8 20.55 32.15 19.45 31.2 L18.35 30.4 18.8 29.4 18.85 28.45 19.05 28.25 19.3 28.05 19.8 28.55 Q20.4 29.1 20.95 28.9 21.8 30.05 22.15 31.3 M7.75 34.0 L7.85 35.75 Q7.55 36.55 6.5 36.7 5.8 34.6 4.3 33.55 3.45 32.95 2.35 32.7 L1.55 32.55 0.1 32.5 0.5 33.0 Q1.15 33.8 1.35 35.4 L1.45 36.6 1.4 38.2 Q1.1 39.55 -1.7 39.75 L-3.25 39.6 Q-2.45 38.8 -2.2 36.95 -1.95 35.0 -2.3 31.85 -1.1 31.2 0.1 32.5 L0.25 31.75 0.25 31.7 0.5 31.5 Q3.35 32.5 6.15 32.7 6.15 33.55 6.85 33.9 L7.75 34.0 M-6.2 36.3 Q-6.4 37.05 -7.8 37.2 L-8.65 37.05 Q-8.2 36.9 -8.0 36.05 -7.7 34.85 -7.75 32.35 L-7.7 32.3 Q-7.1 32.2 -6.55 33.1 -6.0 34.0 -6.15 36.25 L-6.2 36.3 M-4.15 -12.15 L0.05 -11.2 Q0.55 -8.7 -0.6 -7.55 L-6.55 -12.7 -4.15 -12.15 M20.2 -10.25 L20.4 -11.4 20.7 -11.5 22.05 -12.05 22.15 -12.1 22.1 -11.95 22.05 -12.05 20.2 -10.25" fill="#fef7e0" fill-rule="evenodd" stroke="none"/>
    <path d="M-5.4 36.45 L-6.2 36.3 -6.15 36.25 Q-6.0 34.0 -6.55 33.1 -7.1 32.2 -7.7 32.3 L-7.75 32.35 Q-8.3 32.45 -8.85 33.35 -9.0 31.65 -7.6 30.1 L-4.9 31.05 -2.9 32.25 -4.0 33.5 -5.1 35.15 -5.4 36.45 M0.25 31.7 L0.25 31.75 -0.4 31.3 -0.65 31.05 0.5 31.5 0.25 31.7 M-5.45 31.35 L-4.9 31.05 -5.45 31.35" fill="#cf7b16" fill-rule="evenodd" stroke="none"/>
    <path d="M24.6 31.0 L22.15 31.3 Q21.8 30.05 20.95 28.9 L21.25 28.7 21.5 28.5 Q23.35 29.2 24.6 31.0 M21.25 33.8 Q17.95 33.8 15.35 32.7 L15.05 32.55 15.55 31.1 16.1 31.3 17.75 31.0 18.35 30.4 19.45 31.2 Q20.55 32.15 21.25 33.8 M6.5 36.7 Q5.25 36.85 2.85 36.0 L1.35 35.4 Q1.15 33.8 0.5 33.0 L0.1 32.5 1.55 32.55 2.35 32.7 Q3.45 32.95 4.3 33.55 5.8 34.6 6.5 36.7 M-3.25 39.6 Q-4.9 39.1 -5.35 37.2 L-5.4 36.45 -5.1 35.15 -4.0 33.5 -2.9 32.25 -2.3 31.85 Q-1.95 35.0 -2.2 36.95 -2.45 38.8 -3.25 39.6 M-8.65 37.05 Q-9.45 36.75 -9.7 35.65 -9.8 34.95 -9.5 34.4 L-8.9 33.45 -8.85 33.35 Q-8.3 32.45 -7.75 32.35 -7.7 34.85 -8.0 36.05 -8.2 36.9 -8.65 37.05" fill="#d9ceb4" fill-rule="evenodd" stroke="none"/>
    <path d="M21.9 24.65 L21.8 24.7 21.8 24.6 21.9 24.65 M20.35 11.1 L20.95 12.2 20.0 11.35 20.35 11.1 M23.05 18.6 L23.1 19.8 22.5 19.15 22.95 18.7 23.05 18.6 M11.2 23.65 L11.2 23.7 11.3 24.25 11.0 24.15 11.2 23.65 M11.85 28.5 L12.05 29.7 11.6 28.5 11.85 28.5" fill="#ebe0c3" fill-rule="evenodd" stroke="none"/>
    <path d="M22.4 -16.25 L21.8 -14.9 21.55 -14.3 20.75 -12.5 20.45 -11.85 19.55 -9.75 18.85 -10.0 18.05 -10.5 17.2 -11.35 22.35 -16.35 22.4 -16.25 M-0.6 -7.55 L-1.15 -7.1 Q-2.15 -6.55 -3.8 -6.55 L-5.85 -11.05 -6.6 -12.7 -6.55 -12.7 -0.6 -7.55 M19.95 -8.8 L20.2 -10.25 22.05 -12.05 22.1 -11.95 19.85 -6.75 19.9 -8.0 19.95 -8.8" fill="#d1bb90" fill-rule="evenodd" stroke="none"/>
    <path d="M13.05 -30.55 L12.45 -26.25 10.3 -33.5 13.05 -30.55 M9.95 -19.45 L11.6 -4.9 Q9.15 -5.95 6.95 -7.5 4.25 -9.5 2.0 -12.2 L-1.0 -25.2 -1.55 -39.6 -1.5 -39.7 Q0.9 -34.05 5.35 -31.15 L9.95 -19.45 M14.55 -14.75 L15.85 -22.15 17.3 -25.25 18.25 -14.8 16.15 -14.0 14.95 -14.65 14.55 -14.75 M-12.15 -4.5 L-12.9 -6.3 Q-14.4 -12.1 -13.3 -17.65 L-11.75 -15.85 -11.75 -15.75 -10.0 -6.3 -7.6 -3.5 -12.15 -4.5 M-10.45 -14.25 L-9.75 -22.2 Q-8.25 -26.85 -6.65 -30.55 L-7.35 -21.45 -5.5 -13.85 -10.45 -14.25" fill="#ffffff" fill-rule="evenodd" stroke="none"/>
    <path d="M-9.15 6.1 Q-12.45 4.2 -13.05 1.15 L-13.25 -0.35 Q-11.15 0.6 -9.55 1.65 L-7.65 3.05 -5.75 5.05 -5.45 5.5 Q-4.8 6.65 -4.65 7.85 L-6.3 7.35 -6.65 7.25 -9.15 6.1" fill="#411a53" fill-rule="evenodd" stroke="none"/>
    <path d="M19.3 2.5 L18.1 2.95 17.35 2.8 Q17.15 2.5 17.5 2.0 17.6 1.85 17.8 1.75 L18.3 1.35 18.5 1.25 19.25 0.85 19.75 0.7 19.95 0.7 Q20.35 0.7 20.5 0.95 L20.35 1.6 19.75 2.25 19.35 2.5 19.3 2.5" fill="#b59bca" fill-rule="evenodd" stroke="none"/>
    <path d="M15.7 2.4 Q15.8 2.95 15.15 3.0 L15.0 3.0 14.05 3.1 12.55 3.35 Q10.8 3.6 9.35 4.15 7.9 4.7 7.8 3.8 7.6 2.8 9.0 2.0 10.2 1.25 11.65 1.2 L11.95 1.15 14.5 1.4 Q15.55 1.75 15.7 2.4" fill="#270f33" fill-rule="evenodd" stroke="none"/>
    <path d="M24.0 21.4 Q24.4 22.35 24.4 23.3 24.4 24.55 23.65 24.95 22.95 25.3 21.9 24.65 L21.8 24.6 21.8 24.7 22.0 25.8 22.0 26.7 Q21.9 27.9 21.5 28.5 L21.25 28.7 20.95 28.9 Q20.4 29.1 19.8 28.55 L19.3 28.05 19.05 28.25 18.85 28.45 18.8 29.4 18.35 30.4 17.75 31.0 16.1 31.3 15.55 31.1 15.05 32.55 14.95 32.7 14.85 32.8 Q14.05 34.05 13.0 34.6 11.95 35.1 11.25 34.6 10.55 34.05 10.6 32.75 L8.95 33.7 7.75 34.0 6.85 33.9 Q6.15 33.55 6.15 32.7 3.35 32.5 0.5 31.5 L-0.65 31.05 -0.95 30.9 -0.85 30.85 1.25 29.6 2.7 28.5 Q4.5 26.8 4.75 25.1 4.0 22.55 4.15 22.2 4.55 21.1 5.85 20.65 L6.0 22.45 8.85 22.15 8.8 21.8 9.0 21.6 Q9.6 21.15 10.2 21.35 10.8 21.5 11.1 22.2 11.4 22.85 11.2 23.65 L11.0 24.15 11.3 24.25 11.75 24.5 12.05 24.7 12.75 25.5 13.05 26.3 13.1 26.6 Q13.2 27.3 12.85 27.85 L12.75 28.0 11.85 28.5 11.6 28.5 12.05 29.7 12.1 29.95 12.2 30.75 12.25 31.15 16.8 30.15 16.2 23.3 16.2 23.25 16.05 20.8 16.85 20.7 Q18.9 20.4 19.6 19.25 20.35 19.25 20.75 18.95 21.65 18.15 20.35 15.5 L21.7 15.5 22.2 15.05 22.45 15.25 Q23.15 15.95 23.3 17.0 23.45 17.9 23.05 18.6 L22.95 18.7 22.5 19.15 23.1 19.8 23.65 20.65 24.0 21.35 24.0 21.4 M-8.8 8.65 L-8.55 8.55 -8.2 8.5 -7.65 8.95 -7.6 8.95 -0.85 14.3 -1.0 14.65 Q-1.2 15.3 -1.55 15.75 L-2.0 16.2 -2.95 16.65 -3.45 16.65 Q-4.15 16.45 -4.4 15.7 L-4.5 15.1 -5.9 15.9 -6.1 15.95 -7.8 15.8 Q-8.6 15.4 -8.55 14.5 -8.5 13.55 -7.6 12.6 L-8.9 12.1 -9.05 12.0 -9.85 11.0 -9.95 10.65 Q-10.05 9.7 -9.3 9.05 L-8.8 8.65 M17.8 7.3 L18.5 6.65 Q19.8 5.25 20.35 3.55 L20.7 3.85 Q21.4 4.5 21.3 5.45 L21.2 5.8 Q20.95 6.45 20.3 6.9 L19.7 7.2 18.95 7.4 19.35 7.85 Q18.85 7.55 18.25 7.4 L17.8 7.3 M10.25 32.05 L10.45 32.25 11.05 32.45 11.75 32.25 12.0 31.8 12.2 30.75 12.0 31.8 11.75 32.25 11.05 32.45 10.45 32.25 10.25 32.05" fill="#7e0606" fill-rule="evenodd" stroke="none"/>
    <path d="M2.25 -1.65 L4.45 0.25 5.05 0.9 Q6.3 2.35 6.55 3.7 5.55 4.7 3.35 4.6 1.5 4.5 -1.1 3.7 L-1.6 2.45 Q-2.55 -0.75 2.25 -1.65 M16.95 -3.6 L17.05 -3.8 17.3 -4.5 17.4 -4.55 Q18.45 -5.25 19.35 -4.85 L19.85 -4.5 20.35 -4.0 20.5 -2.1 20.4 -1.2 20.15 -0.45 19.6 0.55 19.25 0.85 18.5 1.25 18.3 1.35 Q17.6 0.9 17.25 0.15 16.5 -1.25 16.95 -3.6" fill="#ffff33" fill-rule="evenodd" stroke="none"/>
    <path d="M-4.8 1.1 Q-5.4 0.0 -5.0 -1.3 -2.3 -2.95 2.0 -1.85 L2.15 -1.7 2.25 -1.65 Q-2.55 -0.75 -1.6 2.45 L-1.1 3.7 -2.35 3.35 -2.65 3.15 -4.25 1.85 -4.25 1.55 -4.8 1.1 M17.8 1.75 Q16.9 2.05 16.35 1.55 L15.95 0.95 Q15.9 -1.2 16.95 -3.6 16.5 -1.25 17.25 0.15 17.6 0.9 18.3 1.35 L17.8 1.75" fill="#e9dd2e" fill-rule="evenodd" stroke="none"/>
    <path d="M16.2 23.25 L16.2 23.3 16.8 30.15 12.25 31.15 12.2 30.75 12.1 29.95 12.05 29.7 11.85 28.5 12.75 28.0 12.85 27.85 Q13.2 27.3 13.1 26.6 L13.05 26.3 12.75 25.5 12.05 24.7 11.75 24.5 11.3 24.25 11.2 23.7 16.2 23.25" fill="#e70c0c" fill-rule="evenodd" stroke="none"/>
    <path d="M10.75 10.55 L11.85 10.35 14.0 9.9 15.4 14.95 18.55 14.7 19.6 19.25 16.05 20.55 16.05 20.8 16.2 23.25 11.2 23.7 11.2 23.65 Q11.4 22.85 11.1 22.2 10.8 21.5 10.2 21.35 9.6 21.15 9.0 21.6 L8.8 21.8 8.85 22.15 6.0 22.45 5.85 20.65 5.5 17.25 9.55 16.1 9.3 10.8 10.75 10.55" fill="#bd0909" fill-rule="evenodd" stroke="none"/>
    <path d="M-7.15 8.1 L-6.7 7.25 -6.65 7.25 -6.3 7.35 -4.7 8.2 Q-0.45 9.7 3.15 10.35 L10.75 10.55 9.3 10.8 9.55 16.1 5.5 17.25 5.85 20.65 Q4.55 21.1 4.15 22.2 4.0 22.55 4.75 25.1 4.5 26.8 2.7 28.5 L1.25 29.6 -0.85 30.85 -0.95 30.9 -2.35 30.25 -3.7 29.45 -5.45 28.35 -5.6 28.2 Q-5.1 27.85 -4.7 26.45 L-4.4 24.85 -4.3 24.3 -4.15 24.6 -3.5 25.25 -3.2 25.25 Q-2.65 25.15 -2.35 23.9 -2.05 22.55 -2.15 20.85 L-2.55 18.95 -2.25 18.65 Q-1.75 18.1 -1.6 17.0 L-1.55 15.75 Q-1.2 15.3 -1.0 14.65 L-0.85 14.3 -7.6 8.95 -7.15 8.1 M11.85 10.35 Q14.7 9.65 16.9 8.0 L17.8 7.3 18.25 7.4 Q18.85 7.55 19.35 7.85 L20.05 8.45 Q20.8 9.25 20.8 10.1 20.75 10.7 20.35 11.1 L20.0 11.35 20.95 12.2 21.25 12.5 Q22.05 13.5 22.2 14.4 L22.2 15.05 21.7 15.5 20.35 15.5 Q21.65 18.15 20.75 18.95 20.35 19.25 19.6 19.25 L18.55 14.7 15.4 14.95 14.0 9.9 11.85 10.35 M19.6 19.25 Q18.9 20.4 16.85 20.7 L16.05 20.8 16.05 20.55 19.6 19.25" fill="#4a0404" fill-rule="evenodd" stroke="none"/>
    <path d="M13.05 -30.55 L15.1 -27.9 15.85 -22.15 14.55 -14.75 Q15.05 -12.35 14.15 -8.95 13.15 -5.4 11.6 -4.9 L9.95 -19.45 12.45 -26.25 13.05 -30.55 M17.3 -25.25 Q18.4 -20.3 21.3 -16.95 L21.15 -15.9 18.25 -14.8 17.3 -25.25 M18.85 -10.0 L19.55 -9.75 20.45 -11.85 20.4 -11.4 20.2 -10.25 19.95 -8.8 19.65 -7.1 19.1 -9.2 18.85 -10.0" fill="#fdf2cc" fill-rule="evenodd" stroke="none"/>
    <path d="M12.45 -26.25 L9.95 -19.45 5.35 -31.15 Q6.85 -30.1 8.65 -29.45 9.6 -31.75 8.15 -35.25 L10.3 -33.5 12.45 -26.25 M-10.35 -0.2 L-12.15 -4.5 -7.6 -3.5 -10.0 -6.3 -11.75 -15.75 -11.75 -15.85 -10.45 -14.25 -5.5 -13.85 -7.35 -21.45 -6.65 -30.55 Q-4.25 -36.05 -1.55 -39.6 L-1.0 -25.2 2.0 -12.2 Q-1.6 -13.3 -4.15 -12.15 L-6.55 -12.7 -6.6 -12.7 -5.85 -11.05 -5.95 -10.95 -6.35 -10.3 Q-7.7 -7.55 -5.9 -0.45 L-6.35 0.4 Q-7.55 0.0 -9.3 -0.15 L-10.25 -0.2 -10.35 -0.2" fill="#f2caa1" fill-rule="evenodd" stroke="none"/>
    <path d="M25.65 2.8 Q23.35 3.45 21.6 6.95 L21.4 6.25 21.2 5.8 21.3 5.45 Q21.4 4.5 20.7 3.85 L20.35 3.55 Q21.0 1.4 20.4 -1.2 L20.5 -2.1 Q21.2 -4.9 22.35 -7.9 22.9 -0.15 25.65 2.8 M-16.85 16.2 Q-20.15 10.6 -24.05 11.0 -21.1 6.95 -21.2 -0.95 -15.2 7.85 -16.85 16.2" fill="#8d41bc" fill-rule="evenodd" stroke="none"/>
    <path d="M33.15 7.85 Q29.75 2.4 26.35 2.7 L25.65 2.8 Q22.9 -0.15 22.35 -7.9 21.2 -4.9 20.5 -2.1 L20.35 -4.0 19.85 -4.5 19.85 -6.75 22.1 -11.95 22.15 -12.1 22.05 -12.05 20.7 -11.5 20.7 -11.55 20.75 -12.5 21.55 -14.3 Q31.5 -7.05 33.15 7.85 M-11.15 12.8 L-11.85 12.85 -12.5 12.95 Q-15.65 13.7 -16.85 16.2 -15.2 7.85 -21.2 -0.95 -21.1 6.95 -24.05 11.0 L-24.95 11.2 Q-29.1 12.3 -32.55 19.1 -32.15 3.0 -19.9 -8.6 -19.95 -5.3 -18.95 -2.95 -17.6 0.65 -16.05 2.8 -13.55 6.6 -8.6 7.9 L-8.7 8.25 -8.7 8.35 -8.7 8.4 -8.75 8.55 -8.8 8.65 -9.3 9.05 Q-10.05 9.7 -9.95 10.65 L-9.85 11.0 -10.0 11.45 -10.4 12.85 -11.15 12.8" fill="#9e6dbc" fill-rule="evenodd" stroke="none"/>
    <path d="M21.8 -14.9 Q25.9 -14.6 28.5 -11.65 30.8 -9.15 32.35 -3.35 34.15 3.05 33.15 7.85 31.5 -7.05 21.55 -14.3 L21.8 -14.9 M-32.55 19.1 Q-34.25 14.8 -32.75 7.7 -31.45 1.3 -28.95 -2.1 -25.75 -6.65 -19.9 -8.6 -32.15 3.0 -32.55 19.1" fill="#ccaae0" fill-rule="evenodd" stroke="none"/>
    <path d="M11.6 -4.9 Q13.15 -5.4 14.15 -8.95 15.05 -12.35 14.55 -14.75 L14.95 -14.65 16.15 -14.0 18.25 -14.8 21.15 -15.9 M-13.05 1.15 L-13.25 -0.35 -10.35 -0.2 -10.25 -0.2 -9.3 -0.15 Q-7.55 0.0 -6.35 0.4 -5.45 0.7 -4.8 1.1 -5.4 0.0 -5.0 -1.3 -2.3 -2.95 2.0 -1.85 L2.15 -1.7 M-11.75 -15.85 L-10.45 -14.25 M-1.55 -39.6 L-1.5 -39.7 M16.15 -14.0 L15.65 -13.8 M6.95 -7.5 Q4.25 -9.5 2.0 -12.2 -1.6 -13.3 -4.15 -12.15 L0.05 -11.2 M-3.8 -6.55 L-5.85 -11.05 -5.95 -10.95 -6.35 -10.3 Q-7.7 -7.55 -5.9 -0.45 L-6.35 0.4 M2.25 -1.65 L4.45 0.25 5.05 0.9 Q6.3 2.35 6.55 3.7 5.55 4.7 3.35 4.6 1.5 4.5 -1.1 3.7 L-2.35 3.35 -2.65 3.15 -4.25 1.85 M17.8 1.75 Q16.9 2.05 16.35 1.55 L15.95 0.95 Q15.9 -1.2 16.95 -3.6 M6.95 -7.5 Q9.15 -5.95 11.6 -4.9 M-5.85 -11.05 L-6.6 -12.7 -6.55 -12.7 -4.15 -12.15 M-4.8 1.1 L-4.25 1.55 M-7.6 8.95 L-7.15 8.1" ffdec:has-small-stroke="true" ffdec:original-stroke-width="0.125" fill="none" stroke="#1f1f29" stroke-linecap="round" stroke-linejoin="round" stroke-width="0.16000000000000003"/>
    <path d="M12.2 30.75 L12.0 31.8 11.75 32.25 11.05 32.45 10.45 32.25 10.25 32.05 M8.8 21.8 L9.0 21.6 Q9.6 21.15 10.2 21.35 10.8 21.5 11.1 22.2 11.4 22.85 11.2 23.65 L11.0 24.15 11.3 24.25 11.75 24.5 12.05 24.7 12.75 25.5 13.05 26.3 13.1 26.6 Q13.2 27.3 12.85 27.85 L12.75 28.0 11.85 28.5 11.6 28.5 12.05 29.7 12.1 29.95 12.2 30.75" ffdec:has-small-stroke="true" ffdec:original-stroke-width="0.125" fill="none" stroke="#a41c1c" stroke-linecap="round" stroke-linejoin="round" stroke-width="0.16000000000000003"/>
    <path d="M3.15 10.35 L10.75 10.55 11.85 10.35 Q14.7 9.65 16.9 8.0 L17.8 7.3 M3.15 10.35 Q-0.45 9.7 -4.7 8.2 L-6.3 7.35" ffdec:has-small-stroke="true" ffdec:original-stroke-width="0.125" fill="none" stroke="#50206a" stroke-linecap="round" stroke-linejoin="round" stroke-width="0.16000000000000003"/>
    <path d="M-6.3 7.35 L-6.65 7.25 -6.7 7.25 M-6.3 7.35 L-4.65 7.85 M-6.65 7.25 L-9.15 6.1" ffdec:has-small-stroke="true" ffdec:original-stroke-width="0.125" fill="none" stroke="#3d184f" stroke-linecap="round" stroke-linejoin="round" stroke-width="0.16000000000000003"/>
    <path d="M15.85 -22.15 L15.1 -27.9 13.05 -30.55 10.3 -33.5 8.15 -35.25 Q9.6 -31.75 8.65 -29.45 6.85 -30.1 5.35 -31.15 0.9 -34.05 -1.5 -39.7 M14.55 -14.75 L15.85 -22.15 M17.3 -25.25 Q18.4 -20.3 21.3 -16.95 L21.15 -15.9 M-10.35 -0.2 L-12.15 -4.5 -12.9 -6.3 Q-14.4 -12.1 -13.3 -17.65 L-11.75 -15.85 M-10.45 -14.25 L-9.75 -22.2 Q-8.25 -26.85 -6.65 -30.55 -4.25 -36.05 -1.55 -39.6" ffdec:has-small-stroke="true" ffdec:original-stroke-width="0.125" fill="none" stroke="#bc8650" stroke-linecap="round" stroke-linejoin="round" stroke-width="0.16000000000000003"/>
    <path d="M22.45 -16.4 L22.4 -16.25 21.8 -14.9 Q25.9 -14.6 28.5 -11.65 30.8 -9.15 32.35 -3.35 34.15 3.05 33.15 7.85 29.75 2.4 26.35 2.7 L25.65 2.8 Q23.35 3.45 21.6 6.95 L21.85 8.05 Q22.5 7.45 23.25 7.8 23.95 8.15 24.3 9.25 24.65 10.4 24.45 11.7 L23.95 13.0 24.4 13.4 Q24.95 14.05 25.15 14.95 25.3 15.9 24.95 16.55 L24.55 16.95 24.55 17.1 24.55 20.65 24.35 20.9 24.0 21.35 23.65 20.65 23.1 19.8 22.5 19.15 22.95 18.7 23.05 18.6 Q23.45 17.9 23.3 17.0 23.15 15.95 22.45 15.25 L22.2 15.05 22.2 14.4 Q22.05 13.5 21.25 12.5 L20.95 12.2 20.0 11.35 20.35 11.1 Q20.75 10.7 20.8 10.1 20.8 9.25 20.05 8.45 L19.35 7.85 Q18.85 7.55 18.25 7.4 L17.8 7.3 18.5 6.65 Q19.8 5.25 20.35 3.55 L20.7 3.85 Q21.4 4.5 21.3 5.45 L21.2 5.8 21.4 6.25 21.6 6.95 M24.0 21.4 Q24.4 22.35 24.4 23.3 24.4 24.55 23.65 24.95 22.95 25.3 21.9 24.65 L21.8 24.6 21.8 24.7 22.0 25.8 22.5 25.9 23.25 26.15 Q25.35 27.85 25.75 30.05 25.65 30.8 24.6 31.0 L22.15 31.3 22.4 33.0 Q22.2 33.7 21.25 33.8 17.95 33.8 15.35 32.7 L15.05 32.55 14.95 32.7 14.85 32.8 Q14.05 34.05 13.0 34.6 11.95 35.1 11.25 34.6 10.55 34.05 10.6 32.75 L8.95 33.7 7.75 34.0 7.85 35.75 Q7.55 36.55 6.5 36.7 5.25 36.85 2.85 36.0 L1.45 36.6 1.4 38.2 Q1.1 39.55 -1.7 39.75 L-3.25 39.6 Q-4.9 39.1 -5.35 37.2 L-5.4 36.45 -6.2 36.3 Q-6.4 37.05 -7.8 37.2 L-8.65 37.05 Q-9.45 36.75 -9.7 35.65 -9.8 34.95 -9.5 34.4 L-8.9 33.45 -8.85 33.35 Q-9.0 31.65 -7.6 30.1 L-6.0 28.7 -5.45 28.35 -3.7 29.45 -2.35 30.25 -0.95 30.9 -0.65 31.05 -0.4 31.3 M-5.65 28.2 Q-6.2 28.55 -6.55 27.7 L-6.65 27.9 Q-7.45 28.4 -8.2 28.6 -9.1 28.85 -9.95 28.6 -11.6 28.05 -13.2 25.85 L-13.2 22.3 -13.2 22.15 -13.55 21.75 Q-13.95 21.1 -13.75 20.15 -13.6 19.25 -13.0 18.6 L-12.55 18.2 -13.05 16.9 Q-13.3 15.6 -12.95 14.45 -12.6 13.35 -11.85 13.0 L-11.25 12.9 -10.8 13.0 -10.45 13.25 -10.4 12.85 -10.0 11.45 -9.85 11.0 -9.95 10.65 Q-10.05 9.7 -9.3 9.05 L-8.8 8.65 -8.55 8.55 -8.2 8.5 M-11.15 12.8 L-11.85 12.85 -12.5 12.95 Q-15.65 13.7 -16.85 16.2 -20.15 10.6 -24.05 11.0 L-24.95 11.2 Q-29.1 12.3 -32.55 19.1 -34.25 14.8 -32.75 7.7 -31.45 1.3 -28.95 -2.1 -25.75 -6.65 -19.9 -8.6 -19.95 -5.3 -18.95 -2.95 -17.6 0.65 -16.05 2.8 -13.55 6.6 -8.6 7.9 M22.35 -16.35 L21.95 -16.2 M19.55 -9.75 L20.45 -11.85 20.75 -12.5 21.55 -14.3 21.8 -14.9 M18.85 -10.0 L19.1 -9.2 19.65 -7.1 19.95 -8.8 20.2 -10.25 20.4 -11.4 20.45 -11.85 M20.7 -11.55 L20.75 -12.5 M19.85 -6.75 L19.9 -8.0 19.95 -8.8 M17.3 -4.5 L17.4 -4.55 Q18.45 -5.25 19.35 -4.85 L19.85 -4.5 19.85 -6.75 22.1 -11.95 22.15 -12.1 22.05 -12.05 20.7 -11.5 20.4 -11.4 M22.45 -16.4 L22.35 -16.35 M20.7 -11.55 L20.7 -11.5 M19.85 -4.5 L20.35 -4.0 20.5 -2.1 20.4 -1.2 Q21.0 1.4 20.35 3.55 M20.4 -1.2 L20.15 -0.45 19.6 0.55 19.25 0.85 M21.2 5.8 Q20.95 6.45 20.3 6.9 L19.7 7.2 18.95 7.4 19.35 7.85 M20.35 15.5 L21.7 15.5 22.2 15.05 M24.0 21.4 L24.0 21.35 M18.35 30.4 L18.8 29.4 18.85 28.45 19.05 28.25 19.3 28.05 19.8 28.55 Q20.4 29.1 20.95 28.9 L21.25 28.7 21.5 28.5 Q21.9 27.9 22.0 26.7 L22.0 25.8 M15.05 32.55 L15.55 31.1 16.1 31.3 17.75 31.0 18.35 30.4 M0.1 32.5 L0.5 33.0 Q1.15 33.8 1.35 35.4 L2.85 36.0 M0.25 31.7 L0.5 31.5 -0.65 31.05 M1.45 36.6 L1.35 35.4 M0.5 31.5 Q3.35 32.5 6.15 32.7 6.15 33.55 6.85 33.9 L7.75 34.0 M22.15 31.3 Q21.8 30.05 20.95 28.9 M-9.85 11.0 L-9.05 12.0 -8.9 12.1 -7.6 12.6 Q-8.5 13.55 -8.55 14.5 -8.6 15.4 -7.8 15.8 L-6.1 15.95 -5.9 15.9 -4.5 15.1 -4.4 15.7 Q-4.15 16.45 -3.45 16.65 L-2.95 16.65 -2.0 16.2 -1.55 15.75 Q-1.2 15.3 -1.0 14.65 L-0.85 14.3 M-11.15 12.8 L-10.4 12.85 M-3.5 25.25 L-3.2 25.25 Q-2.65 25.15 -2.35 23.9 -2.05 22.55 -2.15 20.85 L-2.55 18.95 -2.25 18.65 Q-1.75 18.1 -1.6 17.0 L-1.55 15.75 M-3.5 25.25 L-4.15 24.6 -4.3 24.3 -4.4 24.85 -4.7 26.45 Q-5.1 27.85 -5.6 28.2 L-5.45 28.35 M-5.65 28.2 L-5.6 28.2 M-7.75 32.35 Q-8.3 32.45 -8.85 33.35 M-6.2 36.3 L-6.15 36.25 Q-6.0 34.0 -6.55 33.1 -7.1 32.2 -7.7 32.3 M-2.9 32.25 L-4.0 33.5 -5.1 35.15 -5.4 36.45 M-2.9 32.25 L-2.3 31.85 Q-1.1 31.2 0.1 32.5 M-4.9 31.05 L-5.45 31.35 M-2.35 30.25 Q-3.5 30.2 -4.9 31.05" ffdec:has-small-stroke="true" ffdec:original-stroke-width="0.125" fill="none" stroke="#000000" stroke-linecap="round" stroke-linejoin="round" stroke-width="0.16000000000000003"/>
  </g>
</svg>
