<?xml version="1.0" encoding="UTF-8" standalone="no"?>
<svg xmlns:ffdec="https://www.free-decompiler.com/flash" xmlns:xlink="http://www.w3.org/1999/xlink" ffdec:objectType="shape" height="472.5px" width="586.1px" xmlns="http://www.w3.org/2000/svg">
  <g transform="matrix(1.0, 0.0, 0.0, 1.0, 293.05, 235.0)">
    <path d="M-21.95 -135.2 Q-19.45 -155.0 -3.2 -166.8 L-0.85 -168.9 Q4.35 -174.6 3.8 -186.05 10.35 -181.65 13.75 -168.9 L14.45 -165.7 Q16.8 -166.95 17.75 -168.9 19.3 -172.0 17.35 -177.0 21.2 -173.05 24.4 -168.9 31.15 -159.75 34.5 -149.1 L17.45 -147.1 10.35 -135.6 3.15 -143.95 Q-9.9 -140.6 -21.95 -135.2" fill="#df6204" fill-rule="evenodd" stroke="none"/>
    <path d="M-21.95 -135.2 Q-19.45 -155.0 -3.2 -166.8 L-0.85 -168.9 Q4.35 -174.6 3.8 -186.05 10.35 -181.65 13.75 -168.9 L14.45 -165.7 Q16.8 -166.95 17.75 -168.9 19.3 -172.0 17.35 -177.0 21.2 -173.05 24.4 -168.9 31.15 -159.75 34.5 -149.1" ffdec:has-small-stroke="true" ffdec:original-stroke-width="0.1" fill="none" stroke="#ffffff" stroke-linecap="round" stroke-linejoin="round" stroke-opacity="0.29803923" stroke-width="1.0"/>
    <path d="M59.15 -214.7 Q79.55 -194.35 79.55 -165.6 79.55 -136.85 59.15 -116.6 38.9 -96.25 10.15 -96.25 -18.6 -96.25 -38.95 -116.6 -59.2 -136.85 -59.2 -165.6 -59.2 -194.35 -38.95 -214.7 -18.6 -235.0 10.15 -235.0 38.9 -235.0 59.15 -214.7" fill="url(#gradient0)" fill-rule="evenodd" stroke="none"/>
    <path d="M-219.1 -74.6 L-218.6 -72.9 -218.5 -72.55 Q-215.85 -71.2 -213.55 -68.9 L-211.55 -72.1 Q-214.2 -76.25 -214.25 -79.7 -214.35 -83.95 -210.5 -87.1 L-208.25 -87.9 Q-207.35 -102.35 -204.7 -115.65 -200.85 -135.15 -193.35 -152.45 -194.6 -118.7 -190.95 -87.35 L-189.8 -87.0 Q-182.6 -84.45 -179.95 -79.7 -178.5 -76.9 -178.6 -73.4 -179.85 -70.8 -181.4 -68.8 -175.35 -59.1 -174.55 -56.7 -172.95 -52.05 -175.3 -44.2 -176.9 -38.9 -176.35 -29.9 L-139.45 -9.05 Q-134.15 -4.9 -129.5 4.2 L-124.7 3.7 Q-117.2 2.5 -112.1 -0.8 -109.5 -2.4 -107.6 -4.5 -106.3 -5.9 -105.25 -7.6 -109.2 -30.3 -97.75 -38.8 L-97.5 -44.35 -97.4 -46.1 Q-94.9 -54.6 -87.55 -56.7 L-87.4 -71.6 -86.65 -94.55 Q-86.65 -101.2 -76.9 -107.45 -67.15 -113.8 -47.6 -122.85 -43.5 -123.4 -40.0 -121.65 L-38.7 -126.45 Q-30.6 -131.3 -21.85 -135.15 -9.85 -140.5 3.25 -143.9 L10.45 -135.55 17.5 -147.0 34.6 -149.0 Q53.7 -150.3 75.05 -147.55 78.9 -147.0 82.5 -143.15 L82.5 -147.0 106.05 -146.2 Q113.2 -145.1 120.35 -142.9 127.25 -137.45 134.0 -113.15 L138.05 -96.65 140.9 -97.35 Q150.35 -98.65 158.9 -82.35 177.15 -93.2 185.0 -73.15 L188.05 -65.5 202.25 -57.65 Q233.5 -56.05 259.9 -62.65 266.55 -72.0 271.3 -72.65 276.35 -68.0 280.05 -63.5 L282.9 -59.8 Q292.0 -47.15 290.3 -35.85 287.9 -21.65 263.9 -1.6 L263.85 -1.5 247.65 10.85 Q246.35 28.5 251.0 46.85 255.65 44.35 261.9 46.6 268.55 54.25 261.9 61.75 L257.35 62.5 Q259.8 86.25 270.75 109.75 274.35 117.5 278.9 125.35 255.55 111.35 239.2 81.8 236.0 76.15 233.1 69.85 230.05 71.3 227.1 73.0 223.75 71.8 222.7 68.6 221.9 65.85 222.7 61.75 223.25 55.9 228.05 54.4 223.0 47.1 220.35 40.6 211.95 45.0 212.0 55.45 217.05 57.85 218.35 60.15 221.5 67.2 218.35 74.2 L211.85 71.9 Q205.1 98.4 211.85 134.75 207.2 130.45 203.3 125.75 197.75 119.2 193.75 112.15 192.75 117.45 192.35 122.9 191.65 132.35 192.55 142.2 193.25 150.65 195.2 159.3 203.9 156.1 214.25 165.3 L216.05 168.05 216.25 168.45 Q221.65 177.85 220.7 186.25 217.85 189.8 214.05 192.0 217.3 214.65 208.1 232.2 L192.85 195.45 184.2 194.1 Q183.25 195.45 181.8 196.45 176.95 199.15 172.25 200.7 164.55 219.45 152.5 235.0 L150.25 227.25 Q146.35 212.8 144.9 198.5 L141.3 196.45 Q138.95 194.85 137.65 191.6 L131.1 190.2 Q130.05 194.5 124.5 195.4 L118.2 195.8 116.9 195.7 Q104.05 209.75 94.1 231.4 82.55 211.85 92.45 185.75 L94.85 180.05 Q93.4 177.5 92.2 174.6 L91.95 174.15 Q92.2 161.15 105.85 156.65 L106.05 156.65 Q113.3 155.7 118.6 158.4 119.2 158.65 122.75 157.55 126.45 156.35 129.0 149.25 122.5 147.1 116.1 143.9 111.7 138.95 108.4 133.3 L106.05 133.4 Q97.65 133.55 88.0 131.05 32.05 165.45 -19.3 126.35 -27.3 126.9 -36.05 123.85 -38.2 133.65 -43.2 143.75 L-43.2 162.5 Q-43.35 169.25 -50.9 171.15 L-96.55 171.15 Q-96.75 174.05 -97.55 177.1 -102.55 183.3 -112.1 182.95 L-116.4 182.5 -121.95 172.75 Q-132.15 175.5 -140.65 183.35 L-140.65 180.95 Q-140.65 171.5 -136.55 162.05 L-152.25 175.65 Q-153.15 154.9 -137.6 139.65 L-138.25 137.9 Q-134.7 117.9 -117.6 125.95 -115.05 127.15 -112.15 129.0 L-112.1 129.05 -110.95 129.8 -105.35 129.15 Q-100.05 128.2 -95.5 126.25 -92.5 124.95 -89.85 123.3 L-92.5 119.35 -94.75 113.2 -95.25 111.65 Q-102.95 86.7 -90.85 70.5 -102.05 77.75 -112.1 76.55 -123.95 75.0 -134.2 61.7 -123.1 55.5 -112.1 57.85 -101.35 60.1 -90.85 70.5 -87.45 65.95 -82.4 62.1 -81.05 58.95 -78.3 55.85 -82.35 36.75 -84.6 14.05 -86.9 12.45 -89.65 9.5 L-98.85 10.9 -116.6 30.55 -116.65 30.55 -111.55 43.25 -112.1 43.3 Q-115.2 43.3 -125.65 34.9 -135.2 33.45 -149.85 22.25 -154.9 18.4 -165.9 1.6 -174.55 -11.55 -185.95 -20.3 -191.8 -21.55 -196.15 -27.0 -207.95 -24.45 -216.1 -35.45 L-216.6 -35.5 -218.75 -35.85 -219.25 -35.9 -219.3 -35.9 Q-228.85 -37.7 -236.5 -41.05 L-239.3 -42.4 Q-242.1 -43.85 -244.65 -45.6 -246.6 -43.85 -249.15 -42.5 -255.8 -42.65 -258.4 -46.05 -260.0 -48.05 -260.05 -51.25 L-256.7 -54.7 Q-284.55 -82.7 -290.55 -124.85 -273.45 -92.6 -246.45 -68.5 L-246.2 -70.0 Q-253.95 -81.3 -259.75 -93.5 -271.3 -117.8 -274.8 -145.4 -258.4 -106.8 -232.15 -83.65 L-230.85 -84.05 -229.85 -84.35 -227.0 -85.0 Q-222.7 -83.4 -221.0 -79.7 -219.8 -77.05 -219.95 -73.3 L-218.5 -72.55 -218.3 -71.75 M189.65 -25.9 L231.45 -33.1 Q219.0 -17.8 207.3 2.25 185.25 1.15 169.2 13.95 L165.4 12.75 164.0 1.4 Q167.5 -3.45 167.9 -12.75 181.3 -5.9 189.65 -25.9 Z" fill="none" stroke="#000000" stroke-linecap="round" stroke-linejoin="round" stroke-width="5.0"/>
    <path d="M187.35 160.95 L189.75 161.1 Q197.6 161.7 197.15 164.65 215.65 164.55 213.1 167.95 L212.2 169.2 219.65 171.45 Q242.95 174.1 265.95 175.15 L278.95 174.7 Q280.85 175.7 281.75 176.6 L282.3 177.35 Q283.85 179.8 277.75 181.25 269.7 183.1 242.75 184.05 L242.7 184.15 242.55 184.15 Q236.2 195.7 223.9 200.1 L221.85 200.85 Q220.85 201.05 207.55 225.55 214.8 202.6 205.25 205.15 209.9 221.6 201.45 217.45 202.05 218.7 200.65 219.6 198.2 221.2 186.25 205.1 178.7 210.35 154.85 228.4 167.55 212.95 163.45 211.75 L163.45 214.4 Q152.2 216.95 134.55 201.0 123.65 206.2 95.6 228.9 91.65 221.9 100.15 193.15 77.25 203.4 64.8 191.1 L51.0 189.35 Q-6.75 189.85 -29.2 180.35 L-41.0 178.75 -54.95 181.0 -63.05 183.65 -72.7 184.3 -107.65 180.75 -110.95 181.5 -127.7 180.85 Q-127.95 179.9 -127.8 179.1 -136.75 178.7 -146.6 179.1 L-145.6 178.75 Q-141.5 177.5 -134.25 176.45 L-152.25 177.15 Q-144.0 174.1 -125.45 173.25 L-125.2 172.9 Q-114.45 170.5 -105.25 172.6 -97.8 146.15 -98.6 145.25 -108.75 144.7 -110.3 142.5 L-110.75 142.45 -69.05 142.45 -69.25 142.7 Q-70.05 143.5 -75.25 144.45 -78.7 145.0 -82.15 146.35 L-62.9 152.05 Q-60.65 153.1 -60.95 154.8 L-57.1 155.05 Q-47.75 155.65 -40.5 155.2 L-37.3 154.95 Q-31.15 151.75 -20.2 151.2 L-18.05 151.1 -15.55 150.3 -14.7 150.05 -2.6 149.4 3.9 147.25 14.35 144.1 Q17.15 143.15 27.4 143.0 37.55 142.85 56.45 143.1 L61.75 143.8 64.8 143.25 81.5 143.3 104.4 144.05 106.35 145.7 116.7 144.7 130.65 145.65 160.95 149.0 Q163.6 149.4 164.8 150.2 L166.4 149.65 Q181.55 150.85 193.6 153.1 196.55 154.45 191.3 158.4 L187.35 160.95 M152.05 187.05 L152.2 187.1 152.45 187.1 152.05 187.05 M89.1 173.15 L91.35 173.05 87.15 173.05 89.1 173.15 M-103.45 174.9 L-103.55 174.35 -103.9 174.75 -103.45 174.9 M-25.75 175.15 L-24.45 174.5 -24.7 174.5 -25.75 175.15" fill="url(#gradient1)" fill-rule="evenodd" stroke="none"/>
    <path d="M-40.0 -121.65 L-38.7 -126.45 Q-30.6 -131.3 -21.85 -135.15 -9.85 -140.5 3.25 -143.9 L10.45 -135.55 17.5 -147.0 34.6 -149.0 Q53.7 -150.3 75.05 -147.55 78.9 -147.0 82.5 -143.15 L82.5 -147.0 106.05 -146.2 Q113.2 -145.1 120.35 -142.9 127.25 -137.45 134.0 -113.15 L120.5 -136.35 Q113.05 -138.2 106.05 -138.75 95.3 -139.8 85.6 -137.85 91.3 -127.65 94.2 -117.1 L76.45 -140.6 Q49.1 -144.3 25.85 -136.5 L16.1 -121.8 3.8 -131.6 Q-12.85 -130.1 -29.65 -123.4 -39.25 -103.85 -44.05 -84.2 -44.95 -94.3 -44.05 -106.2 L-40.0 -121.65 M138.05 -96.65 L140.9 -97.35 Q150.35 -98.65 158.9 -82.35 L155.05 -76.6 Q133.75 -94.85 119.85 -49.95 119.7 -52.85 119.8 -55.8 119.8 -60.85 120.35 -65.9 L123.95 -82.35 Q131.15 -93.9 138.05 -96.65 M-97.5 -44.35 L-97.4 -46.1 Q-94.9 -54.6 -87.55 -56.7 L-87.4 -71.6 -86.65 -94.55 Q-86.65 -101.2 -76.9 -107.45 -67.15 -113.8 -47.6 -122.85 -47.35 -118.3 -46.3 -113.7 -62.1 -106.9 -76.15 -96.45 L-85.55 -14.4 -86.65 -14.25 Q-87.4 -28.55 -87.55 -44.0 -92.5 -45.8 -97.5 -44.35 M82.5 -143.15 L85.6 -137.85 82.5 -143.15 M-87.55 -56.7 L-87.55 -44.0 -87.55 -56.7" fill="#f9ad40" fill-rule="evenodd" stroke="none"/>
    <path d="M134.0 -113.15 L138.05 -96.65 Q131.15 -93.9 123.95 -82.35 L120.35 -65.9 Q119.8 -60.85 119.8 -55.8 L116.2 -40.95 Q119.7 -26.8 122.75 -12.0 L126.45 6.6 Q126.85 23.85 117.45 36.6 111.85 44.1 106.05 54.55 100.7 64.2 95.1 76.3 L88.9 62.75 96.05 35.15 92.6 32.35 78.95 21.1 Q97.9 7.0 106.05 -17.65 108.0 -23.5 109.35 -30.0 111.85 -42.0 112.25 -55.95 L107.75 -71.6 107.75 -71.75 106.15 -77.45 94.2 -117.1 92.25 -108.5 Q101.4 -97.35 98.7 -82.3 97.65 -78.2 91.7 -75.85 85.2 -74.6 79.05 -71.6 68.35 -66.55 58.5 -56.55 56.25 -54.3 54.1 -51.7 L42.55 -86.6 47.35 -43.4 Q39.65 -32.85 32.5 -19.1 L28.9 -12.0 Q26.9 -7.85 25.0 -3.35 23.2 0.4 21.55 4.5 16.95 9.15 12.4 4.5 L4.6 3.55 Q2.2 -3.45 1.1 -9.2 L0.6 -12.0 Q-0.75 -21.25 1.95 -26.95 L7.0 -47.3 Q10.3 -60.4 15.85 -71.6 24.4 -89.2 38.4 -102.1 17.85 -87.5 3.65 -65.1 -4.6 -39.55 -3.75 -15.45 -10.65 -45.6 -19.05 -56.05 -27.7 -60.95 -35.65 -61.85 -38.7 -62.15 -41.6 -61.9 -39.35 -61.4 -37.35 -60.45 -46.5 -52.85 -52.15 -38.25 -52.35 -25.4 -50.1 -14.75 L-55.4 -16.6 Q-61.4 -18.35 -67.75 -18.7 L-69.6 -18.75 Q-78.25 -28.85 -67.65 -53.15 -78.25 -28.85 -69.6 -18.75 L-67.75 -18.7 -74.45 -14.65 Q-71.35 2.75 -66.3 14.85 -67.35 17.75 -67.55 21.25 L-64.75 18.4 Q-58.05 32.6 -48.25 38.25 L-51.85 38.25 Q-50.75 48.95 -49.05 57.3 L-48.75 58.55 Q-44.9 76.85 -38.15 83.5 L-37.25 81.75 -37.25 108.05 Q-76.65 87.3 -85.55 -14.4 L-76.15 -96.45 Q-62.1 -106.9 -46.3 -113.7 -45.5 -109.95 -44.05 -106.2 -44.95 -94.3 -44.05 -84.2 -39.25 -103.85 -29.65 -123.4 -12.85 -130.1 3.8 -131.6 L16.1 -121.8 25.85 -136.5 Q49.1 -144.3 76.45 -140.6 L94.2 -117.1 Q91.3 -127.65 85.6 -137.85 95.3 -139.8 106.05 -138.75 113.05 -138.2 120.5 -136.35 L134.0 -113.15 M-97.75 -38.8 L-97.5 -44.35 Q-92.5 -45.8 -87.55 -44.0 -87.4 -28.55 -86.65 -14.25 -91.8 -13.6 -97.55 -15.7 -98.2 -25.9 -97.75 -38.8 M-27.25 40.45 Q-17.15 36.6 -8.3 30.75 -2.7 27.05 2.45 22.55 24.0 28.25 42.55 28.25 59.95 28.25 74.7 23.35 46.25 39.25 8.85 46.85 L-4.35 49.25 -6.45 65.3 -11.9 65.3 -13.05 61.35 -15.75 52.4 -20.35 63.7 -22.8 58.55 Q-26.35 50.3 -27.25 40.45 M87.55 -113.3 Q90.2 -111.0 92.25 -108.5 90.2 -111.0 87.55 -113.3 M123.85 -104.55 L126.5 -95.25 Q128.75 -98.9 126.5 -112.1 121.3 -122.3 118.1 -121.6 L123.85 -104.55 M39.5 -103.15 L38.7 -102.35 39.5 -103.15 M155.05 -76.6 L151.85 -70.9 Q149.05 -65.5 147.6 -60.4 L147.15 -58.4 Q143.1 -41.15 153.8 -26.55 141.5 -7.45 124.85 -22.75 120.5 -36.25 119.85 -49.95 133.75 -94.85 155.05 -76.6 M97.95 19.5 L105.5 24.8 106.05 23.1 Q112.1 5.05 115.75 -12.0 L116.25 -14.4 111.6 -9.2 90.45 14.2 97.95 19.5 M112.25 -55.95 L116.2 -40.95 112.25 -55.95 M64.1 54.55 Q71.5 90.65 52.15 114.15 20.55 137.1 -32.35 92.35 L-32.7 92.0 -35.5 78.3 -32.3 71.7 -31.1 69.15 -16.95 79.8 -16.95 95.15 Q4.6 101.3 26.65 96.65 L26.65 101.3 45.05 94.15 53.45 107.55 Q55.0 100.2 55.0 92.65 54.9 78.05 49.1 62.95 L55.05 58.55 60.35 64.8 60.35 56.4 64.1 54.55 M-41.6 -61.9 L-44.45 -62.4 -41.6 -61.9 M-59.85 49.25 L-59.3 37.7 Q-65.4 34.5 -71.35 30.65 L-76.9 26.8 -75.65 32.35 Q-73.85 40.3 -71.35 46.15 -67.9 54.4 -63.3 58.55 L-60.35 60.8 -59.85 49.25 M-32.85 87.3 L-32.35 92.35 -32.85 87.3" fill="url(#gradient2)" fill-rule="evenodd" stroke="none"/>
    <path d="M108.4 133.3 L106.05 133.4 Q97.65 133.55 88.0 131.05 32.05 165.45 -19.3 126.35 -27.3 126.9 -36.05 123.85 -47.45 119.9 -60.05 109.9 -67.55 95.8 -72.95 77.25 -75.6 68.5 -77.7 58.9 L-77.7 58.8 Q-82.15 38.5 -84.6 14.05 -86.9 12.45 -89.65 9.5 L-95.5 2.25 -96.05 -0.95 Q-97.15 -7.45 -97.55 -15.7 -91.8 -13.6 -86.65 -14.25 L-85.55 -14.4 Q-76.65 87.3 -37.25 108.05 L-37.25 81.75 -35.5 78.3 -32.7 92.0 -32.35 92.35 Q20.55 137.1 52.15 114.15 71.5 90.65 64.1 54.55 L75.6 48.95 86.6 71.4 88.9 62.75 95.1 76.3 Q100.7 64.2 106.05 54.55 111.85 44.1 117.45 36.6 126.85 23.85 126.45 6.6 L122.75 -12.0 Q119.7 -26.8 116.2 -40.95 L119.8 -55.8 Q119.7 -52.85 119.85 -49.95 120.5 -36.25 124.85 -22.75 141.5 -7.45 153.8 -26.55 L155.4 -24.35 Q160.35 -18.35 167.9 -12.75 167.5 -3.45 164.0 1.4 L165.4 12.75 Q161.65 11.7 157.0 11.15 143.3 18.4 148.0 34.25 L152.05 34.8 Q150.6 37.7 149.45 40.7 144.1 38.75 138.65 37.95 117.3 48.2 106.05 67.55 100.45 77.15 97.4 89.05 97.4 97.85 98.7 105.8 L99.5 110.2 Q85.8 104.75 70.2 112.15 88.35 128.2 103.8 124.25 L106.05 129.15 106.45 129.95 108.4 133.3 M92.25 -108.5 L94.2 -117.1 106.15 -77.45 107.75 -71.75 107.75 -71.6 112.25 -55.95 Q111.85 -42.0 109.35 -30.0 108.0 -23.5 106.05 -17.65 97.9 7.0 78.95 21.1 L78.8 20.95 74.7 23.35 Q59.95 28.25 42.55 28.25 24.0 28.25 2.45 22.55 -2.7 27.05 -8.3 30.75 -17.15 36.6 -27.25 40.45 L-27.4 38.25 -48.25 38.25 Q-58.05 32.6 -64.75 18.4 -62.2 16.15 -59.55 15.55 L-56.25 21.25 Q-42.15 24.95 -26.75 21.25 L-26.75 28.15 Q-22.2 23.65 -21.4 15.35 -21.15 11.55 -21.55 7.05 -17.85 11.5 -14.3 16.6 -10.0 8.9 -8.4 2.1 -6.6 -5.45 -8.0 -12.0 -9.2 -17.85 -12.85 -22.95 L-13.2 -23.65 Q-18.65 -36.3 -25.0 -46.5 L-25.85 -48.25 Q-29.55 -55.65 -35.0 -59.2 L-37.35 -60.45 -35.0 -59.2 Q-42.15 -54.35 -44.7 -43.6 L-43.05 -11.4 -44.15 -12.0 -48.95 -14.35 -50.1 -14.75 Q-52.35 -25.4 -52.15 -38.25 -46.5 -52.85 -37.35 -60.45 -39.35 -61.4 -41.6 -61.9 -38.7 -62.15 -35.65 -61.85 -27.7 -60.95 -19.05 -56.05 -10.65 -45.6 -3.75 -15.45 -4.6 -39.55 3.65 -65.1 17.85 -87.5 38.4 -102.1 24.4 -89.2 15.85 -71.6 10.3 -60.4 7.0 -47.3 L1.95 -26.95 Q-0.75 -21.25 0.6 -12.0 L1.1 -9.2 Q2.2 -3.45 4.6 3.55 L12.4 4.5 Q16.95 9.15 21.55 4.5 23.2 0.4 25.0 -3.35 29.05 19.65 41.4 23.75 55.4 4.0 72.6 -16.05 77.9 -18.7 83.6 -17.95 90.45 -15.95 95.0 -8.55 94.85 -15.3 88.9 -22.1 95.3 -26.6 102.45 -26.55 92.25 -30.85 82.1 -26.85 L92.6 -38.25 95.3 -41.15 95.7 -41.55 101.1 -47.25 Q84.5 -65.45 58.5 -56.55 68.35 -66.55 79.05 -71.6 85.2 -74.6 91.7 -75.85 97.65 -78.2 98.7 -82.3 101.4 -97.35 92.25 -108.5 M118.1 -121.6 Q121.3 -122.3 126.5 -112.1 128.75 -98.9 126.5 -95.25 L123.85 -104.55 118.1 -121.6 M132.95 -3.75 Q127.95 -13.2 124.85 -22.75 127.95 -13.2 132.95 -3.75 M176.75 46.7 L179.55 49.0 Q178.35 50.8 177.95 52.85 177.2 55.9 178.25 59.7 L173.9 55.65 171.85 53.9 Q174.1 50.15 176.75 46.7 M130.7 31.7 L126.45 6.6 130.7 31.7 M164.0 1.4 L161.65 3.8 Q154.45 9.5 138.85 3.15 154.45 9.5 161.65 3.8 L164.0 1.4 M-19.3 126.35 L-23.95 122.65 Q-29.4 112.05 -31.65 97.7 L-32.35 92.35 -31.65 97.7 Q-29.4 112.05 -23.95 122.65 L-19.3 126.35 M-84.6 14.05 Q-85.95 0.5 -86.65 -14.25 -85.95 0.5 -84.6 14.05 M-66.3 14.85 Q-71.35 2.75 -74.45 -14.65 L-67.75 -18.7 Q-61.4 -18.35 -55.4 -16.6 -63.15 -14.85 -67.8 -8.55 -66.55 0.1 -62.85 8.75 -65.15 11.4 -66.3 14.85" fill="url(#gradient3)" fill-rule="evenodd" stroke="none"/>
    <path d="M-47.6 -122.85 Q-43.5 -123.4 -40.0 -121.65 L-44.05 -106.2 Q-45.5 -109.95 -46.3 -113.7 -47.35 -118.3 -47.6 -122.85 M58.5 -56.55 Q84.5 -65.45 101.1 -47.25 L95.7 -41.55 95.3 -41.15 Q67.35 -32.4 42.3 2.5 35.4 -2.4 32.5 -19.1 39.65 -32.85 47.35 -43.4 50.65 -47.85 54.1 -51.7 56.25 -54.3 58.5 -56.55 M-21.55 7.05 Q-21.15 11.55 -21.4 15.35 L-49.6 14.6 Q-57.0 2.4 -49.6 -12.9 L-48.95 -14.35 -44.15 -12.0 -43.05 -11.4 Q-31.7 -5.05 -21.55 7.05 M-48.25 38.25 L-27.4 38.25 -27.25 40.45 Q-26.35 50.3 -22.8 58.55 L-20.35 63.7 -13.05 61.35 -11.9 65.3 -6.45 65.3 6.3 61.75 Q5.1 54.65 8.85 46.85 46.25 39.25 74.7 23.35 L76.85 22.55 78.95 21.1 92.6 32.35 84.5 45.0 77.6 37.0 62.1 44.45 58.25 50.0 58.25 44.2 49.1 55.2 49.1 62.95 Q54.9 78.05 55.0 92.65 L47.75 88.3 30.7 96.1 30.7 91.1 -11.6 88.65 -11.6 73.7 -24.0 65.15 -31.1 69.15 -32.3 71.7 Q-43.35 65.8 -49.05 57.3 -50.75 48.95 -51.85 38.25 L-48.25 38.25 M97.95 19.5 L90.45 14.2 111.6 -9.2 Q109.75 -0.7 106.05 6.85 102.8 13.55 97.95 19.5 M-75.65 32.35 L-76.9 26.8 -71.35 30.65 Q-65.4 34.5 -59.3 37.7 L-59.85 49.25 Q-69.0 43.8 -75.65 32.35" fill="#ffd04b" fill-rule="evenodd" stroke="none"/>
    <path d="M47.35 -43.4 L42.55 -86.6 54.1 -51.7 Q50.65 -47.85 47.35 -43.4" fill="#d46b0e" fill-rule="evenodd" stroke="none"/>
    <path d="M41.4 23.75 Q29.05 19.65 25.0 -3.35 26.9 -7.85 28.9 -12.0 L32.5 -19.1 Q35.4 -2.4 42.3 2.5 L41.4 23.75 M-56.25 21.25 L-59.55 15.55 Q-62.2 16.15 -64.75 18.4 L-67.55 21.25 Q-67.35 17.75 -66.3 14.85 -65.15 11.4 -62.85 8.75 -66.55 0.1 -67.8 -8.55 -63.15 -14.85 -55.4 -16.6 L-50.1 -14.75 -48.95 -14.35 -49.6 -12.9 Q-57.0 2.4 -49.6 14.6 L-56.25 21.25 M8.85 46.85 Q5.1 54.65 6.3 61.75 L-6.45 65.3 -4.35 49.25 8.85 46.85 M86.6 71.4 L75.6 48.95 77.6 37.0 84.5 45.0 86.6 71.4 M30.7 91.1 L30.7 96.1 47.75 88.3 45.05 94.15 26.65 101.3 26.65 96.65 30.7 91.1 M-11.6 88.65 L-16.95 95.15 -16.95 79.8 -11.6 73.7 -11.6 88.65 M-37.25 81.75 L-38.15 83.5 Q-44.9 76.85 -48.75 58.55 L-49.05 57.3 Q-43.35 65.8 -32.3 71.7 L-35.5 78.3 -37.25 81.75" fill="#c99542" fill-rule="evenodd" stroke="none"/>
    <path d="M158.9 -82.35 Q177.15 -93.2 185.0 -73.15 L188.05 -65.5 202.25 -57.65 Q233.5 -56.05 259.9 -62.65 266.55 -72.0 271.3 -72.65 276.35 -68.0 280.05 -63.5 L271.15 -66.55 265.2 -58.7 Q235.2 -52.3 201.75 -51.65 L190.55 -56.85 Q189.65 -60.95 188.05 -65.5 173.45 -91.1 156.3 -75.45 154.05 -73.55 151.85 -70.9 L155.05 -76.6 158.9 -82.35 M282.9 -59.8 Q292.0 -47.15 290.3 -35.85 287.9 -21.65 263.9 -1.6 290.95 -27.5 282.9 -59.8 M228.05 54.4 Q223.0 47.1 220.35 40.6 213.55 24.05 221.55 12.5 220.2 39.3 231.1 58.55 L228.05 54.4 M195.2 159.3 Q203.9 156.1 214.25 165.3 L214.9 167.3 Q203.35 159.3 195.2 162.35 190.05 164.25 184.2 170.45 184.2 168.9 184.45 167.4 190.05 161.2 195.2 159.3 M92.2 174.6 L91.95 174.15 Q92.2 161.15 105.85 156.65 L106.05 156.65 Q113.3 155.7 118.6 158.4 123.3 160.8 127.7 169.25 123.0 163.7 118.6 161.45 113.3 158.75 106.05 159.7 L105.85 159.7 Q93.65 163.7 92.2 174.6 M-138.25 137.9 Q-134.7 117.9 -117.6 125.95 -131.25 127.95 -138.25 137.9 M-95.25 111.65 Q-102.95 86.7 -90.85 70.5 -85.95 63.95 -77.7 58.8 L-77.7 58.9 Q-94.6 81.2 -95.25 111.65 M-170.15 -26.4 L-139.45 -9.05 Q-134.15 -4.9 -129.5 4.2 -127.5 8.05 -125.65 12.75 -133.2 -0.05 -170.15 -26.4 M188.2 48.15 Q185.45 40.6 187.95 30.15 193.1 18.2 203.9 13.4 193.0 27.85 188.2 48.15 M182.35 181.75 Q164.3 150.0 139.25 171.75 L139.6 168.7 Q168.8 147.05 182.25 178.7 L182.35 181.75 M97.4 89.05 Q100.45 77.15 106.05 67.55 117.3 48.2 138.65 37.95 144.1 38.75 149.45 40.7 123.55 45.65 106.05 73.1 101.4 80.3 97.4 89.05 M-128.15 141.15 Q-123.8 134.45 -114.65 135.0 -113.3 135.25 -112.1 135.95 L-111.05 136.5 -108.5 138.95 Q-110.7 137.95 -112.1 137.5 L-113.2 137.15 Q-122.35 136.6 -126.7 143.35 -128.45 145.9 -129.35 149.65 L-130.35 151.05 -130.95 147.9 Q-129.95 143.9 -128.15 141.15" fill="#97a13e" fill-rule="evenodd" stroke="none"/>
    <path d="M280.05 -63.5 L282.9 -59.8 Q290.95 -27.5 263.9 -1.6 L263.85 -1.5 Q249.15 -2.8 236.9 13.15 234.3 31.2 241.85 58.3 232.0 62.55 222.7 68.6 221.9 65.85 222.7 61.75 223.25 55.9 228.05 54.4 L231.1 58.55 Q220.2 39.3 221.55 12.5 L222.3 11.4 221.55 12.5 Q206.4 20.3 205.9 52.8 L206.0 61.85 177.95 52.85 Q178.35 50.8 179.55 49.0 183.8 47.95 188.2 48.15 193.0 27.85 203.9 13.4 189.9 11.55 181.45 19.4 174.9 25.3 177.85 35.55 L158.6 36.5 Q155.3 35.4 152.05 34.8 L148.0 34.25 Q143.3 18.4 157.0 11.15 161.65 11.7 165.4 12.75 L169.2 13.95 Q185.25 1.15 207.3 2.25 219.0 -17.8 231.45 -33.1 L237.85 -40.75 Q246.9 -45.4 261.05 -48.25 L241.6 -49.95 Q218.1 -34.05 184.65 -33.25 161.75 -21.8 147.6 -60.4 149.05 -65.5 151.85 -70.9 154.05 -73.55 156.3 -75.45 173.45 -91.1 188.05 -65.5 189.65 -60.95 190.55 -56.85 L201.75 -51.65 Q235.2 -52.3 265.2 -58.7 L271.15 -66.55 280.05 -63.5 M264.85 -49.05 L261.05 -48.25 264.85 -49.05 M190.55 -56.85 Q192.75 -46.85 190.45 -40.4 175.85 -34.3 170.55 -43.2 165.2 -52.2 167.5 -59.65 169.75 -67.1 177.75 -61.75 169.75 -67.1 167.5 -59.65 165.2 -52.2 170.55 -43.2 175.85 -34.3 190.45 -40.4 192.75 -46.85 190.55 -56.85 M174.65 16.6 Q172.25 15.1 169.2 13.95 172.25 15.1 174.65 16.6 M204.95 52.4 L205.9 52.8 204.95 52.4 M196.7 50.05 Q194.3 48.8 188.2 48.15 194.3 48.8 196.7 50.05" fill="url(#gradient4)" fill-rule="evenodd" stroke="none"/>
    <path d="M263.85 -1.5 L247.65 10.85 Q246.35 28.5 251.0 46.85 255.65 44.35 261.9 46.6 268.55 54.25 261.9 61.75 L257.35 62.5 Q243.3 65.05 233.1 69.85 230.05 71.3 227.1 73.0 223.75 71.8 222.7 68.6 232.0 62.55 241.85 58.3 234.3 31.2 236.9 13.15 249.15 -2.8 263.85 -1.5 M220.35 40.6 Q211.95 45.0 212.0 55.45 217.05 57.85 218.35 60.15 221.5 67.2 218.35 74.2 L211.85 71.9 Q196.95 66.6 182.85 63.95 L182.35 63.85 182.85 64.4 Q182.65 67.85 182.75 71.25 L182.75 71.45 Q183.0 81.35 185.25 90.5 173.85 77.4 163.75 71.95 173.85 77.4 185.25 90.5 187.95 101.85 193.75 112.15 192.75 117.45 192.35 122.9 191.65 132.35 192.55 142.2 193.25 150.65 195.2 159.3 190.05 161.2 184.45 167.4 184.2 168.9 184.2 170.45 184.05 176.4 187.3 182.25 L190.55 189.95 192.85 195.45 184.2 194.1 Q183.25 195.45 181.8 196.45 176.95 199.15 172.25 200.7 L175.7 191.45 175.85 191.05 Q182.0 191.0 182.35 181.75 L182.25 178.7 Q168.8 147.05 139.6 168.7 L139.25 171.75 Q138.4 182.3 144.0 184.8 L144.0 184.95 Q144.15 191.7 144.9 198.5 L141.3 196.45 Q138.95 194.85 137.65 191.6 L131.1 190.2 Q130.05 194.5 124.5 195.4 L118.2 195.8 116.9 195.7 117.95 194.6 Q121.25 191.05 124.75 188.0 122.1 180.45 117.6 176.3 124.5 176.05 127.95 169.8 L129.35 173.1 127.95 169.8 128.05 169.65 127.7 169.25 Q123.3 160.8 118.6 158.4 119.2 158.65 122.75 157.55 126.45 156.35 129.0 149.25 122.5 147.1 116.1 143.9 111.7 138.95 108.4 133.3 L106.45 129.95 106.05 129.15 103.8 124.25 106.05 123.6 Q109.9 122.25 113.6 119.6 109.9 116.05 106.05 113.65 102.85 111.5 99.5 110.2 L98.7 105.8 106.05 84.25 Q111.85 86.4 122.2 83.5 131.5 80.95 144.5 74.45 145.7 92.15 154.45 111.75 L154.85 112.6 Q158.75 122.1 150.6 134.45 L149.95 135.3 Q144.55 137.95 139.25 137.55 131.5 136.85 124.05 129.6 L123.3 128.9 Q113.45 112.45 119.05 86.25 L122.2 83.5 119.05 86.25 Q113.45 112.45 123.3 128.9 L124.05 129.6 Q131.5 136.85 139.25 137.55 144.55 137.95 149.95 135.3 L150.6 134.45 Q158.75 122.1 154.85 112.6 L157.9 118.95 157.9 116.05 Q157.55 90.95 163.75 71.95 165.75 65.55 168.65 59.85 L173.9 55.65 178.25 59.7 Q177.2 55.9 177.95 52.85 L206.0 61.85 205.9 52.8 212.0 55.45 205.9 52.8 Q206.4 20.3 221.55 12.5 213.55 24.05 220.35 40.6 M214.25 165.3 L216.05 168.05 216.25 168.45 Q221.65 177.85 220.7 186.25 217.85 189.8 214.05 192.0 213.0 185.2 210.9 178.0 217.7 176.85 214.9 167.3 L214.25 165.3 M-36.05 123.85 Q-38.2 133.65 -43.2 143.75 L-43.2 162.5 Q-43.35 169.25 -50.9 171.15 L-96.55 171.15 Q-96.75 174.05 -97.55 177.1 -102.55 183.3 -112.1 182.95 L-116.4 182.5 -121.95 172.75 Q-117.55 171.55 -112.75 171.4 -114.25 164.85 -116.8 159.4 L-103.35 152.9 Q-103.5 149.9 -105.25 145.5 -106.45 142.6 -108.4 139.1 L-108.4 139.0 -108.5 138.95 -111.05 136.5 -112.15 134.05 -112.15 129.0 -112.1 129.05 -110.95 129.8 -105.35 129.15 -96.75 146.15 -85.8 137.15 -95.5 126.25 Q-92.5 124.95 -89.85 123.3 L-92.5 119.35 -94.75 113.2 Q-67.9 141.95 -72.95 77.25 -67.55 95.8 -60.05 109.9 -47.45 119.9 -36.05 123.85 M-89.65 9.5 L-98.85 10.9 -103.65 16.3 -107.6 -4.5 Q-106.3 -5.9 -105.25 -7.6 -109.2 -30.3 -97.75 -38.8 -98.2 -25.9 -97.55 -15.7 -97.15 -7.45 -96.05 -0.95 L-95.5 2.25 -89.65 9.5 M-116.6 30.55 L-116.65 30.55 -111.55 43.25 -112.1 43.3 Q-115.2 43.3 -125.65 34.9 -135.2 33.45 -149.85 22.25 -154.9 18.4 -165.9 1.6 -174.55 -11.55 -185.95 -20.3 -191.8 -21.55 -196.15 -27.0 -207.95 -24.45 -216.1 -35.45 L-219.25 -35.9 -219.3 -35.9 Q-228.85 -37.7 -236.5 -41.05 L-239.3 -42.4 Q-242.1 -43.85 -244.65 -45.6 -246.6 -43.85 -249.15 -42.5 -255.8 -42.65 -258.4 -46.05 -246.35 -46.75 -249.5 -62.05 L-246.75 -64.95 Q-245.55 -56.6 -236.15 -56.85 -228.3 -59.0 -222.85 -67.05 -223.0 -72.75 -228.15 -76.0 L-227.0 -79.3 -227.5 -79.7 -229.85 -81.55 -231.5 -83.1 -232.15 -83.65 -230.85 -84.05 -229.85 -84.35 -227.0 -85.0 Q-222.7 -83.4 -221.0 -79.7 -219.8 -77.05 -219.95 -73.3 -216.5 -71.85 -213.55 -68.9 L-211.55 -72.1 Q-214.2 -76.25 -214.25 -79.7 -214.35 -83.95 -210.5 -87.1 L-208.25 -87.9 -208.65 -79.7 -208.75 -78.35 -205.45 -76.35 Q-208.9 -73.7 -209.15 -68.8 L-206.95 -66.4 Q-191.65 -57.35 -182.6 -67.35 L-181.4 -68.8 Q-175.35 -59.1 -174.55 -56.7 -172.95 -52.05 -175.3 -44.2 -176.9 -38.9 -176.35 -29.9 L-174.75 -29.0 Q-165.8 6.75 -116.6 30.55 M-190.95 -87.35 L-189.8 -87.0 Q-182.6 -84.45 -179.95 -79.7 -178.5 -76.9 -178.6 -73.4 -179.85 -70.8 -181.4 -68.8 L-182.6 -67.35 Q-182.45 -76.75 -189.8 -78.35 L-189.95 -79.7 -190.75 -85.95 -190.95 -87.35 M153.8 -26.55 Q143.1 -41.15 147.15 -58.4 L147.6 -60.4 Q161.75 -21.8 184.65 -33.25 218.1 -34.05 241.6 -49.95 L261.05 -48.25 Q246.9 -45.4 237.85 -40.75 L231.45 -33.1 189.65 -25.9 Q181.3 -5.9 167.9 -12.75 160.35 -18.35 155.4 -24.35 L153.8 -26.55 M253.5 55.75 Q252.05 51.25 251.0 46.85 252.05 51.25 253.5 55.75 M188.2 48.15 Q183.8 47.95 179.55 49.0 L176.75 46.7 Q167.85 39.55 158.6 36.5 L177.85 35.55 Q174.9 25.3 181.45 19.4 189.9 11.55 203.9 13.4 193.1 18.2 187.95 30.15 185.45 40.6 188.2 48.15 M178.25 59.7 L179.55 63.35 182.35 63.85 179.55 63.35 178.25 59.7 M186.6 186.35 Q186.35 191.05 184.2 194.1 186.35 191.05 186.6 186.35 M140.4 109.1 Q145.85 102.75 154.2 111.25 L154.45 111.75 154.2 111.25 Q145.85 102.75 140.4 109.1 M137.65 191.6 Q136.7 189.3 136.3 186.15 136.7 189.3 137.65 191.6 M131.1 190.2 Q131.8 187.2 130.35 182.65 131.8 187.2 131.1 190.2 M139.6 168.7 L138.15 169.9 139.6 168.7 M170.85 152.25 Q149.55 156.0 129.0 149.25 149.55 156.0 170.85 152.25 M-211.55 -72.1 L-209.15 -68.8 -211.55 -72.1 M-219.95 -73.3 L-220.05 -72.0 Q-221.4 -69.3 -222.85 -67.05 -221.4 -69.3 -220.05 -72.0 L-219.95 -73.3 M-240.4 -51.65 Q-241.85 -48.2 -244.65 -45.6 -241.85 -48.2 -240.4 -51.65 M-194.05 -43.15 Q-210.25 -48.45 -206.35 -58.7 -210.25 -48.45 -194.05 -43.15 M-211.2 -45.2 Q-229.9 -44.4 -236.15 -56.85 -229.9 -44.4 -211.2 -45.2 M-100.7 -12.65 Q-101.1 -4.9 -100.05 -1.25 -99.15 2.25 -96.05 -0.95 -99.15 2.25 -100.05 -1.25 -101.1 -4.9 -100.7 -12.65 M-108.5 138.95 L-110.25 137.1 -111.05 136.5 -110.25 137.1 -108.5 138.95 M-105.25 145.5 Q-106.0 142.95 -107.05 141.1 L-108.4 139.1 -107.05 141.1 Q-106.0 142.95 -105.25 145.5 M-96.55 171.15 Q-96.2 166.35 -97.55 162.1 -96.2 166.35 -96.55 171.15 M-89.85 123.3 Q-76.8 140.75 -58.75 124.65 -76.8 140.75 -89.85 123.3" fill="#525319" fill-rule="evenodd" stroke="none"/>
    <path d="M95.3 -41.15 L92.6 -38.25 82.1 -26.85 Q92.25 -30.85 102.45 -26.55 95.3 -26.6 88.9 -22.1 94.85 -15.3 95.0 -8.55 90.45 -15.95 83.6 -17.95 77.9 -18.7 72.6 -16.05 55.4 4.0 41.4 23.75 L42.3 2.5 Q67.35 -32.4 95.3 -41.15 M-21.4 15.35 Q-22.2 23.65 -26.75 28.15 L-26.75 21.25 Q-42.15 24.95 -56.25 21.25 L-49.6 14.6 -21.4 15.35 M111.6 -9.2 L116.25 -14.4 115.75 -12.0 Q112.1 5.05 106.05 23.1 L105.5 24.8 97.95 19.5 Q102.8 13.55 106.05 6.85 109.75 -0.7 111.6 -9.2 M84.5 45.0 L92.6 32.35 96.05 35.15 88.9 62.75 86.6 71.4 84.5 45.0 M-13.05 61.35 L-20.35 63.7 -15.75 52.4 -13.05 61.35 M75.6 48.95 L64.1 54.55 60.35 56.4 60.35 64.8 55.05 58.55 49.1 62.95 49.1 55.2 58.25 44.2 58.25 50.0 62.1 44.45 77.6 37.0 75.6 48.95 M47.75 88.3 L55.0 92.65 Q55.0 100.2 53.45 107.55 L45.05 94.15 47.75 88.3 M30.7 91.1 L26.65 96.65 Q4.6 101.3 -16.95 95.15 L-11.6 88.65 30.7 91.1 M-59.85 49.25 L-60.35 60.8 -63.3 58.55 Q-67.9 54.4 -71.35 46.15 -73.85 40.3 -75.65 32.35 -69.0 43.8 -59.85 49.25 M-31.1 69.15 L-24.0 65.15 -11.6 73.7 -16.95 79.8 -31.1 69.15" fill="#ffb338" fill-rule="evenodd" stroke="none"/>
    <path d="M-204.7 -115.65 Q-200.85 -135.15 -193.35 -152.45 -194.6 -118.7 -190.95 -87.35 L-190.75 -85.95 Q-196.95 -80.9 -203.85 -86.45 -205.15 -99.85 -204.7 -115.65" fill="url(#gradient5)" fill-rule="evenodd" stroke="none"/>
    <path d="M257.35 62.5 Q259.8 86.25 270.75 109.75 261.75 100.45 253.4 76.85 L239.2 81.8 Q236.0 76.15 233.1 69.85 243.3 65.05 257.35 62.5 M211.85 71.9 Q205.1 98.4 211.85 134.75 207.2 130.45 203.3 125.75 199.9 101.95 201.05 80.3 L182.75 71.45 182.75 71.25 Q182.65 67.85 182.85 64.4 L182.85 63.95 Q196.95 66.6 211.85 71.9 M214.05 192.0 Q217.3 214.65 208.1 232.2 L206.1 227.4 Q208.9 212.0 207.45 188.0 196.95 185.75 190.55 189.95 L187.3 182.25 Q197.5 171.4 210.9 178.0 213.0 185.2 214.05 192.0 M172.25 200.7 Q164.55 219.45 152.5 235.0 L150.25 227.25 Q163.75 210.3 168.45 188.1 157.3 181.35 144.0 184.95 L144.0 184.8 143.95 178.7 Q164.55 170.15 177.45 185.85 L175.85 191.05 175.7 191.45 172.25 200.7 M-121.95 172.75 Q-132.15 175.5 -140.65 183.35 L-140.65 180.95 Q-132.05 166.7 -117.85 166.35 L-120.85 152.55 Q-118.6 155.7 -116.8 159.4 -114.25 164.85 -112.75 171.4 -117.55 171.55 -121.95 172.75 M-136.55 162.05 L-152.25 175.65 Q-143.7 156.55 -133.65 145.75 L-133.8 136.3 -132.95 135.5 Q-129.9 137.5 -128.15 141.15 -129.95 143.9 -130.95 147.9 L-130.35 151.05 Q-134.15 156.55 -136.55 162.05 M-256.7 -54.7 Q-284.55 -82.7 -290.55 -124.85 -273.45 -92.6 -246.45 -68.5 L-246.75 -64.95 -249.5 -62.05 -256.7 -54.7 M-246.2 -70.0 Q-253.95 -81.3 -259.75 -93.5 -241.55 -72.75 -231.5 -83.1 L-229.85 -81.55 -227.5 -79.7 -227.0 -79.3 -228.15 -76.0 Q-233.05 -64.45 -242.75 -65.2 L-246.2 -70.0 M-208.25 -87.9 Q-207.35 -102.35 -204.7 -115.65 -205.15 -99.85 -203.85 -86.45 -196.95 -80.9 -190.75 -85.95 L-189.95 -79.7 -189.8 -78.35 Q-197.25 -72.4 -205.45 -76.35 L-208.75 -78.35 -208.65 -79.7 -208.25 -87.9 M158.6 36.5 Q167.85 39.55 176.75 46.7 174.1 50.15 171.85 53.9 170.05 56.7 168.65 59.85 165.75 65.55 163.75 71.95 157.55 90.95 157.9 116.05 151.7 90.7 157.5 67.4 159.9 57.45 164.45 47.95 L149.15 41.55 149.45 40.7 Q150.6 37.7 152.05 34.8 155.3 35.4 158.6 36.5 M96.95 175.75 L99.1 171.65 106.05 171.35 Q112.9 171.8 117.6 176.3 122.1 180.45 124.75 188.0 121.25 191.05 117.95 194.6 115.35 184.7 106.05 179.45 102.15 177.2 96.95 175.75" fill="#28231b" fill-rule="evenodd" stroke="none"/>
    <path d="M-258.4 -46.05 Q-260.0 -48.05 -260.05 -51.25 L-256.7 -54.7 -249.5 -62.05 Q-246.35 -46.75 -258.4 -46.05 M-246.45 -68.5 L-246.2 -70.0 -242.75 -65.2 Q-233.05 -64.45 -228.15 -76.0 -223.0 -72.75 -222.85 -67.05 -228.3 -59.0 -236.15 -56.85 -245.55 -56.6 -246.75 -64.95 L-246.45 -68.5 M-189.8 -78.35 Q-182.45 -76.75 -182.6 -67.35 -191.65 -57.35 -206.95 -66.4 L-209.15 -68.8 Q-208.9 -73.7 -205.45 -76.35 -197.25 -72.4 -189.8 -78.35" fill="url(#gradient6)" fill-rule="evenodd" stroke="none"/>
    <path d="M-259.75 -93.5 Q-271.3 -117.8 -274.8 -145.4 -258.4 -106.8 -232.15 -83.65 L-231.5 -83.1 Q-241.55 -72.75 -259.75 -93.5" fill="url(#gradient7)" fill-rule="evenodd" stroke="none"/>
    <path d="M-103.65 16.3 L-116.6 30.55 Q-165.8 6.75 -174.75 -29.0 L-170.15 -26.4 Q-133.2 -0.05 -125.65 12.75 -127.5 8.05 -129.5 4.2 L-124.7 3.7 Q-117.2 2.5 -112.1 -0.8 -109.5 -2.4 -107.6 -4.5 L-103.65 16.3" fill="url(#gradient8)" fill-rule="evenodd" stroke="none"/>
    <path d="M-35.0 -59.2 Q-29.55 -55.65 -25.85 -48.25 L-25.0 -46.5 Q-18.65 -36.3 -13.2 -23.65 L-12.85 -22.95 Q-9.2 -17.85 -8.0 -12.0 -6.6 -5.45 -8.4 2.1 -10.0 8.9 -14.3 16.6 -17.85 11.5 -21.55 7.05 -31.7 -5.05 -43.05 -11.4 L-44.7 -43.6 Q-42.15 -54.35 -35.0 -59.2" fill="#ff8f09" fill-rule="evenodd" stroke="none"/>
    <path d="M-137.6 139.65 L-138.25 137.9 Q-131.25 127.95 -117.6 125.95 -115.05 127.15 -112.15 129.0 L-112.15 134.05 -111.05 136.5 -112.1 135.95 Q-113.3 135.25 -114.65 135.0 -123.8 134.45 -128.15 141.15 -129.9 137.5 -132.95 135.5 L-133.8 136.3 -137.6 139.65 M-105.35 129.15 Q-100.05 128.2 -95.5 126.25 L-85.8 137.15 -96.75 146.15 -105.35 129.15 M-94.75 113.2 L-95.25 111.65 Q-94.6 81.2 -77.7 58.9 -75.6 68.5 -72.95 77.25 -67.9 141.95 -94.75 113.2 M-86.35 90.5 Q-81.15 89.7 -77.2 97.15 -74.0 102.75 -77.2 111.65 -86.25 115.85 -95.25 111.65 -86.25 115.85 -77.2 111.65 -74.0 102.75 -77.2 97.15 -81.15 89.7 -86.35 90.5 M-129.35 149.65 Q-128.45 145.9 -126.7 143.35 -122.35 136.6 -113.2 137.15 L-112.1 137.5 Q-110.7 137.95 -108.5 138.95 L-108.4 139.0 -108.4 139.1 Q-106.45 142.6 -105.25 145.5 -103.5 149.9 -103.35 152.9 L-116.8 159.4 Q-118.6 155.7 -120.85 152.55 -123.4 148.85 -126.5 145.9 L-129.35 149.65" fill="url(#gradient9)" fill-rule="evenodd" stroke="none"/>
    <path d="M-90.85 70.5 Q-102.05 77.75 -112.1 76.55 -123.95 75.0 -134.2 61.7 -123.1 55.5 -112.1 57.85 -101.35 60.1 -90.85 70.5 M99.5 110.2 Q102.85 111.5 106.05 113.65 109.9 116.05 113.6 119.6 109.9 122.25 106.05 123.6 L103.8 124.25 Q88.35 128.2 70.2 112.15 85.8 104.75 99.5 110.2" fill="#2b4634" fill-rule="evenodd" stroke="none"/>
    <path d="M-152.25 175.65 Q-153.15 154.9 -137.6 139.65 L-133.8 136.3 -133.65 145.75 Q-143.7 156.55 -152.25 175.65" fill="url(#gradient10)" fill-rule="evenodd" stroke="none"/>
    <path d="M-140.65 180.95 Q-140.65 171.5 -136.55 162.05 -134.15 156.55 -130.35 151.05 L-129.35 149.65 -126.5 145.9 Q-123.4 148.85 -120.85 152.55 L-117.85 166.35 Q-132.05 166.7 -140.65 180.95" fill="url(#gradient11)" fill-rule="evenodd" stroke="none"/>
    <path d="M173.9 55.65 L168.65 59.85 Q170.05 56.7 171.85 53.9 L173.9 55.65 M97.4 89.05 Q101.4 80.3 106.05 73.1 123.55 45.65 149.45 40.7 L149.15 41.55 Q143.6 56.25 144.35 72.45 132.55 75.0 122.2 83.5 132.55 75.0 144.35 72.45 L144.5 74.45 Q131.5 80.95 122.2 83.5 111.85 86.4 106.05 84.25 L98.7 105.8 Q97.4 97.85 97.4 89.05" fill="url(#gradient12)" fill-rule="evenodd" stroke="none"/>
    <path d="M203.3 125.75 Q197.75 119.2 193.75 112.15 187.95 101.85 185.25 90.5 183.0 81.35 182.75 71.45 L201.05 80.3 Q199.9 101.95 203.3 125.75" fill="url(#gradient13)" fill-rule="evenodd" stroke="none"/>
    <path d="M94.85 180.05 Q93.4 177.5 92.2 174.6 93.65 163.7 105.85 159.7 L106.05 159.7 Q113.3 158.75 118.6 161.45 123.0 163.7 127.7 169.25 L127.95 169.8 127.7 169.25 128.05 169.65 127.95 169.8 Q124.5 176.05 117.6 176.3 112.9 171.8 106.05 171.35 L99.1 171.65 96.95 175.75 94.85 180.05 M184.2 170.45 Q190.05 164.25 195.2 162.35 203.35 159.3 214.9 167.3 217.7 176.85 210.9 178.0 197.5 171.4 187.3 182.25 184.05 176.4 184.2 170.45 M175.85 191.05 L177.45 185.85 Q164.55 170.15 143.95 178.7 L144.0 184.8 Q138.4 182.3 139.25 171.75 164.3 150.0 182.35 181.75 182.0 191.0 175.85 191.05" fill="url(#gradient14)" fill-rule="evenodd" stroke="none"/>
    <path d="M206.1 227.4 L192.85 195.45 190.55 189.95 Q196.95 185.75 207.45 188.0 208.9 212.0 206.1 227.4" fill="url(#gradient15)" fill-rule="evenodd" stroke="none"/>
    <path d="M270.75 109.75 Q274.35 117.5 278.9 125.35 255.55 111.35 239.2 81.8 L253.4 76.85 Q261.75 100.45 270.75 109.75" fill="url(#gradient16)" fill-rule="evenodd" stroke="none"/>
    <path d="M144.35 72.45 Q143.6 56.25 149.15 41.55 L164.45 47.95 Q159.9 57.45 157.5 67.4 151.7 90.7 157.9 116.05 L157.9 118.95 154.85 112.6 154.45 111.75 Q145.7 92.15 144.5 74.45 L144.35 72.45" fill="url(#gradient17)" fill-rule="evenodd" stroke="none"/>
    <path d="M116.9 195.7 Q104.05 209.75 94.1 231.4 82.55 211.85 92.45 185.75 L94.85 180.05 96.95 175.75 Q102.15 177.2 106.05 179.45 115.35 184.7 117.95 194.6 L116.9 195.7" fill="url(#gradient18)" fill-rule="evenodd" stroke="none"/>
    <path d="M150.25 227.25 Q146.35 212.8 144.9 198.5 144.15 191.7 144.0 184.95 157.3 181.35 168.45 188.1 163.75 210.3 150.25 227.25" fill="url(#gradient19)" fill-rule="evenodd" stroke="none"/>
    <path d="M-40.0 -121.65 L-38.7 -126.45 Q-30.6 -131.3 -21.85 -135.15 -9.85 -140.5 3.25 -143.9 L10.45 -135.55 17.5 -147.0 34.6 -149.0 Q53.7 -150.3 75.05 -147.55 78.9 -147.0 82.5 -143.15 L82.5 -147.0 106.05 -146.2 Q113.2 -145.1 120.35 -142.9 127.25 -137.45 134.0 -113.15 L138.05 -96.65 140.9 -97.35 Q150.35 -98.65 158.9 -82.35 177.15 -93.2 185.0 -73.15 L188.05 -65.5 202.25 -57.65 Q233.5 -56.05 259.9 -62.65 266.55 -72.0 271.3 -72.65 276.35 -68.0 280.05 -63.5 L282.9 -59.8 Q292.0 -47.15 290.3 -35.85 287.9 -21.65 263.9 -1.6 L263.85 -1.5 247.65 10.85 Q246.35 28.5 251.0 46.85 255.65 44.35 261.9 46.6 268.55 54.25 261.9 61.75 L257.35 62.5 Q259.8 86.25 270.75 109.75 274.35 117.5 278.9 125.35 255.55 111.35 239.2 81.8 236.0 76.15 233.1 69.85 230.05 71.3 227.1 73.0 223.75 71.8 222.7 68.6 221.9 65.85 222.7 61.75 223.25 55.9 228.05 54.4 223.0 47.1 220.35 40.6 211.95 45.0 212.0 55.45 217.05 57.85 218.35 60.15 221.5 67.2 218.35 74.2 L211.85 71.9 Q205.1 98.4 211.85 134.75 207.2 130.45 203.3 125.75 197.75 119.2 193.75 112.15 192.75 117.45 192.35 122.9 191.65 132.35 192.55 142.2 193.25 150.65 195.2 159.3 203.9 156.1 214.25 165.3 L216.05 168.05 M216.25 168.45 Q221.65 177.85 220.7 186.25 217.85 189.8 214.05 192.0 217.3 214.65 208.1 232.2 L206.1 227.4 192.85 195.45 184.2 194.1 Q183.25 195.45 181.8 196.45 176.95 199.15 172.25 200.7 164.55 219.45 152.5 235.0 L150.25 227.25 Q146.35 212.8 144.9 198.5 L141.3 196.45 Q138.95 194.85 137.65 191.6 L131.1 190.2 Q130.05 194.5 124.5 195.4 L118.2 195.8 116.9 195.7 Q104.05 209.75 94.1 231.4 82.55 211.85 92.45 185.75 L94.85 180.05 Q93.4 177.5 92.2 174.6 L91.95 174.15 Q92.2 161.15 105.85 156.65 L106.05 156.65 Q113.3 155.7 118.6 158.4 119.2 158.65 122.75 157.55 126.45 156.35 129.0 149.25 122.5 147.1 116.1 143.9 111.7 138.95 108.4 133.3 L106.05 133.4 Q97.65 133.55 88.0 131.05 32.05 165.45 -19.3 126.35 -27.3 126.9 -36.05 123.85 -38.2 133.65 -43.2 143.75 L-43.2 162.5 Q-43.35 169.25 -50.9 171.15 L-96.55 171.15 Q-96.75 174.05 -97.55 177.1 -102.55 183.3 -112.1 182.95 L-116.4 182.5 -121.95 172.75 Q-132.15 175.5 -140.65 183.35 L-140.65 180.95 Q-140.65 171.5 -136.55 162.05 L-152.25 175.65 Q-153.15 154.9 -137.6 139.65 L-138.25 137.9 Q-134.7 117.9 -117.6 125.95 -115.05 127.15 -112.15 129.0 L-112.1 129.05 -110.95 129.8 -105.35 129.15 Q-100.05 128.2 -95.5 126.25 -92.5 124.95 -89.85 123.3 L-92.5 119.35 -94.75 113.2 -95.25 111.65 Q-102.95 86.7 -90.85 70.5 -102.05 77.75 -112.1 76.55 -123.95 75.0 -134.2 61.7 -123.1 55.5 -112.1 57.85 -101.35 60.1 -90.85 70.5 -85.95 63.95 -77.7 58.8 -82.15 38.5 -84.6 14.05 -86.9 12.45 -89.65 9.5 L-98.85 10.9 -103.65 16.3 -116.6 30.55 -116.65 30.55 -111.55 43.25 -112.1 43.3 Q-115.2 43.3 -125.65 34.9 -135.2 33.45 -149.85 22.25 -154.9 18.4 -165.9 1.6 -174.55 -11.55 -185.95 -20.3 -191.8 -21.55 -196.15 -27.0 -207.95 -24.45 -216.1 -35.45 L-219.25 -35.9 -219.3 -35.9 Q-228.85 -37.7 -236.5 -41.05 L-239.3 -42.4 Q-242.1 -43.85 -244.65 -45.6 -246.6 -43.85 -249.15 -42.5 -255.8 -42.65 -258.4 -46.05 -260.0 -48.05 -260.05 -51.25 L-256.7 -54.7 Q-284.55 -82.7 -290.55 -124.85 -273.45 -92.6 -246.45 -68.5 L-246.2 -70.0 Q-253.95 -81.3 -259.75 -93.5 -271.3 -117.8 -274.8 -145.4 -258.4 -106.8 -232.15 -83.65 L-230.85 -84.05 -229.85 -84.35 -227.0 -85.0 Q-222.7 -83.4 -221.0 -79.7 -219.8 -77.05 -219.95 -73.3 -216.5 -71.85 -213.55 -68.9 L-211.55 -72.1 Q-214.2 -76.25 -214.25 -79.7 -214.35 -83.95 -210.5 -87.1 L-208.25 -87.9 Q-207.35 -102.35 -204.7 -115.65 -200.85 -135.15 -193.35 -152.45 -194.6 -118.7 -190.95 -87.35 L-189.8 -87.0 Q-182.6 -84.45 -179.95 -79.7 -178.5 -76.9 -178.6 -73.4 -179.85 -70.8 -181.4 -68.8 -175.35 -59.1 -174.55 -56.7 -172.95 -52.05 -175.3 -44.2 -176.9 -38.9 -176.35 -29.9 L-174.75 -29.0 -170.15 -26.4 -139.45 -9.05 Q-134.15 -4.9 -129.5 4.2 L-124.7 3.7 Q-117.2 2.5 -112.1 -0.8 -109.5 -2.4 -107.6 -4.5 -106.3 -5.9 -105.25 -7.6 -109.2 -30.3 -97.75 -38.8 L-97.5 -44.35 -97.4 -46.1 Q-94.9 -54.6 -87.55 -56.7 L-87.4 -71.6 -86.65 -94.55 Q-86.65 -101.2 -76.9 -107.45 -67.15 -113.8 -47.6 -122.85 -43.5 -123.4 -40.0 -121.65 L-44.05 -106.2 Q-44.95 -94.3 -44.05 -84.2 M94.2 -117.1 Q91.3 -127.65 85.6 -137.85 L82.5 -143.15 M112.25 -55.95 L107.75 -71.6 107.75 -71.75 M123.85 -104.55 L118.1 -121.6 M38.7 -102.35 L39.5 -103.15 M155.05 -76.6 L158.9 -82.35 M151.85 -70.9 L155.05 -76.6 M119.85 -49.95 Q120.5 -36.25 124.85 -22.75 127.95 -13.2 132.95 -3.75 M153.8 -26.55 Q143.1 -41.15 147.15 -58.4 L147.6 -60.4 Q149.05 -65.5 151.85 -70.9 M188.05 -65.5 Q189.65 -60.95 190.55 -56.85 192.75 -46.85 190.45 -40.4 175.85 -34.3 170.55 -43.2 165.2 -52.2 167.5 -59.65 169.75 -67.1 177.75 -61.75 M138.05 -96.65 Q131.15 -93.9 123.95 -82.35 M120.35 -65.9 Q119.8 -60.85 119.8 -55.8 119.7 -52.85 119.85 -49.95 M111.6 -9.2 Q109.75 -0.7 106.05 6.85 102.8 13.55 97.95 19.5 M153.8 -26.55 L155.4 -24.35 Q160.35 -18.35 167.9 -12.75 181.3 -5.9 189.65 -25.9 L231.45 -33.1 237.85 -40.75 Q246.9 -45.4 261.05 -48.25 L264.85 -49.05 M126.45 6.6 L122.75 -12.0 Q119.7 -26.8 116.2 -40.95 L112.25 -55.95 M251.0 46.85 Q252.05 51.25 253.5 55.75 M221.55 12.5 Q213.55 24.05 220.35 40.6 M221.55 12.5 L222.3 11.4 M179.55 49.0 Q183.8 47.95 188.2 48.15 185.45 40.6 187.95 30.15 193.1 18.2 203.9 13.4 M158.6 36.5 Q167.85 39.55 176.75 46.7 L179.55 49.0 Q178.35 50.8 177.95 52.85 177.2 55.9 178.25 59.7 L173.9 55.65 171.85 53.9 Q170.05 56.7 168.65 59.85 165.75 65.55 163.75 71.95 173.85 77.4 185.25 90.5 183.0 81.35 182.75 71.45 M205.9 52.8 L204.95 52.4 M169.2 13.95 Q172.25 15.1 174.65 16.6 M167.9 -12.75 Q167.5 -3.45 164.0 1.4 L165.4 12.75 169.2 13.95 Q185.25 1.15 207.3 2.25 219.0 -17.8 231.45 -33.1 M182.85 63.95 L182.85 64.4 Q182.65 67.85 182.75 71.25 M182.35 63.85 L182.85 63.95 Q196.95 66.6 211.85 71.9 M182.85 64.4 L182.35 63.85 179.55 63.35 178.25 59.7 M231.1 58.55 L228.05 54.4 M212.0 55.45 L205.9 52.8 M171.85 53.9 Q174.1 50.15 176.75 46.7 M188.2 48.15 Q194.3 48.8 196.7 50.05 M184.45 167.4 Q190.05 161.2 195.2 159.3 M144.0 184.8 L143.95 178.7 Q164.55 170.15 177.45 185.85 L175.85 191.05 M144.0 184.8 L144.0 184.95 Q144.15 191.7 144.9 198.5 M175.7 191.45 L172.25 200.7 M182.25 178.7 Q168.8 147.05 139.6 168.7 L138.15 169.9 M190.55 189.95 L187.3 182.25 Q197.5 171.4 210.9 178.0 213.0 185.2 214.05 192.0 M192.85 195.45 L190.55 189.95 M184.2 194.1 Q186.35 191.05 186.6 186.35 M233.1 69.85 Q243.3 65.05 257.35 62.5 M185.25 90.5 Q187.95 101.85 193.75 112.15 M165.4 12.75 Q161.65 11.7 157.0 11.15 143.3 18.4 148.0 34.25 L152.05 34.8 Q155.3 35.4 158.6 36.5 M126.45 6.6 L130.7 31.7 M149.45 40.7 Q144.1 38.75 138.65 37.95 117.3 48.2 106.05 67.55 100.45 77.15 97.4 89.05 97.4 97.85 98.7 105.8 L99.5 110.2 Q85.8 104.75 70.2 112.15 88.35 128.2 103.8 124.25 L106.05 129.15 106.45 129.95 108.4 133.3 M149.45 40.7 Q150.6 37.7 152.05 34.8 M149.15 41.55 L149.45 40.7 M138.85 3.15 Q154.45 9.5 161.65 3.8 L164.0 1.4 M84.5 45.0 L92.6 32.35 M8.85 46.85 Q5.1 54.65 6.3 61.75 L-6.45 65.3 M-13.05 61.35 L-20.35 63.7 M-32.35 92.35 L-31.65 97.7 Q-29.4 112.05 -23.95 122.65 L-19.3 126.35 M122.2 83.5 Q132.55 75.0 144.35 72.45 143.6 56.25 149.15 41.55 M157.9 116.05 Q157.55 90.95 163.75 71.95 M144.5 74.45 L144.35 72.45 M122.2 83.5 L119.05 86.25 Q113.45 112.45 123.3 128.9 L124.05 129.6 Q131.5 136.85 139.25 137.55 144.55 137.95 149.95 135.3 L150.6 134.45 Q158.75 122.1 154.85 112.6 L154.45 111.75 154.2 111.25 Q145.85 102.75 140.4 109.1 M84.5 45.0 L77.6 37.0 62.1 44.45 58.25 50.0 58.25 44.2 49.1 55.2 M42.3 2.5 Q35.4 -2.4 32.5 -19.1 M30.7 91.1 L30.7 96.1 47.75 88.3 55.0 92.65 M30.7 91.1 L-11.6 88.65 -11.6 73.7 -24.0 65.15 -31.1 69.15 M154.85 112.6 L157.9 118.95 157.9 116.05 M103.8 124.25 L106.05 123.6 Q109.9 122.25 113.6 119.6 109.9 116.05 106.05 113.65 102.85 111.5 99.5 110.2 M94.85 180.05 L96.95 175.75 99.1 171.65 106.05 171.35 Q112.9 171.8 117.6 176.3 122.1 180.45 124.75 188.0 121.25 191.05 117.95 194.6 L116.9 195.7 M127.95 169.8 L127.7 169.25 Q123.3 160.8 118.6 158.4 M127.95 169.8 L129.35 173.1 M130.35 182.65 Q131.8 187.2 131.1 190.2 M136.3 186.15 Q136.7 189.3 137.65 191.6 M144.5 74.45 Q145.7 92.15 154.45 111.75 M129.0 149.25 Q149.55 156.0 170.85 152.25 M42.3 2.5 Q67.35 -32.4 95.3 -41.15 M-249.5 -62.05 L-256.7 -54.7 M-246.45 -68.5 L-246.75 -64.95 Q-245.55 -56.6 -236.15 -56.85 -228.3 -59.0 -222.85 -67.05 -221.4 -69.3 -220.05 -72.0 L-219.95 -73.3 M-228.15 -76.0 Q-233.05 -64.45 -242.75 -65.2 L-246.2 -70.0 M-246.75 -64.95 L-249.5 -62.05 M-190.75 -85.95 L-190.95 -87.35 M-189.8 -78.35 L-189.95 -79.7 -190.75 -85.95 M-182.6 -67.35 L-181.4 -68.8 M-182.6 -67.35 Q-191.65 -57.35 -206.95 -66.4 L-209.15 -68.8 -211.55 -72.1 M-208.25 -87.9 L-208.65 -79.7 -208.75 -78.35 -205.45 -76.35 Q-197.25 -72.4 -189.8 -78.35 M-231.5 -83.1 L-229.85 -81.55 -227.5 -79.7 -227.0 -79.3 -228.15 -76.0 M-232.15 -83.65 L-231.5 -83.1 M-236.15 -56.85 Q-229.9 -44.4 -211.2 -45.2 M-206.35 -58.7 Q-210.25 -48.45 -194.05 -43.15 M-244.65 -45.6 Q-241.85 -48.2 -240.4 -51.65 M-46.3 -113.7 Q-47.35 -118.3 -47.6 -122.85 M-46.3 -113.7 Q-45.5 -109.95 -44.05 -106.2 M-87.55 -44.0 L-87.55 -56.7 M-97.55 -15.7 Q-97.15 -7.45 -96.05 -0.95 L-95.5 2.25 -89.65 9.5 M-96.05 -0.95 Q-99.15 2.25 -100.05 -1.25 -101.1 -4.9 -100.7 -12.65 M-97.75 -38.8 Q-98.2 -25.9 -97.55 -15.7 M-87.55 -44.0 Q-87.4 -28.55 -86.65 -14.25 -85.95 0.5 -84.6 14.05 M-43.05 -11.4 L-44.7 -43.6 Q-42.15 -54.35 -35.0 -59.2 M-48.95 -14.35 L-49.6 -12.9 Q-57.0 2.4 -49.6 14.6 L-21.4 15.35 M-75.65 32.35 Q-69.0 43.8 -59.85 49.25 M-49.05 57.3 Q-43.35 65.8 -32.3 71.7 M-77.7 58.9 Q-75.6 68.5 -72.95 77.25 -67.55 95.8 -60.05 109.9 -47.45 119.9 -36.05 123.85 M-77.7 58.8 L-77.7 58.9 M-95.25 111.65 Q-86.25 115.85 -77.2 111.65 -74.0 102.75 -77.2 97.15 -81.15 89.7 -86.35 90.5 M-32.35 92.35 L-32.85 87.3 M-129.5 4.2 Q-127.5 8.05 -125.65 12.75 M-111.05 136.5 L-112.1 135.95 Q-113.3 135.25 -114.65 135.0 -123.8 134.45 -128.15 141.15 -129.95 143.9 -130.95 147.9 L-130.35 151.05 -129.35 149.65 -126.5 145.9 Q-123.4 148.85 -120.85 152.55 -118.6 155.7 -116.8 159.4 -114.25 164.85 -112.75 171.4 -117.55 171.55 -121.95 172.75 M-111.05 136.5 L-110.25 137.1 -108.5 138.95 M-108.4 139.0 L-108.4 139.1 -107.05 141.1 Q-106.0 142.95 -105.25 145.5 M-128.15 141.15 Q-129.9 137.5 -132.95 135.5 L-133.8 136.3 -137.6 139.65 M-136.55 162.05 Q-134.15 156.55 -130.35 151.05 M-97.55 162.1 Q-96.2 166.35 -96.55 171.15 M-58.75 124.65 Q-76.8 140.75 -89.85 123.3" ffdec:has-small-stroke="true" ffdec:original-stroke-width="0.1" fill="none" stroke="#000000" stroke-linecap="round" stroke-linejoin="round" stroke-opacity="0.29803923" stroke-width="1.0"/>
    <path d="M92.25 -108.5 Q101.4 -97.35 98.7 -82.3 97.65 -78.2 91.7 -75.85 85.2 -74.6 79.05 -71.6 68.35 -66.55 58.5 -56.55 84.5 -65.45 101.1 -47.25 L95.7 -41.55 95.3 -41.15 92.6 -38.25 82.1 -26.85 Q92.25 -30.85 102.45 -26.55 95.3 -26.6 88.9 -22.1 94.85 -15.3 95.0 -8.55 90.45 -15.95 83.6 -17.95 77.9 -18.7 72.6 -16.05 55.4 4.0 41.4 23.75 29.05 19.65 25.0 -3.35 23.2 0.4 21.55 4.5 16.95 9.15 12.4 4.5 M4.6 3.55 Q2.2 -3.45 1.1 -9.2 L0.6 -12.0 Q-0.75 -21.25 1.95 -26.95 M7.0 -47.3 Q10.3 -60.4 15.85 -71.6 24.4 -89.2 38.4 -102.1 M-41.6 -61.9 Q-39.35 -61.4 -37.35 -60.45 L-35.0 -59.2 Q-29.55 -55.65 -25.85 -48.25 M-12.85 -22.95 Q-9.2 -17.85 -8.0 -12.0 -6.6 -5.45 -8.4 2.1 -10.0 8.9 -14.3 16.6 -17.85 11.5 -21.55 7.05 -21.15 11.55 -21.4 15.35 -22.2 23.65 -26.75 28.15 L-26.75 21.25 Q-42.15 24.95 -56.25 21.25 L-59.55 15.55 Q-62.2 16.15 -64.75 18.4 L-67.55 21.25 Q-67.35 17.75 -66.3 14.85 -65.15 11.4 -62.85 8.75 -66.55 0.1 -67.8 -8.55 -63.15 -14.85 -55.4 -16.6 L-50.1 -14.75 -48.95 -14.35 -44.15 -12.0 -43.05 -11.4 Q-31.7 -5.05 -21.55 7.05 M-48.25 38.25 L-27.4 38.25 -27.25 40.45 Q-26.35 50.3 -22.8 58.55 L-20.35 63.7 -15.75 52.4 -13.05 61.35 -11.9 65.3 -6.45 65.3 -4.35 49.25 8.85 46.85 Q46.25 39.25 74.7 23.35 L78.8 20.95 78.95 21.1 92.6 32.35 96.05 35.15 88.9 62.75 86.6 71.4 75.6 48.95 64.1 54.55 60.35 56.4 60.35 64.8 55.05 58.55 49.1 62.95 49.1 55.2 M92.25 -108.5 Q90.2 -111.0 87.55 -113.3 M54.1 -51.7 Q56.25 -54.3 58.5 -56.55 M32.5 -19.1 L28.9 -12.0 Q26.9 -7.85 25.0 -3.35 M32.5 -19.1 Q39.65 -32.85 47.35 -43.4 50.65 -47.85 54.1 -51.7 M111.6 -9.2 L116.25 -14.4 115.75 -12.0 Q112.1 5.05 106.05 23.1 L105.5 24.8 97.95 19.5 90.45 14.2 111.6 -9.2 M55.0 92.65 Q54.9 78.05 49.1 62.95 M-16.95 95.15 Q4.6 101.3 26.65 96.65 L26.65 101.3 45.05 94.15 53.45 107.55 Q55.0 100.2 55.0 92.65 M-44.45 -62.4 L-41.6 -61.9 M-67.75 -18.7 L-69.6 -18.75 Q-78.25 -28.85 -67.65 -53.15 M-67.75 -18.7 Q-61.4 -18.35 -55.4 -16.6 M-75.65 32.35 L-76.9 26.8 -71.35 30.65 Q-65.4 34.5 -59.3 37.7 L-59.85 49.25 -60.35 60.8 -63.3 58.55 Q-67.9 54.4 -71.35 46.15 -73.85 40.3 -75.65 32.35 M-49.05 57.3 Q-50.75 48.95 -51.85 38.25 L-48.25 38.25 M-37.25 81.75 L-38.15 83.5 Q-44.9 76.85 -48.75 58.55 L-49.05 57.3 M-32.3 71.7 L-31.1 69.15 -16.95 79.8 -16.95 95.15 M-35.5 78.3 L-37.25 81.75 M-32.3 71.7 L-35.5 78.3" ffdec:has-small-stroke="true" ffdec:original-stroke-width="0.1" fill="none" stroke="#000000" stroke-linecap="round" stroke-linejoin="round" stroke-opacity="0.44705883" stroke-width="1.0"/>
    <path d="M65.15 -77.4 Q88.6 -87.75 105.15 -79.25 121.8 -70.7 121.8 -48.3 121.8 -25.95 105.15 -2.85 88.6 20.35 65.15 30.7 41.7 41.0 25.05 32.45 8.5 23.95 8.5 1.6 8.5 -20.8 25.05 -43.95 41.7 -67.1 65.15 -77.4" fill="url(#gradient20)" fill-rule="evenodd" stroke="none"/>
    <path d="M-72.3 -36.45 Q-60.7 -42.45 -44.25 -35.2 -27.75 -27.95 -16.1 -11.7 -4.45 4.55 -4.45 20.25 -4.45 35.95 -16.1 41.95 -27.75 47.95 -44.25 40.7 -60.7 33.45 -72.3 17.2 -84.0 0.95 -84.0 -14.75 -84.0 -30.45 -72.3 -36.45" fill="url(#gradient21)" fill-rule="evenodd" stroke="none"/>
    <path d="M-204.0 19.25 L-200.4 20.95 -200.4 23.65 Q-197.2 27.1 -196.0 34.2 L-198.7 34.2 Q-198.25 39.15 -198.7 41.25 L-203.2 41.25 Q-202.3 43.5 -202.7 45.0 L-204.25 44.7 -208.65 43.9 Q-209.95 46.45 -211.85 47.1 -212.75 44.05 -214.2 42.85 -216.5 43.55 -217.0 47.25 -219.1 46.45 -219.8 43.9 L-225.8 45.25 Q-226.7 44.7 -225.8 41.25 L-230.3 41.25 Q-230.8 39.15 -230.3 34.2 L-233.05 34.2 Q-231.9 27.1 -228.65 24.7 L-228.65 22.3 -228.65 20.0 -221.35 17.6 -221.35 13.5 -214.25 16.55 -207.7 13.5 -207.7 17.6 -204.0 19.25 M-223.0 25.2 Q-224.95 27.35 -225.2 30.4 -225.5 33.45 -223.9 35.6 -222.45 37.8 -220.05 37.8 -217.7 37.8 -215.8 35.6 -214.05 33.45 -213.7 30.4 -213.4 33.45 -211.6 35.6 -209.7 37.8 -207.35 37.8 -204.95 37.8 -203.5 35.6 -201.9 33.45 -202.25 30.4 -202.5 27.35 -204.4 25.2 -206.25 23.05 -208.65 23.05 -211.0 23.05 -212.5 25.2 -213.55 26.7 -213.7 28.75 -213.85 26.7 -214.9 25.2 -216.45 23.05 -218.75 23.05 -221.15 23.05 -223.0 25.2 M-210.1 27.3 Q-209.4 26.5 -208.35 26.5 -207.3 26.5 -206.55 27.3 -205.7 28.1 -205.6 29.15 -205.55 30.25 -206.25 31.05 -206.8 31.85 -207.85 31.85 -208.9 31.85 -209.8 31.05 -210.5 30.25 -210.6 29.15 -210.65 28.1 -210.1 27.3 M-216.5 27.3 Q-215.95 28.1 -216.05 29.15 -216.1 30.25 -216.85 31.05 -217.7 31.85 -218.75 31.85 -219.8 31.85 -220.35 31.05 -221.1 30.25 -221.0 29.15 -220.95 28.1 -220.05 27.3 -219.3 26.5 -218.3 26.5 -217.25 26.5 -216.5 27.3" fill="#000000" fill-rule="evenodd" stroke="none"/>
    <path d="M-223.0 25.2 Q-221.15 23.05 -218.75 23.05 -216.45 23.05 -214.9 25.2 -213.85 26.7 -213.7 28.75 -213.55 26.7 -212.5 25.2 -211.0 23.05 -208.65 23.05 -206.25 23.05 -204.4 25.2 -202.5 27.35 -202.25 30.4 -201.9 33.45 -203.5 35.6 -204.95 37.8 -207.35 37.8 -209.7 37.8 -211.6 35.6 -213.4 33.45 -213.7 30.4 -214.05 33.45 -215.8 35.6 -217.7 37.8 -220.05 37.8 -222.45 37.8 -223.9 35.6 -225.5 33.45 -225.2 30.4 -224.95 27.35 -223.0 25.2 M-210.1 27.3 Q-210.65 28.1 -210.6 29.15 -210.5 30.25 -209.8 31.05 -208.9 31.85 -207.85 31.85 -206.8 31.85 -206.25 31.05 -205.55 30.25 -205.6 29.15 -205.7 28.1 -206.55 27.3 -207.3 26.5 -208.35 26.5 -209.4 26.5 -210.1 27.3 M-213.7 28.75 L-213.7 30.4 -213.7 28.75 M-216.5 27.3 Q-217.25 26.5 -218.3 26.5 -219.3 26.5 -220.05 27.3 -220.95 28.1 -221.0 29.15 -221.1 30.25 -220.35 31.05 -219.8 31.85 -218.75 31.85 -217.7 31.85 -216.85 31.05 -216.1 30.25 -216.05 29.15 -215.95 28.1 -216.5 27.3" fill="#ebebeb" fill-rule="evenodd" stroke="none"/>
    <path d="M-239.3 -41.95 Q-238.65 -32.7 -231.75 -26.2 -230.0 -25.25 -228.15 -24.95 -226.3 -24.6 -224.35 -24.95 -220.3 -27.75 -219.1 -34.65 -217.8 -39.35 -217.0 -44.0 L-218.3 -71.75 -218.6 -72.9 -219.1 -74.6 M-217.0 -44.0 Q-214.65 -58.45 -218.3 -71.75 M-204.0 19.25 Q-200.55 16.8 -197.1 16.45 -192.45 23.45 -188.9 32.15 L-185.4 30.1 M-198.7 34.2 Q-194.4 36.25 -192.75 38.25 -192.15 43.7 -192.75 50.95 L-188.1 53.35 M-204.25 44.7 Q-201.9 49.25 -202.55 49.65 -205.3 54.45 -214.75 63.3 L-210.75 67.3 M-214.25 16.55 L-217.0 -44.0 M-228.65 22.3 Q-232.05 19.9 -235.5 19.6 -240.15 26.65 -243.6 35.4 L-247.15 33.4 M-230.3 34.2 Q-234.65 36.35 -236.25 38.35 -236.8 43.8 -236.15 51.0 L-240.75 53.45 M-225.8 41.25 Q-231.25 49.35 -230.65 49.75 -227.8 54.45 -218.3 63.2 L-222.3 67.3" fill="none" stroke="#000000" stroke-linecap="round" stroke-linejoin="round" stroke-width="1.0"/>
    <path d="M-204.0 19.25 L-200.4 20.95 -200.4 23.65 Q-197.2 27.1 -196.0 34.2 L-198.7 34.2 Q-198.25 39.15 -198.7 41.25 L-203.2 41.25 Q-202.3 43.5 -202.7 45.0 L-204.25 44.7 -208.65 43.9 Q-209.95 46.45 -211.85 47.1 -212.75 44.05 -214.2 42.85 -216.5 43.55 -217.0 47.25 -219.1 46.45 -219.8 43.9 L-225.8 45.25 Q-226.7 44.7 -225.8 41.25 L-230.3 41.25 Q-230.8 39.15 -230.3 34.2 L-233.05 34.2 Q-231.9 27.1 -228.65 24.7 L-228.65 22.3 -228.65 20.0 -221.35 17.6 -221.35 13.5 -214.25 16.55 -207.7 13.5 -207.7 17.6 -204.0 19.25 M-223.0 25.2 Q-221.15 23.05 -218.75 23.05 -216.45 23.05 -214.9 25.2 -213.85 26.7 -213.7 28.75 -213.55 26.7 -212.5 25.2 -211.0 23.05 -208.65 23.05 -206.25 23.05 -204.4 25.2 -202.5 27.35 -202.25 30.4 -201.9 33.45 -203.5 35.6 -204.95 37.8 -207.35 37.8 -209.7 37.8 -211.6 35.6 -213.4 33.45 -213.7 30.4 -214.05 33.45 -215.8 35.6 -217.7 37.8 -220.05 37.8 -222.45 37.8 -223.9 35.6 -225.5 33.45 -225.2 30.4 -224.95 27.35 -223.0 25.2 M-210.1 27.3 Q-209.4 26.5 -208.35 26.5 -207.3 26.5 -206.55 27.3 -205.7 28.1 -205.6 29.15 -205.55 30.25 -206.25 31.05 -206.8 31.85 -207.85 31.85 -208.9 31.85 -209.8 31.05 -210.5 30.25 -210.6 29.15 -210.65 28.1 -210.1 27.3 M-213.7 30.4 L-213.7 28.75 M-216.5 27.3 Q-217.25 26.5 -218.3 26.5 -219.3 26.5 -220.05 27.3 -220.95 28.1 -221.0 29.15 -221.1 30.25 -220.35 31.05 -219.8 31.85 -218.75 31.85 -217.7 31.85 -216.85 31.05 -216.1 30.25 -216.05 29.15 -215.95 28.1 -216.5 27.3 Z" ffdec:has-small-stroke="true" ffdec:original-stroke-width="0.05" fill="none" stroke="#000000" stroke-linecap="round" stroke-linejoin="round" stroke-width="1.0"/>
    <path d="M127.05 47.95 Q127.05 63.7 96.2 77.8 65.25 92.1 21.5 96.35 -22.1 100.65 -53.0 92.55 -83.95 84.65 -83.95 68.9 -83.95 53.2 -53.0 38.9 -22.1 24.8 21.5 20.45 65.25 16.2 96.2 24.15 127.05 32.25 127.05 47.95" fill="url(#gradient22)" fill-rule="evenodd" stroke="none"/>
  </g>
  <defs>
    <radialGradient cx="0" cy="0" gradientTransform="matrix(0.0752, 0.0, 0.0, 0.0752, 10.05, -165.7)" gradientUnits="userSpaceOnUse" id="gradient0" r="819.2" spreadMethod="pad">
      <stop offset="0.10588235294117647" stop-color="#ffcf1a" stop-opacity="0.078431375"/>
      <stop offset="0.5137254901960784" stop-color="#ff6f00" stop-opacity="0.5686275"/>
      <stop offset="0.9176470588235294" stop-color="#ffcf1a" stop-opacity="0.0"/>
    </radialGradient>
    <radialGradient cx="0" cy="0" gradientTransform="matrix(0.0062, -0.0541, 0.3188, 0.0364, 39.45, 169.2)" gradientUnits="userSpaceOnUse" id="gradient1" r="819.2" spreadMethod="pad">
      <stop offset="0.32941176470588235" stop-color="#000000" stop-opacity="0.54901963"/>
      <stop offset="0.9098039215686274" stop-color="#000000" stop-opacity="0.0"/>
    </radialGradient>
    <radialGradient cx="0" cy="0" gradientTransform="matrix(0.4476, 0.0, 0.0, 0.4476, 33.45, -113.9)" gradientUnits="userSpaceOnUse" id="gradient2" r="819.2" spreadMethod="pad">
      <stop offset="0.2784313725490196" stop-color="#ff8f09"/>
      <stop offset="0.9098039215686274" stop-color="#d46b0e" stop-opacity="0.9490196"/>
    </radialGradient>
    <radialGradient cx="0" cy="0" fx="3.2" fy="0" gradientTransform="matrix(0.2444, 0.0, 0.0, 0.2444, 4.6, 3.55)" gradientUnits="userSpaceOnUse" id="gradient3" r="819.2" spreadMethod="pad">
      <stop offset="0.49411764705882355" stop-color="#d46b0e"/>
      <stop offset="0.7411764705882353" stop-color="#b94d12"/>
    </radialGradient>
    <radialGradient cx="0" cy="0" gradientTransform="matrix(0.1888, 0.0, 0.0, 0.1888, 248.95, -60.35)" gradientUnits="userSpaceOnUse" id="gradient4" r="819.2" spreadMethod="pad">
      <stop offset="0.2784313725490196" stop-color="#76811f"/>
      <stop offset="0.9098039215686274" stop-color="#525319" stop-opacity="0.9490196"/>
    </radialGradient>
    <radialGradient cx="0" cy="0" gradientTransform="matrix(0.0781, 0.0, 0.0, 0.0781, -182.7, -131.85)" gradientUnits="userSpaceOnUse" id="gradient5" r="819.2" spreadMethod="pad">
      <stop offset="0.2784313725490196" stop-color="#42433a"/>
      <stop offset="0.9098039215686274" stop-color="#28231b" stop-opacity="0.9490196"/>
    </radialGradient>
    <radialGradient cx="0" cy="0" gradientTransform="matrix(0.0791, 0.0, 0.0, 0.0904, -223.5, -99.05)" gradientUnits="userSpaceOnUse" id="gradient6" r="819.2" spreadMethod="pad">
      <stop offset="0.2784313725490196" stop-color="#76811f"/>
      <stop offset="0.9098039215686274" stop-color="#525319" stop-opacity="0.9490196"/>
    </radialGradient>
    <radialGradient cx="0" cy="0" gradientTransform="matrix(0.0789, 0.0, 0.0, 0.0789, -246.2, -124.8)" gradientUnits="userSpaceOnUse" id="gradient7" r="819.2" spreadMethod="pad">
      <stop offset="0.2784313725490196" stop-color="#42433a"/>
      <stop offset="0.9098039215686274" stop-color="#28231b" stop-opacity="0.9490196"/>
    </radialGradient>
    <radialGradient cx="0" cy="0" gradientTransform="matrix(0.0766, 0.0, 0.0, 0.0766, -135.15, -28.25)" gradientUnits="userSpaceOnUse" id="gradient8" r="819.2" spreadMethod="pad">
      <stop offset="0.2784313725490196" stop-color="#76811f"/>
      <stop offset="0.9098039215686274" stop-color="#525319" stop-opacity="0.9490196"/>
    </radialGradient>
    <radialGradient cx="0" cy="0" gradientTransform="matrix(0.1284, 0.0, 0.0, 0.1284, -90.85, 70.5)" gradientUnits="userSpaceOnUse" id="gradient9" r="819.2" spreadMethod="pad">
      <stop offset="0.2784313725490196" stop-color="#76811f"/>
      <stop offset="0.9098039215686274" stop-color="#525319" stop-opacity="0.9490196"/>
    </radialGradient>
    <radialGradient cx="0" cy="0" gradientTransform="matrix(0.0548, 0.0, 0.0, 0.0548, -152.85, 132.35)" gradientUnits="userSpaceOnUse" id="gradient10" r="819.2" spreadMethod="pad">
      <stop offset="0.2784313725490196" stop-color="#42433a"/>
      <stop offset="0.9098039215686274" stop-color="#28231b" stop-opacity="0.9490196"/>
    </radialGradient>
    <radialGradient cx="0" cy="0" gradientTransform="matrix(0.0832, 0.0, 0.0, 0.0759, -143.55, 129.05)" gradientUnits="userSpaceOnUse" id="gradient11" r="819.2" spreadMethod="pad">
      <stop offset="0.2784313725490196" stop-color="#42433a"/>
      <stop offset="0.9098039215686274" stop-color="#28231b" stop-opacity="0.9490196"/>
    </radialGradient>
    <radialGradient cx="0" cy="0" gradientTransform="matrix(0.095, 0.0, 0.0, 0.095, 119.7, 33.1)" gradientUnits="userSpaceOnUse" id="gradient12" r="819.2" spreadMethod="pad">
      <stop offset="0.2784313725490196" stop-color="#76811f"/>
      <stop offset="0.9098039215686274" stop-color="#525319" stop-opacity="0.9490196"/>
    </radialGradient>
    <radialGradient cx="0" cy="0" gradientTransform="matrix(0.0786, 0.0, 0.0, 0.0786, 191.45, 108.75)" gradientUnits="userSpaceOnUse" id="gradient13" r="819.2" spreadMethod="pad">
      <stop offset="0.2784313725490196" stop-color="#42433a"/>
      <stop offset="0.9098039215686274" stop-color="#28231b" stop-opacity="0.9490196"/>
    </radialGradient>
    <radialGradient cx="0" cy="0" gradientTransform="matrix(0.1806, 0.0, 0.0, 0.0422, 145.5, 153.0)" gradientUnits="userSpaceOnUse" id="gradient14" r="819.2" spreadMethod="pad">
      <stop offset="0.2784313725490196" stop-color="#76811f"/>
      <stop offset="0.9098039215686274" stop-color="#525319" stop-opacity="0.9490196"/>
    </radialGradient>
    <radialGradient cx="0" cy="0" gradientTransform="matrix(0.0804, 0.0, 0.0, 0.0804, 187.3, 182.2)" gradientUnits="userSpaceOnUse" id="gradient15" r="819.2" spreadMethod="pad">
      <stop offset="0.2784313725490196" stop-color="#42433a"/>
      <stop offset="0.9098039215686274" stop-color="#28231b" stop-opacity="0.9490196"/>
    </radialGradient>
    <radialGradient cx="0" cy="0" gradientTransform="matrix(0.1117, 0.0, 0.0, 0.1117, 261.25, 132.65)" gradientUnits="userSpaceOnUse" id="gradient16" r="819.2" spreadMethod="pad">
      <stop offset="0.2784313725490196" stop-color="#42433a"/>
      <stop offset="0.9098039215686274" stop-color="#28231b" stop-opacity="0.9490196"/>
    </radialGradient>
    <radialGradient cx="0" cy="0" gradientTransform="matrix(0.0786, 0.0, 0.0, 0.0786, 147.5, 96.45)" gradientUnits="userSpaceOnUse" id="gradient17" r="819.2" spreadMethod="pad">
      <stop offset="0.2784313725490196" stop-color="#42433a"/>
      <stop offset="0.9098039215686274" stop-color="#28231b" stop-opacity="0.9490196"/>
    </radialGradient>
    <radialGradient cx="0" cy="0" gradientTransform="matrix(0.1003, 0.0, 0.0, 0.1003, 69.3, 170.75)" gradientUnits="userSpaceOnUse" id="gradient18" r="819.2" spreadMethod="pad">
      <stop offset="0.2784313725490196" stop-color="#42433a"/>
      <stop offset="0.9098039215686274" stop-color="#28231b" stop-opacity="0.9490196"/>
    </radialGradient>
    <radialGradient cx="0" cy="0" gradientTransform="matrix(0.0666, 0.0178, -0.0178, 0.0666, 144.0, 184.8)" gradientUnits="userSpaceOnUse" id="gradient19" r="819.2" spreadMethod="pad">
      <stop offset="0.2784313725490196" stop-color="#42433a"/>
      <stop offset="0.9098039215686274" stop-color="#28231b" stop-opacity="0.9490196"/>
    </radialGradient>
    <radialGradient cx="0" cy="0" gradientTransform="matrix(0.0592, -0.0261, 0.0, 0.0565, 65.05, -23.35)" gradientUnits="userSpaceOnUse" id="gradient20" r="819.2" spreadMethod="pad">
      <stop offset="0.32941176470588235" stop-color="#ffd86c" stop-opacity="0.3882353"/>
      <stop offset="0.9098039215686274" stop-color="#ffd86c" stop-opacity="0.0"/>
    </radialGradient>
    <radialGradient cx="0" cy="0" gradientTransform="matrix(-0.0415, -0.0183, 0.0, 0.0396, -44.1, 2.85)" gradientUnits="userSpaceOnUse" id="gradient21" r="819.2" spreadMethod="pad">
      <stop offset="0.32941176470588235" stop-color="#ffd86c" stop-opacity="0.3882353"/>
      <stop offset="0.9098039215686274" stop-color="#ffd86c" stop-opacity="0.0"/>
    </radialGradient>
    <radialGradient cx="0" cy="0" gradientTransform="matrix(-0.1102, 0.0109, 0.0, 0.0396, 21.85, 58.5)" gradientUnits="userSpaceOnUse" id="gradient22" r="819.2" spreadMethod="pad">
      <stop offset="0.32941176470588235" stop-color="#ffd86c" stop-opacity="0.3882353"/>
      <stop offset="0.9098039215686274" stop-color="#ffd86c" stop-opacity="0.0"/>
    </radialGradient>
  </defs>
</svg>
