<?xml version="1.0" encoding="UTF-8" standalone="no"?>
<svg xmlns:ffdec="https://www.free-decompiler.com/flash" xmlns:xlink="http://www.w3.org/1999/xlink" ffdec:objectType="shape" height="647.4px" width="580.4px" xmlns="http://www.w3.org/2000/svg">
  <g transform="matrix(1.0, 0.0, 0.0, 1.0, 291.4, 324.95)">
    <path d="M27.8 -257.2 Q32.75 -251.6 34.1 -246.0 L35.7 -249.85 Q41.6 -232.5 37.45 -216.25 35.45 -208.4 31.0 -200.7 43.8 -200.6 52.2 -191.55 56.05 -193.05 60.15 -193.4 L68.4 -193.0 Q70.75 -192.5 72.95 -191.4 86.6 -184.35 91.8 -150.8 91.7 -141.25 85.85 -131.7 L82.4 -126.85 84.25 -117.55 Q85.75 -107.55 85.35 -98.3 94.8 -95.85 91.85 -89.55 101.6 -86.95 98.0 -72.75 103.7 -69.55 107.7 -65.3 116.85 -55.75 117.4 -40.65 121.95 -36.4 125.35 -30.6 126.6 -25.35 123.85 -20.0 125.2 -15.85 123.8 -11.45 L123.85 -11.2 Q129.65 3.2 121.75 24.5 123.55 28.1 122.25 30.95 132.5 36.7 124.1 54.4 138.35 67.7 150.65 106.9 160.3 143.65 157.55 167.25 169.5 173.2 163.2 182.35 169.65 187.05 166.55 198.1 184.15 222.55 204.4 230.85 199.15 232.6 193.8 233.75 212.05 256.65 235.75 270.05 217.4 276.55 197.8 270.1 207.25 285.75 222.6 294.3 L205.95 294.3 214.7 303.85 Q196.3 303.7 168.85 279.55 165.65 299.85 166.5 319.45 163.7 316.4 161.05 312.65 155.7 305.05 150.75 294.4 147.3 286.75 144.05 277.55 137.5 288.8 128.8 294.5 L130.65 290.1 130.75 289.7 132.4 285.1 131.55 285.95 Q116.5 300.35 99.15 305.35 113.4 282.75 121.25 254.8 L122.1 251.85 Q115.4 258.65 107.35 263.65 116.85 243.65 119.4 218.95 L119.85 213.6 Q113.5 210.9 116.85 198.45 109.7 193.65 114.0 183.2 L107.7 179.0 103.7 175.75 Q59.65 136.35 65.9 83.55 59.45 82.1 57.35 70.05 57.2 67.3 58.3 63.7 50.25 59.35 52.25 47.25 55.45 41.9 58.95 37.4 L58.45 36.4 Q49.1 17.9 60.3 -3.5 53.35 -3.15 44.9 -5.05 L42.15 -5.75 Q42.2 4.05 37.1 2.05 35.85 8.35 31.65 8.6 L29.0 8.25 Q15.0 61.35 -36.85 70.9 -37.0 72.15 -37.7 72.8 L-38.5 75.9 6.45 108.15 11.3 112.35 1.35 112.35 19.85 129.4 24.2 138.2 -44.9 95.6 Q-43.65 139.45 -61.45 161.9 -62.95 164.85 -64.75 167.2 -61.9 170.1 -64.25 173.55 -60.7 177.4 -62.9 182.35 -64.25 183.95 -66.0 185.2 -61.05 199.2 -65.75 203.35 L-66.0 203.6 -67.9 200.1 -67.05 203.35 Q-63.55 221.2 -72.7 241.8 -72.5 236.45 -74.8 233.95 -132.75 257.9 -171.5 249.0 -181.8 246.65 -190.75 241.95 -170.65 245.3 -155.75 236.45 -162.1 236.45 -168.0 233.6 L-187.65 228.0 Q-172.75 224.9 -159.35 214.75 L-158.5 214.15 Q-151.9 208.9 -143.6 203.35 -135.0 197.65 -124.7 191.65 -138.5 188.65 -154.25 192.65 -133.75 180.25 -107.35 176.65 -106.25 174.4 -103.15 171.55 -104.5 168.1 -98.5 163.4 L-98.5 163.35 Q-104.85 133.35 -101.05 108.0 L-107.7 108.5 -109.05 108.5 Q-138.65 108.55 -159.8 85.45 -174.35 76.6 -185.55 59.5 -203.5 32.35 -205.15 -3.3 L-249.65 -30.7 Q-251.9 -32.2 -254.15 -30.7 -254.85 -28.25 -256.15 -26.25 -259.5 -21.55 -267.2 -19.15 -279.95 -18.65 -286.25 -27.25 -291.95 -39.65 -285.4 -51.8 -281.95 -56.15 -274.25 -58.4 -270.05 -59.65 -267.9 -62.0 -266.15 -63.95 -265.7 -66.7 L-271.3 -78.85 Q-275.25 -89.55 -264.2 -98.45 -260.0 -100.6 -256.15 -100.95 -251.25 -101.55 -246.8 -99.1 -243.25 -97.2 -240.1 -93.35 -234.8 -86.55 -231.65 -73.3 -231.15 -62.75 -234.65 -55.15 L-203.75 -35.45 -203.65 -35.45 Q-197.9 -80.75 -170.65 -113.6 -141.0 -149.6 -103.35 -149.6 L-99.8 -149.6 Q-92.3 -149.35 -85.4 -147.5 L-76.1 -158.0 Q-90.95 -163.45 -92.1 -168.1 -92.95 -168.95 -88.1 -177.75 L-85.75 -182.1 Q-100.5 -197.7 -102.6 -216.25 L-102.9 -221.4 Q-102.65 -249.45 -91.55 -262.0 -80.3 -274.55 -70.35 -269.8 L-68.15 -271.55 Q-57.55 -279.25 -42.2 -277.65 -40.45 -298.85 -50.25 -312.0 L-53.75 -316.1 Q-47.65 -320.1 -41.05 -321.6 L-29.65 -322.3 -29.3 -321.6 Q-20.7 -302.0 -22.45 -283.0 -22.75 -280.25 -23.2 -277.5 -16.75 -277.5 -13.65 -275.8 -0.65 -282.2 15.15 -271.55 21.45 -267.35 28.05 -260.65 L27.8 -257.2" fill="none" stroke="#000000" stroke-linecap="round" stroke-linejoin="round" stroke-width="5.0"/>
    <path d="M-3.75 -151.3 L-3.0 -150.3 -3.75 -151.2 -3.75 -151.3 M-93.85 -25.1 L-93.45 -24.9 -93.3 -25.0 -93.55 -25.0 -93.85 -25.1 M-4.75 -61.25 Q-6.6 -55.9 -5.1 -53.9 L-2.5 -50.1 Q-4.25 -48.55 -4.45 -45.45 -9.45 -44.25 -6.95 -39.65 L-8.3 -38.9 Q-8.8 -58.1 -13.3 -75.1 -9.3 -72.5 -4.95 -70.3 -7.8 -67.65 -7.7 -64.35 L-4.75 -61.25 M-38.0 62.2 L-35.5 61.6 -34.0 60.5 -38.0 62.2 Z" fill="none" stroke="#000000" stroke-linecap="round" stroke-linejoin="round" stroke-width="3.0"/>
    <path d="M199.15 170.55 L216.8 171.4 225.85 172.2 230.45 172.7 230.55 172.9 Q230.45 176.8 218.65 179.4 L214.8 180.1 Q222.25 180.65 225.0 181.5 243.55 182.2 256.7 185.7 261.8 187.1 265.95 188.95 L263.9 189.4 Q266.75 190.7 265.4 191.8 L269.3 191.55 Q267.25 194.75 253.9 196.5 L238.25 197.9 Q253.25 199.6 258.35 201.95 L268.65 202.7 278.2 203.85 282.55 204.6 Q289.1 205.95 289.0 208.4 288.75 210.05 283.55 212.85 278.45 214.15 266.65 214.9 L260.1 215.1 257.45 216.6 Q254.0 218.25 248.65 219.7 258.5 221.05 251.9 221.7 261.85 223.2 250.3 224.9 255.15 226.0 257.75 227.15 263.4 229.5 256.45 231.9 259.45 233.25 260.45 234.45 259.0 235.25 253.15 235.8 252.55 236.55 248.55 237.05 247.8 239.8 227.6 241.9 227.7 242.65 224.85 243.0 233.8 245.05 214.8 246.65 224.5 250.25 234.05 268.95 220.25 266.0 205.15 267.2 218.0 280.85 222.95 292.4 206.7 295.15 195.05 271.6 L189.95 272.6 190.85 273.2 Q182.15 278.3 166.15 322.45 155.35 316.85 146.95 293.05 120.6 304.1 97.0 303.75 126.2 269.2 127.3 268.95 121.1 267.75 131.65 266.35 125.7 264.75 136.25 263.75 L131.0 262.4 127.95 261.5 Q96.8 250.2 131.65 243.4 124.8 242.2 128.65 240.3 L133.05 239.65 Q125.8 237.8 134.5 236.45 L147.5 235.85 147.4 235.7 Q145.95 231.85 170.25 230.1 L153.0 227.9 150.25 227.55 140.25 228.0 130.5 228.3 127.45 227.8 Q83.5 233.7 17.9 228.55 L16.0 228.8 13.4 229.1 Q31.4 234.1 49.25 239.45 L52.85 240.7 41.1 239.45 53.95 244.25 54.45 246.1 -4.2 231.15 Q-25.55 237.45 -58.05 238.7 L-64.55 239.05 Q-62.9 239.8 -67.35 240.05 -65.3 240.9 -70.25 241.45 L-75.45 241.45 Q-76.95 243.9 -84.5 244.05 L-85.0 244.15 -85.35 243.4 Q-85.0 248.5 -128.7 256.65 -172.6 264.65 -129.65 246.4 L-143.3 245.65 -143.3 247.35 -182.8 247.35 Q-185.75 242.15 -171.65 237.7 L-209.35 228.15 -214.65 227.55 -219.4 228.0 Q-225.75 228.15 -235.9 227.65 -251.15 225.9 -254.0 224.15 -254.3 221.35 -240.15 220.6 -234.05 220.3 -223.75 221.05 L-214.45 221.35 -209.5 220.95 -209.75 218.45 Q-208.85 216.35 -191.25 216.45 L-180.55 217.2 -170.5 218.6 Q-167.5 219.45 -165.7 220.3 -163.15 221.95 -166.25 224.2 -171.15 225.8 -179.1 226.5 L-156.1 232.45 -150.4 232.75 -143.3 231.6 -143.3 233.25 -119.35 235.1 -111.8 234.85 -102.1 234.2 Q-94.05 228.9 -76.45 225.8 L-84.35 225.05 -85.9 224.9 Q-120.65 221.05 -133.4 215.15 -145.8 211.9 -150.0 208.2 L-151.55 206.3 -112.05 206.3 -112.05 190.55 Q-84.05 186.2 -42.7 185.1 10.55 183.45 54.7 188.4 L58.9 188.8 74.6 190.95 90.85 190.7 Q76.3 187.85 77.4 187.1 L87.1 186.3 92.1 185.85 Q82.85 181.7 90.2 178.85 91.05 178.4 92.35 178.1 107.3 173.95 126.8 173.65 146.4 173.2 155.6 175.15 L159.1 175.25 Q175.45 175.4 192.6 177.65 205.5 174.65 201.05 171.65 L199.15 170.55 M123.45 213.25 L122.25 212.75 128.55 212.25 121.45 210.4 121.35 210.5 Q114.65 214.65 123.45 213.25 M24.45 227.5 L25.9 227.5 23.25 227.3 24.45 227.5" fill="url(#gradient0)" fill-rule="evenodd" stroke="none"/>
    <path d="M-13.7 -275.8 Q-0.7 -282.15 15.15 -271.6 21.35 -267.4 28.0 -260.65 L27.8 -257.25 Q26.6 -240.15 22.0 -227.3 29.1 -235.15 34.0 -246.0 L35.6 -249.85 Q41.55 -232.55 37.4 -216.25 35.35 -208.4 30.95 -200.7 L26.95 -194.05 Q24.0 -189.5 20.35 -184.95 L21.5 -182.35 Q18.35 -173.45 9.65 -166.75 L21.3 -153.1 24.15 -149.7 Q23.5 -146.95 21.1 -146.0 L24.15 -142.9 Q22.6 -140.2 21.1 -140.05 L17.8 -140.05 16.4 -137.4 16.4 -137.45 12.35 -140.9 Q6.35 -146.35 -0.05 -153.9 L11.05 -149.2 5.8 -161.0 -7.2 -161.0 Q2.7 -164.0 10.15 -171.55 12.15 -176.6 13.05 -182.4 10.25 -190.6 -0.2 -196.9 L3.65 -199.75 Q7.95 -227.0 -6.35 -248.85 -5.65 -242.05 -8.2 -232.25 L-10.55 -229.65 Q-8.7 -249.4 -16.75 -267.3 -18.7 -269.35 -20.8 -270.9 L-20.1 -271.6 Q-17.0 -274.25 -13.7 -275.8 M193.7 233.75 Q212.05 256.6 235.7 270.05 217.35 276.55 197.7 270.1 207.25 285.8 222.55 294.3 L205.85 294.3 Q187.5 282.7 170.2 260.9 L168.75 279.55 Q165.65 299.8 166.45 319.4 163.65 316.4 161.0 312.65 L161.75 265.65 162.45 266.2 159.15 234.75 Q176.95 237.25 193.7 233.75 M150.7 294.35 Q147.25 286.7 144.0 277.6 137.5 288.75 128.75 294.5 L130.55 290.15 130.65 289.7 132.35 285.1 132.9 284.4 Q139.6 274.55 140.8 261.55 L129.8 274.9 Q135.7 262.65 136.45 243.2 L121.2 254.8 122.05 251.8 Q130.75 242.9 137.0 230.85 143.05 243.9 150.25 253.35 L150.7 294.35 M-67.9 200.1 L-67.15 203.4 Q-63.65 221.2 -72.7 241.8 -72.6 236.4 -74.8 233.95 -132.8 257.85 -171.5 249.0 -151.6 242.1 -134.65 230.55 -142.3 233.25 -150.6 230.55 -136.6 226.05 -128.95 215.9 -142.9 209.25 -159.4 214.7 L-158.6 214.1 Q-151.9 208.9 -143.65 203.4 -135.05 197.65 -124.75 191.6 L-120.6 192.65 Q-123.85 198.9 -128.35 203.4 L-131.85 206.4 Q-135.5 209.15 -139.8 211.0 -125.2 212.3 -113.55 206.55 -114.65 212.0 -120.0 219.55 -98.1 217.65 -78.4 203.4 -74.05 200.25 -69.8 196.5 L-67.9 200.1 M-88.2 -177.8 L-85.75 -182.15 Q-80.6 -178.25 -78.3 -178.35 -83.2 -175.85 -88.2 -177.8 M-7.8 -255.25 Q-11.9 -262.45 -16.75 -267.3 -11.9 -262.45 -7.8 -255.25 M6.15 -164.3 L9.65 -166.75 6.15 -164.3 M20.35 -184.95 Q15.35 -194.3 3.1 -196.85 15.35 -194.3 20.35 -184.95 M192.7 260.5 Q194.95 265.6 197.7 270.1 194.95 265.6 192.7 260.5 M-32.85 -122.6 Q-30.2 -118.95 -28.4 -120.1 -26.45 -140.1 -31.05 -166.35 L-16.15 -129.25 Q-15.6 -147.9 -19.7 -168.5 -9.9 -162.7 -3.85 -151.2 L-8.4 -149.05 -8.4 -144.0 -11.95 -146.2 -7.25 -128.95 -6.0 -124.2 Q-9.85 -120.5 -15.95 -120.55 L-15.25 -118.45 Q-18.1 -116.75 -22.75 -118.45 L-22.75 -112.05 Q-25.6 -109.85 -29.35 -112.05 L-32.85 -122.6 M-19.45 -130.8 L-15.95 -120.55 -19.45 -130.8 M-62.35 -113.7 L-54.4 -116.25 -44.2 -142.95 -44.2 -133.5 -49.2 -117.4 -50.05 -114.8 Q-55.25 -112.75 -62.35 -113.7 L-67.45 -114.8 -66.0 -121.0 -61.55 -140.45 -57.8 -149.95 -62.35 -113.7 M-45.55 -134.65 L-44.2 -133.5 -45.55 -134.65 M-63.3 -146.65 L-67.0 -143.3 -82.45 -129.25 -86.8 -132.2 Q-73.15 -141.7 -61.85 -154.5 L-63.3 -146.65 M-23.15 -139.35 L-28.45 -156.55 -23.15 -139.35 M-117.2 12.1 Q-112.5 13.55 -109.6 22.05 L-110.65 22.85 -112.75 24.5 Q-117.8 28.95 -119.35 35.1 L-119.85 37.55 -119.95 38.45 -120.2 38.2 -120.2 38.15 Q-122.65 26.05 -117.2 12.1 M-84.15 44.05 Q-83.3 41.4 -80.9 40.25 -74.6 38.25 -67.75 38.8 L-66.5 38.9 Q-63.2 40.85 -60.35 46.0 L-59.55 47.45 -61.35 48.6 -61.75 48.9 Q-65.85 51.5 -69.25 54.4 L-72.4 57.2 Q-72.25 49.8 -75.7 48.35 L-75.7 49.9 -84.15 44.05 M-125.15 60.95 L-113.85 31.5 -110.85 31.55 Q-110.2 35.9 -112.4 42.05 -109.1 38.8 -105.75 39.9 -104.35 43.2 -105.0 46.95 L-99.9 46.95 Q-99.8 48.55 -100.05 50.6 -100.65 54.45 -103.0 59.75 L-105.55 65.2 Q-108.8 70.2 -112.65 69.95 -114.75 70.1 -114.8 65.5 L-115.9 66.5 Q-120.5 66.95 -122.3 60.25 -123.9 60.9 -125.15 60.95 M-112.4 42.05 Q-113.95 46.25 -116.7 51.3 -119.05 55.5 -122.3 60.25 -119.05 55.5 -116.7 51.3 -113.95 46.25 -112.4 42.05 M-105.0 46.95 L-105.75 49.55 Q-107.05 53.3 -108.55 56.35 -111.35 62.1 -114.8 65.5 -111.35 62.1 -108.55 56.35 -107.05 53.3 -105.75 49.55 L-105.0 46.95" fill="url(#gradient1)" fill-rule="evenodd" stroke="none"/>
    <path d="M27.8 -257.25 Q32.7 -251.6 34.0 -246.0 29.1 -235.15 22.0 -227.3 26.6 -240.15 27.8 -257.25" fill="#7a4506" fill-rule="evenodd" stroke="none"/>
    <path d="M72.9 -191.4 Q86.55 -184.4 91.75 -150.75 91.65 -141.25 85.75 -131.7 88.35 -157.6 72.9 -191.4 M82.35 -126.8 Q83.45 -122.15 84.15 -117.55 85.7 -107.6 85.25 -98.25 L84.65 -91.3 Q82.95 -84.35 78.8 -78.95 80.95 -104.3 78.1 -114.6 L72.05 -111.65 Q75.1 -113.25 72.7 -116.55 78.4 -121.7 82.35 -126.8 M97.9 -72.75 Q103.65 -69.6 107.65 -65.35 116.75 -55.75 117.35 -40.7 113.85 -44.0 109.65 -46.4 110.55 -54.35 107.25 -58.05 L104.55 -50.4 Q105.15 -64.0 97.9 -72.75 M123.75 -11.45 L123.85 -11.2 Q129.55 3.25 121.75 24.45 120.95 22.7 119.5 20.85 122.25 -7.25 113.65 -24.85 120.6 -19.1 123.75 -11.45 M84.15 -98.55 L85.25 -98.25 84.15 -98.55" fill="#393914" fill-rule="evenodd" stroke="none"/>
    <path d="M30.95 -200.7 Q43.75 -200.65 52.15 -191.6 30.05 -183.3 35.9 -141.7 31.7 -139.65 32.85 -136.3 L35.1 -133.45 32.75 -130.05 Q27.8 -131.7 28.75 -127.2 L31.2 -124.25 Q0.4 -98.3 -1.65 -68.8 L-4.95 -70.35 Q-5.0 -80.2 -2.05 -89.6 2.95 -105.65 16.5 -120.35 L9.25 -132.35 0.75 -125.5 4.45 -116.65 -8.75 -110.65 -5.1 -97.15 -2.05 -89.6 -7.9 -92.3 Q-13.0 -95.9 -18.05 -106.5 L-30.75 -102.35 -35.9 -107.7 -44.0 -107.7 -46.35 -111.85 Q-50.2 -104.2 -57.5 -101.7 L-58.55 -100.8 Q-63.45 -99.45 -68.2 -100.0 L-70.4 -100.4 Q-73.15 -100.95 -75.8 -102.15 -69.65 -110.45 -70.95 -121.0 L-66.0 -121.0 -67.45 -114.8 -62.35 -113.7 Q-55.25 -112.75 -50.05 -114.8 L-49.2 -117.4 -44.2 -133.5 Q-39.7 -129.9 -34.8 -128.0 L-32.85 -122.6 -29.35 -112.05 Q-25.6 -109.85 -22.75 -112.05 L-22.75 -118.45 Q-18.1 -116.75 -15.25 -118.45 L-15.95 -120.55 Q-9.85 -120.5 -6.0 -124.2 L-7.25 -128.95 Q0.3 -132.0 8.55 -137.85 L12.7 -134.1 Q14.95 -135.45 16.4 -137.4 L17.8 -140.05 21.1 -140.05 Q22.6 -140.2 24.15 -142.9 L21.1 -146.0 Q23.5 -146.95 24.15 -149.7 L21.3 -153.1 Q38.4 -179.4 26.95 -194.05 L30.95 -200.7 M60.1 -193.4 L68.35 -193.0 Q70.75 -192.55 72.9 -191.4 88.35 -157.6 85.75 -131.7 L82.35 -126.8 Q78.4 -121.7 72.7 -116.55 67.3 -119.65 61.85 -122.8 68.15 -127.55 73.3 -139.1 68.15 -127.55 61.85 -122.8 57.6 -119.6 52.8 -119.55 45.9 -121.5 42.1 -135.3 45.05 -131.8 46.45 -135.3 L49.3 -157.25 Q51.95 -128.05 57.5 -130.65 75.3 -132.7 69.6 -181.85 74.5 -171.95 75.1 -156.7 74.5 -171.95 69.6 -181.85 65.95 -189.1 60.1 -193.4 M124.05 54.4 Q138.35 67.65 150.6 106.9 160.25 143.6 157.5 167.2 156.8 172.55 155.6 177.2 151.85 190.85 141.35 188.4 140.05 192.7 133.35 191.6 123.8 181.35 118.05 166.0 L134.45 180.05 Q141.7 186.2 141.45 173.05 137.75 119.75 96.05 56.8 96.75 100.1 122.25 143.45 114.1 133.3 107.65 122.05 98.55 106.0 92.8 87.7 L92.4 86.55 Q89.7 77.65 87.8 68.25 89.7 77.65 92.4 86.55 78.6 45.25 74.75 49.05 81.35 39.45 89.05 36.25 97.65 32.6 107.65 36.9 L110.05 38.0 Q113.9 42.75 116.85 48.4 L117.5 49.7 Q120.8 51.35 124.05 54.4 M166.5 198.1 Q184.1 222.55 204.4 230.85 199.1 232.6 193.7 233.75 176.95 237.25 159.15 234.75 L158.55 228.85 159.15 234.75 162.45 266.2 161.75 265.65 156.45 260.65 Q157.05 244.55 151.8 223.8 L158.55 228.85 158.25 225.3 157.55 217.6 Q138.05 227.95 119.4 218.9 L119.85 213.55 Q137.9 219.1 151.15 212.4 159.9 207.95 166.5 198.1 M60.2 -3.45 Q53.3 -3.15 44.8 -5.05 52.75 -20.8 51.95 -37.85 47.85 -23.95 38.35 -13.45 45.05 -25.75 47.15 -35.65 37.95 -29.75 28.6 -32.3 30.9 -37.2 28.6 -40.05 L24.2 -38.05 Q16.45 -34.75 13.8 -41.3 14.25 -43.75 13.8 -45.95 13.05 -49.45 10.05 -52.3 13.05 -49.45 13.8 -45.95 6.35 -43.55 2.85 -44.55 1.65 -44.9 0.95 -45.7 0.1 -48.55 -0.45 -51.4 L10.05 -52.3 12.15 -71.3 14.85 -76.4 16.05 -70.5 18.85 -77.15 20.4 -68.05 20.4 -55.15 Q31.55 -66.7 46.95 -93.9 48.75 -100.85 49.8 -109.45 59.3 -104.4 70.5 -102.7 75.85 -105.65 71.85 -111.5 L72.05 -111.65 78.1 -114.6 Q80.95 -104.3 78.8 -78.95 71.6 -69.45 56.85 -64.85 67.05 -80.35 70.5 -102.7 67.05 -80.35 56.85 -64.85 47.4 -50.4 32.1 -41.9 30.4 -40.95 28.6 -40.05 30.4 -40.95 32.1 -41.9 71.55 -42.35 97.9 -72.75 105.15 -64.0 104.55 -50.4 L107.25 -58.05 Q110.55 -54.35 109.65 -46.4 L108.55 -47.0 107.65 -47.25 105.4 -47.85 Q93.0 -50.7 82.8 -47.0 63.8 -34.5 69.15 -28.0 63.35 -21.9 67.15 -14.4 63.05 -8.85 60.2 -3.45 M28.9 8.25 Q14.95 61.3 -36.9 70.85 -37.05 72.15 -37.7 72.8 L-38.6 75.9 Q-40.25 80.9 -43.0 85.55 -45.4 89.55 -48.65 93.3 L-51.7 96.5 -52.75 90.75 -51.7 96.5 -48.65 93.3 -44.95 95.55 Q-43.65 139.4 -61.5 161.95 -63.0 164.8 -64.8 167.15 -69.85 173.95 -76.55 176.65 -82.3 178.95 -86.35 175.75 L-88.9 173.05 Q-94.05 178.55 -97.5 168.05 -98.65 161.9 -93.5 149.45 -92.9 164.5 -86.05 167.05 L-80.15 151.0 Q-70.75 130.8 -68.3 102.8 L-78.05 118.8 Q-78.8 131.55 -83.05 139.75 L-88.25 145.05 Q-80.35 120.5 -80.2 94.45 -77.7 97.5 -74.0 99.15 -72.0 99.95 -69.65 100.4 -62.85 97.35 -56.3 88.55 L-52.75 90.75 -53.8 84.95 -54.55 80.8 Q-58.6 83.0 -62.75 84.6 -70.95 87.7 -79.35 88.5 L-84.5 88.8 Q-80.25 85.6 -76.4 81.45 -61.25 77.9 -47.55 67.35 -52.25 69.15 -57.75 67.35 -51.15 65.6 -47.35 61.25 L-61.75 48.9 -61.35 48.6 -59.55 47.45 -50.6 53.55 -38.05 62.15 -35.55 61.55 -34.05 60.5 Q-0.6 45.8 21.25 14.3 20.3 9.65 11.95 1.2 -0.25 26.75 -25.8 44.65 L-29.65 47.2 -31.45 48.2 Q-36.6 50.75 -39.4 49.2 -42.35 47.6 -42.8 41.9 -38.15 45.65 -33.5 41.9 -8.8 25.3 5.45 -4.45 L-10.35 8.05 Q3.35 -5.45 9.8 -23.25 8.7 -18.95 6.3 -13.6 8.7 -18.95 9.8 -23.25 11.4 -29.4 10.35 -33.35 15.4 -29.35 21.1 -27.4 L19.3 -19.15 Q16.55 -8.4 11.95 1.2 19.85 6.9 28.9 8.25 M-66.05 185.2 Q-61.1 199.2 -65.75 203.4 L-66.05 203.6 -67.9 200.1 -69.8 196.5 Q-74.05 200.25 -78.4 203.4 -98.1 217.65 -120.0 219.55 -114.65 212.0 -113.55 206.55 -110.7 205.2 -108.05 203.4 L-104.35 200.65 -108.05 203.4 Q-110.7 205.2 -113.55 206.55 -125.2 212.3 -139.8 211.0 -135.5 209.15 -131.85 206.4 -107.55 203.05 -96.5 187.05 -93.3 188.0 -89.55 188.45 -83.2 189.25 -75.4 188.5 -69.75 187.8 -66.05 185.2 M13.2 -63.65 L16.05 -70.5 17.6 -62.7 16.05 -70.5 13.2 -63.65 M78.2 -27.3 L80.9 -30.05 Q86.25 -32.75 89.65 -28.85 L91.3 -26.2 91.3 -24.85 91.3 -26.2 89.65 -28.85 Q97.05 -31.4 105.15 -29.6 L107.65 -28.95 108.0 -28.85 Q111.1 -26.95 113.65 -24.85 122.25 -7.25 119.5 20.85 L117.4 18.45 Q112.4 17.05 107.65 16.4 L104.95 16.15 98.8 15.9 99.35 4.4 Q102.95 -22.2 91.3 -24.85 L91.3 -10.0 86.85 1.5 Q92.85 -28.3 78.2 -27.3 M31.75 -65.25 Q42.2 -76.2 46.95 -93.9 42.2 -76.2 31.75 -65.25 M103.9 -16.65 Q108.05 -1.15 104.95 16.15 108.05 -1.15 103.9 -16.65 M138.4 187.45 L141.35 188.4 138.4 187.45 M122.25 62.4 Q120.4 55.65 117.5 49.7 120.4 55.65 122.25 62.4 M-36.9 70.85 Q-36.55 68.6 -37.5 64.35 L-38.05 62.15 -37.5 64.35 Q-36.55 68.6 -36.9 70.85 M-63.3 -146.65 L-69.7 -125.1 -78.05 -115.25 -67.0 -143.3 -63.3 -146.65 M-49.2 -117.4 L-46.35 -111.85 -49.2 -117.4 M-20.2 -111.25 L-18.05 -106.5 -20.2 -111.25 M-86.4 -90.6 L-83.45 -93.9 Q-82.05 -92.6 -75.2 -91.05 L-74.55 -90.9 -71.0 -90.25 -63.9 -89.7 -57.2 -89.95 Q-54.8 -81.3 -55.9 -71.7 -56.35 -68.3 -57.2 -64.8 -62.2 -47.0 -71.5 -35.4 -80.2 -38.55 -88.75 -39.7 L-99.15 -40.35 -96.3 -43.75 -96.3 -53.65 -92.65 -41.75 -82.05 -41.75 Q-69.8 -59.5 -65.65 -87.35 L-71.2 -87.35 Q-71.2 -71.7 -79.85 -60.0 -75.8 -71.85 -75.25 -87.25 L-75.2 -91.05 -75.25 -87.25 -86.4 -90.6 M-110.65 22.85 Q-98.85 26.2 -89.65 24.95 L-91.4 39.1 -106.9 28.45 -112.75 24.5 -110.65 22.85 M-93.55 -25.05 L-93.9 -25.1 -93.45 -24.95 -93.35 -25.05 Q-84.2 -31.6 -74.05 -22.3 L-73.9 -22.2 Q-71.55 -19.1 -71.35 -14.4 -77.85 -9.9 -84.45 -7.95 L-89.7 -6.75 Q-95.2 -30.35 -112.0 -25.25 -110.05 -28.75 -107.15 -29.8 -102.55 -31.6 -95.6 -27.15 L-93.8 -25.3 -93.55 -25.05 M-90.7 -15.8 Q-90.1 -21.1 -93.45 -24.95 -90.1 -21.1 -90.7 -15.8 M-87.7 -12.3 L-79.55 -16.4 Q-82.6 -20.9 -87.7 -21.05 -85.0 -16.15 -87.7 -12.3 M-12.65 -110.0 L-5.1 -97.15 -12.65 -110.0 M-76.45 -45.75 L-73.1 -55.45 -76.45 -45.75 M-129.25 58.8 Q-127.9 61.1 -125.15 60.95 -123.9 60.9 -122.3 60.25 -120.5 66.95 -115.9 66.5 L-114.8 65.5 Q-114.75 70.1 -112.65 69.95 -115.55 73.1 -119.2 73.6 L-120.2 70.35 -126.7 77.55 -130.9 67.7 -131.6 66.1 -130.9 67.7 -133.25 70.65 Q-136.15 63.25 -135.8 53.05 -134.15 54.05 -131.75 54.3 L-130.55 52.2 Q-130.55 56.6 -129.25 58.8 M-119.05 69.0 L-120.2 70.35 -119.05 69.0 M-91.9 166.95 Q-90.6 170.65 -88.9 173.05 -90.6 170.65 -91.9 166.95" fill="#525319" fill-rule="evenodd" stroke="none"/>
    <path d="M52.15 -191.6 Q56.0 -193.1 60.1 -193.4 65.95 -189.1 69.6 -181.85 75.3 -132.7 57.5 -130.65 51.95 -128.05 49.3 -157.25 L46.45 -135.3 Q45.05 -131.8 42.1 -135.3 L36.2 -139.2 35.9 -141.7 Q30.05 -183.3 52.15 -191.6 L52.9 -190.75 52.15 -191.6 M44.8 -5.05 L42.1 -5.75 Q29.8 -9.05 19.3 -19.15 L21.1 -27.4 24.4 -26.55 Q25.95 -27.7 24.65 -30.9 28.05 -30.65 28.6 -32.3 37.95 -29.75 47.15 -35.65 45.05 -25.75 38.35 -13.45 47.85 -23.95 51.95 -37.85 52.75 -20.8 44.8 -5.05 M-1.65 -68.8 Q0.4 -98.3 31.2 -124.25 39.45 -114.9 49.8 -109.45 48.75 -100.85 46.95 -93.9 31.55 -66.7 20.4 -55.15 L20.4 -68.05 18.85 -77.15 16.05 -70.5 14.85 -76.4 12.15 -71.3 10.05 -52.3 -0.45 -51.4 Q-2.25 -60.25 -1.65 -68.8 M39.9 -145.6 Q40.85 -139.8 42.1 -135.3 40.85 -139.8 39.9 -145.6 M17.85 -82.7 L14.85 -76.4 14.4 -78.7 11.95 -91.05 14.4 -78.7 17.55 -84.2 16.0 -92.95 17.55 -84.2 14.4 -78.7 14.85 -76.4 17.85 -82.7 17.55 -84.2 23.3 -94.25 17.85 -82.7 23.3 -94.25 17.55 -84.2 17.85 -82.7 18.85 -77.15 22.95 -87.3 18.85 -77.15 17.85 -82.7 M8.15 -67.75 L14.4 -78.7 8.15 -67.75 M-0.65 -37.3 L0.3 -37.0 3.85 -39.7 Q9.05 -38.1 10.35 -33.35 11.4 -29.4 9.8 -23.25 3.35 -5.45 -10.35 8.05 L5.45 -4.45 Q-8.8 25.3 -33.5 41.9 -38.15 45.65 -42.8 41.9 L-43.5 41.9 Q-48.45 42.0 -50.75 40.95 -53.35 39.8 -52.6 37.15 L-53.05 36.15 Q-54.55 31.65 -51.55 18.05 L-50.15 11.95 Q-39.35 -16.3 -17.55 -32.75 L-8.3 -38.9 -7.0 -39.7 -0.65 -37.3 M-42.55 33.1 Q-43.15 38.3 -42.8 41.9 -43.15 38.3 -42.55 33.1 M-67.0 -143.3 L-78.05 -115.25 -69.7 -125.1 -70.95 -121.0 Q-69.65 -110.45 -75.8 -102.15 L-78.7 -103.65 Q-83.5 -106.9 -85.5 -117.8 -86.6 -123.85 -86.8 -132.2 L-82.45 -129.25 -67.0 -143.3 M-99.15 -40.35 Q-103.0 -48.0 -100.2 -61.5 -96.65 -78.35 -86.4 -90.6 L-75.25 -87.25 Q-75.8 -71.85 -79.85 -60.0 -71.2 -71.7 -71.2 -87.35 L-65.65 -87.35 Q-69.8 -59.5 -82.05 -41.75 L-92.65 -41.75 -96.3 -53.65 -96.3 -43.75 -99.15 -40.35 M-89.55 -51.85 L-89.55 -69.25 -89.55 -73.1 -89.5 -73.5 -89.4 -75.75 -89.5 -73.5 -89.55 -73.1 -89.55 -69.25 Q-89.1 -58.95 -84.05 -51.85 -89.1 -58.95 -89.55 -69.25 L-89.55 -51.85 M-112.0 -25.25 Q-95.2 -30.35 -89.7 -6.75 -102.55 -4.9 -115.8 -12.45 -114.6 -20.85 -112.0 -25.25 M-87.7 -12.3 Q-85.0 -16.15 -87.7 -21.05 -82.6 -20.9 -79.55 -16.4 L-87.7 -12.3 M-36.55 16.35 Q-31.7 0.45 -18.7 -12.7 L-13.85 -17.35 -18.7 -12.7 Q-31.7 0.45 -36.55 16.35 M-13.15 -20.75 Q-10.9 -24.65 -8.35 -27.95 -4.35 -33.25 0.3 -37.0 -4.35 -33.25 -8.35 -27.95 -10.9 -24.65 -13.15 -20.75 M-61.75 48.9 L-47.35 61.25 Q-51.15 65.6 -57.75 67.35 -52.25 69.15 -47.55 67.35 -61.25 77.9 -76.4 81.45 L-73.45 78.0 Q-68.6 72.05 -64.5 64.55 L-78.75 64.55 Q-76.05 60.7 -72.4 57.2 L-69.25 54.4 Q-65.85 51.5 -61.75 48.9" fill="url(#gradient2)" fill-rule="evenodd" stroke="none"/>
    <path d="M85.25 -98.25 Q94.75 -95.9 91.8 -89.6 101.55 -87.05 97.9 -72.75 71.55 -42.35 32.1 -41.9 47.4 -50.4 56.85 -64.85 71.6 -69.45 78.8 -78.95 82.95 -84.35 84.65 -91.3 L85.25 -98.25 M117.35 -40.7 Q121.9 -36.4 125.3 -30.6 126.6 -25.3 123.8 -20.0 125.15 -15.9 123.75 -11.45 120.6 -19.1 113.65 -24.85 111.1 -26.95 108.0 -28.85 L107.65 -28.95 105.15 -29.6 Q111.55 -28.55 110.2 -33.6 L110.7 -34.0 Q101.4 -36.7 89.9 -36.55 101.15 -37.75 112.05 -36.55 113.25 -41.15 105.4 -47.85 L107.65 -47.25 108.55 -47.0 109.65 -46.4 Q113.85 -44.0 117.35 -40.7 M121.75 24.45 Q123.45 28.05 122.25 30.95 132.45 36.7 124.05 54.4 120.8 51.35 117.5 49.7 L116.85 48.4 Q113.9 42.75 110.05 38.0 L107.65 36.9 Q97.65 32.6 89.05 36.25 95.3 27.15 85.25 27.3 92.25 18.6 84.15 18.45 91.1 16.0 98.8 15.9 L104.95 16.15 107.65 16.4 Q112.4 17.05 117.4 18.45 L119.5 20.85 Q120.95 22.7 121.75 24.45 M157.5 167.2 Q169.4 173.2 163.15 182.35 169.6 187.05 166.5 198.1 159.9 207.95 151.15 212.4 155.15 203.05 148.85 198.85 140.95 203.55 134.0 202.15 L126.65 201.7 145.5 195.05 133.35 191.6 Q140.05 192.7 141.35 188.4 151.85 190.85 155.6 177.2 156.8 172.55 157.5 167.2 M42.1 -5.75 Q42.15 4.05 37.05 2.05 35.85 8.3 31.65 8.6 L28.9 8.25 Q19.85 6.9 11.95 1.2 16.55 -8.4 19.3 -19.15 29.8 -9.05 42.1 -5.75 M-64.8 167.15 Q-61.9 170.15 -64.3 173.55 -60.75 177.4 -62.95 182.3 -64.3 183.95 -66.05 185.2 -69.75 187.8 -75.4 188.5 -83.2 189.25 -89.55 188.45 -84.85 185.8 -86.15 181.9 L-88.95 181.65 Q-86.0 180.1 -86.35 175.75 -82.3 178.95 -76.55 176.65 -69.85 173.95 -64.8 167.15 M21.3 -153.1 L9.65 -166.75 Q18.35 -173.45 21.5 -182.35 L20.35 -184.95 Q24.0 -189.5 26.95 -194.05 38.4 -179.4 21.3 -153.1 M49.8 -109.45 Q53.1 -109.3 46.3 -116.1 L46.25 -116.15 52.8 -119.55 Q57.6 -119.6 61.85 -122.8 67.3 -119.65 72.7 -116.55 75.1 -113.25 72.05 -111.65 L71.85 -111.5 Q75.85 -105.65 70.5 -102.7 59.3 -104.4 49.8 -109.45 M70.2 -110.9 L71.85 -111.5 70.2 -110.9 M62.55 -110.9 Q53.9 -110.7 46.3 -116.1 53.9 -110.7 62.55 -110.9 M13.8 -45.95 Q14.25 -43.75 13.8 -41.3 16.45 -34.75 24.2 -38.05 L28.6 -40.05 Q30.9 -37.2 28.6 -32.3 28.05 -30.65 24.65 -30.9 25.95 -27.7 24.4 -26.55 L21.1 -27.4 Q15.4 -29.35 10.35 -33.35 9.05 -38.1 3.85 -39.7 L0.3 -37.0 -0.65 -37.3 2.55 -41.45 Q5.25 -40.15 6.65 -40.15 5.25 -40.15 2.55 -41.45 L2.85 -44.55 Q6.35 -43.55 13.8 -45.95 M-8.3 -38.9 L-17.55 -32.75 Q-17.5 -63.3 -28.55 -87.5 -21.5 -80.35 -13.3 -75.1 -8.8 -58.15 -8.3 -38.9 M-50.75 40.95 Q-48.45 42.0 -43.5 41.9 L-42.8 41.9 Q-42.35 47.6 -39.4 49.2 -36.6 50.75 -31.45 48.2 -30.25 50.55 -29.85 52.25 -28.6 57.0 -32.75 57.2 L-33.9 57.15 -33.5 58.4 Q-33.35 59.6 -34.05 60.5 L-38.05 62.15 -50.6 53.55 Q-45.95 52.8 -45.55 49.25 L-44.55 45.55 -50.75 40.95 M13.75 -36.0 L24.65 -30.9 13.75 -36.0 M87.75 -84.25 Q90.65 -87.25 91.8 -89.6 90.65 -87.25 87.75 -84.25 M123.8 -20.0 Q121.35 -27.25 110.2 -33.6 121.35 -27.25 123.8 -20.0 M122.25 30.95 Q119.95 29.6 116.6 29.0 119.95 29.6 122.25 30.95 M29.0 7.75 L28.9 8.25 29.0 7.75 M155.35 194.0 Q152.05 196.95 148.85 198.85 152.05 196.95 155.35 194.0 M25.5 -2.2 L37.05 2.05 25.5 -2.2 M156.8 188.9 Q161.05 185.45 163.15 182.35 161.05 185.45 156.8 188.9 M-7.25 -128.95 L-11.95 -146.2 -8.4 -144.0 -8.4 -149.05 -3.85 -151.2 -3.05 -150.25 -2.75 -150.0 -2.25 -149.4 Q3.25 -142.8 8.55 -137.85 0.3 -132.0 -7.25 -128.95 M-44.2 -133.5 L-41.7 -141.45 Q-41.35 -146.05 -34.8 -128.0 -39.7 -129.9 -44.2 -133.5 M-68.2 -100.0 Q-63.45 -99.45 -58.55 -100.8 L-57.5 -101.7 Q-54.4 -97.45 -57.2 -93.9 -55.8 -90.75 -57.2 -89.95 L-63.9 -89.7 -71.0 -90.25 Q-68.05 -91.8 -70.25 -94.2 L-69.0 -94.05 Q-66.15 -96.65 -68.2 -100.0 M-90.1 -134.45 L-86.8 -132.2 Q-86.6 -123.85 -85.5 -117.8 -96.65 -127.65 -109.85 -131.65 -100.85 -134.4 -91.2 -134.45 L-90.1 -134.45 M-130.95 -10.85 Q-131.0 -14.35 -129.05 -15.85 L-116.7 -8.8 Q-125.5 -13.2 -130.95 -10.85 M-134.85 9.65 L-134.85 1.9 Q-133.65 9.15 -127.25 14.7 L-134.85 9.65 M-83.75 23.6 Q-80.85 19.45 -83.95 16.6 -92.4 19.3 -102.15 17.85 -90.65 16.05 -80.55 11.0 -76.25 5.95 -80.55 0.8 -95.85 3.8 -107.85 -3.25 -95.0 0.35 -85.25 -1.05 -82.0 -3.2 -84.45 -7.95 -77.85 -9.9 -71.35 -14.4 -71.55 -19.1 -73.9 -22.2 L-74.05 -22.3 Q-84.2 -31.6 -93.35 -25.05 L-93.55 -25.05 -93.8 -25.3 Q-89.7 -29.75 -90.5 -34.15 -86.15 -34.95 -88.75 -39.7 -80.2 -38.55 -71.5 -35.4 -71.9 -30.45 -73.1 -26.7 -71.0 -23.65 -73.1 -22.05 L-67.3 -24.15 Q-63.65 -24.0 -61.35 -21.75 -58.3 -9.35 -59.55 1.9 -59.95 4.85 -61.75 5.6 -67.0 5.95 -71.4 9.5 -67.8 11.05 -68.6 14.15 -75.3 20.95 -83.75 23.6 M-87.35 -33.15 Q-88.95 -33.75 -90.5 -34.15 -88.95 -33.75 -87.35 -33.15 M-63.55 -94.0 L-66.25 -93.9 -69.0 -94.05 -66.25 -93.9 -63.55 -94.0 M-69.25 -7.45 L-70.85 -5.95 -72.8 -4.4 Q-76.0 -2.35 -78.65 -3.05 -76.0 -2.35 -72.8 -4.4 L-70.85 -5.95 -69.25 -7.45 -69.85 -2.35 Q-68.85 -1.05 -67.5 -1.05 -66.15 -1.05 -65.15 -2.4 -64.2 -3.75 -64.2 -5.6 -64.2 -7.5 -65.15 -8.85 -65.95 -9.9 -67.0 -10.15 L-67.15 -9.8 -69.25 -7.45 M-73.1 -22.05 L-73.9 -22.2 -73.1 -22.05 Q-70.25 -20.1 -68.6 -18.15 L-65.6 -18.15 Q-61.55 -12.05 -62.7 2.45 L-70.85 5.3 -71.4 9.5 -70.85 5.3 -62.7 2.45 Q-61.55 -12.05 -65.6 -18.15 L-68.6 -18.15 Q-70.25 -20.1 -73.1 -22.05 M-68.6 -18.15 Q-65.05 -14.05 -67.0 -10.15 -65.05 -14.05 -68.6 -18.15 M-70.85 5.3 L-69.85 -2.35 -70.85 5.3 M-82.2 -31.7 Q-75.25 -29.75 -73.1 -26.7 -75.25 -29.75 -82.2 -31.7 M-36.7 56.6 L-33.9 57.15 -36.7 56.6 M-39.35 53.35 L-45.55 49.25 -39.35 53.35 M-74.35 11.9 Q-78.05 14.4 -82.05 15.95 L-83.95 16.6 -82.05 15.95 Q-78.05 14.4 -74.35 11.9 M-72.15 179.4 Q-79.65 182.25 -86.15 181.9 -79.65 182.25 -72.15 179.4 M-67.15 176.45 Q-65.3 175.0 -64.3 173.55 -65.3 175.0 -67.15 176.45" fill="#28231b" fill-rule="evenodd" stroke="none"/>
    <path d="M-85.4 -147.55 L-76.2 -158.0 Q-91.0 -163.5 -92.15 -168.15 -93.0 -168.95 -88.2 -177.8 -83.2 -175.85 -78.3 -178.35 -80.6 -178.25 -85.75 -182.15 -105.85 -216.8 -94.45 -248.85 L-93.55 -251.2 Q-86.45 -265.95 -74.7 -265.6 -80.8 -258.45 -84.75 -247.15 -74.6 -265.2 -60.05 -271.6 -44.05 -278.65 -22.75 -271.6 L-20.8 -270.9 Q-18.7 -269.35 -16.75 -267.3 -8.7 -249.4 -10.55 -229.65 L-36.75 -200.15 -41.3 -195.1 -3.4 -199.0 -4.2 -210.2 -5.9 -234.95 -8.2 -232.25 Q-5.65 -242.05 -6.35 -248.85 7.95 -227.0 3.65 -199.75 L-0.2 -196.9 Q10.25 -190.6 13.05 -182.4 12.15 -176.6 10.15 -171.55 2.7 -164.0 -7.2 -161.0 L5.8 -161.0 11.05 -149.2 -0.05 -153.9 Q6.35 -146.35 12.35 -140.9 L16.4 -137.45 16.4 -137.4 Q14.95 -135.45 12.7 -134.1 L8.55 -137.85 Q3.25 -142.8 -2.25 -149.4 L-2.75 -150.0 -3.05 -150.25 -3.8 -151.25 -3.85 -151.2 Q-9.9 -162.7 -19.7 -168.5 -15.6 -147.9 -16.15 -129.25 L-31.05 -166.35 Q-26.45 -140.1 -28.4 -120.1 -30.2 -118.95 -32.85 -122.6 L-34.8 -128.0 Q-41.35 -146.05 -41.7 -141.45 L-44.2 -133.5 -44.2 -142.95 -54.4 -116.25 -62.35 -113.7 -57.8 -149.95 -61.55 -140.45 -66.0 -121.0 -70.95 -121.0 -69.7 -125.1 -63.3 -146.65 -61.85 -154.5 Q-73.15 -141.7 -86.8 -132.2 L-90.1 -134.45 -90.7 -134.85 -87.8 -139.15 -95.7 -136.0 -88.9 -143.65 -85.7 -147.25 -85.4 -147.55 -83.6 -147.1 -85.4 -147.55 M-83.65 -220.1 L-89.6 -224.15 -83.75 -193.35 -78.4 -193.95 -72.25 -167.5 -70.8 -180.95 -69.3 -194.3 -56.4 -193.35 -63.0 -201.8 -69.65 -210.2 -67.55 -229.75 -66.0 -244.25 -77.6 -216.25 -77.65 -216.1 -83.65 -220.1 M-65.2 -246.15 L-66.0 -244.25 -65.2 -246.15 M-32.45 -228.2 L-34.7 -239.75 -30.8 -234.7 -29.0 -240.85 -30.8 -234.7 -28.2 -231.25 -30.8 -234.7 -34.7 -239.75 -32.45 -228.2 M-35.5 -244.15 L-34.7 -239.75 -37.8 -243.9 -34.7 -239.75 -35.5 -244.15 M-31.35 -237.4 L-30.0 -245.65 -31.35 -237.4 M-32.6 -240.05 L-32.6 -251.45 -32.6 -240.05 M-46.0 -182.55 L-49.1 -188.25 Q-55.7 -174.45 -56.6 -164.65 L-51.25 -164.65 -39.25 -164.65 Q-41.4 -173.3 -46.0 -182.55 M-73.3 -156.95 L-76.2 -158.0 -73.3 -156.95 M-84.5 -144.0 L-87.8 -139.15 -84.5 -144.0" fill="url(#gradient3)" fill-rule="evenodd" stroke="none"/>
    <path d="M119.85 213.55 Q113.45 210.85 116.8 198.35 109.65 193.65 113.95 183.15 122.8 188.45 133.35 191.6 L145.5 195.05 126.65 201.7 134.0 202.15 Q140.95 203.55 148.85 198.85 155.15 203.05 151.15 212.4 137.9 219.1 119.85 213.55 M65.9 83.5 Q59.45 82.1 57.35 70.05 57.2 67.25 58.25 63.7 50.2 59.3 52.2 47.3 55.4 41.9 58.95 37.35 L59.25 37.9 58.95 37.35 Q70.0 23.3 84.15 18.45 92.25 18.6 85.25 27.3 95.3 27.15 89.05 36.25 81.35 39.45 74.75 49.05 67.85 66.95 65.9 83.5 M-107.45 176.65 Q-106.35 174.35 -103.2 171.5 -104.5 168.1 -98.5 163.35 L-97.5 168.05 Q-94.05 178.55 -88.9 173.05 L-86.35 175.75 Q-86.0 180.1 -88.95 181.65 -92.7 181.05 -96.05 179.4 -92.7 181.05 -88.95 181.65 L-86.15 181.9 Q-84.85 185.8 -89.55 188.45 -93.3 188.0 -96.5 187.05 -103.2 184.95 -107.6 180.55 -108.5 178.9 -107.45 176.65 M31.2 -124.25 L28.75 -127.2 Q27.8 -131.7 32.75 -130.05 L35.1 -133.45 32.85 -136.3 Q31.7 -139.65 35.9 -141.7 L36.2 -139.2 42.1 -135.3 Q45.9 -121.5 52.8 -119.55 L46.25 -116.15 46.3 -116.1 Q53.1 -109.3 49.8 -109.45 39.45 -114.9 31.2 -124.25 M-4.95 -70.35 L-1.65 -68.8 Q-2.25 -60.25 -0.45 -51.4 0.1 -48.55 0.95 -45.7 1.65 -44.9 2.85 -44.55 L2.55 -41.45 Q-0.25 -42.75 -4.45 -45.45 -0.25 -42.75 2.55 -41.45 L-0.65 -37.3 -7.0 -39.7 Q-9.5 -44.3 -4.45 -45.45 -4.3 -48.55 -2.55 -50.15 -1.7 -50.95 -0.45 -51.4 -1.7 -50.95 -2.55 -50.15 L-5.15 -53.9 Q-6.65 -55.95 -4.8 -61.25 L-7.75 -64.4 Q-7.8 -67.65 -4.95 -70.35 M37.25 -124.85 Q41.55 -119.45 46.25 -116.15 41.55 -119.45 37.25 -124.85 M42.55 -127.15 Q38.65 -128.9 35.1 -133.45 38.65 -128.9 42.55 -127.15 M-53.05 36.15 L-52.6 37.15 Q-53.35 39.8 -50.75 40.95 L-44.55 45.55 -45.55 49.25 Q-45.95 52.8 -50.6 53.55 L-59.55 47.45 -60.1 45.5 Q-60.45 43.15 -58.75 41.9 -57.95 41.3 -56.8 40.9 -58.2 36.75 -53.05 36.15 M67.15 -14.4 Q63.35 -21.9 69.15 -28.0 63.8 -34.5 82.8 -47.0 93.0 -50.7 105.4 -47.85 113.25 -41.15 112.05 -36.55 101.15 -37.75 89.9 -36.55 101.4 -36.7 110.7 -34.0 L110.2 -33.6 Q111.55 -28.55 105.15 -29.6 97.05 -31.4 89.65 -28.85 86.25 -32.75 80.9 -30.05 L78.2 -27.3 Q71.85 -20.75 67.15 -14.4 M77.9 -34.7 Q72.25 -31.4 69.15 -28.0 72.25 -31.4 77.9 -34.7 M58.25 63.7 Q59.65 58.65 63.4 52.1 59.65 58.65 58.25 63.7 M126.65 201.7 Q120.35 200.75 116.8 198.35 120.35 200.75 126.65 201.7 M-181.2 -20.95 L-186.7 -24.55 Q-182.6 -70.45 -155.25 -104.45 -134.45 -130.6 -108.55 -139.5 -99.1 -142.75 -88.9 -143.65 L-95.7 -136.0 -87.8 -139.15 -90.7 -134.85 -90.1 -134.45 -91.2 -134.45 Q-100.85 -134.4 -109.85 -131.65 -132.6 -124.75 -151.5 -100.5 -177.4 -67.45 -181.2 -20.95 M-75.8 -102.15 Q-73.15 -100.95 -70.4 -100.4 L-68.2 -100.0 Q-66.15 -96.65 -69.0 -94.05 L-70.25 -94.2 Q-68.05 -91.8 -71.0 -90.25 L-74.55 -90.9 -75.2 -91.05 Q-82.05 -92.6 -83.45 -93.9 -83.6 -97.1 -81.45 -98.25 -81.25 -101.65 -78.7 -103.65 L-75.8 -102.15 M-116.7 -8.8 L-129.05 -15.85 Q-131.0 -14.35 -130.95 -10.85 -125.5 -13.2 -116.7 -8.8 M-139.55 6.5 Q-140.8 -7.1 -134.1 -19.4 -129.95 -22.85 -125.75 -19.4 -120.75 -15.25 -115.8 -12.45 -102.55 -4.9 -89.7 -6.75 L-84.45 -7.95 Q-82.0 -3.2 -85.25 -1.05 -95.0 0.35 -107.85 -3.25 -95.85 3.8 -80.55 0.8 -76.25 5.95 -80.55 11.0 -90.65 16.05 -102.15 17.85 -92.4 19.3 -83.95 16.6 -80.85 19.45 -83.75 23.6 L-89.65 24.95 Q-98.85 26.2 -110.65 22.85 L-109.6 22.05 Q-112.5 13.55 -117.2 12.1 -119.05 11.5 -121.2 12.05 -124.0 13.1 -125.5 15.9 L-127.25 14.7 Q-133.65 9.15 -134.85 1.9 L-134.85 9.65 -139.55 6.5 M-105.95 17.05 L-102.15 17.85 -105.95 17.05 M-124.85 -8.8 L-127.8 -8.8 Q-129.4 -8.8 -130.55 -7.25 -131.7 -5.65 -131.7 -3.45 -131.7 -1.25 -130.55 0.25 -129.4 1.85 -127.8 1.85 L-124.85 1.85 Q-123.25 1.85 -122.1 0.25 -120.95 -1.25 -120.95 -3.45 -120.95 -5.65 -122.1 -7.25 -123.25 -8.8 -124.85 -8.8 M-99.15 -40.35 L-88.75 -39.7 Q-86.15 -34.95 -90.5 -34.15 -89.7 -29.75 -93.8 -25.3 L-95.6 -27.15 Q-102.55 -31.6 -107.15 -29.8 -106.5 -32.25 -102.85 -33.8 -103.95 -36.65 -99.15 -40.35 M-102.85 -33.8 Q-97.15 -35.9 -90.5 -34.15 -97.15 -35.9 -102.85 -33.8 M-80.1 -97.1 Q-75.15 -94.9 -70.25 -94.2 -75.15 -94.9 -80.1 -97.1 M-51.8 45.2 L-45.55 49.25 -51.8 45.2 M-180.85 11.7 Q-177.7 39.9 -163.5 62.1 -145.2 90.65 -117.9 94.8 L-108.15 95.45 -98.3 94.65 -99.9 101.2 -107.1 100.8 -118.3 98.95 Q-148.65 91.55 -168.25 60.8 -183.25 37.45 -185.9 8.65 L-180.85 11.7 M-100.5 174.35 Q-102.65 173.1 -103.2 171.5 -102.65 173.1 -100.5 174.35" fill="url(#gradient4)" fill-rule="evenodd" stroke="none"/>
    <path d="M-5.1 -97.15 L-8.75 -110.65 4.45 -116.65 0.75 -125.5 9.25 -132.35 16.5 -120.35 Q2.95 -105.65 -2.05 -89.6 -5.0 -80.2 -4.95 -70.35 -9.3 -72.5 -13.3 -75.1 -21.5 -80.35 -28.55 -87.5 -37.1 -96.2 -44.0 -107.7 L-35.9 -107.7 -30.75 -102.35 -18.05 -106.5 Q-13.0 -95.9 -7.9 -92.3 L-2.05 -89.6 -5.1 -97.15 -4.15 -95.45 -5.7 -109.05 -4.15 -95.45 -5.1 -97.15" fill="url(#gradient5)" fill-rule="evenodd" stroke="none"/>
    <path d="M122.05 251.8 Q115.35 258.65 107.3 263.65 116.75 243.6 119.4 218.9 138.05 227.95 157.55 217.6 L158.25 225.3 158.55 228.85 151.8 223.8 Q157.05 244.55 156.45 260.65 L150.25 253.35 Q143.05 243.9 137.0 230.85 130.75 242.9 122.05 251.8 M113.95 183.15 L107.65 179.0 103.6 175.75 Q59.6 136.4 65.9 83.5 67.85 66.95 74.75 49.05 78.6 45.25 92.4 86.55 L92.8 87.7 Q98.55 106.0 107.65 122.05 114.1 133.3 122.25 143.45 96.75 100.1 96.05 56.8 137.75 119.75 141.45 173.05 141.7 186.2 134.45 180.05 L118.05 166.0 Q123.8 181.35 133.35 191.6 122.8 188.45 113.95 183.15 M58.95 37.35 L58.4 36.4 Q49.05 17.9 60.2 -3.45 63.05 -8.85 67.15 -14.4 71.85 -20.75 78.2 -27.3 92.85 -28.3 86.85 1.5 L91.3 -10.0 91.3 -24.85 Q102.95 -22.2 99.35 4.4 L98.8 15.9 Q91.1 16.0 84.15 18.45 70.0 23.3 58.95 37.35 M125.35 136.05 L110.05 99.9 125.35 136.05 M127.25 149.4 L122.25 143.45 127.25 149.4" fill="url(#gradient6)" fill-rule="evenodd" stroke="none"/>
    <path d="M-50.25 -312.0 Q-51.85 -314.2 -53.8 -316.1 -47.7 -320.15 -41.1 -321.6 -35.6 -322.85 -29.7 -322.3 L-29.4 -321.6 Q-20.75 -302.0 -22.5 -283.05 -25.65 -307.85 -33.4 -316.65 L-37.35 -316.2 Q-33.95 -304.1 -33.9 -295.35 -36.6 -307.9 -41.05 -315.4 -45.55 -314.25 -50.25 -312.0" fill="#5e451a" fill-rule="evenodd" stroke="none"/>
    <path d="M-42.25 -277.7 Q-40.45 -298.85 -50.25 -312.0 -45.55 -314.25 -41.05 -315.4 -36.6 -307.9 -33.9 -295.35 -33.95 -304.1 -37.35 -316.2 L-33.4 -316.65 Q-25.65 -307.85 -22.5 -283.05 L-23.3 -277.55 Q-16.8 -277.55 -13.7 -275.8 -17.0 -274.25 -20.1 -271.6 L-20.8 -270.9 -21.75 -271.6 -24.9 -273.55 Q-34.25 -276.9 -42.25 -277.7" fill="url(#gradient7)" fill-rule="evenodd" stroke="none"/>
    <path d="M-85.75 -182.15 Q-100.55 -197.7 -102.65 -216.25 L-103.0 -221.4 Q-102.7 -249.45 -91.55 -262.0 -80.35 -274.6 -70.4 -269.8 L-68.2 -271.6 Q-57.55 -279.25 -42.25 -277.7 -34.25 -276.9 -24.9 -273.55 L-21.75 -271.6 -20.8 -270.9 -22.75 -271.6 Q-44.05 -278.65 -60.05 -271.6 -74.6 -265.2 -84.75 -247.15 -80.8 -258.45 -74.7 -265.6 -86.45 -265.95 -93.55 -251.2 L-94.45 -248.85 Q-105.85 -216.8 -85.75 -182.15 M-70.4 -269.8 L-74.7 -265.6 -70.4 -269.8 M-125.5 15.9 Q-124.0 13.1 -121.2 12.05 -128.4 21.8 -124.4 31.6 L-126.45 25.9 -127.2 23.15 Q-127.0 18.65 -125.5 15.9 M-116.45 32.75 L-119.85 37.55 -119.35 35.1 Q-117.85 33.65 -116.45 32.75 M-120.2 38.2 Q-126.65 48.2 -129.25 58.8 -130.55 56.6 -130.55 52.2 L-121.8 36.25 -120.2 38.2 M-128.45 27.95 L-138.6 49.65 Q-139.6 47.0 -139.25 43.0 L-136.9 38.85 Q-133.35 33.0 -128.45 27.95 M-97.0 90.05 Q-99.45 85.85 -96.95 77.55 -103.7 75.1 -103.35 71.95 -103.6 68.75 -97.7 63.0 -100.25 72.7 -93.7 78.6 -97.25 88.65 -89.2 94.1 L-91.65 93.25 Q-94.4 92.05 -97.0 90.05 M-93.7 78.6 L-96.95 77.55 -93.7 78.6" fill="#f9ad40" fill-rule="evenodd" stroke="none"/>
    <path d="M-83.75 -193.35 L-89.6 -224.15 -83.65 -220.1 -78.4 -202.45 -83.75 -193.35 M-74.75 -202.45 L-70.8 -180.95 -72.25 -167.5 -78.4 -193.95 -74.75 -202.45 M-69.3 -194.3 L-67.9 -201.8 -63.0 -201.8 -56.4 -193.35 -69.3 -194.3 M-4.2 -210.2 L-3.4 -199.0 -41.3 -195.1 -36.75 -200.15 -4.2 -210.2 M-51.25 -164.65 L-56.6 -164.65 Q-55.7 -174.45 -49.1 -188.25 L-46.0 -182.55 Q-50.95 -173.55 -51.25 -164.65" fill="#fcc176" fill-rule="evenodd" stroke="none"/>
    <path d="M-77.65 -216.1 L-77.6 -216.25 -66.0 -244.25 -67.55 -229.75 -72.75 -216.1 -77.65 -216.1 M-78.4 -202.45 L-74.75 -202.45 -78.4 -193.95 -83.75 -193.35 -78.4 -202.45" fill="#d6a463" fill-rule="evenodd" stroke="none"/>
    <path d="M-83.65 -220.1 L-77.65 -216.1 -72.75 -216.1 -67.55 -229.75 -69.65 -210.2 -63.0 -201.8 -67.9 -201.8 -69.3 -194.3 -70.8 -180.95 -74.75 -202.45 -78.4 -202.45 -83.65 -220.1 M-8.2 -232.25 L-5.9 -234.95 -4.2 -210.2 -36.75 -200.15 -10.55 -229.65 -8.2 -232.25 M-46.0 -182.55 Q-41.4 -173.3 -39.25 -164.65 L-51.25 -164.65 Q-50.95 -173.55 -46.0 -182.55" fill="#5d3701" fill-rule="evenodd" stroke="none"/>
    <path d="M-254.25 -30.7 Q-254.85 -28.3 -256.2 -26.3 -259.55 -21.6 -267.3 -19.15 -280.0 -18.65 -286.3 -27.25 -291.95 -39.65 -285.45 -51.85 -282.05 -56.2 -274.35 -58.45 -270.15 -59.65 -267.95 -62.05 -267.55 -56.9 -270.05 -53.35 -266.55 -54.15 -264.75 -56.4 -263.95 -61.0 -264.75 -64.4 L-265.8 -66.7 -271.35 -78.8 Q-275.3 -89.55 -264.25 -98.4 -260.1 -100.6 -256.2 -101.0 -251.25 -101.55 -246.85 -99.15 -230.0 -69.05 -241.15 -51.5 -224.85 -48.05 -203.75 -35.5 L-203.7 -35.5 -197.35 -31.4 -189.8 -26.55 -186.7 -24.55 -181.2 -20.95 -153.45 -2.75 -137.4 12.6 -187.95 -21.65 -136.9 16.75 -140.95 20.05 -225.3 -35.4 -184.35 -5.1 -154.35 15.65 Q-195.9 -0.2 -249.85 -37.2 L-254.25 -30.7 M-252.35 -87.65 Q-252.8 -90.2 -255.25 -92.2 -252.8 -90.2 -252.35 -87.65 M-254.75 -85.6 Q-255.3 -87.6 -256.2 -89.05 -258.05 -92.05 -261.35 -93.2 -258.05 -92.05 -256.2 -89.05 -255.3 -87.6 -254.75 -85.6 M-248.65 -83.9 Q-248.15 -87.95 -250.85 -90.8 -248.15 -87.95 -248.65 -83.9" fill="#ffe6bb" fill-rule="evenodd" stroke="none"/>
    <path d="M-205.25 -3.3 L-249.65 -30.7 Q-251.95 -32.25 -254.25 -30.7 L-249.85 -37.2 Q-195.9 -0.2 -154.35 15.65 L-184.35 -5.1 -225.3 -35.4 -140.95 20.05 -136.9 16.75 -187.95 -21.65 -137.4 12.6 -153.45 -2.75 -139.55 6.5 -134.85 9.65 -127.25 14.7 -125.5 15.9 Q-127.0 18.65 -127.2 23.15 L-126.45 25.9 -128.45 27.95 Q-133.35 33.0 -136.9 38.85 L-180.85 11.7 -185.9 8.65 -190.85 5.6 -199.15 0.5 -205.25 -3.3 M-267.95 -62.05 Q-266.2 -63.95 -265.8 -66.7 L-264.75 -64.4 Q-263.95 -61.0 -264.75 -56.4 -266.55 -54.15 -270.05 -53.35 -267.55 -56.9 -267.95 -62.05 M-246.85 -99.15 Q-243.35 -97.2 -240.15 -93.35 -234.85 -86.55 -231.65 -73.35 -231.2 -62.75 -234.7 -55.15 L-203.75 -35.5 Q-224.85 -48.05 -241.15 -51.5 -230.0 -69.05 -246.85 -99.15 M-124.85 1.85 L-127.8 1.85 Q-129.4 1.85 -130.55 0.25 -131.7 -1.25 -131.7 -3.45 -131.7 -5.65 -130.55 -7.25 -129.4 -8.8 -127.8 -8.8 L-124.85 -8.8 Q-127.0 -8.05 -127.6 -7.25 -128.75 -5.65 -128.75 -3.45 -128.75 -1.25 -127.6 0.25 -127.0 1.05 -124.85 1.85 M-106.9 28.45 L-108.85 30.6 -107.1 33.65 -92.45 43.85 -106.0 36.8 -83.7 55.3 -89.1 53.55 -80.4 61.3 -81.95 62.75 -96.45 54.65 -100.1 61.55 -103.0 59.75 Q-100.65 54.45 -100.05 50.6 -99.8 48.55 -99.9 46.95 L-105.0 46.95 Q-104.35 43.2 -105.75 39.9 -109.1 38.8 -112.4 42.05 -110.2 35.9 -110.85 31.55 L-113.85 31.5 Q-115.1 31.8 -116.45 32.75 -117.85 33.65 -119.35 35.1 -117.8 28.95 -112.75 24.5 L-106.9 28.45 M-86.35 57.75 L-100.05 50.6 -86.35 57.75 M-137.5 27.25 L-154.35 15.65 -137.5 27.25" fill="#c9bda9" fill-rule="evenodd" stroke="none"/>
    <path d="M-99.85 -149.6 Q-92.35 -149.4 -85.4 -147.55 L-85.7 -147.25 -90.2 -147.35 Q-112.25 -147.3 -131.35 -134.4 -145.05 -125.3 -157.25 -109.6 -184.55 -74.75 -189.8 -26.55 L-197.35 -31.4 Q-192.05 -80.8 -164.85 -113.6 -136.1 -148.45 -99.85 -149.6 M-153.45 -2.75 L-181.2 -20.95 Q-177.4 -67.45 -151.5 -100.5 -132.6 -124.75 -109.85 -131.65 -96.65 -127.65 -85.5 -117.8 -83.5 -106.9 -78.7 -103.65 -81.25 -101.65 -81.45 -98.25 -83.6 -97.1 -83.45 -93.9 L-86.4 -90.6 Q-96.65 -78.35 -100.2 -61.5 -103.0 -48.0 -99.15 -40.35 -103.95 -36.65 -102.85 -33.8 -106.5 -32.25 -107.15 -29.8 -110.05 -28.75 -112.0 -25.25 -114.6 -20.85 -115.8 -12.45 -120.75 -15.25 -125.75 -19.4 -129.95 -22.85 -134.1 -19.4 -140.8 -7.1 -139.55 6.5 L-153.45 -2.75 M-89.65 24.95 L-83.75 23.6 Q-75.3 20.95 -68.6 14.15 -67.8 11.05 -71.4 9.5 -67.0 5.95 -61.75 5.6 -59.95 4.85 -59.55 1.9 -58.3 -9.35 -61.35 -21.75 -63.65 -24.0 -67.3 -24.15 L-73.1 -22.05 Q-71.0 -23.65 -73.1 -26.7 -71.9 -30.45 -71.5 -35.4 -62.2 -47.0 -57.2 -64.8 -56.35 -68.3 -55.9 -71.7 -45.85 -43.05 -48.45 -7.1 -49.45 6.15 -52.0 18.55 -62.4 29.3 -67.75 38.8 -74.6 38.25 -80.9 40.25 -83.3 41.4 -84.15 44.05 L-91.4 39.1 -89.65 24.95 M-138.6 49.65 Q-137.7 51.85 -135.8 53.05 -136.15 63.25 -133.25 70.65 L-130.9 67.7 -126.7 77.55 -120.2 70.35 -119.2 73.6 Q-115.55 73.1 -112.65 69.95 -108.8 70.2 -105.55 65.2 L-103.0 59.75 -100.1 61.55 -97.7 63.0 Q-103.6 68.75 -103.35 71.95 -103.7 75.1 -96.95 77.55 -99.45 85.85 -97.0 90.05 L-98.3 94.65 -108.15 95.45 -117.9 94.8 Q-145.2 90.65 -163.5 62.1 -177.7 39.9 -180.85 11.7 L-136.9 38.85 -139.25 43.0 Q-139.6 47.0 -138.6 49.65 M-199.15 0.5 L-190.85 5.6 Q-188.8 42.9 -170.65 71.35 L-170.6 71.45 Q-175.4 66.05 -179.75 59.45 -196.7 33.75 -199.15 0.5" fill="#2b4634" fill-rule="evenodd" stroke="none"/>
    <path d="M-101.1 107.95 L-107.75 108.45 -109.1 108.45 Q-138.75 108.55 -159.85 85.5 -165.45 79.35 -170.45 71.6 L-170.6 71.45 -170.65 71.35 Q-188.8 42.9 -190.85 5.6 L-185.9 8.65 Q-183.25 37.45 -168.25 60.8 -148.65 91.55 -118.3 98.95 L-107.1 100.8 -99.9 101.2 -101.1 107.95 M-186.7 -24.55 L-189.8 -26.55 Q-184.55 -74.75 -157.25 -109.6 -145.05 -125.3 -131.35 -134.4 -112.25 -147.3 -90.2 -147.35 L-85.7 -147.25 -88.9 -143.65 Q-99.1 -142.75 -108.55 -139.5 -134.45 -130.6 -155.25 -104.45 -182.6 -70.45 -186.7 -24.55" fill="#5b5c50" fill-rule="evenodd" stroke="none"/>
    <path d="M-159.85 85.5 Q-174.45 76.55 -185.65 59.45 -203.55 32.3 -205.25 -3.3 L-199.15 0.5 Q-196.7 33.75 -179.75 59.45 -175.4 66.05 -170.6 71.45 L-170.45 71.6 Q-165.45 79.35 -159.85 85.5 M-203.7 -35.5 Q-197.95 -80.8 -170.75 -113.6 -141.05 -149.6 -103.35 -149.65 L-99.85 -149.6 Q-136.1 -148.45 -164.85 -113.6 -192.05 -80.8 -197.35 -31.4 L-203.7 -35.5" fill="#528c66" fill-rule="evenodd" stroke="none"/>
    <path d="M-17.55 -32.75 Q-39.35 -16.3 -50.15 11.95 L-51.55 18.05 -52.0 18.55 Q-49.45 6.15 -48.45 -7.1 -45.85 -43.05 -55.9 -71.7 -54.8 -81.3 -57.2 -89.95 -55.8 -90.75 -57.2 -93.9 -54.4 -97.45 -57.5 -101.7 -50.2 -104.2 -46.35 -111.85 L-44.0 -107.7 Q-37.1 -96.2 -28.55 -87.5 -17.5 -63.3 -17.55 -32.75" fill="#1b1712" fill-rule="evenodd" stroke="none"/>
    <path d="M-38.6 75.9 L6.45 108.15 11.3 112.35 1.3 112.35 19.8 129.4 24.15 138.2 -44.95 95.55 -48.65 93.3 Q-45.4 89.55 -43.0 85.55 -40.25 80.9 -38.6 75.9 M-124.85 -8.8 Q-123.25 -8.8 -122.1 -7.25 -120.95 -5.65 -120.95 -3.45 -120.95 -1.25 -122.1 0.25 -123.25 1.85 -124.85 1.85 -127.0 1.05 -127.6 0.25 -128.75 -1.25 -128.75 -3.45 -128.75 -5.65 -127.6 -7.25 -127.0 -8.05 -124.85 -8.8 M-69.25 -7.45 L-67.15 -9.8 -67.0 -10.15 Q-65.95 -9.9 -65.15 -8.85 -64.2 -7.5 -64.2 -5.6 -64.2 -3.75 -65.15 -2.4 -66.15 -1.05 -67.5 -1.05 -68.85 -1.05 -69.85 -2.35 L-69.25 -7.45 M-53.8 84.95 L-52.75 90.75 -56.3 88.55 -53.8 84.95 M-75.7 49.9 Q-75.95 56.6 -80.4 61.3 L-89.1 53.55 -83.7 55.3 -106.0 36.8 -92.45 43.85 -107.1 33.65 -108.85 30.6 -106.9 28.45 -91.4 39.1 -84.15 44.05 -75.7 49.9 M-81.95 62.75 Q-85.3 65.55 -90.4 67.55 L-97.7 63.0 -100.1 61.55 -96.45 54.65 -81.95 62.75 M-27.35 90.4 L-38.3 83.5 -27.35 90.4 M-5.6 109.1 L-43.0 85.55 -5.6 109.1" fill="#948c7f" fill-rule="evenodd" stroke="none"/>
    <path d="M-124.75 191.6 Q-138.55 188.65 -154.3 192.65 -133.75 180.25 -107.45 176.65 -108.5 178.9 -107.6 180.55 -103.2 184.95 -96.5 187.05 -107.55 203.05 -131.85 206.4 L-128.35 203.4 Q-123.85 198.9 -120.6 192.65 L-124.75 191.6 M-98.5 163.35 L-98.5 163.3 Q-104.9 133.35 -101.1 107.95 L-99.9 101.2 -98.3 94.65 -97.0 90.05 Q-94.4 92.05 -91.65 93.25 L-89.2 94.1 -80.2 94.45 Q-80.35 120.5 -88.25 145.05 L-83.05 139.75 Q-78.8 131.55 -78.05 118.8 L-68.3 102.8 Q-70.75 130.8 -80.15 151.0 L-86.05 167.05 Q-92.9 164.5 -93.5 149.45 -98.65 161.9 -97.5 168.05 L-98.5 163.35 M-51.55 18.05 Q-54.55 31.65 -53.05 36.15 -58.2 36.75 -56.8 40.9 -57.95 41.3 -58.75 41.9 -60.45 43.15 -60.1 45.5 L-59.55 47.45 -60.35 46.0 Q-63.2 40.85 -66.5 38.9 L-67.75 38.8 Q-62.4 29.3 -52.0 18.55 L-51.55 18.05 M-31.45 48.2 L-29.65 47.2 -25.8 44.65 Q-0.25 26.75 11.95 1.2 20.3 9.65 21.25 14.3 -0.6 45.8 -34.05 60.5 -33.35 59.6 -33.5 58.4 L-33.9 57.15 -32.75 57.2 Q-28.6 57.0 -29.85 52.25 -30.25 50.55 -31.45 48.2 M9.45 22.25 Q-4.75 37.35 -22.35 42.65 -4.75 37.35 9.45 22.25" fill="url(#gradient8)" fill-rule="evenodd" stroke="none"/>
    <path d="M-72.4 57.2 Q-76.05 60.7 -78.75 64.55 L-64.5 64.55 Q-68.6 72.05 -73.45 78.0 L-76.4 81.45 Q-80.25 85.6 -84.5 88.8 L-79.35 88.5 Q-70.95 87.7 -62.75 84.6 -58.6 83.0 -54.55 80.8 L-53.8 84.95 -56.3 88.55 Q-62.85 97.35 -69.65 100.4 -72.0 99.95 -74.0 99.15 -77.7 97.5 -80.2 94.45 L-89.2 94.1 Q-97.25 88.65 -93.7 78.6 -100.25 72.7 -97.7 63.0 L-90.4 67.55 Q-85.3 65.55 -81.95 62.75 L-80.4 61.3 Q-75.95 56.6 -75.7 49.9 L-75.7 48.35 Q-72.25 49.8 -72.4 57.2 M-91.9 68.1 L-90.4 67.55 -91.9 68.1" fill="url(#gradient9)" fill-rule="evenodd" stroke="none"/>
    <path d="M-121.2 12.05 Q-119.05 11.5 -117.2 12.1 -122.65 26.05 -120.2 38.15 L-120.2 38.2 -119.95 38.45 -119.85 37.55 -116.45 32.75 Q-115.1 31.8 -113.85 31.5 L-125.15 60.95 Q-127.9 61.1 -129.25 58.8 -126.65 48.2 -120.2 38.2 L-121.8 36.25 Q-123.15 34.45 -124.3 31.9 L-124.4 31.6 -124.3 31.9 -135.8 53.05 Q-137.7 51.85 -138.6 49.65 L-128.45 27.95 -126.45 25.9 -124.4 31.6 Q-128.4 21.8 -121.2 12.05" fill="url(#gradient10)" fill-rule="evenodd" stroke="none"/>
    <path d="M-135.8 53.05 L-124.3 31.9 Q-123.15 34.45 -121.8 36.25 L-130.55 52.2 -131.75 54.3 Q-134.15 54.05 -135.8 53.05" fill="#d46b0e" fill-rule="evenodd" stroke="none"/>
    <path d="M205.85 294.3 L214.65 303.85 Q196.3 303.65 168.75 279.55 L170.2 260.9 Q187.5 282.7 205.85 294.3 M161.0 312.65 Q155.6 305.0 150.7 294.35 L150.25 253.35 156.45 260.65 161.75 265.65 161.0 312.65 M131.55 285.9 Q116.4 300.3 99.1 305.3 113.35 282.7 121.2 254.8 L136.45 243.2 Q135.7 262.65 129.8 274.9 L140.8 261.55 Q139.6 274.55 132.9 284.4 L132.35 285.1 131.55 285.9 M-171.5 249.0 Q-181.85 246.65 -190.8 241.95 -170.7 245.3 -155.8 236.4 -162.2 236.4 -168.05 233.6 L-187.75 228.0 Q-172.8 224.85 -159.4 214.7 -142.9 209.25 -128.95 215.9 -136.6 226.05 -150.6 230.55 -142.3 233.25 -134.65 230.55 -151.6 242.1 -171.5 249.0 M-168.05 233.6 L-170.5 232.2 Q-161.2 231.3 -151.9 224.2 -161.2 231.3 -170.5 232.2 L-168.05 233.6 M-151.0 236.0 L-155.45 236.4 -155.8 236.4 -155.45 236.4 -151.0 236.0" fill="url(#gradient11)" fill-rule="evenodd" stroke="none"/>
    <path d="M-13.7 -275.8 Q-0.7 -282.15 15.15 -271.6 21.35 -267.4 28.0 -260.65 L27.8 -257.25 Q32.7 -251.6 34.0 -246.0 L35.6 -249.85 Q41.55 -232.55 37.4 -216.25 35.35 -208.4 30.95 -200.7 43.75 -200.65 52.15 -191.6 56.0 -193.1 60.1 -193.4 L68.35 -193.0 Q70.75 -192.55 72.9 -191.4 86.55 -184.4 91.75 -150.75 91.65 -141.25 85.75 -131.7 L82.35 -126.8 Q83.45 -122.15 84.15 -117.55 85.7 -107.6 85.25 -98.25 94.75 -95.9 91.8 -89.6 101.55 -87.05 97.9 -72.75 103.65 -69.6 107.65 -65.35 116.75 -55.75 117.35 -40.7 121.9 -36.4 125.3 -30.6 126.6 -25.3 123.8 -20.0 125.15 -15.9 123.75 -11.45 L123.85 -11.2 Q129.55 3.25 121.75 24.45 123.45 28.05 122.25 30.95 132.45 36.7 124.05 54.4 138.35 67.65 150.6 106.9 160.25 143.6 157.5 167.2 169.4 173.2 163.15 182.35 169.6 187.05 166.5 198.1 184.1 222.55 204.4 230.85 199.1 232.6 193.7 233.75 212.05 256.6 235.7 270.05 217.35 276.55 197.7 270.1 207.25 285.8 222.55 294.3 L205.85 294.3 214.65 303.85 Q196.3 303.65 168.75 279.55 165.65 299.8 166.45 319.4 163.65 316.4 161.0 312.65 155.6 305.0 150.7 294.35 147.25 286.7 144.0 277.6 137.5 288.75 128.75 294.5 L130.55 290.15 130.65 289.7 131.55 285.9 Q116.4 300.3 99.1 305.3 113.35 282.7 121.2 254.8 L122.05 251.8 Q115.35 258.65 107.3 263.65 116.75 243.6 119.4 218.9 L119.85 213.55 Q113.45 210.85 116.8 198.35 109.65 193.65 113.95 183.15 L107.65 179.0 103.6 175.75 Q59.6 136.4 65.9 83.5 59.45 82.1 57.35 70.05 57.2 67.25 58.25 63.7 50.2 59.3 52.2 47.3 55.4 41.9 58.95 37.35 L58.4 36.4 Q49.05 17.9 60.2 -3.45 53.3 -3.15 44.8 -5.05 L42.1 -5.75 Q42.15 4.05 37.05 2.05 35.85 8.3 31.65 8.6 L28.9 8.25 Q14.95 61.3 -36.9 70.85 -37.05 72.15 -37.7 72.8 L-38.6 75.9 6.45 108.15 11.3 112.35 1.3 112.35 19.8 129.4 24.15 138.2 -44.95 95.55 Q-43.65 139.4 -61.5 161.95 -63.0 164.8 -64.8 167.15 -61.9 170.15 -64.3 173.55 -60.75 177.4 -62.95 182.3 -64.3 183.95 -66.05 185.2 -61.1 199.2 -65.75 203.4 L-66.05 203.6 -67.9 200.1 -67.15 203.4 Q-63.65 221.2 -72.7 241.8 -72.6 236.4 -74.8 233.95 -132.8 257.85 -171.5 249.0 -181.85 246.65 -190.8 241.95 -170.7 245.3 -155.8 236.4 -162.2 236.4 -168.05 233.6 L-187.75 228.0 Q-172.8 224.85 -159.4 214.7 L-158.6 214.1 Q-151.9 208.9 -143.65 203.4 -135.05 197.65 -124.75 191.6 -138.55 188.65 -154.3 192.65 -133.75 180.25 -107.45 176.65 -106.35 174.35 -103.2 171.5 -104.5 168.1 -98.5 163.35 L-98.5 163.3 Q-104.9 133.35 -101.1 107.95 L-107.75 108.45 -109.1 108.45 Q-138.75 108.55 -159.85 85.5 -174.45 76.55 -185.65 59.45 -203.55 32.3 -205.25 -3.3 L-249.65 -30.7 Q-251.95 -32.25 -254.25 -30.7 -254.85 -28.3 -256.2 -26.3 -259.55 -21.6 -267.3 -19.15 -280.0 -18.65 -286.3 -27.25 -291.95 -39.65 -285.45 -51.85 -282.05 -56.2 -274.35 -58.45 -270.15 -59.65 -267.95 -62.05 -266.2 -63.95 -265.8 -66.7 L-271.35 -78.8 Q-275.3 -89.55 -264.25 -98.4 -260.1 -100.6 -256.2 -101.0 -251.25 -101.55 -246.85 -99.15 -243.35 -97.2 -240.15 -93.35 -234.85 -86.55 -231.65 -73.35 -231.2 -62.75 -234.7 -55.15 L-203.75 -35.5 M-203.7 -35.5 Q-197.95 -80.8 -170.75 -113.6 -141.05 -149.6 -103.35 -149.65 L-99.85 -149.6 Q-92.35 -149.4 -85.4 -147.55 L-76.2 -158.0 Q-91.0 -163.5 -92.15 -168.15 -93.0 -168.95 -88.2 -177.8 L-85.75 -182.15 Q-100.55 -197.7 -102.65 -216.25 L-103.0 -221.4 Q-102.7 -249.45 -91.55 -262.0 -80.35 -274.6 -70.4 -269.8 L-68.2 -271.6 Q-57.55 -279.25 -42.25 -277.7 -40.45 -298.85 -50.25 -312.0 -51.85 -314.2 -53.8 -316.1 -47.7 -320.15 -41.1 -321.6 -35.6 -322.85 -29.7 -322.3 L-29.4 -321.6 Q-20.75 -302.0 -22.5 -283.05 L-23.3 -277.55 Q-16.8 -277.55 -13.7 -275.8 -17.0 -274.25 -20.1 -271.6 L-20.8 -270.9 Q-18.7 -269.35 -16.75 -267.3 -11.9 -262.45 -7.8 -255.25 M27.8 -257.25 Q26.6 -240.15 22.0 -227.3 29.1 -235.15 34.0 -246.0 M69.6 -181.85 Q74.5 -171.95 75.1 -156.7 M69.6 -181.85 Q65.95 -189.1 60.1 -193.4 M52.15 -191.6 L52.9 -190.75 M26.95 -194.05 Q24.0 -189.5 20.35 -184.95 L21.5 -182.35 Q18.35 -173.45 9.65 -166.75 L21.3 -153.1 Q38.4 -179.4 26.95 -194.05 L30.95 -200.7 M9.65 -166.75 L6.15 -164.3 M-0.05 -153.9 Q6.35 -146.35 12.35 -140.9 L16.4 -137.45 16.4 -137.4 17.8 -140.05 21.1 -140.05 Q22.6 -140.2 24.15 -142.9 L21.1 -146.0 Q23.5 -146.95 24.15 -149.7 L21.3 -153.1 M3.1 -196.85 Q15.35 -194.3 20.35 -184.95 M31.2 -124.25 L28.75 -127.2 Q27.8 -131.7 32.75 -130.05 L35.1 -133.45 32.85 -136.3 Q31.7 -139.65 35.9 -141.7 30.05 -183.3 52.15 -191.6 M42.1 -135.3 L36.2 -139.2 35.9 -141.7 M-4.95 -70.35 L-1.65 -68.8 Q0.4 -98.3 31.2 -124.25 39.45 -114.9 49.8 -109.45 59.3 -104.4 70.5 -102.7 67.05 -80.35 56.85 -64.85 71.6 -69.45 78.8 -78.95 82.95 -84.35 84.65 -91.3 L85.25 -98.25 84.15 -98.55 M46.3 -116.1 L46.25 -116.15 Q41.55 -119.45 37.25 -124.85 M8.55 -137.85 L12.7 -134.1 Q14.95 -135.45 16.4 -137.4 M52.8 -119.55 Q45.9 -121.5 42.1 -135.3 40.85 -139.8 39.9 -145.6 M71.85 -111.5 L70.2 -110.9 M72.7 -116.55 Q75.1 -113.25 72.05 -111.65 L71.85 -111.5 Q75.85 -105.65 70.5 -102.7 M61.85 -122.8 Q67.3 -119.65 72.7 -116.55 78.4 -121.7 82.35 -126.8 M46.3 -116.1 Q53.9 -110.7 62.55 -110.9 M61.85 -122.8 Q68.15 -127.55 73.3 -139.1 M52.8 -119.55 Q57.6 -119.6 61.85 -122.8 M35.1 -133.45 Q38.65 -128.9 42.55 -127.15 M11.95 -91.05 L14.4 -78.7 17.55 -84.2 16.0 -92.95 M17.85 -82.7 L23.3 -94.25 17.55 -84.2 17.85 -82.7 18.85 -77.15 22.95 -87.3 M14.4 -78.7 L14.85 -76.4 17.85 -82.7 M10.05 -52.3 Q13.05 -49.45 13.8 -45.95 14.25 -43.75 13.8 -41.3 16.45 -34.75 24.2 -38.05 L28.6 -40.05 Q30.4 -40.95 32.1 -41.9 47.4 -50.4 56.85 -64.85 M17.6 -62.7 L16.05 -70.5 13.2 -63.65 M46.95 -93.9 Q48.75 -100.85 49.8 -109.45 M20.4 -68.05 L18.85 -77.15 16.05 -70.5 14.85 -76.4 12.15 -71.3 M14.4 -78.7 L8.15 -67.75 M28.6 -32.3 Q28.05 -30.65 24.65 -30.9 25.95 -27.7 24.4 -26.55 L21.1 -27.4 19.3 -19.15 Q29.8 -9.05 42.1 -5.75 M28.6 -40.05 Q30.9 -37.2 28.6 -32.3 M-0.65 -37.3 L0.3 -37.0 3.85 -39.7 Q9.05 -38.1 10.35 -33.35 15.4 -29.35 21.1 -27.4 M2.85 -44.55 Q6.35 -43.55 13.8 -45.95 M2.55 -41.45 Q5.25 -40.15 6.65 -40.15 M2.85 -44.55 Q1.65 -44.9 0.95 -45.7 0.1 -48.55 -0.45 -51.4 -1.7 -50.95 -2.55 -50.15 -4.3 -48.55 -4.45 -45.45 -0.25 -42.75 2.55 -41.45 M-0.65 -37.3 L-7.0 -39.7 -8.3 -38.9 -17.55 -32.75 Q-39.35 -16.3 -50.15 11.95 L-51.55 18.05 Q-54.55 31.65 -53.05 36.15 L-52.6 37.15 Q-53.35 39.8 -50.75 40.95 -48.45 42.0 -43.5 41.9 M-42.8 41.9 Q-43.15 38.3 -42.55 33.1 M9.8 -23.25 Q8.7 -18.95 6.3 -13.6 M10.35 -33.35 Q11.4 -29.4 9.8 -23.25 M-42.8 41.9 Q-42.35 47.6 -39.4 49.2 -36.6 50.75 -31.45 48.2 L-29.65 47.2 -25.8 44.65 Q-0.25 26.75 11.95 1.2 16.55 -8.4 19.3 -19.15 M24.65 -30.9 L13.75 -36.0 M67.15 -14.4 Q63.35 -21.9 69.15 -28.0 63.8 -34.5 82.8 -47.0 93.0 -50.7 105.4 -47.85 L107.65 -47.25 108.55 -47.0 109.65 -46.4 Q113.85 -44.0 117.35 -40.7 M104.55 -50.4 Q105.15 -64.0 97.9 -72.75 71.55 -42.35 32.1 -41.9 M89.65 -28.85 Q86.25 -32.75 80.9 -30.05 L78.2 -27.3 Q71.85 -20.75 67.15 -14.4 63.05 -8.85 60.2 -3.45 M91.3 -10.0 L91.3 -24.85 91.3 -26.2 89.65 -28.85 Q97.05 -31.4 105.15 -29.6 L107.65 -28.95 108.0 -28.85 Q111.1 -26.95 113.65 -24.85 120.6 -19.1 123.75 -11.45 M69.15 -28.0 Q72.25 -31.4 77.9 -34.7 M46.95 -93.9 Q42.2 -76.2 31.75 -65.25 M91.8 -89.6 Q90.65 -87.25 87.75 -84.25 M110.2 -33.6 Q121.35 -27.25 123.8 -20.0 M104.95 16.15 L107.65 16.4 Q112.4 17.05 117.4 18.45 L119.5 20.85 Q120.95 22.7 121.75 24.45 M84.15 18.45 Q91.1 16.0 98.8 15.9 L104.95 16.15 Q108.05 -1.15 103.9 -16.65 M89.05 36.25 Q97.65 32.6 107.65 36.9 L110.05 38.0 Q113.9 42.75 116.85 48.4 L117.5 49.7 Q120.8 51.35 124.05 54.4 M92.4 86.55 Q89.7 77.65 87.8 68.25 M92.4 86.55 L92.8 87.7 Q98.55 106.0 107.65 122.05 114.1 133.3 122.25 143.45 L127.25 149.4 M133.35 191.6 Q140.05 192.7 141.35 188.4 L138.4 187.45 M117.5 49.7 Q120.4 55.65 122.25 62.4 M116.6 29.0 Q119.95 29.6 122.25 30.95 M58.95 37.35 L59.25 37.9 M28.9 8.25 Q19.85 6.9 11.95 1.2 M-34.05 60.5 L-35.55 61.55 -38.05 62.15 -37.5 64.35 Q-36.55 68.6 -36.9 70.85 M28.9 8.25 L29.0 7.75 M63.4 52.1 Q59.65 58.65 58.25 63.7 M74.75 49.05 Q67.85 66.95 65.9 83.5 M157.5 167.2 Q156.8 172.55 155.6 177.2 151.85 190.85 141.35 188.4 M134.0 202.15 Q140.95 203.55 148.85 198.85 152.05 196.95 155.35 194.0 M110.05 99.9 L125.35 136.05 M113.95 183.15 Q122.8 188.45 133.35 191.6 M58.95 37.35 Q70.0 23.3 84.15 18.45 M89.05 36.25 Q81.35 39.45 74.75 49.05 M158.25 225.3 L158.55 228.85 159.15 234.75 Q176.95 237.25 193.7 233.75 M156.45 260.65 L161.75 265.65 162.45 266.2 159.15 234.75 M151.15 212.4 Q159.9 207.95 166.5 198.1 M150.25 253.35 L156.45 260.65 M131.55 285.9 L132.35 285.1 132.9 284.4 M132.35 285.1 L130.65 289.7 M150.25 253.35 Q143.05 243.9 137.0 230.85 130.75 242.9 122.05 251.8 M119.85 213.55 Q137.9 219.1 151.15 212.4 M116.8 198.35 Q120.35 200.75 126.65 201.7 M197.7 270.1 Q194.95 265.6 192.7 260.5 M163.15 182.35 Q161.05 185.45 156.8 188.9 M37.05 2.05 L25.5 -2.2 M-85.75 -182.15 Q-80.6 -178.25 -78.3 -178.35 M-83.75 -193.35 L-89.6 -224.15 -83.65 -220.1 -77.65 -216.1 -77.6 -216.25 -66.0 -244.25 -65.2 -246.15 M-20.8 -270.9 L-21.75 -271.6 -24.9 -273.55 Q-34.25 -276.9 -42.25 -277.7 M-74.7 -265.6 L-70.4 -269.8 M-67.55 -229.75 L-66.0 -244.25 M-67.55 -229.75 L-72.75 -216.1 -77.65 -216.1 M-78.4 -202.45 L-74.75 -202.45 -70.8 -180.95 -69.3 -194.3 -67.9 -201.8 -63.0 -201.8 -69.65 -210.2 -67.55 -229.75 M-8.2 -232.25 L-5.9 -234.95 -4.2 -210.2 -3.4 -199.0 -41.3 -195.1 -36.75 -200.15 -10.55 -229.65 -8.2 -232.25 M-30.0 -245.65 L-31.35 -237.4 M-29.0 -240.85 L-30.8 -234.7 -28.2 -231.25 M-37.8 -243.9 L-34.7 -239.75 -35.5 -244.15 M-30.8 -234.7 L-34.7 -239.75 -32.45 -228.2 M-36.75 -200.15 L-4.2 -210.2 M-32.6 -251.45 L-32.6 -240.05 M-83.65 -220.1 L-78.4 -202.45 M-83.75 -193.35 L-78.4 -193.95 -72.25 -167.5 -70.8 -180.95 M-84.75 -247.15 Q-80.8 -258.45 -74.7 -265.6 M-250.85 -90.8 Q-248.15 -87.95 -248.65 -83.9 M-261.35 -93.2 Q-258.05 -92.05 -256.2 -89.05 -255.3 -87.6 -254.75 -85.6 M-255.25 -92.2 Q-252.8 -90.2 -252.35 -87.65 M-264.75 -56.4 Q-263.95 -61.0 -264.75 -64.4 L-265.8 -66.7 M-154.35 15.65 L-184.35 -5.1 M-153.45 -2.75 L-181.2 -20.95 -186.7 -24.55 -189.8 -26.55 -197.35 -31.4 -203.7 -35.5 M-32.85 -122.6 L-29.35 -112.05 Q-25.6 -109.85 -22.75 -112.05 L-22.75 -118.45 Q-18.1 -116.75 -15.25 -118.45 L-15.95 -120.55 -19.45 -130.8 M-7.25 -128.95 L-11.95 -146.2 -8.4 -144.0 -8.4 -149.05 -3.85 -151.2 -3.8 -151.25 -3.05 -150.25 -2.75 -150.0 M-2.25 -149.4 Q3.25 -142.8 8.55 -137.85 0.3 -132.0 -7.25 -128.95 L-6.0 -124.2 Q-9.85 -120.5 -15.95 -120.55 M-51.25 -164.65 L-56.6 -164.65 Q-55.7 -174.45 -49.1 -188.25 L-46.0 -182.55 Q-41.4 -173.3 -39.25 -164.65 L-51.25 -164.65 Q-50.95 -173.55 -46.0 -182.55 M-76.2 -158.0 L-73.3 -156.95 M-69.3 -194.3 L-56.4 -193.35 -63.0 -201.8 M-62.35 -113.7 Q-55.25 -112.75 -50.05 -114.8 L-49.2 -117.4 -44.2 -133.5 -45.55 -134.65 M-44.2 -133.5 L-41.7 -141.45 Q-41.35 -146.05 -34.8 -128.0 L-32.85 -122.6 M-69.7 -125.1 L-63.3 -146.65 -67.0 -143.3 -82.45 -129.25 -86.8 -132.2 -90.1 -134.45 -91.2 -134.45 Q-100.85 -134.4 -109.85 -131.65 -96.65 -127.65 -85.5 -117.8 -86.6 -123.85 -86.8 -132.2 M-69.7 -125.1 L-70.95 -121.0 -66.0 -121.0 -61.55 -140.45 M-62.35 -113.7 L-67.45 -114.8 -66.0 -121.0 M-75.8 -102.15 Q-73.15 -100.95 -70.4 -100.4 L-68.2 -100.0 Q-63.45 -99.45 -58.55 -100.8 L-57.5 -101.7 Q-50.2 -104.2 -46.35 -111.85 L-49.2 -117.4 M-78.7 -103.65 L-75.8 -102.15 M-46.35 -111.85 L-44.0 -107.7 Q-37.1 -96.2 -28.55 -87.5 -21.5 -80.35 -13.3 -75.1 -9.3 -72.5 -4.95 -70.35 -7.8 -67.65 -7.75 -64.4 L-4.8 -61.25 Q-6.65 -55.95 -5.15 -53.9 L-2.55 -50.15 M-18.05 -106.5 L-20.2 -111.25 M-34.8 -128.0 Q-39.7 -129.9 -44.2 -133.5 M-28.45 -156.55 L-23.15 -139.35 M-189.8 -26.55 Q-184.55 -74.75 -157.25 -109.6 -145.05 -125.3 -131.35 -134.4 -112.25 -147.3 -90.2 -147.35 L-85.7 -147.25 -85.4 -147.55 -83.6 -147.1 M-87.8 -139.15 L-84.5 -144.0 M-85.7 -147.25 L-88.9 -143.65 -95.7 -136.0 -87.8 -139.15 -90.7 -134.85 -90.1 -134.45 M-181.2 -20.95 Q-177.4 -67.45 -151.5 -100.5 -132.6 -124.75 -109.85 -131.65 M-99.15 -40.35 Q-103.0 -48.0 -100.2 -61.5 -96.65 -78.35 -86.4 -90.6 L-83.45 -93.9 Q-83.6 -97.1 -81.45 -98.25 -81.25 -101.65 -78.7 -103.65 -83.5 -106.9 -85.5 -117.8 M-89.4 -75.75 L-89.5 -73.5 -89.55 -73.1 -89.55 -69.25 Q-89.1 -58.95 -84.05 -51.85 M-89.55 -69.25 L-89.55 -51.85 M-130.95 -10.85 Q-131.0 -14.35 -129.05 -15.85 L-116.7 -8.8 M-115.8 -12.45 Q-120.75 -15.25 -125.75 -19.4 -129.95 -22.85 -134.1 -19.4 -140.8 -7.1 -139.55 6.5 L-134.85 9.65 -134.85 1.9 M-127.25 14.7 L-125.5 15.9 Q-124.0 13.1 -121.2 12.05 -119.05 11.5 -117.2 12.1 -112.5 13.55 -109.6 22.05 L-110.65 22.85 Q-98.85 26.2 -89.65 24.95 L-83.75 23.6 Q-75.3 20.95 -68.6 14.15 -67.8 11.05 -71.4 9.5 -67.0 5.95 -61.75 5.6 -59.95 4.85 -59.55 1.9 -58.3 -9.35 -61.35 -21.75 -63.65 -24.0 -67.3 -24.15 L-73.1 -22.05 Q-70.25 -20.1 -68.6 -18.15 L-65.6 -18.15 Q-61.55 -12.05 -62.7 2.45 L-70.85 5.3 -71.4 9.5 M-83.95 16.6 Q-92.4 19.3 -102.15 17.85 L-105.95 17.05 M-124.85 1.85 L-127.8 1.85 Q-129.4 1.85 -130.55 0.25 -131.7 -1.25 -131.7 -3.45 -131.7 -5.65 -130.55 -7.25 -129.4 -8.8 -127.8 -8.8 L-124.85 -8.8 Q-123.25 -8.8 -122.1 -7.25 -120.95 -5.65 -120.95 -3.45 -120.95 -1.25 -122.1 0.25 -123.25 1.85 -124.85 1.85 M-99.15 -40.35 L-88.75 -39.7 Q-80.2 -38.55 -71.5 -35.4 -62.2 -47.0 -57.2 -64.8 -56.35 -68.3 -55.9 -71.7 -54.8 -81.3 -57.2 -89.95 L-63.9 -89.7 -71.0 -90.25 -74.55 -90.9 -75.2 -91.05 -75.25 -87.25 Q-75.8 -71.85 -79.85 -60.0 M-96.3 -53.65 L-96.3 -43.75 M-93.55 -25.05 L-93.9 -25.1 -93.45 -24.95 -93.55 -25.05 -93.8 -25.3 -95.6 -27.15 Q-102.55 -31.6 -107.15 -29.8 -110.05 -28.75 -112.0 -25.25 -114.6 -20.85 -115.8 -12.45 -102.55 -4.9 -89.7 -6.75 L-84.45 -7.95 Q-77.85 -9.9 -71.35 -14.4 -71.55 -19.1 -73.9 -22.2 L-74.05 -22.3 Q-84.2 -31.6 -93.35 -25.05 L-93.45 -24.95 Q-90.1 -21.1 -90.7 -15.8 M-93.55 -25.05 L-93.35 -25.05 M-90.5 -34.15 Q-88.95 -33.75 -87.35 -33.15 M-90.5 -34.15 Q-97.15 -35.9 -102.85 -33.8 -106.5 -32.25 -107.15 -29.8 M-85.25 -1.05 Q-95.0 0.35 -107.85 -3.25 M-102.85 -33.8 Q-103.95 -36.65 -99.15 -40.35 M-5.1 -97.15 L-4.15 -95.45 -5.7 -109.05 M-5.1 -97.15 L-12.65 -110.0 M-0.45 -51.4 Q-2.25 -60.25 -1.65 -68.8 M-57.2 -89.95 Q-55.8 -90.75 -57.2 -93.9 -54.4 -97.45 -57.5 -101.7 M-69.0 -94.05 L-66.25 -93.9 -63.55 -94.0 M-70.25 -94.2 L-69.0 -94.05 M-70.25 -94.2 Q-75.15 -94.9 -80.1 -97.1 M-71.5 -35.4 Q-71.9 -30.45 -73.1 -26.7 -71.0 -23.65 -73.1 -22.05 L-73.9 -22.2 M-78.65 -3.05 Q-76.0 -2.35 -72.8 -4.4 L-70.85 -5.95 -69.25 -7.45 -67.15 -9.8 -67.0 -10.15 Q-65.05 -14.05 -68.6 -18.15 M-67.0 -10.15 Q-65.95 -9.9 -65.15 -8.85 -64.2 -7.5 -64.2 -5.6 -64.2 -3.75 -65.15 -2.4 -66.15 -1.05 -67.5 -1.05 -68.85 -1.05 -69.85 -2.35 L-70.85 5.3 M-69.25 -7.45 L-69.85 -2.35 M0.3 -37.0 Q-4.35 -33.25 -8.35 -27.95 -10.9 -24.65 -13.15 -20.75 M-13.85 -17.35 L-18.7 -12.7 Q-31.7 0.45 -36.55 16.35 M-7.0 -39.7 Q-9.5 -44.3 -4.45 -45.45 M-28.55 -87.5 Q-17.5 -63.3 -17.55 -32.75 M-52.0 18.55 Q-49.45 6.15 -48.45 -7.1 -45.85 -43.05 -55.9 -71.7 M-73.1 -55.45 L-76.45 -45.75 M-13.3 -75.1 Q-8.8 -58.15 -8.3 -38.9 M-73.1 -26.7 Q-75.25 -29.75 -82.2 -31.7 M-83.45 -93.9 Q-82.05 -92.6 -75.2 -91.05 M-18.05 -106.5 Q-13.0 -95.9 -7.9 -92.3 M-52.0 18.55 L-51.55 18.05 M-84.15 44.05 Q-83.3 41.4 -80.9 40.25 -74.6 38.25 -67.75 38.8 -62.4 29.3 -52.0 18.55 M-61.75 48.9 L-61.35 48.6 -59.55 47.45 -60.35 46.0 Q-63.2 40.85 -66.5 38.9 L-67.75 38.8 M-53.05 36.15 Q-58.2 36.75 -56.8 40.9 -57.95 41.3 -58.75 41.9 -60.45 43.15 -60.1 45.5 L-59.55 47.45 -50.6 53.55 -38.05 62.15 M-45.55 49.25 L-51.8 45.2 M-61.75 48.9 Q-65.85 51.5 -69.25 54.4 L-72.4 57.2 Q-76.05 60.7 -78.75 64.55 L-64.5 64.55 Q-68.6 72.05 -73.45 78.0 L-76.4 81.45 Q-80.25 85.6 -84.5 88.8 L-79.35 88.5 Q-70.95 87.7 -62.75 84.6 -58.6 83.0 -54.55 80.8 L-53.8 84.95 -52.75 90.75 -51.7 96.5 -48.65 93.3 Q-45.4 89.55 -43.0 85.55 -40.25 80.9 -38.6 75.9 M-80.4 61.3 Q-75.95 56.6 -75.7 49.9 L-84.15 44.05 -91.4 39.1 -106.9 28.45 -112.75 24.5 Q-117.8 28.95 -119.35 35.1 -117.85 33.65 -116.45 32.75 -115.1 31.8 -113.85 31.5 L-110.85 31.55 Q-110.2 35.9 -112.4 42.05 -109.1 38.8 -105.75 39.9 -104.35 43.2 -105.0 46.95 L-99.9 46.95 Q-99.8 48.55 -100.05 50.6 L-86.35 57.75 M-80.4 61.3 L-81.95 62.75 Q-85.3 65.55 -90.4 67.55 L-91.9 68.1 M-48.65 93.3 L-44.95 95.55 M-56.3 88.55 L-52.75 90.75 M-56.3 88.55 L-53.8 84.95 M-31.45 48.2 Q-30.25 50.55 -29.85 52.25 -28.6 57.0 -32.75 57.2 L-33.9 57.15 -33.5 58.4 Q-33.35 59.6 -34.05 60.5 M-33.9 57.15 L-36.7 56.6 M-38.3 83.5 L-27.35 90.4 M-45.55 49.25 L-39.35 53.35 M-75.7 49.9 L-75.7 48.35 M-83.95 16.6 L-82.05 15.95 Q-78.05 14.4 -74.35 11.9 M-110.65 22.85 L-112.75 24.5 M-119.85 37.55 L-119.95 38.45 -120.2 38.2 -120.2 38.15 M-129.25 58.8 Q-127.9 61.1 -125.15 60.95 -123.9 60.9 -122.3 60.25 -119.05 55.5 -116.7 51.3 -113.95 46.25 -112.4 42.05 M-119.35 35.1 L-119.85 37.55 M-89.65 24.95 L-91.4 39.1 M-126.45 25.9 L-127.2 23.15 Q-127.0 18.65 -125.5 15.9 M-127.25 14.7 L-134.85 9.65 M-124.3 31.9 L-124.4 31.6 -126.45 25.9 -128.45 27.95 Q-133.35 33.0 -136.9 38.85 L-139.25 43.0 Q-139.6 47.0 -138.6 49.65 -137.7 51.85 -135.8 53.05 -134.15 54.05 -131.75 54.3 L-130.55 52.2 -121.8 36.25 -120.2 38.2 M-124.3 31.9 Q-123.15 34.45 -121.8 36.25 M-154.35 15.65 L-137.5 27.25 M-130.55 52.2 Q-130.55 56.6 -129.25 58.8 M-131.6 66.1 L-130.9 67.7 -126.7 77.55 -120.2 70.35 -119.05 69.0 M-135.8 53.05 Q-136.15 63.25 -133.25 70.65 L-130.9 67.7 M-100.1 61.55 L-97.7 63.0 -90.4 67.55 M-100.1 61.55 L-103.0 59.75 -105.55 65.2 Q-108.8 70.2 -112.65 69.95 -115.55 73.1 -119.2 73.6 L-120.2 70.35 M-114.8 65.5 Q-111.35 62.1 -108.55 56.35 -107.05 53.3 -105.75 49.55 L-105.0 46.95 M-122.3 60.25 Q-120.5 66.95 -115.9 66.5 L-114.8 65.5 Q-114.75 70.1 -112.65 69.95 M-98.3 94.65 L-108.15 95.45 -117.9 94.8 Q-145.2 90.65 -163.5 62.1 -177.7 39.9 -180.85 11.7 L-185.9 8.65 -190.85 5.6 -199.15 0.5 -205.25 -3.3 M-99.9 101.2 L-98.3 94.65 -97.0 90.05 Q-99.45 85.85 -96.95 77.55 -103.7 75.1 -103.35 71.95 -103.6 68.75 -97.7 63.0 M-89.2 94.1 L-80.2 94.45 Q-77.7 97.5 -74.0 99.15 -72.0 99.95 -69.65 100.4 -62.85 97.35 -56.3 88.55 M-97.0 90.05 Q-94.4 92.05 -91.65 93.25 L-89.2 94.1 M-96.95 77.55 L-93.7 78.6 M-103.0 59.75 Q-100.65 54.45 -100.05 50.6 M-83.05 139.75 Q-78.8 131.55 -78.05 118.8 M-68.3 102.8 Q-70.75 130.8 -80.15 151.0 M-97.5 168.05 Q-94.05 178.55 -88.9 173.05 -90.6 170.65 -91.9 166.95 M-99.9 101.2 L-101.1 107.95 M-98.5 163.35 L-97.5 168.05 M-96.5 187.05 Q-103.2 184.95 -107.6 180.55 -108.5 178.9 -107.45 176.65 M-96.05 179.4 Q-92.7 181.05 -88.95 181.65 L-86.15 181.9 Q-79.65 182.25 -72.15 179.4 M-86.35 175.75 L-88.9 173.05 M-96.5 187.05 Q-93.3 188.0 -89.55 188.45 -83.2 189.25 -75.4 188.5 -69.75 187.8 -66.05 185.2 M-103.2 171.5 Q-102.65 173.1 -100.5 174.35 M-124.75 191.6 L-120.6 192.65 Q-123.85 198.9 -128.35 203.4 L-131.85 206.4 Q-135.5 209.15 -139.8 211.0 -125.2 212.3 -113.55 206.55 -114.65 212.0 -120.0 219.55 -98.1 217.65 -78.4 203.4 -74.05 200.25 -69.8 196.5 L-67.9 200.1 M-64.8 167.15 Q-69.85 173.95 -76.55 176.65 -82.3 178.95 -86.35 175.75 M-64.3 173.55 Q-65.3 175.0 -67.15 176.45 M-43.0 85.55 L-5.6 109.1 M-170.6 71.45 L-170.65 71.35 Q-188.8 42.9 -190.85 5.6 M-170.6 71.45 L-170.45 71.6 Q-165.45 79.35 -159.85 85.5 M-151.9 224.2 Q-161.2 231.3 -170.5 232.2 L-168.05 233.6 M-113.55 206.55 Q-110.7 205.2 -108.05 203.4 L-104.35 200.65 M-155.8 236.4 L-155.45 236.4 -151.0 236.0 M-180.85 11.7 L-136.9 38.85 M-139.55 6.5 L-153.45 -2.75 M-22.35 42.65 Q-4.75 37.35 9.45 22.25" ffdec:has-small-stroke="true" ffdec:original-stroke-width="0.05" fill="none" stroke="#000000" stroke-linecap="round" stroke-linejoin="round" stroke-opacity="0.29803923" stroke-width="1.0"/>
    <path d="M28.9 8.25 Q14.95 61.3 -36.9 70.8 -36.55 68.55 -37.5 64.35 L-38.05 62.15 -35.55 61.5 Q-34.6 61.1 -34.1 60.5 -33.35 59.6 -33.55 58.4 L-33.9 57.1 -32.75 57.15 Q-28.65 57.0 -29.85 52.2 -30.3 50.5 -31.45 48.2 L-29.7 47.2 -25.85 44.6 Q-0.3 26.75 11.95 1.2 19.85 6.85 28.9 8.25 M-51.6 18.05 Q-54.55 31.65 -53.05 36.15 -58.2 36.75 -56.8 40.9 -57.95 41.25 -58.75 41.85 -60.45 43.15 -60.1 45.5 L-59.55 47.45 -60.35 46.0 Q-63.2 40.85 -66.5 38.9 L-67.75 38.8 Q-62.45 29.25 -52.05 18.55 L-51.6 18.05 M-51.7 96.45 L-48.65 93.3 -45.0 95.55 Q-43.65 139.4 -61.5 161.9 -63.05 164.8 -64.8 167.15 -61.95 170.1 -64.3 173.55 -60.8 177.4 -63.0 182.3 -64.3 183.95 -66.05 185.2 -61.1 199.2 -65.8 203.35 L-66.05 203.6 -67.95 200.05 -67.15 203.35 Q-63.65 221.2 -72.7 241.8 -72.6 236.4 -74.8 233.9 -132.85 257.85 -171.5 249.0 -181.85 246.65 -190.8 241.95 -170.7 245.3 -155.85 236.4 -162.2 236.4 -168.05 233.6 L-187.75 227.95 Q-172.8 224.85 -159.4 214.7 L-158.6 214.1 Q-151.95 208.85 -143.65 203.35 -135.1 197.65 -124.75 191.6 -138.55 188.6 -154.3 192.65 -133.75 180.25 -107.45 176.6 -106.35 174.35 -103.2 171.5 -104.55 168.1 -98.55 163.35 L-98.55 163.3 Q-104.9 133.35 -101.1 107.9 L-99.9 101.2 -98.3 94.65 -97.0 90.05 Q-94.4 92.0 -91.65 93.25 L-89.25 94.1 -80.2 94.45 Q-77.75 97.45 -74.0 99.1 -72.0 99.95 -69.65 100.4 -62.85 97.35 -56.3 88.55 L-52.75 90.75 -51.7 96.45" fill="#000000" fill-opacity="0.29803923" fill-rule="evenodd" stroke="none"/>
  </g>
  <defs>
    <radialGradient cx="0" cy="0" fx="3.2" fy="0" gradientTransform="matrix(0.4374, 0.0013, -0.1797, 0.0728, 34.35, 208.9)" gradientUnits="userSpaceOnUse" id="gradient0" r="819.2" spreadMethod="pad">
      <stop offset="0.12549019607843137" stop-color="#000000" stop-opacity="0.64705884"/>
      <stop offset="0.5686274509803921" stop-color="#101010" stop-opacity="0.29803923"/>
    </radialGradient>
    <radialGradient cx="0" cy="0" fx="3.2" fy="0" gradientTransform="matrix(0.5154, 0.0, 0.0, 0.5154, -152.7, -98.9)" gradientUnits="userSpaceOnUse" id="gradient1" r="819.2" spreadMethod="pad">
      <stop offset="0.49411764705882355" stop-color="#d46b0e"/>
      <stop offset="0.7411764705882353" stop-color="#b94d12"/>
    </radialGradient>
    <radialGradient cx="0" cy="0" gradientTransform="matrix(0.4408, 0.0079, 0.0091, 0.4407, -96.7, -125.9)" gradientUnits="userSpaceOnUse" id="gradient2" r="819.2" spreadMethod="pad">
      <stop offset="0.2784313725490196" stop-color="#76811f"/>
      <stop offset="0.9098039215686274" stop-color="#525319" stop-opacity="0.9490196"/>
    </radialGradient>
    <radialGradient cx="0" cy="0" gradientTransform="matrix(0.2175, 0.0039, 0.0045, 0.2174, -72.8, -216.15)" gradientUnits="userSpaceOnUse" id="gradient3" r="819.2" spreadMethod="pad">
      <stop offset="0.2784313725490196" stop-color="#ff8f09"/>
      <stop offset="0.9098039215686274" stop-color="#d46b0e" stop-opacity="0.9490196"/>
    </radialGradient>
    <radialGradient cx="0" cy="0" gradientTransform="matrix(0.3986, 0.0072, 0.0083, 0.3985, 31.75, -65.25)" gradientUnits="userSpaceOnUse" id="gradient4" r="819.2" spreadMethod="pad">
      <stop offset="0.2784313725490196" stop-color="#42433a"/>
      <stop offset="0.9098039215686274" stop-color="#28231b" stop-opacity="0.9490196"/>
    </radialGradient>
    <radialGradient cx="0" cy="0" gradientTransform="matrix(0.116, 0.0, 0.0, 0.116, -57.55, -101.75)" gradientUnits="userSpaceOnUse" id="gradient5" r="819.2" spreadMethod="pad">
      <stop offset="0.2784313725490196" stop-color="#76811f"/>
      <stop offset="0.9098039215686274" stop-color="#525319" stop-opacity="0.9490196"/>
    </radialGradient>
    <radialGradient cx="0" cy="0" fx="-6.4" fy="0" gradientTransform="matrix(0.4571, 0.0, 0.0, 0.4571, -14.35, 25.25)" gradientUnits="userSpaceOnUse" id="gradient6" r="819.2" spreadMethod="pad">
      <stop offset="0.2784313725490196" stop-color="#76811f"/>
      <stop offset="0.9098039215686274" stop-color="#525319" stop-opacity="0.9490196"/>
    </radialGradient>
    <radialGradient cx="0" cy="0" gradientTransform="matrix(0.0596, 0.0, 0.0, 0.0596, -29.9, -283.2)" gradientUnits="userSpaceOnUse" id="gradient7" r="819.2" spreadMethod="pad">
      <stop offset="0.0" stop-color="#7e5f29"/>
      <stop offset="0.9058823529411765" stop-color="#5e451a"/>
    </radialGradient>
    <radialGradient cx="0" cy="0" gradientTransform="matrix(0.2888, 0.0, 0.0, 0.3115, -177.65, 29.35)" gradientUnits="userSpaceOnUse" id="gradient8" r="819.2" spreadMethod="pad">
      <stop offset="0.2784313725490196" stop-color="#76811f"/>
      <stop offset="0.9098039215686274" stop-color="#525319" stop-opacity="0.9490196"/>
    </radialGradient>
    <radialGradient cx="0" cy="0" gradientTransform="matrix(0.0955, 0.0, 0.0, 0.0955, -103.4, 71.9)" gradientUnits="userSpaceOnUse" id="gradient9" r="819.2" spreadMethod="pad">
      <stop offset="0.2784313725490196" stop-color="#ff8f09"/>
      <stop offset="0.9098039215686274" stop-color="#d46b0e" stop-opacity="0.9490196"/>
    </radialGradient>
    <radialGradient cx="0" cy="0" gradientTransform="matrix(0.0668, 0.0, 0.0, 0.0668, -133.65, 31.0)" gradientUnits="userSpaceOnUse" id="gradient10" r="819.2" spreadMethod="pad">
      <stop offset="0.2784313725490196" stop-color="#ff8f09"/>
      <stop offset="0.9098039215686274" stop-color="#d46b0e" stop-opacity="0.9490196"/>
    </radialGradient>
    <radialGradient cx="0" cy="0" gradientTransform="matrix(0.6849, 0.0, 0.0, 0.6849, -61.8, 48.85)" gradientUnits="userSpaceOnUse" id="gradient11" r="819.2" spreadMethod="pad">
      <stop offset="0.2784313725490196" stop-color="#ff8f09"/>
      <stop offset="0.9098039215686274" stop-color="#d46b0e" stop-opacity="0.9490196"/>
    </radialGradient>
  </defs>
</svg>
