<?xml version="1.0" encoding="UTF-8" standalone="no"?>
<svg xmlns:ffdec="https://www.free-decompiler.com/flash" xmlns:xlink="http://www.w3.org/1999/xlink" ffdec:objectType="frame" height="690.875px" width="353.125px" xmlns="http://www.w3.org/2000/svg">
  <g transform="matrix(2.5, 0.0, 0.0, 2.5, 176.5, 348.0)">
    <use ffdec:characterId="4" height="267.25" transform="matrix(1.0, 0.0, 0.0, 1.0, 0.0, 0.0)" width="133.7" xlink:href="#shape0"/>
    <use ffdec:characterId="19" height="274.35" transform="matrix(1.0, 0.0, 0.0, 1.0, 0.0, 0.0)" width="141.25" xlink:href="#sprite0"/>
  </g>
  <defs>
    <g id="shape0">
      <path d="M5.3 -25.25 L5.4 -25.05 5.7 -23.4 Q6.9 -16.05 9.75 -9.15 L11.1 -8.85 Q12.9 -8.3 13.4 -6.4 L13.55 -6.1 13.6 -4.15 Q14.0 7.7 18.15 18.9 19.15 19.35 19.7 20.2 20.85 14.85 22.5 13.15 L24.85 11.3 25.95 9.5 Q26.4 8.2 26.45 6.7 28.95 6.05 32.0 6.0 38.45 5.75 47.2 7.85 L53.55 9.6 58.75 11.25 48.0 10.55 Q41.3 10.3 36.05 10.55 29.75 10.85 25.6 11.95 L25.35 12.1 Q23.4 12.85 20.15 21.4 L20.15 21.55 20.3 21.85 20.25 22.65 Q33.4 7.65 63.1 45.55 42.65 32.45 31.5 27.05 32.4 31.2 33.2 37.65 L34.5 49.95 Q24.3 41.6 21.0 34.9 L20.15 32.6 Q20.55 39.7 22.45 46.65 23.1 47.4 23.35 48.5 L23.5 48.8 23.35 50.95 Q22.95 57.8 23.9 64.7 24.4 64.2 25.1 63.85 27.15 62.8 29.3 63.5 31.45 64.2 32.55 66.25 33.6 68.35 32.9 70.5 32.2 72.65 30.15 73.7 28.05 74.8 25.9 74.1 L25.85 74.1 27.15 78.35 Q27.8 79.15 27.9 80.3 L28.0 80.6 27.85 81.55 29.85 79.0 Q30.9 78.3 31.35 76.6 31.6 76.35 31.75 76.45 32.15 76.6 32.2 77.05 L31.45 79.85 31.5 79.85 35.25 80.1 35.5 80.95 33.65 81.6 32.75 81.65 Q32.15 82.2 32.4 82.7 L34.25 84.25 34.4 84.4 33.9 85.05 31.45 83.55 29.55 83.55 Q28.15 86.75 26.95 94.65 L26.65 94.65 Q26.65 103.05 28.7 111.45 L28.65 111.5 Q31.1 113.95 31.55 117.35 L26.6 119.5 27.45 122.4 24.9 121.55 23.95 120.7 22.95 117.85 24.35 116.4 23.4 113.95 20.3 114.05 20.3 114.2 20.05 114.6 19.9 115.6 19.8 115.7 19.45 117.35 18.45 117.45 18.35 117.6 17.65 119.05 Q18.0 119.6 18.75 119.8 L18.7 120.2 17.7 124.45 17.3 125.5 17.15 125.4 15.5 126.05 16.05 125.8 Q14.65 126.3 13.65 125.2 L7.35 121.05 5.45 117.75 4.6 114.6 4.55 111.45 5.75 108.75 6.0 108.7 10.0 109.55 Q12.3 110.3 13.7 111.2 13.4 110.35 13.4 109.4 14.75 102.3 14.8 95.2 8.75 90.35 5.6 88.85 L5.55 88.9 4.15 90.1 3.2 92.75 2.95 92.65 2.45 92.6 2.8 90.05 Q2.7 89.5 1.85 89.5 L1.1 90.05 -0.8 90.65 -1.15 89.85 Q0.4 88.95 1.6 87.3 L1.6 87.25 -0.85 85.6 -0.9 84.95 Q-0.9 84.8 -0.5 84.8 1.0 85.75 2.3 85.7 5.85 86.15 10.55 87.75 L14.55 89.2 Q14.2 84.75 13.4 80.35 L13.15 80.2 12.45 78.95 11.35 79.35 Q8.8 80.1 6.4 78.8 4.0 77.5 3.25 74.95 2.5 72.4 3.8 69.95 5.1 67.6 7.65 66.85 9.95 66.15 12.2 67.15 11.6 57.8 8.8 48.4 8.7 46.05 10.7 45.1 11.05 34.5 8.45 24.05 L7.9 23.8 Q7.1 22.85 6.85 21.5 6.6 8.25 2.15 -4.55 2.0 -5.65 2.4 -6.5 0.5 -14.8 -3.3 -22.65 -3.65 -24.1 -3.0 -25.05 -4.05 -29.9 -5.95 -34.45 L-6.4 -35.45 Q-6.5 -32.9 -8.0 -31.25 -8.05 -30.8 -8.65 -29.9 L-9.4 -29.0 -9.55 -29.25 Q-8.85 -35.2 -8.9 -38.15 L-8.95 -41.0 -9.0 -41.25 -9.3 -41.35 -9.15 -41.9 -9.7 -43.8 -10.0 -44.8 -12.05 -40.75 -14.1 -37.6 Q-19.6 -30.3 -33.8 -22.45 L-29.1 -36.9 Q-26.55 -44.4 -24.45 -49.15 -39.1 -45.05 -66.6 -33.65 -29.3 -66.3 -14.8 -57.2 -16.1 -62.75 -18.65 -67.8 L-25.8 -69.8 Q-31.9 -71.25 -39.95 -72.3 L-52.9 -73.7 -46.3 -74.6 -38.3 -75.3 -20.9 -74.6 Q-21.9 -77.65 -23.3 -80.55 -38.1 -88.7 -55.65 -87.1 -39.25 -90.05 -29.6 -89.7 -37.85 -95.85 -51.85 -104.45 -26.1 -101.2 -19.75 -89.85 -22.1 -106.0 -31.95 -137.2 -17.4 -110.8 -18.5 -87.15 -16.45 -85.75 -15.95 -83.55 -14.7 -82.9 -14.0 -80.95 -13.2 -78.6 -13.55 -75.9 -13.8 -74.05 -14.45 -72.8 L-13.45 -72.35 -13.6 -71.4 -13.45 -71.1 -13.35 -70.95 -12.95 -69.25 -11.55 -69.45 Q-10.4 -69.15 -9.95 -67.65 -9.4 -66.1 -9.8 -64.25 L-10.05 -63.35 Q-9.65 -62.6 -9.35 -61.45 L-9.15 -61.35 Q-8.25 -60.85 -7.75 -59.4 -7.2 -57.85 -7.45 -56.15 L-7.65 -55.05 -6.95 -52.35 Q-6.15 -52.55 -5.25 -52.0 -3.75 -51.1 -2.9 -48.75 -1.95 -46.25 -2.2 -43.7 L-2.35 -42.4 -1.55 -41.45 -1.45 -41.25 -1.2 -40.05 Q0.1 -33.15 3.35 -27.05 4.7 -26.75 5.3 -25.25 M20.45 23.25 L20.25 23.25 20.25 23.4 20.45 23.25" fill="#ff0000" fill-opacity="0.0" fill-rule="evenodd" stroke="none"/>
      <path d="M5.3 -25.25 L5.4 -25.05 5.7 -23.4 Q6.9 -16.05 9.75 -9.15 L11.1 -8.85 Q12.9 -8.3 13.4 -6.4 L13.55 -6.1 13.6 -4.15 Q14.0 7.7 18.15 18.9 19.15 19.35 19.7 20.2 20.85 14.85 22.5 13.15 L24.85 11.3 25.95 9.5 Q26.4 8.2 26.45 6.7 28.95 6.05 32.0 6.0 38.45 5.75 47.2 7.85 L53.55 9.6 58.75 11.25 48.0 10.55 Q41.3 10.3 36.05 10.55 29.75 10.85 25.6 11.95 L25.35 12.1 Q23.4 12.85 20.15 21.4 L20.15 21.55 20.3 21.85 20.25 22.65 Q33.4 7.65 63.1 45.55 42.65 32.45 31.5 27.05 32.4 31.2 33.2 37.65 L34.5 49.95 Q24.3 41.6 21.0 34.9 L20.15 32.6 Q20.55 39.7 22.45 46.65 23.1 47.4 23.35 48.5 L23.5 48.8 23.35 50.95 Q22.95 57.8 23.9 64.7 24.4 64.2 25.1 63.85 27.15 62.8 29.3 63.5 31.45 64.2 32.55 66.25 33.6 68.35 32.9 70.5 32.2 72.65 30.15 73.7 28.05 74.8 25.9 74.1 L25.85 74.1 27.15 78.35 Q27.8 79.15 27.9 80.3 L28.0 80.6 27.85 81.55 29.85 79.0 Q30.9 78.3 31.35 76.6 31.6 76.35 31.75 76.45 32.15 76.6 32.2 77.05 L31.45 79.85 31.5 79.85 35.25 80.1 35.5 80.95 33.65 81.6 32.75 81.65 Q32.15 82.2 32.4 82.7 L34.25 84.25 34.4 84.4 33.9 85.05 31.45 83.55 29.55 83.55 Q28.15 86.75 26.95 94.65 L26.65 94.65 Q26.65 103.05 28.7 111.45 L28.65 111.5 Q31.1 113.95 31.55 117.35 L26.6 119.5 27.45 122.4 24.9 121.55 23.95 120.7 22.95 117.85 24.35 116.4 23.4 113.95 20.3 114.05 20.3 114.2 20.05 114.6 19.9 115.6 19.8 115.7 19.45 117.35 18.45 117.45 18.35 117.6 17.65 119.05 Q18.0 119.6 18.75 119.8 L18.7 120.2 17.7 124.45 17.3 125.5 17.15 125.4 15.5 126.05 16.05 125.8 Q14.65 126.3 13.65 125.2 L7.35 121.05 5.45 117.75 4.6 114.6 4.55 111.45 5.75 108.75 6.0 108.7 10.0 109.55 Q12.3 110.3 13.7 111.2 13.4 110.35 13.4 109.4 14.75 102.3 14.8 95.2 8.75 90.35 5.6 88.85 L5.55 88.9 4.15 90.1 3.2 92.75 2.95 92.65 2.45 92.6 2.8 90.05 Q2.7 89.5 1.85 89.5 L1.1 90.05 -0.8 90.65 -1.15 89.85 Q0.4 88.95 1.6 87.3 L1.6 87.25 -0.85 85.6 -0.9 84.95 Q-0.9 84.8 -0.5 84.8 1.0 85.75 2.3 85.7 5.85 86.15 10.55 87.75 L14.55 89.2 Q14.2 84.75 13.4 80.35 L13.15 80.2 12.45 78.95 11.35 79.35 Q8.8 80.1 6.4 78.8 4.0 77.5 3.25 74.95 2.5 72.4 3.8 69.95 5.1 67.6 7.65 66.85 9.95 66.15 12.2 67.15 11.6 57.8 8.8 48.4 8.7 46.05 10.7 45.1 11.05 34.5 8.45 24.05 L7.9 23.8 Q7.1 22.85 6.85 21.5 6.6 8.25 2.15 -4.55 2.0 -5.65 2.4 -6.5 0.5 -14.8 -3.3 -22.65 -3.65 -24.1 -3.0 -25.05 -4.05 -29.9 -5.95 -34.45 L-6.4 -35.45 Q-6.5 -32.9 -8.0 -31.25 -8.05 -30.8 -8.65 -29.9 L-9.4 -29.0 -9.55 -29.25 Q-8.85 -35.2 -8.9 -38.15 L-8.95 -41.0 -9.0 -41.25 -9.3 -41.35 -9.15 -41.9 -9.7 -43.8 -10.0 -44.8 -12.05 -40.75 -14.1 -37.6 Q-19.6 -30.3 -33.8 -22.45 L-29.1 -36.9 Q-26.55 -44.4 -24.45 -49.15 -39.1 -45.05 -66.6 -33.65 -29.3 -66.3 -14.8 -57.2 -16.1 -62.75 -18.65 -67.8 L-25.8 -69.8 Q-31.9 -71.25 -39.95 -72.3 L-52.9 -73.7 -46.3 -74.6 -38.3 -75.3 -20.9 -74.6 Q-21.9 -77.65 -23.3 -80.55 -38.1 -88.7 -55.65 -87.1 -39.25 -90.05 -29.6 -89.7 -37.85 -95.85 -51.85 -104.45 -26.1 -101.2 -19.75 -89.85 -22.1 -106.0 -31.95 -137.2 -17.4 -110.8 -18.5 -87.15 -16.45 -85.75 -15.95 -83.55 -14.7 -82.9 -14.0 -80.95 -13.2 -78.6 -13.55 -75.9 -13.8 -74.05 -14.45 -72.8 L-13.45 -72.35 -13.6 -71.4 -13.45 -71.1 -13.35 -70.95 -12.95 -69.25 -11.55 -69.45 Q-10.4 -69.15 -9.95 -67.65 -9.4 -66.1 -9.8 -64.25 L-10.05 -63.35 Q-9.65 -62.6 -9.35 -61.45 L-9.15 -61.35 Q-8.25 -60.85 -7.75 -59.4 -7.2 -57.85 -7.45 -56.15 L-7.65 -55.05 -6.95 -52.35 Q-6.15 -52.55 -5.25 -52.0 -3.75 -51.1 -2.9 -48.75 -1.95 -46.25 -2.2 -43.7 L-2.35 -42.4 -1.55 -41.45 -1.45 -41.25 -1.2 -40.05 Q0.1 -33.15 3.35 -27.05 4.7 -26.75 5.3 -25.25 Z" fill="none" stroke="#defabe" stroke-linecap="round" stroke-linejoin="round" stroke-width="4.0"/>
    </g>
    <g id="sprite0">
      <use ffdec:characterId="5" height="27.6" transform="matrix(1.0, 0.0, 0.0, 1.0, 0.0, 0.0)" width="28.2" xlink:href="#shape1"/>
      <use ffdec:characterId="6" height="5.85" transform="matrix(-0.0184, -1.5714, -1.5714, 0.0184, 23.15, 97.6)" width="5.15" xlink:href="#shape2"/>
      <use ffdec:characterId="7" height="8.5" transform="matrix(-1.2725, -0.4065, -0.4065, 1.2725, 27.6, 68.8)" width="8.5" xlink:href="#shape3"/>
      <use ffdec:characterId="8" height="12.75" transform="matrix(0.224, -0.677, -0.7062, -0.2281, 26.1, 88.75)" width="26.75" xlink:href="#shape4"/>
      <use ffdec:characterId="9" height="23.85" transform="matrix(-1.8528, -0.0134, 0.0078, 1.5899, 20.95, 96.95)" width="8.25" xlink:href="#shape5"/>
      <use ffdec:characterId="9" height="23.85" transform="matrix(-1.8528, -0.0134, 0.1839, 1.5912, 18.25, 65.15)" width="8.25" xlink:href="#shape6"/>
      <use ffdec:characterId="10" height="22.85" transform="matrix(-0.9835, -3.0E-4, 0.1776, 1.115, -6.55, -44.45)" width="64.6" xlink:href="#shape7"/>
      <use ffdec:characterId="11" height="45.3" transform="matrix(0.3344, 0.4195, -0.4576, 0.4879, -8.95, -49.3)" width="92.0" xlink:href="#shape8"/>
      <use ffdec:characterId="12" height="58.15" transform="matrix(0.6115, 0.6846, -0.2639, 0.6638, -10.7, -53.95)" width="18.6" xlink:href="#shape9"/>
      <use ffdec:characterId="13" height="28.45" transform="matrix(1.0, 0.0, 0.0, 1.0, 0.0, 0.0)" width="4.9" xlink:href="#shape10"/>
      <use ffdec:characterId="9" height="23.85" transform="matrix(-1.545, 0.1312, 0.1361, 1.4528, 15.75, 37.3)" width="8.25" xlink:href="#shape11"/>
      <use ffdec:characterId="9" height="23.85" transform="matrix(-1.4382, 0.2369, 0.261, 1.4189, 10.7, 9.4)" width="8.25" xlink:href="#shape12"/>
      <use ffdec:characterId="10" height="22.85" transform="matrix(0.8001, 0.1395, -0.3325, 0.877, 16.05, 28.3)" width="64.6" xlink:href="#shape13"/>
      <use ffdec:characterId="11" height="45.3" transform="matrix(-0.3428, 0.292, 0.2901, 0.4598, 18.9, 24.75)" width="92.0" xlink:href="#shape14"/>
      <use ffdec:characterId="12" height="58.15" transform="matrix(-0.6129, 0.4671, 0.1028, 0.5746, 21.05, 21.2)" width="18.6" xlink:href="#shape15"/>
      <use ffdec:characterId="9" height="23.85" transform="matrix(-1.0972, 0.3349, 0.363, 1.1523, 4.95, -11.9)" width="8.25" xlink:href="#shape16"/>
      <use ffdec:characterId="9" height="23.85" transform="matrix(-0.8368, 0.3101, 0.2985, 0.8455, -1.6, -31.35)" width="8.25" xlink:href="#shape17"/>
      <use ffdec:characterId="14" height="19.15" transform="matrix(1.0, 0.0, 0.0, 1.0, 0.0, 0.0)" width="12.45" xlink:href="#shape18"/>
      <use ffdec:characterId="15" height="14.95" transform="matrix(-0.359, 0.4069, 0.3015, 0.7781, -5.8, -45.8)" width="15.7" xlink:href="#shape19"/>
      <use ffdec:characterId="16" height="18.45" transform="matrix(1.0, 0.0, 0.0, 1.0, 0.0, 0.0)" width="11.4" xlink:href="#shape20"/>
      <use ffdec:characterId="15" height="14.95" transform="matrix(-0.3202, 0.358, 0.1705, 0.4831, -12.5, -65.0)" width="15.7" xlink:href="#shape21"/>
      <use ffdec:characterId="15" height="14.95" transform="matrix(-0.2432, 0.2719, 0.1705, 0.4831, -9.7, -57.4)" width="15.7" xlink:href="#shape21"/>
      <use ffdec:characterId="17" height="18.05" transform="matrix(1.0, 0.0, 0.0, 1.0, 0.0, 0.0)" width="11.25" xlink:href="#shape22"/>
      <use ffdec:characterId="15" height="14.95" transform="matrix(-0.4026, 0.494, 0.2805, 0.733, -17.25, -77.3)" width="15.7" xlink:href="#shape19"/>
      <use ffdec:characterId="18" height="9.3" transform="matrix(-0.1754, -0.8934, -0.6897, -0.3582, -19.3, -82.95)" width="60.75" xlink:href="#shape23"/>
      <use ffdec:characterId="10" height="22.85" transform="matrix(-0.4706, -0.6399, -0.342, 0.8143, -19.0, -72.15)" width="64.6" xlink:href="#shape24"/>
      <use ffdec:characterId="18" height="9.3" transform="matrix(0.7208, 0.1205, -1.6649, 0.9353, -54.8, -86.9)" width="60.75" xlink:href="#shape25"/>
      <use ffdec:characterId="8" height="12.75" transform="matrix(-0.6339, -0.3663, 0.3882, -0.6141, 11.8, 90.6)" width="26.75" xlink:href="#shape26"/>
      <use ffdec:characterId="6" height="5.85" transform="matrix(-1.5586, 2.7166, 2.7166, 1.5586, 8.5, 118.45)" width="5.15" xlink:href="#shape27"/>
      <use ffdec:characterId="7" height="8.5" transform="matrix(-1.5118, 0.4478, 0.4478, 1.5118, 9.5, 73.1)" width="8.5" xlink:href="#shape28"/>
    </g>
    <g id="shape1">
      <path d="M36.25 130.1 Q36.35 132.95 32.1 135.0 28.05 137.15 22.2 137.15 L12.15 135.0 Q8.05 132.95 8.05 130.1 8.05 127.25 12.15 125.05 L22.2 123.05 32.1 125.05 Q36.35 127.25 36.25 130.1" fill="url(#gradient0)" fill-rule="evenodd" stroke="none"/>
      <path d="M24.9 121.55 L23.95 120.7 22.95 117.85 24.35 116.4 23.1 113.2 26.15 109.55 26.35 109.65 29.2 116.5 31.55 117.35 26.6 119.5 26.8 120.2 24.9 121.55" fill="#204d1c" fill-rule="evenodd" stroke="none"/>
      <path d="M24.9 121.55 L26.8 120.2 27.45 122.4 24.9 121.55 M31.55 117.35 L29.2 116.5 26.35 109.65 Q30.9 112.6 31.55 117.35" fill="#5e8132" fill-rule="evenodd" stroke="none"/>
    </g>
    <radialGradient cx="0" cy="0" gradientTransform="matrix(-0.0184, 0.0, 0.0, 0.0073, 22.2, 130.1)" gradientUnits="userSpaceOnUse" id="gradient0" r="819.2" spreadMethod="pad">
      <stop offset="0.0" stop-color="#395120" stop-opacity="0.5529412"/>
      <stop offset="0.8509803921568627" stop-color="#455f2e" stop-opacity="0.0"/>
    </radialGradient>
    <g id="shape2">
      <path d="M-2.1 0.45 L-1.85 1.05 Q-3.1 0.4 -3.6 0.4 L-3.25 0.3 -2.1 0.45 M-2.05 2.85 L-2.55 2.7 -1.85 2.6 -2.05 2.85" fill="#426b27" fill-rule="evenodd" stroke="none"/>
      <path d="M-3.6 0.4 Q-3.1 0.4 -1.85 1.05 L-1.85 1.1 -1.5 1.45 -1.35 1.6 -0.65 2.45 -0.55 2.55 Q-0.45 2.85 -0.7 3.0 L-0.7 2.65 -1.8 2.6 -1.85 2.6 -2.55 2.7 -2.6 2.7 -2.9 2.6 -3.05 2.6 -3.1 2.55 -3.9 1.55 -3.9 1.5 -3.95 1.45 -4.05 1.0 -4.0 0.85 -3.85 0.5 -3.8 0.45 -3.6 0.4 M-3.9 1.45 L-4.0 1.1 -4.0 1.05 -4.0 0.85 -4.0 1.05 -4.0 1.1 -3.9 1.45 -3.9 1.5 -3.9 1.45 -3.95 1.3 -3.9 1.5 -3.95 1.3 -3.9 1.45 M-4.05 1.0 L-3.95 1.3 -4.05 1.0 M-3.55 1.65 Q-3.95 1.3 -3.75 0.9 -3.95 1.3 -3.55 1.65 M-3.1 2.55 L-2.9 2.6 -3.1 2.55 M-4.0 1.1 L-3.95 1.3 -4.0 1.1" fill="#678935" fill-rule="evenodd" stroke="none"/>
      <path d="M-2.1 0.45 L-3.25 0.3 -3.6 0.4 -3.8 0.45 -3.85 0.5 -4.0 0.85 -4.05 1.0 -3.95 1.3 -3.9 1.45 -3.9 1.5 -3.95 1.45 M-0.7 3.0 L-0.7 2.65 -1.8 2.6 -1.85 2.6 -2.55 2.7 -2.6 2.7 M-2.9 2.6 L-3.05 2.6 -3.1 2.55 -3.9 1.55" ffdec:has-small-stroke="true" ffdec:original-stroke-width="0.125" fill="none" stroke="#204d1c" stroke-linecap="round" stroke-linejoin="round" stroke-opacity="0.3019608" stroke-width="0.25454065445016405"/>
      <path d="M-1.8 2.6 L-1.9 2.9 -2.05 2.85 -2.55 2.7 M-2.6 2.7 L-2.9 2.6 -3.1 2.55 M-3.9 1.55 L-3.9 1.5 -3.95 1.3 -4.0 1.1 -3.9 1.45 M-1.85 2.6 L-2.05 2.85 M-4.0 0.85 L-4.0 1.05 -4.0 1.1 M-3.75 0.9 Q-3.95 1.3 -3.55 1.65" ffdec:has-small-stroke="true" ffdec:original-stroke-width="0.125" fill="none" stroke="#abd8a7" stroke-linecap="round" stroke-linejoin="round" stroke-opacity="0.3019608" stroke-width="0.25454065445016405"/>
      <path d="M-0.45 -1.7 L-2.4 -0.05 -0.45 -1.7 0.3 -0.95 0.9 0.1 1.0 1.35 1.05 2.5 Q1.2 2.95 0.85 3.25 L1.0 3.15 Q0.75 3.35 0.55 3.5 L0.15 3.45 -0.1 3.2 -0.15 3.1 -0.05 3.2 -0.15 3.1 Q-0.2 2.45 -0.4 2.05 -0.55 1.65 -0.85 1.5 L-1.7 1.3 -1.8 1.3 -1.95 1.05 -1.7 1.3 -1.95 1.05 Q-2.45 0.45 -2.4 -0.05 L-2.45 0.05 -2.45 -1.45 -2.3 -2.25 -2.25 -2.3 -1.3 -2.2 -0.45 -1.7 M0.3 -0.95 L-1.95 1.05 0.3 -0.95 M-0.05 3.2 L-0.1 3.2 -0.05 3.2 0.15 3.45 -0.05 3.2 1.05 2.5 -0.05 3.2 M1.0 1.35 L-0.4 2.05 1.0 1.35" fill="#426b27" fill-rule="evenodd" stroke="none"/>
      <path d="M-2.3 -2.25 L-2.45 -1.45 -2.45 0.05 -2.4 -0.05 Q-2.45 0.45 -1.95 1.05 L-1.8 1.3 -1.7 1.3 -0.85 1.5 Q-0.55 1.65 -0.4 2.05 -0.2 2.45 -0.15 3.1 L-0.1 3.2 0.15 3.45 0.55 3.5 0.55 3.55 0.5 3.55 0.2 3.5 -1.15 3.1 -1.25 3.05 Q-1.1 2.45 -1.85 2.2 L-2.25 1.95 -2.75 1.25 -2.75 1.2 -2.8 0.8 Q-2.95 0.15 -2.7 -1.0 L-2.3 -2.25 M0.2 3.5 L0.15 3.45 0.2 3.5" fill="#678935" fill-rule="evenodd" stroke="none"/>
      <path d="M-2.4 -0.05 L-0.45 -1.7 M-2.45 0.05 L-2.4 -0.05 M-1.95 1.05 L0.3 -0.95 M-0.4 2.05 L1.0 1.35 M-0.1 3.2 L-0.05 3.2 1.05 2.5" ffdec:has-small-stroke="true" ffdec:original-stroke-width="0.125" fill="none" stroke="#abd8a7" stroke-linecap="round" stroke-linejoin="round" stroke-opacity="0.3019608" stroke-width="0.25454065445016405"/>
      <path d="M-2.3 -2.25 L-2.45 -1.45 -2.45 0.05 M0.55 3.55 L0.5 3.55 0.2 3.5 -1.15 3.1 -1.25 3.05 Q-1.1 2.45 -1.85 2.2 L-2.25 1.95 -2.75 1.25 -2.75 1.2 -2.8 0.8 Q-2.95 0.15 -2.7 -1.0 L-2.3 -2.25 M1.05 2.5 Q1.2 2.95 0.85 3.25 L1.0 3.15 Q0.75 3.35 0.55 3.5 M0.15 3.45 L0.2 3.5 M-1.7 1.3 L-1.95 1.05 M-1.7 1.3 L-0.85 1.5 Q-0.55 1.65 -0.4 2.05 -0.2 2.45 -0.15 3.1 L-0.05 3.2 0.15 3.45" ffdec:has-small-stroke="true" ffdec:original-stroke-width="0.125" fill="none" stroke="#204d1c" stroke-linecap="round" stroke-linejoin="round" stroke-opacity="0.3019608" stroke-width="0.25454065445016405"/>
    </g>
    <g id="shape3">
      <path d="M2.9 -2.95 Q4.15 -1.7 4.15 0.0 4.15 1.7 2.9 2.9 1.7 4.15 0.0 4.15 -1.7 4.15 -2.95 2.9 -4.15 1.7 -4.15 0.0 -4.15 -1.7 -2.95 -2.95 -1.7 -4.15 0.0 -4.15 1.7 -4.15 2.9 -2.95" fill="url(#gradient1)" fill-rule="evenodd" stroke="none"/>
      <path d="M2.9 -2.95 Q4.15 -1.7 4.15 0.0 4.15 1.7 2.9 2.9 1.7 4.15 0.0 4.15 -1.7 4.15 -2.95 2.9 -4.15 1.7 -4.15 0.0 -4.15 -1.7 -2.95 -2.95 -1.7 -4.15 0.0 -4.15 1.7 -4.15 2.9 -2.95 Z" ffdec:has-small-stroke="true" ffdec:original-stroke-width="0.625" fill="none" stroke="#548548" stroke-linecap="round" stroke-linejoin="round" stroke-width="0.2994373543067996"/>
      <path d="M1.7 -1.95 Q2.3 -1.05 2.3 0.1 2.3 1.3 1.7 2.2 1.2 3.05 0.4 3.05 -0.35 3.05 -0.95 2.2 -1.45 1.3 -1.45 0.1 -1.45 -1.05 -0.95 -1.95 -0.35 -2.8 0.4 -2.8 1.2 -2.8 1.7 -1.95" fill="#204d1c" fill-rule="evenodd" stroke="none"/>
      <path d="M-1.7 -0.05 Q-2.3 -0.05 -2.75 -0.45 -3.05 -0.9 -3.0 -1.5 -2.95 -2.1 -2.55 -2.5 L-1.45 -2.85 Q-0.8 -2.8 -0.5 -2.35 -0.15 -1.85 -0.15 -1.25 -0.25 -0.65 -0.65 -0.3 -1.05 0.05 -1.7 -0.05" fill="#d2ffce" fill-rule="evenodd" stroke="none"/>
    </g>
    <radialGradient cx="0" cy="0" gradientTransform="matrix(0.0052, 0.0, 0.0, 0.0052, 0.7, -1.6)" gradientUnits="userSpaceOnUse" id="gradient1" r="819.2" spreadMethod="pad">
      <stop offset="0.24705882352941178" stop-color="#c2eebb"/>
      <stop offset="0.8352941176470589" stop-color="#abd89b"/>
      <stop offset="1.0" stop-color="#a5d194"/>
    </radialGradient>
    <g id="shape4">
      <path d="M9.5 -8.5 L8.9 -8.05 9.7 -4.95 10.2 -4.95 9.5 -4.3 9.45 -3.85 10.2 -3.75 9.2 -2.5 8.45 -2.3 9.2 -4.65 Q8.5 -6.55 8.35 -8.45 L8.75 -8.55 9.35 -8.8 9.5 -8.5 M13.85 -3.1 Q13.95 -5.75 15.2 -7.6 15.15 -8.6 14.25 -8.3 L12.75 -6.65 Q13.55 -7.85 14.5 -8.7 L15.5 -8.05 Q14.35 -5.9 14.2 -3.1 L13.85 -3.1 M18.8 -2.05 Q18.9 -1.8 18.45 -1.55 16.05 -1.7 14.6 -0.7 10.1 1.2 3.5 2.5 L6.65 0.35 12.6 -1.55 18.8 -2.05" fill="#aac353" fill-rule="evenodd" stroke="none"/>
      <path d="M9.2 -2.5 L10.2 -3.75 9.45 -3.85 9.5 -4.3 10.2 -4.95 9.7 -4.95 8.9 -8.05 9.5 -8.5 10.8 -5.5 Q11.35 -4.95 12.3 -5.5 L12.75 -6.65 14.25 -8.3 Q15.15 -8.6 15.2 -7.6 13.95 -5.75 13.85 -3.1 L14.2 -3.1 14.2 -3.05 18.25 -2.8 Q18.8 -2.6 18.8 -2.05 L12.6 -1.55 6.65 0.35 3.5 2.5 -4.35 3.95 Q-9.1 1.05 -7.55 -3.6 3.55 -1.8 8.4 -2.2 L8.45 -2.3 9.2 -2.5 M10.35 -2.85 L13.85 -3.1 10.35 -2.85" fill="url(#gradient2)" fill-rule="evenodd" stroke="none"/>
      <path d="M9.5 -8.5 L9.35 -8.8 8.75 -8.55 M8.45 -2.3 L9.2 -2.5 M13.85 -3.1 L14.2 -3.1 M13.85 -3.1 L10.35 -2.85" ffdec:has-small-stroke="true" ffdec:original-stroke-width="0.125" fill="none" stroke="#b7d881" stroke-linecap="round" stroke-linejoin="round" stroke-opacity="0.3019608" stroke-width="0.5498376911340624"/>
      <path d="M8.75 -8.55 L8.35 -8.45 Q8.5 -6.55 9.2 -4.65 L8.45 -2.3 8.4 -2.2 Q3.55 -1.8 -7.55 -3.6 -9.1 1.05 -4.35 3.95 L3.5 2.5 Q10.1 1.2 14.6 -0.7 16.05 -1.7 18.45 -1.55 18.9 -1.8 18.8 -2.05 18.8 -2.6 18.25 -2.8 L14.2 -3.05 14.2 -3.1 Q14.35 -5.9 15.5 -8.05 L14.5 -8.7 Q13.55 -7.85 12.75 -6.65 L12.3 -5.5 Q11.35 -4.95 10.8 -5.5 L9.5 -8.5" ffdec:has-small-stroke="true" ffdec:original-stroke-width="0.125" fill="none" stroke="#789942" stroke-linecap="round" stroke-linejoin="round" stroke-opacity="0.3019608" stroke-width="0.5498376911340624"/>
    </g>
    <linearGradient gradientTransform="matrix(0.0087, 0.0079, -0.0052, 0.0057, 5.4, -2.45)" gradientUnits="userSpaceOnUse" id="gradient2" spreadMethod="pad" x1="-819.2" x2="819.2">
      <stop offset="0.0" stop-color="#8ca949"/>
      <stop offset="1.0" stop-color="#a0b950"/>
    </linearGradient>
    <g id="shape5">
      <path d="M-3.65 -8.95 L-3.85 -10.3 -3.8 -10.5 Q-3.7 -11.85 -2.55 -12.45 -0.6 -13.45 1.55 -12.95 3.9 -12.65 4.05 -10.5 L2.65 -8.95 2.65 -7.8 1.7 -8.2 -0.2 -8.0 -0.9 -6.8 -1.0 -8.05 -2.25 -7.95 -2.5 -8.0 -3.65 -8.95" fill="#89aa47" fill-rule="evenodd" stroke="none"/>
      <path d="M2.65 -7.8 L2.65 -8.95 4.05 -10.5 Q2.6 -1.25 4.1 7.85 4.1 8.8 3.7 9.5 L2.75 10.15 Q0.95 1.05 2.65 -7.8" fill="url(#gradient3)" fill-rule="evenodd" stroke="none"/>
      <path d="M-3.65 -8.95 L-2.5 -8.0 -2.25 -7.95 -1.0 -8.05 -0.9 -6.8 Q-0.55 2.1 -1.25 10.7 L-4.15 9.1 Q-2.3 0.1 -3.65 -8.95 M-2.35 3.6 Q-1.85 -0.8 -2.65 -5.9 -1.85 -0.8 -2.35 3.6" fill="url(#gradient4)" fill-rule="evenodd" stroke="none"/>
      <path d="M-0.9 -6.8 L-0.2 -8.0 1.7 -8.2 2.65 -7.8 Q0.95 1.05 2.75 10.15 L1.8 10.5 0.7 10.75 -1.25 10.7 Q-0.55 2.1 -0.9 -6.8" fill="#aac75b" fill-rule="evenodd" stroke="none"/>
      <path d="M4.05 -10.5 Q3.9 -12.65 1.55 -12.95 -0.6 -13.45 -2.55 -12.45 -3.7 -11.85 -3.8 -10.5 L-3.85 -10.3 -3.65 -8.95 Q-2.3 0.1 -4.15 9.1 M-2.5 -8.0 L-2.25 -7.95 M4.05 -10.5 Q2.6 -1.25 4.1 7.85" ffdec:has-small-stroke="true" ffdec:original-stroke-width="0.125" fill="none" stroke="#204d1c" stroke-linecap="round" stroke-linejoin="round" stroke-opacity="0.3019608" stroke-width="0.2330583993267019"/>
      <path d="M-2.65 -5.9 Q-1.85 -0.8 -2.35 3.6" ffdec:has-small-stroke="true" ffdec:original-stroke-width="0.125" fill="none" stroke="#b5c85b" stroke-linecap="round" stroke-linejoin="round" stroke-width="0.2330583993267019"/>
    </g>
    <radialGradient cx="0" cy="0" gradientTransform="matrix(0.0055, 0.0, 0.0, 0.0167, 3.6, 3.45)" gradientUnits="userSpaceOnUse" id="gradient3" r="819.2" spreadMethod="pad">
      <stop offset="0.43529411764705883" stop-color="#91af4c"/>
      <stop offset="0.9490196078431372" stop-color="#628637"/>
    </radialGradient>
    <radialGradient cx="0" cy="0" gradientTransform="matrix(0.0032, 0.0, 0.0, 0.0084, -2.6, 0.0)" gradientUnits="userSpaceOnUse" id="gradient4" r="819.2" spreadMethod="pad">
      <stop offset="0.10588235294117647" stop-color="#bbdc99"/>
      <stop offset="1.0" stop-color="#b9d980"/>
    </radialGradient>
    <g id="shape6">
      <path d="M-3.65 -8.95 L-3.85 -10.3 -3.8 -10.5 Q-3.7 -11.85 -2.55 -12.45 -0.6 -13.45 1.55 -12.95 3.9 -12.65 4.05 -10.5 L2.65 -8.95 2.65 -7.8 1.7 -8.2 -0.2 -8.0 -0.9 -6.8 -1.0 -8.05 -2.25 -7.95 -2.5 -8.0 -3.65 -8.95" fill="#96b54c" fill-rule="evenodd" stroke="none"/>
      <path d="M2.65 -7.8 L2.65 -8.95 4.05 -10.5 Q2.6 -1.25 4.1 7.85 4.1 8.8 3.7 9.5 L2.75 10.15 Q0.95 1.05 2.65 -7.8" fill="url(#gradient5)" fill-rule="evenodd" stroke="none"/>
      <path d="M-3.65 -8.95 L-2.5 -8.0 -2.25 -7.95 -1.0 -8.05 -0.9 -6.8 Q-0.55 2.1 -1.25 10.7 L-4.15 9.1 Q-2.3 0.1 -3.65 -8.95 M-2.35 3.6 Q-1.85 -0.8 -2.65 -5.9 -1.85 -0.8 -2.35 3.6" fill="url(#gradient6)" fill-rule="evenodd" stroke="none"/>
      <path d="M-0.9 -6.8 L-0.2 -8.0 1.7 -8.2 2.65 -7.8 Q0.95 1.05 2.75 10.15 L1.8 10.5 0.7 10.75 -1.25 10.7 Q-0.55 2.1 -0.9 -6.8" fill="#bbd662" fill-rule="evenodd" stroke="none"/>
      <path d="M4.05 -10.5 Q3.9 -12.65 1.55 -12.95 -0.6 -13.45 -2.55 -12.45 -3.7 -11.85 -3.8 -10.5 L-3.85 -10.3 -3.65 -8.95 Q-2.3 0.1 -4.15 9.1 M-2.5 -8.0 L-2.25 -7.95 M4.05 -10.5 Q2.6 -1.25 4.1 7.85" ffdec:has-small-stroke="true" ffdec:original-stroke-width="0.125" fill="none" stroke="#204d1c" stroke-linecap="round" stroke-linejoin="round" stroke-opacity="0.3019608" stroke-width="0.23305868846407587"/>
      <path d="M-2.65 -5.9 Q-1.85 -0.8 -2.35 3.6" ffdec:has-small-stroke="true" ffdec:original-stroke-width="0.125" fill="none" stroke="#c7d762" stroke-linecap="round" stroke-linejoin="round" stroke-width="0.23305868846407587"/>
    </g>
    <radialGradient cx="0" cy="0" gradientTransform="matrix(0.0055, 0.0, 0.0, 0.0167, 3.6, 3.45)" gradientUnits="userSpaceOnUse" id="gradient5" r="819.2" spreadMethod="pad">
      <stop offset="0.43529411764705883" stop-color="#9fbb52"/>
      <stop offset="0.9490196078431372" stop-color="#6a8d3a"/>
    </radialGradient>
    <radialGradient cx="0" cy="0" gradientTransform="matrix(0.0032, 0.0, 0.0, 0.0084, -2.6, 0.0)" gradientUnits="userSpaceOnUse" id="gradient6" r="819.2" spreadMethod="pad">
      <stop offset="0.10588235294117647" stop-color="#ceeda7"/>
      <stop offset="1.0" stop-color="#cbea8b"/>
    </radialGradient>
    <g id="shape7">
      <path d="M2.05 -6.05 Q10.05 -26.05 62.8 9.7 9.85 -8.45 2.05 -6.05" fill="url(#gradient7)" fill-rule="evenodd" stroke="none"/>
      <path d="M2.05 -6.05 Q1.5 -4.75 1.2 -3.15 L-1.3 -0.05 Q-1.0 -2.2 1.2 -3.15 -0.15 -5.4 2.05 -6.05" fill="none" stroke="#305e23" stroke-linecap="round" stroke-linejoin="round" stroke-opacity="0.33333334" stroke-width="1.0"/>
      <path d="M2.05 -6.05 Q10.05 -26.05 62.8 9.7 9.85 -8.45 2.05 -6.05 Z" ffdec:has-small-stroke="true" ffdec:original-stroke-width="0.125" fill="none" stroke="#305e23" stroke-linecap="round" stroke-linejoin="round" stroke-opacity="0.33333334" stroke-width="0.38199792680483236"/>
    </g>
    <linearGradient gradientTransform="matrix(0.0394, 0.0, 0.0, 0.0105, 31.0, 4.85)" gradientUnits="userSpaceOnUse" id="gradient7" spreadMethod="pad" x1="-819.2" x2="819.2">
      <stop offset="0.4549019607843137" stop-color="#7baf35"/>
      <stop offset="1.0" stop-color="#629730"/>
    </linearGradient>
    <g id="shape8">
      <path d="M-51.2 -3.25 L-51.15 -3.2 Q-33.9 -11.2 -27.45 -11.85 L-20.75 -12.1 -27.4 -10.15 -28.05 -9.95 Q-37.2 -6.6 -49.6 0.6 L-51.55 0.55 -51.65 -1.3 -51.2 -3.2 -51.2 -3.25 Q-50.45 -5.6 -48.75 -8.3 L-47.3 -10.75 Q-41.4 -14.3 -35.9 -16.4 -34.05 -14.3 -31.65 -13.1 -43.85 -8.05 -51.2 -3.25 M-73.9 10.2 L-70.35 12.2 Q-70.45 13.55 -72.4 14.8 -75.05 16.5 -83.9 20.3 -78.8 14.9 -73.9 10.2" fill="#8cc43c" fill-rule="evenodd" stroke="none"/>
      <path d="M-27.45 -11.85 Q-33.9 -11.2 -51.15 -3.2 L-51.2 -3.25 Q-43.85 -8.05 -31.65 -13.1 -29.75 -12.2 -27.45 -11.85" fill="#7baf37" fill-rule="evenodd" stroke="none"/>
      <path d="M-51.2 -3.25 L-51.2 -3.2 -51.65 -1.3 -51.55 0.55 -49.6 0.6 Q-59.85 6.5 -72.25 15.0 L-72.4 14.8 Q-70.45 13.55 -70.35 12.2 L-73.9 10.2 Q-59.75 -3.35 -47.3 -10.75 L-48.75 -8.3 Q-50.45 -5.6 -51.2 -3.25" fill="#90b050" fill-rule="evenodd" stroke="none"/>
      <path d="M-27.4 -10.15 L-20.75 -12.1 Q-13.5 -11.5 0.25 0.15 -21.9 -11.6 -27.4 -10.15" fill="#649734" fill-rule="evenodd" stroke="none"/>
      <path d="M-72.4 14.8 L-72.25 15.0 -91.75 28.9 -83.9 20.3 Q-75.05 16.5 -72.4 14.8" fill="#8ca74e" fill-rule="evenodd" stroke="none"/>
      <path d="M-49.6 0.6 Q-37.2 -6.6 -28.05 -9.95 L-27.4 -10.15 -20.75 -12.1 -27.45 -11.85 Q-29.75 -12.2 -31.65 -13.1 -34.05 -14.3 -35.9 -16.4 -41.4 -14.3 -47.3 -10.75 -59.75 -3.35 -73.9 10.2 -78.8 14.9 -83.9 20.3 L-91.75 28.9 -72.25 15.0 Q-59.85 6.5 -49.6 0.6 M-20.75 -12.1 Q-13.5 -11.5 0.25 0.15 -21.9 -11.6 -27.4 -10.15" ffdec:has-small-stroke="true" ffdec:original-stroke-width="0.125" fill="none" stroke="#356425" stroke-linecap="round" stroke-linejoin="round" stroke-opacity="0.33333334" stroke-width="0.671210564473431"/>
    </g>
    <g id="shape9">
      <path d="M-13.2 39.3 Q-14.65 6.95 -9.6 5.35 -3.15 3.3 4.85 1.7 5.55 0.95 4.4 15.35 L3.55 20.95 -4.65 20.25 Q-4.9 20.25 -5.6 22.5 -6.4 25.1 -6.4 27.4 -6.4 28.3 -5.55 29.95 -4.7 31.65 -4.7 32.9 -4.7 33.95 -5.9 35.5 -7.15 37.2 -8.3 37.2 -9.8 37.2 -11.4 36.4 -12.25 36.4 -13.2 39.3" fill="url(#gradient8)" fill-rule="evenodd" stroke="none"/>
      <path d="M-13.2 39.3 Q-12.25 36.4 -11.4 36.4 -9.8 37.2 -8.3 37.2 -7.15 37.2 -5.9 35.5 -4.7 33.95 -4.7 32.9 -4.7 31.65 -5.55 29.95 -6.4 28.3 -6.4 27.4 -6.4 25.1 -5.6 22.5 -4.9 20.25 -4.65 20.25 L3.55 20.95 Q0.55 35.05 -11.95 59.8 -12.85 48.35 -13.2 39.3" fill="#9dc14b" fill-rule="evenodd" stroke="none"/>
      <path d="M3.55 20.95 L4.4 15.35 Q5.55 0.95 4.85 1.7 -3.15 3.3 -9.6 5.35 -14.65 6.95 -13.2 39.3 -12.85 48.35 -11.95 59.8 0.55 35.05 3.55 20.95 Z" ffdec:has-small-stroke="true" ffdec:original-stroke-width="0.125" fill="none" stroke="#376626" stroke-linecap="round" stroke-linejoin="round" stroke-opacity="0.33333334" stroke-width="0.5222735174900602"/>
    </g>
    <linearGradient gradientTransform="matrix(0.0043, -0.0116, 0.0336, 0.0126, -2.25, 18.0)" gradientUnits="userSpaceOnUse" id="gradient8" spreadMethod="pad" x1="-819.2" x2="819.2">
      <stop offset="0.4549019607843137" stop-color="#a2da41"/>
      <stop offset="1.0" stop-color="#7fb739"/>
    </linearGradient>
    <g id="shape10">
      <path d="M-8.4 -41.8 L-8.0 -31.25 Q-8.05 -30.8 -8.65 -29.9 L-9.4 -29.0 -9.55 -29.25 Q-8.85 -35.2 -8.9 -38.15 L-8.95 -41.25 -8.4 -41.8 -8.95 -41.25 -9.3 -41.35 -9.0 -42.65 -9.15 -45.35 Q-9.4 -49.5 -10.3 -53.05 -11.15 -56.7 -10.3 -56.05 -10.5 -58.35 -9.0 -55.25 L-8.4 -41.8" fill="#b0cc5c" fill-rule="evenodd" stroke="none"/>
      <path d="M-8.4 -41.8 L-8.0 -42.3 -7.1 -44.1 -8.0 -42.3 -8.4 -41.8 -9.0 -55.25 -8.45 -54.3 Q-7.7 -52.55 -7.25 -47.0 L-7.2 -45.65 -6.75 -45.55 -7.1 -44.1 -6.5 -35.9 -6.4 -35.5 Q-6.5 -32.9 -8.0 -31.25 L-8.4 -41.8" fill="#d2ee93" fill-rule="evenodd" stroke="none"/>
      <path d="M-7.1 -44.1 L-8.0 -42.3 -8.4 -41.8 -8.95 -41.25 -8.9 -38.15 Q-8.85 -35.2 -9.55 -29.25 L-9.4 -29.0 -8.65 -29.9 Q-8.05 -30.8 -8.0 -31.25 -6.5 -32.9 -6.4 -35.5 L-6.5 -35.9 -7.1 -44.1 -6.75 -45.55 -7.2 -45.65 -7.25 -47.0 Q-7.7 -52.55 -8.45 -54.3 L-9.0 -55.25 Q-10.5 -58.35 -10.3 -56.05 -11.15 -56.7 -10.3 -53.05 -9.4 -49.5 -9.15 -45.35 L-9.0 -42.65 -9.3 -41.35 -8.95 -41.25 M-6.5 -35.9 L-5.85 -35.85 -5.85 -34.7 -6.8 -32.45 M-9.55 -29.25 L-10.0 -30.55 -9.55 -28.6 -9.55 -29.25 Z" ffdec:has-small-stroke="true" ffdec:original-stroke-width="0.125" fill="none" stroke="#204d1c" stroke-linecap="round" stroke-linejoin="round" stroke-opacity="0.3019608" stroke-width="0.4"/>
    </g>
    <g id="shape11">
      <path d="M-3.65 -8.95 L-3.85 -10.3 -3.8 -10.5 Q-3.7 -11.85 -2.55 -12.45 -0.6 -13.45 1.55 -12.95 3.9 -12.65 4.05 -10.5 L2.65 -8.95 2.65 -7.8 1.7 -8.2 -0.2 -8.0 -0.9 -6.8 -1.0 -8.05 -2.25 -7.95 -2.5 -8.0 -3.65 -8.95" fill="#a4c85a" fill-rule="evenodd" stroke="none"/>
      <path d="M2.65 -7.8 L2.65 -8.95 4.05 -10.5 Q2.6 -1.25 4.1 7.85 4.1 8.8 3.7 9.5 L2.75 10.15 Q0.95 1.05 2.65 -7.8" fill="url(#gradient9)" fill-rule="evenodd" stroke="none"/>
      <path d="M-3.65 -8.95 L-2.5 -8.0 -2.25 -7.95 -1.0 -8.05 -0.9 -6.8 Q-0.55 2.1 -1.25 10.7 L-4.15 9.1 Q-2.3 0.1 -3.65 -8.95 M-2.35 3.6 Q-1.85 -0.8 -2.65 -5.9 -1.85 -0.8 -2.35 3.6" fill="url(#gradient10)" fill-rule="evenodd" stroke="none"/>
      <path d="M-0.9 -6.8 L-0.2 -8.0 1.7 -8.2 2.65 -7.8 Q0.95 1.05 2.75 10.15 L1.8 10.5 0.7 10.75 -1.25 10.7 Q-0.55 2.1 -0.9 -6.8" fill="#c6e76f" fill-rule="evenodd" stroke="none"/>
      <path d="M4.05 -10.5 Q3.9 -12.65 1.55 -12.95 -0.6 -13.45 -2.55 -12.45 -3.7 -11.85 -3.8 -10.5 L-3.85 -10.3 -3.65 -8.95 Q-2.3 0.1 -4.15 9.1 M-2.5 -8.0 L-2.25 -7.95 M4.05 -10.5 Q2.6 -1.25 4.1 7.85" ffdec:has-small-stroke="true" ffdec:original-stroke-width="0.125" fill="none" stroke="#37682e" stroke-linecap="round" stroke-linejoin="round" stroke-opacity="0.3019608" stroke-width="0.26593518857731263"/>
      <path d="M-2.65 -5.9 Q-1.85 -0.8 -2.35 3.6" ffdec:has-small-stroke="true" ffdec:original-stroke-width="0.125" fill="none" stroke="#d1e86f" stroke-linecap="round" stroke-linejoin="round" stroke-width="0.26593518857731263"/>
    </g>
    <radialGradient cx="0" cy="0" gradientTransform="matrix(0.0055, 0.0, 0.0, 0.0167, 3.6, 3.45)" gradientUnits="userSpaceOnUse" id="gradient9" r="819.2" spreadMethod="pad">
      <stop offset="0.43529411764705883" stop-color="#adce60"/>
      <stop offset="0.9490196078431372" stop-color="#7ca34a"/>
    </radialGradient>
    <radialGradient cx="0" cy="0" gradientTransform="matrix(0.0032, 0.0, 0.0, 0.0084, -2.6, 0.0)" gradientUnits="userSpaceOnUse" id="gradient10" r="819.2" spreadMethod="pad">
      <stop offset="0.10588235294117647" stop-color="#d8fdaf"/>
      <stop offset="1.0" stop-color="#d5f995"/>
    </radialGradient>
    <g id="shape12">
      <path d="M-3.65 -8.95 L-3.85 -10.3 -3.8 -10.5 Q-3.7 -11.85 -2.55 -12.45 -0.6 -13.45 1.55 -12.95 3.9 -12.65 4.05 -10.5 L2.65 -8.95 2.65 -7.8 1.7 -8.2 -0.2 -8.0 -0.9 -6.8 -1.0 -8.05 -2.25 -7.95 -2.5 -8.0 -3.65 -8.95" fill="#96b54c" fill-rule="evenodd" stroke="none"/>
      <path d="M2.65 -7.8 L2.65 -8.95 4.05 -10.5 Q2.6 -1.25 4.1 7.85 4.1 8.8 3.7 9.5 L2.75 10.15 Q0.95 1.05 2.65 -7.8" fill="url(#gradient11)" fill-rule="evenodd" stroke="none"/>
      <path d="M-3.65 -8.95 L-2.5 -8.0 -2.25 -7.95 -1.0 -8.05 -0.9 -6.8 Q-0.55 2.1 -1.25 10.7 L-4.15 9.1 Q-2.3 0.1 -3.65 -8.95 M-2.35 3.6 Q-1.85 -0.8 -2.65 -5.9 -1.85 -0.8 -2.35 3.6" fill="url(#gradient12)" fill-rule="evenodd" stroke="none"/>
      <path d="M-0.9 -6.8 L-0.2 -8.0 1.7 -8.2 2.65 -7.8 Q0.95 1.05 2.75 10.15 L1.8 10.5 0.7 10.75 -1.25 10.7 Q-0.55 2.1 -0.9 -6.8" fill="#bbd662" fill-rule="evenodd" stroke="none"/>
      <path d="M4.05 -10.5 Q3.9 -12.65 1.55 -12.95 -0.6 -13.45 -2.55 -12.45 -3.7 -11.85 -3.8 -10.5 L-3.85 -10.3 -3.65 -8.95 Q-2.3 0.1 -4.15 9.1 M-2.5 -8.0 L-2.25 -7.95 M4.05 -10.5 Q2.6 -1.25 4.1 7.85" ffdec:has-small-stroke="true" ffdec:original-stroke-width="0.125" fill="none" stroke="#204d1c" stroke-linecap="round" stroke-linejoin="round" stroke-opacity="0.3019608" stroke-width="0.2758608647623539"/>
      <path d="M-2.65 -5.9 Q-1.85 -0.8 -2.35 3.6" ffdec:has-small-stroke="true" ffdec:original-stroke-width="0.125" fill="none" stroke="#c7d762" stroke-linecap="round" stroke-linejoin="round" stroke-width="0.2758608647623539"/>
    </g>
    <radialGradient cx="0" cy="0" gradientTransform="matrix(0.0055, 0.0, 0.0, 0.0167, 3.6, 3.45)" gradientUnits="userSpaceOnUse" id="gradient11" r="819.2" spreadMethod="pad">
      <stop offset="0.43529411764705883" stop-color="#9fbb52"/>
      <stop offset="0.9490196078431372" stop-color="#6a8d3a"/>
    </radialGradient>
    <radialGradient cx="0" cy="0" gradientTransform="matrix(0.0032, 0.0, 0.0, 0.0084, -2.6, 0.0)" gradientUnits="userSpaceOnUse" id="gradient12" r="819.2" spreadMethod="pad">
      <stop offset="0.10588235294117647" stop-color="#ceeda7"/>
      <stop offset="1.0" stop-color="#cbea8b"/>
    </radialGradient>
    <g id="shape13">
      <path d="M2.05 -6.05 Q10.05 -26.05 62.8 9.7 9.85 -8.45 2.05 -6.05" fill="url(#gradient13)" fill-rule="evenodd" stroke="none"/>
      <path d="M2.05 -6.05 Q1.5 -4.75 1.2 -3.15 L-1.3 -0.05 Q-1.0 -2.2 1.2 -3.15 -0.15 -5.4 2.05 -6.05" fill="none" stroke="#305e23" stroke-linecap="round" stroke-linejoin="round" stroke-opacity="0.33333334" stroke-width="1.0"/>
      <path d="M2.05 -6.05 Q10.05 -26.05 62.8 9.7 9.85 -8.45 2.05 -6.05 Z" ffdec:has-small-stroke="true" ffdec:original-stroke-width="0.125" fill="none" stroke="#305e23" stroke-linecap="round" stroke-linejoin="round" stroke-opacity="0.33333334" stroke-width="0.4624774277173341"/>
    </g>
    <linearGradient gradientTransform="matrix(0.0394, 0.0, 0.0, 0.0105, 31.0, 4.85)" gradientUnits="userSpaceOnUse" id="gradient13" spreadMethod="pad" x1="-819.2" x2="819.2">
      <stop offset="0.4549019607843137" stop-color="#7baf35"/>
      <stop offset="1.0" stop-color="#629730"/>
    </linearGradient>
    <g id="shape14">
      <path d="M-51.2 -3.25 L-51.15 -3.2 Q-33.9 -11.2 -27.45 -11.85 L-20.75 -12.1 -27.4 -10.15 -28.05 -9.95 Q-37.2 -6.6 -49.6 0.6 L-51.55 0.55 -51.65 -1.3 -51.2 -3.2 -51.2 -3.25 Q-50.45 -5.6 -48.75 -8.3 L-47.3 -10.75 Q-41.4 -14.3 -35.9 -16.4 -34.05 -14.3 -31.65 -13.1 -43.85 -8.05 -51.2 -3.25 M-73.9 10.2 L-70.35 12.2 Q-70.45 13.55 -72.4 14.8 -75.05 16.5 -83.9 20.3 -78.8 14.9 -73.9 10.2" fill="#8cc43c" fill-rule="evenodd" stroke="none"/>
      <path d="M-27.45 -11.85 Q-33.9 -11.2 -51.15 -3.2 L-51.2 -3.25 Q-43.85 -8.05 -31.65 -13.1 -29.75 -12.2 -27.45 -11.85" fill="#7baf37" fill-rule="evenodd" stroke="none"/>
      <path d="M-51.2 -3.25 L-51.2 -3.2 -51.65 -1.3 -51.55 0.55 -49.6 0.6 Q-59.85 6.5 -72.25 15.0 L-72.4 14.8 Q-70.45 13.55 -70.35 12.2 L-73.9 10.2 Q-59.75 -3.35 -47.3 -10.75 L-48.75 -8.3 Q-50.45 -5.6 -51.2 -3.25" fill="#90b050" fill-rule="evenodd" stroke="none"/>
      <path d="M-27.4 -10.15 L-20.75 -12.1 Q-13.5 -11.5 0.25 0.15 -21.9 -11.6 -27.4 -10.15" fill="#649734" fill-rule="evenodd" stroke="none"/>
      <path d="M-72.4 14.8 L-72.25 15.0 -91.75 28.9 -83.9 20.3 Q-75.05 16.5 -72.4 14.8" fill="#8ca74e" fill-rule="evenodd" stroke="none"/>
      <path d="M-49.6 0.6 Q-37.2 -6.6 -28.05 -9.95 L-27.4 -10.15 -20.75 -12.1 -27.45 -11.85 Q-29.75 -12.2 -31.65 -13.1 -34.05 -14.3 -35.9 -16.4 -41.4 -14.3 -47.3 -10.75 -59.75 -3.35 -73.9 10.2 -78.8 14.9 -83.9 20.3 L-91.75 28.9 -72.25 15.0 Q-59.85 6.5 -49.6 0.6 M-20.75 -12.1 Q-13.5 -11.5 0.25 0.15 -21.9 -11.6 -27.4 -10.15" ffdec:has-small-stroke="true" ffdec:original-stroke-width="0.125" fill="none" stroke="#356425" stroke-linecap="round" stroke-linejoin="round" stroke-opacity="0.33333334" stroke-width="0.8126163374408716"/>
    </g>
    <g id="shape15">
      <path d="M-13.2 39.3 Q-14.65 6.95 -9.6 5.35 -3.15 3.3 4.85 1.7 5.55 0.95 4.4 15.35 L3.55 20.95 -4.65 20.25 Q-4.9 20.25 -5.6 22.5 -6.4 25.1 -6.4 27.4 -6.4 28.3 -5.55 29.95 -4.7 31.65 -4.7 32.9 -4.7 33.95 -5.9 35.5 -7.15 37.2 -8.3 37.2 -9.8 37.2 -11.4 36.4 -12.25 36.4 -13.2 39.3" fill="url(#gradient14)" fill-rule="evenodd" stroke="none"/>
      <path d="M-13.2 39.3 Q-12.25 36.4 -11.4 36.4 -9.8 37.2 -8.3 37.2 -7.15 37.2 -5.9 35.5 -4.7 33.95 -4.7 32.9 -4.7 31.65 -5.55 29.95 -6.4 28.3 -6.4 27.4 -6.4 25.1 -5.6 22.5 -4.9 20.25 -4.65 20.25 L3.55 20.95 Q0.55 35.05 -11.95 59.8 -12.85 48.35 -13.2 39.3" fill="#9dc14b" fill-rule="evenodd" stroke="none"/>
      <path d="M3.55 20.95 L4.4 15.35 Q5.55 0.95 4.85 1.7 -3.15 3.3 -9.6 5.35 -14.65 6.95 -13.2 39.3 -12.85 48.35 -11.95 59.8 0.55 35.05 3.55 20.95 Z" ffdec:has-small-stroke="true" ffdec:original-stroke-width="0.125" fill="none" stroke="#376626" stroke-linecap="round" stroke-linejoin="round" stroke-opacity="0.33333334" stroke-width="0.6323080763049354"/>
    </g>
    <linearGradient gradientTransform="matrix(0.0043, -0.0116, 0.0336, 0.0126, -2.25, 18.0)" gradientUnits="userSpaceOnUse" id="gradient14" spreadMethod="pad" x1="-819.2" x2="819.2">
      <stop offset="0.4549019607843137" stop-color="#a2da41"/>
      <stop offset="1.0" stop-color="#7fb739"/>
    </linearGradient>
    <g id="shape16">
      <path d="M-3.65 -8.95 L-3.85 -10.3 -3.8 -10.5 Q-3.7 -11.85 -2.55 -12.45 -0.6 -13.45 1.55 -12.95 3.9 -12.65 4.05 -10.5 L2.65 -8.95 2.65 -7.8 1.7 -8.2 -0.2 -8.0 -0.9 -6.8 -1.0 -8.05 -2.25 -7.95 -2.5 -8.0 -3.65 -8.95" fill="#96b54c" fill-rule="evenodd" stroke="none"/>
      <path d="M2.65 -7.8 L2.65 -8.95 4.05 -10.5 Q2.6 -1.25 4.1 7.85 4.1 8.8 3.7 9.5 L2.75 10.15 Q0.95 1.05 2.65 -7.8" fill="url(#gradient15)" fill-rule="evenodd" stroke="none"/>
      <path d="M-3.65 -8.95 L-2.5 -8.0 -2.25 -7.95 -1.0 -8.05 -0.9 -6.8 Q-0.55 2.1 -1.25 10.7 L-4.15 9.1 Q-2.3 0.1 -3.65 -8.95 M-2.35 3.6 Q-1.85 -0.8 -2.65 -5.9 -1.85 -0.8 -2.35 3.6" fill="url(#gradient16)" fill-rule="evenodd" stroke="none"/>
      <path d="M-0.9 -6.8 L-0.2 -8.0 1.7 -8.2 2.65 -7.8 Q0.95 1.05 2.75 10.15 L1.8 10.5 0.7 10.75 -1.25 10.7 Q-0.55 2.1 -0.9 -6.8" fill="#bbd662" fill-rule="evenodd" stroke="none"/>
      <path d="M4.05 -10.5 Q3.9 -12.65 1.55 -12.95 -0.6 -13.45 -2.55 -12.45 -3.7 -11.85 -3.8 -10.5 L-3.85 -10.3 -3.65 -8.95 Q-2.3 0.1 -4.15 9.1 M-2.5 -8.0 L-2.25 -7.95 M4.05 -10.5 Q2.6 -1.25 4.1 7.85" ffdec:has-small-stroke="true" ffdec:original-stroke-width="0.125" fill="none" stroke="#204d1c" stroke-linecap="round" stroke-linejoin="round" stroke-opacity="0.3019608" stroke-width="0.3397814373525802"/>
      <path d="M-2.65 -5.9 Q-1.85 -0.8 -2.35 3.6" ffdec:has-small-stroke="true" ffdec:original-stroke-width="0.125" fill="none" stroke="#c7d762" stroke-linecap="round" stroke-linejoin="round" stroke-width="0.3397814373525802"/>
    </g>
    <radialGradient cx="0" cy="0" gradientTransform="matrix(0.0055, 0.0, 0.0, 0.0167, 3.6, 3.45)" gradientUnits="userSpaceOnUse" id="gradient15" r="819.2" spreadMethod="pad">
      <stop offset="0.43529411764705883" stop-color="#9fbb52"/>
      <stop offset="0.9490196078431372" stop-color="#6a8d3a"/>
    </radialGradient>
    <radialGradient cx="0" cy="0" gradientTransform="matrix(0.0032, 0.0, 0.0, 0.0084, -2.6, 0.0)" gradientUnits="userSpaceOnUse" id="gradient16" r="819.2" spreadMethod="pad">
      <stop offset="0.10588235294117647" stop-color="#ceeda7"/>
      <stop offset="1.0" stop-color="#cbea8b"/>
    </radialGradient>
    <g id="shape17">
      <path d="M-3.65 -8.95 L-3.85 -10.3 -3.8 -10.5 Q-3.7 -11.85 -2.55 -12.45 -0.6 -13.45 1.55 -12.95 3.9 -12.65 4.05 -10.5 L2.65 -8.95 2.65 -7.8 1.7 -8.2 -0.2 -8.0 -0.9 -6.8 -1.0 -8.05 -2.25 -7.95 -2.5 -8.0 -3.65 -8.95" fill="#a4c85a" fill-rule="evenodd" stroke="none"/>
      <path d="M2.65 -7.8 L2.65 -8.95 4.05 -10.5 Q2.6 -1.25 4.1 7.85 4.1 8.8 3.7 9.5 L2.75 10.15 Q0.95 1.05 2.65 -7.8" fill="url(#gradient17)" fill-rule="evenodd" stroke="none"/>
      <path d="M-3.65 -8.95 L-2.5 -8.0 -2.25 -7.95 -1.0 -8.05 -0.9 -6.8 Q-0.55 2.1 -1.25 10.7 L-4.15 9.1 Q-2.3 0.1 -3.65 -8.95 M-2.35 3.6 Q-1.85 -0.8 -2.65 -5.9 -1.85 -0.8 -2.35 3.6" fill="url(#gradient18)" fill-rule="evenodd" stroke="none"/>
      <path d="M-0.9 -6.8 L-0.2 -8.0 1.7 -8.2 2.65 -7.8 Q0.95 1.05 2.75 10.15 L1.8 10.5 0.7 10.75 -1.25 10.7 Q-0.55 2.1 -0.9 -6.8" fill="#c6e76f" fill-rule="evenodd" stroke="none"/>
      <path d="M4.05 -10.5 Q3.9 -12.65 1.55 -12.95 -0.6 -13.45 -2.55 -12.45 -3.7 -11.85 -3.8 -10.5 L-3.85 -10.3 -3.65 -8.95 Q-2.3 0.1 -4.15 9.1 M-2.5 -8.0 L-2.25 -7.95 M4.05 -10.5 Q2.6 -1.25 4.1 7.85" ffdec:has-small-stroke="true" ffdec:original-stroke-width="0.125" fill="none" stroke="#37682e" stroke-linecap="round" stroke-linejoin="round" stroke-opacity="0.3019608" stroke-width="0.4472065644799975"/>
      <path d="M-2.65 -5.9 Q-1.85 -0.8 -2.35 3.6" ffdec:has-small-stroke="true" ffdec:original-stroke-width="0.125" fill="none" stroke="#d1e86f" stroke-linecap="round" stroke-linejoin="round" stroke-width="0.4472065644799975"/>
    </g>
    <radialGradient cx="0" cy="0" gradientTransform="matrix(0.0055, 0.0, 0.0, 0.0167, 3.6, 3.45)" gradientUnits="userSpaceOnUse" id="gradient17" r="819.2" spreadMethod="pad">
      <stop offset="0.43529411764705883" stop-color="#adce60"/>
      <stop offset="0.9490196078431372" stop-color="#7ca34a"/>
    </radialGradient>
    <radialGradient cx="0" cy="0" gradientTransform="matrix(0.0032, 0.0, 0.0, 0.0084, -2.6, 0.0)" gradientUnits="userSpaceOnUse" id="gradient18" r="819.2" spreadMethod="pad">
      <stop offset="0.10588235294117647" stop-color="#d8fdaf"/>
      <stop offset="1.0" stop-color="#d5f995"/>
    </radialGradient>
    <g id="shape18">
      <path d="M-7.95 -56.25 L-7.7 -55.15 -8.3 -54.05 -8.5 -54.0 -9.5 -53.7 -9.85 -53.55 -9.55 -53.85 -9.05 -54.4 -7.95 -56.25" fill="#a3c25c" fill-rule="evenodd" stroke="none"/>
      <path d="M-14.15 -54.15 Q-14.7 -55.85 -12.95 -56.8 -11.45 -57.75 -9.6 -57.6 -8.5 -57.4 -8.05 -56.4 L-7.95 -56.25 -9.05 -54.4 -9.6 -54.0 -12.6 -53.35 -14.15 -54.15 M-9.3 -55.05 Q-8.85 -55.65 -9.05 -56.1 -9.2 -56.6 -9.95 -56.65 L-11.55 -56.45 -12.9 -55.55 Q-13.4 -55.05 -13.25 -54.55 -13.05 -54.1 -12.25 -53.95 L-10.7 -54.2 -9.3 -55.05" fill="#b9d46c" fill-rule="evenodd" stroke="none"/>
      <path d="M-12.6 -53.35 L-9.6 -54.0 -9.55 -53.85 -9.85 -53.55 -9.5 -53.7 -9.2 -52.7 -10.1 -53.4 -10.9 -53.2 -11.6 -53.05 -12.25 -52.45 -12.6 -53.35 M-9.3 -55.05 L-10.7 -54.2 -12.25 -53.95 Q-13.05 -54.1 -13.25 -54.55 -13.4 -55.05 -12.9 -55.55 L-11.55 -56.45 -9.95 -56.65 Q-9.2 -56.6 -9.05 -56.1 -8.85 -55.65 -9.3 -55.05" fill="#96b54c" fill-rule="evenodd" stroke="none"/>
      <path d="M-6.85 -51.85 L-5.7 -48.65 -7.0 -47.35 -7.7 -49.1 -7.35 -49.95 -6.85 -51.85 M-5.0 -47.0 L-3.1 -43.3 -3.95 -41.5 -4.0 -41.35 -4.4 -41.05 -5.85 -44.5 -5.0 -47.0 M-5.15 -38.6 L-6.1 -38.5 -6.3 -39.0 -7.15 -41.5 -7.5 -42.35 -8.65 -45.7 -8.5 -45.8 -7.1 -42.85 -7.15 -42.6 Q-7.55 -41.65 -5.75 -39.35 L-6.35 -40.85 -5.9 -40.2 -5.65 -39.6 -5.15 -38.6 M-9.0 -41.25 L-9.7 -43.8 Q-11.3 -49.2 -14.15 -54.15 L-12.6 -53.35 -12.25 -52.45 Q-10.6 -49.85 -9.5 -47.05 L-9.5 -48.05 -8.6 -46.15 -9.4 -45.5 -8.85 -45.6 -7.75 -42.1 -8.25 -41.55 -9.0 -41.25" fill="#91b04a" fill-rule="evenodd" stroke="none"/>
      <path d="M-3.65 -39.15 L-5.15 -38.6 -5.65 -39.6 -4.4 -41.0 -4.45 -41.05 -4.4 -41.05 -4.4 -41.0 -3.65 -39.15 M-6.1 -38.5 L-6.55 -38.45 -6.35 -38.55 -6.3 -38.6 -6.35 -38.65 -6.3 -39.0 -6.1 -38.5 M-12.25 -52.45 L-11.6 -53.05 -10.9 -53.2 -8.25 -48.1 -8.6 -46.15 -9.5 -48.05 -9.5 -47.05 Q-10.6 -49.85 -12.25 -52.45 M-10.1 -53.4 L-9.2 -52.7 -7.7 -49.1 -8.2 -48.1 -10.1 -53.4 M-8.65 -45.7 L-7.5 -42.35 -7.75 -42.0 -7.75 -42.1 -8.85 -45.6 -8.75 -45.6 -8.65 -45.7 M-5.85 -44.5 L-7.1 -42.85 -8.5 -45.8 -7.0 -47.35 -5.85 -44.5" fill="#bbd662" fill-rule="evenodd" stroke="none"/>
      <path d="M-7.7 -55.15 L-6.85 -51.85 -7.35 -49.95 -7.7 -49.1 -9.2 -52.7 -9.5 -53.7 -8.5 -54.0 -8.3 -54.05 -7.7 -55.15 M-5.7 -48.65 L-5.0 -47.0 -5.85 -44.5 -7.0 -47.35 -5.7 -48.65 M-3.1 -43.3 L-1.85 -41.25 -3.65 -39.15 -4.4 -41.0 -4.4 -41.05 -4.0 -41.35 -3.95 -41.5 -3.1 -43.3" fill="#d2ee93" fill-rule="evenodd" stroke="none"/>
      <path d="M-9.6 -54.0 L-9.05 -54.4 -9.55 -53.85 -9.6 -54.0 M-10.9 -53.2 L-10.1 -53.4 -8.2 -48.1 -8.1 -47.9 -8.25 -48.1 -10.9 -53.2" fill="#ceec90" fill-rule="evenodd" stroke="none"/>
      <path d="M-8.6 -46.15 L-8.25 -48.1 -8.1 -47.9 -8.2 -48.1 -7.7 -49.1 -7.0 -47.35 -8.5 -45.8 -8.65 -45.7 -8.75 -45.6 -8.85 -45.6 -9.4 -45.5 -8.6 -46.15 M-7.5 -42.35 L-7.15 -41.5 -6.35 -38.65 -7.75 -42.0 -7.5 -42.35 M-7.1 -42.85 L-5.85 -44.5 -4.4 -41.05 -4.45 -41.05 -5.8 -40.05 -5.9 -40.2 -6.35 -40.85 -5.75 -39.35 Q-7.55 -41.65 -7.15 -42.6 L-7.1 -42.85" fill="#77973f" fill-rule="evenodd" stroke="none"/>
      <path d="M-7.15 -41.5 L-6.3 -39.0 -6.35 -38.65 -7.15 -41.5 M-5.9 -40.2 L-5.8 -40.05 -4.45 -41.05 -4.4 -41.0 -5.65 -39.6 -5.9 -40.2" fill="#91b14f" fill-rule="evenodd" stroke="none"/>
      <path d="M-6.55 -38.45 L-6.95 -38.45 -7.9 -38.7 Q-8.4 -39.1 -8.7 -39.85 L-8.8 -40.5 -8.85 -40.55 -9.0 -41.25 -8.25 -41.55 -7.75 -42.1 -7.75 -42.0 -6.35 -38.65 -6.3 -38.6 -6.35 -38.55 -6.55 -38.45" fill="#86a545" fill-rule="evenodd" stroke="none"/>
      <path d="M-14.15 -54.15 Q-14.7 -55.85 -12.95 -56.8 -11.45 -57.75 -9.6 -57.6 -8.5 -57.4 -8.05 -56.4 L-7.95 -56.25 -7.7 -55.15 -6.85 -51.85 -5.7 -48.65 -5.0 -47.0 -3.1 -43.3 -1.85 -41.25 M-8.7 -39.85 L-8.8 -40.5 -8.85 -40.55 -9.0 -41.25 -9.7 -43.8 Q-11.3 -49.2 -14.15 -54.15 M-9.3 -55.05 L-10.7 -54.2 -12.25 -53.95 Q-13.05 -54.1 -13.25 -54.55 -13.4 -55.05 -12.9 -55.55 L-11.55 -56.45 -9.95 -56.65 Q-9.2 -56.6 -9.05 -56.1 -8.85 -55.65 -9.3 -55.05 M-8.5 -54.0 L-8.3 -54.05" ffdec:has-small-stroke="true" ffdec:original-stroke-width="0.125" fill="none" stroke="#204d1c" stroke-linecap="round" stroke-linejoin="round" stroke-opacity="0.3019608" stroke-width="0.4"/>
    </g>
    <g id="shape19">
      <path d="M7.85 -0.4 Q7.9 2.65 5.7 4.95 3.5 7.3 0.25 7.45 -3.0 7.65 -5.4 5.55 -7.75 3.45 -7.85 0.35 -7.9 -2.7 -5.7 -5.0 -3.45 -7.3 -0.2 -7.5 3.05 -7.65 5.4 -5.6 7.75 -3.5 7.85 -0.4" fill="url(#gradient19)" fill-rule="evenodd" stroke="none"/>
    </g>
    <radialGradient cx="0" cy="0" gradientTransform="matrix(0.0105, 0.0, 0.0, 0.0105, 0.0, -0.05)" gradientUnits="userSpaceOnUse" id="gradient19" r="819.2" spreadMethod="pad">
      <stop offset="0.0" stop-color="#d2f992" stop-opacity="0.20784314"/>
      <stop offset="0.7372549019607844" stop-color="#d2ffb6" stop-opacity="0.0"/>
    </radialGradient>
    <g id="shape20">
      <path d="M-17.45 -67.3 L-17.75 -68.15 -14.95 -68.85 -14.9 -68.7 -15.15 -68.4 -14.85 -68.55 -14.6 -67.55 -15.4 -68.25 -16.2 -68.05 -16.85 -67.9 -17.45 -67.3" fill="#96b54c" fill-rule="evenodd" stroke="none"/>
      <path d="M-16.2 -68.05 L-15.4 -68.25 -14.2 -64.55 -13.65 -62.9 -14.35 -64.3 -16.2 -68.05" fill="#809c43" fill-rule="evenodd" stroke="none"/>
      <path d="M-17.45 -68.75 L-15.9 -68.95 -14.6 -69.8 Q-14.15 -70.35 -14.3 -70.8 -14.45 -71.25 -15.15 -71.35 L-16.7 -71.15 -18.0 -70.3 Q-18.5 -69.8 -18.35 -69.35 -18.2 -68.9 -17.45 -68.75 M-17.45 -67.3 L-16.85 -67.9 -16.2 -68.05 -14.35 -64.3 -15.35 -63.1 -17.45 -67.3 M-15.4 -68.25 L-14.6 -67.55 -13.75 -65.2 -13.7 -65.15 -14.2 -64.55 -15.4 -68.25 M-14.95 -68.85 L-17.75 -68.15 -19.25 -68.95 Q-19.7 -70.65 -18.05 -71.45 -16.55 -72.45 -14.85 -72.25 -13.85 -72.1 -13.45 -71.1 L-13.35 -70.95 -14.4 -69.2 -14.95 -68.85 M-12.6 -62.3 L-12.0 -60.65 -13.55 -59.6 -13.7 -59.95 -12.6 -62.3" fill="#81a043" fill-rule="evenodd" stroke="none"/>
      <path d="M-17.75 -68.15 L-17.45 -67.3 -15.35 -63.1 -14.0 -59.35 -13.9 -59.0 Q-13.15 -56.5 -12.8 -53.85 L-13.7 -54.1 Q-14.15 -54.45 -14.4 -55.15 -15.75 -62.45 -19.25 -68.95 L-17.75 -68.15 M-14.6 -67.55 L-14.85 -68.55 -13.9 -68.75 -13.7 -68.9 -13.1 -69.9 -12.7 -67.85 -13.75 -65.2 -14.6 -67.55 M-11.85 -65.05 L-10.95 -62.4 -12.0 -60.65 -12.6 -62.3 -12.65 -62.3 -11.85 -65.05 M-11.1 -53.95 L-12.0 -53.85 -15.0 -63.05 -13.7 -59.95 -13.55 -59.6 -11.1 -53.95" fill="#91b04a" fill-rule="evenodd" stroke="none"/>
      <path d="M-17.45 -68.75 Q-18.2 -68.9 -18.35 -69.35 -18.5 -69.8 -18.0 -70.3 L-16.7 -71.15 -15.15 -71.35 Q-14.45 -71.25 -14.3 -70.8 -14.15 -70.35 -14.6 -69.8 L-15.9 -68.95 -17.45 -68.75" fill="#67873a" fill-rule="evenodd" stroke="none"/>
      <path d="M-14.85 -68.55 L-15.15 -68.4 -14.9 -68.7 -14.4 -69.2 -13.35 -70.95 -13.1 -69.9 -13.7 -68.9 -13.9 -68.75 -14.85 -68.55" fill="#a3c25c" fill-rule="evenodd" stroke="none"/>
      <path d="M-14.9 -68.7 L-14.95 -68.85 -14.4 -69.2 -14.9 -68.7" fill="#ceec90" fill-rule="evenodd" stroke="none"/>
      <path d="M-12.7 -67.85 L-11.85 -65.05 -12.65 -62.3 -13.7 -65.15 -13.75 -65.2 -12.7 -67.85 M-10.95 -62.4 Q-9.7 -59.4 -7.95 -56.55 L-9.65 -54.55 -12.0 -60.65 -10.95 -62.4" fill="#d2ee93" fill-rule="evenodd" stroke="none"/>
      <path d="M-12.8 -53.85 Q-13.15 -56.5 -13.9 -59.0 L-14.0 -59.35 -15.35 -63.1 -14.35 -64.3 -13.65 -62.9 -14.2 -64.55 -13.7 -65.15 -12.65 -62.3 -12.6 -62.3 -13.7 -59.95 -15.0 -63.05 -12.0 -53.85 -12.8 -53.85 M-9.65 -54.55 L-11.1 -53.95 -13.55 -59.6 -12.0 -60.65 -9.65 -54.55" fill="#bbd662" fill-rule="evenodd" stroke="none"/>
      <path d="M-17.45 -68.75 Q-18.2 -68.9 -18.35 -69.35 -18.5 -69.8 -18.0 -70.3 L-16.7 -71.15 -15.15 -71.35 Q-14.45 -71.25 -14.3 -70.8 -14.15 -70.35 -14.6 -69.8 L-15.9 -68.95 -17.45 -68.75 M-19.25 -68.95 Q-15.75 -62.45 -14.4 -55.15 M-19.25 -68.95 Q-19.7 -70.65 -18.05 -71.45 -16.55 -72.45 -14.85 -72.25 -13.85 -72.1 -13.45 -71.1 L-13.35 -70.95 -13.1 -69.9 -12.7 -67.85 -11.85 -65.05 -10.95 -62.4 Q-9.7 -59.4 -7.95 -56.55 M-13.9 -68.75 L-13.7 -68.9" ffdec:has-small-stroke="true" ffdec:original-stroke-width="0.125" fill="none" stroke="#204d1c" stroke-linecap="round" stroke-linejoin="round" stroke-opacity="0.3019608" stroke-width="0.4"/>
    </g>
    <g id="shape21">
      <path d="M7.85 -0.4 Q7.9 2.65 5.7 4.95 3.5 7.3 0.25 7.45 -3.0 7.65 -5.4 5.55 -7.75 3.45 -7.85 0.35 -7.9 -2.7 -5.7 -5.0 -3.45 -7.3 -0.2 -7.5 3.05 -7.65 5.4 -5.6 7.75 -3.5 7.85 -0.4" fill="url(#gradient20)" fill-rule="evenodd" stroke="none"/>
    </g>
    <radialGradient cx="0" cy="0" gradientTransform="matrix(0.0105, 0.0, 0.0, 0.0105, 0.0, -0.05)" gradientUnits="userSpaceOnUse" id="gradient20" r="819.2" spreadMethod="pad">
      <stop offset="0.0" stop-color="#bfe786" stop-opacity="0.20784314"/>
      <stop offset="0.7372549019607844" stop-color="#bfeca6" stop-opacity="0.0"/>
    </radialGradient>
    <g id="shape22">
      <path d="M-20.95 -85.6 L-22.35 -85.4 -23.6 -84.55 Q-24.05 -84.0 -23.85 -83.6 -23.7 -83.15 -23.0 -83.05 L-21.55 -83.25 -20.35 -84.1 Q-19.95 -84.65 -20.1 -85.1 L-20.95 -85.6 M-24.7 -83.25 Q-25.2 -84.8 -23.65 -85.7 -22.3 -86.65 -20.7 -86.5 -19.7 -86.4 -19.25 -85.4 L-19.2 -85.25 -20.15 -83.5 -20.6 -83.15 -23.3 -82.45 -24.7 -83.25" fill="#b9d46c" fill-rule="evenodd" stroke="none"/>
      <path d="M-20.95 -85.6 L-20.1 -85.1 Q-19.95 -84.65 -20.35 -84.1 L-21.55 -83.25 -23.0 -83.05 Q-23.7 -83.15 -23.85 -83.6 -24.05 -84.0 -23.6 -84.55 L-22.35 -85.4 -20.95 -85.6 M-23.3 -82.45 L-20.6 -83.15 -20.55 -83.0 -20.8 -82.7 -20.5 -82.85 -20.25 -81.9 -21.05 -82.55 -21.75 -82.4 -22.45 -82.2 -23.0 -81.6 -23.3 -82.45" fill="#96b54c" fill-rule="evenodd" stroke="none"/>
      <path d="M-18.95 -84.2 L-18.1 -81.05 -18.75 -78.25 -20.25 -81.9 -20.5 -82.85 -19.65 -83.1 -19.45 -83.2 -18.95 -84.2 M-16.35 -76.4 L-13.55 -71.15 -15.1 -69.15 -17.0 -73.75 -16.35 -76.4 M-18.0 -68.45 L-18.85 -68.65 -19.6 -69.75 Q-20.05 -72.0 -20.8 -74.25 L-20.9 -74.55 Q-22.35 -79.05 -24.7 -83.25 L-23.3 -82.45 -23.0 -81.6 Q-21.3 -78.85 -20.1 -75.85 L-20.0 -75.55 -18.65 -71.55 -18.0 -68.45 M-21.75 -82.4 L-21.05 -82.55 -19.2 -77.4 -21.75 -82.4 M-19.95 -76.1 L-20.4 -77.45 -19.9 -76.25 -18.1 -72.35 -18.5 -71.9 -19.95 -76.1" fill="#91b04a" fill-rule="evenodd" stroke="none"/>
      <path d="M-19.2 -85.25 L-18.95 -84.2 -19.45 -83.2 -19.65 -83.1 -20.5 -82.85 -20.8 -82.7 -20.55 -83.0 -20.15 -83.5 -19.2 -85.25" fill="#a3c25c" fill-rule="evenodd" stroke="none"/>
      <path d="M-20.6 -83.15 L-20.15 -83.5 -20.55 -83.0 -20.6 -83.15" fill="#ceec90" fill-rule="evenodd" stroke="none"/>
      <path d="M-15.1 -69.15 L-16.45 -68.55 -18.1 -72.35 -17.15 -73.75 -17.1 -74.05 -17.0 -73.75 -15.1 -69.15 M-17.25 -68.45 L-18.0 -68.45 -18.65 -71.55 -18.5 -71.9 -17.25 -68.45 M-21.05 -82.55 L-20.25 -81.9 -18.75 -78.25 -18.75 -78.2 -19.2 -77.4 -19.9 -76.25 -20.4 -77.45 -19.95 -76.1 -20.1 -75.85 Q-21.3 -78.85 -23.0 -81.6 L-22.45 -82.2 -21.75 -82.4 -19.2 -77.4 -21.05 -82.55" fill="#8daa48" fill-rule="evenodd" stroke="none"/>
      <path d="M-18.1 -81.05 L-16.45 -76.7 -16.35 -76.4 -17.0 -73.75 -17.1 -74.05 -18.75 -78.2 -18.75 -78.25 -18.1 -81.05" fill="#d2ee93" fill-rule="evenodd" stroke="none"/>
      <path d="M-20.1 -75.85 L-19.95 -76.1 -18.5 -71.9 -18.65 -71.55 -20.0 -75.55 -20.1 -75.85 M-19.9 -76.25 L-19.2 -77.4 -18.75 -78.2 -17.1 -74.05 -17.15 -73.75 -18.1 -72.35 -19.9 -76.25" fill="#bbd662" fill-rule="evenodd" stroke="none"/>
      <path d="M-16.45 -68.55 L-17.25 -68.45 -18.5 -71.9 -18.1 -72.35 -16.45 -68.55" fill="#809c43" fill-rule="evenodd" stroke="none"/>
      <path d="M-20.95 -85.6 L-20.1 -85.1 Q-19.95 -84.65 -20.35 -84.1 L-21.55 -83.25 -23.0 -83.05 Q-23.7 -83.15 -23.85 -83.6 -24.05 -84.0 -23.6 -84.55 L-22.35 -85.4 -20.95 -85.6 M-24.7 -83.25 Q-25.2 -84.8 -23.65 -85.7 -22.3 -86.65 -20.7 -86.5 -19.7 -86.4 -19.25 -85.4 L-19.2 -85.25 -18.95 -84.2 -18.1 -81.05 -16.45 -76.7 -16.35 -76.4 -13.55 -71.15 M-19.6 -69.75 Q-20.05 -72.0 -20.8 -74.25 L-20.9 -74.55 Q-22.35 -79.05 -24.7 -83.25 M-19.65 -83.1 L-19.45 -83.2" ffdec:has-small-stroke="true" ffdec:original-stroke-width="0.125" fill="none" stroke="#204d1c" stroke-linecap="round" stroke-linejoin="round" stroke-opacity="0.3019608" stroke-width="0.4"/>
    </g>
    <g id="shape23">
      <path d="M-1.3 -0.05 Q33.3 -13.65 59.45 3.2 17.6 -4.55 -1.3 -0.05" fill="#72a734" fill-rule="evenodd" stroke="none"/>
      <path d="M-1.3 -0.05 Q17.6 -4.55 59.45 3.2 33.3 -13.65 -1.3 -0.05 Z" ffdec:has-small-stroke="true" ffdec:original-stroke-width="0.125" fill="none" stroke="#305e23" stroke-linecap="round" stroke-linejoin="round" stroke-opacity="0.33333334" stroke-width="0.5377030835905638"/>
    </g>
    <g id="shape24">
      <path d="M2.05 -6.05 Q10.05 -26.05 62.8 9.7 9.85 -8.45 2.05 -6.05" fill="url(#gradient21)" fill-rule="evenodd" stroke="none"/>
      <path d="M2.05 -6.05 Q1.5 -4.75 1.2 -3.15 L-1.3 -0.05 Q-1.0 -2.2 1.2 -3.15 -0.15 -5.4 2.05 -6.05" fill="none" stroke="#2e5d22" stroke-linecap="round" stroke-linejoin="round" stroke-opacity="0.33333334" stroke-width="1.0"/>
      <path d="M2.05 -6.05 Q10.05 -26.05 62.8 9.7 9.85 -8.45 2.05 -6.05 Z" ffdec:has-small-stroke="true" ffdec:original-stroke-width="0.125" fill="none" stroke="#2e5d22" stroke-linecap="round" stroke-linejoin="round" stroke-opacity="0.33333334" stroke-width="0.5155101710794678"/>
    </g>
    <linearGradient gradientTransform="matrix(0.0394, 0.0, 0.0, 0.0105, 31.0, 4.85)" gradientUnits="userSpaceOnUse" id="gradient21" spreadMethod="pad" x1="-819.2" x2="819.2">
      <stop offset="0.4549019607843137" stop-color="#74a834"/>
      <stop offset="1.0" stop-color="#5e922f"/>
    </linearGradient>
    <g id="shape25">
      <path d="M-1.3 -0.05 Q33.3 -13.65 59.45 3.2 17.6 -4.55 -1.3 -0.05" fill="#96cf3e" fill-rule="evenodd" stroke="none"/>
      <path d="M-1.3 -0.05 Q17.6 -4.55 59.45 3.2 33.3 -13.65 -1.3 -0.05 Z" ffdec:has-small-stroke="true" ffdec:original-stroke-width="0.125" fill="none" stroke="#376626" stroke-linecap="round" stroke-linejoin="round" stroke-opacity="0.33333334" stroke-width="0.42766969051729514"/>
    </g>
    <g id="shape26">
      <path d="M9.5 -8.5 L8.9 -8.05 9.7 -4.95 10.2 -4.95 9.5 -4.3 9.45 -3.85 10.2 -3.75 9.2 -2.5 8.45 -2.3 9.2 -4.65 Q8.5 -6.55 8.35 -8.45 L8.75 -8.55 9.35 -8.8 9.5 -8.5 M13.85 -3.1 Q13.95 -5.75 15.2 -7.6 15.15 -8.6 14.25 -8.3 L12.75 -6.65 Q13.55 -7.85 14.5 -8.7 L15.5 -8.05 Q14.35 -5.9 14.2 -3.1 L13.85 -3.1 M18.8 -2.05 Q18.9 -1.8 18.45 -1.55 16.05 -1.7 14.6 -0.7 10.1 1.2 3.5 2.5 L6.65 0.35 12.6 -1.55 18.8 -2.05" fill="#8daa42" fill-rule="evenodd" stroke="none"/>
      <path d="M9.2 -2.5 L10.2 -3.75 9.45 -3.85 9.5 -4.3 10.2 -4.95 9.7 -4.95 8.9 -8.05 9.5 -8.5 10.8 -5.5 Q11.35 -4.95 12.3 -5.5 L12.75 -6.65 14.25 -8.3 Q15.15 -8.6 15.2 -7.6 13.95 -5.75 13.85 -3.1 L14.2 -3.1 14.2 -3.05 18.25 -2.8 Q18.8 -2.6 18.8 -2.05 L12.6 -1.55 6.65 0.35 3.5 2.5 -4.35 3.95 Q-9.1 1.05 -7.55 -3.6 3.55 -1.8 8.4 -2.2 L8.45 -2.3 9.2 -2.5 M10.35 -2.85 L13.85 -3.1 10.35 -2.85" fill="url(#gradient22)" fill-rule="evenodd" stroke="none"/>
      <path d="M9.5 -8.5 L9.35 -8.8 8.75 -8.55 M8.45 -2.3 L9.2 -2.5 M13.85 -3.1 L14.2 -3.1 M13.85 -3.1 L10.35 -2.85" ffdec:has-small-stroke="true" ffdec:original-stroke-width="0.125" fill="none" stroke="#abd8a7" stroke-linecap="round" stroke-linejoin="round" stroke-opacity="0.3019608" stroke-width="0.5486685477661132"/>
      <path d="M8.75 -8.55 L8.35 -8.45 Q8.5 -6.55 9.2 -4.65 L8.45 -2.3 8.4 -2.2 Q3.55 -1.8 -7.55 -3.6 -9.1 1.05 -4.35 3.95 L3.5 2.5 Q10.1 1.2 14.6 -0.7 16.05 -1.7 18.45 -1.55 18.9 -1.8 18.8 -2.05 18.8 -2.6 18.25 -2.8 L14.2 -3.05 14.2 -3.1 Q14.35 -5.9 15.5 -8.05 L14.5 -8.7 Q13.55 -7.85 12.75 -6.65 L12.3 -5.5 Q11.35 -4.95 10.8 -5.5 L9.5 -8.5" ffdec:has-small-stroke="true" ffdec:original-stroke-width="0.125" fill="none" stroke="#204d1c" stroke-linecap="round" stroke-linejoin="round" stroke-opacity="0.3019608" stroke-width="0.5486685477661132"/>
    </g>
    <linearGradient gradientTransform="matrix(0.0087, 0.0079, -0.0052, 0.0057, 5.4, -2.45)" gradientUnits="userSpaceOnUse" id="gradient22" spreadMethod="pad" x1="-819.2" x2="819.2">
      <stop offset="0.0" stop-color="#4d712c"/>
      <stop offset="1.0" stop-color="#77933b"/>
    </linearGradient>
    <g id="shape27">
      <path d="M-2.1 0.45 L-1.85 1.05 Q-3.1 0.4 -3.6 0.4 L-3.25 0.3 -2.1 0.45 M-2.05 2.85 L-2.55 2.7 -1.85 2.6 -2.05 2.85" fill="#426b27" fill-rule="evenodd" stroke="none"/>
      <path d="M-3.6 0.4 Q-3.1 0.4 -1.85 1.05 L-1.85 1.1 -1.5 1.45 -1.35 1.6 -0.65 2.45 -0.55 2.55 Q-0.45 2.85 -0.7 3.0 L-0.7 2.65 -1.8 2.6 -1.85 2.6 -2.55 2.7 -2.6 2.7 -2.9 2.6 -3.05 2.6 -3.1 2.55 -3.9 1.55 -3.9 1.5 -3.95 1.45 -4.05 1.0 -4.0 0.85 -3.85 0.5 -3.8 0.45 -3.6 0.4 M-3.9 1.45 L-4.0 1.1 -4.0 1.05 -4.0 0.85 -4.0 1.05 -4.0 1.1 -3.9 1.45 -3.9 1.5 -3.9 1.45 -3.95 1.3 -3.9 1.5 -3.95 1.3 -3.9 1.45 M-4.05 1.0 L-3.95 1.3 -4.05 1.0 M-3.55 1.65 Q-3.95 1.3 -3.75 0.9 -3.95 1.3 -3.55 1.65 M-3.1 2.55 L-2.9 2.6 -3.1 2.55 M-4.0 1.1 L-3.95 1.3 -4.0 1.1" fill="#678935" fill-rule="evenodd" stroke="none"/>
      <path d="M-2.1 0.45 L-3.25 0.3 -3.6 0.4 -3.8 0.45 -3.85 0.5 -4.0 0.85 -4.05 1.0 -3.95 1.3 -3.9 1.45 -3.9 1.5 -3.95 1.45 M-0.7 3.0 L-0.7 2.65 -1.8 2.6 -1.85 2.6 -2.55 2.7 -2.6 2.7 M-2.9 2.6 L-3.05 2.6 -3.1 2.55 -3.9 1.55" ffdec:has-small-stroke="true" ffdec:original-stroke-width="0.125" fill="none" stroke="#204d1c" stroke-linecap="round" stroke-linejoin="round" stroke-opacity="0.3019608" stroke-width="0.12771472816312066"/>
      <path d="M-1.8 2.6 L-1.9 2.9 -2.05 2.85 -2.55 2.7 M-2.6 2.7 L-2.9 2.6 -3.1 2.55 M-3.9 1.55 L-3.9 1.5 -3.95 1.3 -4.0 1.1 -3.9 1.45 M-1.85 2.6 L-2.05 2.85 M-4.0 0.85 L-4.0 1.05 -4.0 1.1 M-3.75 0.9 Q-3.95 1.3 -3.55 1.65" ffdec:has-small-stroke="true" ffdec:original-stroke-width="0.125" fill="none" stroke="#abd8a7" stroke-linecap="round" stroke-linejoin="round" stroke-opacity="0.3019608" stroke-width="0.12771472816312066"/>
      <path d="M-0.45 -1.7 L-2.4 -0.05 -0.45 -1.7 0.3 -0.95 0.9 0.1 1.0 1.35 1.05 2.5 Q1.2 2.95 0.85 3.25 L1.0 3.15 Q0.75 3.35 0.55 3.5 L0.15 3.45 -0.1 3.2 -0.15 3.1 -0.05 3.2 -0.15 3.1 Q-0.2 2.45 -0.4 2.05 -0.55 1.65 -0.85 1.5 L-1.7 1.3 -1.8 1.3 -1.95 1.05 -1.7 1.3 -1.95 1.05 Q-2.45 0.45 -2.4 -0.05 L-2.45 0.05 -2.45 -1.45 -2.3 -2.25 -2.25 -2.3 -1.3 -2.2 -0.45 -1.7 M0.3 -0.95 L-1.95 1.05 0.3 -0.95 M-0.05 3.2 L-0.1 3.2 -0.05 3.2 0.15 3.45 -0.05 3.2 1.05 2.5 -0.05 3.2 M1.0 1.35 L-0.4 2.05 1.0 1.35" fill="#426b27" fill-rule="evenodd" stroke="none"/>
      <path d="M-2.3 -2.25 L-2.45 -1.45 -2.45 0.05 -2.4 -0.05 Q-2.45 0.45 -1.95 1.05 L-1.8 1.3 -1.7 1.3 -0.85 1.5 Q-0.55 1.65 -0.4 2.05 -0.2 2.45 -0.15 3.1 L-0.1 3.2 0.15 3.45 0.55 3.5 0.55 3.55 0.5 3.55 0.2 3.5 -1.15 3.1 -1.25 3.05 Q-1.1 2.45 -1.85 2.2 L-2.25 1.95 -2.75 1.25 -2.75 1.2 -2.8 0.8 Q-2.95 0.15 -2.7 -1.0 L-2.3 -2.25 M0.2 3.5 L0.15 3.45 0.2 3.5" fill="#678935" fill-rule="evenodd" stroke="none"/>
      <path d="M-2.4 -0.05 L-0.45 -1.7 M-2.45 0.05 L-2.4 -0.05 M-1.95 1.05 L0.3 -0.95 M-0.4 2.05 L1.0 1.35 M-0.1 3.2 L-0.05 3.2 1.05 2.5" ffdec:has-small-stroke="true" ffdec:original-stroke-width="0.125" fill="none" stroke="#abd8a7" stroke-linecap="round" stroke-linejoin="round" stroke-opacity="0.3019608" stroke-width="0.12771472816312066"/>
      <path d="M-2.3 -2.25 L-2.45 -1.45 -2.45 0.05 M0.55 3.55 L0.5 3.55 0.2 3.5 -1.15 3.1 -1.25 3.05 Q-1.1 2.45 -1.85 2.2 L-2.25 1.95 -2.75 1.25 -2.75 1.2 -2.8 0.8 Q-2.95 0.15 -2.7 -1.0 L-2.3 -2.25 M1.05 2.5 Q1.2 2.95 0.85 3.25 L1.0 3.15 Q0.75 3.35 0.55 3.5 M0.15 3.45 L0.2 3.5 M-1.7 1.3 L-1.95 1.05 M-1.7 1.3 L-0.85 1.5 Q-0.55 1.65 -0.4 2.05 -0.2 2.45 -0.15 3.1 L-0.05 3.2 0.15 3.45" ffdec:has-small-stroke="true" ffdec:original-stroke-width="0.125" fill="none" stroke="#204d1c" stroke-linecap="round" stroke-linejoin="round" stroke-opacity="0.3019608" stroke-width="0.12771472816312066"/>
    </g>
    <g id="shape28">
      <path d="M2.9 -2.95 Q4.15 -1.7 4.15 0.0 4.15 1.7 2.9 2.9 1.7 4.15 0.0 4.15 -1.7 4.15 -2.95 2.9 -4.15 1.7 -4.15 0.0 -4.15 -1.7 -2.95 -2.95 -1.7 -4.15 0.0 -4.15 1.7 -4.15 2.9 -2.95" fill="url(#gradient23)" fill-rule="evenodd" stroke="none"/>
      <path d="M2.9 -2.95 Q4.15 -1.7 4.15 0.0 4.15 1.7 2.9 2.9 1.7 4.15 0.0 4.15 -1.7 4.15 -2.95 2.9 -4.15 1.7 -4.15 0.0 -4.15 -1.7 -2.95 -2.95 -1.7 -4.15 0.0 -4.15 1.7 -4.15 2.9 -2.95 Z" ffdec:has-small-stroke="true" ffdec:original-stroke-width="0.625" fill="none" stroke="#548548" stroke-linecap="round" stroke-linejoin="round" stroke-width="0.25368774801501454"/>
      <path d="M1.7 -1.95 Q2.3 -1.05 2.3 0.1 2.3 1.3 1.7 2.2 1.2 3.05 0.4 3.05 -0.35 3.05 -0.95 2.2 -1.45 1.3 -1.45 0.1 -1.45 -1.05 -0.95 -1.95 -0.35 -2.8 0.4 -2.8 1.2 -2.8 1.7 -1.95" fill="#204d1c" fill-rule="evenodd" stroke="none"/>
      <path d="M-1.7 -0.05 Q-2.3 -0.05 -2.75 -0.45 -3.05 -0.9 -3.0 -1.5 -2.95 -2.1 -2.55 -2.5 L-1.45 -2.85 Q-0.8 -2.8 -0.5 -2.35 -0.15 -1.85 -0.15 -1.25 -0.25 -0.65 -0.65 -0.3 -1.05 0.05 -1.7 -0.05" fill="#d2ffce" fill-rule="evenodd" stroke="none"/>
    </g>
    <radialGradient cx="0" cy="0" gradientTransform="matrix(0.0052, 0.0, 0.0, 0.0052, 0.7, -1.6)" gradientUnits="userSpaceOnUse" id="gradient23" r="819.2" spreadMethod="pad">
      <stop offset="0.24705882352941178" stop-color="#c2eebb"/>
      <stop offset="0.8352941176470589" stop-color="#abd89b"/>
      <stop offset="1.0" stop-color="#a5d194"/>
    </radialGradient>
  </defs>
</svg>
