<?xml version="1.0" encoding="UTF-8" standalone="no"?>
<svg xmlns:ffdec="https://www.free-decompiler.com/flash" xmlns:xlink="http://www.w3.org/1999/xlink" ffdec:objectType="frame" height="198.5px" width="125.625px" xmlns="http://www.w3.org/2000/svg">
  <g transform="matrix(2.5, 0.0, 0.0, 2.5, 64.0, 170.125)">
    <use ffdec:characterId="1" height="15.55" transform="matrix(1.0603, 0.0, 0.0, 1.0603, 0.8, 3.1)" width="44.55" xlink:href="#shape0"/>
    <clipPath id="clipPath0">
      <path d="M -1.12 -62.98 L -11.3 -40.56 L -13.42 -42.2 L -15.33 -42.36 L -15.86 -41.35 L -12.26 -38.49 L -13.95 -34.78 L -4.67 -27.41 L 0.26 -28.58 L 1.85 -26.14 L -5.68 -19.24 L -11.83 -8.43 L -7.54 3.5 L 3.54 6.52 L 15.95 0.85 L 14.99 -2.7 L 21.57 -13.52 L 16.8 -15.37 L 13.83 -6.89 L 13.78 -7.1 L 4.07 -12.19 L 2.22 -18.45 L 10.28 -24.44 L 9.8 -25.87 L 15.68 -27.73 L 15.95 -33.45 L 8.63 -29.27 L 5.29 -38.86 L -1.71 -34.94 L -7.11 -37.16 L -1.12 -62.98 Z"/>
    </clipPath>
    <g clip-path="url(#clipPath0)">
      <use ffdec:characterId="6" height="47.35" transform="matrix(1.0603, 0.0, 0.0, 1.0603, 1.4, -19.9)" width="31.3" xlink:href="#sprite0"/>
    </g>
    <use ffdec:characterId="11" height="10.95" transform="matrix(1.0603, 0.0, 0.0, 1.0603, 7.65, -0.2)" width="12.2" xlink:href="#sprite2"/>
    <use ffdec:characterId="16" height="16.35" transform="matrix(0.7574, 0.0, 0.0, 0.7574, 0.55, 1.65)" width="20.85" xlink:href="#sprite4"/>
    <clipPath id="clipPath1">
      <path d="M 10.98 -62.3 L 1.75 -54.03 L 8.7 -51.12 L 7.16 -48.84 L -6.68 -35.37 L -5.14 -34.47 L -0.9 -33.09 L 11.98 -41.57 L 11.4 -44.49 L 15.85 -50.75 L 10.98 -62.3 Z M -7.21 -30.86 L -12.99 -25.56 L 7.48 -6.37 L 14 -9.66 L 10.34 -19.36 L 1.11 -24.77 L 0.64 -30.44 L -7.21 -30.86 Z"/>
    </clipPath>
    <g clip-path="url(#clipPath1)">
      <use ffdec:characterId="18" height="51.0" transform="matrix(1.0603, 0.0, 0.0, 1.0603, 7.9, -10.4)" width="24.05" xlink:href="#shape9"/>
      <use ffdec:characterId="21" height="50.8" transform="matrix(1.0603, 0.0, 0.0, 1.0603, 2.1, -33.6)" width="23.85" xlink:href="#sprite6"/>
      <use ffdec:characterId="22" height="51.0" transform="matrix(1.0603, 0.0, 0.0, 1.0603, 7.9, -10.4)" width="24.05" xlink:href="#shape11"/>
    </g>
    <use ffdec:characterId="26" height="9.4" transform="matrix(1.0603, 0.0, 0.0, 1.0603, -18.4, 2.4)" width="1.8" xlink:href="#sprite8"/>
    <use ffdec:characterId="30" height="10.9" transform="matrix(0.2254, 0.7683, -0.7942, 0.218, 18.45, -53.55)" width="6.75" xlink:href="#sprite10"/>
    <use ffdec:characterId="30" height="10.9" transform="matrix(0.3861, -0.3757, 0.2777, 0.267, 2.0, -47.5)" width="6.75" xlink:href="#sprite12"/>
    <use ffdec:characterId="30" height="10.9" transform="matrix(0.3882, -0.3778, 0.4807, 0.4622, -23.0, -3.35)" width="6.75" xlink:href="#sprite14"/>
    <use ffdec:characterId="30" height="10.9" transform="matrix(0.2462, 0.4545, -0.5783, 0.293, -13.75, -4.7)" width="6.75" xlink:href="#sprite16"/>
    <use ffdec:characterId="30" height="10.9" transform="matrix(-0.1024, -0.4204, -0.5702, 0.1299, 21.55, -11.2)" width="6.75" xlink:href="#sprite18"/>
    <use ffdec:characterId="30" height="10.9" transform="matrix(-0.221, 0.4081, 0.5192, 0.2631, 13.8, -11.6)" width="6.75" xlink:href="#sprite20"/>
    <use ffdec:characterId="30" height="10.9" transform="matrix(-0.2443, -0.2377, -0.3025, 0.2909, -13.6, -9.85)" width="6.75" xlink:href="#sprite22"/>
    <use ffdec:characterId="30" height="10.9" transform="matrix(0.3115, -0.3031, 0.3857, 0.3708, 5.2, -64.0)" width="6.75" xlink:href="#sprite24"/>
    <use ffdec:characterId="30" height="10.9" transform="matrix(0.2428, 0.3568, -0.4539, 0.289, 13.05, -60.4)" width="6.75" xlink:href="#sprite26"/>
    <use ffdec:characterId="30" height="10.9" transform="matrix(0.5936, -0.1553, 0.1976, 0.7067, -17.05, -47.2)" width="6.75" xlink:href="#sprite28"/>
    <use ffdec:characterId="30" height="10.9" transform="matrix(-0.0677, -0.4212, 0.5359, -0.0806, -18.55, -39.4)" width="6.75" xlink:href="#sprite30"/>
    <use ffdec:characterId="30" height="10.9" transform="matrix(-0.2722, 0.3364, -0.428, -0.3241, 16.9, -48.05)" width="6.75" xlink:href="#sprite32"/>
    <use ffdec:characterId="30" height="10.9" transform="matrix(-0.2896, 0.1933, 0.246, 0.3448, 15.5, -19.2)" width="6.75" xlink:href="#sprite34"/>
    <use ffdec:characterId="30" height="10.9" transform="matrix(-0.2857, 0.1907, 0.2426, 0.3401, 12.55, -34.45)" width="6.75" xlink:href="#sprite36"/>
    <use ffdec:characterId="30" height="10.9" transform="matrix(-0.2664, -0.2148, -0.2734, 0.3171, 17.45, -36.25)" width="6.75" xlink:href="#sprite38"/>
  </g>
  <defs>
    <g id="shape0">
      <path d="M-13.7 -0.55 L-14.45 2.35 -6.9 4.6 -4.45 2.6 6.45 2.3 12.6 2.9 13.45 -0.9 19.2 -3.65 22.3 -0.95 15.55 -0.9 15.6 2.1 19.95 5.3 4.3 7.8 7.2 3.65 -0.5 3.65 -5.7 5.9 -22.25 4.2 -18.6 1.0 -13.7 -0.55" fill="#87b580" fill-rule="evenodd" stroke="none"/>
      <path d="M-13.7 -0.55 L8.6 -7.75 10.75 -6.95 9.45 -6.35 9.6 -4.3 16.8 -3.9 19.2 -3.65 13.45 -0.9 12.6 2.9 6.45 2.3 -4.45 2.6 -6.9 4.6 -14.45 2.35 -13.7 -0.55" fill="#6b7e53" fill-rule="evenodd" stroke="none"/>
    </g>
    <g id="sprite0">
      <use ffdec:characterId="4" height="47.35" id="arbre1" transform="matrix(1.0, 0.0, 0.0, 1.0, -0.15, 0.0)" width="31.3" xlink:href="#sprite1"/>
      <use ffdec:characterId="5" height="47.35" transform="matrix(1.0, 0.0, 0.0, 1.0, 0.0, 0.0)" width="31.3" xlink:href="#shape2"/>
    </g>
    <g id="sprite1">
      <use ffdec:characterId="3" height="47.35" transform="matrix(1.0, 0.0, 0.0, 1.0, 0.0, 0.0)" width="31.3" xlink:href="#shape1"/>
    </g>
    <g id="shape1">
      <path d="M-2.75 -12.9 L3.55 -17.0 4.85 -13.6 5.2 -11.55 6.5 -7.25 11.55 -8.2 12.15 -10.4 11.85 -12.1 12.55 -14.1 12.55 -8.0 6.8 -6.25 6.85 -6.0 7.1 -5.25 0.35 -0.5 -1.25 2.1 4.55 11.0 8.0 12.45 8.45 13.15 10.4 14.55 15.0 10.15 14.85 2.25 15.4 2.0 15.55 10.45 11.55 16.4 12.9 18.05 12.55 18.4 11.85 19.1 11.45 19.45 10.0 20.45 8.8 21.05 7.8 21.5 7.35 21.7 5.15 22.65 4.1 22.9 2.4 23.3 2.05 23.4 1.25 23.6 1.2 23.55 0.95 23.45 0.0 23.1 -0.9 22.25 -2.35 20.95 -0.25 12.25 -0.45 11.8 -5.85 1.2 1.55 -5.95 -0.4 -9.25 -0.85 -9.15 -1.4 -9.0 -4.95 -8.05 -13.05 -14.5 -11.7 -17.4 -15.55 -20.25 -14.55 -21.3 -11.15 -18.6 -8.85 -23.6 -6.4 -22.75 -9.05 -15.6 -2.75 -12.9" fill="#f4ffdb" fill-rule="evenodd" stroke="none"/>
      <path d="M6.5 -7.25 L5.2 -11.55 4.85 -13.6 3.55 -17.0 -2.75 -12.9 M-9.05 -15.6 L-6.4 -22.75 -8.85 -23.6 -11.15 -18.6 -14.55 -21.3 -15.55 -20.25 -11.7 -17.4 -13.05 -14.5 -4.95 -8.05 -1.4 -9.0 M-0.85 -9.15 L-0.4 -9.25 1.55 -5.95 -5.85 1.2 -0.45 11.8 M-0.25 12.25 L-2.35 20.95 M-0.9 22.25 L0.0 23.1 M0.95 23.45 L1.2 23.55 M2.05 23.4 L2.4 23.3 M4.1 22.9 L5.15 22.65 M7.35 21.7 L7.8 21.5 M8.8 21.05 L10.0 20.45 M11.45 19.45 L11.85 19.1 M12.55 18.4 L12.9 18.05 11.55 16.4 15.55 10.45 15.4 2.0 14.85 2.25 M10.4 14.55 L8.45 13.15 8.0 12.45 4.55 11.0 -1.25 2.1 0.35 -0.5 7.1 -5.25 6.85 -6.0 6.8 -6.25 12.55 -8.0 12.55 -14.1" ffdec:has-small-stroke="true" ffdec:original-stroke-width="0.625" fill="none" stroke="#f4ffdb" stroke-linecap="round" stroke-linejoin="round" stroke-width="0.37723446201666405"/>
    </g>
    <g id="shape2">
      <path d="M6.7 -6.0 L6.95 -5.25 0.2 -0.5 -1.4 2.1 4.4 11.0 7.85 12.45 8.1 12.8 7.85 12.45 8.1 12.8 4.0 12.65 -2.5 5.9 1.6 14.45 -0.1 19.65 6.85 18.15 8.3 13.15 10.25 14.55 14.85 10.15 14.7 2.25 15.25 2.0 15.4 10.45 11.4 16.4 12.75 18.05 12.4 18.4 11.7 19.1 11.3 19.45 9.85 20.45 8.65 21.0 7.65 21.45 7.15 21.65 5.0 22.65 3.95 22.9 2.25 23.3 1.9 23.4 1.1 23.6 1.05 23.55 0.8 23.45 -0.15 23.1 -0.6 22.7 -1.05 22.25 -2.5 20.95 -0.4 12.25 -0.6 11.8 -1.3 10.5 -6.0 1.2 1.4 -5.95 -0.55 -9.25 -1.0 -9.15 2.5 -11.3 3.05 -6.55 6.7 -6.0" fill="#2e1700" fill-opacity="0.4117647" fill-rule="evenodd" stroke="none"/>
      <path d="M6.35 -7.25 L5.05 -11.55 4.7 -13.6 3.4 -17.0 -2.9 -12.9 M6.7 -6.0 L6.65 -6.25 12.4 -8.0 12.4 -14.1 M6.7 -6.0 L6.95 -5.25 0.2 -0.5 -1.4 2.1 4.4 11.0 7.85 12.45 8.1 12.8 8.3 13.15 10.25 14.55 M14.7 2.25 L15.25 2.0 15.4 10.45 11.4 16.4 12.75 18.05 12.4 18.4 M11.7 19.1 L11.3 19.45 M9.85 20.45 L8.65 21.0 M7.65 21.45 L7.15 21.65 M5.0 22.65 L3.95 22.9 M2.25 23.3 L1.9 23.4 M1.05 23.55 L0.8 23.45 M-0.15 23.1 L-0.6 22.7 -1.05 22.25 M-2.5 20.95 L-0.4 12.25 M-0.6 11.8 L-1.3 10.5 -6.0 1.2 1.4 -5.95 -0.55 -9.25 -1.0 -9.15 M-9.2 -15.6 L-6.55 -22.75 -9.0 -23.6 -11.3 -18.6 -14.7 -21.3 -15.7 -20.25 -11.85 -17.4 -13.2 -14.5 -5.1 -8.05 -1.55 -9.0" ffdec:has-small-stroke="true" ffdec:original-stroke-width="0.625" fill="none" stroke="#2e1700" stroke-linecap="round" stroke-linejoin="round" stroke-opacity="0.5294118" stroke-width="0.37723446201666405"/>
    </g>
    <g id="sprite2">
      <use ffdec:characterId="7" height="7.3" transform="matrix(1.0, 0.0, 0.0, 1.0, 0.0, 0.0)" width="9.6" xlink:href="#shape3"/>
      <use ffdec:characterId="9" height="10.85" id="arbre1_2" transform="matrix(1.0, 0.0, 0.0, 1.0, 3.65, 3.25)" width="12.1" xlink:href="#sprite3"/>
      <use ffdec:characterId="10" height="10.75" transform="matrix(1.0, 0.0, 0.0, 1.0, 0.0, 0.0)" width="12.2" xlink:href="#shape5"/>
    </g>
    <g id="shape3">
      <path d="M4.35 1.6 L4.1 1.8 4.35 3.4 M1.85 4.95 L1.55 5.0 M0.6 5.15 L0.3 5.2 M3.45 7.95 L2.5 8.7 3.6 6.0 3.6 5.05 3.55 4.7 3.0 4.8 M5.55 6.7 L4.95 6.65 4.65 6.95 M9.7 6.45 L9.25 6.9 8.7 6.85" ffdec:has-small-stroke="true" ffdec:original-stroke-width="0.625" fill="none" stroke="#f4ffdb" stroke-linecap="round" stroke-linejoin="round" stroke-width="0.37723446201666405"/>
    </g>
    <g id="sprite3">
      <use ffdec:characterId="8" height="10.85" transform="matrix(1.0, 0.0, 0.0, 1.0, 0.0, 0.0)" width="12.1" xlink:href="#shape4"/>
    </g>
    <g id="shape4">
      <path d="M0.45 -1.45 L0.7 0.15 2.1 -0.2 2.9 1.75 6.05 3.2 5.6 3.65 1.3 3.4 -1.15 5.45 -0.05 2.75 -0.05 1.8 -0.1 1.45 -3.35 1.95 -4.55 0.95 -6.05 -1.0 -5.2 -4.8 -2.35 -5.4 0.7 -1.65 0.45 -1.45" fill="#f4ffdb" fill-rule="evenodd" stroke="none"/>
    </g>
    <g id="shape5">
      <path d="M0.3 5.2 L-0.9 4.2 -2.4 2.25 -1.95 0.2 0.6 -0.35 1.5 -1.95 4.2 1.4 2.05 0.9 0.35 2.9 3.45 4.55 4.45 4.05 3.6 5.05 3.55 4.7 3.0 4.8 1.85 4.95 1.55 5.0 0.6 5.15 0.3 5.2" fill="#2e1700" fill-opacity="0.4117647" fill-rule="evenodd" stroke="none"/>
      <path d="M4.2 1.4 L4.35 1.6 4.1 1.8 4.35 3.4 5.75 3.05 6.55 5.0 9.7 6.45 9.25 6.9 8.7 6.85 5.55 6.7 4.95 6.65 4.65 6.95 3.45 7.95 2.5 8.7 3.6 6.0 3.6 5.05 4.45 4.05 3.45 4.55 0.35 2.9 2.05 0.9 4.2 1.4" fill="#2e1700" fill-opacity="0.2" fill-rule="evenodd" stroke="none"/>
      <path d="M4.35 1.6 L4.1 1.8 4.35 3.4 M9.7 6.45 L9.25 6.9 8.7 6.85 M5.55 6.7 L4.95 6.65 4.65 6.95 M3.45 7.95 L2.5 8.7 3.6 6.0 3.6 5.05 3.55 4.7 3.0 4.8 M1.85 4.95 L1.55 5.0 M0.6 5.15 L0.3 5.2" ffdec:has-small-stroke="true" ffdec:original-stroke-width="0.625" fill="none" stroke="#2e1700" stroke-linecap="round" stroke-linejoin="round" stroke-opacity="0.5294118" stroke-width="0.37723446201666405"/>
    </g>
    <g id="sprite4">
      <use ffdec:characterId="12" height="14.65" transform="matrix(1.0, 0.0, 0.0, 1.0, 0.0, 0.0)" width="19.3" xlink:href="#shape6"/>
      <use ffdec:characterId="14" height="16.25" id="arbre1_3" transform="matrix(1.0, 0.0, 0.0, 1.0, -6.55, 3.6)" width="20.75" xlink:href="#sprite5"/>
      <use ffdec:characterId="15" height="15.1" transform="matrix(1.0, 0.0, 0.0, 1.0, 0.0, 0.0)" width="20.75" xlink:href="#shape8"/>
    </g>
    <g id="shape6">
      <path d="M-2.25 -2.7 L-5.35 -1.05 -5.4 -1.0 -8.5 4.25 -8.35 4.45 -12.0 6.15 -16.55 6.7 -16.95 7.95 -16.4 7.9 M-0.15 9.4 L0.25 9.25 -1.2 6.4 -1.2 5.15 -0.1 5.0 M-7.4 7.55 L-8.1 7.25 -9.3 7.35 M-3.3 11.25 L-4.15 11.75 -2.9 9.35 -4.65 8.65 M-1.65 10.25 L-2.7 10.9 M-10.35 7.45 L-10.8 7.45 M1.9 4.75 L2.15 4.7" ffdec:has-small-stroke="true" ffdec:original-stroke-width="0.625" fill="none" stroke="#f4ffdb" stroke-linecap="round" stroke-linejoin="round" stroke-width="0.5281328068337497"/>
    </g>
    <g id="sprite5">
      <use ffdec:characterId="13" height="16.25" transform="matrix(1.0, 0.0, 0.0, 1.0, 0.0, 0.0)" width="20.75" xlink:href="#shape7"/>
    </g>
    <g id="shape7">
      <path d="M8.4 -8.1 L10.35 -2.6 9.6 1.0 5.35 1.55 5.35 2.8 6.8 5.65 5.9 6.05 2.4 8.15 3.65 5.75 -1.55 3.65 -10.4 4.35 -10.0 3.1 -5.45 2.55 -1.8 0.85 -1.95 0.65 1.15 -4.6 1.2 -4.65 4.3 -6.3 4.25 -6.45 8.4 -8.1" fill="#f4ffdb" fill-rule="evenodd" stroke="none"/>
    </g>
    <g id="shape8">
      <path d="M-5.4 -1.0 L-5.35 -1.05 -2.25 -2.7 -2.3 -2.85 -1.3 -3.25 -0.95 -2.4 -5.4 -1.0 M-0.1 5.0 L-1.2 5.15 -1.2 6.4 -1.0 6.85 Q-1.95 6.2 -2.85 5.6 L-1.1 0.15 3.7 1.35 3.05 4.6 2.15 4.7 1.9 4.75 -0.1 5.0 M-7.4 7.55 L-8.1 7.25 -9.3 7.35 -10.35 7.45 -10.8 7.45 -12.05 7.55 -6.15 6.45 -0.65 9.65 -1.65 10.25 -2.7 10.9 -3.3 11.25 -4.15 11.75 -2.9 9.35 -4.65 8.65 -7.4 7.55" fill="#2e1700" fill-opacity="0.4117647" fill-rule="evenodd" stroke="none"/>
      <path d="M-2.3 -2.85 L-2.25 -2.7 -5.35 -1.05 -5.4 -1.0 -8.5 4.25 -8.35 4.45 -12.0 6.15 -16.55 6.7 -16.95 7.95 -16.4 7.9 M-1.0 6.85 L-1.2 6.4 -1.2 5.15 -0.1 5.0 M1.9 4.75 L2.15 4.7 M-1.0 6.85 L0.25 9.25 -0.15 9.4 M-7.4 7.55 L-8.1 7.25 -9.3 7.35 M-10.35 7.45 L-10.8 7.45 M-1.65 10.25 L-2.7 10.9 M-3.3 11.25 L-4.15 11.75 -2.9 9.35 -4.65 8.65" ffdec:has-small-stroke="true" ffdec:original-stroke-width="0.625" fill="none" stroke="#2e1700" stroke-linecap="round" stroke-linejoin="round" stroke-opacity="0.5294118" stroke-width="0.5281328068337497"/>
    </g>
    <g id="shape9">
      <path d="M-0.45 -34.9 L1.5 -34.45 1.4 -34.6 3.55 -38.25 1.15 -40.1 -3.75 -40.7 -3.35 -42.55 0.8 -42.35 2.15 -47.3 3.3 -47.1 1.85 -42.3 3.75 -42.2 6.45 -37.85 2.75 -32.3 2.75 -32.15 3.35 -30.3 -6.0 -24.75 -8.3 -21.75 -12.75 -23.3 -3.55 -30.1 -1.8 -30.45 -3.65 -32.05 M-3.3 -7.1 L-1.65 -8.4 -7.65 -13.1 -7.7 -18.2 -9.8 -17.55 -13.05 -18.85 -12.75 -13.35 -12.35 -13.2 M-17.4 -15.25 L-17.4 -14.2 -12.7 -11.85 -12.6 -10.0 -4.1 -2.0 -5.05 -2.3 -1.8 2.05 3.4 3.5 4.55 0.05 -0.45 -7.4 -0.5 -7.5 -2.35 -5.2 -3.35 -5.55 M-1.65 -8.4 L-0.15 -9.7 0.4 -8.65 -0.5 -7.5" ffdec:has-small-stroke="true" ffdec:original-stroke-width="0.625" fill="none" stroke="#9eb690" stroke-linecap="round" stroke-linejoin="round" stroke-width="0.37723446201666405"/>
    </g>
    <g id="sprite6">
      <use ffdec:characterId="20" height="50.8" id="arbre2" transform="matrix(1.0, 0.0, 0.0, 1.0, 0.0, 0.0)" width="23.85" xlink:href="#sprite7"/>
    </g>
    <g id="sprite7">
      <use ffdec:characterId="19" height="50.8" transform="matrix(1.0, 0.0, 0.0, 1.0, 0.0, 0.0)" width="23.85" xlink:href="#shape10"/>
    </g>
    <g id="shape10">
      <path d="M8.75 -25.2 L7.3 -20.4 9.2 -20.3 11.9 -15.95 8.2 -10.4 8.2 -10.25 8.8 -8.4 -0.55 -2.85 -2.85 0.15 -7.3 -1.4 1.9 -8.2 3.65 -8.55 1.8 -10.15 1.75 -10.15 5.0 -13.0 6.95 -12.55 6.85 -12.7 9.0 -16.35 6.6 -18.2 1.7 -18.8 2.1 -20.65 6.25 -20.45 7.6 -25.4 8.75 -25.2 M4.95 14.4 L5.0 14.5 10.0 21.95 8.85 25.4 3.65 23.95 0.4 19.6 1.35 19.9 -7.15 11.9 -7.25 10.05 -11.95 7.7 -11.95 6.65 -7.3 8.55 -7.6 3.05 -4.35 4.35 -2.25 3.7 -2.2 8.8 3.8 13.5 5.3 12.2 5.85 13.25 4.95 14.4" fill="#9eb690" fill-rule="evenodd" stroke="none"/>
    </g>
    <g id="shape11">
      <path d="M6.2 -37.45 L2.9 -32.5 1.3 -34.5 1.5 -34.45 1.4 -34.6 1.8 -35.25 6.2 -37.45 M2.0 -29.5 L-6.0 -24.75 -8.3 -21.75 -10.55 -22.55 -10.15 -24.0 -0.35 -29.25 -2.15 -30.4 -1.8 -30.45 -3.65 -32.05 0.1 -32.05 1.5 -30.25 1.3 -30.15 2.0 -29.5 M2.15 -3.55 L4.55 0.05 3.4 3.5 -1.8 2.05 -5.05 -2.3 -4.1 -2.0 -12.6 -10.0 -12.7 -11.85 -17.4 -14.2 -17.4 -15.25 -12.75 -13.35 -13.05 -18.85 -9.8 -17.55 -7.7 -18.2 -7.65 -13.65 -8.9 -14.2 -10.85 -14.3 -12.15 -12.45 -7.25 -7.4 -6.8 -6.2 -0.45 -1.55 2.15 -3.55 M-12.35 -13.2 L-12.75 -13.35 -12.35 -13.2" fill="#2e1700" fill-opacity="0.4117647" fill-rule="evenodd" stroke="none"/>
      <path d="M1.8 -35.25 L3.55 -38.25 1.15 -40.1 -3.75 -40.7 -3.35 -42.55 0.8 -42.35 2.15 -47.3 3.3 -47.1 1.85 -42.3 3.75 -42.2 6.45 -37.85 6.2 -37.45 2.9 -32.5 2.75 -32.3 2.75 -32.15 3.35 -30.3 2.0 -29.5 -6.0 -24.75 -8.3 -21.75 -10.55 -22.55 -12.75 -23.3 -3.55 -30.1 -2.15 -30.4 -1.8 -30.45 -3.65 -32.05 M1.3 -34.5 L1.5 -34.45 1.4 -34.6 1.8 -35.25 M-17.4 -15.25 L-17.4 -14.2 -12.7 -11.85 -12.6 -10.0 -4.1 -2.0 -5.05 -2.3 -1.8 2.05 3.4 3.5 4.55 0.05 2.15 -3.55 -0.45 -7.4 -0.5 -7.5 0.4 -8.65 -0.15 -9.7 -1.65 -8.4 -7.65 -13.1 -7.65 -13.65 -7.7 -18.2 -9.8 -17.55 -13.05 -18.85 -12.75 -13.35 -12.35 -13.2 M-3.35 -5.55 L-2.35 -5.2 -0.5 -7.5 M-3.3 -7.1 L-1.65 -8.4 M-0.45 -34.9 L1.3 -34.5" ffdec:has-small-stroke="true" ffdec:original-stroke-width="0.625" fill="none" stroke="#2e1700" stroke-linecap="round" stroke-linejoin="round" stroke-opacity="0.6" stroke-width="0.37723446201666405"/>
    </g>
    <g id="sprite8">
      <use ffdec:characterId="24" height="9.4" id="arbre2_2" transform="matrix(1.0, 0.0, 0.0, 1.0, 0.0, -4.7)" width="1.8" xlink:href="#sprite9"/>
      <use ffdec:characterId="25" height="9.4" transform="matrix(1.0, 0.0, 0.0, 1.0, 0.0, 0.0)" width="1.8" xlink:href="#shape13"/>
    </g>
    <g id="sprite9">
      <use ffdec:characterId="23" height="9.4" transform="matrix(1.0, 0.0, 0.0, 1.0, 0.0, 0.0)" width="1.8" xlink:href="#shape12"/>
    </g>
    <g id="shape12">
      <path d="M-0.15 -4.5 L0.9 4.7 -0.65 4.7 -0.9 -4.7 -0.15 -4.5" fill="#9eb690" fill-rule="evenodd" stroke="none"/>
    </g>
    <g id="shape13">
      <path d="M-0.15 -9.2 L0.9 0.0 -0.65 0.0 -0.9 -9.4 -0.15 -9.2" fill="#2e1700" fill-opacity="0.23137255" fill-rule="evenodd" stroke="none"/>
    </g>
    <g id="sprite10">
      <use ffdec:characterId="28" height="10.9" id="arbre3" transform="matrix(1.0, 0.0, 0.0, 1.0, 3.3, 0.0)" width="6.75" xlink:href="#sprite11"/>
      <use ffdec:characterId="29" height="10.9" transform="matrix(1.0, 0.0, 0.0, 1.0, 0.0, 0.0)" width="3.95" xlink:href="#shape15"/>
    </g>
    <g id="sprite11">
      <use ffdec:characterId="27" height="10.9" transform="matrix(1.0, 0.0, 0.0, 1.0, 0.0, 0.0)" width="6.75" xlink:href="#shape14"/>
    </g>
    <g id="shape14">
      <path d="M0.05 5.35 L-1.7 5.3 -3.3 0.1 -0.4 -5.35 3.35 -0.7 0.05 5.35" fill="#fffff1" fill-rule="evenodd" stroke="none"/>
      <path d="M-0.4 -5.35 L3.35 -0.7 0.05 5.35" ffdec:has-small-stroke="true" ffdec:original-stroke-width="0.625" fill="none" stroke="#fffff1" stroke-linecap="round" stroke-linejoin="round" stroke-width="0.4926255117132923"/>
    </g>
    <g id="shape15">
      <path d="M2.9 -5.35 L6.65 -0.7 3.35 5.35" ffdec:has-small-stroke="true" ffdec:original-stroke-width="0.625" fill="none" stroke="#2e1700" stroke-linecap="round" stroke-linejoin="round" stroke-opacity="0.34117648" stroke-width="0.4926255117132923"/>
    </g>
    <g id="sprite12">
      <use ffdec:characterId="28" height="10.9" id="arbre3" transform="matrix(1.0, 0.0, 0.0, 1.0, 3.3, 0.0)" width="6.75" xlink:href="#sprite13"/>
      <use ffdec:characterId="29" height="10.9" transform="matrix(1.0, 0.0, 0.0, 1.0, 0.0, 0.0)" width="3.95" xlink:href="#shape17"/>
    </g>
    <g id="sprite13">
      <use ffdec:characterId="27" height="10.9" transform="matrix(1.0, 0.0, 0.0, 1.0, 0.0, 0.0)" width="6.75" xlink:href="#shape16"/>
    </g>
    <g id="shape16">
      <path d="M0.05 5.35 L-1.7 5.3 -3.3 0.1 -0.4 -5.35 3.35 -0.7 0.05 5.35" fill="#ffffc2" fill-rule="evenodd" stroke="none"/>
      <path d="M-0.4 -5.35 L3.35 -0.7 0.05 5.35" ffdec:has-small-stroke="true" ffdec:original-stroke-width="0.625" fill="none" stroke="#ffffc2" stroke-linecap="round" stroke-linejoin="round" stroke-width="0.8782268772578293"/>
    </g>
    <g id="shape17">
      <path d="M2.9 -5.35 L6.65 -0.7 3.35 5.35" ffdec:has-small-stroke="true" ffdec:original-stroke-width="0.625" fill="none" stroke="#553400" stroke-linecap="round" stroke-linejoin="round" stroke-opacity="0.34117648" stroke-width="0.8782268772578293"/>
    </g>
    <g id="sprite14">
      <use ffdec:characterId="28" height="10.9" id="arbre3" transform="matrix(1.0, 0.0, 0.0, 1.0, 3.3, 0.0)" width="6.75" xlink:href="#sprite15"/>
      <use ffdec:characterId="29" height="10.9" transform="matrix(1.0, 0.0, 0.0, 1.0, 0.0, 0.0)" width="3.95" xlink:href="#shape19"/>
    </g>
    <g id="sprite15">
      <use ffdec:characterId="27" height="10.9" transform="matrix(1.0, 0.0, 0.0, 1.0, 0.0, 0.0)" width="6.75" xlink:href="#shape18"/>
    </g>
    <g id="shape18">
      <path d="M0.05 5.35 L-1.7 5.3 -3.3 0.1 -0.4 -5.35 3.35 -0.7 0.05 5.35" fill="#ffffc2" fill-rule="evenodd" stroke="none"/>
      <path d="M-0.4 -5.35 L3.35 -0.7 0.05 5.35" ffdec:has-small-stroke="true" ffdec:original-stroke-width="0.625" fill="none" stroke="#ffffc2" stroke-linecap="round" stroke-linejoin="round" stroke-width="0.6657599883220455"/>
    </g>
    <g id="shape19">
      <path d="M2.9 -5.35 L6.65 -0.7 3.35 5.35" ffdec:has-small-stroke="true" ffdec:original-stroke-width="0.625" fill="none" stroke="#553400" stroke-linecap="round" stroke-linejoin="round" stroke-opacity="0.34117648" stroke-width="0.6657599883220455"/>
    </g>
    <g id="sprite16">
      <use ffdec:characterId="28" height="10.9" id="arbre3" transform="matrix(1.0, 0.0, 0.0, 1.0, 3.3, 0.0)" width="6.75" xlink:href="#sprite17"/>
      <use ffdec:characterId="29" height="10.9" transform="matrix(1.0, 0.0, 0.0, 1.0, 0.0, 0.0)" width="3.95" xlink:href="#shape21"/>
    </g>
    <g id="sprite17">
      <use ffdec:characterId="27" height="10.9" transform="matrix(1.0, 0.0, 0.0, 1.0, 0.0, 0.0)" width="6.75" xlink:href="#shape20"/>
    </g>
    <g id="shape20">
      <path d="M0.05 5.35 L-1.7 5.3 -3.3 0.1 -0.4 -5.35 3.35 -0.7 0.05 5.35" fill="#ffffc2" fill-rule="evenodd" stroke="none"/>
      <path d="M-0.4 -5.35 L3.35 -0.7 0.05 5.35" ffdec:has-small-stroke="true" ffdec:original-stroke-width="0.625" fill="none" stroke="#ffffc2" stroke-linecap="round" stroke-linejoin="round" stroke-width="0.6911313514310563"/>
    </g>
    <g id="shape21">
      <path d="M2.9 -5.35 L6.65 -0.7 3.35 5.35" ffdec:has-small-stroke="true" ffdec:original-stroke-width="0.625" fill="none" stroke="#553400" stroke-linecap="round" stroke-linejoin="round" stroke-opacity="0.34117648" stroke-width="0.6911313514310563"/>
    </g>
    <g id="sprite18">
      <use ffdec:characterId="28" height="10.9" id="arbre3" transform="matrix(1.0, 0.0, 0.0, 1.0, 3.3, 0.0)" width="6.75" xlink:href="#sprite19"/>
      <use ffdec:characterId="29" height="10.9" transform="matrix(1.0, 0.0, 0.0, 1.0, 0.0, 0.0)" width="3.95" xlink:href="#shape23"/>
    </g>
    <g id="sprite19">
      <use ffdec:characterId="27" height="10.9" transform="matrix(1.0, 0.0, 0.0, 1.0, 0.0, 0.0)" width="6.75" xlink:href="#shape22"/>
    </g>
    <g id="shape22">
      <path d="M0.05 5.35 L-1.7 5.3 -3.3 0.1 -0.4 -5.35 3.35 -0.7 0.05 5.35" fill="#ffffc2" fill-rule="evenodd" stroke="none"/>
      <path d="M-0.4 -5.35 L3.35 -0.7 0.05 5.35" ffdec:has-small-stroke="true" ffdec:original-stroke-width="0.625" fill="none" stroke="#ffffc2" stroke-linecap="round" stroke-linejoin="round" stroke-width="0.7952118947601661"/>
    </g>
    <g id="shape23">
      <path d="M2.9 -5.35 L6.65 -0.7 3.35 5.35" ffdec:has-small-stroke="true" ffdec:original-stroke-width="0.625" fill="none" stroke="#553400" stroke-linecap="round" stroke-linejoin="round" stroke-opacity="0.34117648" stroke-width="0.7952118947601661"/>
    </g>
    <g id="sprite20">
      <use ffdec:characterId="28" height="10.9" id="arbre3" transform="matrix(1.0, 0.0, 0.0, 1.0, 3.3, 0.0)" width="6.75" xlink:href="#sprite21"/>
      <use ffdec:characterId="29" height="10.9" transform="matrix(1.0, 0.0, 0.0, 1.0, 0.0, 0.0)" width="3.95" xlink:href="#shape25"/>
    </g>
    <g id="sprite21">
      <use ffdec:characterId="27" height="10.9" transform="matrix(1.0, 0.0, 0.0, 1.0, 0.0, 0.0)" width="6.75" xlink:href="#shape24"/>
    </g>
    <g id="shape24">
      <path d="M0.05 5.35 L-1.7 5.3 -3.3 0.1 -0.4 -5.35 3.35 -0.7 0.05 5.35" fill="#fffff1" fill-rule="evenodd" stroke="none"/>
      <path d="M-0.4 -5.35 L3.35 -0.7 0.05 5.35" ffdec:has-small-stroke="true" ffdec:original-stroke-width="0.625" fill="none" stroke="#fffff1" stroke-linecap="round" stroke-linejoin="round" stroke-width="0.7697832403782902"/>
    </g>
    <g id="shape25">
      <path d="M2.9 -5.35 L6.65 -0.7 3.35 5.35" ffdec:has-small-stroke="true" ffdec:original-stroke-width="0.625" fill="none" stroke="#2e1700" stroke-linecap="round" stroke-linejoin="round" stroke-opacity="0.34117648" stroke-width="0.7697832403782902"/>
    </g>
    <g id="sprite22">
      <use ffdec:characterId="28" height="10.9" id="arbre3" transform="matrix(1.0, 0.0, 0.0, 1.0, 3.3, 0.0)" width="6.75" xlink:href="#sprite23"/>
      <use ffdec:characterId="29" height="10.9" transform="matrix(1.0, 0.0, 0.0, 1.0, 0.0, 0.0)" width="3.95" xlink:href="#shape27"/>
    </g>
    <g id="sprite23">
      <use ffdec:characterId="27" height="10.9" transform="matrix(1.0, 0.0, 0.0, 1.0, 0.0, 0.0)" width="6.75" xlink:href="#shape26"/>
    </g>
    <g id="shape26">
      <path d="M0.05 5.35 L-1.7 5.3 -3.3 0.1 -0.4 -5.35 3.35 -0.7 0.05 5.35" fill="#fffff1" fill-rule="evenodd" stroke="none"/>
      <path d="M-0.4 -5.35 L3.35 -0.7 0.05 5.35" ffdec:has-small-stroke="true" ffdec:original-stroke-width="0.625" fill="none" stroke="#fffff1" stroke-linecap="round" stroke-linejoin="round" stroke-width="1.057875742148324"/>
    </g>
    <g id="shape27">
      <path d="M2.9 -5.35 L6.65 -0.7 3.35 5.35" ffdec:has-small-stroke="true" ffdec:original-stroke-width="0.625" fill="none" stroke="#2e1700" stroke-linecap="round" stroke-linejoin="round" stroke-opacity="0.34117648" stroke-width="1.057875742148324"/>
    </g>
    <g id="sprite24">
      <use ffdec:characterId="28" height="10.9" id="arbre3" transform="matrix(1.0, 0.0, 0.0, 1.0, 3.3, 0.0)" width="6.75" xlink:href="#sprite25"/>
      <use ffdec:characterId="29" height="10.9" transform="matrix(1.0, 0.0, 0.0, 1.0, 0.0, 0.0)" width="3.95" xlink:href="#shape29"/>
    </g>
    <g id="sprite25">
      <use ffdec:characterId="27" height="10.9" transform="matrix(1.0, 0.0, 0.0, 1.0, 0.0, 0.0)" width="6.75" xlink:href="#shape28"/>
    </g>
    <g id="shape28">
      <path d="M0.05 5.35 L-1.7 5.3 -3.3 0.1 -0.4 -5.35 3.35 -0.7 0.05 5.35" fill="#fffff1" fill-rule="evenodd" stroke="none"/>
      <path d="M-0.4 -5.35 L3.35 -0.7 0.05 5.35" ffdec:has-small-stroke="true" ffdec:original-stroke-width="0.625" fill="none" stroke="#fffff1" stroke-linecap="round" stroke-linejoin="round" stroke-width="0.829752672802947"/>
    </g>
    <g id="shape29">
      <path d="M2.9 -5.35 L6.65 -0.7 3.35 5.35" ffdec:has-small-stroke="true" ffdec:original-stroke-width="0.625" fill="none" stroke="#2e1700" stroke-linecap="round" stroke-linejoin="round" stroke-opacity="0.34117648" stroke-width="0.829752672802947"/>
    </g>
    <g id="sprite26">
      <use ffdec:characterId="28" height="10.9" id="arbre3" transform="matrix(1.0, 0.0, 0.0, 1.0, 3.3, 0.0)" width="6.75" xlink:href="#sprite27"/>
      <use ffdec:characterId="29" height="10.9" transform="matrix(1.0, 0.0, 0.0, 1.0, 0.0, 0.0)" width="3.95" xlink:href="#shape31"/>
    </g>
    <g id="sprite27">
      <use ffdec:characterId="27" height="10.9" transform="matrix(1.0, 0.0, 0.0, 1.0, 0.0, 0.0)" width="6.75" xlink:href="#shape30"/>
    </g>
    <g id="shape30">
      <path d="M0.05 5.35 L-1.7 5.3 -3.3 0.1 -0.4 -5.35 3.35 -0.7 0.05 5.35" fill="#fffff1" fill-rule="evenodd" stroke="none"/>
      <path d="M-0.4 -5.35 L3.35 -0.7 0.05 5.35" ffdec:has-small-stroke="true" ffdec:original-stroke-width="0.625" fill="none" stroke="#fffff1" stroke-linecap="round" stroke-linejoin="round" stroke-width="0.8302975980796069"/>
    </g>
    <g id="shape31">
      <path d="M2.9 -5.35 L6.65 -0.7 3.35 5.35" ffdec:has-small-stroke="true" ffdec:original-stroke-width="0.625" fill="none" stroke="#2e1700" stroke-linecap="round" stroke-linejoin="round" stroke-opacity="0.34117648" stroke-width="0.8302975980796069"/>
    </g>
    <g id="sprite28">
      <use ffdec:characterId="28" height="10.9" id="arbre3" transform="matrix(1.0, 0.0, 0.0, 1.0, 3.3, 0.0)" width="6.75" xlink:href="#sprite29"/>
      <use ffdec:characterId="29" height="10.9" transform="matrix(1.0, 0.0, 0.0, 1.0, 0.0, 0.0)" width="3.95" xlink:href="#shape33"/>
    </g>
    <g id="sprite29">
      <use ffdec:characterId="27" height="10.9" transform="matrix(1.0, 0.0, 0.0, 1.0, 0.0, 0.0)" width="6.75" xlink:href="#shape32"/>
    </g>
    <g id="shape32">
      <path d="M0.05 5.35 L-1.7 5.3 -3.3 0.1 -0.4 -5.35 3.35 -0.7 0.05 5.35" fill="#fffff1" fill-rule="evenodd" stroke="none"/>
      <path d="M-0.4 -5.35 L3.35 -0.7 0.05 5.35" ffdec:has-small-stroke="true" ffdec:original-stroke-width="0.625" fill="none" stroke="#fffff1" stroke-linecap="round" stroke-linejoin="round" stroke-width="0.5961446772610706"/>
    </g>
    <g id="shape33">
      <path d="M2.9 -5.35 L6.65 -0.7 3.35 5.35" ffdec:has-small-stroke="true" ffdec:original-stroke-width="0.625" fill="none" stroke="#2e1700" stroke-linecap="round" stroke-linejoin="round" stroke-opacity="0.34117648" stroke-width="0.5961446772610706"/>
    </g>
    <g id="sprite30">
      <use ffdec:characterId="28" height="10.9" id="arbre3" transform="matrix(1.0, 0.0, 0.0, 1.0, 3.3, 0.0)" width="6.75" xlink:href="#sprite31"/>
      <use ffdec:characterId="29" height="10.9" transform="matrix(1.0, 0.0, 0.0, 1.0, 0.0, 0.0)" width="3.95" xlink:href="#shape35"/>
    </g>
    <g id="sprite31">
      <use ffdec:characterId="27" height="10.9" transform="matrix(1.0, 0.0, 0.0, 1.0, 0.0, 0.0)" width="6.75" xlink:href="#shape34"/>
    </g>
    <g id="shape34">
      <path d="M0.05 5.35 L-1.7 5.3 -3.3 0.1 -0.4 -5.35 3.35 -0.7 0.05 5.35" fill="#ffffc2" fill-rule="evenodd" stroke="none"/>
      <path d="M-0.4 -5.35 L3.35 -0.7 0.05 5.35" ffdec:has-small-stroke="true" ffdec:original-stroke-width="0.625" fill="none" stroke="#ffffc2" stroke-linecap="round" stroke-linejoin="round" stroke-width="0.8318904790218098"/>
    </g>
    <g id="shape35">
      <path d="M2.9 -5.35 L6.65 -0.7 3.35 5.35" ffdec:has-small-stroke="true" ffdec:original-stroke-width="0.625" fill="none" stroke="#553400" stroke-linecap="round" stroke-linejoin="round" stroke-opacity="0.34117648" stroke-width="0.8318904790218098"/>
    </g>
    <g id="sprite32">
      <use ffdec:characterId="28" height="10.9" id="arbre3" transform="matrix(1.0, 0.0, 0.0, 1.0, 3.3, 0.0)" width="6.75" xlink:href="#sprite33"/>
      <use ffdec:characterId="29" height="10.9" transform="matrix(1.0, 0.0, 0.0, 1.0, 0.0, 0.0)" width="3.95" xlink:href="#shape37"/>
    </g>
    <g id="sprite33">
      <use ffdec:characterId="27" height="10.9" transform="matrix(1.0, 0.0, 0.0, 1.0, 0.0, 0.0)" width="6.75" xlink:href="#shape36"/>
    </g>
    <g id="shape36">
      <path d="M0.05 5.35 L-1.7 5.3 -3.3 0.1 -0.4 -5.35 3.35 -0.7 0.05 5.35" fill="#ffffc2" fill-rule="evenodd" stroke="none"/>
      <path d="M-0.4 -5.35 L3.35 -0.7 0.05 5.35" ffdec:has-small-stroke="true" ffdec:original-stroke-width="0.625" fill="none" stroke="#ffffc2" stroke-linecap="round" stroke-linejoin="round" stroke-width="0.8300867975211212"/>
    </g>
    <g id="shape37">
      <path d="M2.9 -5.35 L6.65 -0.7 3.35 5.35" ffdec:has-small-stroke="true" ffdec:original-stroke-width="0.625" fill="none" stroke="#553400" stroke-linecap="round" stroke-linejoin="round" stroke-opacity="0.34117648" stroke-width="0.8300867975211212"/>
    </g>
    <g id="sprite34">
      <use ffdec:characterId="28" height="10.9" id="arbre3" transform="matrix(1.0, 0.0, 0.0, 1.0, 3.3, 0.0)" width="6.75" xlink:href="#sprite35"/>
      <use ffdec:characterId="29" height="10.9" transform="matrix(1.0, 0.0, 0.0, 1.0, 0.0, 0.0)" width="3.95" xlink:href="#shape39"/>
    </g>
    <g id="sprite35">
      <use ffdec:characterId="27" height="10.9" transform="matrix(1.0, 0.0, 0.0, 1.0, 0.0, 0.0)" width="6.75" xlink:href="#shape38"/>
    </g>
    <g id="shape38">
      <path d="M0.05 5.35 L-1.7 5.3 -3.3 0.1 -0.4 -5.35 3.35 -0.7 0.05 5.35" fill="#fffff1" fill-rule="evenodd" stroke="none"/>
      <path d="M-0.4 -5.35 L3.35 -0.7 0.05 5.35" ffdec:has-small-stroke="true" ffdec:original-stroke-width="0.625" fill="none" stroke="#fffff1" stroke-linecap="round" stroke-linejoin="round" stroke-width="1.0417945448093664"/>
    </g>
    <g id="shape39">
      <path d="M2.9 -5.35 L6.65 -0.7 3.35 5.35" ffdec:has-small-stroke="true" ffdec:original-stroke-width="0.625" fill="none" stroke="#2e1700" stroke-linecap="round" stroke-linejoin="round" stroke-opacity="0.34117648" stroke-width="1.0417945448093664"/>
    </g>
    <g id="sprite36">
      <use ffdec:characterId="28" height="10.9" id="arbre3" transform="matrix(1.0, 0.0, 0.0, 1.0, 3.3, 0.0)" width="6.75" xlink:href="#sprite37"/>
      <use ffdec:characterId="29" height="10.9" transform="matrix(1.0, 0.0, 0.0, 1.0, 0.0, 0.0)" width="3.95" xlink:href="#shape41"/>
    </g>
    <g id="sprite37">
      <use ffdec:characterId="27" height="10.9" transform="matrix(1.0, 0.0, 0.0, 1.0, 0.0, 0.0)" width="6.75" xlink:href="#shape40"/>
    </g>
    <g id="shape40">
      <path d="M0.05 5.35 L-1.7 5.3 -3.3 0.1 -0.4 -5.35 3.35 -0.7 0.05 5.35" fill="#fffff1" fill-rule="evenodd" stroke="none"/>
      <path d="M-0.4 -5.35 L3.35 -0.7 0.05 5.35" ffdec:has-small-stroke="true" ffdec:original-stroke-width="0.625" fill="none" stroke="#fffff1" stroke-linecap="round" stroke-linejoin="round" stroke-width="1.0560810750162777"/>
    </g>
    <g id="shape41">
      <path d="M2.9 -5.35 L6.65 -0.7 3.35 5.35" ffdec:has-small-stroke="true" ffdec:original-stroke-width="0.625" fill="none" stroke="#2e1700" stroke-linecap="round" stroke-linejoin="round" stroke-opacity="0.34117648" stroke-width="1.0560810750162777"/>
    </g>
    <g id="sprite38">
      <use ffdec:characterId="28" height="10.9" id="arbre3" transform="matrix(1.0, 0.0, 0.0, 1.0, 3.3, 0.0)" width="6.75" xlink:href="#sprite39"/>
      <use ffdec:characterId="29" height="10.9" transform="matrix(1.0, 0.0, 0.0, 1.0, 0.0, 0.0)" width="3.95" xlink:href="#shape43"/>
    </g>
    <g id="sprite39">
      <use ffdec:characterId="27" height="10.9" transform="matrix(1.0, 0.0, 0.0, 1.0, 0.0, 0.0)" width="6.75" xlink:href="#shape42"/>
    </g>
    <g id="shape42">
      <path d="M0.05 5.35 L-1.7 5.3 -3.3 0.1 -0.4 -5.35 3.35 -0.7 0.05 5.35" fill="#fffff1" fill-rule="evenodd" stroke="none"/>
      <path d="M-0.4 -5.35 L3.35 -0.7 0.05 5.35" ffdec:has-small-stroke="true" ffdec:original-stroke-width="0.625" fill="none" stroke="#fffff1" stroke-linecap="round" stroke-linejoin="round" stroke-width="1.0569648663293072"/>
    </g>
    <g id="shape43">
      <path d="M2.9 -5.35 L6.65 -0.7 3.35 5.35" ffdec:has-small-stroke="true" ffdec:original-stroke-width="0.625" fill="none" stroke="#2e1700" stroke-linecap="round" stroke-linejoin="round" stroke-opacity="0.34117648" stroke-width="1.0569648663293072"/>
    </g>
  </defs>
</svg>
