<?xml version="1.0" encoding="UTF-8" standalone="no"?>
<svg xmlns:ffdec="https://www.free-decompiler.com/flash" xmlns:xlink="http://www.w3.org/1999/xlink" ffdec:objectType="frame" height="129.75px" width="95.75px" xmlns="http://www.w3.org/2000/svg">
  <g transform="matrix(5.0, 0.0, 0.0, 5.0, 36.75, 65.0)">
    <use ffdec:characterId="2" height="25.95" transform="matrix(1.0, 0.0, 0.0, 1.0, 0.0, 0.0)" width="19.15" xlink:href="#shape0"/>
  </g>
  <defs>
    <g id="shape0">
      <path d="M10.8 4.8 Q10.8 6.65 8.15 8.0 5.5 9.3 1.7 9.3 -2.05 9.3 -4.7 8.0 -7.35 6.65 -7.35 4.8 -7.35 2.9 -4.7 1.55 -2.05 0.25 1.7 0.25 5.5 0.25 8.15 1.55 10.8 2.9 10.8 4.8" fill="#61836f" fill-rule="evenodd" stroke="none"/>
      <path d="M10.8 4.8 Q10.8 6.65 8.15 8.0 5.5 9.3 1.7 9.3 -2.05 9.3 -4.7 8.0 -7.35 6.65 -7.35 4.8 -7.35 2.9 -4.7 1.55 -2.05 0.25 1.7 0.25 5.5 0.25 8.15 1.55 10.8 2.9 10.8 4.8 Z" ffdec:has-small-stroke="true" ffdec:original-stroke-width="0.25" fill="none" stroke="#ffffff" stroke-linecap="round" stroke-linejoin="round" stroke-opacity="0.29803923" stroke-width="0.2"/>
      <path d="M-5.25 0.25 L-5.35 0.25 -5.2 0.05 -5.25 0.25" fill="#727272" fill-rule="evenodd" stroke="none"/>
      <path d="M-5.2 0.05 Q-4.8 -1.0 -3.25 -1.75 -1.15 -2.8 1.8 -2.8 4.75 -2.8 6.85 -1.75 8.35 -1.0 8.8 0.0 L7.7 1.0 Q6.6 2.85 2.85 3.05 -4.1 3.05 -4.3 1.65 L-5.25 0.25 -5.2 0.05" fill="#b6e2c7" fill-rule="evenodd" stroke="none"/>
      <path d="M-5.2 0.05 Q-4.8 -1.0 -3.25 -1.75 -1.15 -2.8 1.8 -2.8 4.75 -2.8 6.85 -1.75 8.35 -1.0 8.8 0.0 L7.7 1.0 Q6.6 2.85 2.85 3.05 -4.1 3.05 -4.3 1.65 L-5.25 0.25 -5.2 0.05 Z" ffdec:has-small-stroke="true" ffdec:original-stroke-width="0.25" fill="none" stroke="#ffffff" stroke-linecap="round" stroke-linejoin="round" stroke-opacity="0.29803923" stroke-width="0.2"/>
      <path d="M7.0 0.8 Q7.0 1.9 5.4 2.65 3.75 3.4 1.45 3.45 -0.85 3.45 -2.5 2.7 -4.15 1.95 -4.15 0.85 -4.15 -0.2 -2.5 -1.0 -0.85 -1.75 1.45 -1.75 3.75 -1.8 5.4 -1.05 7.0 -0.25 7.0 0.8" fill="#273b2f" fill-rule="evenodd" stroke="none"/>
      <path d="M9.15 -11.9 L6.35 -7.5 Q7.3 -6.25 8.0 -6.65 L11.05 -10.6 9.15 -11.9" fill="#acc6bb" fill-rule="evenodd" stroke="none"/>
      <path d="M9.15 -11.9 L6.35 -7.5 Q7.3 -6.25 8.0 -6.65 L11.05 -10.6 9.15 -11.9 Z" ffdec:has-small-stroke="true" ffdec:original-stroke-width="0.25" fill="none" stroke="#ffffff" stroke-linecap="round" stroke-linejoin="round" stroke-opacity="0.29803923" stroke-width="0.2"/>
      <path d="M8.2 -10.35 Q7.85 -11.05 7.65 -11.7 L7.65 -12.4 Q8.45 -13.05 9.4 -12.9 10.1 -12.3 10.05 -11.1 9.55 -8.85 8.2 -10.35" fill="#acc6bb" fill-rule="evenodd" stroke="none"/>
      <path d="M8.2 -10.35 Q7.85 -11.05 7.65 -11.7 L7.65 -12.4 Q8.45 -13.05 9.4 -12.9 10.1 -12.3 10.05 -11.1" ffdec:has-small-stroke="true" ffdec:original-stroke-width="0.25" fill="none" stroke="#ffffff" stroke-linecap="round" stroke-linejoin="round" stroke-opacity="0.29803923" stroke-width="0.2"/>
      <path d="M10.2 -11.4 L10.0 -11.35 9.7 -11.55 9.95 -11.6 10.2 -11.4" fill="#aa9774" fill-rule="evenodd" stroke="none"/>
      <path d="M9.7 -11.55 L10.0 -11.35 10.2 -11.4 10.7 -11.55 Q11.3 -11.7 11.65 -11.2 L11.8 -10.15 Q11.7 -9.7 11.15 -9.4 L10.45 -9.35 9.7 -9.35 9.25 -9.2 Q8.4 -9.6 9.1 -10.7 L9.7 -11.55" fill="#acc6bb" fill-rule="evenodd" stroke="none"/>
      <path d="M9.7 -9.35 L10.45 -9.35 11.15 -9.4 Q11.7 -9.7 11.8 -10.15 L11.65 -11.2 Q11.3 -11.7 10.7 -11.55 L10.2 -11.4 9.95 -11.6" ffdec:has-small-stroke="true" ffdec:original-stroke-width="0.25" fill="none" stroke="#ffffff" stroke-linecap="round" stroke-linejoin="round" stroke-opacity="0.29803923" stroke-width="0.2"/>
      <path d="M9.95 -11.65 L9.9 -11.6 9.8 -11.6 9.65 -11.5 9.8 -11.8 Q9.8 -11.65 9.9 -11.65 L9.95 -11.65" fill="#aa9774" fill-rule="evenodd" stroke="none"/>
      <path d="M10.35 -11.75 Q10.9 -11.9 11.15 -11.45 L11.3 -10.6 10.75 -9.95 10.2 -9.9 9.85 -9.9 8.15 -7.7 6.45 -7.65 8.35 -10.9 7.85 -11.9 Q7.8 -12.3 7.9 -12.5 8.55 -13.05 9.3 -13.0 9.85 -12.5 9.9 -11.65 9.8 -11.65 9.8 -11.8 L9.65 -11.5 9.8 -11.6 9.9 -11.6 9.95 -11.65 10.35 -11.75" fill="#d8f8ea" fill-rule="evenodd" stroke="none"/>
      <path d="M10.35 -11.75 L9.95 -11.65 9.9 -11.65 Q9.8 -11.65 9.8 -11.8 M8.35 -10.9 L6.45 -7.65" ffdec:has-small-stroke="true" ffdec:original-stroke-width="0.25" fill="none" stroke="#ffffff" stroke-linecap="round" stroke-linejoin="round" stroke-opacity="0.29803923" stroke-width="0.2"/>
      <path d="M8.25 -2.7 L8.1 -2.05 Q7.85 -0.5 6.7 1.35 L5.45 2.8 Q2.65 4.45 -0.55 3.55 -2.35 2.4 -3.45 -1.05 L-1.1 -1.05 Q1.45 -2.7 2.55 -5.6 4.0 -5.25 3.75 -6.95 4.0 -7.55 4.4 -7.65 L5.5 -8.05 6.45 -8.35 7.3 -8.4 Q8.0 -8.05 8.25 -7.3 L8.4 -6.65 Q8.15 -5.25 8.25 -4.5 L8.25 -2.9 8.25 -2.7" fill="#688473" fill-rule="evenodd" stroke="none"/>
      <path d="M8.25 -2.7 L8.1 -2.05 Q7.85 -0.5 6.7 1.35 L5.45 2.8 Q2.65 4.45 -0.55 3.55 -2.35 2.4 -3.45 -1.05 L-1.1 -1.05 Q1.45 -2.7 2.55 -5.6 4.0 -5.25 3.75 -6.95 4.0 -7.55 4.4 -7.65 L5.5 -8.05 6.45 -8.35 7.3 -8.4 Q8.0 -8.05 8.25 -7.3 L8.4 -6.65 Q8.15 -5.25 8.25 -4.5 L8.25 -2.9 8.25 -2.7 Z" ffdec:has-small-stroke="true" ffdec:original-stroke-width="0.25" fill="none" stroke="#ffffff" stroke-linecap="round" stroke-linejoin="round" stroke-opacity="0.29803923" stroke-width="0.2"/>
      <path d="M-3.15 -0.65 L0.2 -3.5 Q3.55 -6.45 3.5 -6.95 3.7 -7.45 4.0 -7.55 L4.85 -7.95 5.65 -8.1 6.35 -8.15 6.45 -8.1 7.1 -7.6 7.35 -4.9 Q7.4 -2.55 5.9 -0.75 L4.85 0.35 2.3 1.05 0.05 1.2 Q-3.15 0.7 -3.15 -0.65" fill="#96bda5" fill-rule="evenodd" stroke="none"/>
      <path d="M-3.15 -0.65 L0.2 -3.5 Q3.55 -6.45 3.5 -6.95 3.7 -7.45 4.0 -7.55 L4.85 -7.95 5.65 -8.1 6.35 -8.15 6.45 -8.1" ffdec:has-small-stroke="true" ffdec:original-stroke-width="0.25" fill="none" stroke="#ffffff" stroke-linecap="round" stroke-linejoin="round" stroke-opacity="0.29803923" stroke-width="0.2"/>
      <path d="M5.6 -5.65 L5.55 -5.6 5.45 -5.55 5.45 -5.45 5.5 -5.25 5.6 -5.15 6.0 -5.15 6.45 -5.3 6.6 -5.4 6.8 -5.65 6.75 -5.65 6.25 -5.7 5.8 -5.7 5.8 -5.65 5.65 -5.6 5.6 -5.65" fill="#9bc4aa" fill-rule="evenodd" stroke="none"/>
      <path d="M5.6 -5.65 L5.55 -5.6 5.45 -5.55 5.45 -5.45 5.5 -5.25 5.6 -5.15 6.0 -5.15 6.45 -5.3 6.6 -5.4 6.8 -5.65 6.75 -5.65 6.25 -5.7 5.8 -5.7 5.8 -5.65 5.65 -5.6 5.6 -5.65 Z" ffdec:has-small-stroke="true" ffdec:original-stroke-width="0.25" fill="none" stroke="#ffffff" stroke-linecap="round" stroke-linejoin="round" stroke-opacity="0.29803923" stroke-width="0.2"/>
      <path d="M-1.3 -2.95 L-1.35 -3.0 -1.3 -3.0 -1.3 -2.95" fill="#e0c09f" fill-rule="evenodd" stroke="none"/>
      <path d="M-3.3 -0.85 L-3.4 -1.0 -3.4 -1.05 -3.3 -0.85" fill="#eccdac" fill-rule="evenodd" stroke="none"/>
      <path d="M2.05 -6.2 Q3.85 -6.35 3.8 -6.95 4.6 -6.6 4.8 -6.2 5.1 -5.75 4.75 -5.0 4.05 -4.45 3.35 -4.85 L3.25 -5.15 3.1 -5.25 2.9 -5.55 2.75 -5.6 2.7 -5.75 2.2 -6.15 2.15 -6.2 2.05 -6.2" fill="#bfead7" fill-rule="evenodd" stroke="none"/>
      <path d="M3.35 -4.85 L3.7 -4.3 Q4.2 -3.0 3.85 -1.8 3.55 -1.1 3.0 -0.95 1.2 -0.5 -0.1 -1.6 L-0.15 -1.6 -0.3 -1.8 -0.6 -2.1 -0.9 -2.4 -1.05 -2.65 -1.3 -3.0 -1.35 -3.05 -1.3 -3.05 Q-0.95 -3.6 -0.4 -3.75 1.45 -3.9 1.7 -6.2 L2.05 -6.2 2.15 -6.2 2.2 -6.15 2.7 -5.75 2.75 -5.6 2.9 -5.55 3.1 -5.25 3.25 -5.15 3.35 -4.85" fill="#b2dfcb" fill-rule="evenodd" stroke="none"/>
      <path d="M-0.1 -1.6 Q0.45 0.0 -1.45 0.25 -2.9 -0.1 -3.3 -0.85 L-3.4 -1.05 -3.1 -1.45 Q-2.75 -1.5 -1.95 -2.1 -1.45 -2.45 -1.3 -2.95 L-1.3 -3.0 -1.05 -2.65 -0.9 -2.4 -0.6 -2.1 -0.3 -1.8 -0.15 -1.6 -0.1 -1.6" fill="#a9d3bf" fill-rule="evenodd" stroke="none"/>
      <path d="M2.05 -6.2 Q3.85 -6.35 3.8 -6.95 4.6 -6.6 4.8 -6.2 5.1 -5.75 4.75 -5.0 4.05 -4.45 3.35 -4.85 L3.7 -4.3 Q4.2 -3.0 3.85 -1.8 3.55 -1.1 3.0 -0.95 1.2 -0.5 -0.1 -1.6 0.45 0.0 -1.45 0.25 -2.9 -0.1 -3.3 -0.85 L-3.4 -1.0 -3.4 -1.05 -3.1 -1.45 Q-2.75 -1.5 -1.95 -2.1 -1.45 -2.45 -1.3 -2.95 L-1.35 -3.0 -1.3 -3.0 M-1.3 -3.05 Q-0.95 -3.6 -0.4 -3.75 1.45 -3.9 1.7 -6.2 L2.05 -6.2 2.15 -6.2 M-0.1 -1.6 L-0.15 -1.6 M-3.4 -1.05 L-3.3 -0.85" ffdec:has-small-stroke="true" ffdec:original-stroke-width="0.25" fill="none" stroke="#ffffff" stroke-linecap="round" stroke-linejoin="round" stroke-opacity="0.29803923" stroke-width="0.2"/>
      <path d="M7.4 0.05 L8.8 0.0 8.85 0.1 8.95 0.8 Q8.95 2.25 6.85 3.3 4.75 4.35 1.8 4.35 -1.15 4.35 -3.25 3.3 -5.35 2.25 -5.35 0.8 L-5.25 0.25 -4.15 0.25 Q-4.1 3.05 2.85 3.05 6.6 2.85 7.4 0.05" fill="#b6e2c7" fill-rule="evenodd" stroke="none"/>
      <path d="M8.85 0.1 Q10.6 2.4 10.6 3.9 10.6 5.7 8.05 7.0 5.45 8.3 1.8 8.3 -1.8 8.3 -4.4 7.0 -7.0 5.7 -7.0 3.9 -7.0 2.45 -5.35 0.25 L-5.25 0.25 -5.35 0.8 Q-5.35 2.25 -3.25 3.3 -1.15 4.35 1.8 4.35 4.75 4.35 6.85 3.3 8.95 2.25 8.95 0.8 L8.85 0.1" fill="#91b49f" fill-rule="evenodd" stroke="none"/>
      <path d="M8.85 0.1 Q10.6 2.4 10.6 3.9 10.6 5.7 8.05 7.0 5.45 8.3 1.8 8.3 -1.8 8.3 -4.4 7.0 -7.0 5.7 -7.0 3.9 -7.0 2.45 -5.35 0.25 L-5.25 0.25 M-4.15 0.25 Q-4.1 3.05 2.85 3.05 6.6 2.85 7.4 0.05" ffdec:has-small-stroke="true" ffdec:original-stroke-width="0.25" fill="none" stroke="#ffffff" stroke-linecap="round" stroke-linejoin="round" stroke-opacity="0.29803923" stroke-width="0.2"/>
      <path d="M10.0 9.55 Q10.15 10.6 9.95 11.25 L8.8 11.8 8.55 11.75 Q8.3 9.05 7.55 10.1 7.6 8.85 8.75 8.4 9.5 8.4 10.0 9.55" fill="#acc6bb" fill-rule="evenodd" stroke="none"/>
      <path d="M7.55 10.1 Q8.3 9.05 8.55 11.75 L8.8 11.8 9.95 11.25 Q10.15 10.6 10.0 9.55" ffdec:has-small-stroke="true" ffdec:original-stroke-width="0.25" fill="none" stroke="#ffffff" stroke-linecap="round" stroke-linejoin="round" stroke-opacity="0.29803923" stroke-width="0.2"/>
      <path d="M9.4 7.15 Q8.6 8.3 9.0 10.0 10.7 8.9 10.65 8.55 10.55 8.0 9.7 7.6 L9.4 7.15" fill="#acc6bb" fill-rule="evenodd" stroke="none"/>
      <path d="M9.4 7.15 Q8.6 8.3 9.0 10.0 10.7 8.9 10.65 8.55 10.55 8.0 9.7 7.6 L9.4 7.15 Z" ffdec:has-small-stroke="true" ffdec:original-stroke-width="0.25" fill="none" stroke="#ffffff" stroke-linecap="round" stroke-linejoin="round" stroke-opacity="0.29803923" stroke-width="0.2" vector-effect="non-scaling-stroke"/>
      <path d="M8.0 10.85 L7.7 12.55 7.0 12.85 6.25 12.95 5.45 11.35 Q5.7 10.15 6.9 9.7 7.6 9.7 8.0 10.85" fill="#acc6bb" fill-rule="evenodd" stroke="none"/>
      <path d="M5.45 11.35 L6.25 12.95 7.0 12.85 7.7 12.55 8.0 10.85" ffdec:has-small-stroke="true" ffdec:original-stroke-width="0.25" fill="none" stroke="#ffffff" stroke-linecap="round" stroke-linejoin="round" stroke-opacity="0.29803923" stroke-width="0.2"/>
      <path d="M9.9 8.15 Q9.85 5.35 9.2 3.9 7.7 2.45 5.4 2.45 2.9 3.0 2.1 4.4 0.45 8.6 1.8 9.9 2.7 10.1 3.7 10.65 L3.7 11.2 Q3.85 12.15 4.5 12.0 L6.0 11.45 6.05 11.45 7.05 11.4 Q8.3 10.7 9.25 10.25 L10.05 9.35 9.95 8.95 9.9 8.15" fill="#acc6bb" fill-rule="evenodd" stroke="none"/>
      <path d="M9.9 8.15 Q9.85 5.35 9.2 3.9 7.7 2.45 5.4 2.45 2.9 3.0 2.1 4.4 0.45 8.6 1.8 9.9 2.7 10.1 3.7 10.65 L3.7 11.2 Q3.85 12.15 4.5 12.0 L6.0 11.45 6.05 11.45" ffdec:has-small-stroke="true" ffdec:original-stroke-width="0.25" fill="none" stroke="#ffffff" stroke-linecap="round" stroke-linejoin="round" stroke-opacity="0.29803923" stroke-width="0.2" vector-effect="non-scaling-stroke"/>
      <path d="M6.35 7.4 L6.3 7.4 Q5.55 7.3 4.95 8.45 4.9 9.55 5.35 10.1 L5.4 10.1 Q6.1 10.15 6.55 9.65 7.25 8.35 6.35 7.4" fill="#1e1a20" fill-rule="evenodd" stroke="none"/>
      <path d="M5.35 10.1 L5.45 10.25 Q6.25 10.6 6.95 9.8 7.65 8.45 6.65 7.5 L6.35 7.4 Q7.25 8.35 6.55 9.65 6.1 10.15 5.4 10.1 L5.35 10.1" fill="#d8f8ea" fill-rule="evenodd" stroke="none"/>
      <path d="M6.35 7.4 L6.3 7.4 Q5.55 7.3 4.95 8.45 4.9 9.55 5.35 10.1 M6.65 7.5 L6.35 7.4" ffdec:has-small-stroke="true" ffdec:original-stroke-width="0.25" fill="none" stroke="#ffffff" stroke-linecap="round" stroke-linejoin="round" stroke-opacity="0.29803923" stroke-width="0.2" vector-effect="non-scaling-stroke"/>
      <path d="M9.05 6.2 Q8.65 6.15 8.3 7.1 8.1 8.15 8.4 8.85 L9.05 8.4 Q9.6 7.2 9.05 6.2" fill="#1e1a20" fill-rule="evenodd" stroke="none"/>
      <path d="M8.4 8.85 L8.5 8.9 Q8.95 9.25 9.45 8.65 10.0 7.4 9.45 6.35 9.3 6.15 9.05 6.2 9.6 7.2 9.05 8.4 L8.4 8.85" fill="#d8f8ea" fill-rule="evenodd" stroke="none"/>
      <path d="M9.05 6.2 Q8.65 6.15 8.3 7.1 8.1 8.15 8.4 8.85 L9.05 8.4 Q9.6 7.2 9.05 6.2 Z" ffdec:has-small-stroke="true" ffdec:original-stroke-width="0.25" fill="none" stroke="#ffffff" stroke-linecap="round" stroke-linejoin="round" stroke-opacity="0.29803923" stroke-width="0.2" vector-effect="non-scaling-stroke"/>
      <path d="M8.0 9.45 L8.55 10.15 8.1 10.0 7.65 10.45 Q7.7 9.75 8.0 9.45" fill="#181319" fill-rule="evenodd" stroke="none"/>
      <path d="M8.0 9.45 Q7.7 9.75 7.65 10.45 L8.1 10.0 8.55 10.15 8.0 9.45 Z" ffdec:has-small-stroke="true" ffdec:original-stroke-width="0.25" fill="none" stroke="#ffffff" stroke-linecap="round" stroke-linejoin="round" stroke-opacity="0.29803923" stroke-width="0.2"/>
      <path d="M6.8 2.8 L8.55 3.5 9.25 4.4 Q8.55 5.45 4.7 6.2 L3.2 5.95 Q2.35 5.6 2.55 4.7 2.65 4.25 3.05 3.75 3.45 3.25 4.7 2.85 L6.8 2.8" fill="#d8f8ea" fill-rule="evenodd" stroke="none"/>
    </g>
  </defs>
</svg>
