<?xml version="1.0" encoding="UTF-8" standalone="no"?>
<svg xmlns:ffdec="https://www.free-decompiler.com/flash" xmlns:xlink="http://www.w3.org/1999/xlink" ffdec:objectType="frame" height="400.0px" width="550.0px" xmlns="http://www.w3.org/2000/svg">
  <g transform="matrix(1.0, 0.0, 0.0, 1.0, 0.0, 0.0)">
    <use ffdec:characterId="3" height="381.0" transform="matrix(2.884, 0.0, 0.0, 2.884, 279.75, 491.35)" width="381.0" xlink:href="#shape0"/>
    <use ffdec:characterId="6" height="30.0" transform="matrix(1.5235, 0.0, 0.0, 1.817, 281.6, 367.55)" width="106.5" xlink:href="#sprite0"/>
    <use ffdec:characterId="8" height="17.2" transform="matrix(2.4976, -1.442, 1.442, 2.4976, 305.3, 303.2)" width="21.4" xlink:href="#sprite2"/>
    <use ffdec:characterId="9" height="126.15" transform="matrix(2.884, 0.0, 0.0, 2.884, 279.75, 491.35)" width="110.6" xlink:href="#shape3"/>
    <use ffdec:characterId="11" height="45.0" id="_mcMask" transform="matrix(5.2121, 0.0, 0.0, 4.7695, 2.85, 77.5)" width="102.95" xlink:href="#sprite3"/>
  </g>
  <defs>
    <g id="shape0">
      <path d="M187.95 -293.5 L187.95 86.5 -192.0 86.5 -192.05 86.5 -192.05 -293.5 187.95 -293.5 M92.95 0.6 L-97.0 0.6" fill="none" stroke="#ff00ff" stroke-linecap="round" stroke-linejoin="round" stroke-opacity="0.0" stroke-width="1.0"/>
      <path d="M187.95 -293.5 L-2.05 -103.5 187.95 86.5 M-192.05 -293.5 L-2.05 -103.5 -192.0 86.5" fill="none" stroke="#ff00ff" stroke-linecap="round" stroke-linejoin="round" stroke-opacity="0.0" stroke-width="1.0"/>
    </g>
    <g id="sprite0">
      <use ffdec:characterId="5" height="22.2" transform="matrix(4.8014, 0.0, 0.0, 1.3538, 0.0, 0.0)" width="22.2" xlink:href="#sprite1"/>
    </g>
    <g id="sprite1">
      <use ffdec:characterId="4" height="22.2" transform="matrix(1.0, 0.0, 0.0, 1.0, 0.0, 0.0)" width="22.2" xlink:href="#shape1"/>
    </g>
    <g id="shape1">
      <path d="M7.85 7.85 Q4.6 11.1 0.0 11.1 -4.6 11.1 -7.85 7.85 -11.1 4.6 -11.1 0.0 -11.1 -4.6 -7.85 -7.85 -4.6 -11.1 0.0 -11.1 4.6 -11.1 7.85 -7.85 11.1 -4.6 11.1 0.0 11.1 4.6 7.85 7.85" fill="url(#gradient0)" fill-rule="evenodd" stroke="none"/>
    </g>
    <radialGradient cx="0" cy="0" gradientTransform="matrix(0.0137, 0.0, 0.0, 0.0137, 0.0, 0.0)" gradientUnits="userSpaceOnUse" id="gradient0" r="819.2" spreadMethod="pad">
      <stop offset="0.0" stop-color="#000000" stop-opacity="0.61960787"/>
      <stop offset="1.0" stop-color="#000000" stop-opacity="0.0"/>
    </radialGradient>
    <g id="sprite2">
      <use ffdec:characterId="7" height="17.2" transform="matrix(1.0, 0.0, 0.0, 1.0, 0.0, 0.0)" width="21.4" xlink:href="#shape2"/>
    </g>
    <g id="shape2">
      <path d="M2.45 -6.55 L4.55 -6.05 6.75 -3.05 Q5.15 -3.7 4.9 -0.3 5.15 -3.7 6.75 -3.05 L8.0 -1.4 6.55 -1.25 6.75 -0.6 7.45 2.2 8.85 3.25 8.6 3.55 Q7.35 3.55 6.4 2.6 L6.1 2.3 5.65 1.35 4.9 -0.3 4.15 -1.9 4.1 -2.25 2.45 -6.55 4.1 -2.25 4.15 -1.9 4.2 -1.5 Q2.6 -2.2 1.05 -1.0 2.6 -2.2 4.2 -1.5 L4.35 0.3 1.9 0.35 1.9 1.0 Q1.3 1.15 0.65 1.65 1.3 1.15 1.9 1.0 L1.9 2.85 0.25 3.5 0.65 1.65 0.9 0.35 Q1.15 -0.3 1.05 -1.0 L0.4 -2.7 -0.5 -0.25 -1.0 0.25 Q-0.7 -2.85 -3.55 -2.0 -0.7 -2.85 -1.0 0.25 L-1.85 1.05 Q-1.3 0.1 -2.0 -1.15 L-3.85 -0.25 -4.8 0.2 -6.3 -0.6 -7.2 0.85 -7.75 1.1 -7.55 -0.4 -6.3 -0.6 -5.15 -0.85 Q-4.3 -0.7 -3.85 -0.25 -4.3 -0.7 -5.15 -0.85 L-3.55 -2.0 Q-2.75 -2.9 -2.35 -4.3 L-2.35 -7.75 2.3 -6.6 2.45 -6.55 M9.75 -0.15 L10.2 0.0 9.75 2.15 9.4 2.65 8.35 1.1 Q9.7 1.35 9.75 -0.15 M4.6 3.55 L4.6 5.5 3.2 5.95 3.75 4.7 4.6 3.55 M5.65 1.35 Q6.05 0.1 6.75 -0.6 6.05 0.1 5.65 1.35 M-4.3 3.35 L-6.85 3.35 Q-7.5 2.8 -7.65 1.95 L-6.6 1.95 Q-6.7 3.25 -4.3 3.35" fill="#6d6d00" fill-rule="evenodd" stroke="none"/>
      <path d="M8.0 -1.4 Q8.85 -0.5 9.75 -0.15 9.7 1.35 8.35 1.1 7.3 1.2 7.45 2.2 L6.75 -0.6 6.55 -1.25 8.0 -1.4 Q7.1 -1.0 6.75 -0.6 7.1 -1.0 8.0 -1.4 M1.9 1.0 L1.9 0.35 4.35 0.3 4.5 2.15 4.6 3.2 4.6 3.55 3.75 4.7 Q2.9 3.25 2.0 4.15 L2.0 5.7 1.55 5.5 Q0.9 5.6 0.2 3.8 L0.25 3.5 1.9 2.85 1.9 1.0 Q3.45 0.55 4.5 2.15 3.45 0.55 1.9 1.0 M-7.2 0.85 L-6.3 -0.6 -4.8 0.2 -3.85 -0.25 Q-2.9 0.65 -3.65 2.75 -2.9 0.65 -3.85 -0.25 L-2.0 -1.15 Q-1.3 0.1 -1.85 1.05 L-3.65 2.75 -4.3 3.35 Q-6.7 3.25 -6.6 1.95 -5.8 1.35 -6.6 0.55 L-7.2 0.85" fill="#8c8c00" fill-rule="evenodd" stroke="none"/>
      <path d="M9.4 2.65 L10.7 4.6 8.85 3.25 7.45 2.2 Q7.3 1.2 8.35 1.1 L9.4 2.65 M3.2 5.95 L2.0 8.6 2.0 5.7 2.0 4.15 Q2.9 3.25 3.75 4.7 L3.2 5.95 M-7.75 1.1 L-7.2 0.85 -6.6 0.55 Q-5.8 1.35 -6.6 1.95 L-7.65 1.95 -10.7 1.95 -7.75 1.1" fill="#000000" fill-rule="evenodd" stroke="none"/>
      <path d="M6.75 -3.05 L4.55 -6.05 2.45 -6.55 4.1 -2.25 4.15 -1.9 4.9 -0.3 Q5.15 -3.7 6.75 -3.05 L8.0 -1.4 Q8.85 -0.5 9.75 -0.15 L10.2 0.0 9.75 2.15 9.4 2.65 10.7 4.6 8.85 3.25 8.6 3.55 Q7.35 3.55 6.4 2.6 L6.1 2.3 5.65 1.35 4.9 -0.3 M2.45 -6.55 L2.3 -6.6 -2.35 -7.75 -2.35 -4.3 Q-2.75 -2.9 -3.55 -2.0 -0.7 -2.85 -1.0 0.25 L-0.5 -0.25 0.4 -2.7 1.05 -1.0 Q2.6 -2.2 4.2 -1.5 L4.15 -1.9 M4.35 0.3 L4.2 -1.5 M1.05 -1.0 Q1.15 -0.3 0.9 0.35 L0.65 1.65 Q1.3 1.15 1.9 1.0 3.45 0.55 4.5 2.15 L4.6 3.2 4.6 3.55 4.6 5.5 3.2 5.95 2.0 8.6 2.0 5.7 1.55 5.5 Q0.9 5.6 0.2 3.8 L0.25 3.5 0.65 1.65 M4.35 0.3 L4.5 2.15 M6.75 -0.6 Q7.1 -1.0 8.0 -1.4 M7.45 2.2 Q7.3 1.2 8.35 1.1 L9.4 2.65 M8.85 3.25 L7.45 2.2 M6.75 -0.6 Q6.05 0.1 5.65 1.35 M-2.35 -8.6 L-2.35 -7.75 -2.95 -7.9 M-6.3 -0.6 L-7.55 -0.4 -7.75 1.1 -7.2 0.85 -6.6 0.55 Q-5.8 1.35 -6.6 1.95 L-7.65 1.95 -10.7 1.95 -7.75 1.1 M-3.85 -0.25 Q-4.3 -0.7 -5.15 -0.85 L-6.3 -0.6 M-7.65 1.95 Q-7.5 2.8 -6.85 3.35 L-4.3 3.35 -3.65 2.75 Q-2.9 0.65 -3.85 -0.25 M-3.55 -2.0 L-5.15 -0.85 M-1.85 1.05 L-1.0 0.25 M-3.65 2.75 L-1.85 1.05 M2.0 5.7 L2.0 4.15 Q2.9 3.25 3.75 4.7 L3.2 5.95" ffdec:has-small-stroke="true" ffdec:original-stroke-width="0.05" fill="none" stroke="#000000" stroke-linecap="round" stroke-linejoin="round" stroke-opacity="0.4117647" stroke-width="0.34673943840530713"/>
    </g>
    <g id="shape3">
      <path d="M-48.45 -139.8 L-48.45 -139.9 -48.4 -139.8 -48.45 -139.8" fill="#ffcc00" fill-rule="evenodd" stroke="none"/>
      <path d="M-48.45 -139.9 Q-46.7 -145.7 -40.55 -139.4 -34.4 -133.15 -31.4 -124.8 L-32.25 -124.55 Q-34.3 -130.15 -38.15 -134.8 L-37.8 -130.55 Q-39.4 -134.5 -41.75 -136.7 -45.8 -140.35 -48.4 -139.8 L-48.45 -139.9" fill="#ffdc51" fill-rule="evenodd" stroke="none"/>
      <path d="M-32.25 -124.55 Q-37.65 -123.25 -43.1 -127.95 -50.1 -134.05 -48.45 -139.8 L-48.4 -139.8 Q-45.8 -140.35 -41.75 -136.7 -39.4 -134.5 -37.8 -130.55 L-38.15 -134.8 Q-34.3 -130.15 -32.25 -124.55" fill="url(#gradient1)" fill-rule="evenodd" stroke="none"/>
      <path d="M-48.45 -139.9 Q-46.7 -145.7 -40.55 -139.4 -34.4 -133.15 -31.4 -124.8 L-32.25 -124.55 Q-37.65 -123.25 -43.1 -127.95 -50.1 -134.05 -48.45 -139.8 L-48.45 -139.9 Z" ffdec:has-small-stroke="true" ffdec:original-stroke-width="0.05" fill="none" stroke="#000000" stroke-linecap="round" stroke-linejoin="round" stroke-opacity="0.43137255" stroke-width="0.3467402004631466"/>
      <path d="M-2.7 -138.8 L-2.7 -138.85 -2.65 -138.8 -2.7 -138.8" fill="#c67700" fill-rule="evenodd" stroke="none"/>
      <path d="M-19.5 -148.2 Q-20.7 -147.05 -21.3 -145.8 -20.7 -147.05 -19.5 -148.2 L-17.9 -149.65 Q-16.2 -150.95 -12.75 -151.1 -20.25 -147.95 -14.65 -147.85 6.05 -145.75 -2.25 -144.9 1.8 -144.05 2.9 -142.85 3.0 -141.9 -2.7 -138.85 L-2.7 -138.8 Q-6.4 -139.3 -9.85 -137.15 -11.45 -136.15 -12.95 -134.55 -11.45 -136.15 -9.85 -137.15 -20.5 -108.95 -16.95 -88.7 -7.9 -63.4 11.55 -72.05 22.5 -102.35 6.65 -134.25 6.95 -136.1 7.85 -137.45 18.85 -118.75 20.6 -92.25 L20.6 -81.95 Q21.05 -64.7 37.15 -87.65 39.65 -96.2 39.45 -104.0 40.55 -91.45 46.1 -94.15 43.45 -85.45 35.8 -83.65 34.1 -78.1 29.15 -72.9 24.2 -67.7 9.45 -66.75 -5.45 -58.1 -19.35 -68.05 -30.1 -67.5 -34.8 -73.0 -39.5 -78.5 -40.75 -81.45 -46.15 -110.2 -33.55 -128.3 -46.15 -110.2 -40.75 -81.45 -51.6 -86.05 -51.75 -106.45 -51.95 -126.85 -37.45 -139.55 L-34.75 -141.75 Q-28.45 -149.9 -22.5 -151.9 -27.75 -147.2 -19.5 -148.2 M-29.85 -144.15 Q-32.3 -143.2 -34.75 -141.75 -32.3 -143.2 -29.85 -144.15 -38.4 -139.4 -39.55 -132.8 -39.95 -124.85 -33.55 -128.3 -29.0 -134.9 -22.1 -140.05 -18.45 -143.9 -21.3 -145.8 -25.4 -145.9 -29.85 -144.15 M-20.5 -140.3 L-22.1 -140.05 -20.5 -140.3 Q-34.7 -128.15 -35.5 -104.8 -31.9 -69.1 -25.75 -87.9 -24.6 -77.6 -19.35 -68.05 -24.6 -77.6 -25.75 -87.9 -28.2 -109.45 -12.95 -134.55 -13.7 -136.45 -15.65 -138.7 -17.25 -140.55 -20.5 -140.3 M-7.55 -151.75 Q-8.55 -151.45 -9.4 -150.95 L-11.4 -152.95 -8.8 -153.7 -7.55 -151.75 M22.55 -147.15 L25.3 -144.85 Q20.7 -147.25 15.2 -146.75 L14.45 -148.0 22.55 -147.15 M9.45 -66.75 L11.55 -72.05 9.45 -66.75 M35.8 -83.65 L37.15 -87.65 35.8 -83.65" fill="#f18001" fill-rule="evenodd" stroke="none"/>
      <path d="M-9.85 -137.15 Q-6.4 -139.3 -2.7 -138.8 L-2.65 -138.8 -1.6 -138.6 Q3.1 -137.7 6.65 -134.25 22.5 -102.35 11.55 -72.05 -7.9 -63.4 -16.95 -88.7 -20.5 -108.95 -9.85 -137.15" fill="url(#gradient2)" fill-rule="evenodd" stroke="none"/>
      <path d="M17.55 -141.55 Q38.85 -125.6 39.45 -104.0 39.65 -96.2 37.15 -87.65 21.05 -64.7 20.6 -81.95 L20.6 -92.25 Q18.85 -118.75 7.85 -137.45 10.35 -141.35 17.55 -141.55" fill="url(#gradient3)" fill-rule="evenodd" stroke="none"/>
      <path d="M25.3 -144.85 Q29.1 -142.55 32.55 -139.55 47.05 -126.85 47.45 -106.65 47.6 -99.25 46.1 -94.15 40.55 -91.45 39.45 -104.0 38.85 -125.6 17.55 -141.55 L15.85 -143.6 Q14.15 -145.3 15.2 -146.75 20.7 -147.25 25.3 -144.85" fill="url(#gradient4)" fill-rule="evenodd" stroke="none"/>
      <path d="M-20.5 -140.3 Q-17.25 -140.55 -15.65 -138.7 -13.7 -136.45 -12.95 -134.55 -28.2 -109.45 -25.75 -87.9 -31.9 -69.1 -35.5 -104.8 -34.7 -128.15 -20.5 -140.3" fill="url(#gradient5)" fill-rule="evenodd" stroke="none"/>
      <path d="M-29.85 -144.15 Q-25.4 -145.9 -21.3 -145.8 -18.45 -143.9 -22.1 -140.05 -29.0 -134.9 -33.55 -128.3 -39.95 -124.85 -39.55 -132.8 -38.4 -139.4 -29.85 -144.15" fill="url(#gradient6)" fill-rule="evenodd" stroke="none"/>
      <path d="M-2.7 -138.85 Q3.0 -141.9 2.9 -142.85 1.8 -144.05 -2.25 -144.9 6.05 -145.75 -14.65 -147.85 -20.25 -147.95 -12.75 -151.1 L-9.4 -150.95 Q-8.55 -151.45 -7.55 -151.75 L-2.05 -152.2 Q2.1 -151.8 6.0 -150.65 9.75 -150.45 12.2 -149.45 L14.45 -148.0 15.2 -146.75 Q14.15 -145.3 15.85 -143.6 L17.55 -141.55 Q10.35 -141.35 7.85 -137.45 6.95 -136.1 6.65 -134.25 3.1 -137.7 -1.6 -138.6 L-2.65 -138.8 -2.7 -138.85" fill="url(#gradient7)" fill-rule="evenodd" stroke="none"/>
      <path d="M6.0 -150.65 L7.65 -152.2 7.75 -152.25 Q14.9 -153.0 22.55 -147.15 L14.45 -148.0 12.2 -149.45 Q9.75 -150.45 6.0 -150.65" fill="url(#gradient8)" fill-rule="evenodd" stroke="none"/>
      <path d="M-7.55 -151.75 L-8.8 -153.7 Q-0.25 -155.9 7.65 -152.2 L6.0 -150.65 Q2.1 -151.8 -2.05 -152.2 L-7.55 -151.75" fill="url(#gradient9)" fill-rule="evenodd" stroke="none"/>
      <path d="M-19.5 -148.2 Q-27.75 -147.2 -22.5 -151.9 -20.85 -152.5 -19.15 -152.55 L-11.4 -152.95 -9.4 -150.95 -12.75 -151.1 Q-16.2 -150.95 -17.9 -149.65 L-19.5 -148.2" fill="url(#gradient10)" fill-rule="evenodd" stroke="none"/>
      <path d="M-21.3 -145.8 Q-20.7 -147.05 -19.5 -148.2 L-17.9 -149.65 Q-16.2 -150.95 -12.75 -151.1 L-9.4 -150.95 Q-8.55 -151.45 -7.55 -151.75 L-2.05 -152.2 Q2.1 -151.8 6.0 -150.65 9.75 -150.45 12.2 -149.45 L14.45 -148.0 15.2 -146.75 Q14.15 -145.3 15.85 -143.6 L17.55 -141.55 M-22.5 -151.9 Q-28.45 -149.9 -34.75 -141.75 L-37.45 -139.55 Q-51.95 -126.85 -51.75 -106.45 -51.6 -86.05 -40.75 -81.45 -39.5 -78.5 -34.8 -73.0 -30.1 -67.5 -19.35 -68.05 M-22.1 -140.05 L-20.5 -140.3 Q-17.25 -140.55 -15.65 -138.7 -13.7 -136.45 -12.95 -134.55 -11.45 -136.15 -9.85 -137.15 -6.4 -139.3 -2.7 -138.8 L-2.65 -138.8 -1.6 -138.6 Q3.1 -137.7 6.65 -134.25 M-11.4 -152.95 L-19.15 -152.55 Q-20.85 -152.5 -22.5 -151.9 M22.55 -147.15 L25.3 -144.85 Q29.1 -142.55 32.55 -139.55 47.05 -126.85 47.45 -106.65 47.6 -99.25 46.1 -94.15 43.45 -85.45 35.8 -83.65 34.1 -78.1 29.15 -72.9 24.2 -67.7 9.45 -66.75 M22.55 -147.15 Q14.9 -153.0 7.75 -152.25" ffdec:has-small-stroke="true" ffdec:original-stroke-width="0.05" fill="none" stroke="#5e2300" stroke-linecap="round" stroke-linejoin="round" stroke-opacity="0.4117647" stroke-width="0.3467402004631466"/>
      <path d="M-34.75 -141.75 Q-32.3 -143.2 -29.85 -144.15 -25.4 -145.9 -21.3 -145.8 -18.45 -143.9 -22.1 -140.05 -29.0 -134.9 -33.55 -128.3 -46.15 -110.2 -40.75 -81.45 M-8.8 -153.7 L-11.4 -152.95 -9.4 -150.95 M-19.35 -68.05 Q-24.6 -77.6 -25.75 -87.9 -28.2 -109.45 -12.95 -134.55 M9.45 -66.75 Q-5.45 -58.1 -19.35 -68.05 M6.0 -150.65 L7.65 -152.2 Q-0.25 -155.9 -8.8 -153.7 M7.75 -152.25 L7.65 -152.2 M17.55 -141.55 Q38.85 -125.6 39.45 -104.0 39.65 -96.2 37.15 -87.65 L35.8 -83.65 M15.2 -146.75 Q20.7 -147.25 25.3 -144.85 M7.85 -137.45 Q6.95 -136.1 6.65 -134.25 22.5 -102.35 11.55 -72.05 L9.45 -66.75 M7.85 -137.45 Q10.35 -141.35 17.55 -141.55" ffdec:has-small-stroke="true" ffdec:original-stroke-width="0.05" fill="none" stroke="#5e2300" stroke-linecap="round" stroke-linejoin="round" stroke-opacity="0.4117647" stroke-width="0.3467402004631466"/>
      <path d="M12.4 -100.4 Q11.7 -97.8 10.25 -97.8 8.75 -97.8 7.35 -100.4 6.0 -103.05 5.5 -106.75 5.0 -110.45 5.7 -113.1 6.4 -115.75 7.85 -115.7 9.3 -115.75 10.7 -113.1 12.1 -110.45 12.6 -106.75 13.05 -103.05 12.4 -100.4" fill="url(#gradient11)" fill-rule="evenodd" stroke="none"/>
      <path d="M35.05 -135.35 Q37.05 -133.3 37.65 -131.85 38.2 -130.4 37.0 -130.4 35.8 -130.4 33.55 -131.85 31.25 -133.3 29.25 -135.35 27.25 -137.4 26.7 -138.85 26.1 -140.3 27.35 -140.3 28.5 -140.3 30.8 -138.85 33.05 -137.4 35.05 -135.35" fill="url(#gradient12)" fill-rule="evenodd" stroke="none"/>
      <path d="M31.5 -123.8 Q33.0 -121.4 33.1 -119.65 33.25 -117.95 31.95 -117.9 30.65 -117.95 28.7 -119.65 26.75 -121.4 25.3 -123.8 23.8 -126.3 23.7 -128.0 23.55 -129.75 24.85 -129.75 26.15 -129.75 28.1 -128.0 30.05 -126.3 31.5 -123.8" fill="url(#gradient13)" fill-rule="evenodd" stroke="none"/>
      <path d="M-37.0 -109.15 L-37.65 -107.4 Q-38.7 -107.7 -39.3 -112.25 -41.95 -116.25 -42.95 -123.2 L-41.6 -121.8 Q-41.25 -117.15 -38.95 -114.45 -38.4 -110.55 -37.0 -109.15" fill="#a55701" fill-rule="evenodd" stroke="none"/>
      <path d="M-41.6 -121.8 Q-40.55 -119.6 -38.75 -118.75 -37.0 -114.65 -34.9 -114.65 L-37.0 -109.15 Q-38.4 -110.55 -38.95 -114.45 -41.25 -117.15 -41.6 -121.8" fill="#5f371f" fill-rule="evenodd" stroke="none"/>
      <path d="M-37.0 -109.15 L-37.65 -107.4 Q-38.7 -107.7 -39.3 -112.25 -41.95 -116.25 -42.95 -123.2 L-41.6 -121.8 Q-40.55 -119.6 -38.75 -118.75 -37.0 -114.65 -34.9 -114.65 L-37.0 -109.15 Q-38.4 -110.55 -38.95 -114.45 -41.25 -117.15 -41.6 -121.8" ffdec:has-small-stroke="true" ffdec:original-stroke-width="0.05" fill="none" stroke="#5e2300" stroke-linecap="round" stroke-linejoin="round" stroke-opacity="0.4117647" stroke-width="0.3467402004631466"/>
      <path d="M3.75 -114.4 L7.6 -115.75 Q4.65 -106.7 -2.9 -102.45 -4.65 -96.45 -7.6 -96.45 L-9.45 -99.1 Q-7.75 -99.7 -6.45 -100.95 L-6.4 -101.0 -3.95 -105.5 -3.55 -105.65 Q2.65 -108.4 3.75 -114.4" fill="#a55701" fill-rule="evenodd" stroke="none"/>
      <path d="M-3.55 -105.65 L-3.95 -105.5 -6.4 -101.0 -6.45 -100.95 -7.9 -101.25 -8.2 -107.95 Q-5.55 -109.2 -3.75 -106.45 L-3.55 -105.65" fill="#ffff99" fill-rule="evenodd" stroke="none"/>
      <path d="M3.75 -114.4 Q2.65 -108.4 -3.55 -105.65 L-3.75 -106.45 Q-5.55 -109.2 -8.2 -107.95 L-7.9 -101.25 -6.45 -100.95 Q-7.75 -99.7 -9.45 -99.1 L-15.5 -107.55 Q-9.5 -106.7 -4.5 -111.5 0.7 -111.9 3.75 -114.4" fill="url(#gradient14)" fill-rule="evenodd" stroke="none"/>
      <path d="M-9.45 -99.1 L-7.6 -96.45 Q-4.65 -96.45 -2.9 -102.45 4.65 -106.7 7.6 -115.75 L3.75 -114.4 Q2.65 -108.4 -3.55 -105.65 M-3.95 -105.5 L-6.4 -101.0 -6.45 -100.95 Q-7.75 -99.7 -9.45 -99.1 L-15.5 -107.55 Q-9.5 -106.7 -4.5 -111.5 0.7 -111.9 3.75 -114.4" ffdec:has-small-stroke="true" ffdec:original-stroke-width="0.05" fill="none" stroke="#5e2300" stroke-linecap="round" stroke-linejoin="round" stroke-opacity="0.4117647" stroke-width="0.3467402004631466"/>
      <path d="M-6.95 -107.35 L-6.5 -107.05 Q-6.2 -106.7 -6.2 -106.25 L-6.3 -105.8 -6.5 -105.5 Q-6.85 -105.15 -7.3 -105.15 -7.7 -105.15 -8.05 -105.5 -8.4 -105.85 -8.4 -106.25 L-8.05 -107.05 -7.3 -107.4 -6.95 -107.35" fill="#ffffff" fill-rule="evenodd" stroke="none"/>
      <path d="M-6.3 -105.8 L-6.2 -104.6 Q-6.2 -103.2 -6.75 -102.25 -7.3 -101.25 -8.05 -101.25 -8.85 -101.25 -9.4 -102.25 -9.95 -103.2 -9.95 -104.6 -9.95 -106.0 -9.4 -106.95 -8.85 -107.95 -8.05 -107.95 -7.45 -107.95 -6.95 -107.35 L-7.3 -107.4 -8.05 -107.05 -8.4 -106.25 Q-8.4 -105.85 -8.05 -105.5 -7.7 -105.15 -7.3 -105.15 -6.85 -105.15 -6.5 -105.5 L-6.3 -105.8" fill="#000000" fill-rule="evenodd" stroke="none"/>
      <path d="M5.7 -167.7 L6.1 -168.45 Q13.5 -169.15 13.65 -165.0 13.5 -163.8 12.55 -163.55 11.15 -163.25 8.15 -165.0 L5.7 -167.7" fill="#009900" fill-rule="evenodd" stroke="none"/>
      <path d="M12.55 -163.55 Q2.95 -156.95 -0.45 -146.45 -2.35 -143.6 -5.65 -146.1 -3.15 -158.2 5.7 -167.7 L8.15 -165.0 Q11.15 -163.25 12.55 -163.55" fill="#006600" fill-rule="evenodd" stroke="none"/>
      <path d="M5.7 -167.7 L6.1 -168.45 Q13.5 -169.15 13.65 -165.0 13.5 -163.8 12.55 -163.55 2.95 -156.95 -0.45 -146.45 -2.35 -143.6 -5.65 -146.1 -3.15 -158.2 5.7 -167.7 L8.15 -165.0 Q11.15 -163.25 12.55 -163.55" ffdec:has-small-stroke="true" ffdec:original-stroke-width="0.05" fill="none" stroke="#754e33" stroke-linecap="round" stroke-linejoin="round" stroke-width="0.3467402004631466"/>
      <path d="M-21.3 -74.6 Q-22.6 -73.45 -24.25 -72.65 -35.85 -73.25 -37.1 -91.15 -37.4 -95.85 -35.85 -98.4 -36.85 -89.4 -34.1 -82.65 -30.3 -73.5 -23.8 -74.35 L-21.3 -74.6" fill="#a55701" fill-rule="evenodd" stroke="none"/>
      <path d="M-26.9 -84.3 Q-25.75 -83.7 -24.55 -83.25 -22.3 -82.45 -19.95 -82.25 -22.95 -77.2 -26.9 -78.45 -30.85 -81.4 -26.9 -84.3 M-26.5 -81.6 L-24.55 -83.25 -26.5 -81.6" fill="#ff9999" fill-rule="evenodd" stroke="none"/>
      <path d="M-17.05 -82.3 Q-17.95 -77.45 -21.3 -74.6 L-23.8 -74.35 Q-30.3 -73.5 -34.1 -82.65 -36.85 -89.4 -35.85 -98.4 -33.75 -101.85 -30.15 -101.5 -30.5 -97.55 -34.0 -94.65 -35.65 -92.45 -32.25 -88.3 -29.65 -85.8 -26.9 -84.3 -30.85 -81.4 -26.9 -78.45 -22.95 -77.2 -19.95 -82.25 L-17.05 -82.3" fill="#5f371f" fill-rule="evenodd" stroke="none"/>
      <path d="M-18.7 -97.05 Q-17.4 -95.35 -16.8 -93.1 -15.95 -89.85 -16.7 -85.4 -27.6 -87.5 -31.45 -91.75 -34.35 -94.2 -29.2 -96.55 -27.6 -98.55 -29.2 -101.35 -27.5 -101.05 -25.55 -99.95 -22.0 -101.3 -18.7 -97.05" fill="url(#gradient15)" fill-rule="evenodd" stroke="none"/>
      <path d="M-16.7 -85.4 Q-16.75 -83.75 -17.05 -82.3 L-19.95 -82.25 Q-22.3 -82.45 -24.55 -83.25 -25.75 -83.7 -26.9 -84.3 -29.65 -85.8 -32.25 -88.3 -35.65 -92.45 -34.0 -94.65 -30.5 -97.55 -30.15 -101.5 L-29.2 -101.35 Q-27.6 -98.55 -29.2 -96.55 -34.35 -94.2 -31.45 -91.75 -27.6 -87.5 -16.7 -85.4" fill="url(#gradient16)" fill-rule="evenodd" stroke="none"/>
      <path d="M-37.1 -91.15 Q-37.4 -95.85 -35.85 -98.4 -33.75 -101.85 -30.15 -101.5 L-29.2 -101.35 Q-27.5 -101.05 -25.55 -99.95 -22.0 -101.3 -18.7 -97.05" ffdec:has-small-stroke="true" ffdec:original-stroke-width="0.05" fill="none" stroke="#633a12" stroke-linecap="round" stroke-linejoin="round" stroke-opacity="0.49803922" stroke-width="0.3467402004631466"/>
      <path d="M-18.7 -97.05 Q-17.4 -95.35 -16.8 -93.1 -15.95 -89.85 -16.7 -85.4 -16.75 -83.75 -17.05 -82.3 -17.95 -77.45 -21.3 -74.6 -22.6 -73.45 -24.25 -72.65 -35.85 -73.25 -37.1 -91.15 M-30.15 -101.5 Q-30.5 -97.55 -34.0 -94.65 -35.65 -92.45 -32.25 -88.3 -29.65 -85.8 -26.9 -84.3 -25.75 -83.7 -24.55 -83.25 -22.3 -82.45 -19.95 -82.25 L-17.05 -82.3 M-24.55 -83.25 L-26.5 -81.6 M-26.9 -84.3 Q-30.85 -81.4 -26.9 -78.45 -22.95 -77.2 -19.95 -82.25 M-21.3 -74.6 L-23.8 -74.35 Q-30.3 -73.5 -34.1 -82.65 -36.85 -89.4 -35.85 -98.4" ffdec:has-small-stroke="true" ffdec:original-stroke-width="0.05" fill="none" stroke="#633a12" stroke-linecap="round" stroke-linejoin="round" stroke-opacity="0.49803922" stroke-width="0.3467402004631466"/>
      <path d="M31.0 -114.65 L36.4 -113.7 34.5 -112.55 34.6 -112.45 33.65 -110.95 36.95 -107.6 34.8 -108.5 33.55 -107.35 31.9 -103.3 30.65 -108.55 28.75 -108.2 31.0 -114.65" fill="#5f371f" fill-rule="evenodd" stroke="none"/>
      <path d="M31.0 -114.65 L31.35 -115.75 38.3 -114.85 36.4 -113.7 31.0 -114.65 M34.6 -112.45 L38.3 -107.05 36.95 -107.6 33.65 -110.95 34.6 -112.45 M34.8 -108.5 L32.2 -101.85 31.9 -103.3 33.55 -107.35 34.8 -108.5" fill="#a55701" fill-rule="evenodd" stroke="none"/>
      <path d="M36.4 -113.7 L38.3 -114.85 31.35 -115.75 31.0 -114.65 36.4 -113.7 34.5 -112.55 34.6 -112.45 38.3 -107.05 36.95 -107.6 34.8 -108.5 32.2 -101.85 31.9 -103.3 30.65 -108.55 28.75 -108.2 31.0 -114.65 M34.6 -112.45 L33.65 -110.95 36.95 -107.6 M34.8 -108.5 L33.55 -107.35 31.9 -103.3" ffdec:has-small-stroke="true" ffdec:original-stroke-width="0.05" fill="none" stroke="#000000" stroke-linecap="round" stroke-linejoin="round" stroke-opacity="0.43137255" stroke-width="0.3467402004631466"/>
      <path d="M58.85 -119.1 L58.8 -119.1 58.85 -119.25 58.85 -119.1" fill="#ffcc00" fill-rule="evenodd" stroke="none"/>
      <path d="M58.85 -119.25 L58.8 -119.1 Q55.5 -120.35 48.9 -117.85 45.0 -116.35 41.55 -112.95 L43.5 -116.95 Q36.8 -113.45 32.15 -108.6 L31.05 -109.05 Q37.95 -116.3 48.3 -120.8 58.6 -125.3 58.85 -119.25" fill="#ffdc51" fill-rule="evenodd" stroke="none"/>
      <path d="M58.8 -119.1 L58.85 -119.1 Q58.95 -113.15 47.6 -109.05 38.8 -105.95 32.15 -108.6 36.8 -113.45 43.5 -116.95 L41.55 -112.95 Q45.0 -116.35 48.9 -117.85 55.5 -120.35 58.8 -119.1" fill="url(#gradient17)" fill-rule="evenodd" stroke="none"/>
      <path d="M58.85 -119.1 L58.85 -119.25 Q58.6 -125.3 48.3 -120.8 37.95 -116.3 31.05 -109.05 L32.15 -108.6 Q38.8 -105.95 47.6 -109.05 58.95 -113.15 58.85 -119.1 Z" ffdec:has-small-stroke="true" ffdec:original-stroke-width="0.05" fill="none" stroke="#000000" stroke-linecap="round" stroke-linejoin="round" stroke-opacity="0.43137255" stroke-width="0.3467402004631466"/>
      <path d="M-8.7 -63.2 L-6.85 -63.0 Q-7.45 -61.1 -7.3 -58.95 L-7.85 -60.1 -7.3 -58.95 -8.55 -57.6 -8.4 -58.15 -7.85 -60.1 -7.6 -61.0 -8.65 -62.55 -8.7 -63.2 M-16.05 -45.0 Q-18.0 -47.75 -21.0 -50.2 L-21.35 -51.25 -22.9 -54.5 -24.45 -57.05 -26.15 -59.3 Q-24.5 -58.8 -23.75 -60.1 L-22.8 -58.45 Q-21.45 -57.65 -20.95 -55.25 -21.6 -54.4 -22.9 -54.5 -21.6 -54.4 -20.95 -55.25 -19.6 -54.25 -19.4 -52.55 L-18.7 -51.3 -18.4 -52.8 -18.4 -55.35 -18.4 -58.6 -18.4 -58.9 Q-18.6 -60.55 -19.3 -62.15 L-20.8 -65.0 -20.7 -65.1 Q-19.45 -63.7 -18.0 -64.3 -17.15 -62.9 -17.05 -61.65 -18.05 -61.3 -19.3 -62.15 -18.05 -61.3 -17.05 -61.65 -15.75 -59.65 -15.8 -58.25 -15.0 -55.7 -15.55 -53.5 L-15.5 -51.45 -14.8 -52.4 -14.8 -53.8 -14.8 -56.2 -13.55 -56.9 Q-12.7 -57.85 -11.9 -57.8 L-11.5 -60.05 -10.75 -63.2 -10.55 -63.3 Q-11.25 -61.4 -8.85 -60.7 -8.65 -59.35 -9.4 -58.4 L-9.4 -56.85 -10.7 -54.8 Q-11.75 -55.15 -12.2 -56.2 L-13.05 -54.95 -13.55 -56.9 -13.05 -54.95 -12.2 -56.2 -11.9 -57.8 -12.2 -56.2 Q-11.75 -55.15 -10.7 -54.8 -11.15 -52.25 -12.35 -50.8 L-12.5 -50.55 Q-13.5 -46.85 -16.05 -45.0 M-9.4 -58.4 Q-10.7 -58.85 -11.5 -60.05 -10.7 -58.85 -9.4 -58.4 M-24.45 -57.05 Q-23.3 -57.35 -22.8 -58.45 -23.3 -57.35 -24.45 -57.05 M-21.35 -51.25 Q-20.2 -51.4 -19.4 -52.55 -20.2 -51.4 -21.35 -51.25 M-12.35 -50.8 Q-13.65 -51.45 -14.1 -53.35 L-13.05 -54.95 -14.1 -53.35 Q-13.65 -51.45 -12.35 -50.8 M-14.1 -53.35 L-14.8 -52.4 -14.1 -53.35 M-15.8 -58.25 Q-17.15 -57.95 -18.4 -58.9 -17.15 -57.95 -15.8 -58.25 M-15.55 -53.5 Q-17.0 -53.25 -18.4 -55.35 -17.0 -53.25 -15.55 -53.5" fill="#999900" fill-rule="evenodd" stroke="none"/>
      <path d="M-6.85 -63.0 L-6.45 -62.95 -5.65 -62.85 -5.75 -62.25 Q-6.4 -60.55 -6.75 -57.8 L-6.8 -57.6 Q-7.7 -57.0 -8.35 -55.5 L-10.4 -52.8 -11.5 -50.55 -14.0 -44.45 -14.3 -44.4 -15.3 -44.35 Q-15.55 -44.4 -15.8 -44.6 L-16.05 -45.0 Q-13.5 -46.85 -12.5 -50.55 L-12.35 -50.8 Q-11.15 -52.25 -10.7 -54.8 L-9.45 -54.65 -9.4 -54.8 -8.85 -56.6 -8.55 -57.6 -7.3 -58.95 Q-7.45 -61.1 -6.85 -63.0 M-26.15 -59.3 L-25.85 -60.45 -25.6 -59.85 Q-24.6 -59.95 -24.4 -61.25 L-24.95 -61.6 -24.2 -62.0 -22.4 -59.9 -20.45 -57.05 -18.8 -53.9 -18.4 -52.8 -18.7 -51.3 -19.4 -52.55 -18.8 -53.9 -19.4 -52.55 Q-19.6 -54.25 -20.95 -55.25 -21.45 -57.65 -22.8 -58.45 L-23.75 -60.1 Q-24.5 -58.8 -26.15 -59.3 M-20.7 -65.1 L-20.0 -65.85 -20.0 -65.45 -18.4 -65.4 -18.85 -66.2 -18.2 -66.2 -16.2 -62.25 -15.05 -58.55 -14.8 -57.2 -14.8 -56.2 -14.8 -53.8 -14.8 -52.4 -15.5 -51.45 -15.55 -53.5 -14.8 -53.8 -15.55 -53.5 Q-15.0 -55.7 -15.8 -58.25 L-15.05 -58.55 -15.8 -58.25 Q-15.75 -59.65 -17.05 -61.65 -17.15 -62.9 -18.0 -64.3 -19.45 -63.7 -20.7 -65.1 M-10.55 -63.3 L-9.8 -63.25 -9.95 -62.95 Q-9.55 -61.65 -8.55 -61.7 L-8.65 -62.55 -7.6 -61.0 -7.85 -60.1 -8.4 -58.15 -8.55 -57.6 -8.85 -56.6 -9.4 -54.8 -9.45 -54.65 -10.7 -54.8 -9.4 -56.85 -9.4 -58.4 Q-8.65 -59.35 -8.85 -60.7 -11.25 -61.4 -10.55 -63.3 M-6.75 -57.8 L-7.3 -58.95 -6.75 -57.8 M-8.4 -58.15 L-9.4 -58.4 -8.4 -58.15 M-8.85 -56.6 L-8.35 -55.5 -8.85 -56.6 M-22.4 -59.9 L-22.8 -58.45 -22.4 -59.9 M-20.45 -57.05 Q-20.5 -55.9 -20.95 -55.25 -20.5 -55.9 -20.45 -57.05 M-10.4 -52.8 L-9.45 -54.65 -10.4 -52.8 M-11.5 -50.55 L-12.35 -50.8 -11.5 -50.55 M-16.2 -62.25 Q-16.6 -61.85 -17.05 -61.65 -16.6 -61.85 -16.2 -62.25 M-5.75 -62.25 L-6.45 -62.95 -5.75 -62.25" fill="#c4c400" fill-rule="evenodd" stroke="none"/>
      <path d="M-9.8 -63.25 L-8.9 -65.2 -8.75 -63.85 -8.7 -63.2 -8.65 -62.55 -8.55 -61.7 Q-9.55 -61.65 -9.95 -62.95 L-9.8 -63.25 M-14.3 -44.4 L-14.85 -42.4 -15.3 -44.35 -14.3 -44.4 M-25.85 -60.45 L-26.9 -62.8 -24.95 -61.6 -24.4 -61.25 Q-24.6 -59.95 -25.6 -59.85 L-25.85 -60.45 M-20.0 -65.85 L-20.0 -68.35 -18.85 -66.2 -18.4 -65.4 -20.0 -65.45 -20.0 -65.85" fill="#000000" fill-rule="evenodd" stroke="none"/>
      <path d="M-9.8 -63.25 L-8.9 -65.2 -8.75 -63.85 M-5.65 -62.85 L-5.75 -62.25 Q-6.4 -60.55 -6.75 -57.8 L-6.8 -57.6 Q-7.7 -57.0 -8.35 -55.5 L-10.4 -52.8 -11.5 -50.55 -14.0 -44.45 -14.3 -44.4 -14.85 -42.4 -15.3 -44.35 Q-15.55 -44.4 -15.8 -44.6 L-16.05 -45.0 Q-18.0 -47.75 -21.0 -50.2 L-21.35 -51.25 -22.9 -54.5 -24.45 -57.05 -26.15 -59.3 -25.85 -60.45 -26.9 -62.8 -24.95 -61.6 -24.2 -62.0 -22.4 -59.9 -20.45 -57.05 -18.8 -53.9 -18.4 -52.8 -18.4 -55.35 -18.4 -58.6 -18.4 -58.9 Q-18.6 -60.55 -19.3 -62.15 L-20.8 -65.0 -20.7 -65.1 -20.0 -65.85 -20.0 -68.35 -18.85 -66.2 -18.2 -66.2 -16.2 -62.25 -15.05 -58.55 -14.8 -57.2 -14.8 -56.2 -13.55 -56.9 Q-12.7 -57.85 -11.9 -57.8 L-11.5 -60.05 -10.75 -63.2 -10.55 -63.3 -9.8 -63.25 -9.95 -62.95 Q-9.55 -61.65 -8.55 -61.7 L-8.65 -62.55 -8.7 -63.2 M-8.65 -62.55 L-7.6 -61.0 -7.85 -60.1 -7.3 -58.95 -6.75 -57.8 M-15.8 -58.25 L-15.05 -58.55 M-13.55 -56.9 L-13.05 -54.95 -12.2 -56.2 -11.9 -57.8 M-7.85 -60.1 L-8.4 -58.15 -8.55 -57.6 -8.85 -56.6 -9.4 -54.8 -9.45 -54.65 -10.4 -52.8 M-11.5 -60.05 Q-10.7 -58.85 -9.4 -58.4 L-8.4 -58.15 M-10.7 -54.8 L-9.45 -54.65 M-10.7 -54.8 Q-11.75 -55.15 -12.2 -56.2 M-8.35 -55.5 L-8.85 -56.6 M-18.85 -66.2 L-18.4 -65.4 -20.0 -65.45 -20.0 -65.85 M-19.3 -62.15 Q-18.05 -61.3 -17.05 -61.65 -16.6 -61.85 -16.2 -62.25 M-25.85 -60.45 L-25.6 -59.85 Q-24.6 -59.95 -24.4 -61.25 L-24.95 -61.6 M-22.8 -58.45 L-22.4 -59.9 M-20.95 -55.25 Q-20.5 -55.9 -20.45 -57.05 M-22.8 -58.45 Q-23.3 -57.35 -24.45 -57.05 M-18.8 -53.9 L-19.4 -52.55 Q-20.2 -51.4 -21.35 -51.25 M-14.8 -52.4 L-14.8 -53.8 -15.55 -53.5 Q-17.0 -53.25 -18.4 -55.35 M-13.05 -54.95 L-14.1 -53.35 Q-13.65 -51.45 -12.35 -50.8 L-11.5 -50.55 M-14.8 -52.4 L-14.1 -53.35 M-14.3 -44.4 L-15.3 -44.35 M-14.8 -53.8 L-14.8 -56.2 M-20.95 -55.25 Q-21.6 -54.4 -22.9 -54.5 M-18.4 -58.9 Q-17.15 -57.95 -15.8 -58.25 M-6.45 -62.95 L-5.75 -62.25" ffdec:has-small-stroke="true" ffdec:original-stroke-width="0.05" fill="none" stroke="#000000" stroke-linecap="round" stroke-linejoin="round" stroke-opacity="0.43137255" stroke-width="0.3467402004631466"/>
    </g>
    <linearGradient gradientTransform="matrix(0.0101, 0.0, 0.0, 0.0095, -40.5, -132.05)" gradientUnits="userSpaceOnUse" id="gradient1" spreadMethod="pad" x1="-819.2" x2="819.2">
      <stop offset="0.0" stop-color="#ffcc00"/>
      <stop offset="1.0" stop-color="#fd9802"/>
    </linearGradient>
    <linearGradient gradientTransform="matrix(0.0207, 0.0, 0.0, 0.0421, -0.95, -104.4)" gradientUnits="userSpaceOnUse" id="gradient2" spreadMethod="pad" x1="-819.2" x2="819.2">
      <stop offset="0.0" stop-color="#ff9900"/>
      <stop offset="1.0" stop-color="#f7ae09"/>
    </linearGradient>
    <linearGradient gradientTransform="matrix(0.0193, 0.0, 0.0, 0.0409, 23.65, -108.05)" gradientUnits="userSpaceOnUse" id="gradient3" spreadMethod="pad" x1="-819.2" x2="819.2">
      <stop offset="0.0" stop-color="#ff9900"/>
      <stop offset="1.0" stop-color="#f7ae09"/>
    </linearGradient>
    <linearGradient gradientTransform="matrix(0.0199, 0.0, 0.0, 0.0325, 31.1, -120.25)" gradientUnits="userSpaceOnUse" id="gradient4" spreadMethod="pad" x1="-819.2" x2="819.2">
      <stop offset="0.0" stop-color="#ff9900"/>
      <stop offset="1.0" stop-color="#f7ae09"/>
    </linearGradient>
    <linearGradient gradientTransform="matrix(0.0138, 0.0, 0.0, 0.036, -24.25, -110.9)" gradientUnits="userSpaceOnUse" id="gradient5" spreadMethod="pad" x1="-819.2" x2="819.2">
      <stop offset="0.0" stop-color="#ff9900"/>
      <stop offset="1.0" stop-color="#f7ae09"/>
    </linearGradient>
    <linearGradient gradientTransform="matrix(0.0119, 0.0, 0.0, 0.0113, -29.8, -136.55)" gradientUnits="userSpaceOnUse" id="gradient6" spreadMethod="pad" x1="-819.2" x2="819.2">
      <stop offset="0.0" stop-color="#ff9900"/>
      <stop offset="1.0" stop-color="#f7ae09"/>
    </linearGradient>
    <linearGradient gradientTransform="matrix(0.0211, 0.0, 0.0, 0.011, 0.25, -143.3)" gradientUnits="userSpaceOnUse" id="gradient7" spreadMethod="pad" x1="-819.2" x2="819.2">
      <stop offset="0.0" stop-color="#ff9900"/>
      <stop offset="1.0" stop-color="#f7ae09"/>
    </linearGradient>
    <linearGradient gradientTransform="matrix(0.0101, 0.0, 0.0, 0.0032, 14.25, -149.75)" gradientUnits="userSpaceOnUse" id="gradient8" spreadMethod="pad" x1="-819.2" x2="819.2">
      <stop offset="0.0" stop-color="#ff9900"/>
      <stop offset="1.0" stop-color="#f7ae09"/>
    </linearGradient>
    <linearGradient gradientTransform="matrix(0.01, 0.0, 0.0, 0.0023, -0.6, -152.6)" gradientUnits="userSpaceOnUse" id="gradient9" spreadMethod="pad" x1="-819.2" x2="819.2">
      <stop offset="0.0" stop-color="#ff9900"/>
      <stop offset="1.0" stop-color="#f7ae09"/>
    </linearGradient>
    <linearGradient gradientTransform="matrix(0.0092, 0.0, 0.0, 0.003, -17.0, -150.5)" gradientUnits="userSpaceOnUse" id="gradient10" spreadMethod="pad" x1="-819.2" x2="819.2">
      <stop offset="0.0" stop-color="#ff9900"/>
      <stop offset="1.0" stop-color="#f7ae09"/>
    </linearGradient>
    <linearGradient gradientTransform="matrix(0.0046, 0.0, 0.0, 0.0109, 9.05, -106.75)" gradientUnits="userSpaceOnUse" id="gradient11" spreadMethod="pad" x1="-819.2" x2="819.2">
      <stop offset="0.0" stop-color="#fed678"/>
      <stop offset="1.0" stop-color="#f7ae09"/>
    </linearGradient>
    <linearGradient gradientTransform="matrix(0.0069, 0.0, 0.0, 0.006, 32.15, -135.35)" gradientUnits="userSpaceOnUse" id="gradient12" spreadMethod="pad" x1="-819.2" x2="819.2">
      <stop offset="0.0" stop-color="#fed678"/>
      <stop offset="1.0" stop-color="#f7ae09"/>
    </linearGradient>
    <linearGradient gradientTransform="matrix(0.0057, 0.0, 0.0, 0.0072, 28.4, -123.85)" gradientUnits="userSpaceOnUse" id="gradient13" spreadMethod="pad" x1="-819.2" x2="819.2">
      <stop offset="0.0" stop-color="#fed678"/>
      <stop offset="1.0" stop-color="#f7ae09"/>
    </linearGradient>
    <linearGradient gradientTransform="matrix(-0.0077, 0.0044, -0.0032, -0.0055, -5.35, -107.35)" gradientUnits="userSpaceOnUse" id="gradient14" spreadMethod="pad" x1="-819.2" x2="819.2">
      <stop offset="0.0" stop-color="#b96f00"/>
      <stop offset="1.0" stop-color="#f49302"/>
    </linearGradient>
    <linearGradient gradientTransform="matrix(0.0028, 0.0048, -0.0074, 0.0043, -24.65, -93.5)" gradientUnits="userSpaceOnUse" id="gradient15" spreadMethod="pad" x1="-819.2" x2="819.2">
      <stop offset="0.0" stop-color="#d88201"/>
      <stop offset="1.0" stop-color="#f49302"/>
    </linearGradient>
    <linearGradient gradientTransform="matrix(0.0109, 0.0, 0.0, 0.0117, -25.65, -91.9)" gradientUnits="userSpaceOnUse" id="gradient16" spreadMethod="pad" x1="-819.2" x2="819.2">
      <stop offset="0.0" stop-color="#ffcc00"/>
      <stop offset="1.0" stop-color="#fd9802"/>
    </linearGradient>
    <linearGradient gradientTransform="matrix(0.0163, 0.0, 0.0, 0.0074, 45.5, -113.45)" gradientUnits="userSpaceOnUse" id="gradient17" spreadMethod="pad" x1="-819.2" x2="819.2">
      <stop offset="0.0" stop-color="#ffcc00"/>
      <stop offset="1.0" stop-color="#fd9802"/>
    </linearGradient>
    <g id="sprite3">
      <use ffdec:characterId="10" height="45.0" transform="matrix(1.0, 0.0, 0.0, 1.0, 0.0, 0.0)" width="102.95" xlink:href="#shape4"/>
    </g>
    <g id="shape4">
      <path d="M0.0 0.0 L102.95 0.0 102.95 45.0 0.0 45.0 0.0 0.0" fill="#ff00ff" fill-opacity="0.0" fill-rule="evenodd" stroke="none"/>
    </g>
  </defs>
</svg>
