<?xml version="1.0" encoding="UTF-8" standalone="no"?>
<svg xmlns:ffdec="https://www.free-decompiler.com/flash" xmlns:xlink="http://www.w3.org/1999/xlink" ffdec:objectType="frame" height="400.0px" width="550.0px" xmlns="http://www.w3.org/2000/svg">
  <g transform="matrix(1.0, 0.0, 0.0, 1.0, 0.0, 0.0)">
    <use ffdec:characterId="1" height="381.0" transform="matrix(1.8329, 0.0, 0.0, 1.8353, 276.95, 369.95)" width="381.0" xlink:href="#shape0"/>
    <use ffdec:characterId="7" height="144.5" transform="matrix(2.6073, 0.0, 0.0, 2.6107, 271.5, 195.15)" width="143.0" xlink:href="#sprite0"/>
    <use ffdec:characterId="9" height="45.0" id="_mcMask" transform="matrix(3.3124, 0.0, 0.0, 3.0352, 100.9, 137.05)" width="102.95" xlink:href="#sprite4"/>
  </g>
  <defs>
    <g id="shape0">
      <path d="M187.95 -293.5 L187.95 86.5 -192.0 86.5 -192.05 86.5 -192.05 -293.5 187.95 -293.5 -2.05 -103.5 187.95 86.5 M-192.0 86.5 L-2.05 -103.5 -192.05 -293.5 M92.95 0.6 L-97.0 0.6" fill="none" stroke="#ff00ff" stroke-linecap="round" stroke-linejoin="round" stroke-opacity="0.0" stroke-width="1.0"/>
    </g>
    <g id="sprite0">
      <use ffdec:characterId="4" height="30.0" transform="matrix(1.0, 0.0, 0.0, 1.1927, 13.35, 52.75)" width="106.5" xlink:href="#sprite1"/>
      <use ffdec:characterId="5" height="143.5" transform="matrix(1.0, 0.0, 0.0, 1.0, 0.0, 0.0)" width="142.0" xlink:href="#shape2"/>
      <use ffdec:characterId="3" height="22.2" transform="matrix(0.2523, 0.0, 0.0, 0.2523, -7.65, -9.35)" width="22.2" xlink:href="#sprite3"/>
      <use ffdec:characterId="6" height="144.5" transform="matrix(1.0, 0.0, 0.0, 1.0, 0.0, 0.0)" width="143.0" xlink:href="#shape4"/>
    </g>
    <g id="sprite1">
      <use ffdec:characterId="3" height="22.2" transform="matrix(4.8014, 0.0, 0.0, 1.3538, 0.0, 0.0)" width="22.2" xlink:href="#sprite2"/>
    </g>
    <g id="sprite2">
      <use ffdec:characterId="2" height="22.2" transform="matrix(1.0, 0.0, 0.0, 1.0, 0.0, 0.0)" width="22.2" xlink:href="#shape1"/>
    </g>
    <g id="shape1">
      <path d="M7.85 -7.85 Q11.1 -4.6 11.1 0.0 11.1 4.6 7.85 7.85 4.6 11.1 0.0 11.1 -4.6 11.1 -7.85 7.85 -11.1 4.6 -11.1 0.0 -11.1 -4.6 -7.85 -7.85 -4.6 -11.1 0.0 -11.1 4.6 -11.1 7.85 -7.85" fill="url(#gradient0)" fill-rule="evenodd" stroke="none"/>
    </g>
    <radialGradient cx="0" cy="0" gradientTransform="matrix(0.0137, 0.0, 0.0, 0.0137, 0.0, 0.0)" gradientUnits="userSpaceOnUse" id="gradient0" r="819.2" spreadMethod="pad">
      <stop offset="0.0" stop-color="#000000" stop-opacity="0.61960787"/>
      <stop offset="1.0" stop-color="#000000" stop-opacity="0.0"/>
    </radialGradient>
    <g id="shape2">
      <path d="M52.5 -59.8 L53.0 -57.45 Q53.25 -55.6 54.7 -56.4 L52.5 -45.35 52.5 -59.8 M64.35 50.15 L61.9 50.45 60.15 45.3 60.15 51.1 48.05 50.65 49.0 44.65 Q56.3 45.8 63.05 43.05 L64.35 50.15 M31.3 70.35 Q20.95 73.6 9.85 69.4 L10.9 61.4 Q21.85 64.7 31.15 61.4 L31.3 70.35 M-28.25 70.1 L-35.95 69.25 -36.25 68.25 -37.1 65.3 -38.65 68.85 Q-42.5 68.8 -46.3 66.8 L-45.3 59.45 Q-35.1 62.75 -25.2 62.0 L-28.25 70.1 M-70.05 -27.05 L-70.0 -27.65 Q-67.8 -41.9 -61.3 -50.6 L-59.75 -52.4 Q-57.65 -52.85 -62.15 -41.2 -64.7 -31.15 -59.9 -27.15 -57.65 -25.55 -55.95 -26.2 L-57.25 -21.7 -57.95 -18.35 Q-58.75 -13.9 -58.55 -9.95 -66.95 -10.65 -69.6 -17.6 -70.65 -22.15 -70.05 -27.05 M-57.95 -53.55 Q-57.25 -51.25 -56.55 -52.55 L-59.85 -37.35 -57.95 -53.55 M-56.1 -36.25 Q-56.7 -33.45 -54.95 -34.8 L-59.35 -28.55 -56.1 -36.25 M36.5 -39.7 Q38.4 -39.15 39.7 -40.05 L39.75 -40.0 33.85 -36.6 36.5 -39.7 M22.05 -29.1 L16.05 -35.8 17.7 -36.05 Q23.05 -29.6 28.35 -27.5 38.55 -26.85 47.2 -29.6 52.0 -30.25 54.95 -35.75 L58.55 -42.55 Q62.3 -23.7 55.25 -18.45 40.35 -11.7 23.2 -11.6 L23.05 -15.25 20.1 -14.7 19.35 -24.2 22.05 -29.1" fill="#54561e" fill-rule="evenodd" stroke="none"/>
      <path d="M39.7 -40.05 Q41.0 -40.95 41.8 -41.2 50.25 -46.2 49.45 -54.75 48.7 -63.05 52.5 -59.8 L52.5 -45.35 54.7 -56.4 Q62.95 -40.7 60.35 -25.45 59.35 -19.8 56.1 -16.85 L56.05 -16.8 55.95 -16.8 54.7 -16.35 51.15 -15.1 Q41.75 -11.9 34.45 -10.9 L29.55 -10.4 26.75 -10.2 24.95 -10.2 23.15 -10.2 23.2 -11.6 Q40.35 -11.7 55.25 -18.45 62.3 -23.7 58.55 -42.55 L54.95 -35.75 Q52.0 -30.25 47.2 -29.6 38.55 -26.85 28.35 -27.5 23.05 -29.6 17.7 -36.05 L20.25 -36.4 21.55 -36.6 24.45 -37.1 28.4 -37.85 34.3 -39.15 36.5 -39.7 33.85 -36.6 39.75 -40.0 39.7 -40.05 M69.35 39.5 Q70.45 43.05 71.0 46.85 68.15 49.35 64.35 50.15 L63.05 43.05 Q66.25 41.7 69.35 39.5 M48.05 50.65 L47.25 50.45 Q47.95 47.55 48.05 44.45 L49.0 44.65 48.05 50.65 M40.7 55.95 Q42.15 60.2 43.05 64.6 42.1 67.3 37.1 67.7 L35.5 63.7 34.6 67.5 34.2 69.25 31.3 70.35 31.15 61.4 Q36.15 59.6 40.7 55.95 M9.85 69.4 L8.45 68.85 Q9.25 65.05 9.5 60.95 L10.9 61.4 9.85 69.4 M-16.6 60.6 L-16.6 67.7 Q-22.25 70.0 -28.25 70.1 L-25.2 62.0 -16.6 60.6 M-46.3 66.8 Q-46.9 66.5 -47.5 66.15 L-46.25 58.95 Q-45.3 59.3 -45.3 59.45 L-46.3 66.8 M-58.35 -7.5 Q-69.05 -10.6 -71.0 -17.7 -70.75 -22.65 -70.05 -27.05 -70.65 -22.15 -69.6 -17.6 -66.95 -10.65 -58.55 -9.95 L-58.35 -7.5 M-59.75 -52.4 Q-58.2 -53.9 -57.95 -53.55 L-59.85 -37.35 -56.55 -52.55 -56.2 -51.8 Q-57.7 -39.95 -56.1 -36.25 L-59.35 -28.55 -54.95 -34.8 -51.9 -34.75 Q-54.35 -31.0 -55.95 -26.2 -57.65 -25.55 -59.9 -27.15 -64.7 -31.15 -62.15 -41.2 -57.65 -52.85 -59.75 -52.4" fill="#81842e" fill-rule="evenodd" stroke="none"/>
      <path d="M56.1 -16.8 Q61.75 -7.1 59.6 -0.6 61.85 2.7 63.35 5.65 64.9 15.0 59.6 17.95 L59.05 15.1 57.3 9.3 Q57.25 14.75 54.35 15.55 54.5 22.35 46.9 24.5 41.6 32.1 33.15 24.5 27.5 22.15 26.1 17.3 34.9 9.2 36.7 -3.75 L43.7 -5.2 Q51.95 -8.3 51.15 -15.1 L54.7 -16.35 55.95 -16.8 55.95 -16.75 56.1 -16.8 M64.0 27.85 Q67.45 33.25 69.35 39.5 66.25 41.7 63.05 43.05 62.6 38.4 58.5 32.85 62.25 32.8 64.0 27.85 M48.05 44.45 Q48.15 41.1 47.55 37.5 L48.05 37.05 49.05 44.25 49.0 44.65 48.05 44.45 M38.2 49.45 L40.7 55.95 Q36.15 59.6 31.15 61.4 31.35 56.95 28.4 51.5 31.6 50.75 32.65 47.8 L38.2 49.45 M9.5 60.95 Q9.85 55.35 9.05 49.15 L10.05 49.1 10.9 61.4 9.5 60.95 M-16.6 56.1 L-16.6 60.6 -25.2 62.0 -24.6 60.3 Q-20.0 60.4 -16.6 56.1 M-46.25 58.95 Q-44.65 51.65 -41.7 44.4 L-40.05 45.5 Q-43.85 50.75 -45.3 59.45 -45.3 59.3 -46.25 58.95 M-52.35 29.45 Q-53.85 24.3 -51.1 16.65 -50.5 21.0 -47.75 22.25 L-47.75 20.25 -46.3 21.8 Q-43.9 23.35 -42.55 25.1 -40.8 27.4 -40.8 30.0 L-42.25 34.3 Q-37.05 32.8 -31.9 33.1 L-30.0 33.3 Q-24.55 33.95 -19.2 36.7 L-16.55 38.2 -15.25 37.35 Q-11.1 34.75 -6.7 33.65 L-6.3 33.55 Q-2.5 32.6 1.45 32.7 L5.95 33.2 6.8 33.35 Q7.65 31.85 8.8 30.7 L8.9 30.55 Q12.1 27.25 17.3 26.1 L25.9 25.55 29.95 25.95 32.35 26.5 Q36.45 30.15 37.05 32.1 23.45 30.5 12.4 36.6 15.2 38.0 16.5 39.95 1.85 37.8 -10.75 42.05 L-7.95 43.95 Q-10.9 46.35 -14.9 45.95 -18.75 45.15 -19.8 43.8 L-31.65 36.2 Q-36.5 34.45 -40.85 36.2 L-43.4 37.0 Q-46.85 37.1 -47.1 33.4 -49.15 34.1 -52.35 29.45 M-2.15 -64.9 Q-11.15 -58.65 -14.4 -49.7 L-16.45 -50.0 Q-15.6 -53.95 -13.3 -57.4 L-9.5 -62.15 -4.4 -65.85 -2.15 -64.9 M15.0 -43.45 Q21.85 -45.4 29.45 -40.75 32.8 -41.1 34.3 -39.15 L28.4 -37.85 Q24.3 -41.0 19.8 -40.6 L16.7 -42.55 15.0 -43.45 M29.45 -40.75 L26.6 -40.15 29.45 -40.75 M45.15 5.7 Q46.7 9.25 44.1 11.85 47.4 14.7 47.0 16.65 51.75 11.8 45.15 5.7 M9.0 33.85 L6.8 33.35 9.0 33.85 M58.35 3.6 L59.6 -0.6 58.35 3.6 M-14.5 39.55 L-16.55 38.2 -14.5 39.55 M-43.35 34.6 L-42.25 34.3 -43.35 34.6" fill="#775c33" fill-rule="evenodd" stroke="none"/>
      <path d="M-24.05 -48.7 Q-21.45 -49.6 -19.2 -49.9 L-16.45 -50.0 -14.4 -49.7 -12.85 -49.15 -14.9 -47.1 Q-17.8 -49.45 -24.05 -48.7 M-10.45 -50.05 Q-7.35 -50.9 -4.6 -49.55 -3.0 -48.6 -1.55 -47.5 0.9 -47.6 3.25 -46.75 4.75 -46.25 6.15 -45.4 9.85 -46.0 15.0 -43.45 L16.7 -42.55 19.8 -40.6 24.45 -37.1 21.55 -36.6 Q16.65 -42.95 9.4 -43.0 L11.2 -41.2 16.05 -35.8 22.05 -29.1 20.55 -28.1 12.15 -38.55 11.9 -38.75 Q5.35 -43.95 0.75 -45.7 3.6 -43.3 5.75 -40.4 L5.8 -40.35 Q9.0 -36.1 10.85 -30.85 12.8 -25.25 13.15 -18.5 13.2 -5.3 9.7 6.3 14.1 -17.25 7.0 -35.45 -1.6 -47.15 -10.45 -50.05 M6.15 -45.4 L9.4 -43.0 6.15 -45.4" fill="#ffc53e" fill-rule="evenodd" stroke="none"/>
      <path d="M11.2 -41.2 L9.4 -43.0 Q16.65 -42.95 21.55 -36.6 L20.25 -36.4 11.2 -41.2" fill="#ffa41a" fill-rule="evenodd" stroke="none"/>
      <path d="M20.55 -28.1 L22.05 -29.1 19.35 -24.2 19.1 -27.1 20.55 -28.1 M16.05 -35.8 L11.2 -41.2 20.25 -36.4 17.7 -36.05 16.05 -35.8 M15.1 7.3 Q16.8 5.75 18.1 3.75 15.9 12.3 9.85 20.0 L7.0 18.8 13.65 8.5 13.65 8.45 15.1 7.3 M23.35 -4.9 L21.8 -2.65 Q22.55 -5.05 22.9 -7.65 L24.95 -10.2 26.75 -10.2 26.0 -8.9 23.35 -4.9 M23.05 -15.25 L20.35 -11.55 20.1 -14.7 23.05 -15.25 M-36.95 19.3 L-36.5 18.25 -34.45 13.65 -32.65 16.35 -34.25 19.3 -36.95 19.3 M-21.15 17.6 Q-16.75 12.7 -12.0 9.6 L-7.3 6.95 -7.4 7.6 Q-13.9 11.0 -17.45 15.85 L-17.5 15.9 -18.2 16.85 Q-21.3 18.9 -22.85 21.8 L-25.35 21.8 Q-24.05 18.5 -21.15 17.6 M-42.6 18.8 L-43.85 15.1 -40.75 16.8 -42.6 18.8 M-47.05 15.6 L-44.05 17.75 -45.35 18.8 -47.05 15.6" fill="#ad5701" fill-rule="evenodd" stroke="none"/>
      <path d="M63.35 5.65 Q69.9 18.6 62.3 25.4 L59.5 21.9 Q59.85 20.1 59.6 17.95 59.85 20.1 59.5 21.9 58.6 26.0 54.5 28.4 L54.25 29.1 54.2 29.15 Q51.3 33.95 48.05 37.05 L47.55 37.5 Q41.8 42.7 34.8 42.7 31.8 42.65 28.6 41.7 20.3 48.35 10.05 49.1 L9.05 49.15 Q3.4 49.4 -2.8 47.9 -10.15 51.4 -16.6 51.65 -23.6 51.85 -29.55 48.25 -35.95 47.95 -40.05 45.5 L-41.7 44.4 Q-45.4 41.5 -46.9 36.45 -51.15 33.85 -52.35 29.45 -49.15 34.1 -47.1 33.4 -46.85 37.1 -43.4 37.0 L-40.85 36.2 Q-36.5 34.45 -31.65 36.2 L-19.8 43.8 Q-18.75 45.15 -14.9 45.95 -10.9 46.35 -7.95 43.95 L-10.75 42.05 Q1.85 37.8 16.5 39.95 15.2 38.0 12.4 36.6 23.45 30.5 37.05 32.1 36.45 30.15 32.35 26.5 L29.95 25.95 25.9 25.55 Q23.25 22.9 21.9 20.1 20.25 16.75 20.35 13.25 26.9 8.25 31.5 -2.7 33.1 -6.45 34.45 -10.9 41.75 -11.9 51.15 -15.1 51.95 -8.3 43.7 -5.2 L36.7 -3.75 Q34.9 9.2 26.1 17.3 27.5 22.15 33.15 24.5 41.6 32.1 46.9 24.5 54.5 22.35 54.35 15.55 57.25 14.75 57.3 9.3 L59.05 15.1 59.6 17.95 Q64.9 15.0 63.35 5.65 M-51.1 16.65 L-50.3 14.5 Q-48.1 17.1 -45.35 18.8 L-44.05 17.75 -42.6 18.8 -40.75 16.8 -39.2 17.65 Q-43.05 20.05 -42.55 25.1 -43.9 23.35 -46.3 21.8 L-47.75 20.25 -47.75 22.25 Q-50.5 21.0 -51.1 16.65 M-19.2 -49.9 Q-16.25 -61.7 -8.55 -71.55 -8.75 -68.75 -5.85 -66.75 L-9.5 -62.15 -13.3 -57.4 Q-15.6 -53.95 -16.45 -50.0 L-19.2 -49.9 M24.45 -37.1 L19.8 -40.6 Q24.3 -41.0 28.4 -37.85 L24.45 -37.1 M45.15 5.7 Q51.75 11.8 47.0 16.65 47.4 14.7 44.1 11.85 46.7 9.25 45.15 5.7 M26.15 40.9 L28.6 41.7 26.15 40.9 M-34.0 44.85 Q-31.85 46.85 -29.55 48.25 -31.85 46.85 -34.0 44.85 M0.85 46.0 L-2.8 47.9 0.85 46.0" fill="#513f23" fill-rule="evenodd" stroke="none"/>
      <path d="M0.75 -45.7 Q5.35 -43.95 11.9 -38.75 L12.15 -38.55 20.55 -28.1 19.1 -27.1 19.35 -24.2 20.1 -14.7 20.35 -11.55 23.05 -15.25 23.2 -11.6 23.15 -10.2 22.9 -7.65 Q22.55 -5.05 21.8 -2.65 L23.35 -4.9 24.6 -3.85 Q20.5 9.6 13.95 16.5 12.0 18.55 9.85 20.0 15.9 12.3 18.1 3.75 16.8 5.75 15.1 7.3 L15.6 3.0 Q18.05 -10.45 14.15 -25.85 11.8 -35.9 5.8 -40.35 L5.75 -40.4 Q3.6 -43.3 0.75 -45.7" fill="url(#gradient1)" fill-rule="evenodd" stroke="none"/>
      <path d="M9.7 6.3 Q13.2 -5.3 13.15 -18.5 12.8 -25.25 10.85 -30.85 9.0 -36.1 5.8 -40.35 11.8 -35.9 14.15 -25.85 18.05 -10.45 15.6 3.0 L15.1 7.3 13.65 8.45 13.65 8.5 Q11.15 10.3 8.0 11.2 L9.7 6.3" fill="url(#gradient2)" fill-rule="evenodd" stroke="none"/>
      <path d="M13.95 16.5 Q20.5 9.6 24.6 -3.85 L25.05 -5.35 26.0 -8.9 26.75 -10.2 29.55 -10.4 34.45 -10.9 Q33.1 -6.45 31.5 -2.7 L27.95 -3.95 Q26.6 0.65 24.8 4.95 22.5 10.6 17.95 14.8 L13.95 16.5" fill="url(#gradient3)" fill-rule="evenodd" stroke="none"/>
      <path d="M22.9 -7.65 L23.15 -10.2 24.95 -10.2 22.9 -7.65" fill="#000000" fill-rule="evenodd" stroke="none"/>
      <path d="M24.6 -3.85 L23.35 -4.9 26.0 -8.9 25.05 -5.35 24.6 -3.85 M0.5 19.05 Q-3.55 21.5 -8.55 23.0 L-10.55 23.5 -10.3 22.25 -8.5 13.2 Q-5.7 19.05 0.5 19.05" fill="#fd8002" fill-rule="evenodd" stroke="none"/>
      <path d="M17.95 14.8 Q22.5 10.6 24.8 4.95 26.6 0.65 27.95 -3.95 L31.5 -2.7 Q26.9 8.25 20.35 13.25 L17.95 14.8" fill="#fbb31d" fill-rule="evenodd" stroke="none"/>
      <path d="M56.05 -16.8 L56.1 -16.85 56.05 -16.8" fill="url(#gradient4)" fill-rule="evenodd" stroke="none"/>
      <path d="M62.3 25.4 L64.0 27.85 Q62.25 32.8 58.5 32.85 62.6 38.4 63.05 43.05 56.3 45.8 49.0 44.65 L49.05 44.25 48.05 37.05 Q51.3 33.95 54.2 29.15 L54.25 29.1 54.5 28.4 Q58.6 26.0 59.5 21.9 L62.3 25.4 M34.8 42.7 L38.2 49.45 32.65 47.8 Q31.6 50.75 28.4 51.5 31.35 56.95 31.15 61.4 21.85 64.7 10.9 61.4 L10.05 49.1 Q20.3 48.35 28.6 41.7 31.8 42.65 34.8 42.7 M-16.6 51.65 L-16.6 56.1 Q-20.0 60.4 -24.6 60.3 L-25.2 62.0 Q-35.1 62.75 -45.3 59.45 -43.85 50.75 -40.05 45.5 -35.95 47.95 -29.55 48.25 -23.6 51.85 -16.6 51.65" fill="#46371e" fill-rule="evenodd" stroke="none"/>
      <path d="M9.85 20.0 Q12.0 18.55 13.95 16.5 L17.95 14.8 20.35 13.25 Q20.25 16.75 21.9 20.1 23.25 22.9 25.9 25.55 L17.3 26.1 15.25 22.3 14.0 21.25 13.2 21.1 8.5 22.75 4.65 25.85 6.5 29.25 Q-1.0 24.8 -8.55 23.0 -3.55 21.5 0.5 19.05 4.15 16.75 7.0 13.65 L8.0 11.2 Q11.15 10.3 13.65 8.5 L7.0 18.8 9.85 20.0" fill="url(#gradient5)" fill-rule="evenodd" stroke="none"/>
      <path d="M-11.35 -49.8 L-10.45 -50.05 Q-1.6 -47.15 7.0 -35.45 14.1 -17.25 9.7 6.3 L8.0 11.2 7.0 13.65 Q4.15 16.75 0.5 19.05 -5.7 19.05 -8.5 13.2 L-7.4 7.6 -7.3 6.95 -12.0 9.6 Q-15.65 1.1 -16.25 -11.8 -17.7 -31.7 -11.35 -49.8" fill="url(#gradient6)" fill-rule="evenodd" stroke="none"/>
      <path d="M4.65 25.85 L8.5 22.75 13.2 21.1 14.0 21.25 13.35 22.3 5.85 26.5 4.65 25.85 M-32.15 25.0 L-31.7 26.15 -33.9 28.95 -32.15 25.0 M-7.8 27.05 L-7.8 28.05 -10.95 29.3 -10.95 32.9 -12.5 29.9 -16.45 31.4 -15.2 29.45 -7.8 27.05" fill="#d08a20" fill-rule="evenodd" stroke="none"/>
      <path d="M6.5 29.25 L4.65 25.85 5.85 26.5 8.9 30.55 8.8 30.7 Q8.0 31.45 7.2 30.5 L6.5 29.25 M14.0 21.25 L15.25 22.3 13.35 22.3 14.0 21.25 M-6.3 33.55 L-6.7 33.65 Q-7.85 31.05 -7.8 28.05 L-7.8 27.05 Q-7.5 30.3 -6.3 33.55 M-30.05 25.75 L-29.0 27.1 -30.0 33.3 -31.9 33.1 Q-31.6 29.8 -30.05 25.75" fill="#edc589" fill-rule="evenodd" stroke="none"/>
      <path d="M15.25 22.3 L17.3 26.1 Q12.1 27.25 8.9 30.55 L5.85 26.5 13.35 22.3 15.25 22.3 M-6.7 33.65 Q-11.1 34.75 -15.25 37.35 -14.75 34.65 -16.45 31.4 L-12.5 29.9 -10.95 32.9 -10.95 29.3 -7.8 28.05 Q-7.85 31.05 -6.7 33.65 M-40.8 30.0 L-39.4 25.75 Q-35.25 24.3 -32.15 25.0 L-33.9 28.95 -31.7 26.15 -31.05 25.3 -30.05 25.75 Q-31.6 29.8 -31.9 33.1 -37.05 32.8 -42.25 34.3 L-40.8 30.0" fill="#f7e6cc" fill-rule="evenodd" stroke="none"/>
      <path d="M-8.55 23.0 Q-1.0 24.8 6.5 29.25 L7.2 30.5 5.95 33.2 1.45 32.7 Q1.5 30.85 -5.7 26.75 -13.45 23.25 -19.75 23.3 -16.8 21.3 -10.3 22.25 L-10.55 23.5 -8.55 23.0" fill="url(#gradient7)" fill-rule="evenodd" stroke="none"/>
      <path d="M7.2 30.5 Q8.0 31.45 8.8 30.7 7.65 31.85 6.8 33.35 L5.95 33.2 7.2 30.5" fill="#ffffff" fill-rule="evenodd" stroke="none"/>
      <path d="M37.1 67.7 L34.6 67.5 35.5 63.7 37.1 67.7 M-36.25 68.25 L-38.65 68.85 -37.1 65.3 -36.25 68.25" fill="#303011" fill-rule="evenodd" stroke="none"/>
      <path d="M61.9 50.45 Q60.2 48.45 60.15 51.1 L60.15 45.3 61.9 50.45" fill="#383914" fill-rule="evenodd" stroke="none"/>
      <path d="M-8.55 -71.55 Q-7.4 -72.6 -2.6 -68.05 -0.2 -65.75 -2.15 -64.9 L-4.4 -65.85 -9.5 -62.15 -5.85 -66.75 Q-8.75 -68.75 -8.55 -71.55" fill="#a47f46" fill-rule="evenodd" stroke="none"/>
      <path d="M-51.9 -34.75 Q-46.2 -43.5 -38.15 -46.2 -51.3 -37.2 -53.85 -19.55 -54.05 1.5 -45.35 -0.5 -43.3 11.65 -37.65 18.5 L-39.2 17.65 -40.75 16.8 -43.85 15.1 -42.6 18.8 -44.05 17.75 -47.05 15.6 -47.15 15.7 Q-59.4 4.45 -57.25 -21.7 L-55.95 -26.2 Q-54.35 -31.0 -51.9 -34.75" fill="url(#gradient8)" fill-rule="evenodd" stroke="none"/>
      <path d="M-50.3 14.5 Q-56.5 7.15 -58.35 -7.5 L-58.55 -9.95 Q-58.75 -13.9 -57.95 -18.35 L-57.25 -21.7 Q-59.4 4.45 -47.15 15.7 L-47.05 15.6 -45.35 18.8 Q-48.1 17.1 -50.3 14.5 M-45.35 -0.5 Q-46.0 -4.4 -46.3 -8.85 -45.45 -19.85 -41.7 -28.6 L-44.3 -18.2 Q-47.5 4.1 -36.5 18.25 L-36.95 19.3 -37.65 18.5 Q-43.3 11.65 -45.35 -0.5" fill="#ff9900" fill-rule="evenodd" stroke="none"/>
      <path d="M-38.15 -46.2 Q-35.45 -47.15 -32.5 -47.35 -28.5 -48.55 -27.55 -47.35 -36.95 -39.8 -41.7 -28.6 -45.45 -19.85 -46.3 -8.85 -46.0 -4.4 -45.35 -0.5 -54.05 1.5 -53.85 -19.55 -51.3 -37.2 -38.15 -46.2" fill="url(#gradient9)" fill-rule="evenodd" stroke="none"/>
      <path d="M-27.55 -47.35 L-24.65 -48.5 Q-35.5 -36.35 -40.1 -17.85 -42.15 -6.7 -38.5 2.25 -30.9 16.45 -23.3 12.6 L-21.15 17.6 Q-24.05 18.5 -25.35 21.8 -29.75 20.05 -32.65 16.35 L-34.45 13.65 -36.5 18.25 Q-47.5 4.1 -44.3 -18.2 L-41.7 -28.6 Q-36.95 -39.8 -27.55 -47.35" fill="url(#gradient10)" fill-rule="evenodd" stroke="none"/>
      <path d="M-24.65 -48.5 L-24.05 -48.7 Q-17.8 -49.45 -14.9 -47.1 -24.5 -36.7 -26.0 -17.75 -27.5 0.5 -23.3 12.6 -30.9 16.45 -38.5 2.25 -42.15 -6.7 -40.1 -17.85 -35.5 -36.35 -24.65 -48.5" fill="url(#gradient11)" fill-rule="evenodd" stroke="none"/>
      <path d="M-12.85 -49.15 L-11.35 -49.8 Q-17.7 -31.7 -16.25 -11.8 -15.65 1.1 -12.0 9.6 -16.75 12.7 -21.15 17.6 L-23.3 12.6 Q-27.5 0.5 -26.0 -17.75 -24.5 -36.7 -14.9 -47.1 L-12.85 -49.15" fill="url(#gradient12)" fill-rule="evenodd" stroke="none"/>
      <path d="M-37.65 18.5 L-36.95 19.3 -34.25 19.3 -32.65 16.35 Q-29.75 20.05 -25.35 21.8 L-22.85 21.8 Q-21.3 18.9 -18.2 16.85 L-17.45 15.85 Q-13.9 11.0 -7.4 7.6 L-8.5 13.2 -10.3 22.25 Q-16.8 21.3 -19.75 23.3 -21.55 24.5 -22.0 26.85 -22.75 31.8 -19.2 36.7 -24.55 33.95 -30.0 33.3 L-29.0 27.1 -30.05 25.75 -31.05 25.3 -31.7 26.15 -32.15 25.0 Q-35.25 24.3 -39.4 25.75 L-40.8 30.0 Q-40.8 27.4 -42.55 25.1 -43.05 20.05 -39.2 17.65 L-37.65 18.5" fill="url(#gradient13)" fill-rule="evenodd" stroke="none"/>
      <path d="M-19.75 23.3 Q-13.45 23.25 -5.7 26.75 1.5 30.85 1.45 32.7 -2.5 32.6 -6.3 33.55 -7.5 30.3 -7.8 27.05 L-15.2 29.45 -16.45 31.4 Q-14.75 34.65 -15.25 37.35 L-16.55 38.2 -19.2 36.7 Q-22.75 31.8 -22.0 26.85 -21.55 24.5 -19.75 23.3" fill="url(#gradient14)" fill-rule="evenodd" stroke="none"/>
      <path d="M39.7 -40.05 Q41.0 -40.95 41.8 -41.2 50.25 -46.2 49.45 -54.75 48.7 -63.05 52.5 -59.8 L53.0 -57.45 Q53.25 -55.6 54.7 -56.4 62.95 -40.7 60.35 -25.45 59.35 -19.8 56.1 -16.85 L56.1 -16.8 Q61.75 -7.1 59.6 -0.6 61.85 2.7 63.35 5.65 69.9 18.6 62.3 25.4 L64.0 27.85 Q67.45 33.25 69.35 39.5 70.45 43.05 71.0 46.85 68.15 49.35 64.35 50.15 L61.9 50.45 Q60.2 48.45 60.15 51.1 L48.05 50.65 47.25 50.45 Q47.95 47.55 48.05 44.45 48.15 41.1 47.55 37.5 41.8 42.7 34.8 42.7 L38.2 49.45 40.7 55.95 Q42.15 60.2 43.05 64.6 42.1 67.3 37.1 67.7 L34.6 67.5 34.2 69.25 31.3 70.35 Q20.95 73.6 9.85 69.4 L8.45 68.85 Q9.25 65.05 9.5 60.95 9.85 55.35 9.05 49.15 3.4 49.4 -2.8 47.9 -10.15 51.4 -16.6 51.65 L-16.6 56.1 -16.6 60.6 -16.6 67.7 Q-22.25 70.0 -28.25 70.1 L-35.95 69.25 -36.25 68.25 -38.65 68.85 Q-42.5 68.8 -46.3 66.8 -46.9 66.5 -47.5 66.15 L-46.25 58.95 Q-44.65 51.65 -41.7 44.4 -45.4 41.5 -46.9 36.45 -51.15 33.85 -52.35 29.45 -53.85 24.3 -51.1 16.65 L-50.3 14.5 Q-56.5 7.15 -58.35 -7.5 -69.05 -10.6 -71.0 -17.7 -70.75 -22.65 -70.05 -27.05 M-70.0 -27.65 Q-67.8 -41.9 -61.3 -50.6 L-59.75 -52.4 Q-58.2 -53.9 -57.95 -53.55 -57.25 -51.25 -56.55 -52.55 L-56.2 -51.8 Q-57.7 -39.95 -56.1 -36.25 -56.7 -33.45 -54.95 -34.8 L-51.9 -34.75 Q-46.2 -43.5 -38.15 -46.2 -35.45 -47.15 -32.5 -47.35 -28.5 -48.55 -27.55 -47.35 L-24.65 -48.5 -24.05 -48.7 Q-21.45 -49.6 -19.2 -49.9 -16.25 -61.7 -8.55 -71.55 -7.4 -72.6 -2.6 -68.05 -0.2 -65.75 -2.15 -64.9 -11.15 -58.65 -14.4 -49.7 L-12.85 -49.15 -11.35 -49.8 -10.45 -50.05 Q-7.35 -50.9 -4.6 -49.55 -3.0 -48.6 -1.55 -47.5 0.9 -47.6 3.25 -46.75 4.75 -46.25 6.15 -45.4 9.85 -46.0 15.0 -43.45 21.85 -45.4 29.45 -40.75 32.8 -41.1 34.3 -39.15 L36.5 -39.7 Q38.4 -39.15 39.7 -40.05 M26.6 -40.15 L29.45 -40.75 M20.55 -28.1 L22.05 -29.1 16.05 -35.8 11.2 -41.2 9.4 -43.0 6.15 -45.4 M20.25 -36.4 L21.55 -36.6 24.45 -37.1 19.8 -40.6 16.7 -42.55 15.0 -43.45 M24.45 -37.1 L28.4 -37.85 34.3 -39.15 M20.55 -28.1 L19.1 -27.1 19.35 -24.2 22.05 -29.1 M5.8 -40.35 L5.75 -40.4 Q3.6 -43.3 0.75 -45.7 M16.05 -35.8 L17.7 -36.05 20.25 -36.4 11.2 -41.2 M9.7 6.3 Q13.2 -5.3 13.15 -18.5 12.8 -25.25 10.85 -30.85 9.0 -36.1 5.8 -40.35 M15.1 7.3 Q16.8 5.75 18.1 3.75 15.9 12.3 9.85 20.0 12.0 18.55 13.95 16.5 20.5 9.6 24.6 -3.85 L25.05 -5.35 26.0 -8.9 26.75 -10.2 24.95 -10.2 22.9 -7.65 23.15 -10.2 23.2 -11.6 23.05 -15.25 20.35 -11.55 20.1 -14.7 19.35 -24.2 M23.35 -4.9 L21.8 -2.65 Q22.55 -5.05 22.9 -7.65 M34.45 -10.9 L29.55 -10.4 26.75 -10.2 M24.95 -10.2 L23.15 -10.2 M23.35 -4.9 L26.0 -8.9 M31.5 -2.7 Q33.1 -6.45 34.45 -10.9 41.75 -11.9 51.15 -15.1 L54.7 -16.35 55.95 -16.8 56.05 -16.8 56.1 -16.85 56.05 -16.8 55.95 -16.75 M31.5 -2.7 Q26.9 8.25 20.35 13.25 20.25 16.75 21.9 20.1 23.25 22.9 25.9 25.55 L29.95 25.95 M23.05 -15.25 L20.1 -14.7 M59.05 15.1 L59.6 17.95 Q59.85 20.1 59.5 21.9 L62.3 25.4 M47.55 37.5 L48.05 37.05 Q51.3 33.95 54.2 29.15 L54.25 29.1 54.5 28.4 Q58.6 26.0 59.5 21.9 M49.0 44.65 Q56.3 45.8 63.05 43.05 66.25 41.7 69.35 39.5 M48.05 44.45 L49.0 44.65 M13.65 8.5 L13.65 8.45 15.1 7.3 M8.0 11.2 L9.7 6.3 M9.85 20.0 L7.0 18.8 13.65 8.5 Q11.15 10.3 8.0 11.2 L7.0 13.65 Q4.15 16.75 0.5 19.05 -3.55 21.5 -8.55 23.0 -1.0 24.8 6.5 29.25 L4.65 25.85 8.5 22.75 13.2 21.1 14.0 21.25 15.25 22.3 17.3 26.1 25.9 25.55 M13.95 16.5 L17.95 14.8 20.35 13.25 M6.5 29.25 L7.2 30.5 Q8.0 31.45 8.8 30.7 L8.9 30.55 Q12.1 27.25 17.3 26.1 M6.8 33.35 L9.0 33.85 M5.95 33.2 L6.8 33.35 Q7.65 31.85 8.8 30.7 M5.95 33.2 L7.2 30.5 M1.45 32.7 L5.95 33.2 M9.05 49.15 L10.05 49.1 Q20.3 48.35 28.6 41.7 L26.15 40.9 M28.6 41.7 Q31.8 42.65 34.8 42.7 M31.15 61.4 Q21.85 64.7 10.9 61.4 L9.5 60.95 M37.1 67.7 L35.5 63.7 34.6 67.5 M31.15 61.4 Q36.15 59.6 40.7 55.95 M61.9 50.45 L60.15 45.3 60.15 51.1 M59.6 -0.6 L58.35 3.6 M-16.45 -50.0 L-14.4 -49.7 M-16.45 -50.0 L-19.2 -49.9 M-55.95 -26.2 Q-54.35 -31.0 -51.9 -34.75 M-58.55 -9.95 Q-58.75 -13.9 -57.95 -18.35 L-57.25 -21.7 -55.95 -26.2 M-58.35 -7.5 L-58.55 -9.95 M-41.7 -28.6 Q-45.45 -19.85 -46.3 -8.85 -46.0 -4.4 -45.35 -0.5 -43.3 11.65 -37.65 18.5 L-36.95 19.3 -36.5 18.25 -34.45 13.65 -32.65 16.35 -34.25 19.3 -36.95 19.3 M-41.7 -28.6 Q-36.95 -39.8 -27.55 -47.35 M-23.3 12.6 Q-27.5 0.5 -26.0 -17.75 -24.5 -36.7 -14.9 -47.1 L-12.85 -49.15 M-23.3 12.6 L-21.15 17.6 Q-16.75 12.7 -12.0 9.6 L-7.3 6.95 -7.4 7.6 -8.5 13.2 -10.3 22.25 Q-16.8 21.3 -19.75 23.3 -21.55 24.5 -22.0 26.85 -22.75 31.8 -19.2 36.7 L-16.55 38.2 -14.5 39.55 M-8.55 23.0 L-10.55 23.5 -10.3 22.25 M1.45 32.7 Q-2.5 32.6 -6.3 33.55 L-6.7 33.65 Q-11.1 34.75 -15.25 37.35 L-16.55 38.2 M-17.45 15.85 L-18.2 16.85 Q-21.3 18.9 -22.85 21.8 L-25.35 21.8 Q-29.75 20.05 -32.65 16.35 M-18.2 16.85 L-17.5 15.9 -17.45 15.85 Q-13.9 11.0 -7.4 7.6 M-37.65 18.5 L-39.2 17.65 Q-43.05 20.05 -42.55 25.1 -40.8 27.4 -40.8 30.0 L-39.4 25.75 Q-35.25 24.3 -32.15 25.0 L-31.7 26.15 -31.05 25.3 -30.05 25.75 -29.0 27.1 -30.0 33.3 Q-24.55 33.95 -19.2 36.7 M-21.15 17.6 Q-24.05 18.5 -25.35 21.8 M-29.55 48.25 Q-31.85 46.85 -34.0 44.85 M-40.05 45.5 Q-35.95 47.95 -29.55 48.25 -23.6 51.85 -16.6 51.65 M-31.9 33.1 L-30.0 33.3 M-31.9 33.1 Q-37.05 32.8 -42.25 34.3 L-43.35 34.6 M-7.8 28.05 L-7.8 27.05 -15.2 29.45 -16.45 31.4 Q-14.75 34.65 -15.25 37.35 M-6.3 33.55 Q-7.5 30.3 -7.8 27.05 M-40.75 16.8 L-43.85 15.1 -42.6 18.8 -40.75 16.8 -39.2 17.65 M-47.05 15.6 L-44.05 17.75 -42.6 18.8 M-46.3 21.8 Q-43.9 23.35 -42.55 25.1 M-45.35 18.8 L-44.05 17.75 M-45.35 18.8 Q-48.1 17.1 -50.3 14.5 M-47.05 15.6 L-45.35 18.8 M-42.25 34.3 L-40.8 30.0 M-46.25 58.95 Q-45.3 59.3 -45.3 59.45 -35.1 62.75 -25.2 62.0 L-16.6 60.6 M-40.05 45.5 L-41.7 44.4 M-36.25 68.25 L-37.1 65.3 -38.65 68.85 M-2.8 47.9 L0.85 46.0" ffdec:has-small-stroke="true" ffdec:original-stroke-width="0.05" fill="none" stroke="#633a12" stroke-linecap="round" stroke-linejoin="round" stroke-opacity="0.49803922" stroke-width="0.38328474540799773"/>
      <path d="M-46.85 -6.35 Q-48.8 -9.85 -49.35 -12.9 -47.7 -11.55 -46.15 -11.75 -42.7 -8.15 -37.9 -6.45 -41.15 -5.05 -44.65 -5.85 L-46.85 -6.35" fill="#330000" fill-rule="evenodd" stroke="none"/>
      <path d="M-47.55 -5.45 L-46.85 -6.35 -44.65 -5.85 Q-41.15 -5.05 -37.9 -6.45 L-36.25 -5.9 Q-41.05 -3.5 -45.9 -5.05 L-45.95 -5.05 Q-46.75 -4.85 -47.55 -5.45 M-45.9 -5.05 L-44.65 -5.85 -45.9 -5.05" fill="#ff6600" fill-rule="evenodd" stroke="none"/>
      <path d="M-47.55 -5.45 L-48.0 -5.9 Q-50.55 -9.0 -50.9 -14.45 L-49.35 -12.9 Q-48.8 -9.85 -46.85 -6.35 L-47.55 -5.45" fill="#ad5701" fill-rule="evenodd" stroke="none"/>
      <path d="M-49.35 -12.9 L-50.9 -14.45 Q-50.55 -9.0 -48.0 -5.9 L-47.55 -5.45 -46.85 -6.35 Q-48.8 -9.85 -49.35 -12.9 -47.7 -11.55 -46.15 -11.75 -42.7 -8.15 -37.9 -6.45 L-36.25 -5.9 Q-41.05 -3.5 -45.9 -5.05 L-45.95 -5.05 Q-46.75 -4.85 -47.55 -5.45 M-44.65 -5.85 L-45.9 -5.05 M-46.85 -6.35 L-44.65 -5.85 Q-41.15 -5.05 -37.9 -6.45" ffdec:has-small-stroke="true" ffdec:original-stroke-width="0.05" fill="none" stroke="#000000" stroke-linecap="round" stroke-linejoin="round" stroke-opacity="0.41960785" stroke-width="0.38328474540799773"/>
      <path d="M-2.75 -5.9 Q-12.55 -2.75 -21.7 -5.9 L-20.4 -6.3 Q-11.25 -4.6 -3.6 -6.85 L-2.75 -5.9" fill="#ff6600" fill-rule="evenodd" stroke="none"/>
      <path d="M-1.2 -17.05 L-0.1 -18.0 Q0.55 -10.35 -2.75 -5.9 L-3.6 -6.85 Q-0.85 -11.15 -1.2 -17.05" fill="#ad5701" fill-rule="evenodd" stroke="none"/>
      <path d="M-20.4 -6.3 Q-9.7 -10.0 -1.2 -17.05 -0.85 -11.15 -3.6 -6.85 -11.25 -4.6 -20.4 -6.3" fill="#330000" fill-rule="evenodd" stroke="none"/>
      <path d="M-2.75 -5.9 Q-12.55 -2.75 -21.7 -5.9 L-20.4 -6.3 Q-9.7 -10.0 -1.2 -17.05 L-0.1 -18.0 Q0.55 -10.35 -2.75 -5.9 L-3.6 -6.85 Q-11.25 -4.6 -20.4 -6.3 M-1.2 -17.05 Q-0.85 -11.15 -3.6 -6.85" ffdec:has-small-stroke="true" ffdec:original-stroke-width="0.05" fill="none" stroke="#000000" stroke-linecap="round" stroke-linejoin="round" stroke-opacity="0.41960785" stroke-width="0.38328474540799773"/>
    </g>
    <linearGradient gradientTransform="matrix(0.0146, 0.0, 0.0, 0.0401, 12.65, -12.85)" gradientUnits="userSpaceOnUse" id="gradient1" spreadMethod="pad" x1="-819.2" x2="819.2">
      <stop offset="0.0" stop-color="#ffa41a"/>
      <stop offset="1.0" stop-color="#fbb81e"/>
    </linearGradient>
    <linearGradient gradientTransform="matrix(0.0066, 0.0, 0.0, 0.0315, 11.15, -14.6)" gradientUnits="userSpaceOnUse" id="gradient2" spreadMethod="pad" x1="-819.2" x2="819.2">
      <stop offset="0.0" stop-color="#fd8002"/>
      <stop offset="1.0" stop-color="#fd6602"/>
    </linearGradient>
    <linearGradient gradientTransform="matrix(0.0125, 0.0, 0.0, 0.0167, 24.2, 2.8)" gradientUnits="userSpaceOnUse" id="gradient3" spreadMethod="pad" x1="-819.2" x2="819.2">
      <stop offset="0.0" stop-color="#fd8002"/>
      <stop offset="1.0" stop-color="#fd6602"/>
    </linearGradient>
    <linearGradient gradientTransform="matrix(0.0264, 0.0, 0.0, 0.0271, 39.3, -38.55)" gradientUnits="userSpaceOnUse" id="gradient4" spreadMethod="pad" x1="-819.2" x2="819.2">
      <stop offset="0.0" stop-color="#7c7dbe"/>
      <stop offset="1.0" stop-color="#6f95cc"/>
    </linearGradient>
    <linearGradient gradientTransform="matrix(0.021, 0.0, 0.0, 0.0127, 8.65, 18.85)" gradientUnits="userSpaceOnUse" id="gradient5" spreadMethod="pad" x1="-819.2" x2="819.2">
      <stop offset="0.0" stop-color="#330000"/>
      <stop offset="1.0" stop-color="#614b31"/>
    </linearGradient>
    <linearGradient gradientTransform="matrix(0.017, 0.0, 0.0, 0.0422, -2.55, -15.5)" gradientUnits="userSpaceOnUse" id="gradient6" spreadMethod="pad" x1="-819.2" x2="819.2">
      <stop offset="0.0" stop-color="#ffa41a"/>
      <stop offset="1.0" stop-color="#fbb81e"/>
    </linearGradient>
    <linearGradient gradientTransform="matrix(0.0164, 0.0, 0.0, 0.0069, -6.3, 27.55)" gradientUnits="userSpaceOnUse" id="gradient7" spreadMethod="pad" x1="-819.2" x2="819.2">
      <stop offset="0.0" stop-color="#990000"/>
      <stop offset="1.0" stop-color="#620000"/>
    </linearGradient>
    <linearGradient gradientTransform="matrix(0.0121, 0.0, 0.0, 0.0397, -47.6, -13.7)" gradientUnits="userSpaceOnUse" id="gradient8" spreadMethod="pad" x1="-819.2" x2="819.2">
      <stop offset="0.0" stop-color="#fd8002"/>
      <stop offset="1.0" stop-color="#fd6602"/>
    </linearGradient>
    <linearGradient gradientTransform="matrix(0.0161, 0.0, 0.0, 0.0291, -40.7, -24.15)" gradientUnits="userSpaceOnUse" id="gradient9" spreadMethod="pad" x1="-819.2" x2="819.2">
      <stop offset="0.0" stop-color="#ffa41a"/>
      <stop offset="1.0" stop-color="#fbb81e"/>
    </linearGradient>
    <linearGradient gradientTransform="matrix(0.0146, 0.0, 0.0, 0.0429, -33.1, -13.35)" gradientUnits="userSpaceOnUse" id="gradient10" spreadMethod="pad" x1="-819.2" x2="819.2">
      <stop offset="0.0" stop-color="#fd8002"/>
      <stop offset="1.0" stop-color="#fd6602"/>
    </linearGradient>
    <linearGradient gradientTransform="matrix(0.0158, 0.0, 0.0, 0.038, -27.9, -17.75)" gradientUnits="userSpaceOnUse" id="gradient11" spreadMethod="pad" x1="-819.2" x2="819.2">
      <stop offset="0.0" stop-color="#ffa41a"/>
      <stop offset="1.0" stop-color="#fbb81e"/>
    </linearGradient>
    <linearGradient gradientTransform="matrix(0.0092, 0.0, 0.0, 0.0411, -18.9, -16.1)" gradientUnits="userSpaceOnUse" id="gradient12" spreadMethod="pad" x1="-819.2" x2="819.2">
      <stop offset="0.0" stop-color="#fd8002"/>
      <stop offset="1.0" stop-color="#fd6602"/>
    </linearGradient>
    <linearGradient gradientTransform="matrix(-0.0155, 0.0042, -0.004, -0.0148, -26.45, 25.7)" gradientUnits="userSpaceOnUse" id="gradient13" spreadMethod="pad" x1="-819.2" x2="819.2">
      <stop offset="0.0" stop-color="#330000"/>
      <stop offset="1.0" stop-color="#614b31"/>
    </linearGradient>
    <linearGradient gradientTransform="matrix(0.0144, 0.0, 0.0, 0.0091, -10.35, 30.75)" gradientUnits="userSpaceOnUse" id="gradient14" spreadMethod="pad" x1="-819.2" x2="819.2">
      <stop offset="0.0" stop-color="#660000"/>
      <stop offset="1.0" stop-color="#3c0000"/>
    </linearGradient>
    <g id="sprite3">
      <use ffdec:characterId="2" height="22.2" transform="matrix(1.0, 0.0, 0.0, 1.0, 0.0, 0.0)" width="22.2" xlink:href="#shape3"/>
    </g>
    <g id="shape3">
      <path d="M7.85 -7.85 Q11.1 -4.6 11.1 0.0 11.1 4.6 7.85 7.85 4.6 11.1 0.0 11.1 -4.6 11.1 -7.85 7.85 -11.1 4.6 -11.1 0.0 -11.1 -4.6 -7.85 -7.85 -4.6 -11.1 0.0 -11.1 4.6 -11.1 7.85 -7.85" fill="url(#gradient15)" fill-rule="evenodd" stroke="none"/>
    </g>
    <radialGradient cx="0" cy="0" gradientTransform="matrix(0.0137, 0.0, 0.0, 0.0137, 0.0, 0.0)" gradientUnits="userSpaceOnUse" id="gradient15" r="819.2" spreadMethod="pad">
      <stop offset="0.0" stop-color="#ff0000"/>
      <stop offset="1.0" stop-color="#ff0000" stop-opacity="0.0"/>
    </radialGradient>
    <g id="shape4">
      <path d="M49.45 -54.75 Q50.25 -46.2 41.8 -41.2 41.0 -40.95 39.7 -40.05 38.4 -39.15 36.5 -39.7 L34.3 -39.15 Q32.8 -41.1 29.45 -40.75 21.85 -45.4 15.0 -43.45 9.85 -46.0 6.15 -45.4 4.75 -46.25 3.25 -46.75 0.9 -47.6 -1.55 -47.5 -3.0 -48.6 -4.6 -49.55 -7.35 -50.9 -10.45 -50.05 L-11.35 -49.8 -12.85 -49.15 -14.4 -49.7 Q-11.15 -58.65 -2.15 -64.9 -0.2 -65.75 -2.6 -68.05 -7.4 -72.6 -8.55 -71.55 -16.25 -61.7 -19.2 -49.9 -21.45 -49.6 -24.05 -48.7 L-24.65 -48.5 -27.55 -47.35 Q-28.5 -48.55 -32.5 -47.35 -35.45 -47.15 -38.15 -46.2 -46.2 -43.5 -51.9 -34.75 L-54.95 -34.8 Q-56.7 -33.45 -56.1 -36.25 -57.7 -39.95 -56.2 -51.8 L-56.55 -52.55 Q-57.25 -51.25 -57.95 -53.55 -58.2 -53.9 -59.75 -52.4 L-61.3 -50.6 Q-67.8 -41.9 -70.0 -27.65 L-70.05 -27.05 Q-70.75 -22.65 -71.0 -17.7 -69.05 -10.6 -58.35 -7.5 -56.5 7.15 -50.3 14.5 L-51.1 16.65 Q-53.85 24.3 -52.35 29.45 -51.15 33.85 -46.9 36.45 -45.4 41.5 -41.7 44.4 -44.65 51.65 -46.25 58.95 L-47.5 66.15 Q-46.9 66.5 -46.3 66.8 -42.5 68.8 -38.65 68.85 L-36.25 68.25 -35.95 69.25 -28.25 70.1 Q-22.25 70.0 -16.6 67.7 L-16.6 51.65 Q-10.15 51.4 -2.8 47.9 3.4 49.4 9.05 49.15 9.85 55.35 9.5 60.95 9.25 65.05 8.45 68.85 L9.85 69.4 Q20.95 73.6 31.3 70.35 L34.2 69.25 34.6 67.5 37.1 67.7 Q42.1 67.3 43.05 64.6 42.15 60.2 40.7 55.95 L38.2 49.45 34.8 42.7 Q41.8 42.7 47.55 37.5 48.15 41.1 48.05 44.45 47.95 47.55 47.25 50.45 L48.05 50.65 60.15 51.1 Q60.2 48.45 61.9 50.45 L64.35 50.15 Q68.15 49.35 71.0 46.85 70.45 43.05 69.35 39.5 67.45 33.25 64.0 27.85 L62.3 25.4 Q69.9 18.6 63.35 5.65 61.85 2.7 59.6 -0.6 61.75 -7.1 56.1 -16.8 L55.95 -16.75 55.95 -16.8 56.05 -16.8 Q59.35 -19.75 60.35 -25.45 62.95 -40.7 54.7 -56.4 53.25 -55.6 53.0 -57.45 L52.5 -59.8 Q48.7 -63.05 49.45 -54.75 Z" fill="none" stroke="#633a12" stroke-linecap="round" stroke-linejoin="round" stroke-opacity="0.49803922" stroke-width="1.0"/>
    </g>
    <g id="sprite4">
      <use ffdec:characterId="8" height="45.0" transform="matrix(1.0, 0.0, 0.0, 1.0, 0.0, 0.0)" width="102.95" xlink:href="#shape5"/>
    </g>
    <g id="shape5">
      <path d="M102.95 45.0 L0.0 45.0 0.0 0.0 102.95 0.0 102.95 45.0" fill="#ff00ff" fill-opacity="0.0" fill-rule="evenodd" stroke="none"/>
    </g>
  </defs>
</svg>
