<?xml version="1.0" encoding="UTF-8" standalone="no"?>
<svg xmlns:ffdec="https://www.free-decompiler.com/flash" xmlns:xlink="http://www.w3.org/1999/xlink" ffdec:objectType="frame" height="163.2px" width="142.8px" xmlns="http://www.w3.org/2000/svg">
  <g transform="matrix(3.0, 0.0, 0.0, 3.0, 64.35, 152.4)">
    <use ffdec:characterId="3" height="54.15" transform="matrix(1.0036, 0.0, 0.0, 1.0052, 0.0, 0.0)" width="47.5" xlink:href="#sprite0"/>
  </g>
  <defs>
    <g id="sprite0">
      <use ffdec:characterId="2" height="54.15" transform="matrix(1.0, 0.0, 0.0, 1.0, 2.0, -22.2)" width="47.5" xlink:href="#sprite1"/>
    </g>
    <g id="sprite1">
      <use ffdec:characterId="1" height="54.15" transform="matrix(1.0, 0.0, 0.0, 1.0, 0.0, 0.0)" width="47.5" xlink:href="#shape0"/>
    </g>
    <g id="shape0">
      <path d="M6.4 19.2 Q6.4 20.05 3.9 21.55 1.35 23.05 -2.2 24.3 -5.75 25.5 -8.25 25.75 -10.8 25.95 -10.75 25.05 -10.8 24.15 -8.25 22.7 -5.75 21.2 -2.2 19.95 1.35 18.75 3.9 18.5 6.4 18.3 6.4 19.2" fill="#422d00" fill-opacity="0.5019608" fill-rule="evenodd" stroke="none"/>
      <path d="M14.4 -15.15 L12.55 -13.0 11.2 -11.35 Q-2.1 4.6 -3.5 10.3 L-3.65 11.45 Q-3.65 12.3 -3.2 12.8 -8.4 14.85 -12.3 12.95 -13.6 12.3 -14.55 11.3 L-11.7 10.55 -11.15 10.3 Q-0.3 5.55 4.8 -18.3 L4.9 -18.8 5.5 -21.95 Q7.95 -22.1 10.05 -21.1 13.55 -19.4 14.4 -15.15" fill="#ffffff" fill-opacity="0.5882353" fill-rule="evenodd" stroke="none"/>
      <path d="M-3.2 12.8 Q-3.65 12.3 -3.65 11.45 L-3.5 10.3 Q-2.1 4.6 11.2 -11.35 L12.55 -13.0 14.4 -15.15 14.65 -12.3 Q14.65 -5.7 10.05 1.35 5.4 8.4 -1.15 11.8 L-3.2 12.8" fill="#a4d2ce" fill-opacity="0.5019608" fill-rule="evenodd" stroke="none"/>
      <path d="M5.5 -21.95 L4.9 -18.8 4.8 -18.3 Q-0.3 5.55 -11.15 10.3 L-11.7 10.55 -14.55 11.3 Q-16.9 8.8 -16.9 4.1 -16.9 -2.45 -12.3 -9.5 -7.65 -16.55 -1.15 -19.95 2.45 -21.85 5.5 -21.95 M-13.85 -4.35 Q-10.9 -7.65 -9.5 -11.75 L-12.1 -8.55 Q-13.4 -6.65 -13.85 -4.35" fill="#dfeeeb" fill-opacity="0.49803922" fill-rule="evenodd" stroke="none"/>
      <path d="M-13.85 -4.35 Q-13.4 -6.65 -12.1 -8.55 L-9.5 -11.75 Q-10.9 -7.65 -13.85 -4.35" fill="#f2f2f2" fill-opacity="0.8980392" fill-rule="evenodd" stroke="none"/>
      <path d="M14.4 -15.15 Q13.55 -19.4 10.05 -21.1 7.95 -22.1 5.5 -21.95 2.45 -21.85 -1.15 -19.95 -7.65 -16.55 -12.3 -9.5 -16.9 -2.45 -16.9 4.1 -16.9 8.8 -14.55 11.3 -13.6 12.3 -12.3 12.95 -8.4 14.85 -3.2 12.8 L-1.15 11.8 Q5.4 8.4 10.05 1.35 14.65 -5.7 14.65 -12.3 L14.4 -15.15 Z" ffdec:has-small-stroke="true" ffdec:original-stroke-width="0.15" fill="none" stroke="#ffffff" stroke-linecap="round" stroke-linejoin="round" stroke-opacity="0.69803923" stroke-width="0.331862400114116"/>
      <path d="M11.5 -15.9 L11.8 -15.8 11.95 -15.45 11.8 -15.15 Q11.7 -15.0 11.5 -15.0 11.3 -15.0 11.15 -15.15 L11.05 -15.45 11.15 -15.8 11.5 -15.9 M12.2 -13.25 L12.55 -13.35 12.85 -13.25 13.0 -12.9 12.85 -12.6 Q12.75 -12.45 12.55 -12.45 12.35 -12.45 12.2 -12.6 L12.1 -12.9 12.2 -13.25 M6.2 -18.8 L6.5 -18.7 6.65 -18.35 6.5 -18.05 Q6.4 -17.9 6.2 -17.9 6.0 -17.9 5.85 -18.05 L5.75 -18.35 5.85 -18.7 6.2 -18.8 M3.65 -18.45 L3.8 -18.1 3.65 -17.8 Q3.55 -17.65 3.35 -17.65 3.15 -17.65 3.0 -17.8 L2.9 -18.1 3.0 -18.45 3.35 -18.55 3.65 -18.45 M0.1 -17.45 L0.45 -17.55 0.75 -17.45 0.9 -17.1 0.75 -16.8 Q0.65 -16.65 0.45 -16.65 0.25 -16.65 0.1 -16.8 L0.0 -17.1 0.1 -17.45 M9.25 -17.95 L9.35 -17.85 9.4 -17.85 9.7 -17.75 9.85 -17.4 9.7 -17.1 Q9.6 -16.95 9.4 -16.95 9.2 -16.95 9.05 -17.1 L9.0 -17.15 8.95 -17.15 Q8.75 -17.15 8.6 -17.3 L8.5 -17.6 8.6 -17.95 8.95 -18.05 9.25 -17.95 M13.3 -9.9 L13.15 -9.6 Q13.05 -9.45 12.85 -9.45 L12.5 -9.6 12.4 -9.9 12.5 -10.25 12.85 -10.35 13.15 -10.25 13.3 -9.9 M12.55 -7.5 L12.85 -7.4 13.0 -7.05 12.85 -6.75 Q12.75 -6.6 12.55 -6.6 12.35 -6.6 12.2 -6.75 L12.1 -7.05 12.2 -7.4 12.55 -7.5 M11.4 -4.6 L11.75 -4.7 12.05 -4.6 12.2 -4.25 12.05 -3.95 Q11.95 -3.8 11.75 -3.8 11.55 -3.8 11.4 -3.95 L11.3 -4.25 11.4 -4.6 M10.3 -1.95 L10.65 -2.05 10.95 -1.95 11.1 -1.6 10.95 -1.3 Q10.85 -1.15 10.65 -1.15 10.45 -1.15 10.3 -1.3 L10.2 -1.6 10.3 -1.95 M9.55 0.55 L9.7 0.9 9.55 1.2 9.25 1.35 8.9 1.2 8.8 0.9 8.9 0.55 9.25 0.45 9.55 0.55 M7.9 2.85 L8.05 3.2 7.9 3.5 7.6 3.65 7.25 3.5 7.15 3.2 7.25 2.85 7.6 2.75 7.9 2.85 M5.3 5.1 L5.65 5.0 5.95 5.1 6.1 5.45 5.95 5.75 5.65 5.9 5.3 5.75 5.2 5.45 5.3 5.1 M3.25 7.05 L3.6 6.95 3.9 7.05 4.05 7.4 3.9 7.7 3.6 7.85 3.25 7.7 3.15 7.4 3.25 7.05 M0.9 8.75 L1.25 8.65 1.55 8.75 1.7 9.1 1.55 9.4 1.25 9.55 0.9 9.4 0.8 9.1 0.9 8.75 M-6.6 -12.5 L-6.3 -12.4 -6.15 -12.05 Q-6.15 -11.85 -6.3 -11.75 -6.4 -11.6 -6.6 -11.6 L-6.95 -11.75 -7.05 -12.05 -6.95 -12.4 -6.6 -12.5 M-1.75 -15.65 Q-1.75 -15.45 -1.9 -15.35 -2.0 -15.2 -2.2 -15.2 L-2.55 -15.35 -2.65 -15.65 -2.55 -16.0 -2.2 -16.1 -1.9 -16.0 -1.75 -15.65 M-4.85 -14.35 L-4.5 -14.45 -4.2 -14.35 -4.05 -14.0 Q-4.05 -13.8 -4.2 -13.7 -4.3 -13.55 -4.5 -13.55 L-4.85 -13.7 -4.95 -14.0 -4.85 -14.35 M-10.25 -7.9 L-9.95 -7.8 -9.8 -7.45 Q-9.8 -7.25 -9.95 -7.15 -10.05 -7.0 -10.25 -7.0 -10.45 -7.0 -10.6 -7.15 L-10.7 -7.45 -10.6 -7.8 -10.25 -7.9 M-12.1 -4.95 L-12.0 -5.3 -11.65 -5.4 -11.35 -5.3 -11.2 -4.95 Q-11.2 -4.75 -11.35 -4.65 -11.45 -4.5 -11.65 -4.5 L-12.0 -4.65 -12.1 -4.95 M-13.1 -2.7 L-12.75 -2.8 -12.45 -2.7 -12.3 -2.35 Q-12.3 -2.15 -12.45 -2.05 -12.55 -1.9 -12.75 -1.9 -12.95 -1.9 -13.1 -2.05 L-13.2 -2.35 -13.1 -2.7 M-8.95 -10.1 L-8.6 -10.2 -8.3 -10.1 -8.15 -9.75 Q-8.15 -9.55 -8.3 -9.45 -8.4 -9.3 -8.6 -9.3 L-8.95 -9.45 -9.05 -9.75 -8.95 -10.1 M-9.4 11.2 L-9.55 11.5 Q-9.65 11.65 -9.85 11.65 L-10.2 11.5 -10.3 11.2 -10.2 10.85 -9.85 10.75 Q-9.65 10.75 -9.55 10.85 -9.4 11.0 -9.4 11.2 M-7.4 11.5 L-7.05 11.4 -6.75 11.5 Q-6.6 11.65 -6.6 11.85 L-6.75 12.15 Q-6.85 12.3 -7.05 12.3 L-7.4 12.15 -7.5 11.85 -7.4 11.5 M-3.95 11.25 L-3.8 11.6 -3.95 11.9 Q-4.05 12.05 -4.25 12.05 L-4.6 11.9 -4.7 11.6 -4.6 11.25 -4.25 11.15 -3.95 11.25 M-1.75 10.25 L-1.4 10.15 -1.1 10.25 -0.95 10.6 -1.1 10.9 -1.4 11.05 -1.75 10.9 -1.85 10.6 -1.75 10.25 M-13.25 0.1 L-13.1 0.45 -13.25 0.75 Q-13.35 0.9 -13.55 0.9 L-13.9 0.75 -14.0 0.45 -13.9 0.1 -13.55 0.0 -13.25 0.1 M-13.55 3.0 L-13.4 3.35 -13.55 3.65 Q-13.65 3.8 -13.85 3.8 L-14.2 3.65 -14.3 3.35 -14.2 3.0 -13.85 2.9 -13.55 3.0 M-13.6 5.8 Q-13.4 5.8 -13.3 5.9 -13.15 6.05 -13.15 6.25 L-13.3 6.55 -13.6 6.7 -13.95 6.55 -14.05 6.25 -13.95 5.9 -13.6 5.8 M-11.9 9.05 L-12.05 9.35 Q-12.15 9.5 -12.35 9.5 L-12.7 9.35 -12.8 9.05 -12.7 8.7 -12.35 8.6 -12.05 8.7 -11.9 9.05" fill="#5f8e03" fill-opacity="0.5019608" fill-rule="evenodd" stroke="none"/>
      <path d="M15.95 -7.85 Q16.5 -12.25 15.75 -16.85 18.2 -15.0 23.75 -17.9 18.8 -13.35 15.95 -7.85 M12.5 -20.8 Q10.35 -22.3 6.8 -22.5 10.35 -24.65 12.85 -28.35 12.4 -24.5 12.5 -20.8 15.6 -23.05 18.05 -25.8 15.35 -22.3 14.45 -18.3 13.9 -20.0 12.5 -20.8 M11.8 1.4 Q13.95 -0.5 14.55 -3.55 19.15 0.2 24.1 1.4 17.55 0.65 11.8 1.4 M10.5 4.25 Q10.2 6.2 10.5 7.95 8.85 7.65 6.9 7.95 9.25 6.45 10.5 4.25 M-6.65 -16.5 Q-10.8 -13.5 -12.2 -10.4 -12.45 -15.2 -16.1 -20.0 -11.75 -16.4 -6.65 -16.5 -5.35 -18.4 -5.55 -26.7 -4.3 -21.7 -2.15 -20.0 -4.9 -18.3 -6.65 -16.5 M-23.4 -3.45 Q-18.05 -5.3 -13.5 -8.95 -16.9 -3.85 -17.15 0.7 -19.65 -4.25 -23.4 -3.45 M-22.4 18.55 Q-19.1 14.9 -17.55 10.3 -16.65 12.5 -14.55 13.55 -19.2 15.5 -22.4 18.55 M-5.5 25.8 L-5.95 15.75 Q-4.15 16.05 -2.35 14.65 -4.55 20.5 -5.5 25.8" fill="#f2f2f2" fill-opacity="0.3019608" fill-rule="evenodd" stroke="none"/>
    </g>
  </defs>
</svg>
