<?xml version="1.0" encoding="UTF-8" standalone="no"?>
<svg xmlns:ffdec="https://www.free-decompiler.com/flash" xmlns:xlink="http://www.w3.org/1999/xlink" ffdec:objectType="frame" height="45.9px" width="74.4px" xmlns="http://www.w3.org/2000/svg">
  <g transform="matrix(6.0, 0.0, 0.0, 6.0, 36.9, 22.5)">
    <use ffdec:characterId="14" height="7.65" transform="matrix(1.0, 0.0, 0.0, 1.0, 0.0, 0.0)" width="12.4" xlink:href="#shape0"/>
  </g>
  <defs>
    <g id="shape0">
      <path d="M-0.5 -3.75 L-0.4 -3.75 Q2.1 -3.95 4.15 -2.4 6.15 -0.9 6.25 0.5 6.3 1.85 4.6 2.85 2.8 3.85 0.3 3.9 L-3.1 3.4 Q-1.7 3.35 -4.0 1.45 -4.65 -1.7 -0.5 -3.75 M-1.05 3.25 Q1.45 3.65 3.0 2.8 3.7 1.85 2.6 1.7 L-1.3 2.2 Q-1.95 2.8 -1.3 3.15 L-1.05 3.25" fill="#000000" fill-rule="evenodd" stroke="none"/>
      <path d="M-3.1 3.4 L-4.15 2.95 Q-6.05 1.95 -6.15 0.6 -6.25 -0.75 -4.55 -2.15 -2.95 -3.55 -0.5 -3.75 -4.65 -1.7 -4.0 1.45 -1.7 3.35 -3.1 3.4 M-1.05 3.25 L-1.3 3.15 Q-1.95 2.8 -1.3 2.2 L2.6 1.7 Q3.7 1.85 3.0 2.8 1.45 3.65 -1.05 3.25" fill="#242531" fill-rule="evenodd" stroke="none"/>
    </g>
  </defs>
</svg>
