<?xml version="1.0" encoding="UTF-8" standalone="no"?>
<svg xmlns:ffdec="https://www.free-decompiler.com/flash" xmlns:xlink="http://www.w3.org/1999/xlink" ffdec:objectType="frame" height="184.25px" width="192.875px" xmlns="http://www.w3.org/2000/svg">
  <g transform="matrix(2.5, 0.0, 0.0, 2.5, 31.75, 27.125)">
    <use ffdec:characterId="2" height="19.3" transform="matrix(1.0, 0.0, 0.0, 1.0, 0.0, 0.0)" width="47.4" xlink:href="#shape0"/>
    <use ffdec:characterId="3" height="51.6" transform="matrix(1.0, 0.0, 0.0, 1.0, 38.65, 37.05)" width="51.65" xlink:href="#shape1"/>
    <use ffdec:characterId="4" height="29.95" transform="matrix(0.8158, 0.4091, -0.383, 0.9233, 23.2, 21.2)" width="59.85" xlink:href="#shape2"/>
  </g>
  <defs>
    <g id="shape0">
      <path d="M6.6 31.25 L4.85 32.4 Q4.0 32.95 3.55 33.85 L3.65 34.75 3.8 34.55 4.3 34.75 Q4.9 35.85 16.2 39.85 19.7 41.6 25.4 43.2 L27.85 43.9 32.7 45.7 34.6 47.05 Q34.8 47.15 34.5 47.3 L31.5 48.8 29.1 48.15 28.35 48.05 15.2 44.0 Q7.35 40.95 1.7 40.85 L0.85 39.95 Q0.45 40.1 -0.5 39.1 L-2.1 40.4 -2.1 43.1 -6.3 43.1 Q-3.75 39.5 -2.75 37.45 L-3.6 40.05 -1.95 36.9 -2.45 36.75 -2.45 36.7 -2.5 36.65 -2.9 36.0 Q-7.9 33.65 -11.9 33.1 L-12.7 32.45 Q-12.9 30.2 -10.9 29.6 L-10.05 29.5 Q-7.0 32.45 -2.65 33.75 -1.85 34.05 -1.1 33.5 L-0.05 33.75 -0.3 34.2 Q1.5 31.45 3.75 29.9 5.2 29.9 6.6 31.25 M2.9 38.75 L2.9 38.65 2.8 38.7 2.9 38.75" fill="url(#gradient0)" fill-rule="evenodd" stroke="none"/>
    </g>
    <linearGradient gradientTransform="matrix(0.0283, 0.0109, -0.0042, 0.011, 12.2, 39.15)" gradientUnits="userSpaceOnUse" id="gradient0" spreadMethod="pad" x1="-819.2" x2="819.2">
      <stop offset="0.0" stop-color="#000000" stop-opacity="0.0"/>
      <stop offset="0.6745098039215687" stop-color="#000000" stop-opacity="0.44313726"/>
      <stop offset="0.8862745098039215" stop-color="#000000" stop-opacity="0.19215687"/>
    </linearGradient>
    <g id="shape1">
      <path d="M-0.05 -25.8 Q10.65 -25.8 18.2 -18.25 25.8 -10.7 25.8 0.0 25.8 10.7 18.2 18.25 10.65 25.8 -0.05 25.8 -10.7 25.8 -18.3 18.25 -25.85 10.7 -25.85 0.0 -25.85 -10.7 -18.3 -18.25 -10.7 -25.8 -0.05 -25.8" fill="url(#gradient1)" fill-rule="evenodd" stroke="none"/>
    </g>
    <radialGradient cx="0" cy="0" gradientTransform="matrix(0.0304, 0.0, 0.0, 0.0304, -0.5, -0.15)" gradientUnits="userSpaceOnUse" id="gradient1" r="819.2" spreadMethod="pad">
      <stop offset="0.0" stop-color="#ffffff"/>
      <stop offset="0.22745098039215686" stop-color="#ffffff"/>
      <stop offset="0.25098039215686274" stop-color="#bbfcff" stop-opacity="0.52156866"/>
      <stop offset="1.0" stop-color="#bafbff" stop-opacity="0.0"/>
    </radialGradient>
    <g id="shape2">
      <path d="M13.5 4.2 L15.9 5.25 12.4 4.65 14.0 5.85 11.1 4.4 Q9.85 3.2 10.05 3.2 L13.5 4.2 M-21.55 -7.55 L-22.8 -7.25 -23.9 -6.65 -23.95 -6.65 -23.85 -6.75 -23.75 -7.2 -23.75 -8.65 -23.45 -10.45 -25.7 -7.75 -25.8 -7.5 -25.85 -7.4 -26.2 -7.4 Q-25.9 -8.95 -27.9 -6.1 L-27.0 -7.85 -24.35 -10.7 -22.15 -12.95 -21.9 -13.15 -21.85 -13.2 -21.9 -13.2 -21.85 -13.2 -21.9 -13.15 -21.9 -13.2 -23.1 -13.1 -24.9 -11.1 -25.1 -11.75 Q-29.75 -14.8 -33.95 -15.85 L-34.6 -16.6 Q-34.25 -18.8 -31.9 -19.2 L-30.95 -19.2 -31.25 -18.85 -31.3 -18.9 -31.3 -18.85 -31.3 -18.8 -31.3 -18.75 -31.3 -18.8 -31.3 -18.85 -31.25 -18.85 -31.3 -18.8 -31.25 -18.85 -31.3 -18.75 -33.1 -17.95 -33.9 -16.35 -31.0 -15.85 -25.35 -13.2 Q-24.75 -13.55 -24.2 -13.95 L-22.5 -14.0 -21.45 -13.6 -21.8 -13.2 -20.95 -13.9 -20.6 -14.2 Q-18.55 -15.95 -16.3 -16.95 -14.65 -16.7 -13.65 -15.2 L-14.25 -15.4 -17.05 -15.6 -20.65 -12.7 -19.1 -11.8 -20.7 -12.0 -21.55 -7.55 M-24.6 -4.45 L-24.65 -4.4 -27.6 -4.8 Q-27.25 -6.45 -25.55 -6.55 L-25.3 -6.45 Q-24.7 -6.35 -24.6 -4.45 M-21.8 -13.2 L-21.85 -13.2 -21.8 -13.2 M-23.9 -6.65 L-23.85 -6.75 -23.9 -6.65" fill="url(#gradient2)" fill-rule="evenodd" stroke="none"/>
      <path d="M-24.35 -10.7 L-24.85 -11.0 -24.9 -11.1 -23.1 -13.1 -21.9 -13.2 -21.9 -13.15 -22.15 -12.95 -24.35 -10.7" fill="url(#gradient3)" fill-rule="evenodd" stroke="none"/>
      <path d="M-23.9 -6.65 L-24.6 -4.45 Q-24.7 -6.35 -25.3 -6.45 L-25.55 -6.55 Q-26.1 -6.85 -25.85 -7.4 L-25.8 -7.5 -25.7 -7.75 -23.45 -10.45 -23.75 -8.65 -23.75 -7.2 -23.85 -6.75 -23.95 -6.65 -23.9 -6.65 M-30.95 -19.2 Q-28.45 -15.8 -24.2 -13.95 -24.75 -13.55 -25.35 -13.2 L-31.0 -15.85 -33.9 -16.35 -33.1 -17.95 -31.3 -18.75 -31.25 -18.85 -31.3 -18.85 -31.3 -18.9 -31.25 -18.85 -30.95 -19.2 M-13.65 -15.2 L-15.8 -14.3 Q-16.9 -13.85 -17.6 -13.05 L-17.6 -12.15 -18.35 -12.75 -19.1 -11.8 -20.65 -12.7 -17.05 -15.6 -14.25 -15.4 -13.65 -15.2 M-17.55 -12.0 L-17.55 -12.3 -17.55 -12.1 -17.55 -12.0 -17.6 -11.9 -17.6 -12.0 -17.55 -12.0 M-17.75 -11.1 L-17.1 -11.2 -17.1 -11.15 -17.05 -11.2 -15.9 -11.95 Q-13.75 -10.0 -6.05 -5.5 L-5.8 -5.35 -5.4 -4.9 -6.8 -5.15 -8.4 -5.15 -19.8 -11.15 -19.8 -11.2 -19.8 -11.15 -19.85 -11.2 -19.8 -11.2 -17.75 -11.1 M-24.7 -7.15 L-24.95 -7.6 -25.15 -7.75 -25.15 -7.5 -25.0 -7.0 -24.7 -6.55 -24.5 -6.4 -24.5 -6.65 -24.7 -7.15 M-32.7 -17.7 L-32.7 -17.35 -32.4 -17.1 -31.95 -17.1 -31.7 -17.4 -31.7 -17.75 -32.0 -18.05 -32.4 -18.0 -32.7 -17.7 M-16.3 -14.85 L-16.2 -15.15 -16.5 -15.35 -17.0 -15.25 -17.4 -14.95 -17.45 -14.65 -17.15 -14.45 -16.65 -14.5 Q-16.4 -14.6 -16.3 -14.85" fill="url(#gradient4)" fill-rule="evenodd" stroke="none"/>
      <path d="M-5.8 -5.35 Q-4.2 -4.3 3.25 -0.6 L4.1 -0.2 8.25 1.8 8.45 1.9 13.5 4.2 10.05 3.2 Q9.85 3.2 11.1 4.4 L9.3 3.5 7.1 2.4 -8.4 -5.15 -6.8 -5.15 -5.4 -4.9 -5.8 -5.35 M19.55 6.6 L25.15 8.9 22.25 9.25 20.7 7.7 20.7 7.8 19.55 6.6 M15.0 9.3 L12.95 8.4 15.15 8.25 Q16.15 7.7 15.7 6.75 L20.7 8.75 20.7 8.85 20.7 9.6 Q18.95 9.45 18.3 10.3 15.85 9.25 15.0 9.3 M-32.7 -17.7 L-32.4 -18.0 -32.0 -18.05 -31.7 -17.75 -31.7 -17.4 -31.95 -17.1 -32.4 -17.1 -32.7 -17.35 -32.7 -17.7 M-24.7 -7.15 L-24.5 -6.65 -24.5 -6.4 -24.7 -6.55 -25.0 -7.0 -25.15 -7.5 -25.15 -7.75 -24.95 -7.6 -24.7 -7.15 M-16.3 -14.85 Q-16.4 -14.6 -16.65 -14.5 L-17.15 -14.45 -17.45 -14.65 -17.4 -14.95 -17.0 -15.25 -16.5 -15.35 -16.2 -15.15 -16.3 -14.85" fill="#ffffff" fill-rule="evenodd" stroke="none"/>
      <path d="M-19.65 -8.35 L-21.55 -7.55 -20.7 -12.0 -19.1 -11.8 -18.35 -12.75 -17.6 -12.15 -17.6 -12.0 -17.55 -12.0 -17.6 -12.0 -17.6 -11.9 -17.7 -11.45 -17.7 -11.35 -17.75 -11.1 -19.8 -11.2 -19.85 -11.2 -19.8 -11.15 -19.15 -9.8 -19.65 -8.35 M-17.7 -11.45 L-17.8 -11.15 -17.7 -11.35 -17.8 -11.15 -17.7 -11.45" fill="url(#gradient5)" fill-rule="evenodd" stroke="none"/>
      <path d="M-27.6 -4.8 L-28.35 -4.95 -27.9 -6.1 Q-25.9 -8.95 -26.2 -7.4 L-25.85 -7.4 Q-26.1 -6.85 -25.55 -6.55 -27.25 -6.45 -27.6 -4.8" fill="url(#gradient6)" fill-rule="evenodd" stroke="none"/>
      <path d="M15.9 5.25 L18.5 6.15 Q18.7 6.9 18.3 6.95 L15.7 6.7 15.7 6.75 Q16.15 7.7 15.15 8.25 L12.95 8.4 10.9 7.45 -8.0 -1.35 Q-10.85 -3.3 -5.2 -1.5 3.95 1.7 5.55 2.95 L5.75 3.1 5.9 3.4 9.0 3.5 9.3 3.5 11.1 4.4 14.0 5.85 12.4 4.65 15.9 5.25" fill="url(#gradient7)" fill-rule="evenodd" stroke="none"/>
      <path d="M18.5 6.15 L19.55 6.6 20.7 7.8 20.7 7.7 22.25 9.25 23.55 9.75 18.45 10.6 16.05 9.65 15.3 9.45 15.0 9.3 Q15.85 9.25 18.3 10.3 18.95 9.45 20.7 9.6 L20.7 8.85 20.7 8.75 15.7 6.75 15.7 6.7 18.3 6.95 Q18.7 6.9 18.5 6.15" fill="url(#gradient8)" fill-rule="evenodd" stroke="none"/>
      <path d="M7.1 2.4 L9.3 3.5 9.0 3.5 5.9 3.4 Q7.05 3.1 7.1 2.5 L7.1 2.4" fill="#acddd6" fill-rule="evenodd" stroke="none"/>
      <path d="M-21.55 -6.3 L-21.6 -6.35 -19.7 -8.25 -19.65 -8.35 -21.55 -7.55 -22.8 -7.25 -23.9 -6.65 -23.95 -6.65 -23.85 -6.75 -23.75 -7.2 M-24.6 -4.45 L-24.65 -4.4 -27.6 -4.8 -28.35 -4.95 -27.9 -6.1 -27.0 -7.85 -24.35 -10.7 -24.85 -11.0 -24.9 -11.1 -25.1 -11.75 Q-29.75 -14.8 -33.95 -15.85 L-34.6 -16.6 Q-34.25 -18.8 -31.9 -19.2 L-30.95 -19.2 Q-28.45 -15.8 -24.2 -13.95 L-22.5 -14.0 -21.45 -13.6 -21.8 -13.2 -20.95 -13.9 -20.6 -14.2 Q-18.55 -15.95 -16.3 -16.95 -14.65 -16.7 -13.65 -15.2 L-14.25 -15.4 M-17.6 -12.15 L-17.6 -12.0 -17.55 -12.0 M-17.55 -12.3 L-17.55 -12.1 M-17.6 -11.9 L-17.7 -11.45 -17.8 -11.15 -17.7 -11.35 M-17.75 -11.1 L-17.1 -11.2 -17.1 -11.15 -17.05 -11.2 -15.9 -11.95 Q-13.75 -10.0 -6.05 -5.5 M-21.9 -13.15 L-21.85 -13.2 -21.9 -13.2 M-21.9 -13.15 L-22.15 -12.95 -24.35 -10.7 M-21.85 -13.2 L-21.8 -13.2 M-31.3 -18.75 L-31.3 -18.8 -31.3 -18.85 -31.3 -18.9 -31.25 -18.85 -30.95 -19.2 M-31.25 -18.85 L-31.3 -18.8 M-31.25 -18.85 L-31.3 -18.85 M-25.8 -7.5 L-25.85 -7.4 M-23.85 -6.75 L-23.9 -6.65 M-17.6 -12.0 L-17.6 -11.9 M-19.8 -11.15 L-19.8 -11.2 -19.85 -11.2 -19.8 -11.15 -8.4 -5.15 M-19.65 -8.35 L-19.15 -9.8 -19.8 -11.15 M-19.8 -11.2 L-17.75 -11.1 M-13.55 -6.2 L-14.0 -5.7" ffdec:has-small-stroke="true" ffdec:original-stroke-width="0.625" fill="none" stroke="#276155" stroke-linecap="round" stroke-linejoin="round" stroke-width="0.4193419212378651"/>
      <path d="M-5.8 -5.35 Q-4.2 -4.3 3.25 -0.6 L4.1 -0.2 M10.9 7.45 L-8.0 -1.35 M-23.9 -6.65 L-24.6 -4.45 M-13.65 -15.2 L-15.8 -14.3 Q-16.9 -13.85 -17.6 -13.05 L-17.6 -12.15 M-6.05 -5.5 L-5.8 -5.35 -5.4 -4.9" ffdec:has-small-stroke="true" ffdec:original-stroke-width="0.625" fill="none" stroke="#6fc4b1" stroke-linecap="round" stroke-linejoin="round" stroke-width="0.4193419212378651"/>
      <path d="M-8.0 -1.35 L-9.0 -1.85 Q-16.0 -5.55 -21.55 -6.3" ffdec:has-small-stroke="true" ffdec:original-stroke-width="0.625" fill="none" stroke="#368575" stroke-linecap="round" stroke-linejoin="round" stroke-width="0.4193419212378651"/>
      <path d="M8.45 1.9 L13.5 4.2 15.9 5.25 M16.05 9.65 L15.3 9.45 15.0 9.3 12.95 8.4 10.9 7.45 M20.7 8.75 L20.7 8.85 M15.7 6.7 L15.7 6.75" ffdec:has-small-stroke="true" ffdec:original-stroke-width="0.625" fill="none" stroke="#cfebe4" stroke-linecap="round" stroke-linejoin="round" stroke-width="0.4193419212378651"/>
      <path d="M4.1 -0.2 L8.25 1.8 8.45 1.9" ffdec:has-small-stroke="true" ffdec:original-stroke-width="0.625" fill="none" stroke="#9ed8cc" stroke-linecap="round" stroke-linejoin="round" stroke-width="0.4193419212378651"/>
      <path d="M-33.85 -16.35 L-31.0 -15.85 Q-27.6 -14.8 -24.95 -12.55 -25.45 -14.0 -24.2 -13.95 L-22.5 -14.0 -21.45 -13.6 -21.8 -13.2 -21.85 -13.2 -21.9 -13.2 -21.85 -13.2 -21.8 -13.2 -21.15 -13.75 -16.8 -16.25 -16.8 -15.65 -17.05 -15.6 -19.8 -13.4 -19.8 -13.35 -20.15 -13.05 -23.45 -10.45 -25.7 -7.75 -25.8 -7.5 -25.85 -7.4 -26.2 -7.4 Q-25.25 -9.05 -22.75 -11.45 -25.15 -9.85 -27.9 -6.1 L-27.0 -7.85 -24.35 -10.7 -22.15 -12.95 -21.9 -13.15 -21.9 -13.2 Q-21.6 -14.15 -23.1 -13.1 L-24.9 -11.1 -25.1 -11.75 Q-29.6 -14.7 -33.7 -15.8 L-33.8 -15.8 -33.85 -16.35 M-30.95 -19.2 Q-33.55 -18.95 -33.1 -17.95 L-33.45 -17.25 Q-33.55 -18.7 -34.45 -17.25 -33.9 -18.85 -31.9 -19.2 L-30.95 -19.2 M-20.9 -13.95 L-20.6 -14.2 -17.65 -16.25 -20.9 -13.95 M-15.7 -16.8 Q-14.45 -16.4 -13.65 -15.2 L-14.25 -15.4 -15.9 -15.75 -15.7 -16.8 M13.5 4.2 L15.9 5.25 12.4 4.65 14.0 5.85 11.1 4.4 Q9.85 3.2 10.05 3.2 L13.5 4.2 M-8.0 -1.35 Q-15.6 -5.5 -21.55 -6.3 L-21.6 -6.35 -19.7 -8.25 -19.65 -8.35 -19.15 -9.8 -19.8 -11.15 -8.4 -5.15 7.1 2.4 Q7.15 3.05 5.9 3.4 6.0 2.4 -5.2 -1.5 -10.85 -3.3 -8.0 -1.35 M-21.55 -7.55 L-22.8 -7.25 -23.9 -6.65 -23.85 -6.75 -23.9 -6.65 -23.95 -6.65 -23.85 -6.75 -23.75 -7.2 -23.75 -8.65 -20.7 -12.0 -20.35 -12.5 -19.1 -11.8 -20.7 -12.0 -21.55 -7.55 M-21.85 -13.2 L-21.9 -13.15 -21.85 -13.2 M-18.55 -8.7 L-20.45 -6.75 -18.4 -7.25 -15.35 -7.25 -0.05 -0.35 -18.4 -9.75 -18.55 -8.7" fill="url(#gradient9)" fill-rule="evenodd" stroke="none"/>
      <path d="M-24.2 -13.95 Q-25.45 -14.0 -24.95 -12.55 -27.6 -14.8 -31.0 -15.85 L-33.85 -16.35 -33.9 -16.35 -33.85 -16.45 -33.45 -17.25 -33.1 -17.95 Q-33.55 -18.95 -30.95 -19.2 -28.45 -15.8 -24.2 -13.95 M-13.65 -15.2 L-15.8 -14.3 Q-16.9 -13.85 -17.6 -13.05 L-17.6 -12.15 Q-17.85 -11.2 -19.1 -11.8 L-20.35 -12.5 -20.7 -12.0 -23.75 -8.65 -23.75 -7.2 -23.85 -6.75 -23.95 -6.65 -23.9 -6.65 -24.6 -4.45 Q-24.7 -6.35 -25.3 -6.45 L-25.55 -6.55 Q-26.1 -6.85 -25.85 -7.4 L-25.8 -7.5 -25.7 -7.75 -23.45 -10.45 -20.15 -13.05 -19.8 -13.35 -19.8 -13.4 -17.05 -15.6 -16.8 -15.65 -15.9 -15.75 -14.25 -15.4 -13.65 -15.2 M-17.55 -12.0 L-17.55 -12.3 -17.55 -12.1 -17.55 -12.0 -17.6 -11.9 -17.6 -12.0 -17.55 -12.0 M-17.75 -11.1 L-17.1 -11.2 -17.1 -11.15 -17.05 -11.2 -15.9 -11.95 Q-13.7 -9.95 -5.8 -5.35 L-5.4 -4.9 -8.4 -5.15 -19.8 -11.15 -19.8 -11.2 -19.8 -11.15 -19.85 -11.2 -19.8 -11.2 -17.75 -11.1 M-32.7 -17.7 L-32.7 -17.35 -32.4 -17.1 -31.95 -17.1 -31.7 -17.4 -31.7 -17.75 -32.0 -18.05 -32.4 -18.0 -32.7 -17.7 M-25.15 -7.5 L-25.0 -7.0 -24.7 -6.55 -24.5 -6.4 -24.5 -6.65 -24.7 -7.15 -24.95 -7.6 -25.15 -7.75 -25.15 -7.5 M-16.3 -14.85 L-16.2 -15.15 -16.5 -15.35 -17.0 -15.25 -17.4 -14.95 -17.45 -14.65 -17.15 -14.45 -16.65 -14.5 Q-16.4 -14.6 -16.3 -14.85 M-16.75 -10.55 L-16.7 -10.55 -15.8 -10.4 -15.55 -11.2 -16.3 -10.65 -16.75 -10.55" fill="url(#gradient10)" fill-rule="evenodd" stroke="none"/>
      <path d="M-5.8 -5.35 Q-4.2 -4.3 3.25 -0.6 10.6 3.0 13.5 4.2 L10.05 3.2 Q9.85 3.2 11.1 4.4 L9.3 3.5 7.1 2.4 -8.4 -5.15 -5.4 -4.9 -5.8 -5.35 M19.55 6.6 L25.15 8.9 22.25 9.25 20.7 7.7 20.7 7.8 19.55 6.6 M15.0 9.3 L12.95 8.4 15.15 8.25 Q16.15 7.7 15.7 6.75 L20.7 8.75 20.7 8.85 20.7 9.6 Q18.95 9.45 18.3 10.3 15.85 9.25 15.0 9.3 M-32.7 -17.7 L-32.4 -18.0 -32.0 -18.05 -31.7 -17.75 -31.7 -17.4 -31.95 -17.1 -32.4 -17.1 -32.7 -17.35 -32.7 -17.7 M-25.15 -7.5 L-25.15 -7.75 -24.95 -7.6 -24.7 -7.15 -24.5 -6.65 -24.5 -6.4 -24.7 -6.55 -25.0 -7.0 -25.15 -7.5 M-16.3 -14.85 Q-16.4 -14.6 -16.65 -14.5 L-17.15 -14.45 -17.45 -14.65 -17.4 -14.95 -17.0 -15.25 -16.5 -15.35 -16.2 -15.15 -16.3 -14.85 M-16.75 -10.55 L-16.3 -10.65 -15.55 -11.2 -15.8 -10.4 -16.7 -10.55 -16.75 -10.55" fill="#ffffff" fill-rule="evenodd" stroke="none"/>
      <path d="M-17.6 -12.0 L-17.55 -12.0 -17.6 -12.0 M-17.7 -11.45 L-17.7 -11.35 -17.8 -11.15 -17.7 -11.45" fill="url(#gradient11)" fill-rule="evenodd" stroke="none"/>
      <path d="M15.9 5.25 L18.5 6.15 Q18.7 6.9 18.3 6.95 L15.7 6.7 15.7 6.75 Q16.15 7.7 15.15 8.25 L12.95 8.4 -8.0 -1.35 Q-10.85 -3.3 -5.2 -1.5 6.0 2.4 5.9 3.4 L9.3 3.5 11.1 4.4 14.0 5.85 12.4 4.65 15.9 5.25" fill="url(#gradient12)" fill-rule="evenodd" stroke="none"/>
      <path d="M18.5 6.15 L19.55 6.6 20.7 7.8 20.7 7.7 22.25 9.25 23.55 9.75 18.45 10.6 16.05 9.65 15.3 9.45 15.0 9.3 Q15.85 9.25 18.3 10.3 18.95 9.45 20.7 9.6 L20.7 8.85 20.7 8.75 15.7 6.75 15.7 6.7 18.3 6.95 Q18.7 6.9 18.5 6.15" fill="url(#gradient13)" fill-rule="evenodd" stroke="none"/>
      <path d="M7.1 2.4 L9.3 3.5 5.9 3.4 Q7.15 3.05 7.1 2.4" fill="#acddd6" fill-rule="evenodd" stroke="none"/>
      <path d="M-33.85 -16.35 L-33.8 -15.8 -33.9 -15.85 -33.95 -15.85 -34.6 -16.6 -34.45 -17.25 Q-33.55 -18.7 -33.45 -17.25 L-33.85 -16.45 -33.9 -16.35 -33.85 -16.35 M-24.9 -11.1 L-23.1 -13.1 Q-21.6 -14.15 -21.9 -13.2 L-21.9 -13.15 -22.15 -12.95 -24.35 -10.7 -24.85 -11.0 -24.9 -11.1 M-17.65 -16.25 L-17.7 -16.3 -17.15 -16.55 -16.3 -16.95 -15.7 -16.8 -15.9 -15.75 -16.8 -15.65 -16.8 -16.25 -21.15 -13.75 -20.95 -13.9 -20.9 -13.95 -17.65 -16.25 -17.15 -16.55 -17.65 -16.25 M-17.6 -12.15 L-17.6 -12.0 -17.6 -11.9 -17.7 -11.45 -17.8 -11.15 -17.7 -11.35 -17.75 -11.1 -19.8 -11.2 -19.85 -11.2 -19.8 -11.15 -19.15 -9.8 -19.65 -8.35 -21.55 -7.55 -20.7 -12.0 -19.1 -11.8 Q-17.85 -11.2 -17.6 -12.15 M-27.6 -4.8 L-28.35 -4.95 -27.9 -6.1 Q-25.15 -9.85 -22.75 -11.45 -25.25 -9.05 -26.2 -7.4 L-25.85 -7.4 Q-26.1 -6.85 -25.55 -6.55 -27.25 -6.45 -27.6 -4.8" fill="url(#gradient14)" fill-rule="evenodd" stroke="none"/>
      <path d="M-15.35 -7.25 Q-17.6 -9.35 -18.55 -8.5 L-18.55 -8.6 -18.55 -8.7 -18.4 -9.75 -0.05 -0.35 -15.35 -7.25" fill="url(#gradient15)" fill-rule="evenodd" stroke="none"/>
      <path d="M-24.6 -4.45 L-24.65 -4.4 -27.6 -4.8 Q-27.25 -6.45 -25.55 -6.55 L-25.3 -6.45 Q-24.7 -6.35 -24.6 -4.45 M-18.55 -8.7 L-18.55 -8.6 -18.55 -8.5 Q-17.6 -9.35 -15.35 -7.25 L-18.4 -7.25 -20.45 -6.75 -18.55 -8.7" fill="url(#gradient16)" fill-rule="evenodd" stroke="none"/>
      <path d="M-33.7 -15.8 Q-29.6 -14.7 -25.1 -11.75 L-24.9 -11.1 -24.85 -11.0 -24.35 -10.7 -22.15 -12.95 -21.9 -13.15 -21.85 -13.2 -21.8 -13.2 -21.45 -13.6 -22.5 -14.0 -24.2 -13.95 Q-28.45 -15.8 -30.95 -19.2 L-31.9 -19.2 Q-33.9 -18.85 -34.45 -17.25 L-34.6 -16.6 -33.95 -15.85 -33.9 -15.85 -33.8 -15.8 M-21.9 -13.2 L-21.85 -13.2 M-20.9 -13.95 L-20.6 -14.2 -17.65 -16.25 -17.15 -16.55 -16.3 -16.95 -15.7 -16.8 Q-14.45 -16.4 -13.65 -15.2 L-15.8 -14.3 Q-16.9 -13.85 -17.6 -13.05 L-17.6 -12.15 -17.6 -12.0 -17.55 -12.0 M-17.55 -12.3 L-17.55 -12.1 M-17.6 -11.9 L-17.7 -11.45 -17.8 -11.15 -17.7 -11.35 M-17.75 -11.1 L-17.1 -11.2 -17.1 -11.15 -17.05 -11.2 -15.9 -11.95 Q-13.7 -9.95 -5.8 -5.35 -4.2 -4.3 3.25 -0.6 10.6 3.0 13.5 4.2 L15.9 5.25 M16.05 9.65 L15.3 9.45 15.0 9.3 12.95 8.4 -8.0 -1.35 Q-15.6 -5.5 -21.55 -6.3 L-21.6 -6.35 -19.7 -8.25 -19.65 -8.35 -21.55 -7.55 -22.8 -7.25 -23.9 -6.65 -24.6 -4.45 -24.65 -4.4 -27.6 -4.8 -28.35 -4.95 -27.9 -6.1 -27.0 -7.85 -24.35 -10.7 M-21.15 -13.75 L-20.95 -13.9 -20.9 -13.95 M-21.8 -13.2 L-21.15 -13.75 M-23.85 -6.75 L-23.9 -6.65 -23.95 -6.65 -23.85 -6.75 -23.75 -7.2 M-25.85 -7.4 L-25.8 -7.5 M-14.25 -15.4 L-13.65 -15.2 M-17.6 -12.0 L-17.6 -11.9 M-19.8 -11.15 L-19.8 -11.2 -19.85 -11.2 -19.8 -11.15 -8.4 -5.15 M-5.4 -4.9 L-5.8 -5.35 M-19.8 -11.2 L-17.75 -11.1 M-19.65 -8.35 L-19.15 -9.8 -19.8 -11.15 M20.7 8.75 L20.7 8.85 M15.7 6.7 L15.7 6.75" ffdec:has-small-stroke="true" ffdec:original-stroke-width="0.125" fill="none" stroke="#000000" stroke-linecap="round" stroke-linejoin="round" stroke-opacity="0.3019608" stroke-width="0.4193419212378651"/>
    </g>
    <linearGradient gradientTransform="matrix(-0.019, -0.011, 0.0027, -0.0047, 4.35, -2.7)" gradientUnits="userSpaceOnUse" id="gradient2" spreadMethod="pad" x1="-819.2" x2="819.2">
      <stop offset="0.20784313725490197" stop-color="#acddd6"/>
      <stop offset="1.0" stop-color="#276155"/>
    </linearGradient>
    <linearGradient gradientTransform="matrix(-0.019, -0.011, 0.0027, -0.0047, 4.35, -2.7)" gradientUnits="userSpaceOnUse" id="gradient3" spreadMethod="pad" x1="-819.2" x2="819.2">
      <stop offset="0.20784313725490197" stop-color="#acddd6"/>
      <stop offset="0.3607843137254902" stop-color="#204f45"/>
    </linearGradient>
    <linearGradient gradientTransform="matrix(-0.0201, -0.0065, 0.0015, -0.0046, -2.8, -1.75)" gradientUnits="userSpaceOnUse" id="gradient4" spreadMethod="pad" x1="-819.2" x2="819.2">
      <stop offset="0.32941176470588235" stop-color="#d1e9e1"/>
      <stop offset="0.8980392156862745" stop-color="#50a78c"/>
    </linearGradient>
    <linearGradient gradientTransform="matrix(-0.019, -0.011, 0.0027, -0.0047, 4.35, -2.7)" gradientUnits="userSpaceOnUse" id="gradient5" spreadMethod="pad" x1="-819.2" x2="819.2">
      <stop offset="0.20784313725490197" stop-color="#acddd6"/>
      <stop offset="0.6627450980392157" stop-color="#276155"/>
    </linearGradient>
    <linearGradient gradientTransform="matrix(-0.019, -0.011, 0.0027, -0.0047, 4.35, -2.7)" gradientUnits="userSpaceOnUse" id="gradient6" spreadMethod="pad" x1="-819.2" x2="819.2">
      <stop offset="0.20784313725490197" stop-color="#acddd6"/>
      <stop offset="0.5803921568627451" stop-color="#235449"/>
    </linearGradient>
    <linearGradient gradientTransform="matrix(-0.0123, -0.0021, 8.0E-4, -0.0048, 8.45, 3.3)" gradientUnits="userSpaceOnUse" id="gradient7" spreadMethod="pad" x1="-819.2" x2="819.2">
      <stop offset="0.06274509803921569" stop-color="#ffffff"/>
      <stop offset="0.49411764705882355" stop-color="#a4cac1"/>
      <stop offset="0.8980392156862745" stop-color="#50a78c"/>
    </linearGradient>
    <linearGradient gradientTransform="matrix(-0.0195, -0.0033, 8.0E-4, -0.0048, 8.45, 3.3)" gradientUnits="userSpaceOnUse" id="gradient8" spreadMethod="pad" x1="-819.2" x2="819.2">
      <stop offset="0.06274509803921569" stop-color="#ffffff"/>
      <stop offset="0.3686274509803922" stop-color="#a4cac1"/>
      <stop offset="0.8980392156862745" stop-color="#50a78c"/>
    </linearGradient>
    <linearGradient gradientTransform="matrix(-0.019, -0.011, 0.0027, -0.0047, 4.35, -2.7)" gradientUnits="userSpaceOnUse" id="gradient9" spreadMethod="pad" x1="-819.2" x2="819.2">
      <stop offset="0.20784313725490197" stop-color="#acddd6"/>
      <stop offset="1.0" stop-color="#276155"/>
    </linearGradient>
    <linearGradient gradientTransform="matrix(-0.0201, -0.0065, 0.0015, -0.0046, -2.8, -1.75)" gradientUnits="userSpaceOnUse" id="gradient10" spreadMethod="pad" x1="-819.2" x2="819.2">
      <stop offset="0.32941176470588235" stop-color="#d1e9e1"/>
      <stop offset="0.8980392156862745" stop-color="#50a78c"/>
    </linearGradient>
    <linearGradient gradientTransform="matrix(-0.019, -0.011, 0.0027, -0.0047, 4.35, -2.7)" gradientUnits="userSpaceOnUse" id="gradient11" spreadMethod="pad" x1="-819.2" x2="819.2">
      <stop offset="0.20784313725490197" stop-color="#acddd6"/>
      <stop offset="0.6627450980392157" stop-color="#276155"/>
    </linearGradient>
    <linearGradient gradientTransform="matrix(-0.0123, -0.0021, 8.0E-4, -0.0048, 8.45, 3.3)" gradientUnits="userSpaceOnUse" id="gradient12" spreadMethod="pad" x1="-819.2" x2="819.2">
      <stop offset="0.06274509803921569" stop-color="#ffffff"/>
      <stop offset="0.49411764705882355" stop-color="#a4cac1"/>
      <stop offset="0.8980392156862745" stop-color="#50a78c"/>
    </linearGradient>
    <linearGradient gradientTransform="matrix(-0.0195, -0.0033, 8.0E-4, -0.0048, 8.45, 3.3)" gradientUnits="userSpaceOnUse" id="gradient13" spreadMethod="pad" x1="-819.2" x2="819.2">
      <stop offset="0.06274509803921569" stop-color="#ffffff"/>
      <stop offset="0.3686274509803922" stop-color="#a4cac1"/>
      <stop offset="0.8980392156862745" stop-color="#50a78c"/>
    </linearGradient>
    <linearGradient gradientTransform="matrix(-0.019, -0.011, 0.0027, -0.0047, 4.35, -2.7)" gradientUnits="userSpaceOnUse" id="gradient14" spreadMethod="pad" x1="-819.2" x2="819.2">
      <stop offset="0.21176470588235294" stop-color="#acddd6"/>
      <stop offset="0.3686274509803922" stop-color="#1c443a"/>
    </linearGradient>
    <linearGradient gradientTransform="matrix(-0.019, -0.011, 0.0027, -0.0047, 4.35, -2.7)" gradientUnits="userSpaceOnUse" id="gradient15" spreadMethod="pad" x1="-819.2" x2="819.2">
      <stop offset="0.5607843137254902" stop-color="#acddd6"/>
      <stop offset="0.8313725490196079" stop-color="#1e483a"/>
    </linearGradient>
    <linearGradient gradientTransform="matrix(-0.0123, -0.0021, 8.0E-4, -0.0048, 8.45, 3.3)" gradientUnits="userSpaceOnUse" id="gradient16" spreadMethod="pad" x1="-819.2" x2="819.2">
      <stop offset="0.06274509803921569" stop-color="#ffffff"/>
      <stop offset="0.33725490196078434" stop-color="#a4cac1"/>
      <stop offset="0.7725490196078432" stop-color="#3c7962"/>
    </linearGradient>
  </defs>
</svg>
