<?xml version="1.0" encoding="UTF-8" standalone="no"?>
<svg xmlns:ffdec="https://www.free-decompiler.com/flash" xmlns:xlink="http://www.w3.org/1999/xlink" ffdec:objectType="frame" height="37.725px" width="22.5px" xmlns="http://www.w3.org/2000/svg">
  <g transform="matrix(1.5, 0.0, 0.0, 1.5, 11.4, 35.925)">
    <use ffdec:characterId="67" height="31.55" transform="matrix(0.8, 0.0, 0.0, 0.8, 0.0, 0.0)" width="18.85" xlink:href="#sprite0"/>
  </g>
  <defs>
    <g id="sprite0">
      <use ffdec:characterId="21" height="8.05" transform="matrix(1.0, 0.0, 0.0, 1.0, -1.9, -3.25)" width="7.9" xlink:href="#sprite1"/>
      <use ffdec:characterId="20" height="4.25" transform="matrix(0.8, 0.0, 0.0, 0.8, 0.0, 0.0)" width="14.7" xlink:href="#sprite3"/>
      <use ffdec:characterId="23" height="5.05" transform="matrix(1.0, 0.0, 0.0, 1.0, 2.3, -6.6)" width="4.95" xlink:href="#sprite4"/>
      <use ffdec:characterId="29" height="11.7" transform="matrix(1.0, 0.0, 0.0, 1.0, 0.95, -5.65)" width="9.35" xlink:href="#sprite5"/>
      <use ffdec:characterId="31" height="4.45" transform="matrix(1.0, 0.0, 0.0, 1.0, -1.6, -5.35)" width="4.95" xlink:href="#sprite6"/>
      <use ffdec:characterId="25" height="3.8" transform="matrix(1.0, 0.0, 0.0, 1.0, -2.7, -6.35)" width="4.4" xlink:href="#sprite7"/>
      <use ffdec:characterId="27" height="6.4" transform="matrix(1.0, 0.0, 0.0, 1.0, -2.55, -11.8)" width="3.85" xlink:href="#sprite8"/>
      <use ffdec:characterId="34" height="20.55" transform="matrix(1.0, 0.0, 0.0, 1.0, 0.3, -13.85)" width="18.85" xlink:href="#sprite9"/>
    </g>
    <g id="sprite1">
      <use ffdec:characterId="10" height="12.8" transform="matrix(0.6127, 0.0, 0.0, 0.6333, -1.2, -0.7)" width="13.0" xlink:href="#sprite2"/>
    </g>
    <g id="sprite2">
      <use ffdec:characterId="9" height="12.8" transform="matrix(1.0, 0.0, 0.0, 1.0, 0.0, 0.0)" width="13.0" xlink:href="#shape0"/>
    </g>
    <g id="shape0">
      <path d="M3.25 -1.4 Q3.25 0.9 1.55 2.5 -0.1 4.1 -2.5 4.1 -4.9 4.1 -6.6 2.5 -8.25 0.9 -8.25 -1.4 -8.25 -3.7 -6.6 -5.3 -4.9 -6.9 -2.5 -6.9 -0.1 -6.9 1.55 -5.3 3.25 -3.7 3.25 -1.4" fill="#fffff1" fill-rule="evenodd" stroke="none"/>
      <path d="M4.2 -3.3 Q4.6 -2.85 3.95 -2.55 3.3 -2.3 3.05 -2.75 2.75 -3.25 3.3 -3.5 L4.2 -3.3 M2.3 -5.05 L2.35 -4.95 Q2.75 -4.35 2.2 -4.05 1.7 -3.75 1.25 -4.25 L1.05 -4.55 0.75 -5.0 Q0.35 -5.9 1.15 -6.4 1.95 -6.95 2.35 -6.1 2.6 -5.55 2.3 -5.05 M4.0 -0.85 Q4.25 -0.1 3.7 0.15 3.15 0.45 2.8 -0.05 2.45 -0.5 3.1 -1.05 3.75 -1.55 4.0 -0.85 M0.2 -5.75 Q-0.5 -5.45 -0.9 -6.0 -1.35 -6.55 -0.55 -7.2 0.25 -7.85 0.55 -6.95 0.85 -6.1 0.2 -5.75 M1.85 1.75 Q1.65 1.35 2.0 1.15 2.35 0.9 2.5 1.25 2.7 1.65 2.35 1.9 2.0 2.15 1.85 1.75 M0.35 3.3 Q-0.35 2.65 0.55 2.0 1.4 1.35 1.95 2.25 2.45 3.15 1.75 3.55 1.0 3.95 0.35 3.3 M-1.8 -6.2 Q-2.85 -5.75 -3.3 -6.5 -3.75 -7.3 -2.9 -7.7 -2.1 -8.15 -1.45 -7.4 -0.8 -6.65 -1.8 -6.2 M-6.75 -4.65 Q-7.2 -4.3 -7.4 -4.85 -7.65 -5.35 -7.2 -5.65 -6.75 -5.95 -6.55 -5.5 -6.3 -5.0 -6.75 -4.65 M-8.55 -0.9 Q-8.8 -1.35 -8.3 -1.55 L-7.45 -1.4 Q-7.05 -0.95 -7.7 -0.7 -8.3 -0.45 -8.55 -0.9 M-7.55 -2.65 Q-8.1 -2.35 -8.45 -2.85 -8.8 -3.3 -8.15 -3.85 -7.5 -4.35 -7.25 -3.65 -7.0 -2.9 -7.55 -2.65 M-4.7 -5.9 Q-5.3 -5.55 -5.9 -6.1 -6.45 -6.7 -5.7 -7.25 -4.95 -7.75 -4.55 -7.0 -4.1 -6.25 -4.7 -5.9 M-1.75 4.05 Q-2.05 3.5 -1.45 3.2 -0.85 2.9 -0.4 3.45 0.05 4.0 -0.7 4.3 -1.4 4.6 -1.75 4.05 M-4.3 4.5 Q-4.85 3.75 -3.8 2.95 -2.8 2.1 -2.4 3.25 -2.0 4.35 -2.85 4.8 -3.75 5.25 -4.3 4.5 M-7.05 1.9 Q-7.75 2.25 -8.35 1.65 -8.95 1.05 -8.15 0.45 -7.35 -0.15 -6.85 0.7 -6.4 1.5 -7.05 1.9 M-5.4 3.9 Q-5.85 4.3 -6.1 3.75 -6.35 3.2 -5.85 2.85 -5.4 2.55 -5.15 3.05 -4.9 3.55 -5.4 3.9" fill="#648461" fill-rule="evenodd" stroke="none"/>
    </g>
    <g id="sprite3">
      <use ffdec:characterId="1" height="4.25" transform="matrix(1.0, 0.0, 0.0, 1.0, 0.0, 0.0)" width="14.7" xlink:href="#shape1"/>
    </g>
    <g id="shape1">
      <path d="M5.75 -1.9 Q7.9 -1.45 7.95 -0.55 8.0 0.3 5.9 1.0 3.75 1.75 0.7 1.95 L-4.55 1.65 Q-6.75 1.15 -6.75 0.3 -6.8 -0.55 -4.7 -1.3 -2.55 -2.05 0.5 -2.2 L5.75 -1.9" fill="#664316" fill-rule="evenodd" stroke="none"/>
    </g>
    <g id="sprite4">
      <use ffdec:characterId="22" height="5.05" transform="matrix(1.0, 0.0, 0.0, 1.0, 0.0, 0.0)" width="4.95" xlink:href="#shape2"/>
    </g>
    <g id="shape2">
      <path d="M1.3 2.25 L2.5 3.6 Q2.2 4.2 2.2 5.2 2.25 6.0 1.65 6.55 L-0.35 6.95 Q0.9 6.0 1.3 2.25" fill="#d3f1c6" fill-rule="evenodd" stroke="none"/>
      <path d="M-0.35 6.95 Q-1.7 7.0 -2.45 6.25 L-1.2 2.2 1.3 2.25 Q0.9 6.0 -0.35 6.95" fill="#648461" fill-rule="evenodd" stroke="none"/>
      <path d="M2.5 3.6 Q2.2 4.2 2.2 5.2 2.25 6.0 1.65 6.55 L-0.35 6.95 Q-1.7 7.0 -2.45 6.25 L-1.2 2.2" ffdec:has-small-stroke="true" ffdec:original-stroke-width="0.075" fill="none" stroke="#46472b" stroke-linecap="round" stroke-linejoin="round" stroke-opacity="0.49803922" stroke-width="0.8333460491849141"/>
    </g>
    <g id="sprite5">
      <use ffdec:characterId="28" height="11.7" transform="matrix(1.0, 0.0, 0.0, 1.0, 0.0, 0.0)" width="9.35" xlink:href="#shape3"/>
    </g>
    <g id="shape3">
      <path d="M3.0 -4.95 L3.9 -3.55 4.25 -2.95 Q1.4 -1.7 -0.2 -1.95 0.5 -4.5 3.0 -4.95" fill="#f4ffdb" fill-rule="evenodd" stroke="none"/>
      <path d="M1.6 -7.4 L3.0 -4.95 Q0.5 -4.5 -0.2 -1.95 -2.0 -2.25 -3.95 -5.05 L-3.65 -6.75 1.6 -7.4" fill="#648461" fill-rule="evenodd" stroke="none"/>
      <path d="M3.2 3.55 L2.15 4.0 Q-0.05 4.75 -2.3 3.5 -4.45 1.3 -4.45 -1.35 L-3.95 -5.05 Q-2.0 -2.25 -0.2 -1.95 -2.0 4.45 3.2 3.55" fill="#d3f1c6" fill-rule="evenodd" stroke="none"/>
      <path d="M4.25 -2.95 Q5.3 -0.8 4.65 1.6 4.35 2.8 3.2 3.55 -2.0 4.45 -0.2 -1.95 1.4 -1.7 4.25 -2.95" fill="#ffffed" fill-rule="evenodd" stroke="none"/>
      <path d="M1.6 -7.4 L3.0 -4.95 3.9 -3.55 4.25 -2.95 Q5.3 -0.8 4.65 1.6 4.35 2.8 3.2 3.55 L2.15 4.0 Q-0.05 4.75 -2.3 3.5 -4.45 1.3 -4.45 -1.35 L-3.95 -5.05 -3.65 -6.75" ffdec:has-small-stroke="true" ffdec:original-stroke-width="0.075" fill="none" stroke="#46472b" stroke-linecap="round" stroke-linejoin="round" stroke-opacity="0.49803922" stroke-width="0.8333460491849141"/>
    </g>
    <g id="sprite6">
      <use ffdec:characterId="30" height="4.45" transform="matrix(1.0, 0.0, 0.0, 1.0, 0.0, 0.0)" width="4.95" xlink:href="#shape4"/>
    </g>
    <g id="shape4">
      <path d="M2.5 3.7 Q2.2 4.25 2.2 5.15 2.25 5.85 1.65 6.35 -1.15 7.15 -2.45 6.05 -1.85 3.7 -1.2 2.5 1.05 1.6 2.5 3.7" fill="#d3f1c6" fill-rule="evenodd" stroke="none"/>
      <path d="M2.5 3.7 Q2.2 4.25 2.2 5.15 2.25 5.85 1.65 6.35 -1.15 7.15 -2.45 6.05 -1.85 3.7 -1.2 2.5" ffdec:has-small-stroke="true" ffdec:original-stroke-width="0.075" fill="none" stroke="#46472b" stroke-linecap="round" stroke-linejoin="round" stroke-opacity="0.49803922" stroke-width="0.8333460491849141"/>
    </g>
    <g id="sprite7">
      <use ffdec:characterId="24" height="3.8" transform="matrix(1.0, 0.0, 0.0, 1.0, 0.0, 0.0)" width="4.4" xlink:href="#shape5"/>
    </g>
    <g id="shape5">
      <path d="M2.2 0.45 Q2.2 2.3 1.4 3.7 L0.05 3.8 -1.35 3.45 -2.05 2.9 Q-2.35 2.3 -2.05 1.6 -1.65 0.7 -1.7 0.0 L2.2 0.45 M-1.35 3.45 L-1.1 2.8 -1.35 3.45 M0.3 3.0 L0.05 3.8 0.3 3.0" fill="#d3f1c6" fill-rule="evenodd" stroke="none"/>
      <path d="M2.2 0.45 Q2.2 2.3 1.4 3.7 L0.05 3.8 -1.35 3.45 -2.05 2.9 Q-2.35 2.3 -2.05 1.6 -1.65 0.7 -1.7 0.0 M0.05 3.8 L0.3 3.0 M-1.1 2.8 L-1.35 3.45" ffdec:has-small-stroke="true" ffdec:original-stroke-width="0.075" fill="none" stroke="#46472b" stroke-linecap="round" stroke-linejoin="round" stroke-opacity="0.49803922" stroke-width="0.8333460491849141"/>
    </g>
    <g id="sprite8">
      <use ffdec:characterId="26" height="6.4" transform="matrix(1.0, 0.0, 0.0, 1.0, 0.0, 0.0)" width="3.85" xlink:href="#shape6"/>
    </g>
    <g id="shape6">
      <path d="M-1.4 5.8 L-1.9 5.7 Q-1.95 2.9 -0.55 0.0 L1.55 0.8 1.75 2.55 0.4 1.5 -1.4 5.8" fill="#648461" fill-rule="evenodd" stroke="none"/>
      <path d="M1.75 2.55 L1.9 6.4 -1.4 5.8 0.4 1.5 1.75 2.55" fill="#d3f1c6" fill-rule="evenodd" stroke="none"/>
      <path d="M1.75 2.55 L1.9 6.4 M-1.9 5.7 Q-1.95 2.9 -0.55 0.0 M1.55 0.8 L1.75 2.55" ffdec:has-small-stroke="true" ffdec:original-stroke-width="0.075" fill="none" stroke="#46472b" stroke-linecap="round" stroke-linejoin="round" stroke-opacity="0.49803922" stroke-width="0.8333460491849141"/>
    </g>
    <g id="sprite9">
      <use ffdec:characterId="33" height="33.7" transform="matrix(0.5856, -0.0257, 0.0, 0.5856, 1.0, 1.7)" width="32.3" xlink:href="#sprite10"/>
    </g>
    <g id="sprite10">
      <use ffdec:characterId="32" height="33.7" transform="matrix(1.0, 0.0, 0.0, 1.0, 0.0, 0.0)" width="32.3" xlink:href="#shape7"/>
    </g>
    <g id="shape7">
      <path d="M-1.25 -19.6 L0.25 -24.7 5.35 -29.9 5.15 -27.35 7.8 -27.0 9.85 -27.45 12.35 -21.35 9.6 -15.25 Q6.75 -14.0 2.7 -14.75 L1.3 -16.4 2.4 -20.1 4.2 -21.7 5.45 -20.35 5.35 -18.25 6.25 -18.35 6.15 -20.55 4.7 -22.1 4.8 -22.25 7.45 -23.0 8.2 -21.85 9.05 -22.4 7.1 -23.7 2.7 -22.55 0.0 -18.0 -1.25 -19.6" fill="#d3f1c6" fill-rule="evenodd" stroke="none"/>
      <path d="M1.3 -16.4 L0.0 -18.0 2.7 -22.55 7.1 -23.7 9.05 -22.4 8.2 -21.85 7.45 -23.0 4.8 -22.25 4.65 -22.15 4.7 -22.1 6.15 -20.55 6.25 -18.35 5.35 -18.25 5.45 -20.35 4.2 -21.7 2.4 -20.1 1.3 -16.4" fill="#614a33" fill-rule="evenodd" stroke="none"/>
      <path d="M4.8 -22.25 L4.7 -22.1 4.65 -22.15 4.8 -22.25" fill="#ffe281" fill-rule="evenodd" stroke="none"/>
      <path d="M-1.25 -19.6 L0.25 -24.7 5.35 -29.9 5.15 -27.35 7.8 -27.0 9.85 -27.45 12.35 -21.35 9.6 -15.25 Q6.75 -14.0 2.7 -14.75" ffdec:has-small-stroke="true" ffdec:original-stroke-width="0.075" fill="none" stroke="#2e1733" stroke-linecap="round" stroke-linejoin="round" stroke-opacity="0.3019608" stroke-width="1.423059218286063"/>
      <path d="M-1.9 -22.4 Q-1.0 -22.8 0.35 -23.85 1.7 -25.0 3.95 -25.6 1.4 -22.7 2.8 -22.15 3.6 -25.65 5.0 -21.2 L6.6 -19.3 9.25 -12.0 13.05 -5.75 Q13.85 -4.6 13.7 -2.6 12.5 0.75 8.95 2.8 5.1 3.85 1.05 3.8 L1.25 -8.4 -1.65 -17.5 -2.0 -21.65 -1.9 -22.4" fill="#d3f1c6" fill-rule="evenodd" stroke="none"/>
      <path d="M1.05 3.8 Q-4.15 3.75 -9.7 1.8 -14.5 0.5 -15.7 -3.1 -17.4 -5.95 -16.0 -8.2 -14.35 -11.0 -13.2 -11.55 L-10.3 -18.95 -8.8 -20.35 -5.35 -22.3 Q0.15 -26.05 -2.75 -22.5 L-1.9 -22.4 -2.0 -21.65 -1.65 -17.5 1.25 -8.4 1.05 3.8" fill="#648461" fill-rule="evenodd" stroke="none"/>
      <path d="M-1.9 -22.4 Q-1.0 -22.8 0.35 -23.85 1.7 -25.0 3.95 -25.6 1.4 -22.7 2.8 -22.15 3.6 -25.65 5.0 -21.2 L6.6 -19.3 9.25 -12.0 13.05 -5.75 Q13.85 -4.6 13.7 -2.6 12.5 0.75 8.95 2.8 5.1 3.85 1.05 3.8 -4.15 3.75 -9.7 1.8 -14.5 0.5 -15.7 -3.1 -17.4 -5.95 -16.0 -8.2 -14.35 -11.0 -13.2 -11.55 L-10.3 -18.95 -8.8 -20.35 -5.35 -22.3 Q0.15 -26.05 -2.75 -22.5 L-1.9 -22.4 Z" ffdec:has-small-stroke="true" ffdec:original-stroke-width="0.075" fill="none" stroke="#2e1733" stroke-linecap="round" stroke-linejoin="round" stroke-opacity="0.3019608" stroke-width="1.423059218286063"/>
      <path d="M7.8 -6.85 Q7.75 -7.8 8.35 -8.45 9.0 -8.9 9.95 -8.9 10.85 -8.95 11.5 -8.5 12.25 -7.85 12.35 -6.9 12.4 -6.0 11.75 -5.5 11.1 -4.85 10.15 -4.8 9.2 -4.85 8.55 -5.45 7.85 -5.95 7.8 -6.85 M-4.0 -5.2 L-6.3 -4.9 Q-7.65 -5.1 -8.5 -5.9 -9.35 -6.6 -9.2 -7.55 -9.05 -8.45 -8.0 -8.9 L-5.65 -9.0 Q-4.35 -8.8 -3.45 -8.15 -2.55 -7.3 -2.7 -6.35 -2.9 -5.45 -4.0 -5.2" fill="#ffffff" fill-opacity="0.6" fill-rule="evenodd" stroke="none"/>
      <path d="M3.4 -10.25 L1.75 -5.95 Q0.65 -2.15 1.05 -0.25 L1.65 1.35 Q-0.05 0.6 -1.25 -0.95 -0.45 -5.5 2.5 -10.0 L3.4 -10.25" fill="#fae3cc" fill-rule="evenodd" stroke="none"/>
      <path d="M1.65 1.35 L1.05 -0.25 Q0.65 -2.15 1.75 -5.95 L3.4 -10.25 6.15 -9.7 Q8.7 -7.65 10.4 -2.5 10.65 -0.55 8.35 1.25 4.4 2.45 1.65 1.35" fill="#46472b" fill-rule="evenodd" stroke="none"/>
      <path d="M1.65 1.35 Q4.4 2.45 8.35 1.25 10.65 -0.55 10.4 -2.5 8.7 -7.65 6.15 -9.7 L3.4 -10.25 2.5 -10.0 Q-0.45 -5.5 -1.25 -0.95 -0.05 0.6 1.65 1.35 Z" ffdec:has-small-stroke="true" ffdec:original-stroke-width="0.075" fill="none" stroke="#2e1733" stroke-linecap="round" stroke-linejoin="round" stroke-opacity="0.3019608" stroke-width="1.423059218286063"/>
      <path d="M-11.2 -10.8 L-13.5 -10.25 -18.6 -15.0 -18.4 -22.8 -16.15 -23.5 -13.6 -25.45 -14.8 -27.95 -7.7 -25.45 -2.25 -20.3 -3.75 -18.35 -10.0 -24.45 -12.85 -25.15 -15.95 -21.85 -14.95 -19.2 -15.65 -18.05 -14.55 -17.9 -14.45 -17.95 -14.35 -17.6 -12.0 -13.8 -11.2 -10.8" fill="#d3f1c6" fill-rule="evenodd" stroke="none"/>
      <path d="M-14.55 -17.9 L-15.65 -18.05 -14.95 -19.2 -14.2 -20.5 -9.3 -21.85 -3.45 -17.2 -4.95 -15.85 -8.1 -19.45 -10.5 -20.1 -11.25 -17.95 -10.35 -15.85 -11.35 -15.4 -12.05 -17.75 -11.15 -20.25 -11.3 -20.3 -14.3 -19.55 -14.55 -18.15 -14.55 -17.9" fill="#614a33" fill-rule="evenodd" stroke="none"/>
      <path d="M-11.2 -10.8 L-12.0 -13.8 -14.35 -17.6 -14.45 -17.95 -14.55 -18.15 -14.3 -19.55 -11.3 -20.3 -11.15 -20.25 -12.05 -17.75 -11.35 -15.4 -10.35 -15.85 -11.25 -17.95 -10.5 -20.1 -8.1 -19.45 -4.95 -15.85 -6.3 -13.7 Q-8.85 -11.65 -11.2 -10.8 M-14.95 -19.2 L-15.95 -21.85 -12.85 -25.15 -10.0 -24.45 -3.75 -18.35 -3.45 -17.2 -9.3 -21.85 -14.2 -20.5 -14.95 -19.2" fill="#648461" fill-rule="evenodd" stroke="none"/>
      <path d="M-14.45 -17.95 L-14.55 -17.9 -14.55 -18.15 -14.45 -17.95" fill="#ffe281" fill-rule="evenodd" stroke="none"/>
      <path d="M-2.25 -20.3 L-7.7 -25.45 -14.8 -27.95 -13.6 -25.45 -16.15 -23.5 -18.4 -22.8 -18.6 -15.0 -13.5 -10.25 -11.2 -10.8" ffdec:has-small-stroke="true" ffdec:original-stroke-width="0.075" fill="none" stroke="#2e1733" stroke-linecap="round" stroke-linejoin="round" stroke-opacity="0.3019608" stroke-width="1.423059218286063"/>
      <path d="M6.85 -13.0 L6.9 -12.05 6.8 -10.95 6.7 -10.65 6.25 -10.15 Q5.95 -10.25 5.75 -10.85 L5.55 -12.35 5.75 -13.75 5.85 -14.0 Q6.6 -15.25 6.85 -13.0 M-0.95 -11.4 L-0.9 -10.45 -1.0 -9.35 -1.1 -9.05 -1.55 -8.55 -2.05 -9.25 -2.25 -10.75 -2.05 -12.15 -1.95 -12.4 Q-1.2 -13.65 -0.95 -11.4" fill="#664f38" fill-rule="evenodd" stroke="none"/>
      <path d="M6.85 -13.0 L6.9 -12.05 6.8 -10.95 6.7 -10.65 6.25 -10.15 Q5.95 -10.25 5.75 -10.85 L5.55 -12.35 5.75 -13.75 5.85 -14.0 M-1.95 -12.4 L-2.05 -12.15 -2.25 -10.75 -2.05 -9.25 -1.55 -8.55 -1.1 -9.05 -1.0 -9.35 -0.9 -10.45 -0.95 -11.4" ffdec:has-small-stroke="true" ffdec:original-stroke-width="0.15" fill="none" stroke="#2e1700" stroke-linecap="round" stroke-linejoin="round" stroke-opacity="0.3019608" stroke-width="1.423059218286063"/>
    </g>
  </defs>
</svg>
