<?xml version="1.0" encoding="UTF-8" standalone="no"?>
<svg xmlns:ffdec="https://www.free-decompiler.com/flash" xmlns:xlink="http://www.w3.org/1999/xlink" ffdec:objectType="shape" height="579.5350000000001px" width="502.86500000000007px" xmlns="http://www.w3.org/2000/svg">
  <g transform="matrix(1.1, 0.0, 0.0, 1.1, 251.405, 267.575)">
    <path d="M-11.7 -87.6 Q29.55 -80.55 54.1 -60.65 L61.35 -53.4 57.95 -45.45 Q51.45 -43.25 54.7 -33.85 71.65 -22.2 82.55 -4.3 82.75 -10.85 80.7 -17.65 91.4 -0.3 91.9 15.1 77.1 21.75 73.9 36.1 73.5 28.6 77.9 17.1 66.45 21.15 54.7 26.85 40.35 33.75 25.5 43.15 32.8 27.85 25.5 8.95 6.75 6.15 -3.85 -14.85 -30.65 9.8 -43.55 46.05 L-52.05 38.65 Q-40.85 1.65 -21.3 -33.2 L-19.0 -65.85 Q-57.45 -68.8 -90.15 -53.55 L-85.4 -65.2 Q-42.75 -84.7 -11.7 -87.6" fill="url(#gradient0)" fill-rule="evenodd" stroke="none"/>
    <path d="M91.9 15.1 Q91.4 -0.3 80.7 -17.65 L80.35 -18.75 Q75.95 -32.05 62.95 -46.15 L57.95 -45.45 61.35 -53.4 Q92.15 -21.1 98.7 13.85 L91.9 15.1 M-175.9 164.05 Q-201.9 162.4 -225.65 148.85 -228.9 147.05 -222.85 141.35 L-218.9 146.55 Q-217.7 148.45 -212.05 150.4 -196.75 158.5 -183.45 153.05 -171.65 161.6 -175.9 164.05 M-172.25 -30.25 Q-180.35 -55.15 -175.15 -77.35 -174.9 -47.9 -167.0 -35.55 L-172.25 -30.25 M4.2 89.85 L8.05 92.15 Q5.45 102.1 -9.1 100.1 L-14.95 96.9 Q1.4 96.2 4.2 89.85" fill="#e4b464" fill-rule="evenodd" stroke="none"/>
    <path d="M-11.7 -87.6 Q-42.75 -84.7 -85.4 -65.2 L-90.15 -53.55 Q-57.45 -68.8 -19.0 -65.85 L-21.3 -33.2 Q-40.85 1.65 -52.05 38.65 L-43.55 46.05 Q-30.65 9.8 -3.85 -14.85 6.75 6.15 25.5 8.95 32.8 27.85 25.5 43.15 40.35 33.75 54.7 26.85 66.45 21.15 77.9 17.1 73.5 28.6 73.9 36.1 77.1 21.75 91.9 15.1 L98.7 13.85 Q131.1 8.3 152.75 13.55 129.55 30.8 96.9 42.3 71.4 53.3 43.7 61.5 22.15 67.9 -0.75 72.6 -0.85 67.6 3.65 61.5 7.3 56.45 14.1 50.65 8.2 54.65 2.3 59.05 L-1.0 61.5 -3.1 63.1 -7.8 63.2 Q-13.0 75.85 -7.8 84.2 -3.7 95.25 -13.4 92.65 -22.4 81.55 -19.2 70.4 -54.2 92.55 -90.85 100.05 -138.05 110.45 -181.55 100.7 -199.75 95.7 -212.1 88.05 -214.95 82.4 -217.45 96.4 -225.95 52.4 -208.15 16.3 -191.35 -10.3 -172.25 -30.25 L-167.0 -35.55 Q-160.75 -41.7 -154.25 -47.15 -169.55 -61.65 -172.25 -86.9 -152.65 -76.05 -140.5 -57.7 L-134.05 -62.05 Q-90.15 -90.3 -36.35 -90.55 -23.35 -89.6 -11.7 -87.6 M80.7 -17.65 Q82.75 -10.85 82.55 -4.3 71.65 -22.2 54.7 -33.85 51.45 -43.25 57.95 -45.45 L62.95 -46.15 Q75.95 -32.05 80.35 -18.75 L80.7 -17.65 M25.5 43.15 L14.1 50.65 25.5 43.15 M33.7 61.1 Q38.8 44.7 54.7 26.85 38.8 44.7 33.7 61.1 M-154.25 -47.15 Q-147.5 -52.8 -140.5 -57.7 -147.5 -52.8 -154.25 -47.15 M-14.1 59.05 Q0.05 51.15 2.3 59.05 0.05 51.15 -14.1 59.05 M-137.7 68.7 L-137.65 68.55 -137.4 67.9 -136.95 66.7 Q-135.5 62.5 -135.1 57.75 -134.45 50.2 -136.45 41.35 L-134.05 40.45 Q-125.75 37.0 -119.55 28.4 -126.3 30.75 -134.05 30.55 L-143.25 29.5 -148.05 25.35 Q-136.95 17.1 -134.95 4.25 -143.75 16.85 -156.15 16.8 -152.65 11.7 -153.75 4.75 -158.0 11.1 -165.9 15.7 L-176.9 17.85 Q-192.9 24.4 -193.7 44.25 L-189.35 40.85 Q-193.15 79.55 -168.15 87.5 -158.25 89.55 -151.15 85.7 -147.85 83.85 -145.15 80.7 -143.35 78.55 -141.8 75.85 L-138.45 70.05 -137.7 68.7 M-218.9 146.55 Q-219.5 145.55 -218.95 144.55 -211.85 132.4 -208.85 118.1 -208.0 99.65 -183.45 153.05 -196.75 158.5 -212.05 150.4 -217.7 148.45 -218.9 146.55 M-176.0 174.75 L-172.8 164.7 Q-168.4 163.45 -165.95 174.75 -171.95 179.9 -176.0 174.75" fill="#fede81" fill-rule="evenodd" stroke="none"/>
    <path d="M152.75 13.55 L154.9 14.1 145.3 24.7 Q121.65 45.5 91.35 61.5 76.85 69.15 60.8 75.75 24.75 92.3 -2.1 83.1 0.6 87.15 4.2 89.85 1.4 96.2 -14.95 96.9 L-9.1 100.1 Q5.45 102.1 8.05 92.15 18.75 97.45 35.9 93.1 63.75 82.65 87.2 69.25 L94.85 64.7 Q87.9 104.2 67.7 128.7 67.25 121.4 62.95 118.1 64.7 135.55 56.6 147.25 57.85 140.1 49.7 132.95 49.0 148.0 38.05 157.85 42.35 151.0 38.05 144.1 17.95 181.3 -31.35 191.25 -99.55 198.25 -155.3 171.65 -161.05 178.9 -175.5 180.95 L-180.05 180.05 Q-178.8 171.1 -175.9 164.05 -171.65 161.6 -183.45 153.05 -208.0 99.65 -208.85 118.1 -211.85 132.4 -218.95 144.55 -219.5 145.55 -218.9 146.55 L-222.85 141.35 Q-212.8 130.95 -213.05 114.1 -215.75 105.1 -217.45 96.4 -214.95 82.4 -212.1 88.05 -199.75 95.7 -181.55 100.7 -138.05 110.45 -90.85 100.05 -54.2 92.55 -19.2 70.4 -22.4 81.55 -13.4 92.65 -3.7 95.25 -7.8 84.2 -13.0 75.85 -7.8 63.2 L-3.1 63.1 -1.0 61.5 2.3 59.05 Q8.2 54.65 14.1 50.65 7.3 56.45 3.65 61.5 -0.85 67.6 -0.75 72.6 22.15 67.9 43.7 61.5 71.4 53.3 96.9 42.3 129.55 30.8 152.75 13.55 M-176.0 174.75 Q-171.95 179.9 -165.95 174.75 -168.4 163.45 -172.8 164.7 L-176.0 174.75" fill="url(#gradient1)" fill-rule="evenodd" stroke="none"/>
    <path d="M145.3 24.7 Q127.5 43.05 105.0 58.2 L99.95 61.5 94.85 64.7 87.2 69.25 Q63.75 82.65 35.9 93.1 18.75 97.45 8.05 92.15 L4.2 89.85 Q0.6 87.15 -2.1 83.1 24.75 92.3 60.8 75.75 76.85 69.15 91.35 61.5 121.65 45.5 145.3 24.7" fill="url(#gradient2)" fill-rule="evenodd" stroke="none"/>
    <path d="M105.0 58.2 L104.6 61.5 Q99.2 103.95 76.65 135.7 71.65 142.6 65.9 149.05 71.2 164.8 65.9 177.05 64.85 167.8 59.9 164.05 52.3 181.7 33.9 190.05 42.7 180.35 42.9 169.05 1.15 202.05 -52.1 207.05 -77.6 208.25 -101.8 202.9 L-105.0 202.2 Q-115.95 199.55 -126.6 195.6 -143.15 189.4 -159.05 180.05 -166.75 182.25 -175.5 180.95 -161.05 178.9 -155.3 171.65 -99.55 198.25 -31.35 191.25 17.95 181.3 38.05 144.1 42.35 151.0 38.05 157.85 49.0 148.0 49.7 132.95 57.85 140.1 56.6 147.25 64.7 135.55 62.95 118.1 67.25 121.4 67.7 128.7 87.9 104.2 94.85 64.7 L99.95 61.5 105.0 58.2" fill="url(#gradient3)" fill-rule="evenodd" stroke="none"/>
    <path d="M-101.8 202.9 Q-92.9 214.0 -95.05 225.1 L-100.35 227.2 Q-97.55 216.85 -105.0 202.2 L-101.8 202.9 M-11.1 217.1 Q-8.95 216.85 -6.05 217.9 22.6 237.2 24.8 267.2 22.8 272.55 20.3 274.65 16.35 277.9 9.8 279.6 19.3 274.75 20.6 265.95 20.0 258.0 16.35 249.55 10.6 236.35 -11.1 217.1" fill="#b68f0e" fill-rule="evenodd" stroke="none"/>
    <path d="M-100.35 227.2 Q-114.05 231.5 -138.35 229.9 -166.25 227.7 -158.1 221.75 L-156.5 220.2 Q-144.2 229.4 -113.5 224.05 -100.4 212.65 -118.65 205.4 -124.8 205.35 -130.45 206.45 L-126.6 195.6 Q-115.95 199.55 -105.0 202.2 -97.55 216.85 -100.35 227.2 M-11.1 217.1 Q10.6 236.35 16.35 249.55 20.0 258.0 20.6 265.95 19.3 274.75 9.8 279.6 -5.1 283.5 -33.5 279.45 -40.5 278.55 -38.75 274.2 -34.75 268.2 -30.35 263.7 -34.55 273.75 -28.2 273.3 17.55 274.65 14.7 265.9 12.55 251.0 -3.65 250.15 -13.0 251.0 -21.2 256.15 L-23.85 252.55 Q-13.4 239.0 -16.15 221.75 -14.8 217.5 -11.1 217.1" fill="#b6620e" fill-rule="evenodd" stroke="none"/>
    <path d="M-175.15 -77.35 Q-174.0 -82.2 -172.25 -86.9 -169.55 -61.65 -154.25 -47.15 -160.75 -41.7 -167.0 -35.55 -174.9 -47.9 -175.15 -77.35" fill="#e4a625" fill-rule="evenodd" stroke="none"/>
    <path d="M-189.35 40.85 L-193.7 44.25 Q-192.9 24.4 -176.9 17.85 L-165.9 15.7 Q-158.0 11.1 -153.75 4.75 -152.65 11.7 -156.15 16.8 -143.75 16.85 -134.95 4.25 -136.95 17.1 -148.05 25.35 L-143.25 29.5 -134.05 30.55 Q-126.3 30.75 -119.55 28.4 -125.75 37.0 -134.05 40.45 L-136.45 41.35 Q-134.45 50.2 -135.1 57.75 -135.5 62.5 -136.95 66.7 L-137.4 67.9 -137.65 68.55 -137.7 68.7 -138.45 70.05 -141.8 75.85 Q-145.2 79.3 -149.75 80.5 -160.1 79.25 -161.15 68.0 -162.2 56.7 -159.25 52.8 -158.85 55.25 -157.75 56.35 -155.9 58.2 -153.3 58.2 -150.7 58.2 -148.9 56.35 -147.05 54.55 -147.05 51.95 -147.05 49.35 -148.9 47.5 -150.6 45.8 -153.0 45.7 -152.1 45.15 -151.05 44.7 -144.9 42.05 -137.5 49.45 -138.15 45.65 -139.4 42.15 -142.15 34.6 -147.85 28.4 L-149.7 26.55 Q-151.45 24.9 -153.9 23.45 -156.15 22.15 -159.0 21.0 -166.2 18.05 -172.8 19.1 -180.1 20.25 -184.25 25.85 -188.3 31.25 -189.35 40.85" fill="url(#gradient4)" fill-rule="evenodd" stroke="none"/>
    <path d="M-189.35 40.85 Q-188.3 31.25 -184.25 25.85 -180.1 20.25 -172.8 19.1 -166.2 18.05 -159.0 21.0 -156.15 22.15 -153.9 23.45 -165.55 22.35 -172.05 33.2 -179.45 51.1 -172.05 70.7 -164.4 86.75 -149.75 80.5 -145.2 79.3 -141.8 75.85 -143.35 78.55 -145.15 80.7 -147.85 83.85 -151.15 85.7 -158.25 89.55 -168.15 87.5 -193.15 79.55 -189.35 40.85" fill="url(#gradient5)" fill-rule="evenodd" stroke="none"/>
    <path d="M-153.9 23.45 Q-151.45 24.9 -149.7 26.55 L-147.85 28.4 Q-142.15 34.6 -139.4 42.15 -138.15 45.65 -137.5 49.45 -144.9 42.05 -151.05 44.7 -152.1 45.15 -153.0 45.7 -160.2 46.95 -159.25 52.8 -162.2 56.7 -161.15 68.0 -160.1 79.25 -149.75 80.5 -164.4 86.75 -172.05 70.7 -179.45 51.1 -172.05 33.2 -165.55 22.35 -153.9 23.45" fill="url(#gradient6)" fill-rule="evenodd" stroke="none"/>
    <path d="M-153.0 45.7 Q-150.6 45.8 -148.9 47.5 -147.05 49.35 -147.05 51.95 -147.05 54.55 -148.9 56.35 -150.7 58.2 -153.3 58.2 -155.9 58.2 -157.75 56.35 -158.85 55.25 -159.25 52.8 -160.2 46.95 -153.0 45.7" fill="#ffffff" fill-rule="evenodd" stroke="none"/>
    <path d="M-156.5 220.2 Q-145.3 209.3 -130.45 206.45 -124.8 205.35 -118.65 205.4 -100.4 212.65 -113.5 224.05 -144.2 229.4 -156.5 220.2 M-30.35 263.7 Q-26.0 259.15 -21.2 256.15 -13.0 251.0 -3.65 250.15 12.55 251.0 14.7 265.9 17.55 274.65 -28.2 273.3 -34.55 273.75 -30.35 263.7" fill="#ee8011" fill-rule="evenodd" stroke="none"/>
    <path d="M61.35 -53.4 L54.1 -60.65 Q29.55 -80.55 -11.7 -87.6 -23.35 -89.6 -36.35 -90.55 -90.15 -90.3 -134.05 -62.05 L-140.5 -57.7 Q-152.65 -76.05 -172.25 -86.9 -174.0 -82.2 -175.15 -77.35 -180.35 -55.15 -172.25 -30.25 -191.35 -10.3 -208.15 16.3 -225.95 52.4 -217.45 96.4 -215.75 105.1 -213.05 114.1 -212.8 130.95 -222.85 141.35 -228.9 147.05 -225.65 148.85 -201.9 162.4 -175.9 164.05 -178.8 171.1 -180.05 180.05 L-175.5 180.95 Q-166.75 182.25 -159.05 180.05 -143.15 189.4 -126.6 195.6 L-130.45 206.45 Q-145.3 209.3 -156.5 220.2 L-158.1 221.75 Q-166.25 227.7 -138.35 229.9 -114.05 231.5 -100.35 227.2 L-95.05 225.1 Q-92.9 214.0 -101.8 202.9 -77.6 208.25 -52.1 207.05 1.15 202.05 42.9 169.05 42.7 180.35 33.9 190.05 52.3 181.7 59.9 164.05 64.85 167.8 65.9 177.05 71.2 164.8 65.9 149.05 71.65 142.6 76.65 135.7 99.2 103.95 104.6 61.5 L105.0 58.2 Q127.5 43.05 145.3 24.7 L154.9 14.1 152.75 13.55 Q131.1 8.3 98.7 13.85 92.15 -21.1 61.35 -53.4" fill="none" stroke="#5a410c" stroke-linecap="round" stroke-linejoin="round" stroke-opacity="0.7019608" stroke-width="3.5"/>
    <path d="M57.95 -45.45 L61.35 -53.4" ffdec:has-small-stroke="true" ffdec:original-stroke-width="0.05500000000000001" fill="none" stroke="#00ff00" stroke-linecap="round" stroke-linejoin="round" stroke-width="0.8264462809917354"/>
    <path d="M25.5 43.15 Q40.35 33.75 54.7 26.85 66.45 21.15 77.9 17.1 73.5 28.6 73.9 36.1 77.1 21.75 91.9 15.1 L98.7 13.85 M94.85 64.7 L99.95 61.5 105.0 58.2 M8.05 92.15 Q18.75 97.45 35.9 93.1 63.75 82.65 87.2 69.25 L94.85 64.7 M-2.1 83.1 Q0.6 87.15 4.2 89.85 L8.05 92.15 Q5.45 102.1 -9.1 100.1 M2.3 59.05 Q8.2 54.65 14.1 50.65 L25.5 43.15 M-3.1 63.1 L-1.0 61.5 2.3 59.05 Q0.05 51.15 -14.1 59.05" fill="none" stroke="#5a410c" stroke-linecap="round" stroke-linejoin="round" stroke-opacity="0.7019608" stroke-width="1.75"/>
    <path d="M54.7 26.85 Q38.8 44.7 33.7 61.1" ffdec:has-small-stroke="true" ffdec:original-stroke-width="0.05500000000000001" fill="none" stroke="#8b6f2e" stroke-linecap="round" stroke-linejoin="round" stroke-width="0.8264462809917354"/>
    <path d="M9.8 279.6 Q16.35 277.9 20.3 274.65 22.8 272.55 24.8 267.2 22.6 237.2 -6.05 217.9 -8.95 216.85 -11.1 217.1 -14.8 217.5 -16.15 221.75 -13.4 239.0 -23.85 252.55 L-21.2 256.15 Q-26.0 259.15 -30.35 263.7 -34.75 268.2 -38.75 274.2 -40.5 278.55 -33.5 279.45 -5.1 283.5 9.8 279.6" fill="none" stroke="#5a410c" stroke-linecap="round" stroke-linejoin="round" stroke-opacity="0.7607843" stroke-width="4.25"/>
    <path d="M-167.0 -35.55 L-172.25 -30.25 M-140.5 -57.7 Q-147.5 -52.8 -154.25 -47.15 -160.75 -41.7 -167.0 -35.55" fill="none" stroke="#5a410c" stroke-linecap="round" stroke-linejoin="round" stroke-opacity="0.7019608" stroke-width="2.5"/>
    <path d="M-21.2 256.15 Q-13.0 251.0 -3.65 250.15 M-105.0 202.2 Q-115.95 199.55 -126.6 195.6 M-118.65 205.4 Q-124.8 205.35 -130.45 206.45" ffdec:has-small-stroke="true" ffdec:original-stroke-width="0.05500000000000001" fill="none" stroke="#5a410c" stroke-linecap="round" stroke-linejoin="round" stroke-width="0.8264462809917354"/>
    <path d="M-105.0 202.2 L-101.8 202.9" ffdec:has-small-stroke="true" ffdec:original-stroke-width="0.05500000000000001" fill="none" stroke="#5a410c" stroke-linecap="round" stroke-linejoin="round" stroke-opacity="0.7019608" stroke-width="0.8264462809917354"/>
    <path d="M49.2 -93.9 Q54.5 -88.7 61.4 -84.75 67.85 -81.05 77.95 -77.45 73.4 -63.35 60.9 -62.05 46.5 -61.9 44.4 -65.9 36.25 -84.35 49.2 -93.9 M74.3 -80.75 Q65.8 -84.2 62.6 -89.0 66.05 -95.2 78.25 -83.4 L74.3 -80.75 M30.95 -78.95 Q35.2 -70.35 41.95 -62.2 L27.65 -66.05 Q27.4 -72.95 30.95 -78.95 M44.15 -59.6 L47.75 -59.35 Q55.75 -59.05 64.3 -59.2 62.55 -53.55 51.65 -49.35 37.2 -51.7 30.4 -56.85 29.7 -59.95 32.25 -61.15 L44.15 -59.6 M23.25 -58.05 Q27.5 -54.9 32.3 -52.45 42.2 -47.4 54.3 -45.55 46.65 -35.5 32.4 -26.95 16.75 -32.15 10.1 -45.1 13.55 -53.8 23.25 -58.05" fill="#ff6060" fill-rule="evenodd" stroke="none"/>
    <path d="M38.35 -109.1 L54.05 -128.55 70.55 -123.65 92.2 -94.75 81.05 -80.6 78.25 -83.4 Q66.05 -95.2 62.6 -89.0 65.8 -84.2 74.3 -80.75 77.35 -79.55 81.05 -78.5 L81.15 -76.35 77.95 -77.45 Q67.85 -81.05 61.4 -84.75 54.5 -88.7 49.2 -93.9 42.5 -100.5 38.35 -109.1 42.5 -100.5 49.2 -93.9 36.25 -84.35 44.4 -65.9 46.5 -61.9 60.9 -62.05 L74.75 -62.9 71.25 -59.45 64.3 -59.2 Q55.75 -59.05 47.75 -59.35 L44.15 -59.6 41.95 -62.2 44.15 -59.6 32.25 -61.15 28.05 -62.0 Q21.2 -63.55 14.45 -65.95 18.5 -61.55 23.25 -58.05 18.5 -61.55 14.45 -65.95 21.2 -63.55 28.05 -62.0 L32.25 -61.15 Q29.7 -59.95 30.4 -56.85 37.2 -51.7 51.65 -49.35 L59.8 -48.3 57.05 -45.2 54.3 -45.55 Q42.2 -47.4 32.3 -52.45 27.5 -54.9 23.25 -58.05 13.55 -53.8 10.1 -45.1 16.75 -32.15 32.4 -26.95 35.45 -25.95 38.8 -25.25 L36.85 -23.55 Q20.3 -24.05 8.55 -39.6 2.6 -47.45 -2.1 -59.15 L8.9 -72.75 25.65 -93.4 38.35 -109.1 M30.95 -78.95 Q27.45 -86.05 25.65 -93.4 27.45 -86.05 30.95 -78.95 27.4 -72.95 27.65 -66.05 L41.95 -62.2 Q35.2 -70.35 30.95 -78.95 M8.9 -72.75 Q11.5 -69.15 14.45 -65.95 11.5 -69.15 8.9 -72.75" fill="#a40000" fill-rule="evenodd" stroke="none"/>
    <path d="M77.95 -77.45 L81.15 -76.35 Q83.65 -73.95 74.75 -62.9 L60.9 -62.05 Q73.4 -63.35 77.95 -77.45 M81.05 -78.5 Q77.35 -79.55 74.3 -80.75 L78.25 -83.4 81.05 -80.6 81.05 -78.5 M64.3 -59.2 L71.25 -59.45 59.8 -48.3 51.65 -49.35 Q62.55 -53.55 64.3 -59.2 M54.3 -45.55 L57.05 -45.2 Q58.25 -42.0 54.5 -38.8 L38.8 -25.25 Q35.45 -25.95 32.4 -26.95 46.65 -35.5 54.3 -45.55" fill="#ff9b60" fill-rule="evenodd" stroke="none"/>
    <path d="M92.2 -94.75 L70.55 -123.65 54.05 -128.55 38.35 -109.1 Q42.5 -100.5 49.2 -93.9 54.5 -88.7 61.4 -84.75 67.85 -81.05 77.95 -77.45 L81.15 -76.35 M38.35 -109.1 L25.65 -93.4 Q27.45 -86.05 30.95 -78.95 35.2 -70.35 41.95 -62.2 L44.15 -59.6 47.75 -59.35 Q55.75 -59.05 64.3 -59.2 L71.25 -59.45 M32.25 -61.15 L28.05 -62.0 Q21.2 -63.55 14.45 -65.95 18.5 -61.55 23.25 -58.05 27.5 -54.9 32.3 -52.45 42.2 -47.4 54.3 -45.55 L57.05 -45.2 M32.25 -61.15 L44.15 -59.6 M14.45 -65.95 Q11.5 -69.15 8.9 -72.75 L-2.1 -59.15 M25.65 -93.4 L8.9 -72.75" ffdec:has-small-stroke="true" ffdec:original-stroke-width="0.05500000000000001" fill="none" stroke="#6a0000" stroke-linecap="round" stroke-linejoin="round" stroke-opacity="0.70980394" stroke-width="0.8264462809917354"/>
    <path d="M81.15 -76.35 L81.05 -78.5 81.05 -80.6 92.2 -94.75 M71.25 -59.45 L74.75 -62.9 Q83.65 -73.95 81.15 -76.35 M57.05 -45.2 L59.8 -48.3 71.25 -59.45 M-2.1 -59.15 Q2.6 -47.45 8.55 -39.6 20.3 -24.05 36.85 -23.55 L38.8 -25.25 54.5 -38.8 Q58.25 -42.0 57.05 -45.2" fill="none" stroke="#6a0000" stroke-linecap="round" stroke-linejoin="round" stroke-opacity="0.70980394" stroke-width="3.25"/>
    <path d="M-63.5 -184.25 L-66.65 -188.1 -51.75 -188.1 -72.9 -193.4 -83.0 -198.7 Q-12.75 -199.05 64.4 -166.25 86.0 -217.65 141.2 -241.5 L146.95 -238.15 Q105.05 -201.05 102.5 -160.7 L96.15 -157.75 87.55 -157.8 Q96.25 -189.95 113.1 -209.6 100.65 -203.65 74.4 -160.0 L75.75 -158.3 Q78.85 -150.4 68.45 -149.25 58.05 -161.1 34.8 -166.65 47.8 -159.1 49.85 -151.55 34.65 -162.0 6.35 -172.45 -18.0 -182.35 -63.5 -184.25 M136.5 -153.45 Q181.65 -154.25 219.15 -138.55 L221.1 -136.5 Q196.6 -145.05 160.7 -144.6 129.6 -144.25 105.0 -133.0 L96.3 -137.05 Q103.6 -143.7 118.9 -146.35 103.4 -146.95 85.85 -138.8 L85.85 -146.9 104.65 -151.05 128.7 -153.2 136.5 -153.45 M139.7 -124.9 Q145.55 -120.4 150.8 -113.5 181.35 -77.3 187.4 -29.8 L187.4 -20.2 181.4 -28.05 Q179.25 -34.7 176.4 -41.55 165.95 -66.85 146.2 -94.7 136.1 -109.1 113.1 -121.4 L139.7 -124.9 M112.25 -91.7 Q120.55 -44.6 103.65 0.0 L98.85 0.0 Q104.85 -22.35 102.1 -55.25 96.9 -92.8 85.25 -113.25 94.25 -113.8 100.95 -98.75 102.05 -114.4 89.35 -125.45 101.6 -120.7 109.45 -104.85 L110.55 -100.3 112.25 -91.7 M-37.75 -18.3 L-39.7 -22.15 Q-9.35 -98.05 36.35 -130.25 L41.85 -133.95 47.9 -137.6 Q52.1 -139.2 55.85 -140.1 44.6 -134.5 37.7 -123.7 67.05 -136.05 78.3 -123.1 69.5 -128.2 58.6 -123.1 30.45 -109.3 2.3 -74.95 L8.65 -87.7 Q-21.35 -54.95 -37.75 -18.3 M64.4 -166.25 L67.85 -164.65 64.4 -166.25 M67.85 -164.65 L72.45 -161.75 Q75.45 -179.2 85.25 -192.2 77.65 -186.0 67.85 -164.65 M74.4 -160.0 L72.45 -161.75 74.4 -160.0" fill="#fede81" fill-rule="evenodd" stroke="none"/>
    <path d="M-2.3 -163.35 Q-8.9 -171.75 -63.5 -184.25 -18.0 -182.35 6.35 -172.45 34.65 -162.0 49.85 -151.55 47.8 -159.1 34.8 -166.65 58.05 -161.1 68.45 -149.25 78.85 -150.4 75.75 -158.3 L74.4 -160.0 Q100.65 -203.65 113.1 -209.6 96.25 -189.95 87.55 -157.8 L96.15 -157.75 85.4 -152.5 96.15 -157.75 102.5 -160.7 Q150.25 -182.4 197.95 -189.55 L196.75 -186.65 Q181.3 -185.65 161.85 -176.5 139.85 -167.0 128.7 -153.2 L104.65 -151.05 85.85 -146.9 85.85 -138.8 Q103.4 -146.95 118.9 -146.35 103.6 -143.7 96.3 -137.05 L105.0 -133.0 Q129.6 -144.25 160.7 -144.6 196.6 -145.05 221.1 -136.5 189.95 -141.3 152.0 -139.35 129.45 -137.35 110.8 -128.95 L117.65 -126.55 131.2 -130.0 Q135.6 -128.05 139.7 -124.9 L113.1 -121.4 Q136.1 -109.1 146.2 -94.7 165.95 -66.85 176.4 -41.55 163.55 -61.35 143.9 -76.65 142.75 -86.5 137.35 -92.85 138.4 -86.95 137.55 -82.35 129.8 -91.35 110.55 -100.3 L109.45 -104.85 Q101.6 -120.7 89.35 -125.45 102.05 -114.4 100.95 -98.75 94.25 -113.8 85.25 -113.25 96.9 -92.8 102.1 -55.25 104.85 -22.35 98.85 0.0 99.8 -36.4 89.35 -77.3 82.7 -104.4 67.6 -120.8 L67.6 -114.95 69.8 -111.25 Q38.45 -98.15 9.25 -72.65 -17.75 -49.7 -37.75 -18.3 -21.35 -54.95 8.65 -87.7 L2.3 -74.95 Q30.45 -109.3 58.6 -123.1 69.5 -128.2 78.3 -123.1 67.05 -136.05 37.7 -123.7 44.6 -134.5 55.85 -140.1 52.1 -139.2 47.9 -137.6 L41.85 -133.95 Q31.1 -145.85 4.95 -160.0 12.8 -161.85 21.4 -161.65 9.55 -164.6 -2.3 -163.35 M72.45 -161.75 L67.85 -164.65 Q77.65 -186.0 85.25 -192.2 75.45 -179.2 72.45 -161.75 M80.1 -133.25 Q72.95 -144.2 55.85 -140.1 72.95 -144.2 80.1 -133.25" fill="#e4a625" fill-rule="evenodd" stroke="none"/>
    <path d="M-2.3 -163.35 Q-7.05 -162.85 -11.8 -161.65 -36.15 -174.75 -60.4 -180.4 L-63.5 -184.25 Q-8.9 -171.75 -2.3 -163.35 M196.75 -186.65 L195.55 -183.8 Q163.6 -175.1 136.5 -153.45 L128.7 -153.2 Q139.85 -167.0 161.85 -176.5 181.3 -185.65 196.75 -186.65 M221.1 -136.5 L226.85 -130.4 Q181.25 -141.35 131.2 -130.0 L117.65 -126.55 110.8 -128.95 Q129.45 -137.35 152.0 -139.35 189.95 -141.3 221.1 -136.5 M181.4 -28.05 Q164.0 -50.35 144.1 -68.8 144.3 -73.0 143.9 -76.65 163.55 -61.35 176.4 -41.55 179.25 -34.7 181.4 -28.05 M137.55 -82.35 Q136.85 -78.75 134.95 -75.95 124.55 -86.25 112.25 -91.7 L110.55 -100.3 Q129.8 -91.35 137.55 -82.35 M98.85 0.0 L94.05 0.0 Q95.65 -63.1 72.1 -107.1 L66.15 -105.85 Q9.95 -77.4 -35.85 -14.45 L-37.75 -18.3 Q-17.75 -49.7 9.25 -72.65 38.45 -98.15 69.8 -111.25 L67.6 -114.95 67.6 -120.8 Q82.7 -104.4 89.35 -77.3 99.8 -36.4 98.85 0.0 M36.35 -130.25 Q22.3 -146.4 -3.65 -157.35 0.55 -159.0 4.95 -160.0 31.1 -145.85 41.85 -133.95 L36.35 -130.25 M69.8 -111.25 L72.1 -107.1 69.8 -111.25" fill="#e4b464" fill-rule="evenodd" stroke="none"/>
    <path d="M-63.5 -184.25 L-60.4 -180.4 Q-36.15 -174.75 -11.8 -161.65 -7.05 -162.85 -2.3 -163.35 9.55 -164.6 21.4 -161.65 12.8 -161.85 4.95 -160.0 0.55 -159.0 -3.65 -157.35 22.3 -146.4 36.35 -130.25 -9.35 -98.05 -39.7 -22.15 L-37.75 -18.3 -35.85 -14.45 Q9.95 -77.4 66.15 -105.85 L72.1 -107.1 Q95.65 -63.1 94.05 0.0 L98.85 0.0 103.65 0.0 Q120.55 -44.6 112.25 -91.7 124.55 -86.25 134.95 -75.95 136.85 -78.75 137.55 -82.35 138.4 -86.95 137.35 -92.85 142.75 -86.5 143.9 -76.65 144.3 -73.0 144.1 -68.8 164.0 -50.35 181.4 -28.05 L187.4 -20.2 187.4 -29.8 Q181.35 -77.3 150.8 -113.5 145.55 -120.4 139.7 -124.9 135.6 -128.05 131.2 -130.0 181.25 -141.35 226.85 -130.4 L221.1 -136.5 219.15 -138.55 Q181.65 -154.25 136.5 -153.45 163.6 -175.1 195.55 -183.8 L196.75 -186.65 197.95 -189.55 Q150.25 -182.4 102.5 -160.7 105.05 -201.05 146.95 -238.15 L141.2 -241.5 Q86.0 -217.65 64.4 -166.25 -12.75 -199.05 -83.0 -198.7 L-72.9 -193.4 -51.75 -188.1 -66.65 -188.1 -63.5 -184.25" fill="none" stroke="#8b6f2e" stroke-linecap="round" stroke-linejoin="round" stroke-width="3.5"/>
    <path d="M96.15 -157.75 L102.5 -160.7 M74.4 -160.0 L75.75 -158.3 M85.4 -152.5 L96.15 -157.75 M117.65 -126.55 L131.2 -130.0 M136.5 -153.45 L128.7 -153.2 104.65 -151.05 M67.85 -164.65 L64.4 -166.25 M72.45 -161.75 L67.85 -164.65 M55.85 -140.1 Q52.1 -139.2 47.9 -137.6 L41.85 -133.95 M109.45 -104.85 L110.55 -100.3 112.25 -91.7 M69.8 -111.25 L67.6 -114.95 M72.1 -107.1 L69.8 -111.25 M55.85 -140.1 Q72.95 -144.2 80.1 -133.25" fill="none" stroke="#8b6f2e" stroke-linecap="round" stroke-linejoin="round" stroke-width="1.5"/>
    <path d="M72.45 -161.75 L74.4 -160.0 M41.85 -133.95 L36.35 -130.25" fill="none" stroke="#8b6f2e" stroke-linecap="round" stroke-linejoin="round" stroke-width="1.5"/>
  </g>
  <defs>
    <linearGradient gradientTransform="matrix(-0.0198, 0.0052, -0.0224, -0.0847, 4.25, -19.7)" gradientUnits="userSpaceOnUse" id="gradient0" spreadMethod="pad" x1="-819.2" x2="819.2">
      <stop offset="0.0" stop-color="#e4a625"/>
      <stop offset="1.0" stop-color="#f1c355"/>
    </linearGradient>
    <linearGradient gradientTransform="matrix(-0.0652, -0.0375, 0.0944, -0.1644, -22.75, 91.25)" gradientUnits="userSpaceOnUse" id="gradient1" spreadMethod="pad" x1="-819.2" x2="819.2">
      <stop offset="0.0" stop-color="#e4a625"/>
      <stop offset="1.0" stop-color="#f9d471"/>
    </linearGradient>
    <linearGradient gradientTransform="matrix(0.0226, -0.006, 0.006, 0.0225, 46.8, 70.5)" gradientUnits="userSpaceOnUse" id="gradient2" spreadMethod="pad" x1="-819.2" x2="819.2">
      <stop offset="0.0" stop-color="#e4b464"/>
      <stop offset="1.0" stop-color="#e4ac42"/>
    </linearGradient>
    <linearGradient gradientTransform="matrix(0.0115, -0.0031, 0.0172, 0.0642, -71.15, 161.9)" gradientUnits="userSpaceOnUse" id="gradient3" spreadMethod="pad" x1="-819.2" x2="819.2">
      <stop offset="0.0" stop-color="#e4b464"/>
      <stop offset="1.0" stop-color="#e4ac42"/>
    </linearGradient>
    <linearGradient gradientTransform="matrix(0.0064, 0.0453, -0.0457, 0.0064, -154.4, 52.0)" gradientUnits="userSpaceOnUse" id="gradient4" spreadMethod="pad" x1="-819.2" x2="819.2">
      <stop offset="0.0" stop-color="#63400c"/>
      <stop offset="1.0" stop-color="#000000"/>
    </linearGradient>
    <linearGradient gradientTransform="matrix(-0.0094, 0.0163, -0.0328, -0.0188, -171.5, 65.55)" gradientUnits="userSpaceOnUse" id="gradient5" spreadMethod="pad" x1="-819.2" x2="819.2">
      <stop offset="0.0" stop-color="#ffffff"/>
      <stop offset="1.0" stop-color="#f9e6b9"/>
    </linearGradient>
    <radialGradient cx="0" cy="0" gradientTransform="matrix(0.0533, 0.0, 0.0, 0.0533, -141.65, 43.4)" gradientUnits="userSpaceOnUse" id="gradient6" r="819.2" spreadMethod="pad">
      <stop offset="0.0" stop-color="#ff6699"/>
      <stop offset="0.8862745098039215" stop-color="#ffd6e4"/>
      <stop offset="1.0" stop-color="#ffffff"/>
    </radialGradient>
  </defs>
</svg>
