<?xml version="1.0" encoding="UTF-8" standalone="no"?>
<svg xmlns:ffdec="https://www.free-decompiler.com/flash" xmlns:xlink="http://www.w3.org/1999/xlink" ffdec:objectType="frame" height="159.75px" width="100.8px" xmlns="http://www.w3.org/2000/svg">
  <g transform="matrix(3.0, 0.0, 0.0, 3.0, 34.35, 151.8)">
    <use ffdec:characterId="7" height="4.25" transform="matrix(0.8, 0.0, 0.0, 0.8, 0.0, 0.0)" width="14.7" xlink:href="#sprite0"/>
    <use ffdec:characterId="9" height="7.8" transform="matrix(0.7795, 0.3762, -0.2475, 0.9746, -2.05, -33.2)" width="4.35" xlink:href="#sprite1"/>
    <use ffdec:characterId="10" height="0.0" transform="matrix(0.8898, 0.0, 0.0603, 0.9515, -0.35, -30.3)" width="0.0" xlink:href="#sprite2"/>
    <use ffdec:characterId="12" height="4.75" transform="matrix(1.0, 0.0, 0.0058, 1.0, 2.05, -3.0)" width="5.75" xlink:href="#sprite3"/>
    <use ffdec:characterId="14" height="5.15" transform="matrix(1.0, 0.0, -0.0773, 1.0, -3.4, -2.3)" width="5.2" xlink:href="#sprite4"/>
    <use ffdec:characterId="16" height="9.1" transform="matrix(0.996, -0.0886, 0.0447, 1.0, 3.35, -11.25)" width="4.75" xlink:href="#sprite5"/>
    <use ffdec:characterId="20" height="8.15" transform="matrix(0.7903, -0.1676, 0.0589, 0.8505, 5.4, -23.4)" width="3.25" xlink:href="#sprite6"/>
    <use ffdec:characterId="26" height="17.4" transform="matrix(0.9817, 0.1873, -0.1873, 0.9817, 6.0, -15.5)" width="20.35" xlink:href="#sprite9"/>
    <use ffdec:characterId="28" height="5.0" transform="matrix(0.9979, -2.0E-4, 2.0E-4, 0.9979, 4.95, -17.65)" width="5.05" xlink:href="#sprite12"/>
    <use ffdec:characterId="33" height="4.9" transform="matrix(-0.8033, 0.2776, 0.134, 0.9944, 4.55, -28.6)" width="3.75" xlink:href="#sprite13"/>
    <use ffdec:characterId="16" height="9.1" transform="matrix(1.0, 0.0054, -0.0826, 0.9996, -0.5, -9.85)" width="4.75" xlink:href="#sprite16"/>
    <use ffdec:characterId="35" height="8.1" transform="matrix(1.0, 0.0, -0.031, 0.9994, 4.15, -18.45)" width="5.6" xlink:href="#sprite17"/>
    <use ffdec:characterId="37" height="7.75" transform="matrix(0.997, -0.0742, -0.0879, 0.9958, 0.6, -17.9)" width="6.05" xlink:href="#sprite18"/>
    <use ffdec:characterId="60" height="13.2" transform="matrix(0.9998, -0.0133, 0.036, 0.9994, 1.7, -20.05)" width="18.65" xlink:href="#sprite19"/>
    <use ffdec:characterId="32" height="5.85" transform="matrix(0.997, 0.021, -0.021, 0.997, -1.85, -28.85)" width="3.65" xlink:href="#sprite31"/>
    <use ffdec:characterId="64" height="14.75" transform="matrix(1.0004, 0.0488, 0.0075, 1.0, 2.05, -19.15)" width="13.75" xlink:href="#sprite32"/>
    <use ffdec:characterId="73" height="11.9" transform="matrix(0.9976, 0.0538, -0.0538, 0.9976, 1.1, -34.15)" width="11.4" xlink:href="#sprite34"/>
    <use ffdec:characterId="75" height="29.8" transform="matrix(0.7984, 0.0364, -0.0364, 0.7984, 2.4, -37.9)" width="24.9" xlink:href="#sprite38"/>
    <use ffdec:characterId="80" height="6.9" transform="matrix(0.9794, 0.0622, -0.1269, 0.7932, -3.6, -16.55)" width="4.45" xlink:href="#sprite39"/>
    <use ffdec:characterId="19" height="7.8" transform="matrix(0.9898, -0.075, 0.0215, 1.0014, -3.4, -20.4)" width="2.05" xlink:href="#sprite41"/>
    <use ffdec:characterId="81" height="0.0" id="mcFix" transform="matrix(1.0, 0.0, 0.0, 1.0, -11.45, 0.0)" width="0.0" xlink:href="#sprite42"/>
  </g>
  <defs>
    <g id="sprite0">
      <use ffdec:characterId="6" height="4.25" transform="matrix(1.0, 0.0, 0.0, 1.0, 0.0, 0.0)" width="14.7" xlink:href="#shape0"/>
    </g>
    <g id="shape0">
      <path d="M5.75 -1.9 Q7.9 -1.45 7.95 -0.55 8.0 0.3 5.9 1.0 3.75 1.75 0.7 1.95 L-4.55 1.65 Q-6.75 1.15 -6.75 0.3 -6.8 -0.55 -4.7 -1.3 -2.55 -2.05 0.5 -2.2 L5.75 -1.9" fill="#382c16" fill-rule="evenodd" stroke="none"/>
    </g>
    <g id="sprite1">
      <use ffdec:characterId="8" height="7.8" transform="matrix(1.0, 0.0, 0.0, 1.0, 0.0, 0.0)" width="4.35" xlink:href="#shape1"/>
    </g>
    <g id="shape1">
      <path d="M1.15 -0.05 L1.15 -0.15 2.3 0.25 2.6 2.85 0.8 6.7 1.15 -0.05" fill="#5b331e" fill-rule="evenodd" stroke="none"/>
      <path d="M0.8 6.7 L0.75 6.8 -0.3 3.9 -1.7 4.95 -1.75 5.0 -1.45 0.95 0.2 -1.0 1.15 -0.05 0.8 6.7 M-0.3 3.9 L-0.65 2.9 0.15 -0.15 -0.65 2.9 -0.3 3.9" fill="#88532d" fill-rule="evenodd" stroke="none"/>
      <path d="M0.8 6.7 L0.75 6.8 -0.3 3.9 -0.65 2.9 0.15 -0.15" ffdec:has-small-stroke="true" ffdec:original-stroke-width="0.15" fill="none" stroke="#1f1f1f" stroke-linecap="round" stroke-linejoin="round" stroke-opacity="0.3019608" stroke-width="0.36094615529847807"/>
      <path d="M2.3 0.25 L2.6 2.85 0.8 6.7 M-0.3 3.9 L-1.7 4.95" ffdec:has-small-stroke="true" ffdec:original-stroke-width="0.15" fill="none" stroke="#000000" stroke-linecap="round" stroke-linejoin="round" stroke-opacity="0.36078432" stroke-width="0.36094615529847807"/>
      <path d="M-1.7 4.95 L-1.75 5.0 -1.45 0.95 0.2 -1.0" ffdec:has-small-stroke="true" ffdec:original-stroke-width="0.15" fill="none" stroke="#1f1f1f" stroke-linecap="round" stroke-linejoin="round" stroke-opacity="0.3019608" stroke-width="0.36094615529847807"/>
    </g>
    <g id="sprite3">
      <use ffdec:characterId="11" height="4.75" transform="matrix(1.0, 0.0, 0.0, 1.0, 0.0, 0.0)" width="5.75" xlink:href="#shape2"/>
    </g>
    <g id="shape2">
      <path d="M2.9 0.65 L3.85 1.4 4.0 1.5 4.1 1.6 4.0 1.65 2.9 0.65" fill="#e8ddc7" fill-rule="evenodd" stroke="none"/>
      <path d="M2.4 3.75 L2.0 3.85 1.9 3.5 1.35 3.35 1.2 3.2 0.9 2.95 0.8 2.85 -1.15 1.05 Q-1.3 0.05 -0.75 -0.65 L-0.25 -0.55 -0.05 0.9 1.75 2.7 2.4 2.7 2.75 3.7 2.4 3.75 M1.9 3.5 L1.75 2.7 1.9 3.5" fill="#97662d" fill-rule="evenodd" stroke="none"/>
      <path d="M-0.25 -0.55 L0.3 -0.5 1.25 -0.9 Q1.5 -0.45 2.75 0.5 L2.9 0.65 4.0 1.65 4.1 1.6 4.1 1.65 4.3 1.5 4.55 2.35 3.65 2.95 3.55 2.65 3.3 2.8 3.45 3.55 2.8 3.7 2.75 3.7 2.4 2.7 1.75 2.7 -0.05 0.9 -0.25 -0.55 M3.3 2.8 L3.2 2.25 1.7 2.5 1.75 2.7 1.7 2.5 3.2 2.25 3.3 2.8 M4.0 1.65 L3.4 2.1 4.0 1.65" fill="#a46e35" fill-rule="evenodd" stroke="none"/>
      <path d="M1.25 -0.9 Q1.5 -0.45 2.75 0.5 L2.9 0.65 4.0 1.65 4.1 1.6 4.3 1.5 4.55 2.35 M3.3 2.8 L3.45 3.55 2.8 3.7 2.4 3.75 2.0 3.85 1.9 3.5 1.75 2.7 1.7 2.5 3.2 2.25 3.3 2.8 M1.2 3.2 L0.9 2.95 0.8 2.85 -1.15 1.05 Q-1.3 0.05 -0.75 -0.65 M3.4 2.1 L4.0 1.65" ffdec:has-small-stroke="true" ffdec:original-stroke-width="0.15" fill="none" stroke="#1f1f1f" stroke-linecap="round" stroke-linejoin="round" stroke-opacity="0.3019608" stroke-width="0.33333333333333337"/>
    </g>
    <g id="sprite4">
      <use ffdec:characterId="13" height="5.15" transform="matrix(1.0, 0.0, 0.0, 1.0, 0.0, 0.0)" width="5.2" xlink:href="#shape3"/>
    </g>
    <g id="shape3">
      <path d="M2.1 -0.15 L2.15 -0.15 Q2.2 0.45 2.75 1.7 L3.05 3.3 3.0 3.3 2.7 1.7 Q2.15 0.45 2.1 -0.15" fill="#ffce8c" fill-rule="evenodd" stroke="none"/>
      <path d="M2.1 -0.15 Q2.15 0.45 2.7 1.7 L3.0 3.3 3.05 3.3 3.25 3.3 3.4 4.95 1.45 4.95 1.4 4.7 1.0 4.7 1.05 4.95 -0.35 4.7 -0.4 4.35 -0.9 4.2 -1.0 4.7 -1.8 4.4 -1.5 3.1 -1.35 3.1 -0.2 -0.2 2.1 -0.15 M0.9 3.65 L-1.35 3.1 0.9 3.65 M3.0 3.3 L1.25 3.3 1.4 4.7 1.25 3.3 3.0 3.3" fill="#a46e35" fill-rule="evenodd" stroke="none"/>
      <path d="M2.1 -0.15 Q2.15 0.45 2.7 1.7 L3.0 3.3 3.05 3.3 3.25 3.3 3.4 4.95 1.45 4.95 M1.05 4.95 L-0.35 4.7 -0.4 4.35 M-1.0 4.7 L-1.8 4.4 -1.5 3.1 -1.35 3.1 -0.2 -0.2 M1.4 4.7 L1.25 3.3 3.0 3.3 M-1.35 3.1 L0.9 3.65" ffdec:has-small-stroke="true" ffdec:original-stroke-width="0.15" fill="none" stroke="#1f1f1f" stroke-linecap="round" stroke-linejoin="round" stroke-opacity="0.3019608" stroke-width="0.33333333333333337"/>
    </g>
    <g id="sprite5">
      <use ffdec:characterId="15" height="9.1" transform="matrix(1.0, 0.0, 0.0, 1.0, 0.0, 0.0)" width="4.75" xlink:href="#shape4"/>
    </g>
    <g id="shape4">
      <path d="M1.4 1.55 L0.4 5.45 Q-0.15 7.3 0.15 8.65 L-1.8 8.7 Q-1.7 4.6 -0.6 0.3 0.5 0.05 1.4 1.55" fill="#a46e35" fill-rule="evenodd" stroke="none"/>
      <path d="M-0.6 0.3 Q-1.7 4.6 -1.8 8.7 L-2.45 8.2 Q-2.25 7.3 -2.4 4.75 -2.55 2.55 -1.65 0.9 L-0.6 0.3" fill="#97662d" fill-rule="evenodd" stroke="none"/>
      <path d="M0.15 8.65 Q-0.15 7.3 0.4 5.45 L1.4 1.55 M-2.45 8.2 Q-2.25 7.3 -2.4 4.75 -2.55 2.55 -1.65 0.9" ffdec:has-small-stroke="true" ffdec:original-stroke-width="0.15" fill="none" stroke="#000000" stroke-linecap="round" stroke-linejoin="round" stroke-opacity="0.36078432" stroke-width="0.33333429764443373"/>
      <path d="M1.4 -0.05 L1.2 7.05 Q-0.6 7.5 -1.95 6.65 L-0.35 -0.25 1.4 -0.05" fill="#cc6600" fill-rule="evenodd" stroke="none"/>
      <path d="M-0.35 -0.25 L-1.95 6.65 Q-2.75 6.45 -3.35 5.35 L-2.05 0.0 -0.35 -0.25" fill="#945319" fill-rule="evenodd" stroke="none"/>
      <path d="M1.2 7.05 L1.4 -0.05 M-2.05 0.0 L-3.35 5.35" ffdec:has-small-stroke="true" ffdec:original-stroke-width="0.15" fill="none" stroke="#6a5f39" stroke-linecap="round" stroke-linejoin="round" stroke-width="0.33333429764443373"/>
    </g>
    <g id="sprite6">
      <use ffdec:characterId="19" height="7.8" transform="matrix(0.9726, -0.2293, 0.1674, 0.9872, -0.85, 0.6)" width="2.05" xlink:href="#sprite7"/>
    </g>
    <g id="sprite7">
      <use ffdec:characterId="17" height="0.0" id="cR_Bras00" transform="matrix(1.0, 0.0, 0.0, 1.0, 0.05, -0.3)" width="0.0" xlink:href="#sprite8"/>
      <use ffdec:characterId="18" height="7.8" transform="matrix(1.0, 0.0, 0.0, 1.0, 0.0, 0.0)" width="2.05" xlink:href="#shape5"/>
    </g>
    <g id="shape5">
      <path d="M1.05 -1.75 L0.7 5.5 -0.5 5.35 -0.95 -2.2 -1.0 -2.3 -0.95 -2.3 1.05 -1.75 M-0.95 -2.2 L-0.95 -2.3 -0.95 -2.2" fill="#a46e35" fill-rule="evenodd" stroke="none"/>
      <path d="M0.7 5.5 L1.05 -1.75 M-0.95 -2.3 L-0.95 -2.2 -0.5 5.35" ffdec:has-small-stroke="true" ffdec:original-stroke-width="0.15" fill="none" stroke="#1f1f1f" stroke-linecap="round" stroke-linejoin="round" stroke-opacity="0.5019608" stroke-width="0.40392634259454896"/>
    </g>
    <g id="sprite9">
      <use ffdec:characterId="21" height="3.3" transform="matrix(1.0, 0.0, 0.0, 1.0, 0.0, 0.0)" width="5.1" xlink:href="#shape6"/>
      <use ffdec:characterId="22" height="36.05" transform="matrix(0.0868, 0.497, -0.497, 0.0868, 5.35, 3.45)" width="28.8" xlink:href="#shape7"/>
      <use ffdec:characterId="25" height="8.55" transform="matrix(0.4845, -0.2408, 0.332, 0.3567, 9.2, 5.1)" width="7.35" xlink:href="#sprite10"/>
    </g>
    <g id="shape6">
      <path d="M-3.4 -1.35 L1.35 0.75 1.15 1.45 -3.6 -0.8 -3.4 -1.35" fill="#a44f11" fill-rule="evenodd" stroke="none"/>
      <path d="M-3.4 -1.35 L-3.2 -1.85 1.5 0.05 1.35 0.75 -3.4 -1.35" fill="#d08133" fill-rule="evenodd" stroke="none"/>
    </g>
    <g id="shape7">
      <path d="M-8.85 12.85 Q-8.7 12.6 -8.9 12.25 L-9.6 11.45 -10.5 11.0 -11.1 11.1 -11.4 10.85 -10.65 10.7 Q-10.15 10.75 -9.4 11.25 L-8.6 12.25 Q-8.2 12.8 -8.5 13.1 L-8.85 12.85" fill="#bd693a" fill-rule="evenodd" stroke="none"/>
      <path d="M-10.25 12.55 L-9.6 11.45 -8.9 12.25 Q-8.7 12.6 -8.85 12.85 L-8.85 12.95 -9.4 13.0 -9.5 13.05 -10.25 12.55" fill="#331d0f" fill-rule="evenodd" stroke="none"/>
      <path d="M-9.6 11.45 L-10.25 12.55 -11.0 11.95 -11.1 11.75 -11.1 11.2 -11.1 11.1 -10.5 11.0 -9.6 11.45" fill="#62381e" fill-rule="evenodd" stroke="none"/>
      <path d="M-11.4 10.85 L-10.65 10.7 Q-10.15 10.75 -9.4 11.25 L-8.6 12.25 Q-8.2 12.8 -8.5 13.1 M-8.85 12.85 Q-8.7 12.6 -8.9 12.25 L-9.6 11.45 -10.5 11.0 -11.1 11.1" ffdec:has-small-stroke="true" ffdec:original-stroke-width="0.15" fill="none" stroke="#000000" stroke-linecap="square" stroke-linejoin="miter-clip" stroke-miterlimit="3.0" stroke-opacity="0.24705882" stroke-width="0.6611071051966346"/>
      <path d="M-11.1 11.1 L-11.4 10.85 M-8.5 13.1 L-8.85 12.85" ffdec:has-small-stroke="true" ffdec:original-stroke-width="0.15" fill="none" stroke="#854c29" stroke-linecap="square" stroke-linejoin="miter-clip" stroke-miterlimit="3.0" stroke-opacity="0.24705882" stroke-width="0.6611071051966346"/>
      <path d="M0.9 -6.75 L0.95 -6.75 1.65 -6.85 2.55 -6.5 3.15 -5.75 3.2 -5.1 3.15 -5.0 2.65 -4.95 2.4 -4.95 1.95 -5.1 2.2 -6.1 1.55 -5.6 1.15 -5.95 1.15 -6.1 0.9 -6.75" fill="#b97b3e" fill-rule="evenodd" stroke="none"/>
      <path d="M1.15 -5.95 L1.55 -5.6 2.2 -6.1 1.95 -5.1 2.4 -4.95 2.65 -4.95 3.15 -5.0 -0.6 0.0 -1.1 0.0 -3.1 -0.25 0.9 -6.75 1.15 -6.1 1.15 -5.95 M0.5 -3.1 L-0.9 -1.0 0.25 -2.6 0.65 -3.0 0.5 -3.1" fill="#4d3519" fill-rule="evenodd" stroke="none"/>
      <path d="M3.15 -5.0 L-9.5 13.5 -10.15 14.75 -10.85 14.8 -11.1 14.85 -11.15 14.8 -11.25 14.75 -11.85 14.2 -11.9 14.25 -12.25 14.0 -12.35 13.8 -12.35 13.75 -12.5 13.05 -11.6 11.95 -3.1 -0.25 0.9 -6.75 1.15 -6.1 1.15 -5.95 1.55 -5.6 2.2 -6.1 1.95 -5.1 2.4 -4.95 2.65 -4.95 3.15 -5.0" fill="#8b6630" fill-rule="evenodd" stroke="none"/>
      <path d="M0.9 -6.75 L0.95 -6.75 1.65 -6.85 2.55 -6.5 3.15 -5.75 3.2 -5.1 3.15 -5.0 -9.5 13.5 -10.15 14.75 -10.85 14.8 -11.1 14.85 -11.15 14.8 -11.25 14.75 -11.85 14.2 -11.9 14.25 -12.25 14.0 -12.35 13.8 -12.35 13.75 -12.5 13.05 -11.6 11.95 -3.1 -0.25 0.9 -6.75 1.15 -6.1 1.15 -5.95 1.55 -5.6 2.2 -6.1 1.95 -5.1 2.4 -4.95 2.65 -4.95 3.15 -5.0" ffdec:has-small-stroke="true" ffdec:original-stroke-width="0.15" fill="none" stroke="#000000" stroke-linecap="round" stroke-linejoin="round" stroke-opacity="0.25882354" stroke-width="0.6611071051966346"/>
      <path d="M-9.9 13.7 L-9.85 14.0 Q-9.7 14.4 -10.1 14.55 L-9.75 14.8 -10.1 14.95 -10.35 14.7 -10.35 14.2 -10.1 13.75 -9.9 13.7" fill="#a65710" fill-rule="evenodd" stroke="none"/>
      <path d="M-9.9 13.7 L-9.6 13.6 -9.4 13.8 -9.6 13.8 -9.6 14.1 -9.5 14.1 -9.35 14.0 -9.35 13.85 -9.25 14.3 -9.6 14.8 -9.75 14.8 -10.1 14.55 Q-9.7 14.4 -9.85 14.0 L-9.9 13.7" fill="#d87616" fill-rule="evenodd" stroke="none"/>
      <path d="M-9.6 14.1 L-9.6 13.8 -9.4 13.8 -9.35 13.85 -9.35 14.0 -9.5 14.1 -9.6 14.1" fill="#fea870" fill-rule="evenodd" stroke="none"/>
      <path d="M-10.35 14.7 L-10.1 14.95 -9.75 14.8 -9.6 14.8 -9.25 14.3 -9.35 13.85 -9.6 13.6 -10.1 13.75 -10.35 14.2 -10.35 14.7 Z" ffdec:has-small-stroke="true" ffdec:original-stroke-width="0.15" fill="none" stroke="#000000" stroke-linecap="square" stroke-linejoin="miter-clip" stroke-miterlimit="3.0" stroke-opacity="0.24705882" stroke-width="0.6611071051966346"/>
      <path d="M-11.25 16.5 L-10.9 16.75 -11.25 16.8 -11.6 16.55 -11.6 16.05 -11.25 15.6 -11.1 15.55 -11.1 15.95 Q-10.95 16.25 -11.25 16.5" fill="#a65710" fill-rule="evenodd" stroke="none"/>
      <path d="M-10.85 16.0 L-10.65 16.0 -10.5 15.85 -10.5 16.25 -10.85 16.75 -10.9 16.75 -11.25 16.5 Q-10.95 16.25 -11.1 15.95 L-11.1 15.55 -10.85 15.5 -10.5 15.75 -10.5 15.85 -10.6 15.75 -10.75 15.75 -10.85 15.85 -10.85 16.0" fill="#d87616" fill-rule="evenodd" stroke="none"/>
      <path d="M-10.65 16.0 L-10.85 16.0 -10.85 15.85 -10.75 15.75 -10.6 15.75 -10.5 15.85 -10.65 16.0" fill="#fea870" fill-rule="evenodd" stroke="none"/>
      <path d="M-11.1 15.55 L-11.25 15.6 -11.6 16.05 -11.6 16.55 -11.25 16.8 -10.9 16.75 -10.85 16.75 -10.5 16.25 -10.5 15.75 -10.85 15.5 -11.1 15.55 Z" ffdec:has-small-stroke="true" ffdec:original-stroke-width="0.15" fill="none" stroke="#000000" stroke-linecap="square" stroke-linejoin="miter-clip" stroke-miterlimit="3.0" stroke-opacity="0.24705882" stroke-width="0.6611071051966346"/>
      <path d="M-13.65 16.05 Q-14.3 16.35 -14.15 16.95 -14.45 16.55 -14.35 16.05 -14.35 15.6 -13.85 15.35 L-12.85 15.3 Q-12.3 15.6 -11.9 16.05 L-11.75 16.5 -12.5 16.55 Q-13.3 16.95 -13.65 16.05" fill="#a65710" fill-rule="evenodd" stroke="none"/>
      <path d="M-14.15 16.95 Q-14.3 16.35 -13.65 16.05 -13.3 16.95 -12.5 16.55 L-11.75 16.5 -11.5 17.25 -12.1 17.95 Q-12.45 18.15 -13.1 17.95 L-14.1 17.2 -14.15 16.95 M-12.65 17.1 L-12.75 17.3 -12.75 17.55 -12.35 17.8 -12.1 17.8 -12.0 17.7 -12.1 17.35 -12.35 17.2 -12.65 17.1" fill="#d87616" fill-rule="evenodd" stroke="none"/>
      <path d="M-12.0 17.7 L-12.1 17.8 -12.35 17.8 -12.75 17.55 -12.75 17.3 -12.65 17.1 -12.35 17.2 -12.1 17.35 -12.0 17.7" fill="#fea870" fill-rule="evenodd" stroke="none"/>
      <path d="M-13.85 15.35 Q-14.35 15.6 -14.35 16.05 -14.45 16.55 -14.15 16.95 L-14.1 17.2 -13.1 17.95 Q-12.45 18.15 -12.1 17.95 L-11.5 17.25 -11.9 16.05 Q-12.3 15.6 -12.85 15.3 L-13.85 15.35 Z" ffdec:has-small-stroke="true" ffdec:original-stroke-width="0.15" fill="none" stroke="#000000" stroke-linecap="square" stroke-linejoin="miter-clip" stroke-miterlimit="3.0" stroke-opacity="0.24705882" stroke-width="0.6611071051966346"/>
      <path d="M-11.5 11.0 L-11.4 10.85 -11.1 11.1 -11.1 11.75 -11.0 11.95 -10.5 12.5 -10.35 12.6 -9.5 13.05 -9.4 13.0 -8.85 13.0 -8.75 12.95 -8.5 13.2 -8.5 13.25 -8.6 13.25 -8.85 13.3 -9.1 13.2 -9.35 13.3 -9.35 13.35 -10.25 12.95 -10.35 12.8 -10.75 12.45 -11.1 12.25 -11.1 12.2 -11.35 11.75 -11.5 11.0" fill="#bd693a" fill-rule="evenodd" stroke="none"/>
      <path d="M-9.1 13.2 L-8.85 13.3 -9.1 13.5 -9.35 13.3 -9.1 13.2 M-11.1 12.25 L-10.75 12.45 -10.35 12.8 -10.25 12.95 -10.85 12.75 -11.1 12.25" fill="#e68447" fill-rule="evenodd" stroke="none"/>
      <path d="M-11.25 11.95 L-11.1 12.2 -11.1 12.25 -10.85 12.75 -9.35 13.35 -9.4 13.45 Q-10.65 14.3 -11.15 15.75 -11.15 16.8 -11.9 17.3 L-12.0 17.35 -13.15 16.75 -13.9 15.85 Q-13.65 15.0 -12.75 14.55 -11.7 13.85 -11.25 11.95" fill="#62381e" fill-rule="evenodd" stroke="none"/>
      <path d="M-11.9 17.3 Q-11.15 16.8 -11.15 15.75 -10.65 14.3 -9.4 13.45 L-9.35 13.35 -9.35 13.3 -9.1 13.5 -8.85 13.3 -8.6 13.25 Q-10.4 15.1 -11.1 17.2 L-11.9 17.3" fill="#854c29" fill-rule="evenodd" stroke="none"/>
      <path d="M-12.75 14.55 Q-13.65 15.0 -13.9 15.85 L-14.0 15.75 -14.15 15.0 -14.1 14.95 Q-12.55 13.5 -11.5 11.0 L-11.35 11.75 -11.25 11.95 Q-11.7 13.85 -12.75 14.55" fill="#331d0f" fill-rule="evenodd" stroke="none"/>
      <path d="M-8.85 13.0 L-9.4 13.0 -9.5 13.05 -10.35 12.6 -10.5 12.5 -11.0 11.95 -11.1 11.75 -11.1 11.25 M-11.5 11.0 Q-12.55 13.5 -14.1 14.95 L-14.15 15.0 -14.0 15.75 -13.9 15.85 -13.15 16.75 -12.0 17.35 -11.9 17.3 -11.1 17.2 Q-10.4 15.1 -8.6 13.25" ffdec:has-small-stroke="true" ffdec:original-stroke-width="0.15" fill="none" stroke="#000000" stroke-linecap="square" stroke-linejoin="miter-clip" stroke-miterlimit="3.0" stroke-opacity="0.24705882" stroke-width="0.6611071051966346"/>
      <path d="M6.8 2.25 L6.85 2.3 8.6 2.25 -0.75 3.3 -0.9 3.0 -0.15 3.0 4.6 2.55 4.45 2.55 4.6 2.5 6.8 2.25 M-7.35 -8.35 L-5.9 -8.1 -5.35 -7.25 -2.65 -7.0 3.05 -7.1 5.9 -8.35 10.95 -2.1 10.35 -0.35 7.9 -0.1 7.9 0.0 5.6 0.0 6.85 -0.1 8.8 -0.5 8.95 -0.6 9.55 -2.2 5.7 -6.85 3.95 -4.75 -3.6 -4.5 -1.6 -1.85 -0.85 -1.7 -0.75 -1.6 -0.1 -0.6 0.0 -0.6 -0.1 -0.5 0.15 -0.35 0.8 -0.1 1.4 0.0 4.55 0.15 0.9 0.55 0.9 0.6 -2.1 0.85 -7.35 -8.35 M-8.5 -4.85 L-8.5 -5.45 -8.35 -5.1 -6.15 -1.2 -6.1 -1.25 -6.1 -1.2 -6.15 -1.1 -3.75 3.05 -4.25 2.7 -8.5 -4.85" fill="#cc6600" fill-rule="evenodd" stroke="none"/>
      <path d="M8.8 -0.5 L6.85 -0.1 5.55 0.0 5.55 -0.1 5.4 0.05 4.55 0.15 1.4 0.0 0.8 -0.1 0.15 -0.35 -0.1 -0.5 0.0 -0.6 -0.1 -0.6 -0.75 -1.6 -0.85 -1.7 -1.6 -1.85 -3.6 -4.5 3.95 -4.75 5.7 -6.85 9.55 -2.2 8.95 -0.6 8.8 -0.5" fill="#f7e9d5" fill-rule="evenodd" stroke="none"/>
      <path d="M-8.35 -5.1 L-8.5 -5.45 -8.5 -6.25 -8.1 -7.1 -6.75 -7.35 -8.35 -5.1 -5.65 -5.5 -7.15 -3.0 -4.5 -3.5 -6.1 -1.25 -3.6 -1.6 -4.35 -0.5 -2.4 0.3 -2.2 2.5 -1.25 2.35 -1.75 1.6 -1.35 0.85 -0.25 3.0 -0.9 3.0 -1.25 2.35 -2.15 3.55 -3.0 3.6 -3.75 3.05 -5.1 0.6 -6.15 -1.1 -6.1 -1.2 -6.1 -1.25 -6.15 -1.2 -7.15 -3.0 -8.35 -5.1 M-5.1 0.6 L-4.65 0.55 -4.85 0.3 -5.1 0.6 M0.9 0.6 L0.9 0.55 2.3 2.75 -0.15 3.0 0.9 0.6 M5.4 0.05 L5.6 0.0 6.8 2.25 4.6 2.5 5.4 0.05 M3.35 0.4 L4.45 2.55 4.6 2.55 2.3 2.75 3.35 0.4 M8.95 1.75 L8.6 2.25 6.85 2.3 7.9 0.0 7.9 -0.1 8.95 1.75" fill="#ffcc33" fill-rule="evenodd" stroke="none"/>
      <path d="M-5.65 -5.5 L-8.35 -5.1 -6.75 -7.35 -5.65 -5.5 -4.5 -3.5 -7.15 -3.0 -5.65 -5.5 M-7.35 -8.35 L-6.75 -7.35 -8.1 -7.1 -7.4 -8.45 -7.35 -8.35 M7.9 0.0 L6.85 2.3 6.8 2.25 5.6 0.0 7.9 0.0 M7.9 -0.1 L10.35 -0.35 9.8 0.85 8.95 1.75 7.9 -0.1 M-0.75 3.3 L-2.15 3.55 -1.25 2.35 -0.75 3.3 M-0.25 3.0 L-1.35 0.85 -1.75 1.6 -1.25 2.35 -3.9 2.75 -2.4 0.3 -2.1 0.85 0.9 0.6 -0.15 3.0 -0.25 3.0 M0.9 0.55 L5.4 0.05 4.6 2.5 4.45 2.55 3.35 0.4 2.3 2.75 0.9 0.55 M-6.1 -1.25 L-4.5 -3.45 -2.4 0.3 -5.1 0.6 -3.6 -1.6 -6.1 -1.25" fill="#77aa77" fill-rule="evenodd" stroke="none"/>
      <path d="M10.3 -0.25 L9.8 0.85" ffdec:has-small-stroke="true" ffdec:original-stroke-width="0.15" fill="none" stroke="#ffffff" stroke-linecap="round" stroke-linejoin="round" stroke-width="0.6611071051966346"/>
      <path d="M-8.5 -5.45 L-8.35 -5.1 -6.75 -7.35 -8.1 -7.1 M-5.65 -5.5 L-8.35 -5.1 -7.15 -3.0 -5.65 -5.5 -6.75 -7.35 -7.35 -8.35 M-5.65 -5.5 L-4.5 -3.5 -4.5 -3.45 -2.4 0.3 -2.1 0.85 0.9 0.6 0.9 0.55 5.4 0.05 5.55 -0.1 5.55 0.0 5.6 0.0 7.9 0.0 7.9 -0.1 10.35 -0.35 M-4.5 -3.5 L-7.15 -3.0 -6.15 -1.2 -6.1 -1.25 -4.5 -3.45 M0.9 0.55 L2.3 2.75 3.35 0.4 4.45 2.55 4.6 2.55 2.3 2.75 -0.15 3.0 -0.25 3.0 -0.9 3.0 -0.75 3.3 M8.6 2.25 L6.85 2.3 6.8 2.25 4.6 2.5 5.4 0.05 5.6 0.0 6.8 2.25 M7.9 0.0 L6.85 2.3 M-0.25 3.0 L-1.35 0.85 -1.75 1.6 -1.25 2.35 -0.9 3.0 M-1.75 1.6 L-2.1 0.85 M0.9 0.6 L-0.15 3.0 M-6.15 -1.1 L-5.1 0.6 -3.6 -1.6 -6.1 -1.25 -6.1 -1.2 -6.15 -1.2 -6.15 -1.1 M-2.15 3.55 L-1.25 2.35 -3.9 2.75 -3.75 3.05 M-3.9 2.75 L-2.4 0.3 -5.1 0.6 -3.9 2.75 M8.95 1.75 L7.9 -0.1" ffdec:has-small-stroke="true" ffdec:original-stroke-width="0.15" fill="none" stroke="#000000" stroke-linecap="round" stroke-linejoin="round" stroke-opacity="0.35686275" stroke-width="0.6611071051966346"/>
      <path d="M9.65 -2.1 L8.9 -0.5 8.7 -0.5 6.8 0.0 1.4 0.15 0.7 0.0 0.15 -0.25 -0.1 -0.5 -0.85 -1.6 -1.65 -1.85 -4.65 -6.0 -0.25 -5.75 2.15 -5.85 3.2 -6.1 5.6 -7.0 5.65 -6.75 9.65 -2.1 M10.15 0.5 L8.55 2.25 -3.0 3.7 -3.6 3.25 -2.15 -0.6 -1.4 -0.25 -0.15 -0.45 -0.25 -0.45 1.05 0.95 1.8 1.25 Q5.55 1.75 10.1 0.5 L10.15 0.5" fill="#000000" fill-opacity="0.3019608" fill-rule="evenodd" stroke="none"/>
      <path d="M10.7 -2.2 L10.95 -2.0 10.05 0.5 10.15 0.5 10.05 0.55 9.9 0.7 8.55 2.25 -3.0 3.7 -4.35 2.75 -8.5 -4.95 -8.6 -6.2 -7.5 -8.35 -5.9 -8.1 -3.6 -4.5 -2.25 -4.6 0.5 -4.6 3.15 -4.6 3.95 -4.7 4.65 -5.7 5.65 -6.85 5.55 -7.0 3.2 -6.1 M4.65 -5.7 L8.7 -0.5 8.9 -0.6 9.55 -2.1 5.65 -6.85 M10.05 0.5 L10.05 0.55 M0.5 -4.6 L4.05 0.15 6.7 -0.1 3.15 -4.6 M10.05 0.5 Q5.55 1.7 1.7 1.1 L1.05 0.95 -0.25 -0.5 -0.15 -0.5 -0.1 -0.6 -1.4 -0.35 -2.65 -0.95 -7.5 -8.35 M-3.6 -4.5 L-1.75 -1.85 -0.85 -1.7 -0.1 -0.6 M-0.15 -0.5 L0.1 -0.25 1.35 0.05 -2.25 -4.6 M1.35 0.05 L4.05 0.15 M6.7 -0.1 L8.7 -0.5" ffdec:has-small-stroke="true" ffdec:original-stroke-width="0.15" fill="none" stroke="#000000" stroke-linecap="round" stroke-linejoin="round" stroke-opacity="0.3019608" stroke-width="0.6611071051966346"/>
      <path d="M-5.35 -7.25 Q-1.6 -6.7 2.95 -7.1 L5.8 -8.35 10.7 -2.2 M3.2 -6.1 L-0.35 -5.75 -4.65 -6.1" ffdec:has-small-stroke="true" ffdec:original-stroke-width="0.15" fill="none" stroke="#000000" stroke-linecap="round" stroke-linejoin="round" stroke-opacity="0.3019608" stroke-width="0.6611071051966346"/>
      <path d="M3.65 -18.0 L4.65 -16.6 2.3 -16.5 2.4 -15.75 2.15 -15.85 -1.35 -16.0 -1.5 -15.85 -2.5 -17.35 -2.35 -17.5 Q-0.7 -18.0 1.05 -17.5 L1.3 -17.35 1.35 -17.25 1.4 -17.35 1.3 -17.95 3.65 -18.0" fill="#77aa77" fill-rule="evenodd" stroke="none"/>
      <path d="M2.3 -16.5 L4.65 -16.6 3.15 -13.85 Q1.3 -14.6 -2.75 -13.35 L-1.5 -15.85 -1.35 -16.0 2.15 -15.85 2.4 -15.75 2.3 -16.5" fill="#132b11" fill-rule="evenodd" stroke="none"/>
      <path d="M-1.5 -15.85 L-2.75 -13.35 -3.75 -14.75 -2.5 -17.35 -1.5 -15.85" fill="#416944" fill-rule="evenodd" stroke="none"/>
      <path d="M4.65 -16.6 L3.15 -13.85 Q1.3 -14.6 -2.75 -13.35 L-3.75 -14.75 -2.5 -17.35 -2.35 -17.5 Q-0.7 -18.0 1.05 -17.5 L1.3 -17.35 1.4 -17.35 1.4 -17.75 1.3 -17.95 3.65 -18.0 4.65 -16.6 2.35 -16.5 2.3 -16.5 2.4 -15.75 2.15 -15.85 -1.35 -16.0 -1.5 -15.85 -2.75 -13.35 M1.3 -17.35 L2.15 -15.85 M2.35 -16.5 L1.4 -17.75 M-2.5 -17.35 L-1.5 -15.85" ffdec:has-small-stroke="true" ffdec:original-stroke-width="0.15" fill="none" stroke="#000000" stroke-linecap="round" stroke-linejoin="round" stroke-opacity="0.3019608" stroke-width="0.6611071051966346"/>
      <path d="M9.85 -14.75 L10.8 -13.25 10.4 -12.2 10.35 -12.2 8.1 -12.0 6.85 -14.1 9.85 -14.75 M14.3 -8.0 L13.6 -6.75 13.4 -4.2 12.9 -3.35 12.1 -1.6 10.4 -0.45 Q5.7 1.0 2.15 0.15 L0.95 -1.1 0.15 -0.35 -1.35 -0.1 -2.6 -0.75 -7.35 -8.1 -7.35 -8.35 -4.5 -12.85 -2.5 -14.0 -2.1 -14.0 -1.35 -13.45 2.95 -13.25 6.1 -8.75 2.35 -6.95 2.3 -5.1 10.05 -5.35 8.85 -2.85 11.65 -2.95 13.1 -6.2 11.6 -6.6 10.15 -9.0 12.15 -9.35 13.2 -9.7 14.3 -8.0 M-0.85 -12.85 L2.4 -8.0 5.15 -9.35 2.8 -12.6 -0.85 -12.85" fill="#ffcc33" fill-rule="evenodd" stroke="none"/>
      <path d="M13.1 -6.2 L11.65 -2.95 8.85 -2.85 10.05 -5.35 2.3 -5.1 2.35 -6.95 6.1 -8.75 2.95 -13.25 -1.35 -13.45 -2.1 -14.0 6.85 -14.1 8.1 -12.0 10.35 -12.2 10.4 -12.2 12.15 -9.35 10.15 -9.0 11.6 -6.6 13.1 -6.2" fill="#ffefcc" fill-rule="evenodd" stroke="none"/>
      <path d="M2.8 -12.6 L5.15 -9.35 2.4 -8.0 -0.85 -12.85 2.8 -12.6" fill="#ff6200" fill-rule="evenodd" stroke="none"/>
      <path d="M12.9 -3.35 L13.55 -2.0 12.55 -0.25 10.2 0.75 Q5.7 2.05 1.85 1.35 L1.1 1.1 -0.1 -0.2 0.15 -0.35 0.95 -1.1 2.15 0.15 Q5.7 1.0 10.4 -0.45 L12.1 -1.6 12.9 -3.35" fill="#ff6600" fill-rule="evenodd" stroke="none"/>
      <path d="M12.05 -9.25 L12.85 -9.5 13.9 -7.85 13.45 -7.75 12.9 -8.75 12.65 -8.6 13.3 -7.75 12.4 -7.45 11.55 -9.2 11.85 -9.2 12.4 -8.2 12.65 -8.25 12.05 -9.25" fill="#ff6600" fill-rule="evenodd" stroke="none"/>
      <path d="M9.15 -13.5 L9.35 -13.6 8.7 -14.35 9.45 -14.6 10.35 -13.45 10.05 -13.35 9.55 -14.0 9.4 -13.95 9.9 -13.25 9.15 -12.95 8.4 -14.25 8.6 -14.25 9.15 -13.5" fill="#ff6600" fill-rule="evenodd" stroke="none"/>
      <path d="M11.2 -7.1 L11.6 -7.2 Q12.8 -7.25 14.2 -7.85 L13.55 -6.75 13.4 -4.2 12.15 -1.75 Q11.7 -1.25 10.4 -0.5 9.35 0.1 6.05 0.4 L2.4 0.05 1.05 -1.1 2.35 0.5 6.05 0.85 10.15 0.4 12.4 -1.0 13.4 -2.25 13.55 -2.0 12.55 -0.25 10.45 0.7 10.2 0.75 Q5.7 2.05 1.8 1.35 L1.1 1.2 -0.1 -0.2 0.15 -0.35 -1.35 -0.1 -2.35 -0.5 0.9 -4.85 0.9 -5.0 1.4 -5.6 2.2 -6.25 2.3 -6.25 11.2 -7.1 M10.6 -12.95 L10.4 -12.2 11.15 -11.0 8.15 -12.25 10.6 -12.95" fill="#000000" fill-opacity="0.3019608" fill-rule="evenodd" stroke="none"/>
      <path d="M-2.6 -14.0 L3.1 -6.35 2.3 -6.25 2.2 -6.25 1.4 -5.6 0.9 -5.0 -4.6 -13.0 -2.6 -14.0" fill="#ffffff" fill-opacity="0.4" fill-rule="evenodd" stroke="none"/>
      <path d="M12.1 -1.7 L13.4 -4.35 13.6 -6.75 14.4 -8.0 13.15 -9.75 12.15 -9.45 10.15 -9.0 M-7.35 -8.35 L-4.5 -12.95 -2.5 -14.1 6.85 -14.1 9.85 -14.85 10.8 -13.45 10.4 -12.25 12.15 -9.45" ffdec:has-small-stroke="true" ffdec:original-stroke-width="0.15" fill="none" stroke="#000000" stroke-linecap="round" stroke-linejoin="round" stroke-opacity="0.3019608" stroke-width="0.6611071051966346"/>
      <path d="M10.15 -9.0 L11.65 -6.7 13.15 -6.25 11.65 -3.0 8.85 -2.95 10.1 -5.45 2.3 -5.25 2.4 -6.95 6.05 -8.95 2.95 -13.35 -1.35 -13.6 -2.0 -14.1 M6.85 -14.1 L8.1 -12.1 10.35 -12.25 M12.1 -1.7 L10.4 -0.5 Q5.6 0.8 2.1 0.05 L0.9 -1.1 0.15 -0.35 0.0 -0.2 1.15 1.05 1.85 1.3 Q5.65 1.95 10.2 0.6 L12.6 -0.35 13.45 -2.1 12.9 -3.45 M2.4 -8.1 L-0.85 -12.85 2.8 -12.75 5.15 -9.45 2.4 -8.1 M-7.35 -8.25 L-2.6 -0.75 -1.35 -0.2 0.15 -0.35" ffdec:has-small-stroke="true" ffdec:original-stroke-width="0.15" fill="none" stroke="#000000" stroke-linecap="round" stroke-linejoin="round" stroke-opacity="0.3019608" stroke-width="0.6611071051966346"/>
      <path d="M7.15 -3.6 L6.4 -2.35 Q5.25 -0.9 3.8 -0.35 L3.4 -0.2 2.3 0.0 1.35 -0.1 0.5 -0.75 Q0.3 -1.2 0.4 -1.35 L0.4 -2.0 0.7 -2.5 0.8 -2.6 0.95 -3.0 1.95 -4.35 2.55 -4.95 3.65 -5.85 5.1 -6.75 6.1 -7.0 6.9 -6.85 7.55 -6.1 7.65 -5.5 7.65 -5.1 7.15 -3.6" fill="#181810" fill-rule="evenodd" stroke="none"/>
      <path d="M3.8 -0.35 L3.4 -0.2" ffdec:has-small-stroke="true" ffdec:original-stroke-width="0.15" fill="none" stroke="#876a00" stroke-linecap="round" stroke-linejoin="round" stroke-opacity="0.4" stroke-width="0.6611071051966346"/>
      <path d="M6.8 -3.6 L6.7 -3.75 6.65 -3.6 6.8 -3.6 M7.05 -6.0 L7.9 -6.0 8.15 -5.35 7.95 -4.1 7.45 -2.85 6.4 -1.7 6.2 -1.6 3.05 -1.5 2.95 -1.6 Q2.6 -2.35 3.65 -3.7 L4.85 -5.1 Q5.9 -5.75 7.05 -6.0" fill="#ffffff" fill-rule="evenodd" stroke="none"/>
      <path d="M3.7 -4.1 L4.15 -4.5 4.85 -5.1 3.65 -3.7 Q2.6 -2.35 2.95 -1.6 L3.05 -1.5 6.2 -1.6 5.85 -1.35 Q4.75 -0.5 3.7 -0.25 L2.4 -0.25 Q1.5 -0.7 2.1 -2.0 L2.55 -2.95 2.6 -3.0 3.7 -4.1" fill="#e7e2d3" fill-rule="evenodd" stroke="none"/>
      <path d="M3.7 -4.1 L4.15 -4.5 4.85 -5.1 Q5.9 -5.75 7.05 -6.0 L7.9 -6.0 8.15 -5.35" ffdec:has-small-stroke="true" ffdec:original-stroke-width="0.15" fill="none" stroke="#876700" stroke-linecap="round" stroke-linejoin="round" stroke-opacity="0.5372549" stroke-width="0.6611071051966346"/>
      <path d="M7.95 -4.1 L8.15 -5.35 M2.4 -0.25 Q1.5 -0.7 2.1 -2.0 L2.6 -3.0 3.7 -4.1" ffdec:has-small-stroke="true" ffdec:original-stroke-width="0.15" fill="none" stroke="#876a00" stroke-linecap="round" stroke-linejoin="round" stroke-opacity="0.4" stroke-width="0.6611071051966346"/>
      <path d="M7.15 -4.5 L6.55 -1.85 6.45 -1.85 4.9 -1.6 5.15 -2.85 5.65 -2.95 5.55 -2.2 6.15 -2.25 6.6 -4.0 4.05 -3.75 3.4 -0.85 5.65 -1.1 4.9 -0.6 2.95 -0.45 3.85 -4.2 7.15 -4.5" fill="#ff0000" fill-rule="evenodd" stroke="none"/>
      <path d="M4.9 -0.6 L5.65 -1.1 6.1 -1.2 Q9.35 -1.2 12.2 -2.1 L11.95 -1.5 5.15 -0.6 4.9 -0.6" fill="#aa0000" fill-rule="evenodd" stroke="none"/>
      <path d="M1.95 -2.5 L2.95 -6.2 Q10.65 -6.7 9.3 -4.1 6.4 -2.4 1.95 -2.5" fill="#26261c" fill-opacity="0.65882355" fill-rule="evenodd" stroke="none"/>
      <path d="M7.65 -8.45 L7.9 -8.35 7.9 -8.25 7.95 -8.25 7.9 -9.0 10.35 -9.1 11.3 -7.5 8.9 -7.35 8.85 -7.45 8.9 -6.7 8.65 -6.75 Q7.05 -7.45 5.1 -6.75 L4.95 -6.6 4.1 -8.25 4.15 -8.35 7.65 -8.45" fill="#77aa77" fill-rule="evenodd" stroke="none"/>
      <path d="M8.65 -6.75 L8.9 -6.7 8.85 -7.45 8.9 -7.35 11.3 -7.5 9.65 -4.6 Q7.8 -5.35 3.6 -3.85 L4.95 -6.6 5.1 -6.75 Q7.05 -7.45 8.65 -6.75" fill="#132b11" fill-rule="evenodd" stroke="none"/>
      <path d="M4.95 -6.6 L3.6 -3.85 2.65 -5.35 4.1 -8.25 4.95 -6.6" fill="#416944" fill-rule="evenodd" stroke="none"/>
      <path d="M7.9 -9.0 L10.35 -9.1 11.3 -7.5 9.65 -4.6 Q7.8 -5.35 3.6 -3.85 L2.65 -5.35 4.1 -8.25 4.15 -8.35 7.65 -8.45 7.9 -8.35 7.95 -8.25 7.95 -8.75 7.9 -9.0 M7.9 -8.35 L7.9 -8.25 8.65 -6.75 8.9 -6.7 8.85 -7.4 7.95 -8.75 M11.3 -7.5 L8.9 -7.35 8.85 -7.4 8.85 -7.45 8.9 -7.35 M3.6 -3.85 L4.95 -6.6 4.1 -8.25 M4.95 -6.6 L5.1 -6.75 Q7.05 -7.45 8.65 -6.75" ffdec:has-small-stroke="true" ffdec:original-stroke-width="0.15" fill="none" stroke="#000000" stroke-linecap="round" stroke-linejoin="round" stroke-opacity="0.3019608" stroke-width="0.6611071051966346"/>
    </g>
    <g id="sprite10">
      <use ffdec:characterId="24" height="7.4" transform="matrix(0.9659, 0.2588, -0.2588, 0.9659, 1.05, -0.75)" width="5.65" xlink:href="#sprite11"/>
    </g>
    <g id="sprite11">
      <use ffdec:characterId="23" height="7.4" transform="matrix(1.0, 0.0, 0.0, 1.0, 0.0, 0.0)" width="5.65" xlink:href="#shape8"/>
    </g>
    <g id="shape8">
      <path d="M3.2 1.5 L3.25 1.9 2.95 3.15 2.65 3.75 3.1 4.65 2.5 4.0 2.2 4.3 Q1.75 4.7 1.4 4.6 L1.2 4.55 0.25 5.5 1.05 4.25 1.05 3.95 1.15 3.2 0.45 3.25 1.35 2.6 1.35 2.65 1.9 1.75 2.3 -0.4 2.45 1.25 2.9 1.2 3.05 1.35 3.6 0.75 3.2 1.5" fill="#29170c" fill-rule="evenodd" stroke="none"/>
      <path d="M5.7 4.75 L5.5 4.7 5.6 4.9 5.7 4.75 M5.05 4.65 L5.25 4.65 5.5 4.7 5.25 4.65 5.05 4.65 2.3 2.1 3.2 2.2 5.8 4.6 5.75 4.65 5.85 4.65 5.8 4.8 5.9 5.1 5.65 6.1 Q5.65 6.6 4.9 7.0 L4.4 6.9 4.3 6.8 4.15 6.45 3.95 5.85 3.95 5.7 4.75 5.8 Q5.3 6.1 5.0 5.4 4.7 4.65 5.05 4.65" fill="#5f4521" fill-rule="evenodd" stroke="none"/>
      <path d="M5.5 4.7 L5.7 4.75 5.6 4.9 5.5 4.7" fill="#b97b3e" fill-rule="evenodd" stroke="none"/>
      <path d="M5.05 4.65 Q4.7 4.65 5.0 5.4 5.3 6.1 4.75 5.8 L3.95 5.7 3.95 5.85 4.15 6.45 4.3 6.8 1.4 3.9 1.3 3.0 1.7 2.55 2.3 2.1 5.05 4.65" fill="#8b6630" fill-rule="evenodd" stroke="none"/>
      <path d="M5.5 4.7 L5.7 4.75 M5.5 4.7 L5.25 4.65 5.05 4.65 Q4.7 4.65 5.0 5.4 5.3 6.1 4.75 5.8 L3.95 5.7 M4.15 6.45 L4.3 6.8 4.4 6.9 4.9 7.0 Q5.65 6.6 5.65 6.1 L5.9 5.1 5.8 4.8 5.85 4.65 5.75 4.65 M5.8 4.6 L3.2 2.2 2.3 2.1 1.7 2.55 1.3 3.0 1.4 3.9 4.3 6.8" ffdec:has-small-stroke="true" ffdec:original-stroke-width="0.15" fill="none" stroke="#000000" stroke-linecap="butt" stroke-linejoin="miter-clip" stroke-miterlimit="3.0" stroke-opacity="0.25882354" stroke-width="0.6634038657840823"/>
    </g>
    <g id="sprite12">
      <use ffdec:characterId="27" height="5.0" transform="matrix(1.0, 0.0, 0.0, 1.0, 0.0, 0.0)" width="5.05" xlink:href="#shape9"/>
    </g>
    <g id="shape9">
      <path d="M0.75 4.05 L0.8 4.05 0.8 4.1 0.75 4.05" fill="#d64646" fill-rule="evenodd" stroke="none"/>
      <path d="M0.3 -0.4 L0.65 1.75 0.6 1.75 -0.5 1.4 -0.7 1.9 -1.4 1.65 -1.3 1.35 -1.75 1.2 -1.0 -0.55 0.3 -0.4" fill="#97662d" fill-rule="evenodd" stroke="none"/>
      <path d="M0.6 1.75 L0.45 2.3 0.45 2.9 -1.15 2.75 0.75 4.05 0.75 4.45 -1.95 3.35 -1.9 3.05 -1.9 3.0 -2.75 2.35 -2.35 1.0 -1.75 1.2 -1.3 1.35 -1.4 1.65 -0.7 1.9 -1.15 2.75 -0.7 1.9 -0.5 1.4 0.6 1.75" fill="#c0914c" fill-rule="evenodd" stroke="none"/>
      <path d="M0.3 -0.4 L1.8 -0.15 2.1 1.2 2.3 2.55 0.8 4.05 0.75 4.05 -1.15 2.75 0.45 2.9 0.45 2.3 0.6 1.75 0.65 1.75 0.3 -0.4 M0.8 4.05 L0.8 3.75 0.75 3.9 0.8 4.05" fill="#a46e35" fill-rule="evenodd" stroke="none"/>
      <path d="M2.1 1.2 L1.8 -0.15 0.3 -0.4 -1.0 -0.55 -1.75 1.2" ffdec:has-small-stroke="true" ffdec:original-stroke-width="0.15" fill="none" stroke="#1f1f1f" stroke-linecap="round" stroke-linejoin="round" stroke-opacity="0.3019608" stroke-width="0.33404692691820764"/>
      <path d="M-1.15 2.75 L0.75 4.05 0.8 4.1 M0.8 4.05 L2.3 2.55 2.1 1.2 M-0.7 1.9 L-1.15 2.75 M-0.7 1.9 L-0.5 1.4" ffdec:has-small-stroke="true" ffdec:original-stroke-width="0.15" fill="none" stroke="#1f1f1f" stroke-linecap="round" stroke-linejoin="round" stroke-opacity="0.3019608" stroke-width="0.33404692691820764"/>
    </g>
    <g id="sprite13">
      <use ffdec:characterId="32" height="5.85" transform="matrix(0.8964, -0.0039, 0.087, 0.8326, 0.7, -0.9)" width="3.65" xlink:href="#sprite14"/>
    </g>
    <g id="sprite14">
      <use ffdec:characterId="30" height="5.85" id="cR_Epaule00" transform="matrix(1.0, 0.0, 0.0, 1.0, -0.6, 3.35)" width="3.65" xlink:href="#sprite15"/>
      <use ffdec:characterId="31" height="5.4" transform="matrix(1.0, 0.0, 0.0, 1.0, 0.0, 0.0)" width="3.55" xlink:href="#shape11"/>
    </g>
    <g id="sprite15">
      <use ffdec:characterId="29" height="5.85" transform="matrix(1.0, 0.0, 0.0, 1.0, 0.0, 0.0)" width="3.65" xlink:href="#shape10"/>
    </g>
    <g id="shape10">
      <path d="M1.15 -1.05 L1.75 -1.4 1.65 -0.95 0.85 1.1 0.75 1.1 0.5 4.45 -1.9 3.4 -1.7 2.0 -1.75 2.0 -1.15 -0.2 -1.15 -0.55 -1.15 -1.35 Q-0.05 -0.4 1.15 -1.05" fill="#a46e35" fill-rule="evenodd" stroke="none"/>
    </g>
    <g id="shape11">
      <path d="M0.2 3.75 L0.15 4.3 Q-0.95 5.35 -2.3 5.3 L-2.2 4.5 -2.0 4.15 0.2 3.75" fill="#a46e35" fill-rule="evenodd" stroke="none"/>
      <path d="M0.15 4.3 L0.2 3.75 M-2.2 4.5 L-2.3 5.3 -2.5 6.75 M0.15 4.3 L0.15 4.45 0.25 4.45 1.05 2.4 M-2.0 4.15 L-1.75 3.15 M0.15 4.45 L-0.1 7.8" ffdec:has-small-stroke="true" ffdec:original-stroke-width="0.15" fill="none" stroke="#1f1f1f" stroke-linecap="round" stroke-linejoin="round" stroke-opacity="0.3019608" stroke-width="0.42191495897268977"/>
    </g>
    <g id="sprite16">
      <use ffdec:characterId="15" height="9.1" transform="matrix(1.0, 0.0, 0.0, 1.0, 0.0, 0.0)" width="4.75" xlink:href="#shape12"/>
    </g>
    <g id="shape12">
      <path d="M1.4 1.55 L0.4 5.45 Q-0.15 7.3 0.15 8.65 L-1.8 8.7 Q-1.7 4.6 -0.6 0.3 0.5 0.05 1.4 1.55" fill="#a46e35" fill-rule="evenodd" stroke="none"/>
      <path d="M-0.6 0.3 Q-1.7 4.6 -1.8 8.7 L-2.45 8.2 Q-2.25 7.3 -2.4 4.75 -2.55 2.55 -1.65 0.9 L-0.6 0.3" fill="#97662d" fill-rule="evenodd" stroke="none"/>
      <path d="M0.15 8.65 Q-0.15 7.3 0.4 5.45 L1.4 1.55 M-2.45 8.2 Q-2.25 7.3 -2.4 4.75 -2.55 2.55 -1.65 0.9" ffdec:has-small-stroke="true" ffdec:original-stroke-width="0.15" fill="none" stroke="#000000" stroke-linecap="round" stroke-linejoin="round" stroke-opacity="0.36078432" stroke-width="0.33333820161830013"/>
      <path d="M1.4 -0.05 L1.2 7.05 Q-0.6 7.5 -1.95 6.65 L-0.35 -0.25 1.4 -0.05" fill="#cc6600" fill-rule="evenodd" stroke="none"/>
      <path d="M-0.35 -0.25 L-1.95 6.65 Q-2.75 6.45 -3.35 5.35 L-2.05 0.0 -0.35 -0.25" fill="#945319" fill-rule="evenodd" stroke="none"/>
      <path d="M1.2 7.05 L1.4 -0.05 M-2.05 0.0 L-3.35 5.35" ffdec:has-small-stroke="true" ffdec:original-stroke-width="0.15" fill="none" stroke="#6a5f39" stroke-linecap="round" stroke-linejoin="round" stroke-width="0.33333820161830013"/>
    </g>
    <g id="sprite17">
      <use ffdec:characterId="34" height="8.1" transform="matrix(1.0, 0.0, 0.0, 1.0, 0.0, 0.0)" width="5.6" xlink:href="#shape13"/>
    </g>
    <g id="shape13">
      <path d="M-2.8 4.65 L-2.8 2.4 -2.75 2.4 -2.8 4.65" fill="#74718c" fill-rule="evenodd" stroke="none"/>
      <path d="M2.75 1.35 L0.85 8.95 -1.15 9.45 -0.9 2.85 2.75 1.35" fill="#cc6600" fill-rule="evenodd" stroke="none"/>
      <path d="M-1.15 9.45 L-2.85 8.35 -2.8 4.65 -2.75 2.4 -0.9 2.85 -1.15 9.45" fill="#945319" fill-rule="evenodd" stroke="none"/>
      <path d="M2.75 1.35 L0.85 8.95 M-2.85 8.35 L-2.8 4.65 -2.8 2.4" ffdec:has-small-stroke="true" ffdec:original-stroke-width="0.15" fill="none" stroke="#6a5f39" stroke-linecap="round" stroke-linejoin="round" stroke-width="0.3334376506743193"/>
    </g>
    <g id="sprite18">
      <use ffdec:characterId="36" height="7.75" transform="matrix(1.0, 0.0, 0.0, 1.0, 0.0, 0.0)" width="6.05" xlink:href="#shape14"/>
    </g>
    <g id="shape14">
      <path d="M3.1 3.35 L0.65 9.9 -1.85 9.85 -2.95 8.75 -1.75 2.15 -0.1 2.85 3.1 3.35" fill="#cc6600" fill-rule="evenodd" stroke="none"/>
      <path d="M3.1 3.35 L0.65 9.9 M-2.95 8.75 L-1.75 2.15" ffdec:has-small-stroke="true" ffdec:original-stroke-width="0.15" fill="none" stroke="#6a5f39" stroke-linecap="round" stroke-linejoin="round" stroke-width="0.3356400843061702"/>
      <path d="M-1.95 9.85 L-2.9 8.65 -1.75 2.15 -0.1 2.85 -1.95 9.85" fill="#453a25" fill-opacity="0.3019608" fill-rule="evenodd" stroke="none"/>
    </g>
    <g id="sprite19">
      <use ffdec:characterId="39" height="5.6" id="cR_BassinCorps" transform="matrix(1.0, 0.0, 0.0, 1.0, 0.8, 3.0)" width="7.65" xlink:href="#sprite20"/>
      <use ffdec:characterId="41" height="7.05" id="cR_Bassin" transform="matrix(1.0, 0.0, 0.0, 1.0, 0.9, 3.55)" width="9.7" xlink:href="#sprite21"/>
      <use ffdec:characterId="42" height="6.35" transform="matrix(1.0, 0.0, 0.0, 1.0, 0.0, 0.0)" width="9.7" xlink:href="#shape17"/>
      <use ffdec:characterId="44" height="1.95" transform="matrix(0.683, -0.0266, 0.0166, 0.6008, -2.25, 0.95)" width="2.65" xlink:href="#sprite22"/>
      <use ffdec:characterId="49" height="8.85" transform="matrix(0.683, -0.0266, 0.0166, 0.6008, 0.7, 3.75)" width="12.65" xlink:href="#sprite23"/>
      <use ffdec:characterId="51" height="16.5" transform="matrix(0.683, -0.0266, 0.0166, 0.6008, 5.65, 6.35)" width="11.05" xlink:href="#sprite26"/>
      <use ffdec:characterId="53" height="19.4" transform="matrix(0.683, -0.0266, 0.0166, 0.6008, -2.85, 7.2)" width="17.9" xlink:href="#sprite27"/>
      <use ffdec:characterId="55" height="9.45" transform="matrix(0.683, -0.0266, 0.0166, 0.6008, -0.15, 4.35)" width="8.25" xlink:href="#sprite28"/>
      <use ffdec:characterId="57" height="6.75" transform="matrix(0.683, -0.0266, 0.0166, 0.6008, 4.95, 2.8)" width="3.5" xlink:href="#sprite29"/>
      <use ffdec:characterId="59" height="9.85" transform="matrix(0.683, -0.0266, 0.0166, 0.6008, -3.95, 3.75)" width="7.55" xlink:href="#sprite30"/>
    </g>
    <g id="sprite20">
      <use ffdec:characterId="38" height="5.6" transform="matrix(1.0, 0.0, 0.0, 1.0, 0.0, 0.0)" width="7.65" xlink:href="#shape15"/>
    </g>
    <g id="shape15">
      <path d="M-0.35 2.15 Q-2.55 0.9 -3.8 -2.0 L-0.8 -2.3 -0.75 -2.3 -0.05 0.2 -0.35 2.15" fill="#97662d" fill-rule="evenodd" stroke="none"/>
      <path d="M-0.35 2.15 L-0.05 0.2 -0.75 -2.3 3.85 -2.8 3.3 1.25 Q2.35 3.6 0.1 2.4 L-0.35 2.15" fill="#a46e35" fill-rule="evenodd" stroke="none"/>
    </g>
    <g id="sprite21">
      <use ffdec:characterId="40" height="7.05" transform="matrix(1.0, 0.0, 0.0, 1.0, 0.0, 0.0)" width="9.7" xlink:href="#shape16"/>
    </g>
    <g id="shape16">
      <path d="M3.5 -3.5 Q4.6 -2.95 4.9 -1.0 L3.95 -1.4 3.5 -0.3 4.05 0.95 0.95 3.55 -4.55 2.35 -3.45 0.25 -3.9 -0.2 Q-4.85 -1.05 -4.8 -1.65 L-3.3 -3.1 Q-2.7 -1.45 -1.15 -1.05 L-1.05 -1.05 -0.2 -0.95 0.05 0.0 1.45 0.25 3.2 -1.1 3.3 -0.9 3.5 -3.5" fill="#c48621" fill-rule="evenodd" stroke="none"/>
    </g>
    <g id="shape17">
      <path d="M4.95 4.5 L4.4 3.25 4.1 4.1 M4.4 3.25 L4.85 2.15 5.8 2.55 Q5.5 0.6 4.4 0.05 M-3.65 5.9 L-2.55 3.8 -3.0 3.35 Q-3.95 2.5 -3.9 1.9 L-2.4 0.45 Q-1.8 2.1 -0.25 2.5 L-0.15 2.5 0.7 2.6 -1.05 4.8 -1.65 4.45 -2.55 3.8" ffdec:has-small-stroke="true" ffdec:original-stroke-width="0.15" fill="none" stroke="#6a5f39" stroke-linecap="round" stroke-linejoin="round" stroke-width="0.3333755491624897"/>
      <path d="M0.95 3.55 L1.9 3.7 -1.3 6.4 -3.65 5.9 -2.55 3.8 -1.65 4.45 -1.05 4.8 0.7 2.6 0.95 3.55 M-0.25 2.5 L-1.95 2.5 -3.0 3.35 Q-3.95 2.5 -3.9 1.9 L-2.4 0.45 Q-1.8 2.1 -0.25 2.5" fill="#453a25" fill-opacity="0.3019608" fill-rule="evenodd" stroke="none"/>
      <path d="M-1.15 4.7 L0.0 3.45 Q3.0 3.8 4.8 2.45 L4.9 4.0 Q4.1 5.65 -0.9 4.75 L-1.15 4.7 M-1.3 4.65 L-2.85 4.3 -2.7 3.65 -1.3 4.65" fill="#88532d" fill-rule="evenodd" stroke="none"/>
      <path d="M-0.9 4.75 L-1.15 4.7" ffdec:has-small-stroke="true" ffdec:original-stroke-width="0.15" fill="none" stroke="#6a5f39" stroke-linecap="round" stroke-linejoin="round" stroke-width="0.3333755491624897"/>
      <path d="M1.85 3.3 L4.3 2.75 4.15 5.55 1.7 6.1 1.85 3.3 M2.25 3.7 L2.1 5.6 3.75 5.25 3.9 3.3 2.25 3.7" fill="#ad7901" fill-rule="evenodd" stroke="none"/>
    </g>
    <g id="sprite22">
      <use ffdec:characterId="43" height="1.95" transform="matrix(1.0, 0.0, 0.0, 1.0, 0.0, 0.0)" width="2.65" xlink:href="#shape18"/>
    </g>
    <g id="shape18">
      <path d="M1.3 -0.6 L1.3 -0.4 0.15 -0.3 -0.6 -0.35 -0.75 -0.75 -0.5 -1.0 1.3 -0.6" fill="#e8b02c" fill-rule="evenodd" stroke="none"/>
      <path d="M-0.75 -0.75 L-0.6 -0.35 0.15 -0.3 1.3 -0.4 0.75 0.95 -1.35 0.05 -0.75 -0.75" fill="#c48621" fill-rule="evenodd" stroke="none"/>
      <path d="M1.3 -0.6 L-0.5 -1.0 -0.75 -0.75 -1.35 0.05" ffdec:has-small-stroke="true" ffdec:original-stroke-width="0.15" fill="none" stroke="#000000" stroke-linecap="round" stroke-linejoin="round" stroke-opacity="0.3019608" stroke-width="0.5201521145762589" vector-effect="non-scaling-stroke"/>
    </g>
    <g id="sprite23">
      <use ffdec:characterId="45" height="0.9" transform="matrix(1.0, 0.0, 0.0, 1.0, 0.0, 0.0)" width="2.7" xlink:href="#shape19"/>
      <use ffdec:characterId="2" height="7.05" transform="matrix(1.2, 0.0, -0.0787, 1.2393, -5.75, -4.45)" width="10.1" xlink:href="#sprite24"/>
      <use ffdec:characterId="47" height="7.15" style="mix-blend-mode: multiply" transform="matrix(1.2, 0.0, -0.0787, 1.2393, -5.75, -4.45)" width="10.1" xlink:href="#sprite25"/>
      <use ffdec:characterId="48" height="8.6" transform="matrix(1.0, 0.0, 0.0, 1.0, 0.0, 0.0)" width="12.25" xlink:href="#shape22"/>
    </g>
    <g id="shape19">
      <path d="M2.65 1.8 Q1.4 2.45 -0.05 2.7" ffdec:has-small-stroke="true" ffdec:original-stroke-width="0.15" fill="none" stroke="#000000" stroke-linecap="round" stroke-linejoin="round" stroke-opacity="0.3019608" stroke-width="0.5201521145762589"/>
    </g>
    <g id="sprite24">
      <use ffdec:characterId="1" height="7.05" transform="matrix(1.0, 0.0, 0.0, 1.0, 0.0, 0.0)" width="10.1" xlink:href="#shape20"/>
    </g>
    <g id="shape20">
      <path d="M8.55 2.05 L8.95 1.9 9.6 1.05 9.9 1.35 Q10.2 2.6 10.0 3.7 9.2 6.25 7.55 6.8 L5.6 7.05 Q4.7 6.2 2.55 5.4 1.25 5.0 0.0 3.85 0.15 1.4 1.55 0.0 2.95 1.65 5.9 2.45 L7.25 2.2 Q7.0 2.95 7.35 3.2 L7.85 3.35 8.25 3.15 8.65 2.65 Q8.85 2.35 8.55 2.05" fill="#cc6600" fill-rule="evenodd" stroke="none"/>
    </g>
    <g id="sprite25">
      <use ffdec:characterId="46" height="7.15" transform="matrix(1.0, 0.0, 0.0, 1.0, 0.0, 0.0)" width="10.1" xlink:href="#shape21"/>
    </g>
    <g id="shape21">
      <path d="M8.55 2.05 L8.95 1.9 9.6 1.05 Q9.7 1.05 9.8 1.2 10.2 2.65 10.1 3.6 L9.35 5.3 8.25 6.45 7.2 6.95 5.9 7.15 4.25 6.15 Q3.3 5.5 0.9 4.55 L0.0 3.85 Q0.15 1.4 1.55 0.0 2.95 1.65 5.9 2.45 L7.25 2.2 Q7.0 2.95 7.35 3.2 L7.85 3.35 8.25 3.15 8.65 2.65 Q8.85 2.35 8.55 2.05" fill="#6e462a" fill-opacity="0.87058824" fill-rule="evenodd" stroke="none"/>
    </g>
    <g id="shape22">
      <path d="M4.4 -1.85 L4.85 -2.05 5.75 -3.2 Q6.45 -2.7 6.0 0.0 L5.15 0.95 M-6.05 0.35 Q-5.7 -2.7 -3.9 -4.4 -2.35 -2.35 1.15 -1.4 L2.75 -1.7 M2.05 4.1 L0.65 4.15 M-2.55 0.55 Q-0.05 1.7 0.45 2.65" ffdec:has-small-stroke="true" ffdec:original-stroke-width="0.15" fill="none" stroke="#000000" stroke-linecap="round" stroke-linejoin="round" stroke-opacity="0.3019608" stroke-width="0.5201521145762589" vector-effect="non-scaling-stroke"/>
      <path d="M2.75 -1.7 Q2.4 -0.8 2.85 -0.4 L3.45 -0.25 3.9 -0.5 4.45 -1.15 Q4.7 -1.5 4.4 -1.85" fill="none" stroke="#000000" stroke-linecap="round" stroke-linejoin="round" stroke-opacity="0.3019608" stroke-width="1.4000000000000001" vector-effect="non-scaling-stroke"/>
    </g>
    <g id="sprite26">
      <use ffdec:characterId="50" height="16.5" transform="matrix(1.0, 0.0, 0.0, 1.0, 0.0, 0.0)" width="11.05" xlink:href="#shape23"/>
    </g>
    <g id="shape23">
      <path d="M-0.6 -8.25 L-0.35 -7.55 -1.9 -6.45 -4.95 -4.8 Q-4.35 -5.45 -5.35 -5.25 -6.35 -5.1 -0.6 -8.25" fill="#9e9249" fill-rule="evenodd" stroke="none"/>
      <path d="M-0.35 -7.55 L-0.25 -7.45 -1.95 -5.25 -3.75 -4.15 -1.05 7.2 Q0.3 7.15 1.5 6.2 L5.05 2.7 5.55 3.0 0.6 8.05 -1.5 8.25 -5.05 -4.35 -4.95 -4.1 -4.8 -4.3 Q-4.7 -4.4 -4.95 -4.8 L-1.9 -6.45 -0.35 -7.55 M3.85 0.6 L3.75 1.8 3.2 1.65 1.0 3.4 2.85 0.9 3.85 0.6" fill="#cbc28f" fill-rule="evenodd" stroke="none"/>
      <path d="M-0.25 -7.45 L2.45 0.15 3.85 0.55 3.85 0.6 2.85 0.9 1.0 3.4 3.2 1.65 3.75 1.8 5.05 2.7 1.5 6.2 Q0.3 7.15 -1.05 7.2 L-3.75 -4.15 -1.95 -5.25 -0.25 -7.45" fill="#f1edd1" fill-rule="evenodd" stroke="none"/>
      <path d="M-0.6 -8.25 L-0.35 -7.55 -0.25 -7.45 2.45 0.15 3.85 0.55 3.85 0.6 3.75 1.8 5.05 2.7 5.55 3.0 0.6 8.05 -1.5 8.25 M3.75 1.8 L3.2 1.65 1.0 3.4" ffdec:has-small-stroke="true" ffdec:original-stroke-width="0.15" fill="none" stroke="#000000" stroke-linecap="round" stroke-linejoin="round" stroke-opacity="0.4" stroke-width="0.5201521145762589"/>
    </g>
    <g id="sprite27">
      <use ffdec:characterId="52" height="19.4" transform="matrix(1.0, 0.0, 0.0, 1.0, 0.0, 0.0)" width="17.9" xlink:href="#shape24"/>
    </g>
    <g id="shape24">
      <path d="M2.65 -3.25 L2.9 -3.5 Q3.25 -2.2 1.5 9.45 1.15 7.35 -0.35 7.75 1.75 -0.75 2.55 -2.85 L2.65 -3.25 M7.35 -2.9 L7.1 -2.85 4.75 -3.05 Q3.6 -3.25 2.4 -3.8 L0.25 -5.2 -0.9 -6.1 -1.35 -6.45 -2.05 -7.05 -2.05 -7.1 -1.85 -7.65 -2.1 -8.95 -1.25 -9.7 7.2 -6.8 7.2 -4.7 Q7.2 -3.55 7.35 -2.9" fill="#9e9249" fill-rule="evenodd" stroke="none"/>
      <path d="M2.9 -3.5 L2.65 -3.25 2.55 -2.85 0.95 -0.35 -1.6 8.05 Q-3.4 7.7 -4.95 6.85 L-1.45 -1.25 -0.9 -5.5 -1.35 -6.45 -0.9 -6.1 0.25 -5.2 2.4 -3.8 Q3.6 -3.25 4.75 -3.05 L7.1 -2.85 7.35 -2.9 Q7.4 -2.3 7.65 -2.0 L6.0 -0.75 3.9 -2.3 2.45 9.25 1.5 9.45 Q3.25 -2.2 2.9 -3.5 M-7.35 -1.25 L-2.75 -4.65 -6.7 0.45 Q-7.3 -0.1 -7.35 -1.25" fill="#cbc28f" fill-rule="evenodd" stroke="none"/>
      <path d="M2.55 -2.85 Q1.75 -0.75 -0.35 7.75 L-0.4 8.25 -1.6 8.05 0.95 -0.35 2.55 -2.85 M-2.05 -7.1 L-2.05 -7.05 -1.35 -6.45 -0.9 -5.5 -1.45 -1.25 -4.95 6.85 Q-7.3 5.6 -8.95 3.35 L-6.7 0.45 -2.75 -4.65 -7.35 -1.25 -7.25 -2.35 -2.5 -6.1 -2.05 -7.1 M7.65 -2.0 L7.75 -1.9 8.3 0.25 8.95 9.7 2.45 9.25 3.9 -2.3 6.0 -0.75 7.65 -2.0" fill="#f1edd1" fill-rule="evenodd" stroke="none"/>
      <path d="M2.9 -3.5 L2.65 -3.25 M2.55 -2.85 Q1.75 -0.75 -0.35 7.75 1.15 7.35 1.5 9.45 L2.45 9.25 8.95 9.7 8.3 0.25 M7.2 -6.8 L-1.25 -9.7 -2.1 -8.95 -1.85 -7.65 -2.05 -7.1 -2.5 -6.1 -7.25 -2.35 -7.35 -1.25 Q-7.3 -0.1 -6.7 0.45 L-8.95 3.35 Q-7.3 5.6 -4.95 6.85 -3.4 7.7 -1.6 8.05 L-0.4 8.25 -0.35 7.75 M-2.75 -4.65 L-6.7 0.45" ffdec:has-small-stroke="true" ffdec:original-stroke-width="0.15" fill="none" stroke="#000000" stroke-linecap="round" stroke-linejoin="round" stroke-opacity="0.4" stroke-width="0.5201521145762589"/>
    </g>
    <g id="sprite28">
      <use ffdec:characterId="54" height="9.45" transform="matrix(1.0, 0.0, 0.0, 1.0, 0.0, 0.0)" width="8.25" xlink:href="#shape25"/>
    </g>
    <g id="shape25">
      <path d="M2.0 -2.6 L4.15 -2.15 3.85 -1.15 0.55 -0.7 Q-1.1 1.35 -1.1 2.95 L-1.9 2.95 Q-2.45 1.95 -2.6 3.35 -3.45 3.85 -4.0 4.7 -4.4 -1.9 -2.85 -4.3 -2.6 -3.05 -0.45 -2.8 L2.0 -2.6 M-1.4 -0.45 Q-1.2 -1.1 -1.4 -1.45 -1.65 -1.75 -2.0 -1.75 L-2.55 -1.45 -2.8 -0.7 -2.55 0.1 Q-2.3 0.45 -1.95 0.45 -1.8 0.45 -1.4 -0.45" fill="#c48621" fill-rule="evenodd" stroke="none"/>
      <path d="M-2.85 -4.3 L-2.4 -4.75 Q-0.45 -3.25 2.0 -2.6 L-0.45 -2.8 Q-2.6 -3.05 -2.85 -4.3" fill="#e8b02c" fill-rule="evenodd" stroke="none"/>
      <path d="M2.0 -2.6 L4.15 -2.15 3.85 -1.15 0.55 -0.7 Q-1.1 1.35 -1.1 2.95 L-1.9 2.95 Q-2.45 1.95 -2.6 3.35 -3.45 3.85 -4.0 4.7 -4.4 -1.9 -2.85 -4.3 L-2.4 -4.75 Q-0.45 -3.25 2.0 -2.6 M-1.4 -0.45 Q-1.8 0.45 -1.95 0.45 -2.3 0.45 -2.55 0.1 L-2.8 -0.7 -2.55 -1.45 -2.0 -1.75 Q-1.65 -1.75 -1.4 -1.45 -1.2 -1.1 -1.4 -0.45 Z" ffdec:has-small-stroke="true" ffdec:original-stroke-width="0.15" fill="none" stroke="#000000" stroke-linecap="round" stroke-linejoin="round" stroke-opacity="0.3019608" stroke-width="0.5201521145762589" vector-effect="non-scaling-stroke"/>
    </g>
    <g id="sprite29">
      <use ffdec:characterId="56" height="6.75" transform="matrix(1.0, 0.0, 0.0, 1.0, 0.0, 0.0)" width="3.5" xlink:href="#shape26"/>
    </g>
    <g id="shape26">
      <path d="M0.25 -3.4 Q0.6 -2.4 0.55 -0.85 L-1.45 -0.15 -1.75 -0.7 Q-0.05 -2.25 0.25 -3.4" fill="#c48621" fill-rule="evenodd" stroke="none"/>
      <path d="M0.55 -0.85 Q0.6 -2.4 0.25 -3.4 2.25 -2.2 1.55 3.35 1.6 -1.0 0.55 -0.85" fill="#e8b02c" fill-rule="evenodd" stroke="none"/>
      <path d="M0.25 -3.4 Q-0.05 -2.25 -1.75 -0.7 L-1.45 -0.15 0.55 -0.85 Q1.6 -1.0 1.55 3.35 2.25 -2.2 0.25 -3.4 Z" ffdec:has-small-stroke="true" ffdec:original-stroke-width="0.15" fill="none" stroke="#000000" stroke-linecap="round" stroke-linejoin="round" stroke-opacity="0.3019608" stroke-width="0.5201521145762589" vector-effect="non-scaling-stroke"/>
    </g>
    <g id="sprite30">
      <use ffdec:characterId="58" height="9.85" transform="matrix(1.0, 0.0, 0.0, 1.0, 0.0, 0.0)" width="7.55" xlink:href="#shape27"/>
    </g>
    <g id="shape27">
      <path d="M-0.1 -4.95 L2.95 -4.75 Q2.35 -4.1 3.75 -2.95 L2.35 -2.95 0.8 -0.95 Q-0.3 -0.85 -0.4 -1.65 L-0.35 -2.95 -0.8 -2.45 -2.1 -1.1 -3.8 0.05 Q-2.4 -1.3 -2.8 -2.8 -1.0 -4.9 -0.1 -4.95" fill="#c48621" fill-rule="evenodd" stroke="none"/>
      <path d="M-0.8 -2.45 L-0.35 -2.95 -0.4 -1.65 Q-0.3 -0.85 0.8 -0.95 0.2 -0.4 -0.5 1.1 -1.3 2.6 -1.25 4.9 L-2.1 4.05 Q-1.95 0.4 -1.55 -0.75 L-0.8 -2.45" fill="#955c1e" fill-rule="evenodd" stroke="none"/>
      <path d="M-0.1 -4.95 Q-1.0 -4.9 -2.8 -2.8 -2.4 -1.3 -3.8 0.05 L-2.1 -1.1 -0.8 -2.45 -0.35 -2.95 M0.8 -0.95 L2.35 -2.95 3.75 -2.95 M-0.8 -2.45 L-1.55 -0.75 Q-1.95 0.4 -2.1 4.05 L-1.25 4.9 Q-1.3 2.6 -0.5 1.1 0.2 -0.4 0.8 -0.95" ffdec:has-small-stroke="true" ffdec:original-stroke-width="0.15" fill="none" stroke="#000000" stroke-linecap="round" stroke-linejoin="round" stroke-opacity="0.3019608" stroke-width="0.5201521145762589" vector-effect="non-scaling-stroke"/>
    </g>
    <g id="sprite31">
      <use ffdec:characterId="30" height="5.85" id="cR_Epaule00" transform="matrix(1.0, 0.0, 0.0, 1.0, -0.6, 3.35)" width="3.65" xlink:href="#sprite15"/>
      <use ffdec:characterId="31" height="5.4" transform="matrix(1.0, 0.0, 0.0, 1.0, 0.0, 0.0)" width="3.55" xlink:href="#shape28"/>
    </g>
    <g id="shape28">
      <path d="M0.2 3.75 L0.15 4.3 Q-0.95 5.35 -2.3 5.3 L-2.2 4.5 -2.0 4.15 0.2 3.75" fill="#a46e35" fill-rule="evenodd" stroke="none"/>
      <path d="M0.15 4.3 L0.2 3.75 M-2.2 4.5 L-2.3 5.3 -2.5 6.75 M0.15 4.3 L0.15 4.45 0.25 4.45 1.05 2.4 M-2.0 4.15 L-1.75 3.15 M0.15 4.45 L-0.1 7.8" ffdec:has-small-stroke="true" ffdec:original-stroke-width="0.15" fill="none" stroke="#1f1f1f" stroke-linecap="round" stroke-linejoin="round" stroke-opacity="0.3019608" stroke-width="0.3342536833900889"/>
    </g>
    <g id="sprite32">
      <use ffdec:characterId="61" height="14.75" transform="matrix(1.0, 0.0, 0.0, 1.0, 0.0, 0.0)" width="8.1" xlink:href="#shape29"/>
      <use ffdec:characterId="63" height="8.45" transform="matrix(0.7992, 0.0874, -0.0874, 0.7992, -0.5, -8.95)" width="16.35" xlink:href="#sprite33"/>
    </g>
    <g id="shape29">
      <path d="M2.4 -10.9 L2.45 -10.85 Q2.75 -10.1 3.2 -9.6 L3.25 -9.55 3.2 -9.55 2.4 -10.85 1.25 -11.5 1.25 -11.55 2.4 -10.9 M-4.05 -9.5 Q-3.95 -10.25 -3.45 -10.6 L-3.2 -10.8 -3.15 -10.8 -3.45 -10.55 -4.05 -9.5 M0.5 -5.2 L0.5 -5.15 0.45 -5.2 0.5 -5.2" fill="#d1cec2" fill-rule="evenodd" stroke="none"/>
      <path d="M0.5 -5.15 L0.45 -5.15 0.45 -5.2 0.5 -5.15" fill="#b0824f" fill-opacity="0.3019608" fill-rule="evenodd" stroke="none"/>
      <path d="M1.25 -11.5 L2.4 -10.85 3.2 -9.55 1.4 -9.65 -0.55 -11.2 1.25 -11.5 M0.1 0.95 L0.1 1.0 -1.25 1.4 -2.6 0.55 -2.6 0.5 -2.45 0.15 -1.8 -1.5 -2.05 -4.05 -3.65 -5.95 -4.05 -8.95 -4.05 -9.5 -3.45 -10.55 -3.15 -10.8 -2.75 -9.1 -1.45 -5.9 0.45 -5.2 0.45 -5.15 -1.2 -5.0 -0.6 -0.25 0.1 0.95" fill="#97662d" fill-rule="evenodd" stroke="none"/>
      <path d="M1.25 -11.55 L1.25 -11.5 -0.55 -11.2 1.4 -9.65 3.2 -9.55 3.25 -9.55 Q3.95 -7.4 3.75 -6.6 2.9 -4.65 3.1 -4.05 L4.05 -0.35 0.1 0.95 -0.6 -0.25 -1.2 -5.0 0.45 -5.15 0.5 -5.15 0.5 -5.2 1.6 -5.75 1.35 -7.45 1.6 -5.75 0.5 -5.2 0.45 -5.2 -1.45 -5.9 -2.75 -9.1 -3.15 -10.8 -3.2 -10.8 -3.15 -10.85 -2.5 -11.25 -2.2 -11.45 -1.85 -12.8 0.45 -13.35 1.25 -11.55 M1.6 -5.75 Q2.8 -5.75 3.75 -6.6 2.8 -5.75 1.6 -5.75" fill="#a46e35" fill-rule="evenodd" stroke="none"/>
      <path d="M-2.5 -11.25 L-2.2 -11.45 -1.85 -12.8 M0.45 -13.35 L1.25 -11.55 M0.5 -5.2 L1.6 -5.75 1.35 -7.45 M0.45 -5.2 L0.5 -5.2 M3.75 -6.6 Q2.8 -5.75 1.6 -5.75" ffdec:has-small-stroke="true" ffdec:original-stroke-width="0.15" fill="none" stroke="#1f1f1f" stroke-linecap="round" stroke-linejoin="round" stroke-opacity="0.3019608" stroke-width="0.3333332116017785"/>
      <path d="M3.25 -9.55 L3.2 -9.6 Q2.75 -10.1 2.45 -10.85 L2.4 -10.9 M3.25 -9.55 Q3.95 -7.4 3.75 -6.6 2.9 -4.65 3.1 -4.05 L4.05 -0.35 M-2.6 0.5 L-2.45 0.15 -1.8 -1.5 -2.05 -4.05 M-4.05 -8.95 L-4.05 -9.5 Q-3.95 -10.25 -3.45 -10.6" ffdec:has-small-stroke="true" ffdec:original-stroke-width="0.15" fill="none" stroke="#1f1f1f" stroke-linecap="round" stroke-linejoin="round" stroke-opacity="0.5019608" stroke-width="0.3333332116017785"/>
      <path d="M0.55 -2.25 Q0.1 -0.75 0.45 0.85" ffdec:has-small-stroke="true" ffdec:original-stroke-width="0.15" fill="none" stroke="#1f1f1f" stroke-linecap="round" stroke-linejoin="round" stroke-opacity="0.3019608" stroke-width="0.3333332116017785"/>
      <path d="M3.15 -5.1 L2.6 -3.65 M3.45 -3.45 L2.9 -2.05 M-2.05 -4.15 Q-1.05 -3.4 0.25 -3.2 M-2.05 -2.7 Q-1.05 -1.95 0.25 -1.75" ffdec:has-small-stroke="true" ffdec:original-stroke-width="0.15" fill="none" stroke="#1f1f1f" stroke-linecap="round" stroke-linejoin="round" stroke-opacity="0.3019608" stroke-width="0.3333332116017785"/>
    </g>
    <g id="sprite33">
      <use ffdec:characterId="62" height="8.45" transform="matrix(1.0, 0.0, 0.0, 1.0, 0.0, 0.0)" width="16.35" xlink:href="#shape30"/>
    </g>
    <g id="shape30">
      <path d="M2.85 -2.5 L3.4 -1.8 Q4.1 -0.9 3.35 -1.0 L2.4 -1.6 2.5 -1.75 2.9 -1.55 2.9 -1.6 2.75 -2.2 2.85 -2.5 M2.15 -1.4 L2.15 -1.3 Q2.4 -0.85 3.5 -0.6 5.25 -0.35 4.4 -1.6 L4.85 -1.15 6.05 0.2 6.15 0.3 6.05 0.45 5.7 0.6 Q5.2 0.1 4.55 0.05 2.45 -0.25 1.8 -1.35 L2.15 -1.4 M2.5 -3.3 L1.3 -3.85 1.2 -4.25 1.4 -4.1 2.5 -3.3 M2.95 -3.95 L5.1 -3.55 Q5.45 -2.6 7.5 -2.3 L7.5 -2.25 7.9 -1.65 7.55 -0.95 5.1 -2.9 2.95 -3.95 M-7.85 1.15 Q-7.5 0.35 -6.65 -0.45 -6.05 -0.25 -5.3 -0.45 -6.45 0.6 -7.85 1.15 M-2.6 -3.55 L-2.5 -3.65 -1.3 -3.95 -1.55 -3.05 -2.6 -3.55 M-2.45 -2.2 L-2.85 -1.9 -2.7 -1.9 Q-3.75 -0.95 -4.9 -1.0 -5.75 -1.05 -3.95 -2.0 -2.95 -2.2 -3.95 -1.5 -2.8 -1.65 -2.3 -2.9 L-2.0 -2.75 -2.45 -2.2 M0.4 -1.0 L0.8 -0.6 Q0.55 -0.05 0.85 0.9 1.6 1.8 2.45 1.15 L3.1 1.9 1.6 2.45 Q-0.55 2.4 -0.2 0.6 -0.8 2.2 0.25 2.75 L-1.85 3.15 Q-1.15 0.85 0.4 -1.0 M1.4 -0.4 Q2.7 0.95 3.95 1.55 L4.0 1.55 3.1 1.9 1.4 -0.4 M-4.9 3.2 Q-3.75 2.6 -2.8 1.6 -1.1 -0.3 -2.15 -0.15 -4.1 0.3 -3.6 1.35 L-2.55 0.6 Q-3.65 2.65 -3.85 1.65 -4.15 0.05 -2.3 -0.45 -0.2 -0.6 -2.5 1.8 -3.15 2.55 -2.75 3.2 L-2.8 3.25 -4.9 3.2" fill="#ddca7d" fill-rule="evenodd" stroke="none"/>
      <path d="M2.85 -2.5 Q2.9 -2.9 2.6 -3.0 L1.4 -3.4 1.3 -3.85 2.5 -3.3 2.85 -3.0 2.5 -3.3 1.4 -4.1 2.95 -3.95 5.1 -2.9 Q6.5 -1.6 7.05 -0.45 L6.05 0.2 4.85 -1.15 Q5.25 -1.15 4.65 -2.15 3.05 -3.75 2.85 -3.0 L4.4 -1.6 Q5.25 -0.35 3.5 -0.6 2.4 -0.85 2.15 -1.3 L2.15 -1.4 2.25 -1.4 2.4 -1.6 3.35 -1.0 Q4.1 -0.9 3.4 -1.8 L2.85 -2.5 M5.1 -3.55 Q6.75 -3.1 7.5 -2.3 5.45 -2.6 5.1 -3.55 M-8.2 1.9 L-7.85 1.15 Q-6.45 0.6 -5.3 -0.45 -6.05 -0.25 -6.65 -0.45 -5.25 -1.7 -2.8 -2.9 L-2.55 -2.95 -2.3 -2.9 Q-2.8 -1.65 -3.95 -1.5 -2.95 -2.2 -3.95 -2.0 -5.75 -1.05 -4.9 -1.0 -3.75 -0.95 -2.7 -1.9 L-1.95 -2.05 -1.8 -1.95 -1.45 -1.8 -2.6 -0.8 Q-1.6 -1.35 -0.4 -1.5 L-0.1 -1.45 0.0 -1.4 0.4 -1.0 Q-1.15 0.85 -1.85 3.15 L-2.75 3.2 Q-3.15 2.55 -2.5 1.8 -0.2 -0.6 -2.3 -0.45 -4.15 0.05 -3.85 1.65 -3.65 2.65 -2.55 0.6 L-3.6 1.35 Q-4.1 0.3 -2.15 -0.15 -1.1 -0.3 -2.8 1.6 -3.75 2.6 -4.9 3.2 L-5.4 3.15 -6.65 2.95 Q-5.65 1.3 -4.25 -0.1 -5.4 0.9 -6.5 1.3 -7.35 1.75 -7.7 2.35 L-8.2 1.9 M-1.8 -2.65 L-2.45 -2.2 -2.0 -2.75 -1.8 -2.65 M0.45 -1.4 L1.8 -1.35 Q2.45 -0.25 4.55 0.05 5.2 0.1 5.7 0.6 L4.0 1.55 3.95 1.55 Q2.7 0.95 1.4 -0.4 L1.35 -0.45 1.3 -0.5 0.45 -1.4 M2.5 -1.75 L2.75 -2.2 2.9 -1.6 2.9 -1.55 2.5 -1.75 M-1.8 -1.95 L-4.2 -0.15 -4.25 -0.1 -4.2 -0.15 -1.8 -1.95" fill="#d2ba59" fill-rule="evenodd" stroke="none"/>
      <path d="M7.9 -1.65 L8.1 -0.85 7.75 -0.05 7.05 0.7 6.35 1.15 6.15 0.3 6.05 0.2 7.05 -0.45 7.55 -0.95 7.9 -1.65 M5.9 1.45 L4.25 2.4 4.0 1.55 5.7 0.6 5.9 1.45 M3.5 2.7 L3.3 2.55 3.2 2.25 3.5 2.7 M1.8 3.3 L0.6 3.65 0.4 3.7 0.25 2.75 0.5 2.7 1.6 2.45 1.8 3.3 M-1.65 4.05 L-2.55 4.1 -2.75 3.2 -1.85 3.15 -1.65 4.05 M-4.65 4.2 L-5.3 4.05 -6.45 3.9 -6.45 3.75 -6.55 3.85 Q-7.95 3.4 -8.05 2.8 -8.05 2.15 -8.2 1.9 L-7.7 2.35 -6.65 2.9 -6.65 2.95 -6.55 3.45 -6.55 3.85 -6.55 3.45 -6.65 2.95 -5.4 3.15 -4.9 3.2 -4.65 4.2 M-2.8 -2.9 L-2.6 -3.55 -1.55 -3.05 -1.65 -2.8 -1.8 -2.65 -2.0 -2.75 -2.3 -2.9 -2.55 -2.95 -2.8 -2.9 M-0.1 -1.45 L0.05 -1.45 0.45 -1.4 1.3 -0.5 1.35 -0.45 1.4 -0.4 1.35 0.0 1.4 -0.4 3.1 1.9 2.45 1.15 1.35 0.0 0.8 -0.6 0.4 -1.0 0.0 -1.4 0.05 -1.45 0.0 -1.4 -0.1 -1.45 M7.75 -0.05 L7.55 -0.95 7.75 -0.05 M-6.45 3.75 L-6.55 3.45 -6.45 3.75" fill="#a28a2d" fill-rule="evenodd" stroke="none"/>
      <path d="M4.4 -1.6 L2.85 -3.0 Q3.05 -3.75 4.65 -2.15 5.25 -1.15 4.85 -1.15 L4.4 -1.6 M6.35 1.15 L6.45 1.2 6.15 1.35 5.9 1.45 5.7 0.6 6.05 0.45 6.15 0.3 6.35 1.15 M4.25 2.4 L3.55 2.7 3.5 2.7 3.2 2.25 3.3 2.55 3.35 2.75 1.8 3.3 1.6 2.45 0.5 2.7 0.25 2.75 0.4 3.7 -1.65 4.05 -1.85 3.15 0.25 2.75 Q-0.8 2.2 -0.2 0.6 -0.55 2.4 1.6 2.45 L3.1 1.9 3.2 2.25 3.1 1.9 4.0 1.55 4.25 2.4 M-2.55 4.1 L-4.65 4.2 -4.9 3.2 -2.8 3.25 -2.75 3.2 -2.55 4.1 M-1.45 -1.8 L-0.4 -1.5 Q-1.6 -1.35 -2.6 -0.8 L-1.45 -1.8 M0.8 -0.6 L1.35 0.0 2.45 1.15 Q1.6 1.8 0.85 0.9 0.55 -0.05 0.8 -0.6 M7.05 -0.45 Q6.5 -1.6 5.1 -2.9 L7.55 -0.95 7.05 -0.45 M-6.65 2.95 L-6.65 2.9 -7.7 2.35 Q-7.35 1.75 -6.5 1.3 -5.4 0.9 -4.25 -0.1 -5.65 1.3 -6.65 2.95" fill="#b79c33" fill-rule="evenodd" stroke="none"/>
      <path d="M4.4 -1.6 L2.85 -3.0 2.5 -3.3 1.3 -3.85 M1.2 -4.25 L1.4 -4.1 2.95 -3.95 5.1 -3.55 Q6.75 -3.1 7.5 -2.3 L7.5 -2.25 7.9 -1.65 8.1 -0.85 7.75 -0.05 7.05 0.7 6.35 1.15 6.45 1.2 6.15 1.35 5.9 1.45 4.25 2.4 3.55 2.7 3.5 2.7 3.3 2.55 3.35 2.75 1.8 3.3 0.6 3.65 0.4 3.7 -1.65 4.05 -2.55 4.1 -4.65 4.2 -5.3 4.05 -6.45 3.9 -6.45 3.75 -6.55 3.85 Q-7.95 3.4 -8.05 2.8 -8.05 2.15 -8.2 1.9 L-7.85 1.15 Q-7.5 0.35 -6.65 -0.45 -5.25 -1.7 -2.8 -2.9 L-2.6 -3.55 -1.55 -3.05 M-2.5 -3.65 L-1.3 -3.95 M1.4 -4.1 L2.5 -3.3 M0.0 -1.4 L0.4 -1.0 0.8 -0.6 1.35 0.0 1.4 -0.4 1.35 -0.45 1.3 -0.5 0.45 -1.4 M0.0 -1.4 L0.05 -1.45 M4.85 -1.15 L4.4 -1.6 M4.85 -1.15 L6.05 0.2 7.05 -0.45 Q6.5 -1.6 5.1 -2.9 L2.95 -3.95 M5.1 -2.9 L7.55 -0.95 7.9 -1.65 M7.55 -0.95 L7.05 -0.45 M7.55 -0.95 L7.75 -0.05 M5.7 0.6 L6.05 0.45 6.15 0.3 6.05 0.2 M5.9 1.45 L5.7 0.6 4.0 1.55 4.25 2.4 M6.15 0.3 L6.35 1.15 M3.5 2.7 L3.2 2.25 3.3 2.55 M3.1 1.9 L3.2 2.25 M1.4 -0.4 Q2.7 0.95 3.95 1.55 L4.0 1.55 3.1 1.9 2.45 1.15 Q1.6 1.8 0.85 0.9 0.55 -0.05 0.8 -0.6 M1.8 3.3 L1.6 2.45 0.5 2.7 0.25 2.75 0.4 3.7 M2.45 1.15 L1.35 0.0 M1.6 2.45 L3.1 1.9 1.4 -0.4 M-4.25 -0.1 L-4.2 -0.15 -1.8 -1.95 M-2.8 -2.9 L-2.55 -2.95 -2.3 -2.9 -2.0 -2.75 -1.8 -2.65 M-2.75 3.2 L-1.85 3.15 Q-1.15 0.85 0.4 -1.0 M-2.75 3.2 L-2.8 3.25 -4.9 3.2 -4.65 4.2 M-2.55 4.1 L-2.75 3.2 M-1.85 3.15 L-1.65 4.05 M-7.7 2.35 L-6.65 2.9 -6.65 2.95 Q-5.65 1.3 -4.25 -0.1 -5.4 0.9 -6.5 1.3 -7.35 1.75 -7.7 2.35 L-8.2 1.9 M-6.55 3.85 L-6.55 3.45 -6.65 2.95 -5.4 3.15 -4.9 3.2 M-6.55 3.45 L-6.45 3.75 M-0.1 -1.45 L0.0 -1.4 M-1.85 3.15 L0.25 2.75" ffdec:has-small-stroke="true" ffdec:original-stroke-width="0.15" fill="none" stroke="#47301b" stroke-linecap="round" stroke-linejoin="round" stroke-opacity="0.3019608" stroke-width="0.4145935701843481"/>
      <path d="M8.15 -0.85 Q8.25 -0.5 7.8 -0.05 L7.1 0.7 6.45 1.1 6.5 1.2 6.25 1.4 6.0 1.5 4.3 2.4 3.6 2.75 3.4 2.55 3.45 2.8 1.85 3.3 0.7 3.65 0.45 3.7 -1.6 4.1 -2.5 4.15 -4.55 4.15 -5.25 4.1 -6.35 3.9 -6.4 3.75 -6.55 3.85 Q-7.9 3.45 -8.0 2.8 L-8.1 1.85 -7.8 1.15 -6.55 -0.45 -6.4 -0.6 -6.5 -0.45 -6.5 0.35 -6.5 0.5 -6.0 1.15 -5.6 1.45 -3.9 1.9 -3.7 1.9 -3.4 1.95 -3.1 1.95 -2.6 1.95 -1.35 1.85 -0.35 1.75 -0.05 1.7 1.2 1.45 Q0.1 -1.1 -2.5 -2.95 -0.7 -2.35 0.85 -0.65 L2.4 1.05 2.5 1.0 2.55 1.0 Q4.0 1.5 6.2 0.4 L5.6 -0.4 Q7.6 -0.65 7.95 -1.75 L8.0 -1.65 8.15 -0.85" fill="#000000" fill-opacity="0.2" fill-rule="evenodd" stroke="none"/>
    </g>
    <g id="sprite34">
      <use ffdec:characterId="66" height="8.15" id="cR_Tete" transform="matrix(1.0, 0.0, 0.0, 1.0, 1.3, -0.85)" width="6.75" xlink:href="#sprite35"/>
      <use ffdec:characterId="67" height="7.85" transform="matrix(1.0, 0.0, 0.0, 1.0, 0.0, 0.0)" width="7.35" xlink:href="#shape32"/>
      <use ffdec:characterId="69" height="8.2" id="cR_TeteCascouet" transform="matrix(1.0, 0.0, 0.0, 1.0, 0.65, -3.35)" width="8.9" xlink:href="#sprite36"/>
      <use ffdec:characterId="70" height="8.2" transform="matrix(1.0, 0.0, 0.0, 1.0, 0.0, 0.0)" width="8.95" xlink:href="#shape34"/>
      <use ffdec:characterId="72" height="2.3" id="cOsa_R_Oreille" transform="matrix(1.8806, 0.0, 0.0, 0.9757, -3.45, 0.1)" width="2.15" xlink:href="#sprite37"/>
    </g>
    <g id="sprite35">
      <use ffdec:characterId="65" height="8.15" transform="matrix(1.0, 0.0, 0.0, 1.0, 0.0, 0.0)" width="6.75" xlink:href="#shape31"/>
    </g>
    <g id="shape31">
      <path d="M-1.2 3.55 L-1.35 3.5 -3.35 1.95 Q-3.45 1.6 -1.8 -2.3 L-0.3 -3.3 2.95 -4.1 3.4 -2.0 3.3 -1.6 3.1 -0.95 2.8 -0.5 3.1 0.6 3.1 0.75 3.1 1.0 2.55 0.5 1.25 0.85 0.65 1.7 -0.9 1.8 -1.2 3.55" fill="#97662d" fill-rule="evenodd" stroke="none"/>
      <path d="M-1.2 3.55 L-0.9 1.8 0.65 1.7 1.25 0.85 2.55 0.5 3.1 1.0 3.05 1.25 3.0 1.45 2.9 2.05 2.9 2.15 Q2.7 3.15 2.15 3.7 L1.75 3.9 0.95 4.05 -1.2 3.55" fill="#a46e35" fill-rule="evenodd" stroke="none"/>
    </g>
    <g id="shape32">
      <path d="M-0.05 2.65 L2.25 3.25 3.05 3.1 3.45 2.85 Q4.05 2.3 4.2 1.3 L4.2 1.25 4.25 0.75 4.35 0.6 4.35 0.45 4.4 -0.05 4.4 -0.25 4.05 -1.3 4.1 -1.35 4.4 -1.8 4.6 -2.4" ffdec:has-small-stroke="true" ffdec:original-stroke-width="0.15" fill="none" stroke="#1f1f1f" stroke-linecap="round" stroke-linejoin="round" stroke-opacity="0.3019608" stroke-width="0.33365427938313064"/>
      <path d="M1.7 -0.1 L2.5 -0.2 M3.9 -0.6 L4.3 -0.85" ffdec:has-small-stroke="true" ffdec:original-stroke-width="0.15" fill="none" stroke="#52351b" stroke-linecap="round" stroke-linejoin="round" stroke-width="0.33365427938313064"/>
      <path d="M3.95 -3.0 L5.05 -3.4 5.9 -1.0 5.6 1.7 3.95 -3.0" fill="#88532d" fill-rule="evenodd" stroke="none"/>
      <path d="M5.05 -3.4 L5.9 -1.0 5.6 1.7 3.95 -3.0" ffdec:has-small-stroke="true" ffdec:original-stroke-width="0.15" fill="none" stroke="#000000" stroke-linecap="round" stroke-linejoin="round" stroke-opacity="0.36078432" stroke-width="0.33365427938313064"/>
      <path d="M-0.2 2.7 L-0.15 4.45 -1.4 1.75 -1.45 -1.15 Q-0.05 -2.75 1.35 -2.7 0.6 0.55 1.0 4.15 L-0.2 2.6 -0.2 2.7 M-0.45 1.75 L-0.2 2.6 -0.45 1.75" fill="#88532d" fill-rule="evenodd" stroke="none"/>
      <path d="M-0.2 2.7 L-0.15 4.45 -1.4 1.75 -1.45 -1.15 M1.35 -2.7 Q0.6 0.55 1.0 4.15 L-0.2 2.6 -0.45 1.75" ffdec:has-small-stroke="true" ffdec:original-stroke-width="0.15" fill="none" stroke="#000000" stroke-linecap="round" stroke-linejoin="round" stroke-opacity="0.36078432" stroke-width="0.33365427938313064"/>
      <path d="M1.45 -2.9 L2.7 -2.9 1.25 2.4 0.6 -0.5 1.45 -2.9" fill="#88532d" fill-rule="evenodd" stroke="none"/>
      <path d="M1.45 -2.9 L0.6 -0.5 1.25 2.4 2.7 -2.9" ffdec:has-small-stroke="true" ffdec:original-stroke-width="0.15" fill="none" stroke="#000000" stroke-linecap="round" stroke-linejoin="round" stroke-opacity="0.36078432" stroke-width="0.33365427938313064"/>
    </g>
    <g id="sprite36">
      <use ffdec:characterId="68" height="8.2" transform="matrix(1.0, 0.0, 0.0, 1.0, 0.0, 0.0)" width="8.9" xlink:href="#shape33"/>
    </g>
    <g id="shape33">
      <path d="M0.45 -4.1 L3.45 -2.5 4.45 0.45 -0.2 1.3 -3.45 4.1 -4.45 2.15 -3.55 -2.95 0.45 -4.1" fill="#f1edd1" fill-rule="evenodd" stroke="none"/>
    </g>
    <g id="shape34">
      <path d="M5.1 -2.9 L4.1 -5.85 1.1 -7.45 -2.9 -6.3 -3.8 -1.2 -2.8 0.75 0.45 -2.05 5.1 -2.9 Z" ffdec:has-small-stroke="true" ffdec:original-stroke-width="0.15" fill="none" stroke="#1f1f1f" stroke-linecap="round" stroke-linejoin="round" stroke-opacity="0.3019608" stroke-width="0.33365427938313064"/>
      <path d="M3.1 -5.0 Q3.3 -4.25 -0.85 -3.35 -2.05 -2.65 5.15 -2.95 L0.5 -2.1 -2.75 0.7 -3.75 -1.25 -2.85 -6.35 Q-2.35 -5.4 0.25 -5.6 2.85 -5.85 3.1 -5.0" fill="#3d3521" fill-opacity="0.3019608" fill-rule="evenodd" stroke="none"/>
    </g>
    <g id="sprite37">
      <use ffdec:characterId="71" height="2.3" transform="matrix(1.0, 0.0, 0.0, 1.0, 0.0, 0.0)" width="2.15" xlink:href="#shape35"/>
    </g>
    <g id="shape35">
      <path d="M-1.05 -1.05 Q0.0 -0.95 0.55 -0.05 L0.65 1.15 0.45 1.0 -0.05 0.4 -1.1 -0.9 -1.05 -1.0 -1.05 -1.05" fill="#97662d" fill-rule="evenodd" stroke="none"/>
      <path d="M-1.05 -1.05 L0.4 -1.0 Q0.75 -0.9 0.85 -0.6 L0.95 -0.55 Q1.2 1.05 0.85 1.15 L0.65 1.15 0.55 -0.05 Q0.0 -0.95 -1.05 -1.05" fill="#a46e35" fill-rule="evenodd" stroke="none"/>
    </g>
    <g id="sprite38">
      <use ffdec:characterId="74" height="29.8" transform="matrix(1.0, 0.0, 0.0, 1.0, 0.0, 0.0)" width="24.9" xlink:href="#shape36"/>
    </g>
    <g id="shape36">
      <path d="M9.75 0.95 Q9.65 -4.95 2.75 -14.5 L1.75 -13.9 Q1.6 -15.8 3.0 -15.15 L3.35 -14.7 Q8.25 -8.65 9.3 -4.65 L10.55 -0.25 Q10.75 0.25 9.75 0.95" fill="#f7efb7" fill-rule="evenodd" stroke="none"/>
      <path d="M1.75 -13.75 L2.1 -13.75 Q5.9 -9.1 6.05 -3.5 L5.9 -2.6 Q5.55 -1.85 4.9 -1.6 4.85 -2.15 5.4 -2.55 L5.45 -2.85 Q6.2 -8.2 1.75 -13.7 L1.75 -13.75" fill="#c2af7c" fill-rule="evenodd" stroke="none"/>
      <path d="M5.9 -2.6 L6.05 -3.5 Q5.9 -9.1 2.1 -13.75 L1.75 -13.75 1.75 -13.9 2.75 -14.5 Q9.65 -4.95 9.75 0.95 L9.15 1.05 8.35 1.35 Q8.35 -1.2 5.9 -2.6" fill="#efda98" fill-rule="evenodd" stroke="none"/>
      <path d="M5.9 -2.6 Q8.35 -1.2 8.35 1.35 L4.8 2.85 Q3.9 2.55 3.55 2.1 3.15 1.75 3.0 1.05 L2.15 -0.9 Q3.4 -1.85 5.4 -2.55 4.85 -2.15 4.9 -1.6 5.55 -1.85 5.9 -2.6" fill="#eed56f" fill-rule="evenodd" stroke="none"/>
      <path d="M9.15 1.05 L9.75 0.95 Q10.75 0.25 10.55 -0.25 L9.3 -4.65 Q8.25 -8.65 3.35 -14.7 L3.0 -15.15 Q1.6 -15.8 1.75 -13.9 L1.75 -13.75 1.75 -13.7 Q6.2 -8.2 5.45 -2.85 L5.4 -2.55 Q4.85 -2.15 4.9 -1.6 M5.4 -2.55 Q3.4 -1.85 2.15 -0.9" ffdec:has-small-stroke="true" ffdec:original-stroke-width="0.15" fill="none" stroke="#000000" stroke-linecap="round" stroke-linejoin="round" stroke-opacity="0.3019608" stroke-width="0.417092398847844"/>
      <path d="M4.15 4.05 L4.2 4.05 4.55 3.8 4.6 3.75 Q4.95 3.1 4.8 2.15 4.5 0.95 3.9 0.1 L3.0 -1.05 2.55 -1.45 2.15 -1.5 2.15 -1.95 2.4 -1.95 2.6 -1.85 2.7 -1.75 Q3.45 -1.3 4.05 -0.3 4.85 0.9 5.15 2.3 5.35 3.55 4.95 4.3 L4.95 4.45 4.5 4.7 4.35 4.7 4.25 4.7 4.05 4.7 4.15 4.1 4.15 4.05" fill="#54361b" fill-rule="evenodd" stroke="none"/>
      <path d="M2.4 -1.95 L3.3 -2.1 3.35 -2.1 3.9 -1.95 Q4.85 -1.6 5.5 -0.4 6.3 0.75 6.6 2.1 6.85 3.5 6.45 4.2 L5.85 4.65 5.7 4.65 4.5 4.7 4.95 4.45 4.95 4.3 Q5.35 3.55 5.15 2.3 4.85 0.9 4.05 -0.3 3.45 -1.3 2.7 -1.75 L2.6 -1.85 2.4 -1.95" fill="#a36c34" fill-rule="evenodd" stroke="none"/>
      <path d="M4.15 4.05 L4.2 4.05 4.55 3.8 4.6 3.75 Q4.95 3.1 4.8 2.15 4.5 0.95 3.9 0.1 L3.0 -1.05 2.55 -1.45 2.15 -1.5 2.15 -1.95 2.4 -1.95 3.3 -2.1 3.35 -2.1 3.9 -1.95 Q4.85 -1.6 5.5 -0.4 6.3 0.75 6.6 2.1 6.85 3.5 6.45 4.2 L5.85 4.65 5.7 4.65 4.5 4.7 4.35 4.7 4.25 4.7 4.05 4.7 M2.4 -1.95 L2.6 -1.85 2.7 -1.75 Q3.45 -1.3 4.05 -0.3 4.85 0.9 5.15 2.3 5.35 3.55 4.95 4.3 L4.95 4.45 4.5 4.7" ffdec:has-small-stroke="true" ffdec:original-stroke-width="0.15" fill="none" stroke="#332720" stroke-linecap="round" stroke-linejoin="round" stroke-opacity="0.4509804" stroke-width="0.417092398847844" vector-effect="non-scaling-stroke"/>
      <path d="M-7.9 0.95 Q-9.15 1.0 -9.65 -0.5 -10.3 -6.75 -6.75 -13.6 -6.25 -13.75 -6.3 -13.8 L-6.25 -13.75 Q-10.6 -5.4 -8.55 0.3 -7.95 0.45 -7.9 0.95" fill="#c2af7c" fill-rule="evenodd" stroke="none"/>
      <path d="M-6.3 -13.85 L-7.6 -14.1 Q-12.95 -2.85 -13.3 3.5 L-14.0 2.8 -13.65 -0.25 Q-13.0 -5.25 -8.25 -14.1 L-8.0 -14.6 Q-6.5 -16.0 -6.3 -13.85" fill="#f7efb7" fill-rule="evenodd" stroke="none"/>
      <path d="M-6.3 -13.8 Q-6.25 -13.75 -6.75 -13.6 -10.3 -6.75 -9.65 -0.5 -9.15 1.0 -7.9 0.95 -7.95 0.45 -8.55 0.3 L-6.0 0.35 Q-5.05 2.65 -6.55 4.25 -10.1 5.25 -13.3 3.5 -12.95 -2.85 -7.6 -14.1 L-6.3 -13.85 -6.3 -13.8" fill="#efda98" fill-rule="evenodd" stroke="none"/>
      <path d="M-13.3 3.5 Q-10.1 5.25 -6.55 4.25 -5.05 2.65 -6.0 0.35 L-4.55 0.6 -5.1 3.1 -5.6 4.35 -6.85 5.9 -12.45 5.85 -13.2 5.9 -13.3 3.5" fill="#e8c064" fill-rule="evenodd" stroke="none"/>
      <path d="M-14.0 2.8 L-13.3 3.5 -13.2 5.9 Q-14.45 5.7 -14.3 5.1 L-14.0 2.8" fill="#eed56f" fill-rule="evenodd" stroke="none"/>
      <path d="M-6.3 -13.8 L-6.3 -13.85 Q-6.5 -16.0 -8.0 -14.6 L-8.25 -14.1 Q-13.0 -5.25 -13.65 -0.25 L-14.0 2.8 -14.3 5.1 Q-14.45 5.7 -13.2 5.9 L-12.45 5.85 M-6.0 0.35 L-8.55 0.3 Q-7.95 0.45 -7.9 0.95 M-4.55 0.6 L-6.0 0.35 M-8.55 0.3 Q-10.6 -5.4 -6.25 -13.75 L-6.3 -13.8" ffdec:has-small-stroke="true" ffdec:original-stroke-width="0.15" fill="none" stroke="#000000" stroke-linecap="round" stroke-linejoin="round" stroke-opacity="0.3019608" stroke-width="0.417092398847844"/>
      <path d="M-7.65 -0.45 L-6.5 -0.55 -5.9 -0.45 Q-5.15 -0.1 -4.65 1.1 -4.2 2.25 -4.25 3.65 -4.3 5.05 -4.8 5.8 L-5.55 6.25 -5.75 6.25 -7.05 6.4 -6.45 6.0 -6.45 5.95 Q-5.85 5.2 -5.75 3.85 -5.65 2.3 -6.25 1.2 -6.65 0.25 -7.25 -0.2 L-7.45 -0.3 -7.65 -0.45" fill="#a36c34" fill-rule="evenodd" stroke="none"/>
      <path d="M-7.05 6.4 L-7.2 6.3 -7.25 6.4 -7.8 6.2 -8.1 5.95 -7.55 5.6 -7.25 5.7 -7.2 5.7 -6.7 5.35 -6.55 5.25 Q-6.2 4.75 -6.1 3.65 -6.0 2.5 -6.45 1.65 L-7.05 0.5 -7.45 0.05 -7.9 -0.05 -7.9 -0.45 -7.65 -0.45 -7.45 -0.3 -7.25 -0.2 Q-6.65 0.25 -6.25 1.2 -5.65 2.3 -5.75 3.85 -5.85 5.2 -6.45 5.95 L-6.45 6.0 -7.05 6.4" fill="#54361b" fill-rule="evenodd" stroke="none"/>
      <path d="M-7.05 6.4 L-7.2 6.3 -7.25 6.4 -7.8 6.2 -8.1 5.95 -7.55 5.6 -7.25 5.7 -7.2 5.7 -6.7 5.35 -6.55 5.25 Q-6.2 4.75 -6.1 3.65 -6.0 2.5 -6.45 1.65 L-7.05 0.5 -7.45 0.05 -7.9 -0.05 -7.9 -0.45 -7.65 -0.45 -6.5 -0.55 -5.9 -0.45 Q-5.15 -0.1 -4.65 1.1 -4.2 2.25 -4.25 3.65 -4.3 5.05 -4.8 5.8 L-5.55 6.25 -5.75 6.25 -7.05 6.4 -6.45 6.0 -6.45 5.95 Q-5.85 5.2 -5.75 3.85 -5.65 2.3 -6.25 1.2 -6.65 0.25 -7.25 -0.2 L-7.45 -0.3 -7.65 -0.45" ffdec:has-small-stroke="true" ffdec:original-stroke-width="0.15" fill="none" stroke="#332720" stroke-linecap="round" stroke-linejoin="round" stroke-opacity="0.4509804" stroke-width="0.417092398847844" vector-effect="non-scaling-stroke"/>
      <path d="M5.25 6.85 Q5.3 4.9 6.0 5.15 6.35 5.5 6.05 8.75 5.9 10.2 5.25 11.55 L4.7 11.95 4.7 11.85 5.05 9.65 5.25 6.85 M6.75 4.8 Q6.0 2.2 5.35 1.6 3.8 -1.0 1.9 -5.2 L2.5 -5.3 Q6.0 -0.7 6.75 4.8 M3.55 1.85 L2.8 2.05 2.25 0.95 2.15 0.9 2.15 0.85 2.05 0.65 Q-0.45 -2.6 -2.8 -6.75 L-2.55 -6.85 -2.35 -6.55 -0.15 -4.1 Q-0.85 -5.6 -1.8 -6.9 L-0.9 -6.95 1.15 -3.5 Q2.6 -0.95 3.55 1.85 M-0.25 13.95 Q-0.65 13.6 -1.1 14.1 -1.95 13.65 -2.35 12.2 -2.9 10.25 -2.8 7.4 L-2.75 7.25 Q-2.3 4.8 -2.55 4.1 -2.55 5.85 -3.3 7.0 -4.0 1.0 -6.75 -2.95 L-5.35 -3.5 Q-3.85 -2.0 -3.2 -0.1 -3.65 -2.1 -4.75 -3.7 L-4.1 -3.9 Q-2.1 -3.0 -0.45 2.7 0.3 5.4 0.5 9.15 L0.55 10.55 0.25 12.55 -0.25 13.95 M-1.75 5.1 L-1.25 6.8 Q-1.85 5.35 -2.15 8.55 -2.15 12.95 -0.6 11.7 0.65 10.4 -0.5 7.15 -1.8 3.45 -2.3 0.2 -2.4 2.45 -1.75 5.1 M-0.75 8.9 Q-0.5 11.0 -1.2 10.5 L-1.1 10.45 Q-1.65 9.8 -1.65 7.65 -1.5 6.95 -0.95 8.0 L-0.75 8.9" fill="#ddca7d" fill-rule="evenodd" stroke="none"/>
      <path d="M1.4 -5.05 Q1.7 -4.8 1.9 -5.2 3.8 -1.0 5.35 1.6 6.0 2.2 6.75 4.8 7.05 7.55 6.8 10.55 L6.25 10.85 6.55 8.3 5.95 10.85 5.85 11.15 5.25 11.55 Q5.9 10.2 6.05 8.75 6.35 5.5 6.0 5.15 5.3 4.9 5.25 6.85 5.2 4.1 4.55 1.65 L4.55 1.6 Q3.6 -1.95 1.4 -5.05 M2.3 2.15 L1.35 2.35 1.5 1.65 Q1.65 0.95 2.3 2.15 M0.6 2.6 L0.2 2.9 0.1 2.9 Q-0.75 -1.05 -2.95 -4.4 L-3.5 -4.2 -4.2 -5.65 -3.45 -6.75 Q-1.3 -4.05 0.6 2.6 M2.05 0.65 L1.5 0.2 Q0.85 0.1 0.6 1.05 0.35 -1.0 -0.45 -2.15 L-2.95 -6.75 -2.8 -6.75 Q-0.45 -2.6 2.05 0.65" fill="#b79c33" fill-rule="evenodd" stroke="none"/>
      <path d="M4.55 1.6 L4.55 1.65 Q5.2 4.1 5.25 6.85 L5.05 9.65 4.7 11.85 4.2 11.3 Q5.25 7.35 4.1 2.05 L0.2 2.9 0.6 2.6 1.35 2.35 2.3 2.15 2.8 2.05 3.55 1.85 4.05 1.75 4.1 2.05 4.05 1.75 4.55 1.6 M4.1 2.05 L4.55 1.65 4.1 2.05" fill="#71601e" fill-rule="evenodd" stroke="none"/>
      <path d="M1.4 -5.05 Q3.6 -1.95 4.55 1.6 L4.05 1.75 3.55 1.85 Q2.6 -0.95 1.15 -3.5 L-0.9 -6.95 -0.05 -7.1 1.4 -5.05 M2.8 2.05 L2.3 2.15 Q1.65 0.95 1.5 1.65 L1.35 2.35 0.6 2.6 Q-1.3 -4.05 -3.45 -6.75 L-2.95 -6.75 -0.45 -2.15 Q0.35 -1.0 0.6 1.05 0.85 0.1 1.5 0.2 L2.05 0.65 2.15 0.85 2.15 0.9 2.25 0.95 2.8 2.05 M-1.1 14.1 L-3.05 14.5 Q-2.8 10.5 -3.25 7.25 L-3.3 7.0 Q-2.55 5.85 -2.55 4.1 -2.3 4.8 -2.75 7.25 L-2.8 7.4 Q-2.9 10.25 -2.35 12.2 -1.95 13.65 -1.1 14.1 M-0.75 8.9 L-0.95 8.0 Q-1.5 6.95 -1.65 7.65 -1.65 9.8 -1.1 10.45 L-1.2 10.5 Q-0.5 11.0 -0.75 8.9 M-1.75 5.1 Q-2.4 2.45 -2.3 0.2 -1.8 3.45 -0.5 7.15 0.65 10.4 -0.6 11.7 -2.15 12.95 -2.15 8.55 -1.85 5.35 -1.25 6.8 L-1.75 5.1" fill="#d2ba59" fill-rule="evenodd" stroke="none"/>
      <path d="M0.1 2.9 Q0.95 6.25 0.8 9.9 L0.8 10.6 0.6 13.7 0.25 13.75 -0.25 13.95 0.25 12.55 0.55 10.55 0.5 9.15 Q0.3 5.4 -0.45 2.7 -2.1 -3.0 -4.1 -3.9 L-3.5 -4.2 -2.95 -4.4 Q-0.75 -1.05 0.1 2.9 M-3.05 14.5 L-3.6 14.2 Q-2.45 3.6 -6.95 -1.8 L-6.75 -2.95 Q-4.0 1.0 -3.3 7.0 L-3.25 7.25 Q-2.8 10.5 -3.05 14.5" fill="#a28a2d" fill-rule="evenodd" stroke="none"/>
      <path d="M5.95 10.85 L6.55 8.3 6.25 10.85 5.95 10.85 M-5.35 -3.5 Q-4.85 -3.2 -4.75 -3.7 -3.65 -2.1 -3.2 -0.1 -3.85 -2.0 -5.35 -3.5 M-1.8 -6.9 Q-0.85 -5.6 -0.15 -4.1 L-2.35 -6.55 Q-2.1 -6.45 -1.8 -6.9" fill="#72611f" fill-rule="evenodd" stroke="none"/>
      <path d="M1.9 -5.2 Q1.7 -4.8 1.4 -5.05 3.6 -1.95 4.55 1.6 L4.55 1.65 Q5.2 4.1 5.25 6.85 L5.05 9.65 4.7 11.85 4.7 11.95 5.25 11.55 5.85 11.15 5.95 10.85 6.25 10.85 6.8 10.55 Q7.05 7.55 6.75 4.8 6.0 -0.7 2.5 -5.3 L1.9 -5.2 M-2.8 -6.75 L-2.95 -6.75 -3.45 -6.75 Q-1.3 -4.05 0.6 2.6 M0.1 2.9 Q0.95 6.25 0.8 9.9 L0.8 10.6 0.6 13.7 0.25 13.75 -0.25 13.95 Q-0.65 13.6 -1.1 14.1 L-3.05 14.5 -3.6 14.2 Q-2.45 3.6 -6.95 -1.8 L-6.75 -2.95 -5.35 -3.5 Q-4.85 -3.2 -4.75 -3.7 L-4.1 -3.9 -3.5 -4.2 -4.2 -5.65 -3.45 -6.75 M-0.9 -6.95 L-1.8 -6.9 Q-2.1 -6.45 -2.35 -6.55 L-2.55 -6.85 -2.8 -6.75 M1.4 -5.05 L-0.05 -7.1 -0.9 -6.95 M0.1 2.9 Q-0.75 -1.05 -2.95 -4.4 L-3.5 -4.2 M-2.75 7.25 L-2.8 7.4 M-3.3 7.0 Q-4.0 1.0 -6.75 -2.95 M-3.05 14.5 Q-2.8 10.5 -3.25 7.25" ffdec:has-small-stroke="true" ffdec:original-stroke-width="0.15" fill="none" stroke="#47301b" stroke-linecap="round" stroke-linejoin="round" stroke-opacity="0.3019608" stroke-width="0.417092398847844"/>
      <path d="M4.05 1.75 L3.55 1.85 2.8 2.05 2.3 2.15 1.35 2.35 0.6 2.6 M0.2 2.9 L4.1 2.05 4.05 1.75 4.55 1.6 M4.55 1.65 L4.1 2.05 Q5.25 7.35 4.2 11.3 L4.7 11.85" ffdec:has-small-stroke="true" ffdec:original-stroke-width="0.15" fill="none" stroke="#4f2d01" stroke-linecap="round" stroke-linejoin="round" stroke-opacity="0.2" stroke-width="0.417092398847844"/>
    </g>
    <g id="sprite39">
      <use ffdec:characterId="76" height="0.05" transform="matrix(1.0, 0.0, 0.0, 1.0, 0.0, 0.0)" width="0.05" xlink:href="#shape37"/>
      <use ffdec:characterId="78" height="7.35" id="cOsa_R_Main00" transform="matrix(0.9674, 0.0, 0.0, 0.9388, 0.7, 4.25)" width="4.6" xlink:href="#sprite40"/>
      <use ffdec:characterId="79" height="5.0" transform="matrix(1.0, 0.0, 0.0, 1.0, 0.0, 0.0)" width="4.45" xlink:href="#shape39"/>
    </g>
    <g id="shape37">
      <path d="M2.4 2.7 L2.4 2.65 2.45 2.7 2.4 2.7" fill="#e7d6bc" fill-rule="evenodd" stroke="none"/>
      <path d="M2.4 2.7 L2.4 2.65" ffdec:has-small-stroke="true" ffdec:original-stroke-width="0.15" fill="none" stroke="#653f01" stroke-linecap="round" stroke-linejoin="round" stroke-width="0.3762695753440022"/>
    </g>
    <g id="sprite40">
      <use ffdec:characterId="77" height="7.35" transform="matrix(1.0, 0.0, 0.0, 1.0, 0.0, 0.0)" width="4.6" xlink:href="#shape38"/>
    </g>
    <g id="shape38">
      <path d="M1.3 3.65 L1.35 3.65 1.3 3.7 1.3 3.65 M-1.0 1.7 L-1.0 1.65 -1.0 1.7" fill="#8b5e3d" fill-rule="evenodd" stroke="none"/>
      <path d="M1.75 0.6 L1.85 -0.35 1.85 -0.4 1.8 -1.6 Q1.8 -1.1 2.15 -0.5 L2.7 1.4 1.8 2.15 1.8 2.2 1.35 3.65 1.3 3.65 1.45 1.55 1.75 0.6 M-1.7 0.25 L-0.95 0.4 -1.0 1.65 -1.0 1.7 -1.9 1.25 -1.9 0.15 -1.9 -0.2 -1.85 -0.2 -1.7 0.25" fill="#97662d" fill-rule="evenodd" stroke="none"/>
      <path d="M1.8 -1.6 L1.85 -0.4 1.85 -0.35 1.75 0.6 1.45 1.5 1.45 1.55 1.3 3.65 Q0.55 3.85 0.25 3.4 L0.15 1.55 0.1 2.9 -0.85 2.65 -1.0 1.65 -0.95 0.4 -1.7 0.25 -1.85 -0.25 -1.85 -0.5 -1.85 -0.6 -1.6 -1.35 -0.85 -3.6 1.5 -3.65 1.8 -1.65 1.8 -1.6" fill="#a46e35" fill-rule="evenodd" stroke="none"/>
    </g>
    <g id="shape39">
      <path d="M-1.1 3.7 L-1.15 4.0 -1.15 4.35 -1.15 5.35 -0.25 5.8 -0.15 6.7 0.95 6.95 0.8 5.65 M2.45 2.7 L2.75 3.7 3.3 5.5 2.4 6.2 2.45 6.25 1.95 7.65 Q1.25 7.85 0.9 7.45 L0.95 6.95" ffdec:has-small-stroke="true" ffdec:original-stroke-width="0.15" fill="none" stroke="#1f1f1f" stroke-linecap="round" stroke-linejoin="round" stroke-opacity="0.3019608" stroke-width="0.3762695753440022"/>
    </g>
    <g id="sprite41">
      <use ffdec:characterId="17" height="0.0" id="cR_Bras00" transform="matrix(1.0, 0.0, 0.0, 1.0, 0.05, -0.3)" width="0.0" xlink:href="#sprite8"/>
      <use ffdec:characterId="18" height="7.8" transform="matrix(1.0, 0.0, 0.0, 1.0, 0.0, 0.0)" width="2.05" xlink:href="#shape40"/>
    </g>
    <g id="shape40">
      <path d="M1.05 -1.75 L0.7 5.5 -0.5 5.35 -0.95 -2.2 -1.0 -2.3 -0.95 -2.3 1.05 -1.75 M-0.95 -2.2 L-0.95 -2.3 -0.95 -2.2" fill="#a46e35" fill-rule="evenodd" stroke="none"/>
      <path d="M0.7 5.5 L1.05 -1.75 M-0.95 -2.3 L-0.95 -2.2 -0.5 5.35" ffdec:has-small-stroke="true" ffdec:original-stroke-width="0.15" fill="none" stroke="#1f1f1f" stroke-linecap="round" stroke-linejoin="round" stroke-opacity="0.5019608" stroke-width="0.3345353404073613"/>
    </g>
  </defs>
</svg>
