<?xml version="1.0" encoding="UTF-8" standalone="no"?>
<svg xmlns:ffdec="https://www.free-decompiler.com/flash" xmlns:xlink="http://www.w3.org/1999/xlink" ffdec:objectType="frame" height="309.9px" width="478.5px" xmlns="http://www.w3.org/2000/svg">
  <g transform="matrix(3.0, 0.0, 0.0, 3.0, 239.25, 154.95)">
    <use ffdec:characterId="1" height="103.3" transform="matrix(1.0, 0.0, 0.0, 1.0, 0.0, 0.0)" width="159.5" xlink:href="#shape0"/>
    <use ffdec:characterId="3" height="211.6" transform="matrix(-0.4803, 0.0, 0.0, 0.4803, 98.85, -50.8)" width="328.45" xlink:href="#sprite0"/>
  </g>
  <defs>
    <g id="shape0">
      <path d="M3.1 -13.25 L3.0 -13.25 3.2 -13.15 3.1 -13.25 M21.0 -25.2 L21.2 -25.2 Q33.6 -23.75 51.1 -16.7 70.2 -8.95 78.2 7.1 82.75 15.55 56.95 12.25 L56.8 12.2 52.95 11.6 53.0 12.05 Q53.0 13.15 52.55 13.4 L51.75 13.9 50.1 13.9 Q49.6 17.5 49.15 18.25 48.2 19.85 47.05 20.45 L44.1 21.7 43.45 22.05 Q42.4 24.6 41.65 27.15 40.6 30.8 40.3 34.4 40.15 36.3 40.1 45.45 L40.1 45.6 40.05 45.5 Q38.85 51.85 37.85 50.6 L-19.7 50.6 Q-26.45 45.4 -30.3 32.55 L-30.2 32.55 Q-29.5 32.65 -27.45 34.9 L-26.3 36.15 Q-27.35 33.8 -28.1 30.6 -29.45 24.85 -29.55 17.95 L-29.55 15.45 Q-31.2 16.1 -32.6 17.9 L-33.95 19.85 Q-34.6 20.8 -34.95 20.8 L-37.6 20.3 -37.65 20.35 -39.4 22.2 -40.3 23.15 Q-43.2 26.2 -44.15 26.2 L-45.95 25.65 Q-46.95 25.15 -46.95 24.35 L-45.5 22.9 -41.95 20.5 -38.75 18.7 -36.2 16.7 -35.9 13.6 -35.9 13.15 -35.85 12.9 -37.0 12.35 -38.05 12.3 -40.1 12.65 -42.05 13.05 -42.3 13.05 Q-43.75 13.05 -45.2 11.95 L-45.5 11.65 -46.6 11.65 -62.0 10.55 Q-77.7 9.45 -78.75 3.55 -79.75 0.9 -73.1 -3.0 L-67.5 -6.35 Q-59.25 -11.0 -48.35 -15.65 L-48.05 -15.8 Q-38.45 -19.75 -31.4 -21.5 L-20.4 -23.7 -18.9 -23.9 -18.25 -24.05 -18.2 -24.15 -18.2 -24.25 -18.2 -24.35 -18.25 -24.35 -18.25 -25.6 -17.95 -28.45 -17.9 -28.95 Q-20.55 -30.9 -21.5 -32.95 L-23.3 -32.55 -23.35 -32.2 Q-23.3 -31.9 -23.55 -31.6 L-24.05 -30.85 -25.6 -28.45 -27.9 -26.5 Q-30.1 -24.8 -30.55 -24.95 -31.0 -25.15 -30.5 -26.55 -29.95 -27.95 -30.2 -28.45 -30.9 -30.25 -30.9 -32.9 L-30.9 -34.1 Q-30.55 -39.25 -27.05 -44.45 -22.95 -50.65 -18.15 -50.65 L-16.95 -50.05 -15.55 -48.95 Q-14.05 -50.8 -13.2 -50.8 L-9.25 -50.25 Q-7.55 -49.9 -5.0 -48.85 -4.1 -48.5 -4.2 -47.6 L-4.3 -47.05 -3.6 -47.45 3.25 -44.65 Q12.95 -39.25 12.95 -38.5 L12.55 -36.25 12.25 -36.35 12.5 -36.1 Q16.65 -32.5 17.2 -31.05 L18.25 -28.45 18.9 -27.2 19.1 -26.2 18.95 -25.4 19.4 -25.35 20.3 -25.25 20.7 -25.2 20.9 -25.2 21.0 -25.2 M12.8 -3.35 L12.8 -3.05 12.95 -3.25 12.8 -3.35 M28.95 8.9 L24.55 8.8 27.0 14.75 28.8 19.3 31.4 22.5 Q33.3 18.7 33.3 17.45 33.3 16.35 32.7 15.05 32.2 13.9 32.1 12.95 L31.2 13.0 29.2 12.85 Q28.8 12.55 28.8 10.7 28.8 9.65 28.95 8.9 M22.15 -7.6 L22.1 -7.6 22.1 -7.55 22.15 -7.6 M21.3 5.95 L21.45 5.95 21.1 5.85 21.3 5.95 M12.7 5.5 L12.8 5.6 12.8 5.5 12.7 5.5 M6.8 0.35 L6.75 0.7 6.8 1.2 6.8 0.35 M6.85 2.85 L6.85 2.8 6.8 2.8 6.85 2.85 M5.75 4.2 L5.8 4.3 5.8 4.2 5.75 4.2 M37.5 38.25 L37.4 38.1 37.35 38.1 37.5 38.25 M-24.2 -17.4 L-24.4 -17.35 -24.5 -17.25 -24.2 -17.4 M-23.35 -15.55 L-23.35 -15.4 -23.15 -15.55 -23.35 -15.55 M-24.75 -6.55 L-24.6 -6.55 -24.7 -6.65 -24.75 -6.55 M-20.7 -12.05 L-20.75 -12.0 -20.55 -12.05 -20.7 -12.05 M-26.35 -8.5 L-26.5 -8.55 -26.5 -8.5 -26.35 -8.5 M-26.8 -10.35 L-26.85 -10.25 -26.65 -10.25 -26.8 -10.35 M-10.15 -0.8 L-10.4 -0.7 -10.25 -0.6 -10.15 -0.8 M-16.65 -4.6 L-16.55 -4.95 -16.65 -5.0 -16.65 -4.6 M-17.15 -6.75 L-17.35 -6.75 -17.2 -6.4 -17.15 -6.75 M-17.35 -24.45 L-17.7 -24.3 -17.5 -24.35 -17.35 -24.45 M-18.8 21.25 L-19.65 22.65 -19.8 24.0 -19.45 23.7 Q-17.65 22.05 -16.25 21.95 L-16.25 22.05 -17.5 24.15 Q-16.35 22.7 -15.65 22.4 L-15.6 22.35 -16.15 18.6 -18.35 17.3 Q-19.1 18.55 -19.5 21.55 L-18.8 21.25 M-27.8 7.55 L-27.8 7.5 -27.9 7.65 -27.8 7.55 M-35.3 5.35 L-35.45 5.45 -35.35 5.45 -35.3 5.35 M-29.75 14.0 L-29.55 13.95 -29.75 13.95 -29.75 14.0 M-9.65 32.05 L-9.65 32.0 -9.75 32.0 -9.65 32.05 M-16.15 36.75 Q-16.15 41.2 -12.4 45.5 L-10.2 47.7 Q-13.35 35.65 -14.35 30.85 L-14.4 30.6 -14.75 31.2 Q-16.15 33.85 -16.15 36.75" fill="#d5a855" fill-rule="evenodd" stroke="none"/>
      <path d="M21.0 -25.2 L20.9 -25.2 20.7 -25.2 20.3 -25.25 19.4 -25.35 18.95 -25.4 19.1 -26.2 18.9 -27.2 18.25 -28.45 17.2 -31.05 Q16.65 -32.5 12.5 -36.1 L12.25 -36.35 12.55 -36.25 12.95 -38.5 Q12.95 -39.25 3.25 -44.65 L-3.6 -47.45 -4.3 -47.05 -4.2 -47.6 Q-4.1 -48.5 -5.0 -48.85 -7.55 -49.9 -9.25 -50.25 L-13.2 -50.8 Q-14.05 -50.8 -15.55 -48.95 L-16.95 -50.05 -18.15 -50.65 Q-22.95 -50.65 -27.05 -44.45 -30.55 -39.25 -30.9 -34.1 L-30.9 -32.9 Q-30.9 -30.25 -30.2 -28.45 -29.95 -27.95 -30.5 -26.55 -31.0 -25.15 -30.55 -24.95 -30.1 -24.8 -27.9 -26.5 L-25.6 -28.45 -24.05 -30.85 -23.55 -31.6 Q-23.3 -31.9 -23.35 -32.2 L-23.3 -32.55 -21.5 -32.95 Q-20.55 -30.9 -17.9 -28.95 L-17.95 -28.45 -18.25 -25.6 -18.25 -24.35 -18.2 -24.35 -18.2 -24.25 -18.2 -24.15 -18.25 -24.05 -18.9 -23.9 -20.4 -23.7 -31.4 -21.5 Q-38.45 -19.75 -48.05 -15.8 L-48.35 -15.65 Q-59.25 -11.0 -67.5 -6.35 L-73.1 -3.0 Q-79.75 0.9 -78.75 3.55 -77.7 9.45 -62.0 10.55 L-46.6 11.65 -45.5 11.65 -45.2 11.95 Q-43.75 13.05 -42.3 13.05 L-42.05 13.05 -40.1 12.65 -38.05 12.3 -37.0 12.35 -35.85 12.9 -35.9 13.15 -35.9 13.6 -36.2 16.7 -38.75 18.7 -41.95 20.5 -45.5 22.9 -46.95 24.35 Q-46.95 25.15 -45.95 25.65 L-44.15 26.2 Q-43.2 26.2 -40.3 23.15 L-39.4 22.2 -37.65 20.35 -37.6 20.3 -34.95 20.8 Q-34.6 20.8 -33.95 19.85 L-32.6 17.9 Q-31.2 16.1 -29.55 15.45 L-29.55 17.95 Q-29.45 24.85 -28.1 30.6 -27.35 33.8 -26.3 36.15 L-27.45 34.9 Q-29.5 32.65 -30.2 32.55 L-30.3 32.55 Q-26.45 45.4 -19.7 50.6 L37.85 50.6 Q38.85 51.85 40.05 45.5 L40.1 45.6 40.1 45.45 Q40.15 36.3 40.3 34.4 40.6 30.8 41.65 27.15 42.4 24.6 43.45 22.05 L44.1 21.7 47.05 20.45 Q48.2 19.85 49.15 18.25 49.6 17.5 50.1 13.9 L51.75 13.9 52.55 13.4 Q53.0 13.15 53.0 12.05 L52.95 11.6 56.8 12.2 56.95 12.25 Q82.75 15.55 78.2 7.1 70.2 -8.95 51.1 -16.7 33.6 -23.75 21.2 -25.2 L21.0 -25.2 M3.1 -13.25 L3.2 -13.15 3.0 -13.25 3.1 -13.25 M12.8 -3.35 L12.8 -3.05 12.95 -3.25 12.8 -3.35 M22.15 -7.6 L22.1 -7.55 22.1 -7.6 22.15 -7.6 M28.95 8.9 Q28.8 9.65 28.8 10.7 28.8 12.55 29.2 12.85 L31.2 13.0 32.1 12.95 Q32.2 13.9 32.7 15.05 33.3 16.35 33.3 17.45 33.3 18.7 31.4 22.5 L28.8 19.3 27.0 14.75 24.55 8.8 28.95 8.9 M21.3 5.95 L21.45 5.95 21.1 5.85 21.3 5.95 M12.7 5.5 L12.8 5.6 12.8 5.5 12.7 5.5 M6.8 0.35 L6.75 0.7 6.8 1.2 6.8 0.35 M6.85 2.85 L6.85 2.8 6.8 2.8 6.85 2.85 M5.75 4.2 L5.8 4.3 5.8 4.2 5.75 4.2 M37.5 38.25 L37.4 38.1 37.35 38.1 37.5 38.25 M-24.2 -17.4 L-24.4 -17.35 -24.5 -17.25 -24.2 -17.4 M-23.35 -15.55 L-23.35 -15.4 -23.15 -15.55 -23.35 -15.55 M-24.75 -6.55 L-24.6 -6.55 -24.7 -6.65 -24.75 -6.55 M-20.7 -12.05 L-20.75 -12.0 -20.55 -12.05 -20.7 -12.05 M-26.35 -8.5 L-26.5 -8.55 -26.5 -8.5 -26.35 -8.5 M-26.8 -10.35 L-26.85 -10.25 -26.65 -10.25 -26.8 -10.35 M-17.35 -24.45 L-17.5 -24.35 -17.7 -24.3 -17.35 -24.45 M-17.15 -6.75 L-17.2 -6.4 -17.35 -6.75 -17.15 -6.75 M-16.65 -4.6 L-16.65 -5.0 -16.55 -4.95 -16.65 -4.6 M-10.15 -0.8 L-10.25 -0.6 -10.4 -0.7 -10.15 -0.8 M-18.8 21.25 L-19.65 22.65 -19.8 24.0 -19.45 23.7 Q-17.65 22.05 -16.25 21.95 L-16.25 22.05 -17.5 24.15 Q-16.35 22.7 -15.65 22.4 L-15.6 22.35 -16.15 18.6 -18.35 17.3 Q-19.1 18.55 -19.5 21.55 L-18.8 21.25 M-27.8 7.55 L-27.9 7.65 -27.8 7.5 -27.8 7.55 M-35.3 5.35 L-35.45 5.45 -35.35 5.45 -35.3 5.35 M-29.75 14.0 L-29.55 13.95 -29.75 13.95 -29.75 14.0 M-9.65 32.05 L-9.65 32.0 -9.75 32.0 -9.65 32.05 M-16.15 36.75 Q-16.15 41.2 -12.4 45.5 L-10.2 47.7 Q-13.35 35.65 -14.35 30.85 L-14.4 30.6 -14.75 31.2 Q-16.15 33.85 -16.15 36.75 Z" fill="none" stroke="#000000" stroke-linecap="round" stroke-linejoin="round" stroke-width="1.75"/>
    </g>
    <g id="sprite0">
      <use ffdec:characterId="2" height="211.6" transform="matrix(1.0, 0.0, 0.0, 1.0, 0.0, 0.0)" width="328.45" xlink:href="#shape1"/>
    </g>
    <g id="shape1">
      <path d="M358.0 99.55 Q371.9 107.65 369.75 113.15 342.7 96.9 331.95 92.55 L301.8 80.3 Q273.1 68.55 261.8 66.0 251.95 63.75 248.85 62.7 L245.35 62.25 244.35 62.15 244.25 62.15 244.2 62.15 232.5 60.55 232.2 60.5 226.45 59.7 208.15 58.7 170.35 60.85 166.6 61.2 166.55 61.2 Q147.15 63.05 140.35 65.45 L138.65 65.95 Q111.0 74.3 87.55 84.05 L87.25 84.2 65.55 99.05 43.0 120.6 Q59.65 87.15 99.45 71.05 135.85 56.3 161.7 53.35 L162.1 53.3 162.95 53.2 162.35 53.25 163.55 53.15 164.15 53.1 165.4 52.95 166.35 52.9 166.45 53.05 175.05 52.15 176.8 52.0 182.5 51.35 193.1 50.25 205.8 49.15 206.15 49.15 206.5 49.15 208.2 49.15 208.5 49.15 208.8 49.15 209.25 49.15 209.4 49.15 209.65 49.15 209.95 49.15 210.2 49.15 210.5 49.15 223.55 49.95 225.15 50.15 227.05 50.4 237.35 52.85 241.5 54.65 241.9 54.85 242.3 55.05 242.65 55.2 242.7 55.2 243.8 55.65 245.2 56.05 248.25 56.45 271.15 61.05 Q285.85 64.65 305.85 72.9 L306.5 73.2 Q329.2 82.9 346.35 92.55 L358.0 99.55 M243.7 55.05 L243.75 55.25 243.7 55.15 243.7 55.05 M254.5 73.45 L254.4 73.75 254.4 73.4 254.5 73.45 M165.0 80.35 L165.55 79.5 166.7 80.35 166.7 80.75 Q165.9 80.35 165.0 80.35" fill="#b99966" fill-rule="evenodd" stroke="none"/>
      <path d="M369.75 113.15 Q367.55 125.45 334.95 127.75 L302.8 130.0 300.6 130.0 299.9 130.65 300.6 130.0 302.6 128.05 302.7 127.9 Q300.7 126.8 299.6 126.45 L293.35 126.0 292.7 126.0 Q286.0 126.0 279.85 128.35 L276.95 129.25 276.1 128.0 275.75 126.7 275.75 126.6 275.85 126.45 276.1 125.75 278.6 119.1 278.7 118.7 Q279.55 117.95 282.75 116.2 287.6 113.5 288.25 112.85 L292.35 109.1 Q293.0 108.3 293.35 106.95 L293.65 104.25 293.65 103.85 293.35 101.7 293.25 100.55 Q291.0 101.65 285.65 104.9 279.5 108.65 278.15 110.0 274.85 113.3 271.3 118.4 268.7 122.1 268.0 122.1 L263.7 121.35 263.7 121.3 263.55 119.65 263.55 119.35 263.5 118.2 Q263.5 113.95 264.7 111.1 L265.3 109.8 265.7 109.15 Q270.4 102.25 270.6 101.4 274.8 92.3 269.3 90.6 L269.45 90.4 Q266.05 92.15 262.15 98.3 258.5 104.05 258.5 106.05 L258.95 108.4 Q258.95 110.45 256.35 117.75 L255.25 120.75 Q254.25 113.95 254.3 108.65 L254.15 98.9 253.5 90.15 257.0 92.1 257.35 92.1 257.25 91.95 249.0 80.75 Q250.9 81.0 255.05 83.75 258.95 86.35 260.65 88.05 L261.0 88.05 261.0 87.95 Q260.25 85.95 256.15 80.85 L253.35 77.45 253.1 77.15 252.25 76.0 253.1 77.15 252.15 75.9 252.25 75.95 252.25 76.0 256.75 80.0 256.9 80.15 261.35 84.4 261.75 84.4 261.65 84.2 Q255.55 74.85 254.4 73.75 L254.5 73.45 254.7 73.5 Q256.65 74.1 264.65 78.45 L263.0 76.85 262.85 76.65 262.5 76.35 261.1 74.85 260.65 74.35 259.4 72.9 259.15 72.6 259.1 72.55 259.0 72.45 256.85 69.9 256.6 69.65 256.25 69.5 Q255.35 67.35 237.0 63.85 L245.0 62.35 245.1 62.4 245.25 62.35 245.35 62.25 245.25 62.35 245.1 62.4 245.0 62.35 244.6 62.25 244.25 62.15 244.35 62.15 245.35 62.25 248.85 62.7 Q251.95 63.75 261.8 66.0 273.1 68.55 301.8 80.3 L331.95 92.55 Q342.7 96.9 369.75 113.15 M253.25 77.35 L253.35 77.45 253.25 77.35 M245.25 62.35 L245.0 62.35 245.25 62.35" fill="url(#gradient0)" fill-rule="evenodd" stroke="none"/>
      <path d="M238.15 3.8 Q238.85 2.9 241.1 1.55 243.2 0.35 243.6 0.35 253.6 0.35 262.15 13.2 269.4 24.05 270.15 34.8 L270.2 37.25 Q270.2 42.8 268.65 46.55 268.2 47.55 269.3 50.5 270.4 53.45 269.45 53.8 268.45 54.15 263.9 50.55 L259.1 46.55 255.85 41.5 254.8 40.0 Q254.35 39.4 254.45 38.75 L254.3 38.0 Q253.9 37.7 250.55 37.15 251.5 34.95 251.5 32.65 251.5 24.8 243.8 12.1 240.6 6.75 238.15 3.8" fill="url(#gradient1)" fill-rule="evenodd" stroke="none"/>
      <path d="M214.75 7.8 L214.55 6.65 Q214.35 4.8 216.25 4.05 221.55 1.9 225.05 1.1 230.05 0.0 233.3 0.0 235.1 0.0 238.15 3.8 240.6 6.75 243.8 12.1 251.5 24.8 251.5 32.65 251.5 34.95 250.55 37.15 248.65 41.45 243.1 45.5 L242.0 36.65 Q241.65 34.85 237.55 29.75 232.1 22.95 222.75 14.55 217.1 9.45 214.75 7.8" fill="url(#gradient2)" fill-rule="evenodd" stroke="none"/>
      <path d="M179.65 30.25 Q178.8 27.3 178.8 25.65 178.8 24.0 199.0 12.85 212.9 7.0 213.3 7.0 213.65 7.0 214.75 7.8 217.1 9.45 222.75 14.55 232.1 22.95 237.55 29.75 241.65 34.85 242.0 36.65 L243.1 45.5 243.2 46.55 243.8 52.5 243.8 55.05 243.7 55.05 243.1 52.8 242.85 52.2 242.8 52.05 242.35 51.0 241.95 50.15 241.9 50.0 241.8 49.75 240.8 47.8 240.65 47.5 240.15 46.55 236.45 39.25 Q235.35 36.95 230.85 31.35 226.6 26.1 222.45 24.25 218.25 22.4 217.8 22.45 217.35 22.45 217.7 22.4 L199.75 20.95 199.4 20.9 199.0 20.95 Q196.4 21.1 192.75 22.5 186.35 24.9 180.35 30.1 L179.65 30.25" fill="url(#gradient3)" fill-rule="evenodd" stroke="none"/>
      <path d="M166.35 52.9 Q166.0 52.3 166.0 51.2 166.0 49.65 166.45 49.1 L167.8 46.55 170.0 41.1 Q171.1 38.1 179.75 30.65 L180.35 30.1 Q186.35 24.9 192.75 22.5 196.4 21.1 199.0 20.95 L199.75 20.95 217.7 22.4 Q217.35 22.45 217.8 22.45 218.25 22.4 222.45 24.25 226.6 26.1 230.85 31.35 235.35 36.95 236.45 39.25 L240.15 46.55 240.65 47.5 240.8 47.8 241.8 49.75 241.9 50.0 241.95 50.15 242.35 51.0 242.8 52.05 242.85 52.2 243.1 52.8 243.7 55.05 243.7 55.15 243.75 55.25 243.75 55.5 243.8 55.65 243.75 55.5 243.8 55.65 242.7 55.2 241.9 54.85 241.5 54.65 237.35 52.85 227.05 50.4 225.15 50.15 223.55 49.95 210.5 49.15 210.2 49.15 209.95 49.15 209.65 49.15 209.4 49.15 209.25 49.15 208.8 49.15 208.5 49.15 208.2 49.15 206.5 49.15 206.15 49.15 205.8 49.15 193.1 50.25 182.5 51.35 176.8 52.0 175.05 52.15 166.45 53.05 166.35 52.9" fill="url(#gradient4)" fill-rule="evenodd" stroke="none"/>
      <path d="M253.1 77.15 L253.35 77.45 253.25 77.35 253.1 77.15 M253.35 77.45 L256.15 80.85 Q260.25 85.95 261.0 87.95 L260.65 88.05 Q258.95 86.35 255.05 83.75 250.9 81.0 249.0 80.75 L257.25 91.95 257.0 92.1 253.5 90.15 Q246.75 86.6 244.5 86.6 238.65 86.6 230.9 92.1 L232.55 92.1 241.55 91.75 241.6 92.45 232.85 97.4 231.65 98.0 232.0 98.0 233.05 97.4 Q235.1 96.45 240.3 95.45 L240.45 96.15 Q238.2 97.2 234.8 99.8 L232.55 101.65 228.75 94.2 225.45 87.45 Q226.7 86.8 229.0 84.55 L232.25 80.05 Q240.4 72.3 253.35 77.45 M244.25 62.15 L244.6 62.25 245.0 62.35 244.75 62.3 244.6 62.25 244.2 62.15 244.25 62.15 M249.0 80.75 L248.95 80.7 248.65 80.7 249.0 80.75" fill="url(#gradient5)" fill-rule="evenodd" stroke="none"/>
      <path d="M211.0 211.15 L191.8 211.15 202.1 199.9 202.1 206.05 212.3 192.15 Q211.3 186.2 212.4 170.05 191.85 170.25 193.35 164.2 L198.0 145.65 195.05 145.4 Q203.6 137.6 210.85 136.7 L210.9 136.65 Q213.05 131.65 207.2 127.45 L219.25 127.45 208.5 113.05 210.85 107.35 211.25 106.4 Q214.15 98.95 214.15 95.6 L213.9 92.85 Q215.25 94.35 215.4 95.7 L215.7 98.15 217.95 92.5 Q218.65 90.8 218.65 89.15 L218.4 85.8 218.35 85.2 218.2 83.15 218.2 82.1 Q218.2 77.35 221.2 71.4 L222.35 68.95 225.45 68.9 223.8 64.7 228.6 64.7 226.45 59.7 232.2 60.5 232.5 60.55 244.2 62.15 244.6 62.25 244.75 62.3 245.0 62.35 237.0 63.85 Q240.0 67.4 239.85 69.45 231.85 67.65 228.5 70.8 L224.65 73.65 224.4 73.85 223.75 74.3 Q223.45 74.4 223.3 74.65 221.95 76.75 221.95 77.2 221.95 78.3 223.75 83.95 L223.9 84.3 224.0 84.55 225.45 87.45 228.75 94.2 232.55 101.65 234.9 106.75 234.85 106.85 Q234.15 106.15 231.45 105.4 L231.25 105.35 227.45 104.3 226.9 104.1 227.15 104.5 Q230.3 110.15 232.5 116.95 L232.65 117.5 Q234.55 123.7 234.35 126.95 232.9 126.1 230.8 123.25 L230.4 122.7 230.15 122.35 228.35 120.0 228.2 120.0 228.25 120.05 Q229.75 124.2 230.65 128.35 231.65 133.35 231.75 138.35 227.55 139.35 225.75 140.0 L229.55 142.9 230.15 143.35 230.85 143.8 230.25 151.65 Q227.3 152.0 222.0 153.3 L218.15 154.2 217.9 154.25 210.15 155.1 208.35 155.05 208.3 155.05 208.35 155.05 Q203.5 154.6 203.5 151.9 203.5 149.3 204.15 148.35 205.15 146.95 208.8 145.75 208.5 145.25 207.25 144.7 L205.85 144.15 207.3 143.85 214.3 144.95 214.5 144.95 Q214.4 144.15 213.05 143.2 L212.2 142.7 212.1 142.55 212.75 142.65 213.1 142.75 215.5 143.25 Q218.75 144.5 218.75 147.45 218.75 150.7 218.2 152.95 219.75 152.65 221.3 150.7 223.2 148.25 223.2 145.0 223.2 142.0 221.8 140.5 221.15 139.75 218.5 138.35 L216.2 138.35 Q212.4 139.0 209.45 140.1 L208.65 140.4 Q203.65 142.4 201.05 145.65 L201.1 145.7 201.0 145.7 Q199.05 148.1 198.4 151.25 L198.25 151.8 Q198.0 153.25 198.0 154.85 198.0 159.15 201.5 161.5 L202.05 161.85 Q203.1 162.5 204.55 163.0 206.6 163.7 209.35 164.1 L215.15 164.4 215.45 164.4 217.65 164.35 223.75 164.0 223.85 168.0 Q223.85 168.8 222.1 174.85 L220.2 181.35 Q220.95 193.85 214.85 206.3 212.85 198.9 212.9 197.1 212.4 206.7 211.0 211.15 M152.95 211.15 L127.05 211.15 Q128.3 210.15 128.3 208.9 L128.3 208.5 130.35 204.35 Q133.4 198.35 135.1 196.2 L130.7 201.3 128.3 204.3 Q125.5 207.85 124.95 209.2 L127.4 198.0 128.35 194.5 128.35 194.45 128.5 193.85 128.55 193.8 Q129.65 189.95 130.45 189.5 131.25 185.3 134.2 181.4 L136.9 178.5 137.55 177.7 136.65 178.15 Q135.25 178.95 132.3 181.35 128.9 184.1 128.0 185.15 L127.95 185.05 Q131.35 177.35 133.6 172.8 L135.1 169.85 136.05 168.25 137.05 169.75 142.45 180.95 Q143.5 182.95 145.4 185.2 150.2 195.7 153.75 202.8 L154.75 204.85 Q153.7 207.6 153.05 210.05 L152.95 211.15 M227.35 68.85 L225.45 68.9 227.35 68.85 M166.55 61.2 L166.6 61.2 Q165.6 64.9 166.6 68.6 L168.3 75.7 Q167.95 76.4 167.75 77.3 L167.65 77.25 163.75 72.35 166.55 61.2 M201.0 145.7 L201.05 145.65 201.0 145.7 M224.3 163.95 L226.25 163.75 228.35 163.95 226.1 172.35 225.9 172.4 Q225.85 169.8 224.3 163.95 M136.35 195.05 L135.1 196.2 136.35 195.05" fill="#c6b69d" fill-rule="evenodd" stroke="none"/>
      <path d="M237.0 63.85 Q255.35 67.35 256.25 69.5 L256.85 69.9 259.0 72.45 259.1 72.55 259.15 72.6 259.4 72.9 260.65 74.35 261.1 74.85 262.5 76.35 262.85 76.65 263.0 76.85 264.65 78.45 Q256.65 74.1 254.7 73.5 L254.5 73.45 254.4 73.4 254.05 73.35 254.4 73.75 Q255.55 74.85 261.65 84.2 L261.35 84.4 256.9 80.15 256.75 80.0 252.25 76.0 252.25 75.95 252.15 75.9 253.1 77.15 253.25 77.35 253.35 77.45 Q240.4 72.3 232.25 80.05 L235.5 75.55 235.5 74.05 228.5 70.8 Q231.85 67.65 239.85 69.45 240.0 67.4 237.0 63.85 M249.25 71.8 L252.25 75.95 249.25 71.8 M167.65 77.25 L167.75 77.3 167.7 77.35 Q167.3 78.8 167.15 80.75 L167.05 82.85 167.05 82.9 167.15 83.2 159.45 85.85 159.35 85.85 156.4 85.7 Q153.7 85.75 152.75 86.6 L150.95 86.6 Q152.5 84.6 156.65 82.6 161.3 80.35 165.0 80.35 165.9 80.35 166.7 80.75 L166.7 80.35 165.55 79.5 162.3 77.05 166.7 77.05 167.65 77.25" fill="#703541" fill-rule="evenodd" stroke="none"/>
      <path d="M218.95 211.15 L211.0 211.15 Q212.4 206.7 212.9 197.1 212.85 198.9 214.85 206.3 220.95 193.85 220.2 181.35 L222.1 174.85 Q223.85 168.8 223.85 168.0 L223.75 164.0 224.3 163.95 Q225.85 169.8 225.9 172.4 L225.9 172.5 226.1 172.35 228.35 163.95 Q232.75 164.8 235.75 169.5 L235.65 170.0 Q233.6 180.0 227.1 205.05 L224.85 206.95 Q221.7 209.45 218.95 211.15 M261.0 87.95 L260.65 88.05 261.0 87.95 M231.3 105.5 L232.95 108.3 235.3 111.9 235.85 113.65 238.75 123.75 240.8 131.55 241.15 133.15 239.75 135.25 Q236.15 137.3 233.15 138.0 L231.75 138.35 Q231.65 133.35 230.65 128.35 229.75 124.2 228.25 120.05 L228.35 120.0 230.15 122.35 230.4 122.7 230.8 123.25 Q232.9 126.1 234.35 126.95 234.55 123.7 232.65 117.5 L232.5 116.95 Q230.3 110.15 227.15 104.5 L227.45 104.3 231.25 105.35 231.3 105.5 M230.85 143.8 Q232.85 144.95 234.9 144.95 L239.4 144.45 238.3 152.35 Q235.95 151.5 232.05 151.5 L230.25 151.65 230.85 143.8" fill="#ba707e" fill-rule="evenodd" stroke="none"/>
      <path d="M300.6 130.0 L299.9 130.65 Q296.95 132.9 293.85 132.9 L293.35 132.9 289.3 132.15 Q287.2 131.35 285.0 131.35 L282.9 131.5 Q282.2 131.7 280.45 132.65 L280.55 133.1 280.6 134.05 Q278.95 135.05 277.0 135.1 L277.7 136.85 278.75 139.55 Q279.8 142.35 281.0 143.65 L281.7 143.6 Q282.35 143.65 283.25 144.4 L287.25 147.75 Q287.2 148.75 287.85 151.95 L284.25 148.1 284.15 148.0 278.55 149.05 Q277.85 149.05 276.55 147.15 L273.7 143.05 Q270.8 139.3 267.3 137.9 L267.3 143.15 264.4 145.65 264.0 148.05 262.2 156.45 Q261.15 161.95 259.35 167.3 258.55 168.6 258.35 169.95 L258.3 170.1 257.95 168.35 Q257.25 165.5 255.0 160.9 L254.85 160.65 253.7 158.4 251.8 155.5 252.15 154.8 Q253.4 152.35 253.85 149.2 L254.05 145.85 Q254.05 143.7 253.3 140.6 L252.7 137.8 247.45 136.4 247.4 136.35 246.55 136.7 243.2 137.6 246.55 136.7 247.4 136.35 247.45 136.4 Q247.6 140.95 248.45 149.55 L248.65 152.1 246.45 150.6 Q245.6 144.35 244.0 141.75 242.3 143.65 239.4 144.45 L234.9 144.95 Q232.85 144.95 230.85 143.8 L230.15 143.35 Q233.0 142.8 235.5 141.75 239.65 140.0 241.55 137.5 243.75 134.75 247.1 133.25 249.4 132.25 250.75 132.25 L251.8 132.25 257.2 128.55 257.3 122.4 256.9 122.35 256.9 121.7 Q259.8 111.85 261.5 108.3 L265.5 99.55 Q266.35 97.95 267.35 97.4 268.55 98.1 268.55 100.55 268.55 101.3 266.85 105.4 265.7 108.1 265.3 109.8 L264.7 111.1 Q263.5 113.95 263.5 118.2 L263.55 119.35 263.55 119.65 263.45 119.75 262.4 125.6 262.85 125.55 Q264.9 125.55 267.35 126.55 269.4 123.9 274.35 119.3 L274.3 119.25 274.45 119.05 274.55 119.15 278.0 115.9 278.6 115.35 Q280.2 113.7 292.45 106.7 L293.35 106.95 Q293.0 108.3 292.35 109.1 L288.25 112.85 Q287.6 113.5 282.75 116.2 279.55 117.95 278.7 118.7 L278.6 119.1 276.1 125.75 275.85 126.45 275.75 126.6 275.75 126.7 274.25 128.3 Q273.35 129.05 272.4 129.4 274.35 130.9 275.95 132.9 L276.0 132.95 280.6 130.7 285.6 130.25 286.4 130.3 287.5 130.6 291.8 131.35 293.35 131.1 295.55 130.5 302.6 128.05 300.6 130.0 M127.05 211.15 Q124.95 213.75 122.4 200.5 L122.3 200.75 122.3 200.4 Q122.25 181.4 121.9 177.4 121.25 169.85 119.05 162.25 117.55 156.95 115.3 151.7 L118.0 152.95 123.6 155.3 124.75 155.75 125.05 155.85 Q127.3 156.75 128.0 157.25 129.25 158.15 136.05 168.25 L135.1 169.85 133.6 172.8 Q131.35 177.35 127.95 185.05 L127.75 185.45 128.0 185.15 Q128.9 184.1 132.3 181.35 135.25 178.95 136.65 178.15 L137.55 177.7 136.9 178.5 134.2 181.4 Q131.25 185.3 130.45 189.5 129.65 189.95 128.55 193.8 L128.5 193.85 128.35 194.45 128.35 194.5 127.4 198.0 124.95 209.2 Q125.5 207.85 128.3 204.3 L130.7 201.3 135.1 196.2 Q133.4 198.35 130.35 204.35 L128.3 208.5 127.05 211.15 M253.5 90.15 L254.15 98.9 Q247.95 101.7 239.6 109.85 L243.25 120.1 245.9 128.35 Q244.0 129.15 243.65 129.65 L242.65 131.05 241.15 133.15 240.8 131.55 238.75 123.75 235.85 113.65 235.3 111.9 232.95 108.3 231.3 105.5 231.45 105.4 Q234.15 106.15 234.85 106.85 L234.9 106.95 234.9 106.75 232.55 101.65 234.8 99.8 Q238.2 97.2 240.45 96.15 L240.45 95.4 240.3 95.45 Q235.1 96.45 233.05 97.4 L232.85 97.4 241.6 92.45 241.95 91.7 241.55 91.75 232.55 92.1 230.9 92.1 Q238.65 86.6 244.5 86.6 246.75 86.6 253.5 90.15 M161.8 94.8 Q163.8 93.8 165.6 93.2 168.1 93.2 171.65 98.3 L173.8 101.75 171.2 107.15 Q169.15 111.1 165.0 115.15 L161.9 117.9 161.15 118.2 161.5 118.2 161.9 117.9 165.3 115.6 165.4 115.5 165.8 115.9 163.65 118.15 154.3 127.65 Q155.05 127.75 166.3 119.65 L160.3 129.9 150.95 140.2 145.8 146.0 Q147.5 141.45 149.55 136.45 L154.65 124.1 154.7 124.05 158.55 118.65 162.15 113.0 Q162.9 111.5 159.95 107.4 161.35 101.0 161.8 94.8 M185.85 106.0 L185.6 105.8 Q183.55 104.2 182.9 97.85 L182.95 97.8 184.6 98.65 185.3 98.95 189.7 101.45 Q191.9 102.75 197.85 103.1 L198.0 103.1 198.45 103.1 202.95 102.85 205.3 102.95 205.3 103.45 Q205.35 104.8 201.35 107.5 197.65 110.0 196.7 110.0 L195.45 109.75 195.6 108.65 195.3 109.75 194.35 109.55 194.7 107.15 194.7 104.9 192.5 109.15 191.6 108.95 191.65 108.25 191.75 107.25 191.65 106.5 191.65 104.35 190.9 108.7 189.85 108.35 189.95 106.65 Q190.0 105.6 189.5 104.45 L188.95 103.1 Q187.45 103.95 185.85 106.0 M199.55 78.2 L199.5 78.2 199.5 78.15 199.65 78.15 199.55 78.2 M193.7 85.3 L193.8 85.2 Q194.0 84.95 194.25 84.9 195.05 84.9 195.75 86.7 L195.65 86.9 195.6 87.05 195.45 86.9 195.45 87.3 195.05 88.1 193.1 90.5 192.9 90.5 Q192.4 90.5 192.0 89.6 L191.7 88.7 191.8 88.35 192.15 87.7 192.2 87.6 193.05 86.3 193.25 86.05 193.55 85.65 193.7 85.3 M246.65 137.2 Q245.65 139.75 244.15 141.55 L244.0 141.75 244.15 141.55 Q245.65 139.75 246.65 137.2 M247.0 155.7 L246.75 152.9 249.2 157.3 249.25 158.05 247.0 155.7 M279.3 116.9 L279.15 116.8 278.0 115.9 279.15 116.8 279.3 116.9 279.45 117.15 279.65 117.15 279.3 116.9 M265.85 106.35 L264.3 107.4 Q262.85 108.3 261.5 108.3 262.85 108.3 264.3 107.4 L265.85 106.35 M277.7 139.15 Q277.8 138.0 277.55 136.9 L276.8 135.1 Q276.05 133.85 274.7 132.5 L271.55 129.65 269.75 128.35 Q268.4 127.5 267.3 127.25 L266.55 127.1 265.9 127.05 264.55 126.95 262.3 126.8 261.55 126.7 Q259.65 126.5 257.15 129.3 L256.15 130.5 257.15 129.3 Q259.65 126.5 261.55 126.7 L262.3 126.8 264.55 126.95 265.9 127.05 266.55 127.1 267.3 127.25 Q268.4 127.5 269.75 128.35 L271.55 129.65 274.7 132.5 Q276.05 133.85 276.8 135.1 L277.55 136.9 Q277.8 138.0 277.7 139.15 M267.3 134.8 Q264.65 134.75 260.75 136.6 L259.15 137.4 255.95 138.7 252.7 137.8 255.95 138.7 259.15 137.4 260.75 136.6 Q264.65 134.75 267.3 134.8 L267.8 134.95 267.8 134.8 267.3 134.8 M267.3 137.9 L267.1 137.85 Q264.95 137.0 262.6 137.0 L259.15 137.4 262.6 137.0 Q264.95 137.0 267.1 137.85 L267.3 137.9 M279.1 133.4 Q279.85 132.95 280.45 132.65 279.85 132.95 279.1 133.4 M282.0 145.85 L284.15 148.0 282.0 145.85" fill="#aa7b4d" fill-rule="evenodd" stroke="none"/>
      <path d="M280.6 134.05 L281.15 140.5 Q283.05 142.55 286.5 144.7 L293.2 148.45 Q297.4 150.9 300.6 153.45 303.55 155.8 303.55 156.5 303.55 158.1 301.5 159.15 300.1 159.85 297.75 160.3 295.75 160.3 289.75 153.95 L287.85 151.95 Q287.2 148.75 287.25 147.75 L283.25 144.4 Q282.35 143.65 281.7 143.6 L281.0 143.65 Q279.8 142.35 278.75 139.55 L277.7 136.85 277.0 135.1 Q278.95 135.05 280.6 134.05 M255.25 120.75 L256.35 117.75 Q258.95 110.45 258.95 108.4 L258.5 106.05 Q258.5 104.05 262.15 98.3 266.05 92.15 269.45 90.4 L269.3 90.6 Q274.8 92.3 270.6 101.4 270.4 102.25 265.7 109.15 L265.3 109.8 Q265.7 108.1 266.85 105.4 268.55 101.3 268.55 100.55 268.55 98.1 267.35 97.4 266.35 97.95 265.5 99.55 L261.5 108.3 Q259.8 111.85 256.9 121.7 L256.9 122.35 257.3 122.4 257.2 128.55 251.8 132.25 250.75 132.25 Q249.4 132.25 247.1 133.25 243.75 134.75 241.55 137.5 239.65 140.0 235.5 141.75 233.0 142.8 230.15 143.35 L229.55 142.9 225.75 140.0 Q227.55 139.35 231.75 138.35 L233.15 138.0 Q236.15 137.3 239.75 135.25 L241.15 133.15 242.65 131.05 243.65 129.65 Q244.0 129.15 245.9 128.35 248.35 127.25 253.35 125.65 L255.25 120.75 M263.55 119.65 L263.7 121.3 263.7 121.35 268.0 122.1 Q268.7 122.1 271.3 118.4 274.85 113.3 278.15 110.0 279.5 108.65 285.65 104.9 291.0 101.65 293.25 100.55 L293.35 101.7 293.65 103.85 293.65 104.25 293.35 106.95 292.45 106.7 Q280.2 113.7 278.6 115.35 L278.0 115.9 274.55 119.15 274.45 119.05 274.3 119.25 274.35 119.3 Q269.4 123.9 267.35 126.55 264.9 125.55 262.85 125.55 L262.4 125.6 263.45 119.75 263.55 119.65 M275.75 126.7 L276.1 128.0 276.95 129.25 279.85 128.35 Q286.0 126.0 292.7 126.0 L293.35 126.0 299.6 126.45 Q300.7 126.8 302.7 127.9 L302.6 128.05 295.55 130.5 293.35 131.1 291.8 131.35 287.5 130.6 286.4 130.3 285.6 130.25 280.6 130.7 276.0 132.95 275.95 132.9 Q274.35 130.9 272.4 129.4 273.35 129.05 274.25 128.3 L275.75 126.7 M263.7 121.35 L263.7 121.45 263.9 121.65 263.7 121.35 M278.0 115.9 L277.5 115.5 276.4 114.55 277.5 115.5 278.0 115.9 M254.05 125.4 L253.35 125.65 254.05 125.4 M277.5 129.85 L276.95 129.25 277.5 129.85 M253.35 125.65 L252.5 127.5 253.35 125.65 M281.15 140.5 L279.65 138.5 281.15 140.5" fill="url(#gradient6)" fill-rule="evenodd" stroke="none"/>
      <path d="M260.55 181.05 L263.0 178.4 Q267.25 173.8 268.7 173.5 L268.9 173.55 Q260.9 200.3 246.8 211.15 L243.5 211.15 239.25 208.5 241.7 207.05 Q250.35 201.6 252.8 196.2 253.65 194.3 253.95 190.9 L254.15 188.35 254.15 186.2 Q254.15 175.75 250.1 169.6 248.8 167.65 247.15 166.1 L245.75 164.95 Q244.55 164.1 243.25 163.4 240.65 162.05 237.05 161.45 L229.8 160.9 228.95 160.95 224.85 161.65 217.75 162.3 215.95 162.35 211.7 162.4 209.15 162.2 201.9 161.55 201.5 161.5 Q198.0 159.15 198.0 154.85 198.0 153.25 198.25 151.8 L198.4 151.25 Q199.05 148.1 201.0 145.7 L201.1 145.7 201.05 145.65 Q203.65 142.4 208.65 140.4 L209.45 140.1 Q212.4 139.0 216.2 138.35 L218.5 138.35 Q221.15 139.75 221.8 140.5 223.2 142.0 223.2 145.0 223.2 148.25 221.3 150.7 219.75 152.65 218.2 152.95 218.75 150.7 218.75 147.45 218.75 144.5 215.5 143.25 L213.1 142.75 212.75 142.65 212.1 142.55 212.2 142.7 213.05 143.2 Q214.4 144.15 214.5 144.95 L214.3 144.95 207.3 143.85 205.85 144.15 205.6 144.1 205.85 144.15 207.25 144.7 Q208.5 145.25 208.8 145.75 205.15 146.95 204.15 148.35 203.5 149.3 203.5 151.9 203.5 154.6 208.35 155.05 L210.15 155.1 217.9 154.25 218.15 154.2 222.0 153.3 Q227.3 152.0 230.25 151.65 L232.05 151.5 Q235.95 151.5 238.3 152.35 L238.4 152.4 Q239.9 153.0 242.2 156.05 L239.7 151.7 239.7 151.5 Q242.55 151.7 246.35 155.1 L247.0 155.7 249.25 158.05 249.8 158.75 249.2 157.3 246.75 152.9 244.95 150.0 246.45 150.6 248.65 152.1 Q250.3 153.4 251.8 155.5 L253.7 158.4 254.85 160.65 255.0 160.9 Q257.25 165.5 257.95 168.35 L258.3 170.1 258.3 170.55 258.35 169.95 Q258.55 168.6 259.35 167.3 260.95 164.55 265.1 161.85 L258.1 183.25 258.1 183.65 258.3 183.45 260.55 181.05 M191.8 211.15 L169.95 211.15 158.9 187.85 162.1 172.65 162.1 172.55 Q162.6 170.25 160.55 159.05 165.35 169.05 168.55 172.7 164.75 152.4 167.15 143.95 L169.5 135.25 Q170.0 135.25 170.4 136.75 174.3 150.95 174.4 157.15 174.4 135.15 174.9 128.8 175.15 125.6 176.1 121.2 L176.05 121.45 176.95 118.7 177.1 118.45 177.15 118.25 179.15 113.95 179.55 113.1 179.25 116.9 179.2 117.15 179.2 117.2 179.2 117.25 179.2 117.45 179.35 117.2 182.75 110.6 Q184.35 107.8 185.85 106.0 187.45 103.95 188.95 103.1 L189.5 104.45 Q190.0 105.6 189.95 106.65 L189.85 108.35 189.8 110.45 189.95 110.45 190.9 108.7 191.65 104.35 191.65 106.5 191.65 108.25 191.6 108.95 191.4 110.55 191.55 111.6 191.55 111.7 191.65 111.55 Q191.65 110.9 192.5 109.15 L194.7 104.9 194.7 107.15 194.35 109.55 193.75 114.5 193.75 114.55 193.75 114.75 193.85 114.5 195.3 109.75 195.6 108.65 195.45 109.75 194.3 120.5 194.0 123.4 195.85 120.7 198.25 116.6 197.5 120.95 196.7 126.1 Q198.85 124.4 201.1 121.5 L202.25 119.95 Q206.05 114.5 206.4 110.1 L206.4 110.25 206.9 116.6 208.5 113.05 219.25 127.45 207.2 127.45 Q213.05 131.65 210.9 136.65 L210.85 136.7 Q203.6 137.6 195.05 145.4 L198.0 145.65 193.35 164.2 Q191.85 170.25 212.4 170.05 211.3 186.2 212.3 192.15 L202.1 206.05 202.1 199.9 191.8 211.15 M158.1 211.15 L152.95 211.15 153.05 210.05 Q153.7 207.6 154.75 204.85 L155.15 205.6 156.65 208.5 158.1 211.15 M197.0 67.4 Q198.7 64.8 202.45 63.1 L206.35 61.4 206.7 61.45 215.85 65.05 220.45 68.25 220.15 68.2 215.45 65.95 215.5 66.0 206.6 62.5 Q200.95 66.85 197.3 68.8 L195.95 69.75 Q196.25 68.5 197.0 67.4 M171.9 72.05 L171.6 71.8 Q170.9 70.45 170.9 67.7 170.9 66.45 171.65 65.75 176.3 66.6 178.6 69.35 180.85 72.1 180.1 72.25 174.95 68.1 173.75 67.75 L172.2 67.3 Q171.9 67.2 171.9 67.7 171.9 70.15 172.5 71.35 L172.55 71.7 172.3 72.0 171.9 72.05 M180.1 72.25 Q180.75 72.4 181.4 72.7 L184.4 74.6 184.75 74.95 185.45 78.9 184.45 80.05 182.85 79.75 182.05 79.35 Q179.45 78.15 172.75 77.05 L172.7 77.0 Q173.6 75.4 175.35 73.75 177.0 72.3 180.1 72.25 M167.05 82.85 L167.15 83.2 167.05 82.9 167.05 82.85 M199.5 78.15 L196.1 78.95 Q200.65 68.5 207.45 69.95 209.95 68.75 214.4 76.25 L214.3 76.9 204.45 77.45 199.75 78.1 199.65 78.15 199.5 78.15 M206.9 116.6 L206.9 116.75 206.9 116.6 M211.4 142.4 L212.2 142.7 211.4 142.4 M208.35 155.05 L208.3 155.05 208.35 155.05 M250.25 159.75 L250.05 159.15 250.0 159.05 249.8 158.75 250.0 159.05 250.05 159.15 250.25 159.75 M258.1 184.7 L258.1 183.65 258.1 184.7 M127.95 185.05 L128.0 185.15 127.95 185.05" fill="#ffffff" fill-rule="evenodd" stroke="none"/>
      <path d="M226.45 59.7 L228.6 64.7 223.8 64.7 225.45 68.9 222.35 68.95 221.2 71.4 Q218.2 77.35 218.2 82.1 L218.2 83.15 218.35 85.2 218.4 85.8 Q196.9 80.15 195.9 80.15 195.15 80.15 194.85 80.55 L193.55 82.05 193.55 82.3 Q193.5 80.85 192.15 77.75 190.6 74.15 189.2 73.95 L188.25 79.85 188.2 79.95 187.95 81.25 187.45 82.6 187.4 82.6 187.35 82.95 Q186.7 85.15 186.7 86.6 186.7 89.0 187.5 91.7 L188.1 93.55 188.1 93.95 187.55 94.05 188.1 93.95 188.1 94.0 187.55 94.05 187.45 94.05 187.15 93.95 184.95 93.0 Q183.2 91.75 183.2 88.2 L184.35 82.2 179.95 82.05 174.1 82.05 171.85 82.15 168.3 75.7 166.6 68.6 Q165.6 64.9 166.6 61.2 L170.35 60.85 208.15 58.7 226.45 59.7 M197.0 67.4 Q196.25 68.5 195.95 69.75 L197.3 68.8 Q200.95 66.85 206.6 62.5 L215.5 66.0 215.45 65.95 220.15 68.2 220.45 68.25 215.85 65.05 206.7 61.45 206.35 61.4 202.45 63.1 Q198.7 64.8 197.0 67.4 M171.9 72.05 L172.3 72.0 172.55 71.7 172.5 71.35 Q171.9 70.15 171.9 67.7 171.9 67.2 172.2 67.3 L173.75 67.75 Q174.95 68.1 180.1 72.25 180.85 72.1 178.6 69.35 176.3 66.6 171.65 65.75 170.9 66.45 170.9 67.7 170.9 70.45 171.6 71.8 L171.9 72.05 M172.75 77.05 Q179.45 78.15 182.05 79.35 L182.85 79.75 184.45 80.05 185.45 78.9 184.75 74.95 184.4 74.6 181.4 72.7 Q180.75 72.4 180.1 72.25 177.0 72.3 175.35 73.75 173.6 75.4 172.7 77.0 L172.75 77.05 M199.3 78.25 L199.15 78.4 199.55 78.2 199.75 78.1 204.45 77.45 214.3 76.9 214.4 76.25 Q209.95 68.75 207.45 69.95 200.65 68.5 196.1 78.95 L199.5 78.15 199.5 78.2 199.3 78.25" fill="url(#gradient7)" fill-rule="evenodd" stroke="none"/>
      <path d="M95.55 129.95 L87.55 131.2 87.25 131.25 Q33.55 138.1 43.0 120.6 L65.55 99.05 87.25 84.2 87.55 84.05 Q111.0 74.3 138.65 65.95 L140.35 65.45 Q147.15 63.05 166.55 61.2 L163.75 72.35 167.65 77.25 166.7 77.05 162.3 77.05 165.55 79.5 165.0 80.35 Q161.3 80.35 156.65 82.6 152.5 84.6 150.95 86.6 L152.75 86.6 Q153.7 85.75 156.4 85.7 L159.35 85.85 159.4 85.9 Q157.95 86.35 155.85 89.4 L152.0 94.7 Q159.05 90.65 159.7 89.95 L159.8 90.0 Q159.2 90.9 158.05 93.55 156.4 97.15 156.4 98.0 159.25 96.05 161.8 94.8 161.35 101.0 159.95 107.4 158.8 112.3 155.45 121.9 L154.85 123.65 154.65 124.1 Q149.05 124.4 145.55 124.3 145.2 121.95 144.35 120.8 L143.5 120.0 Q142.45 119.35 140.8 119.35 139.7 119.35 138.6 119.8 L137.2 113.25 Q136.7 110.9 132.15 108.15 129.85 106.75 128.1 106.15 L131.35 100.3 Q130.25 95.7 121.55 91.75 L118.95 98.5 Q117.9 101.2 117.35 103.15 116.25 96.5 113.15 96.5 L112.15 96.6 Q110.9 96.65 108.2 98.3 105.5 99.9 105.5 102.85 105.45 105.8 107.2 108.55 104.6 110.7 103.3 112.6 L101.75 112.35 Q101.45 112.35 99.05 114.7 97.4 117.2 97.05 118.2 L97.05 120.4 100.9 121.1 Q100.45 124.05 100.45 125.75 L100.5 127.0 97.35 126.9 Q95.8 127.55 95.55 129.95" fill="#675030" fill-rule="evenodd" stroke="none"/>
      <path d="M171.85 82.15 L174.1 82.05 179.95 82.05 184.35 82.2 183.2 88.2 Q183.2 91.75 184.95 93.0 L187.15 93.95 187.45 94.05 187.55 94.05 188.1 94.0 188.2 94.0 188.3 94.0 188.25 93.95 188.25 93.9 188.1 93.55 187.5 91.7 Q186.7 89.0 186.7 86.6 186.7 85.15 187.35 82.95 L187.45 82.6 187.95 81.25 188.2 79.95 188.25 79.85 189.2 73.95 Q190.6 74.15 192.15 77.75 193.5 80.85 193.55 82.3 L193.55 82.05 194.85 80.55 Q195.15 80.15 195.9 80.15 196.9 80.15 218.4 85.8 L218.65 89.15 Q218.65 90.8 217.95 92.5 L215.7 98.15 215.4 95.7 Q215.25 94.35 213.9 92.85 L214.15 95.6 Q214.15 98.95 211.25 106.4 L210.85 107.35 208.5 113.05 206.9 116.6 206.4 110.25 206.4 110.1 Q206.05 114.5 202.25 119.95 L201.1 121.5 Q198.85 124.4 196.7 126.1 L197.5 120.95 198.25 116.6 195.85 120.7 194.0 123.4 194.3 120.5 195.45 109.75 196.7 110.0 Q197.65 110.0 201.35 107.5 205.35 104.8 205.3 103.45 L205.3 102.95 202.95 102.85 198.45 103.1 198.0 103.1 197.85 103.1 Q191.9 102.75 189.7 101.45 L185.3 98.95 184.6 98.65 182.95 97.8 182.9 97.85 Q183.55 104.2 185.6 105.8 L185.85 106.0 Q184.35 107.8 182.75 110.6 L179.35 117.2 179.2 117.2 179.2 117.15 179.25 116.9 179.55 113.1 179.15 113.95 177.15 118.25 177.1 118.45 176.95 118.7 176.05 121.45 176.1 121.2 177.7 111.8 178.1 108.55 178.1 108.5 Q173.9 114.3 173.45 115.65 L173.3 115.6 Q173.9 113.55 179.2 99.4 L179.2 98.75 178.9 99.0 177.85 99.8 Q176.5 101.1 176.2 102.5 177.75 94.25 177.55 92.75 L177.5 92.55 176.2 90.2 171.85 82.15 M180.35 93.0 L179.5 91.4 Q183.35 94.1 187.45 94.05 183.35 94.1 179.5 91.4 L180.35 93.0 M195.6 87.05 L195.65 86.9 195.75 86.7 Q195.05 84.9 194.25 84.9 194.0 84.95 193.8 85.2 L193.7 85.3 193.55 85.65 193.25 86.05 193.05 86.3 192.2 87.6 192.15 87.7 191.8 88.35 191.7 88.7 192.0 89.6 Q192.4 90.5 192.9 90.5 L193.1 90.5 195.05 88.1 195.45 87.3 195.45 86.9 195.6 87.05 Q198.1 89.8 198.1 90.75 198.1 91.7 197.45 92.2 L195.25 93.65 194.1 95.25 199.05 95.8 Q202.5 95.8 204.4 95.05 210.8 92.65 211.55 91.3 L210.6 90.05 211.55 91.3 Q210.8 92.65 204.4 95.05 202.5 95.8 199.05 95.8 L194.1 95.25 195.25 93.65 197.45 92.2 Q198.1 91.7 198.1 90.75 198.1 89.8 195.6 87.05 M209.95 89.3 Q208.85 88.2 204.65 86.55 200.2 84.8 197.85 84.8 200.2 84.8 204.65 86.55 208.85 88.2 209.95 89.3 M211.55 91.3 L212.7 93.8 211.55 91.3 M210.2 88.05 Q209.1 86.95 204.9 85.3 200.45 83.55 198.1 83.55 200.45 83.55 204.9 85.3 209.1 86.95 210.2 88.05" fill="url(#gradient8)" fill-rule="evenodd" stroke="none"/>
      <path d="M167.75 77.3 Q167.95 76.4 168.3 75.7 L171.85 82.15 176.2 90.2 175.35 90.65 171.55 88.0 Q168.0 85.6 167.15 83.2 L167.05 82.85 167.15 80.75 Q167.3 78.8 167.7 77.35 L167.75 77.3 M165.0 115.15 L165.3 115.6 161.9 117.9 165.0 115.15" fill="#ddd5c4" fill-rule="evenodd" stroke="none"/>
      <path d="M167.15 83.2 Q168.0 85.6 171.55 88.0 L175.35 90.65 Q175.65 91.4 175.65 95.75 L175.75 97.55 175.45 98.4 173.8 101.75 171.65 98.3 Q168.1 93.2 165.6 93.2 163.8 93.8 161.8 94.8 159.25 96.05 156.4 98.0 156.4 97.15 158.05 93.55 159.2 90.9 159.8 90.0 L160.1 89.65 159.75 89.95 159.7 89.95 Q159.05 90.65 152.0 94.7 L155.85 89.4 Q157.95 86.35 159.4 85.9 L159.7 85.85 159.45 85.85 167.15 83.2" fill="url(#gradient9)" fill-rule="evenodd" stroke="none"/>
      <path d="M175.35 90.65 L176.2 90.2 177.5 92.55 177.55 92.75 Q177.75 94.25 176.2 102.5 176.5 101.1 177.85 99.8 L178.9 99.0 179.2 99.4 Q173.9 113.55 173.3 115.6 L173.3 115.65 173.45 115.65 Q173.9 114.3 178.1 108.5 L178.1 108.55 177.7 111.8 176.1 121.2 Q175.15 125.6 174.9 128.8 174.4 135.15 174.4 157.15 174.3 150.95 170.4 136.75 170.0 135.25 169.5 135.25 L167.15 143.95 Q164.75 152.4 168.55 172.7 165.35 169.05 160.55 159.05 162.6 170.25 162.1 172.55 L162.1 172.65 158.9 187.85 156.95 183.7 156.85 183.45 156.5 182.7 154.95 179.35 156.5 182.7 156.85 183.45 156.1 181.95 156.5 182.7 156.1 181.95 155.0 179.6 154.95 179.35 154.15 177.5 152.8 174.15 152.7 173.9 Q151.95 169.65 151.2 168.65 L145.75 163.2 140.9 153.6 140.4 152.6 Q142.45 149.85 145.8 146.0 L150.95 140.2 160.3 129.9 166.3 119.65 Q155.05 127.75 154.3 127.65 L163.65 118.15 165.8 115.9 165.85 115.85 168.2 113.45 165.55 115.4 165.4 115.5 165.3 115.6 165.0 115.15 Q169.15 111.1 171.2 107.15 L173.8 101.75 175.45 98.4 175.75 97.75 175.85 97.55 175.75 97.55 175.65 95.75 Q175.65 91.4 175.35 90.65" fill="url(#gradient10)" fill-rule="evenodd" stroke="none"/>
      <path d="M175.45 98.4 L175.75 97.55 175.75 97.75 175.75 97.55 175.85 97.55 175.75 97.75 175.45 98.4 M109.45 106.8 L110.0 106.35 111.1 105.65 111.5 105.5 Q110.6 105.95 109.45 106.8" fill="#ffcc99" fill-rule="evenodd" stroke="none"/>
      <path d="M101.5 134.75 L98.1 134.75 96.35 133.7 Q95.5 133.2 95.5 130.85 L95.55 129.95 Q95.8 127.55 97.35 126.9 L100.5 127.0 102.5 127.05 Q104.45 127.35 104.9 128.25 L105.0 128.75 Q105.0 131.5 105.45 132.5 L105.45 134.75 101.5 134.75 M188.1 93.95 L188.1 93.55 188.25 93.9 188.25 93.95 188.3 94.0 188.2 94.0 188.1 94.0 188.1 93.95 188.25 93.95 188.1 93.95 M187.35 82.95 L187.4 82.6 187.45 82.6 187.35 82.95 M173.3 115.6 L173.45 115.65 173.3 115.65 173.3 115.6 M179.2 117.2 L179.35 117.2 179.2 117.25 179.2 117.2 M225.45 87.45 L224.0 84.55 223.9 84.3 223.75 83.95 Q221.95 78.3 221.95 77.2 221.95 76.75 223.3 74.65 223.45 74.4 223.75 74.3 L224.4 73.85 224.65 73.65 228.5 70.8 235.5 74.05 235.5 75.55 232.25 80.05 229.0 84.55 Q226.7 86.8 225.45 87.45 M233.8 74.75 L232.45 74.75 229.9 75.55 Q227.55 76.25 224.75 81.45 227.55 76.25 229.9 75.55 L232.45 74.75 233.8 74.75 M233.05 97.4 L232.0 98.0 231.65 98.0 232.85 97.4 233.05 97.4 M231.45 105.4 L231.3 105.5 231.25 105.35 231.45 105.4 M193.75 114.55 L193.75 114.5 193.85 114.5 193.75 114.55 M165.4 115.5 L165.55 115.4 168.2 113.45 165.85 115.85 165.8 115.9 165.4 115.5 M247.45 136.4 L252.7 137.8 253.3 140.6 Q254.05 143.7 254.05 145.85 L253.85 149.2 Q253.4 152.35 252.15 154.8 L251.8 155.5 Q250.3 153.4 248.65 152.1 L248.45 149.55 Q247.6 140.95 247.45 136.4 M249.2 157.3 L249.8 158.75 249.25 158.05 249.2 157.3 M107.2 108.55 Q105.45 105.8 105.5 102.85 105.5 99.9 108.2 98.3 110.9 96.65 112.15 96.6 L113.15 96.5 Q116.25 96.5 117.35 103.15 116.8 105.15 116.8 106.4 116.8 107.25 117.9 108.6 116.8 107.25 116.8 106.4 116.8 105.15 117.35 103.15 117.9 101.2 118.95 98.5 L121.55 91.75 Q130.25 95.7 131.35 100.3 L128.1 106.15 127.95 106.4 Q124.45 112.4 124.5 113.4 L123.25 113.1 Q121.75 112.5 119.75 110.6 L117.9 108.6 117.9 109.35 117.9 111.55 113.3 112.35 Q109.65 112.35 107.3 108.7 L107.2 108.55 M138.6 119.8 Q139.7 119.35 140.8 119.35 142.45 119.35 143.5 120.0 L144.35 120.8 Q145.2 121.95 145.55 124.3 L145.8 128.1 Q145.8 131.95 145.05 132.5 L140.85 132.85 138.95 132.75 138.45 132.65 Q134.85 132.0 134.85 129.0 135.9 125.3 135.9 123.15 135.9 122.3 137.6 120.3 L136.6 121.0 136.9 120.75 137.6 120.3 138.6 119.8 M154.65 124.1 L154.85 123.65 155.45 121.9 Q158.8 112.3 159.95 107.4 162.9 111.5 162.15 113.0 L158.55 118.65 154.7 124.05 154.85 123.65 155.0 123.25 155.25 122.6 155.45 121.9 155.25 122.6 155.0 123.25 154.85 123.65 154.7 124.05 154.65 124.1 M127.5 100.55 Q127.1 99.3 125.7 97.8 124.0 95.95 122.3 95.8 124.0 95.95 125.7 97.8 127.1 99.3 127.5 100.55 M123.4 105.4 L122.05 103.85 Q121.35 103.25 120.55 102.85 L119.55 102.9 Q118.25 103.25 118.25 105.0 118.25 107.3 119.9 108.4 L122.3 109.75 Q124.15 108.55 124.15 107.35 124.15 106.6 123.4 105.4 M138.75 125.65 L139.05 127.7 Q139.4 129.45 140.3 131.0 141.75 129.65 141.75 127.75 141.75 125.15 141.0 123.85 140.4 122.15 138.85 123.85 L138.75 125.65 M109.45 106.8 Q108.7 107.4 108.7 107.75 108.7 108.65 109.8 109.75 110.9 110.85 111.7 110.85 115.35 110.5 115.35 108.85 115.35 107.8 113.85 106.7 L112.0 105.65 111.5 105.5 111.1 105.65 110.0 106.35 109.45 106.8 M103.3 112.6 Q105.15 113.05 107.65 114.55 110.95 116.55 110.95 117.25 110.95 122.45 107.25 122.6 L100.9 121.1 97.05 120.4 97.05 118.2 Q97.4 117.2 99.05 114.7 101.45 112.35 101.75 112.35 L103.3 112.6 M101.4 118.9 Q102.55 120.4 105.1 121.5 105.1 120.55 106.15 118.45 L107.25 116.4 Q106.25 115.6 105.4 115.6 102.55 115.6 101.4 118.9 M99.9 128.1 L99.05 129.35 98.8 130.1 99.25 131.9 Q99.9 133.2 101.3 133.5 L102.3 133.6 Q103.15 133.6 102.85 133.25 102.5 132.35 102.55 130.55 102.55 129.2 102.1 129.2 L102.5 128.1 99.9 128.1 M128.3 208.5 L128.3 208.9 Q128.3 210.15 127.05 211.15 L128.3 208.5" fill="#f5d5a4" fill-rule="evenodd" stroke="none"/>
      <path d="M194.35 109.55 L195.3 109.75 193.85 114.5 193.75 114.5 194.35 109.55 M189.85 108.35 L190.9 108.7 189.95 110.45 189.8 110.45 189.85 108.35 M191.6 108.95 L192.5 109.15 Q191.65 110.9 191.65 111.55 L191.55 111.6 191.4 110.55 191.6 108.95" fill="url(#gradient11)" fill-rule="evenodd" stroke="none"/>
      <path d="M243.5 211.15 L218.95 211.15 Q221.7 209.45 224.85 206.95 L227.1 205.05 231.65 200.5 Q239.45 191.55 239.45 182.3 239.45 176.25 236.5 170.75 L235.75 169.5 Q232.75 164.8 228.35 163.95 L226.25 163.75 224.3 163.95 223.75 164.0 217.65 164.35 215.45 164.4 215.15 164.4 209.35 164.1 Q206.6 163.7 204.55 163.0 203.1 162.5 202.05 161.85 L201.5 161.5 201.9 161.55 209.15 162.2 211.7 162.4 215.95 162.35 217.75 162.3 224.85 161.65 228.95 160.95 229.8 160.9 237.05 161.45 Q240.65 162.05 243.25 163.4 244.55 164.1 245.75 164.95 L247.15 166.1 Q248.8 167.65 250.1 169.6 254.15 175.75 254.15 186.2 L254.15 188.35 253.95 190.9 Q253.65 194.3 252.8 196.2 250.35 201.6 241.7 207.05 L239.25 208.5 243.5 211.15" fill="url(#gradient12)" fill-rule="evenodd" stroke="none"/>
      <path d="M254.15 98.9 L254.3 108.65 Q254.25 113.95 255.25 120.75 L253.35 125.65 Q248.35 127.25 245.9 128.35 L243.25 120.1 239.6 109.85 Q247.95 101.7 254.15 98.9" fill="url(#gradient13)" fill-rule="evenodd" stroke="none"/>
      <path d="M267.3 143.15 Q267.1 157.55 264.3 169.45 262.75 176.1 260.55 181.05 L258.3 183.45 258.1 183.65 258.1 183.25 265.1 161.85 Q260.95 164.55 259.35 167.3 261.15 161.95 262.2 156.45 L264.0 148.05 264.4 145.65 267.3 143.15 M258.3 170.1 L258.35 169.95 258.3 170.55 258.3 170.1" fill="url(#gradient14)" fill-rule="evenodd" stroke="none"/>
      <path d="M123.4 105.4 Q124.15 106.6 124.15 107.35 124.15 108.55 122.3 109.75 L119.9 108.4 Q118.25 107.3 118.25 105.0 118.25 103.25 119.55 102.9 L120.55 102.85 Q121.35 103.25 122.05 103.85 L123.4 105.4 M138.75 125.65 L138.85 123.85 Q140.4 122.15 141.0 123.85 141.75 125.15 141.75 127.75 141.75 129.65 140.3 131.0 139.4 129.45 139.05 127.7 L138.75 125.65 M111.5 105.5 L112.0 105.65 113.85 106.7 Q115.35 107.8 115.35 108.85 115.35 110.5 111.7 110.85 110.9 110.85 109.8 109.75 108.7 108.65 108.7 107.75 108.7 107.4 109.45 106.8 110.6 105.95 111.5 105.5 M101.4 118.9 Q102.55 115.6 105.4 115.6 106.25 115.6 107.25 116.4 L106.15 118.45 Q105.1 120.55 105.1 121.5 102.55 120.4 101.4 118.9 M99.9 128.1 L102.5 128.1 102.1 129.2 Q102.55 129.2 102.55 130.55 102.5 132.35 102.85 133.25 103.15 133.6 102.3 133.6 L101.3 133.5 Q99.9 133.2 99.25 131.9 L98.8 130.1 99.05 129.35 99.9 128.1" fill="#fbedd9" fill-rule="evenodd" stroke="none"/>
      <path d="M169.95 211.15 L158.1 211.15 156.65 208.5 155.15 205.6 154.75 204.85 153.75 202.8 Q150.2 195.7 145.4 185.2 143.5 182.95 142.45 180.95 L137.05 169.75 136.05 168.25 Q129.25 158.15 128.0 157.25 127.3 156.75 125.05 155.85 L124.95 155.1 124.75 155.75 123.6 155.3 118.0 152.95 117.55 151.85 115.35 146.8 Q114.1 143.45 114.1 139.7 114.1 135.45 120.1 120.95 L123.25 113.1 120.1 120.95 Q114.1 135.45 114.1 139.7 114.1 143.45 115.35 146.8 L117.55 151.85 118.0 152.95 115.3 151.7 113.95 151.0 107.9 148.35 Q105.45 147.15 103.45 143.75 102.55 142.25 101.5 134.75 L105.45 134.75 105.45 132.5 Q105.0 131.5 105.0 128.75 L104.9 128.25 Q104.45 127.35 102.5 127.05 L100.5 127.0 100.45 125.75 Q100.45 124.05 100.9 121.1 L107.25 122.6 Q110.95 122.45 110.95 117.25 110.95 116.55 107.65 114.55 105.15 113.05 103.3 112.6 104.6 110.7 107.2 108.55 L107.3 108.7 Q109.65 112.35 113.3 112.35 L117.9 111.55 117.9 109.35 117.9 108.6 119.75 110.6 Q121.75 112.5 123.25 113.1 L124.5 113.4 Q124.45 112.4 127.95 106.4 L128.1 106.15 Q129.85 106.75 132.15 108.15 136.7 110.9 137.2 113.25 L138.6 119.8 137.6 120.3 Q135.9 122.3 135.9 123.15 135.9 125.3 134.85 129.0 134.85 132.0 138.45 132.65 135.2 137.65 129.9 144.1 124.95 150.1 124.95 155.1 124.95 150.1 129.9 144.1 135.2 137.65 138.45 132.65 L138.95 132.75 Q138.8 134.75 137.7 137.1 136.45 139.8 136.45 142.1 136.45 144.75 140.4 152.6 L140.9 153.6 145.75 163.2 151.2 168.65 Q151.95 169.65 152.7 173.9 L152.8 174.15 154.15 177.5 154.95 179.35 155.0 179.6 156.1 181.95 156.85 183.45 156.95 183.7 158.9 187.85 169.95 211.15 M136.6 121.0 L137.6 120.3 136.9 120.75 136.6 121.0" fill="#a29966" fill-rule="evenodd" stroke="none"/>
      <path d="M124.75 155.75 L124.95 155.1 125.05 155.85 124.75 155.75" fill="#cc9966" fill-rule="evenodd" stroke="none"/>
      <path d="M358.0 99.55 Q371.9 107.65 369.75 113.15 367.55 125.45 334.95 127.75 L302.8 130.0 M300.6 130.0 L299.9 130.65 Q296.95 132.9 293.85 132.9 L293.35 132.9 289.3 132.15 Q287.2 131.35 285.0 131.35 L282.9 131.5 Q282.2 131.7 280.45 132.65 L280.55 133.1 280.6 134.05 281.15 140.5 Q283.05 142.55 286.5 144.7 L293.2 148.45 Q297.4 150.9 300.6 153.45 303.55 155.8 303.55 156.5 303.55 158.1 301.5 159.15 300.1 159.85 297.75 160.3 295.75 160.3 289.75 153.95 L287.85 151.95 284.25 148.1 284.15 148.0 278.55 149.05 Q277.85 149.05 276.55 147.15 L273.7 143.05 Q270.8 139.3 267.3 137.9 L267.3 143.15 Q267.1 157.55 264.3 169.45 262.75 176.1 260.55 181.05 M127.05 211.15 Q124.95 213.75 122.4 200.5 L122.3 200.75 122.3 200.4 Q122.25 181.4 121.9 177.4 121.25 169.85 119.05 162.25 117.55 156.95 115.3 151.7 L113.95 151.0 107.9 148.35 Q105.45 147.15 103.45 143.75 102.55 142.25 101.5 134.75 L98.1 134.75 96.35 133.7 Q95.5 133.2 95.5 130.85 L95.55 129.95 87.55 131.2 87.25 131.25 M162.1 53.3 L162.95 53.2 M164.15 53.1 L165.4 52.95 166.35 52.9 Q166.0 52.3 166.0 51.2 166.0 49.65 166.45 49.1 L167.8 46.55 170.0 41.1 Q171.1 38.1 179.75 30.65 L179.65 30.25 Q178.8 27.3 178.8 25.65 178.8 24.0 199.0 12.85 212.9 7.0 213.3 7.0 213.65 7.0 214.75 7.8 L214.55 6.65 Q214.35 4.8 216.25 4.05 221.55 1.9 225.05 1.1 230.05 0.0 233.3 0.0 235.1 0.0 238.15 3.8 238.85 2.9 241.1 1.55 243.2 0.35 243.6 0.35 253.6 0.35 262.15 13.2 269.4 24.05 270.15 34.8 L270.2 37.25 Q270.2 42.8 268.65 46.55 268.2 47.55 269.3 50.5 270.4 53.45 269.45 53.8 268.45 54.15 263.9 50.55 L259.1 46.55 255.85 41.5 254.8 40.0 Q254.35 39.4 254.45 38.75 L254.3 38.0 Q253.9 37.7 250.55 37.15 248.65 41.45 243.1 45.5 L243.2 46.55 243.8 52.5 243.8 55.05 243.7 55.05 243.75 55.25 243.75 55.5 243.8 55.65 245.2 56.05 248.25 56.45 271.15 61.05 Q285.85 64.65 305.85 72.9 L306.5 73.2 M369.75 113.15 Q342.7 96.9 331.95 92.55 L301.8 80.3 Q273.1 68.55 261.8 66.0 251.95 63.75 248.85 62.7 L245.35 62.25 245.25 62.35 245.1 62.4 245.0 62.35 237.0 63.85 Q255.35 67.35 256.25 69.5 L256.6 69.65 256.85 69.9 259.0 72.45 259.1 72.55 259.15 72.6 259.4 72.9 260.65 74.35 261.1 74.85 262.5 76.35 262.85 76.65 263.0 76.85 264.65 78.45 Q256.65 74.1 254.7 73.5 L254.5 73.45 254.4 73.4 254.05 73.35 254.4 73.75 Q255.55 74.85 261.65 84.2 L261.75 84.4 261.35 84.4 256.9 80.15 256.75 80.0 M252.25 76.0 L253.1 77.15 253.35 77.45 253.25 77.35 253.35 77.45 256.15 80.85 Q260.25 85.95 261.0 87.95 L261.0 88.05 260.65 88.05 Q258.95 86.35 255.05 83.75 250.9 81.0 249.0 80.75 L257.25 91.95 257.35 92.1 257.0 92.1 253.5 90.15 254.15 98.9 254.3 108.65 Q254.25 113.95 255.25 120.75 L256.35 117.75 Q258.95 110.45 258.95 108.4 L258.5 106.05 Q258.5 104.05 262.15 98.3 266.05 92.15 269.45 90.4 L269.3 90.6 Q274.8 92.3 270.6 101.4 270.4 102.25 265.7 109.15 L265.3 109.8 M264.7 111.1 Q263.5 113.95 263.5 118.2 L263.55 119.35 263.55 119.65 263.7 121.3 263.7 121.35 268.0 122.1 Q268.7 122.1 271.3 118.4 274.85 113.3 278.15 110.0 279.5 108.65 285.65 104.9 291.0 101.65 293.25 100.55 L293.35 101.7 293.65 103.85 293.65 104.25 293.35 106.95 Q293.0 108.3 292.35 109.1 L288.25 112.85 Q287.6 113.5 282.75 116.2 279.55 117.95 278.7 118.7 L278.6 119.1 276.1 125.75 275.85 126.45 275.75 126.6 275.75 126.7 276.1 128.0 276.95 129.25 279.85 128.35 Q286.0 126.0 292.7 126.0 L293.35 126.0 299.6 126.45 Q300.7 126.8 302.7 127.9 L302.6 128.05 300.6 130.0 M238.15 3.8 Q240.6 6.75 243.8 12.1 251.5 24.8 251.5 32.65 251.5 34.95 250.55 37.15 M243.75 55.5 L243.8 55.65 242.7 55.2 241.9 54.85 241.5 54.65 237.35 52.85 227.05 50.4 225.15 50.15 223.55 49.95 210.5 49.15 210.2 49.15 209.95 49.15 209.65 49.15 209.4 49.15 209.25 49.15 208.8 49.15 208.5 49.15 208.2 49.15 206.5 49.15 M205.8 49.15 L193.1 50.25 182.5 51.35 176.8 52.0 M166.45 53.05 L166.35 52.9 M243.75 55.25 L243.7 55.15 243.7 55.05 243.1 52.8 242.85 52.2 242.8 52.05 M242.35 51.0 L241.95 50.15 241.9 50.0 241.8 49.75 240.8 47.8 240.65 47.5 240.15 46.55 236.45 39.25 Q235.35 36.95 230.85 31.35 226.6 26.1 222.45 24.25 218.25 22.4 217.8 22.45 217.35 22.45 217.7 22.4 L199.75 20.95 199.4 20.9 199.0 20.95 Q196.4 21.1 192.75 22.5 186.35 24.9 180.35 30.1 L179.75 30.65 M244.25 62.15 L244.6 62.25 245.0 62.35 245.25 62.35 M244.2 62.15 L244.6 62.25 244.75 62.3 M244.2 62.15 L232.5 60.55 232.2 60.5 226.45 59.7 228.6 64.7 223.8 64.7 225.45 68.9 227.35 68.85 M252.25 75.95 L252.25 76.0 M252.25 75.95 L249.25 71.8 M252.15 75.9 L253.1 77.15 253.25 77.35 M249.0 80.75 L248.65 80.7 248.95 80.7 249.0 80.75 M241.55 91.75 L232.55 92.1 230.9 92.1 Q238.65 86.6 244.5 86.6 246.75 86.6 253.5 90.15 M243.1 45.5 L242.0 36.65 Q241.65 34.85 237.55 29.75 232.1 22.95 222.75 14.55 217.1 9.45 214.75 7.8 M197.0 67.4 Q196.25 68.5 195.95 69.75 L197.3 68.8 Q200.95 66.85 206.6 62.5 L215.5 66.0 215.45 65.95 220.15 68.2 220.45 68.25 215.85 65.05 206.7 61.45 206.35 61.4 202.45 63.1 Q198.7 64.8 197.0 67.4 M166.6 61.2 L166.55 61.2 Q147.15 63.05 140.35 65.45 L138.65 65.95 M167.65 77.25 L167.75 77.3 Q167.95 76.4 168.3 75.7 L166.6 68.6 Q165.6 64.9 166.6 61.2 L170.35 60.85 208.15 58.7 226.45 59.7 M171.9 72.05 L172.3 72.0 172.55 71.7 172.5 71.35 Q171.9 70.15 171.9 67.7 171.9 67.2 172.2 67.3 L173.75 67.75 Q174.95 68.1 180.1 72.25 180.85 72.1 178.6 69.35 176.3 66.6 171.65 65.75 170.9 66.45 170.9 67.7 170.9 70.45 171.6 71.8 L171.9 72.05 M180.1 72.25 Q180.75 72.4 181.4 72.7 L184.4 74.6 184.75 74.95 185.45 78.9 184.45 80.05 182.85 79.75 182.05 79.35 Q179.45 78.15 172.75 77.05 M172.7 77.0 Q173.6 75.4 175.35 73.75 177.0 72.3 180.1 72.25 M187.45 94.05 L187.55 94.05 188.1 93.95 188.25 93.95 188.25 93.9 188.1 93.55 187.5 91.7 Q186.7 89.0 186.7 86.6 186.7 85.15 187.35 82.95 L187.45 82.6 187.95 81.25 188.2 79.95 M193.55 82.3 L193.55 82.05 M218.4 85.8 L218.35 85.2 218.2 83.15 218.2 82.1 Q218.2 77.35 221.2 71.4 L222.35 68.95 225.45 68.9 M167.75 77.3 L167.7 77.35 Q167.3 78.8 167.15 80.75 L167.05 82.85 167.05 82.9 167.15 83.2 Q168.0 85.6 171.55 88.0 L175.35 90.65 Q175.65 91.4 175.65 95.75 L175.75 97.55 175.75 97.75 175.45 98.4 175.75 97.55 M176.2 90.2 L171.85 82.15 168.3 75.7 M165.55 79.5 L162.3 77.05 166.7 77.05 167.65 77.25 M165.0 80.35 Q165.9 80.35 166.7 80.75 L166.7 80.35 165.55 79.5 M161.8 94.8 Q163.8 93.8 165.6 93.2 168.1 93.2 171.65 98.3 L173.8 101.75 175.45 98.4 M176.2 90.2 L177.5 92.55 177.55 92.75 Q177.75 94.25 176.2 102.5 176.5 101.1 177.85 99.8 L178.9 99.0 179.2 98.75 179.2 99.4 Q173.9 113.55 173.3 115.6 L173.45 115.65 Q173.9 114.3 178.1 108.5 L178.1 108.55 177.7 111.8 176.1 121.2 176.05 121.45 176.95 118.7 177.1 118.45 177.15 118.25 179.15 113.95 179.55 113.1 179.25 116.9 179.2 117.15 179.2 117.2 179.35 117.2 182.75 110.6 Q184.35 107.8 185.85 106.0 187.45 103.95 188.95 103.1 L189.5 104.45 Q190.0 105.6 189.95 106.65 L189.85 108.35 189.8 110.45 189.95 110.45 190.9 108.7 191.65 104.35 191.65 106.5 191.75 107.25 191.65 108.25 191.6 108.95 191.4 110.55 191.55 111.6 M182.9 97.85 L182.95 97.8 M195.45 109.75 L194.3 120.5 194.0 123.4 195.85 120.7 198.25 116.6 197.5 120.95 196.7 126.1 Q198.85 124.4 201.1 121.5 L202.25 119.95 Q206.05 114.5 206.4 110.1 L206.4 110.25 206.9 116.6 208.5 113.05 210.85 107.35 211.25 106.4 Q214.15 98.95 214.15 95.6 L213.9 92.85 Q215.25 94.35 215.4 95.7 L215.7 98.15 217.95 92.5 Q218.65 90.8 218.65 89.15 L218.4 85.8 M187.45 94.05 Q183.35 94.1 179.5 91.4 L180.35 93.0 M199.55 78.2 L199.5 78.2 199.3 78.25 M199.5 78.15 L196.1 78.95 Q200.65 68.5 207.45 69.95 209.95 68.75 214.4 76.25 M214.3 76.9 L204.45 77.45 199.75 78.1 199.65 78.15 199.5 78.15 M195.6 87.05 Q198.1 89.8 198.1 90.75 198.1 91.7 197.45 92.2 L195.25 93.65 194.1 95.25 199.05 95.8 Q202.5 95.8 204.4 95.05 210.8 92.65 211.55 91.3 L210.6 90.05 M192.2 87.6 L193.05 86.3 193.25 86.05 193.55 85.65 193.7 85.3 M188.3 94.0 L188.25 93.95 M187.55 94.05 L188.1 94.0 M195.45 87.3 L195.45 86.9 195.6 87.05 M225.45 87.45 L224.0 84.55 223.9 84.3 223.75 83.95 Q221.95 78.3 221.95 77.2 221.95 76.75 223.3 74.65 223.45 74.4 223.75 74.3 L224.4 73.85 224.65 73.65 228.5 70.8 Q231.85 67.65 239.85 69.45 240.0 67.4 237.0 63.85 M228.5 70.8 L235.5 74.05 235.5 75.55 232.25 80.05 229.0 84.55 Q226.7 86.8 225.45 87.45 L228.75 94.2 232.55 101.65 234.8 99.8 Q238.2 97.2 240.45 96.15 L240.45 95.4 240.3 95.45 Q235.1 96.45 233.05 97.4 L232.0 98.0 231.65 98.0 232.85 97.4 241.6 92.45 241.95 91.7 241.55 91.75 M212.7 93.8 L211.55 91.3 M197.85 84.8 Q200.2 84.8 204.65 86.55 208.85 88.2 209.95 89.3 M224.75 81.45 Q227.55 76.25 229.9 75.55 L232.45 74.75 233.8 74.75 M234.9 106.75 L234.9 106.95 234.85 106.85 Q234.15 106.15 231.45 105.4 L231.25 105.35 227.45 104.3 226.9 104.1 227.15 104.5 Q230.3 110.15 232.5 116.95 L232.65 117.5 Q234.55 123.7 234.35 126.95 232.9 126.1 230.8 123.25 L230.4 122.7 M231.3 105.5 L232.95 108.3 235.3 111.9 235.85 113.65 238.75 123.75 240.8 131.55 241.15 133.15 242.65 131.05 243.65 129.65 Q244.0 129.15 245.9 128.35 248.35 127.25 253.35 125.65 L255.25 120.75 M234.9 106.75 L232.55 101.65 M231.25 105.35 L231.3 105.5 M230.15 122.35 L228.35 120.0 228.2 120.0 228.25 120.05 Q229.75 124.2 230.65 128.35 231.65 133.35 231.75 138.35 L233.15 138.0 Q236.15 137.3 239.75 135.25 L241.15 133.15 M230.15 143.35 L229.55 142.9 225.75 140.0 Q227.55 139.35 231.75 138.35 M230.85 143.8 L230.15 143.35 M239.4 144.45 L234.9 144.95 Q232.85 144.95 230.85 143.8 L230.25 151.65 M238.3 152.35 L239.4 144.45 Q242.3 143.65 244.0 141.75 L244.15 141.55 Q245.65 139.75 246.65 137.2 M195.3 109.75 L195.6 108.65 195.45 109.75 M192.5 109.15 L194.7 104.9 194.7 107.15 194.35 109.55 193.75 114.5 M195.3 109.75 L193.85 114.5 M192.5 109.15 Q191.65 110.9 191.65 111.55 M165.3 115.6 L165.4 115.5 165.55 115.4 168.2 113.45 165.85 115.85 165.8 115.9 163.65 118.15 154.3 127.65 Q155.05 127.75 166.3 119.65 L160.3 129.9 150.95 140.2 145.8 146.0 Q142.45 149.85 140.4 152.6 L140.9 153.6 145.75 163.2 151.2 168.65 Q151.95 169.65 152.7 173.9 L152.8 174.15 154.15 177.5 154.95 179.35 156.5 182.7 156.85 183.45 156.95 183.7 158.9 187.85 169.95 211.15 M165.0 115.15 Q169.15 111.1 171.2 107.15 L173.8 101.75 M247.0 155.7 L246.75 152.9 M246.45 150.6 Q245.6 144.35 244.0 141.75 M226.1 172.35 L228.35 163.95 M226.1 172.35 L225.9 172.5 225.9 172.4 Q225.85 169.8 224.3 163.95 M223.75 164.0 L223.85 168.0 Q223.85 168.8 222.1 174.85 L220.2 181.35 Q220.95 193.85 214.85 206.3 212.85 198.9 212.9 197.1 212.4 206.7 211.0 211.15 M235.75 169.5 L235.65 170.0 Q233.6 180.0 227.1 205.05 M278.0 115.9 L279.15 116.8 279.3 116.9 279.65 117.15 279.45 117.15 279.3 116.9 M261.5 108.3 Q262.85 108.3 264.3 107.4 L265.85 106.35 M263.7 121.35 L263.7 121.45 263.9 121.65 263.7 121.35 263.7 121.3 M276.4 114.55 L277.5 115.5 278.0 115.9 M256.15 130.5 L257.15 129.3 Q259.65 126.5 261.55 126.7 L262.3 126.8 264.55 126.95 265.9 127.05 266.55 127.1 267.3 127.25 Q268.4 127.5 269.75 128.35 L271.55 129.65 274.7 132.5 Q276.05 133.85 276.8 135.1 L277.55 136.9 Q277.8 138.0 277.7 139.15 M253.35 125.65 L254.05 125.4 M247.45 136.4 L247.4 136.35 246.55 136.7 243.2 137.6 M247.45 136.4 L252.7 137.8 255.95 138.7 259.15 137.4 260.75 136.6 Q264.65 134.75 267.3 134.8 L267.8 134.8 267.8 134.95 M252.7 137.8 L253.3 140.6 Q254.05 143.7 254.05 145.85 L253.85 149.2 Q253.4 152.35 252.15 154.8 L251.8 155.5 M259.15 137.4 L262.6 137.0 Q264.95 137.0 267.1 137.85 L267.3 137.9 M252.5 127.5 L253.35 125.65 M276.95 129.25 L277.5 129.85 M280.45 132.65 Q279.85 132.95 279.1 133.4 M287.25 147.75 Q287.2 148.75 287.85 151.95 M279.65 138.5 L281.15 140.5 M284.15 148.0 L282.0 145.85 M117.35 103.15 Q116.25 96.5 113.15 96.5 L112.15 96.6 Q110.9 96.65 108.2 98.3 105.5 99.9 105.5 102.85 105.45 105.8 107.2 108.55 L107.3 108.7 Q109.65 112.35 113.3 112.35 L117.9 111.55 117.9 109.35 117.9 108.6 Q116.8 107.25 116.8 106.4 116.8 105.15 117.35 103.15 117.9 101.2 118.95 98.5 L121.55 91.75 Q130.25 95.7 131.35 100.3 L128.1 106.15 Q129.85 106.75 132.15 108.15 136.7 110.9 137.2 113.25 L138.6 119.8 Q139.7 119.35 140.8 119.35 142.45 119.35 143.5 120.0 L144.35 120.8 Q145.2 121.95 145.55 124.3 149.05 124.4 154.65 124.1 L154.85 123.65 155.45 121.9 Q158.8 112.3 159.95 107.4 161.35 101.0 161.8 94.8 159.25 96.05 156.4 98.0 156.4 97.15 158.05 93.55 159.2 90.9 159.8 90.0 L160.1 89.65 159.75 89.95 159.7 89.95 Q159.05 90.65 152.0 94.7 L155.85 89.4 Q157.95 86.35 159.4 85.9 L159.7 85.85 159.45 85.85 159.35 85.85 156.4 85.7 Q153.7 85.75 152.75 86.6 L150.95 86.6 Q152.5 84.6 156.65 82.6 161.3 80.35 165.0 80.35 M122.3 95.8 Q124.0 95.95 125.7 97.8 127.1 99.3 127.5 100.55 M161.9 117.9 L161.5 118.2 161.15 118.2 161.9 117.9 165.0 115.15 M155.45 121.9 L155.25 122.6 155.0 123.25 154.85 123.65 154.7 124.05 154.65 124.1 149.55 136.45 Q147.5 141.45 145.8 146.0 M128.1 106.15 L127.95 106.4 Q124.45 112.4 124.5 113.4 L123.25 113.1 120.1 120.95 Q114.1 135.45 114.1 139.7 114.1 143.45 115.35 146.8 L117.55 151.85 118.0 152.95 123.6 155.3 124.75 155.75 125.05 155.85 124.95 155.1 Q124.95 150.1 129.9 144.1 135.2 137.65 138.45 132.65 134.85 132.0 134.85 129.0 135.9 125.3 135.9 123.15 135.9 122.3 137.6 120.3 L136.6 121.0 M137.6 120.3 L138.6 119.8 M145.55 124.3 L145.8 128.1 Q145.8 131.95 145.05 132.5 L140.85 132.85 138.95 132.75 Q138.8 134.75 137.7 137.1 136.45 139.8 136.45 142.1 136.45 144.75 140.4 152.6 M138.95 132.75 L138.45 132.65 M123.25 113.1 Q121.75 112.5 119.75 110.6 L117.9 108.6 M107.2 108.55 Q104.6 110.7 103.3 112.6 105.15 113.05 107.65 114.55 110.95 116.55 110.95 117.25 110.95 122.45 107.25 122.6 L100.9 121.1 Q100.45 124.05 100.45 125.75 L100.5 127.0 102.5 127.05 Q104.45 127.35 104.9 128.25 L105.0 128.75 Q105.0 131.5 105.45 132.5 L105.45 134.75 101.5 134.75 M100.9 121.1 L97.05 120.4 97.05 118.2 Q97.4 117.2 99.05 114.7 101.45 112.35 101.75 112.35 L103.3 112.6 M95.55 129.95 Q95.8 127.55 97.35 126.9 L100.5 127.0 M118.0 152.95 L115.3 151.7 M136.05 168.25 Q129.25 158.15 128.0 157.25 127.3 156.75 125.05 155.85 M127.95 185.05 Q131.35 177.35 133.6 172.8 L135.1 169.85 136.05 168.25 137.05 169.75 142.45 180.95 Q143.5 182.95 145.4 185.2 150.2 195.7 153.75 202.8 L154.75 204.85 155.15 205.6 156.65 208.5 158.1 211.15 M128.3 208.5 L130.35 204.35 Q133.4 198.35 135.1 196.2 L130.7 201.3 128.3 204.3 Q125.5 207.85 124.95 209.2 L127.4 198.0 128.35 194.5 128.35 194.45 128.5 193.85 128.55 193.8 Q129.65 189.95 130.45 189.5 131.25 185.3 134.2 181.4 L136.9 178.5 137.55 177.7 136.65 178.15 Q135.25 178.95 132.3 181.35 128.9 184.1 128.0 185.15 L127.75 185.45 127.95 185.05 M135.1 196.2 L136.35 195.05 M156.1 181.95 L156.85 183.45 M156.1 181.95 L156.5 182.7 M155.0 179.6 L156.1 181.95 M127.05 211.15 L128.3 208.5 M161.9 117.9 L165.3 115.6" ffdec:has-small-stroke="true" ffdec:original-stroke-width="0.15" fill="none" stroke="#433500" stroke-linecap="round" stroke-linejoin="round" stroke-opacity="0.78039217" stroke-width="0.6940314313551066"/>
      <path d="M198.1 83.55 Q200.45 83.55 204.9 85.3 209.1 86.95 210.2 88.05" fill="none" stroke="#ffffff" stroke-linecap="round" stroke-linejoin="round" stroke-opacity="0.4" stroke-width="1.0"/>
      <path d="M260.55 181.05 L263.0 178.4 Q267.25 173.8 268.7 173.5 M268.9 173.55 Q260.9 200.3 246.8 211.15 M212.1 142.55 L212.75 142.65 213.1 142.75 215.5 143.25 Q218.75 144.5 218.75 147.45 218.75 150.7 218.2 152.95 219.75 152.65 221.3 150.7 223.2 148.25 223.2 145.0 223.2 142.0 221.8 140.5 221.15 139.75 218.5 138.35 L216.2 138.35 Q212.4 139.0 209.45 140.1 L208.65 140.4 Q203.65 142.4 201.05 145.65 L201.0 145.7 Q199.05 148.1 198.4 151.25 L198.25 151.8 Q198.0 153.25 198.0 154.85 198.0 159.15 201.5 161.5 M205.85 144.15 L207.3 143.85 214.3 144.95 214.5 144.95 Q214.4 144.15 213.05 143.2 L212.2 142.7 211.4 142.4 M205.85 144.15 L205.6 144.1 M208.35 155.05 Q203.5 154.6 203.5 151.9 203.5 149.3 204.15 148.35 205.15 146.95 208.8 145.75 208.5 145.25 207.25 144.7 L205.85 144.15 M230.25 151.65 L232.05 151.5 Q235.95 151.5 238.3 152.35 L238.4 152.4 Q239.9 153.0 242.2 156.05 L239.7 151.7 M204.55 163.0 Q206.6 163.7 209.35 164.1 L215.15 164.4 215.45 164.4 217.65 164.35 223.75 164.0 224.3 163.95 226.25 163.75 228.35 163.95 Q232.75 164.8 235.75 169.5 L236.5 170.75 Q239.45 176.25 239.45 182.3 239.45 191.55 231.65 200.5 L227.1 205.05 224.85 206.95 Q221.7 209.45 218.95 211.15 M239.7 151.5 L239.05 151.5 M239.7 151.5 Q242.55 151.7 246.35 155.1 L247.0 155.7 249.25 158.05 249.8 158.75 249.2 157.3 246.75 152.9 244.95 150.0 246.45 150.6 248.65 152.1 Q250.3 153.4 251.8 155.5 L253.7 158.4 254.85 160.65 255.0 160.9 Q257.25 165.5 257.95 168.35 L258.3 170.1 258.3 170.55 258.35 169.95 Q258.55 168.6 259.35 167.3 260.95 164.55 265.1 161.85 L258.1 183.25 M230.25 151.65 Q227.3 152.0 222.0 153.3 L218.15 154.2 217.9 154.25 210.15 155.1 208.35 155.05 M249.8 158.75 L250.0 159.05 250.05 159.15 250.25 159.75 M260.55 181.05 L258.3 183.45 258.1 183.65 258.1 184.7" ffdec:has-small-stroke="true" ffdec:original-stroke-width="0.15" fill="none" stroke="#433500" stroke-linecap="round" stroke-linejoin="round" stroke-opacity="0.4" stroke-width="0.6940314313551066"/>
      <path d="M166.7 77.05 L162.3 77.05 165.55 79.5 165.0 80.35 Q161.3 80.35 156.65 82.6 152.5 84.6 150.95 86.6 L152.75 86.6 Q153.7 85.75 156.4 85.7 L159.35 85.85 159.4 85.9 Q157.95 86.35 155.85 89.4 L152.0 94.7 Q159.05 90.65 159.7 89.95 L159.8 90.0 Q159.2 90.9 158.05 93.55 156.4 97.15 156.4 98.0 159.25 96.05 161.8 94.8 161.35 101.0 159.95 107.4 158.8 112.3 155.45 121.9 L154.85 123.65 154.65 124.1 Q149.05 124.4 145.55 124.3 145.2 121.95 144.35 120.8 L143.5 120.0 Q142.45 119.35 140.8 119.35 139.7 119.35 138.6 119.8 L137.2 113.25 Q136.7 110.9 132.15 108.15 129.85 106.75 128.1 106.15 L131.35 100.3 Q130.25 95.7 121.55 91.75 L118.95 98.5 Q117.9 101.2 117.35 103.15 116.25 96.5 113.15 96.5 L112.15 96.6 Q110.9 96.65 108.2 98.3 105.5 99.9 105.5 102.85 105.45 105.8 107.2 108.55 104.6 110.7 103.3 112.6 L101.75 112.35 Q101.45 112.35 99.05 114.7 97.4 117.2 97.05 118.2 L97.05 120.4 100.9 121.1 Q100.45 124.05 100.45 125.75 L100.5 127.0 97.35 126.9 Q95.8 127.55 95.55 129.95 L87.55 131.2 87.25 131.25 Q33.55 138.1 43.0 120.6 L65.55 99.05 87.25 84.2 87.55 84.05 Q111.0 74.3 138.65 65.95 L140.35 65.45 Q147.15 63.05 166.55 61.2 L163.75 72.35 167.65 77.25 166.7 77.05 M369.75 113.15 Q367.55 125.45 334.95 127.75 L302.8 130.0 300.6 130.0 302.6 128.05 302.7 127.9 Q300.7 126.8 299.6 126.45 L293.35 126.0 292.7 126.0 Q286.0 126.0 279.85 128.35 L276.95 129.25 276.1 128.0 275.75 126.7 275.75 126.6 275.85 126.45 276.1 125.75 278.6 119.1 278.7 118.7 Q279.55 117.95 282.75 116.2 287.6 113.5 288.25 112.85 L292.35 109.1 Q293.0 108.3 293.35 106.95 L293.65 104.25 293.65 103.85 293.35 101.7 293.25 100.55 Q291.0 101.65 285.65 104.9 279.5 108.65 278.15 110.0 274.85 113.3 271.3 118.4 268.7 122.1 268.0 122.1 L263.7 121.35 263.7 121.3 263.55 119.65 263.55 119.35 263.5 118.2 Q263.5 113.95 264.7 111.1 L265.3 109.8 265.7 109.15 Q270.4 102.25 270.6 101.4 274.8 92.3 269.3 90.6 L269.45 90.4 Q266.05 92.15 262.15 98.3 258.5 104.05 258.5 106.05 L258.95 108.4 Q258.95 110.45 256.35 117.75 L255.25 120.75 Q254.25 113.95 254.3 108.65 L254.15 98.9 253.5 90.15 257.0 92.1 257.35 92.1 257.25 91.95 249.0 80.75 Q250.9 81.0 255.05 83.75 258.95 86.35 260.65 88.05 L261.0 88.05 261.0 87.95 Q260.25 85.95 256.15 80.85 L253.35 77.45 253.25 77.35 253.1 77.15 252.25 76.0 256.75 80.0 256.9 80.15 261.35 84.4 261.75 84.4 261.65 84.2 Q255.55 74.85 254.4 73.75 L254.5 73.45 254.7 73.5 Q256.65 74.1 264.65 78.45 L263.0 76.85 262.85 76.65 262.5 76.35 261.1 74.85 260.65 74.35 259.4 72.9 259.15 72.6 259.1 72.55 259.0 72.45 256.85 69.9 256.6 69.65 256.25 69.5 Q255.35 67.35 237.0 63.85 L245.0 62.35 245.1 62.4 245.25 62.35 245.35 62.25 248.85 62.7 Q251.95 63.75 261.8 66.0 273.1 68.55 301.8 80.3 L331.95 92.55 Q342.7 96.9 369.75 113.15" fill="url(#gradient15)" fill-rule="evenodd" stroke="none"/>
    </g>
    <linearGradient gradientTransform="matrix(-0.0114, -0.0424, 0.0321, -0.0086, 297.9, 106.2)" gradientUnits="userSpaceOnUse" id="gradient0" spreadMethod="pad" x1="-819.2" x2="819.2">
      <stop offset="0.0" stop-color="#b99966"/>
      <stop offset="1.0" stop-color="#634d2e"/>
    </linearGradient>
    <linearGradient gradientTransform="matrix(-0.008, 0.0022, -0.0037, -0.0139, 251.2, 21.65)" gradientUnits="userSpaceOnUse" id="gradient1" spreadMethod="pad" x1="-819.2" x2="819.2">
      <stop offset="0.0" stop-color="#b99966"/>
      <stop offset="1.0" stop-color="#634d2e"/>
    </linearGradient>
    <linearGradient gradientTransform="matrix(-0.0114, 0.0031, -0.0041, -0.0154, 227.3, 5.25)" gradientUnits="userSpaceOnUse" id="gradient2" spreadMethod="pad" x1="-819.2" x2="819.2">
      <stop offset="0.0" stop-color="#b99966"/>
      <stop offset="1.0" stop-color="#634d2e"/>
    </linearGradient>
    <linearGradient gradientTransform="matrix(-0.011, 0.011, -0.0158, -0.0158, 199.9, 4.1)" gradientUnits="userSpaceOnUse" id="gradient3" spreadMethod="pad" x1="-819.2" x2="819.2">
      <stop offset="0.0" stop-color="#b99966"/>
      <stop offset="1.0" stop-color="#634d2e"/>
    </linearGradient>
    <linearGradient gradientTransform="matrix(-0.0166, 0.0166, -0.0148, -0.0148, 190.85, 37.55)" gradientUnits="userSpaceOnUse" id="gradient4" spreadMethod="pad" x1="-819.2" x2="819.2">
      <stop offset="0.0" stop-color="#b99966"/>
      <stop offset="1.0" stop-color="#634d2e"/>
    </linearGradient>
    <linearGradient gradientTransform="matrix(9.0E-4, -0.0152, 0.0268, 0.0015, 234.8, 71.45)" gradientUnits="userSpaceOnUse" id="gradient5" spreadMethod="pad" x1="-819.2" x2="819.2">
      <stop offset="0.0" stop-color="#ba707e"/>
      <stop offset="1.0" stop-color="#84404e"/>
    </linearGradient>
    <linearGradient gradientTransform="matrix(-0.006, 0.017, -0.0434, -0.0154, 271.35, 138.7)" gradientUnits="userSpaceOnUse" id="gradient6" spreadMethod="pad" x1="-819.2" x2="819.2">
      <stop offset="0.0" stop-color="#f5d5a4"/>
      <stop offset="1.0" stop-color="#cf9963"/>
    </linearGradient>
    <linearGradient gradientTransform="matrix(-9.0E-4, -0.0085, 0.03, -0.003, 193.15, 66.9)" gradientUnits="userSpaceOnUse" id="gradient7" spreadMethod="pad" x1="-819.2" x2="819.2">
      <stop offset="0.0" stop-color="#b18456"/>
      <stop offset="1.0" stop-color="#745536"/>
    </linearGradient>
    <linearGradient gradientTransform="matrix(-0.0044, 0.0167, -0.0278, -0.0074, 192.5, 102.7)" gradientUnits="userSpaceOnUse" id="gradient8" spreadMethod="pad" x1="-819.2" x2="819.2">
      <stop offset="0.0" stop-color="#f5d5a4"/>
      <stop offset="1.0" stop-color="#cf9963"/>
    </linearGradient>
    <linearGradient gradientTransform="matrix(-0.0011, -0.0064, 0.0143, -0.0025, 164.8, 84.25)" gradientUnits="userSpaceOnUse" id="gradient9" spreadMethod="pad" x1="-819.2" x2="819.2">
      <stop offset="0.0" stop-color="#ba707e"/>
      <stop offset="1.0" stop-color="#84404e"/>
    </linearGradient>
    <linearGradient gradientTransform="matrix(-0.0262, 0.0054, -0.004, -0.0198, 160.6, 143.2)" gradientUnits="userSpaceOnUse" id="gradient10" spreadMethod="pad" x1="-819.2" x2="819.2">
      <stop offset="0.0" stop-color="#ddd5c4"/>
      <stop offset="1.0" stop-color="#c0ae94"/>
    </linearGradient>
    <linearGradient gradientTransform="matrix(-0.0072, 0.0156, -0.026, -0.0121, 194.65, 97.3)" gradientUnits="userSpaceOnUse" id="gradient11" spreadMethod="pad" x1="-819.2" x2="819.2">
      <stop offset="0.0" stop-color="#f5d5a4"/>
      <stop offset="1.0" stop-color="#cf9963"/>
    </linearGradient>
    <linearGradient gradientTransform="matrix(-0.0027, -0.0259, 0.0377, -0.004, 222.55, 188.65)" gradientUnits="userSpaceOnUse" id="gradient12" spreadMethod="pad" x1="-819.2" x2="819.2">
      <stop offset="0.0" stop-color="#ddd5c4"/>
      <stop offset="1.0" stop-color="#c0ae94"/>
    </linearGradient>
    <linearGradient gradientTransform="matrix(0.0, 0.0178, -0.0096, 0.0, 247.45, 124.9)" gradientUnits="userSpaceOnUse" id="gradient13" spreadMethod="pad" x1="-819.2" x2="819.2">
      <stop offset="0.0" stop-color="#f5d5a4"/>
      <stop offset="1.0" stop-color="#cf9963"/>
    </linearGradient>
    <linearGradient gradientTransform="matrix(0.0044, -0.0165, 0.0084, 0.0023, 258.95, 154.45)" gradientUnits="userSpaceOnUse" id="gradient14" spreadMethod="pad" x1="-819.2" x2="819.2">
      <stop offset="0.0" stop-color="#f5d5a4"/>
      <stop offset="1.0" stop-color="#cf9963"/>
    </linearGradient>
    <radialGradient cx="0" cy="0" gradientTransform="matrix(0.1626, 0.0, 0.0, 0.0875, 210.5, 102.9)" gradientUnits="userSpaceOnUse" id="gradient15" r="819.2" spreadMethod="pad">
      <stop offset="0.1803921568627451" stop-color="#000000" stop-opacity="0.6666667"/>
      <stop offset="1.0" stop-color="#000000" stop-opacity="0.0"/>
    </radialGradient>
  </defs>
</svg>
