<?xml version="1.0" encoding="UTF-8" standalone="no"?>
<svg xmlns:ffdec="https://www.free-decompiler.com/flash" xmlns:xlink="http://www.w3.org/1999/xlink" ffdec:objectType="shape" height="290.4px" width="365.1px" xmlns="http://www.w3.org/2000/svg">
  <g transform="matrix(3.0, 0.0, 0.0, 3.0, 182.55, 145.2)">
    <path d="M13.9 -46.8 L14.75 -47.55 Q17.25 -43.65 18.0 -39.35 L20.5 -42.05 18.9 -37.9 19.15 -37.15 Q22.7 -36.5 27.0 -33.2 28.9 -25.75 28.55 -17.7 35.2 -13.05 38.1 -7.4 L38.1 -7.05 38.3 -6.15 38.5 -3.1 34.0 -7.4 Q36.85 -4.35 38.35 -0.95 L38.15 1.0 38.1 0.9 38.05 1.2 Q35.6 -3.55 31.4 -7.1 32.3 -5.8 33.0 -2.5 34.25 5.1 44.15 4.3 54.85 2.1 60.0 9.75 52.4 4.4 39.7 7.55 L33.95 8.65 32.7 8.75 29.75 8.7 Q24.55 8.3 21.65 5.45 22.35 8.25 24.35 11.15 26.0 13.55 28.5 15.9 16.15 9.15 14.65 -2.75 L13.75 -1.7 13.55 -1.45 13.2 -1.5 Q13.0 2.8 13.7 7.0 11.85 2.6 11.5 -1.95 L10.65 -2.3 9.85 -2.7 7.0 -4.35 5.8 -2.5 7.25 3.8 Q12.7 6.75 16.25 10.15 L15.75 12.8 Q18.9 15.35 20.5 19.6 L18.9 23.85 19.15 24.9 19.5 24.8 Q20.0 24.8 20.35 25.4 L20.65 26.05 20.75 26.3 21.0 27.15 21.15 27.55 21.4 29.25 21.2 30.75 21.15 30.95 21.0 31.3 20.65 32.45 Q20.35 33.4 19.9 33.65 L19.6 33.8 19.5 33.8 19.0 33.65 19.05 36.25 18.0 37.35 19.7 42.9 Q20.9 47.4 20.65 47.45 L14.7 47.45 14.3 47.55 -34.65 47.55 -35.1 46.65 Q-36.2 44.25 -36.2 42.6 L-36.85 39.75 -46.8 43.85 -50.7 46.65 -52.75 47.55 -58.9 47.55 -60.0 47.1 -59.3 46.65 -56.35 44.5 Q-49.25 38.75 -48.05 31.3 -47.25 26.15 -45.85 19.9 -50.75 15.7 -50.15 14.3 L-50.25 14.3 Q-49.8 12.95 -48.85 11.6 -47.9 10.1 -45.4 7.55 L-44.65 6.95 Q-45.3 7.4 -45.7 7.15 L-46.15 6.45 -46.2 6.4 Q-46.95 5.15 -46.6 4.6 L-45.95 3.55 -45.7 3.35 -45.5 3.15 -44.75 2.35 -43.85 1.65 -41.6 0.1 -39.35 -1.1 -38.55 -5.0 Q-37.05 -10.1 -33.9 -12.95 L-33.85 -12.95 -30.6 -13.15 -22.55 -12.25 Q-20.7 -15.85 -18.35 -18.95 -19.0 -21.3 -18.4 -23.7 L-19.3 -22.95 -20.65 -21.75 -23.0 -19.25 -21.0 -22.35 -18.65 -25.6 Q-18.8 -29.8 -17.65 -33.15 -9.5 -40.0 -3.1 -42.95 L-0.7 -45.2 Q3.9 -45.75 8.1 -43.75 L9.0 -43.65 11.15 -43.3 11.5 -43.2 12.1 -43.05 14.4 -41.95 15.95 -40.0 15.95 -40.2 15.8 -40.95 Q15.1 -44.05 13.9 -46.8 M-12.45 16.85 L-12.45 16.7 -12.5 16.8 -12.45 16.85" fill="#d5a855" fill-rule="evenodd" stroke="none"/>
    <path d="M13.9 -46.8 Q15.1 -44.05 15.8 -40.95 L15.95 -40.2 15.95 -40.0 14.4 -41.95 12.1 -43.05 11.5 -43.2 11.15 -43.3 9.0 -43.65 8.1 -43.75 Q3.9 -45.75 -0.7 -45.2 L-3.1 -42.95 Q-9.5 -40.0 -17.65 -33.15 -18.8 -29.8 -18.65 -25.6 L-21.0 -22.35 -23.0 -19.25 -20.65 -21.75 -19.3 -22.95 -18.4 -23.7 Q-19.0 -21.3 -18.35 -18.95 -20.7 -15.85 -22.55 -12.25 L-30.6 -13.15 -33.85 -12.95 -33.9 -12.95 Q-37.05 -10.1 -38.55 -5.0 L-39.35 -1.1 -41.6 0.1 -43.85 1.65 -44.75 2.35 -45.5 3.15 -45.7 3.35 -45.95 3.55 -46.6 4.6 Q-46.95 5.15 -46.2 6.4 L-46.15 6.45 -45.7 7.15 Q-45.3 7.4 -44.65 6.95 L-45.4 7.55 Q-47.9 10.1 -48.85 11.6 -49.8 12.95 -50.25 14.3 L-50.15 14.3 Q-50.75 15.7 -45.85 19.9 -47.25 26.15 -48.05 31.3 -49.25 38.75 -56.35 44.5 L-59.3 46.65 -60.0 47.1 -58.9 47.55 -52.75 47.55 -50.7 46.65 -46.8 43.85 -36.85 39.75 -36.2 42.6 Q-36.2 44.25 -35.1 46.65 L-34.65 47.55 14.3 47.55 14.7 47.45 20.65 47.45 Q20.9 47.4 19.7 42.9 L18.0 37.35 19.05 36.25 19.0 33.65 19.5 33.8 19.6 33.8 19.9 33.65 Q20.35 33.4 20.65 32.45 L21.0 31.3 21.15 30.95 21.2 30.75 21.4 29.25 21.15 27.55 21.0 27.15 20.75 26.3 20.65 26.05 20.35 25.4 Q20.0 24.8 19.5 24.8 L19.15 24.9 18.9 23.85 20.5 19.6 Q18.9 15.35 15.75 12.8 L16.25 10.15 Q12.7 6.75 7.25 3.8 L5.8 -2.5 7.0 -4.35 9.85 -2.7 10.65 -2.3 11.5 -1.95 Q11.85 2.6 13.7 7.0 13.0 2.8 13.2 -1.5 L13.55 -1.45 13.75 -1.7 14.65 -2.75 Q16.15 9.15 28.5 15.9 26.0 13.55 24.35 11.15 22.35 8.25 21.65 5.45 24.55 8.3 29.75 8.7 L32.7 8.75 33.95 8.65 39.7 7.55 Q52.4 4.4 60.0 9.75 54.85 2.1 44.15 4.3 34.25 5.1 33.0 -2.5 32.3 -5.8 31.4 -7.1 35.6 -3.55 38.05 1.2 L38.1 0.9 38.15 1.0 38.35 -0.95 Q36.85 -4.35 34.0 -7.4 L38.5 -3.1 38.3 -6.15 38.1 -7.05 38.1 -7.4 Q35.2 -13.05 28.55 -17.7 28.9 -25.75 27.0 -33.2 22.7 -36.5 19.15 -37.15 L18.9 -37.9 20.5 -42.05 18.0 -39.35 Q17.25 -43.65 14.75 -47.55 L13.9 -46.8 Z" fill="none" stroke="#000000" stroke-linecap="round" stroke-linejoin="round" stroke-width="1.75"/>
    <path d="M20.45 -26.9 L20.6 -27.4 20.05 -28.05 20.0 -29.3 19.65 -31.15 Q24.3 -28.85 25.75 -20.25 23.15 -26.3 20.4 -26.6 L20.45 -26.9 M29.75 8.7 Q24.55 8.3 21.65 5.45 L20.7 4.3 Q19.95 3.3 19.5 2.1 L19.2 1.25 Q17.55 -2.8 17.65 -7.4 L17.75 -7.6 18.15 -8.55 18.25 -8.8 Q18.65 -3.3 21.55 1.4 L23.9 4.45 21.5 -1.6 21.25 -7.5 Q25.05 7.2 29.75 8.7 M24.35 11.15 Q26.0 13.55 28.5 15.9 16.15 9.15 14.65 -2.75 L16.0 -4.55 Q16.2 1.8 24.35 11.15 M13.2 -1.5 Q13.0 2.8 13.7 7.0 11.85 2.6 11.5 -1.95 L13.2 -1.5" fill="#545151" fill-rule="evenodd" stroke="none"/>
    <path d="M19.65 -31.15 L20.0 -29.3 20.05 -28.05 20.6 -27.4 20.45 -26.9 20.4 -26.6 20.2 -25.9 19.55 -25.75 20.2 -25.9 20.35 -23.2 20.35 -22.95 20.05 -22.35 18.95 -21.9 20.05 -22.35 20.6 -21.1 20.35 -21.0 18.95 -21.9 Q19.4 -23.65 18.65 -24.8 L19.55 -25.75 19.85 -26.8 19.25 -27.7 17.95 -27.2 17.5 -32.75 17.6 -32.85 17.4 -32.85 17.6 -32.9 18.5 -33.35 18.7 -33.15 19.5 -31.75 19.65 -31.15 M20.05 -28.05 L19.25 -27.7 20.05 -28.05" fill="#cbc4b4" fill-rule="evenodd" stroke="none"/>
    <path d="M20.4 -26.6 Q23.15 -26.3 25.75 -20.25 24.3 -28.85 19.65 -31.15 L19.5 -31.75 19.45 -33.3 Q19.65 -34.4 19.5 -35.6 23.85 -34.0 26.4 -30.5 23.6 -33.3 21.2 -33.5 26.35 -29.85 27.65 -26.35 L25.05 -28.45 26.25 -26.05 27.15 -23.15 27.15 -16.45 Q32.7 -12.85 38.3 -6.15 L38.5 -3.1 34.0 -7.4 Q36.85 -4.35 38.35 -0.95 L38.15 1.0 38.1 0.9 Q35.2 -5.35 29.0 -9.0 30.9 -4.85 32.5 1.5 36.05 7.35 41.8 6.15 47.55 4.8 50.65 4.75 53.75 4.6 60.0 9.75 52.4 4.4 39.7 7.55 L33.95 8.65 32.7 8.75 29.75 8.7 Q25.05 7.2 21.25 -7.5 L21.5 -1.6 23.9 4.45 21.55 1.4 Q18.65 -3.3 18.25 -8.8 L18.6 -9.7 18.75 -10.3 19.0 -11.35 19.15 -11.8 19.35 -12.95 19.4 -13.05 19.9 -13.1 20.0 -13.1 21.4 -13.55 22.65 -14.85 22.75 -15.1 21.7 -16.7 20.5 -20.0 20.05 -20.85 20.05 -20.9 20.35 -21.0 20.6 -21.1 20.05 -22.35 20.35 -22.95 20.35 -23.2 20.2 -25.9 20.4 -26.6 M21.65 5.45 Q22.35 8.25 24.35 11.15 16.2 1.8 16.0 -4.55 L17.65 -7.4 Q17.55 -2.8 19.2 1.25 L19.5 2.1 Q19.95 3.3 20.7 4.3 L21.65 5.45 M32.9 -8.55 L33.6 -7.8 34.0 -7.4 33.6 -7.8 32.9 -8.55" fill="#474545" fill-rule="evenodd" stroke="none"/>
    <path d="M38.3 -6.15 Q32.7 -12.85 27.15 -16.45 L27.15 -23.15 26.25 -26.05 25.05 -28.45 27.65 -26.35 Q26.35 -29.85 21.2 -33.5 23.6 -33.3 26.4 -30.5 23.85 -34.0 19.5 -35.6 L19.4 -35.95 19.15 -37.15 Q22.7 -36.5 27.0 -33.2 28.9 -25.75 28.55 -17.7 35.2 -13.05 38.1 -7.4 L38.1 -7.05 38.3 -6.15 M38.1 0.9 L38.05 1.2 Q35.6 -3.55 31.4 -7.1 32.3 -5.8 33.0 -2.5 34.25 5.1 44.15 4.3 54.85 2.1 60.0 9.75 53.75 4.6 50.65 4.75 47.55 4.8 41.8 6.15 36.05 7.35 32.5 1.5 30.9 -4.85 29.0 -9.0 35.2 -5.35 38.1 0.9 M18.9 23.85 L19.15 24.9 19.5 24.8 Q20.0 24.8 20.35 25.4 L20.65 26.05 20.75 26.3 21.0 27.15 21.15 27.55 21.4 29.25 21.2 30.75 21.15 30.95 21.0 31.3 20.65 32.45 Q20.35 33.4 19.9 33.65 L19.7 33.15 Q20.55 32.65 20.1 31.3 L20.4 31.6 20.6 31.6 Q21.2 29.5 20.5 27.45 L20.7 26.9 20.5 26.9 20.15 27.0 Q20.2 25.2 18.85 25.2 L18.75 25.3 18.75 25.25 18.3 26.05 18.25 26.2 Q16.45 15.6 10.65 8.1 14.1 10.5 15.75 12.85 L16.1 13.5 Q18.55 18.5 18.9 23.85 M21.0 27.15 L20.7 26.9 21.0 27.15 M21.0 31.3 L20.6 31.6 21.0 31.3" fill="#ccc8c4" fill-rule="evenodd" stroke="none"/>
    <path d="M18.5 -33.35 L17.6 -32.9 Q17.35 -36.1 16.15 -39.2 L15.95 -40.0 15.95 -40.2 15.8 -40.95 Q15.1 -44.05 13.9 -46.8 L14.25 -47.15 Q18.3 -39.95 18.7 -33.35 L18.5 -33.35 M17.4 -32.85 L17.6 -32.85 17.5 -32.75 17.4 -32.85 M4.05 -21.65 L4.1 -21.65 4.15 -20.8 4.1 -20.8 4.05 -21.35 4.05 -21.65" fill="#737070" fill-rule="evenodd" stroke="none"/>
    <path d="M19.5 -31.75 L18.7 -33.15 18.5 -33.35 18.7 -33.35 Q18.3 -39.95 14.25 -47.15 L14.75 -47.55 Q17.25 -43.65 18.0 -39.35 L20.5 -42.05 18.9 -37.9 19.15 -37.15 19.4 -35.95 19.5 -35.6 Q19.65 -34.4 19.45 -33.3 L19.5 -31.75" fill="#a3a0a0" fill-rule="evenodd" stroke="none"/>
    <path d="M12.1 -43.05 L12.75 -41.9 Q13.2 -38.5 6.25 -34.05 13.85 -37.2 14.15 -38.2 L14.55 -35.95 13.65 -31.0 8.55 -16.6 8.7 -16.6 8.5 -16.05 8.15 -15.35 8.35 -16.2 8.4 -16.8 8.5 -17.2 8.6 -17.85 8.7 -18.25 8.75 -18.6 8.8 -18.75 9.15 -21.25 9.35 -22.85 9.65 -27.55 9.75 -29.85 9.1 -27.1 7.5 -21.8 6.9 -20.05 6.1 -17.7 5.75 -16.85 5.75 -16.7 5.6 -16.35 4.35 -13.15 4.1 -12.6 3.75 -12.5 3.65 -12.5 4.0 -15.9 4.1 -20.8 4.15 -20.8 4.45 -15.45 4.6 -16.05 Q6.1 -23.7 5.75 -29.45 L4.1 -21.65 4.05 -21.65 Q3.75 -26.1 2.1 -28.85 L2.25 -27.1 Q1.1 -22.1 -3.8 -16.25 L-3.35 -14.3 -3.1 -13.45 -3.0 -12.85 -2.9 -12.35 -2.85 -12.25 -1.55 -7.65 -0.75 -5.35 -0.35 -3.55 Q-0.1 -2.05 0.0 -0.3 L0.05 1.1 -0.75 0.6 Q-4.05 -11.55 -7.65 -18.6 L-9.15 -14.2 -9.2 -14.15 Q-12.2 -15.2 -14.0 -14.75 L-5.9 -23.0 2.5 -31.6 1.25 -30.8 -8.35 -23.7 2.0 -33.3 Q-8.65 -26.7 -22.9 -10.6 L-23.4 -10.6 -23.3 -10.85 -22.55 -12.25 Q-20.7 -15.85 -18.35 -18.95 L-16.6 -21.3 -14.5 -23.65 Q-11.0 -27.3 -6.75 -30.25 L6.95 -39.1 Q-1.5 -36.55 -10.3 -28.85 L-7.9 -31.5 -2.2 -36.65 Q-12.55 -29.8 -18.55 -23.7 L-19.3 -22.95 -20.65 -21.75 -23.0 -19.25 -21.0 -22.35 -18.65 -25.6 Q-13.6 -31.35 -7.25 -37.05 L-4.6 -38.8 Q2.25 -42.6 11.15 -43.3 L11.5 -43.2 12.1 -43.05 M3.9 -32.15 L2.5 -31.6 3.9 -32.15 M9.75 -31.75 L9.75 -29.85 9.75 -31.75 M-0.7 -39.3 Q-6.4 -37.15 -10.85 -32.85 L-0.7 -39.3 M-3.8 -16.25 Q-4.95 -20.8 -5.9 -23.0 -4.95 -20.8 -3.8 -16.25" fill="#666262" fill-rule="evenodd" stroke="none"/>
    <path d="M17.6 -32.9 L17.4 -32.85 17.5 -32.75 14.75 -31.1 16.25 -35.0 Q16.35 -37.25 15.15 -39.1 L14.55 -39.95 15.15 -39.1 14.55 -35.95 14.15 -38.2 Q13.85 -37.2 6.25 -34.05 13.2 -38.5 12.75 -41.9 L12.1 -43.05 14.4 -41.95 15.95 -40.0 16.15 -39.2 Q17.35 -36.1 17.6 -32.9 M-7.25 -37.05 Q-13.6 -31.35 -18.65 -25.6 -18.8 -29.8 -17.65 -33.15 -9.5 -40.0 -3.1 -42.95 -5.85 -40.1 -7.25 -37.05 M-18.55 -23.7 Q-12.55 -29.8 -2.2 -36.65 L-7.9 -31.5 -10.3 -28.85 Q-1.5 -36.55 6.95 -39.1 L-6.75 -30.25 Q-11.0 -27.3 -14.5 -23.65 L-16.6 -21.3 -18.35 -18.95 Q-19.0 -21.3 -18.4 -23.7 L-18.55 -23.7 M-22.9 -10.6 Q-8.65 -26.7 2.0 -33.3 L-8.35 -23.7 1.25 -30.8 2.5 -31.6 -5.9 -23.0 -14.0 -14.75 Q-12.2 -15.2 -9.2 -14.15 L-9.15 -14.2 -7.65 -18.6 Q-4.05 -11.55 -0.75 0.6 L-1.0 0.4 -1.65 -1.5 Q-2.95 -5.15 -5.05 -9.45 L-9.75 -12.55 -12.65 -13.95 -14.7 -14.05 Q-17.65 -14.0 -20.15 -13.1 L-21.25 -11.95 -22.45 -10.6 -22.9 -10.6 M-3.8 -16.25 Q1.1 -22.1 2.25 -27.1 L2.1 -28.85 Q3.75 -26.1 4.05 -21.65 L4.05 -21.35 4.1 -20.8 4.0 -15.9 3.65 -12.5 2.4 -12.1 2.6 -13.9 2.65 -15.35 2.65 -15.5 2.7 -16.05 2.7 -17.4 2.7 -18.6 2.7 -21.5 Q-0.7 -18.1 -3.35 -14.3 L-3.8 -16.25 M4.1 -21.65 L5.75 -29.45 Q6.1 -23.7 4.6 -16.05 L4.45 -15.45 4.15 -20.8 4.1 -21.65 M2.4 -24.95 L2.7 -21.5 2.4 -24.95 M-4.6 -38.8 L-4.8 -39.0 -0.45 -43.2 Q0.3 -42.0 5.5 -43.2 L-0.7 -41.35 -4.6 -38.8 M-0.7 -39.3 L-10.85 -32.85 Q-6.4 -37.15 -0.7 -39.3 M-8.35 -23.7 L-8.95 -23.2 -8.35 -23.7 M-8.0 -14.65 L-6.6 -12.45 -5.05 -9.45 -6.6 -12.45 -8.0 -14.65 M-9.5 -22.8 Q-14.2 -19.0 -17.95 -15.25 L-20.15 -13.1 -17.95 -15.25 Q-14.2 -19.0 -9.5 -22.8 M-7.9 -31.5 Q-11.85 -29.15 -18.4 -23.7 -11.85 -29.15 -7.9 -31.5" fill="#524f4f" fill-rule="evenodd" stroke="none"/>
    <path d="M11.15 -43.3 Q2.25 -42.6 -4.6 -38.8 L-7.25 -37.05 Q-5.85 -40.1 -3.1 -42.95 L-0.7 -45.2 Q3.9 -45.75 8.1 -43.75 L9.0 -43.65 11.15 -43.3 M-0.7 -41.35 L5.5 -43.2 Q0.3 -42.0 -0.45 -43.2 L-4.8 -39.0 -4.6 -38.8 -0.7 -41.35" fill="#5e5b5b" fill-rule="evenodd" stroke="none"/>
    <path d="M9.1 -27.1 L9.75 -29.85 9.65 -27.55 9.1 -27.1" fill="#807d7d" fill-rule="evenodd" stroke="none"/>
    <path d="M17.5 -32.75 L17.95 -27.2 19.25 -27.7 19.15 -27.65 Q15.35 -26.05 12.05 -24.35 L13.25 -27.3 13.35 -27.55 14.75 -31.1 17.5 -32.75 M5.75 -16.85 L6.1 -17.7 8.8 -18.75 8.75 -18.6 8.7 -18.25 8.6 -17.85 7.75 -17.5 6.75 -17.15 5.8 -16.75 5.75 -16.85 M7.5 -21.8 L9.1 -27.1 9.65 -27.55 9.35 -22.85 7.5 -21.8 M-14.5 47.55 L-20.65 47.55 -24.5 45.55 Q-27.6 43.55 -30.05 40.6 L-14.2 35.4 -30.05 40.6 Q-31.8 38.55 -33.15 36.05 L-33.45 35.5 Q-29.3 26.25 -19.4 26.85 -29.3 26.25 -33.45 35.5 L-35.6 30.8 Q-28.45 24.35 -19.4 26.85 L-18.65 27.1 -18.1 27.25 Q-17.5 27.5 -16.6 29.4 L-16.25 30.15 -15.8 31.2 Q-29.3 32.1 -33.15 36.05 -29.3 32.1 -15.8 31.2 L-14.2 35.4 -14.05 35.75 -13.55 37.15 -13.55 37.2 -20.3 42.1 Q-22.7 43.85 -24.5 45.55 -22.7 43.85 -20.3 42.1 L-13.55 37.2 -13.35 37.85 -12.95 39.05 -13.85 46.15 -14.05 46.65 -14.5 47.55 M20.05 -20.9 L19.15 -20.7 17.1 -20.3 16.4 -20.1 11.55 -18.75 10.5 -18.45 9.35 -18.1 9.8 -19.1 Q14.2 -21.05 18.95 -21.9 L20.35 -21.0 20.05 -20.9 M-3.35 -14.3 Q-0.7 -18.1 2.7 -21.5 L2.7 -18.6 Q-0.55 -16.15 -3.1 -13.45 L-3.35 -14.3 M2.7 -16.05 L2.65 -15.5 2.65 -15.35 0.8 -14.45 0.75 -14.4 -0.3 -13.85 -1.5 -13.15 -2.9 -12.35 -3.0 -12.85 -2.5 -13.35 2.7 -16.05 M15.9 -8.7 Q14.45 -9.8 12.4 -10.55 L12.9 -10.85 Q14.3 -10.65 15.9 -8.7 M6.0 21.7 L5.25 23.1 4.05 24.75 3.5 25.4 1.9 27.05 1.0 27.9 -0.35 28.95 -0.75 29.2 Q-4.25 31.35 -7.95 34.4 L-8.1 34.55 -9.5 35.7 -12.35 35.4 -13.35 35.2 -13.4 35.15 -14.25 34.85 -13.25 34.05 -1.7 27.2 Q1.05 24.75 3.1 21.9 L4.05 20.45 Q5.1 21.0 6.0 21.7 M-1.3 28.15 L-1.35 28.2 -1.35 28.4 -1.25 28.3 -1.3 28.15" fill="#8e8279" fill-rule="evenodd" stroke="none"/>
    <path d="M14.55 -35.95 L15.15 -39.1 Q16.35 -37.25 16.25 -35.0 L14.75 -31.1 13.35 -27.55 13.25 -27.3 12.05 -24.35 11.2 -22.35 9.8 -19.1 9.35 -18.1 9.0 -17.35 8.7 -16.6 8.55 -16.6 13.65 -31.0 14.55 -35.95" fill="#b3b3b3" fill-rule="evenodd" stroke="none"/>
    <path d="M6.9 -20.05 L7.5 -21.8 9.35 -22.85 9.15 -21.25 6.9 -20.05 M12.05 -24.35 Q15.35 -26.05 19.15 -27.65 L19.25 -27.7 19.85 -26.8 19.55 -25.75 19.35 -25.7 Q15.35 -24.35 11.2 -22.35 L12.05 -24.35 M-3.1 -13.45 Q-0.55 -16.15 2.7 -18.6 L2.7 -17.4 Q-0.3 -15.5 -2.5 -13.35 L-3.0 -12.85 -3.1 -13.45" fill="#998c82" fill-rule="evenodd" stroke="none"/>
    <path d="M6.1 -17.7 L6.9 -20.05 9.15 -21.25 8.8 -18.75 6.1 -17.7 M19.55 -25.75 L18.65 -24.8 Q19.4 -23.65 18.95 -21.9 14.2 -21.05 9.8 -19.1 L11.2 -22.35 Q15.35 -24.35 19.35 -25.7 L19.55 -25.75 M2.7 -17.4 L2.7 -16.05 -2.5 -13.35 Q-0.3 -15.5 2.7 -17.4 M-18.25 21.9 L-18.2 22.45 -17.9 24.15 -17.3 25.85 Q-22.7 20.8 -28.6 23.1 -25.8 21.25 -22.15 19.9 -19.4 20.25 -18.25 21.9" fill="#80756c" fill-rule="evenodd" stroke="none"/>
    <path d="M5.6 -16.35 L5.75 -16.7 5.8 -16.75 6.75 -17.15 7.25 -16.85 5.6 -16.35 M7.0 -4.35 L5.8 -2.5 7.25 3.8 7.8 5.9 6.8 5.05 Q4.4 1.0 1.85 -2.3 1.1 -5.5 -0.2 -8.55 L4.75 -5.7 -0.2 -8.55 Q1.1 -5.5 1.85 -2.3 L-0.75 -5.35 -1.55 -7.65 -2.85 -12.25 -2.9 -12.35 -1.5 -13.15 Q-1.7 -12.75 0.7 -10.45 L1.4 -9.0 1.0 -10.1 4.4 -7.15 4.75 -5.7 5.05 -5.45 6.0 -4.9 5.05 -5.45 4.9 -6.75 7.15 -4.9 6.0 -4.9 7.0 -4.35 M17.1 -20.3 L19.15 -20.7 20.05 -20.9 20.05 -20.85 18.55 -20.05 17.6 -18.0 17.6 -17.3 Q16.45 -17.05 15.95 -16.55 L16.15 -15.95 16.15 -15.9 16.25 -15.65 16.15 -15.9 16.15 -15.95 Q16.45 -15.45 22.65 -14.85 L21.4 -13.55 20.0 -13.1 19.9 -13.1 19.4 -13.05 19.35 -12.95 17.75 -13.8 19.0 -14.45 Q18.0 -15.05 16.65 -14.75 16.3 -15.2 16.25 -15.55 L16.25 -15.6 16.25 -15.65 15.4 -17.05 15.6 -18.5 13.6 -18.75 11.55 -18.1 11.55 -18.75 16.4 -20.1 17.5 -18.6 17.1 -20.3 M9.35 -18.1 L10.5 -18.45 10.75 -17.9 9.0 -17.35 9.35 -18.1 M7.75 -17.5 L8.6 -17.85 8.5 -17.2 8.15 -17.1 7.75 -17.5 M4.65 -0.7 L5.8 -2.5 4.65 -0.7 M14.85 -6.85 Q11.9 -6.0 11.9 -8.9 12.9 -7.7 14.85 -6.85 M-1.55 -11.35 L-0.2 -8.55 -1.55 -11.35" fill="#82624f" fill-rule="evenodd" stroke="none"/>
    <path d="M3.65 -12.5 L3.75 -12.5 4.4 -10.6 4.35 -7.7 4.4 -7.15 1.0 -10.1 0.55 -11.6 0.75 -14.4 0.8 -14.45 2.65 -15.35 2.6 -13.9 2.4 -12.1 3.65 -12.5 M4.35 -13.15 L5.6 -16.35 7.25 -16.85 8.35 -16.2 8.15 -15.35 8.5 -16.05 9.7 -15.25 10.85 -15.05 8.7 -16.6 9.0 -17.35 10.75 -17.9 11.15 -17.05 12.55 -14.85 11.8 -16.85 13.7 -16.85 15.6 -15.85 14.15 -17.25 11.65 -17.25 11.55 -17.6 11.55 -18.1 13.6 -18.75 15.6 -18.5 15.4 -17.05 16.25 -15.65 16.25 -15.6 16.25 -15.55 Q16.3 -15.2 16.65 -14.75 L17.75 -13.8 19.35 -12.95 19.15 -11.8 18.5 -12.5 17.85 -11.8 17.25 -10.2 17.7 -9.35 17.65 -9.35 Q16.85 -6.45 14.6 -2.95 L13.75 -1.7 13.55 -1.45 13.2 -1.5 11.5 -1.95 10.65 -2.3 9.85 -2.7 7.0 -4.35 8.9 -4.45 12.2 -4.05 9.6 -4.7 10.3 -5.75 12.2 -7.05 10.15 -6.05 9.05 -4.8 8.7 -4.9 7.15 -4.9 4.9 -6.75 4.8 -7.75 5.2 -10.35 7.25 -10.05 9.6 -9.0 7.55 -10.3 8.6 -11.55 6.9 -10.55 4.75 -11.05 4.35 -13.15 M16.15 -15.95 L15.95 -16.55 Q16.45 -17.05 17.6 -17.3 L17.6 -18.0 18.55 -20.05 20.05 -20.85 20.5 -20.0 19.65 -20.0 Q20.85 -17.9 20.9 -15.45 L22.65 -14.85 Q16.45 -15.45 16.15 -15.95 M8.5 -17.2 L8.4 -16.8 8.15 -17.1 8.5 -17.2 M0.7 -10.45 Q-1.7 -12.75 -1.5 -13.15 L-0.3 -13.85 0.1 -11.6 0.7 -10.45 M16.7 -9.45 L17.65 -9.35 16.7 -9.45 Q14.9 -10.85 12.95 -11.55 L12.55 -11.75 Q10.95 -11.45 10.75 -10.95 L12.4 -10.55 Q14.45 -9.8 15.9 -8.7 15.95 -7.4 15.25 -6.05 16.2 -6.85 16.6 -7.95 L15.95 -8.6 16.7 -9.45 M14.85 -6.85 Q12.9 -7.7 11.9 -8.9 11.9 -6.0 14.85 -6.85" fill="#96725b" fill-rule="evenodd" stroke="none"/>
    <path d="M17.1 -20.3 L17.5 -18.6 16.4 -20.1 17.1 -20.3 M11.55 -18.75 L11.55 -18.1 10.75 -17.9 10.5 -18.45 11.55 -18.75 M7.75 -17.5 L8.15 -17.1 7.25 -16.85 6.75 -17.15 7.75 -17.5" fill="#5f2618" fill-rule="evenodd" stroke="none"/>
    <path d="M3.75 -12.5 L4.1 -12.6 4.35 -13.15 4.75 -11.05 6.9 -10.55 8.6 -11.55 7.55 -10.3 9.6 -9.0 7.25 -10.05 5.2 -10.35 4.8 -7.75 4.9 -6.75 5.05 -5.45 4.75 -5.7 4.4 -7.15 4.35 -7.7 4.4 -10.6 3.75 -12.5 M14.3 47.55 L12.6 47.55 6.9 42.6 14.3 47.55 M-2.05 47.55 L-4.6 47.55 3.85 43.2 -2.05 47.55 M11.55 -18.1 L11.55 -17.6 11.65 -17.25 14.15 -17.25 15.6 -15.85 13.7 -16.85 11.8 -16.85 12.55 -14.85 11.15 -17.05 10.75 -17.9 11.55 -18.1 M7.15 -4.9 L8.7 -4.9 9.05 -4.8 10.15 -6.05 12.2 -7.05 10.3 -5.75 9.6 -4.7 12.2 -4.05 8.9 -4.45 7.0 -4.35 6.0 -4.9 7.15 -4.9 M1.0 -10.1 L1.4 -9.0 0.7 -10.45 0.1 -11.6 -0.3 -13.85 0.75 -14.4 0.55 -11.6 1.0 -10.1 M4.05 24.75 L4.95 25.4 6.75 24.8 8.4 25.2 7.15 25.2 6.45 25.5 7.0 26.9 6.1 25.65 5.05 26.05 3.5 25.4 4.05 24.75 M1.9 27.05 L2.45 28.1 3.95 28.9 5.3 28.9 5.4 28.95 5.4 29.0 6.8 27.9 5.8 29.25 7.35 30.1 4.95 29.35 4.55 29.35 4.9 31.3 6.5 32.7 6.15 32.9 4.95 31.55 4.9 31.3 4.15 29.35 3.0 29.35 2.65 31.6 2.65 29.65 2.05 28.4 1.0 27.9 1.9 27.05 M11.15 30.0 L9.6 28.55 9.85 25.85 10.05 26.2 10.15 26.45 9.9 28.4 11.6 29.65 11.15 30.0 M9.95 37.7 L10.0 39.3 10.15 39.6 11.85 39.85 10.35 39.85 11.5 41.35 9.65 39.6 9.6 37.8 9.95 37.7 M-2.75 42.85 L-7.45 46.2 -4.35 43.4 -2.75 42.85 M14.25 34.8 L14.6 34.5 14.75 35.5 16.6 36.9 14.85 35.75 15.1 36.95 14.35 39.8 14.6 37.15 14.25 34.8 M0.35 31.6 L2.7 33.1 0.7 32.3 0.35 31.6 M3.75 33.9 L3.1 33.3 4.05 33.8 3.75 33.9 M-4.4 35.55 L-4.3 33.6 -3.55 35.45 -4.4 35.55" fill="#782921" fill-rule="evenodd" stroke="none"/>
    <path d="M16.65 -14.75 Q18.0 -15.05 19.0 -14.45 L17.75 -13.8 16.65 -14.75" fill="#785a49" fill-rule="evenodd" stroke="none"/>
    <path d="M8.7 -16.6 L10.85 -15.05 9.7 -15.25 8.5 -16.05 8.7 -16.6" fill="#8a3026" fill-rule="evenodd" stroke="none"/>
    <path d="M8.35 -16.2 L7.25 -16.85 8.15 -17.1 8.4 -16.8 8.35 -16.2" fill="#88241a" fill-rule="evenodd" stroke="none"/>
    <path d="M5.75 -16.7 L5.75 -16.85 5.8 -16.75 5.75 -16.7" fill="#b1a9a3" fill-rule="evenodd" stroke="none"/>
    <path d="M14.65 -2.75 L13.75 -1.7 14.6 -2.95 Q16.85 -6.45 17.65 -9.35 L17.7 -9.35 17.25 -10.2 17.85 -11.8 18.5 -12.5 19.15 -11.8 19.0 -11.35 18.75 -10.3 18.6 -9.7 18.25 -8.8 18.15 -8.55 17.75 -7.6 17.65 -7.4 16.0 -4.55 14.65 -2.75 M15.95 -8.6 L16.6 -7.95 Q16.2 -6.85 15.25 -6.05 15.95 -7.4 15.9 -8.7 L15.95 -8.6 M20.5 -20.0 L21.7 -16.7 22.75 -15.1 22.65 -14.85 20.9 -15.45 Q20.85 -17.9 19.65 -20.0 L20.5 -20.0" fill="#bdb3a8" fill-rule="evenodd" stroke="none"/>
    <path d="M16.7 -9.45 L15.95 -8.6 15.9 -8.7 Q14.3 -10.65 12.9 -10.85 L12.95 -11.55 Q14.9 -10.85 16.7 -9.45" fill="#82776e" fill-rule="evenodd" stroke="none"/>
    <path d="M12.4 -10.55 L10.75 -10.95 Q10.95 -11.45 12.55 -11.75 L12.95 -11.55 12.9 -10.85 12.4 -10.55" fill="#583c2a" fill-rule="evenodd" stroke="none"/>
    <path d="M15.75 12.8 Q18.9 15.35 20.5 19.6 L18.9 23.85 Q18.55 18.5 16.1 13.5 L15.75 12.85 15.75 12.8 M-38.55 -5.0 Q-37.05 -10.1 -33.9 -12.95 L-33.85 -12.95 Q-17.9 -5.05 -11.95 7.2 -11.15 14.15 -14.5 10.05 -19.35 1.15 -27.75 -5.05 L-33.3 -8.6 -34.0 -9.0 -34.05 -8.95 Q-36.0 -6.9 -36.6 -4.35 L-38.55 -5.0" fill="url(#gradient0)" fill-rule="evenodd" stroke="none"/>
    <path d="M-45.85 19.9 Q-50.75 15.7 -50.15 14.3 -46.8 11.05 -20.1 16.45 L-12.25 18.15 -12.1 18.7 -16.3 18.1 -18.3 17.8 -20.15 17.6 -21.0 17.45 -27.75 16.65 -44.75 15.25 Q-47.05 15.3 -47.2 15.7 -47.6 16.5 -45.4 17.85 L-45.7 19.2 -45.85 19.9 M-39.35 -1.1 L-38.55 -5.0 -36.6 -4.35 Q-36.0 -6.9 -34.05 -8.95 L-34.0 -9.0 -33.3 -8.6 Q-35.9 -5.35 -36.6 -2.4 L-36.85 -2.3 -39.35 -1.1 M-33.85 -12.95 L-30.6 -13.15 Q-22.9 -9.95 -17.2 -3.1 -21.65 -9.8 -14.7 -6.95 -7.8 -4.0 -7.85 1.85 -8.65 4.15 -12.55 0.15 -7.7 2.45 -11.4 -3.05 -14.2 -5.55 -13.75 -1.75 -13.85 0.3 -11.85 4.85 L-11.15 6.2 Q-9.85 8.85 -8.65 11.8 L-10.0 12.3 Q-10.8 9.6 -11.95 7.2 -17.9 -5.05 -33.85 -12.95 M9.85 25.85 Q8.3 23.4 6.0 21.7 5.1 21.0 4.05 20.45 L2.15 19.5 Q1.0 19.05 -0.35 18.75 L-2.6 18.3 -2.65 18.3 -2.35 16.7 -2.4 15.95 Q-0.35 16.05 1.7 17.05 3.05 17.65 4.4 18.55 7.85 20.85 11.4 25.25 L11.8 25.8 12.0 25.8 Q13.7 25.5 15.25 25.85 L16.0 26.1 Q17.0 26.4 18.0 27.0 L17.8 29.3 16.85 28.4 16.75 28.25 16.65 28.2 Q15.35 27.25 13.8 27.55 12.55 27.75 11.25 28.55 L11.2 28.6 10.75 27.5 10.15 26.45 10.05 26.2 9.85 25.85" fill="#55534d" fill-rule="evenodd" stroke="none"/>
    <path d="M-33.3 -8.6 L-27.75 -5.05 Q-32.6 -4.05 -36.6 -2.4 -35.9 -5.35 -33.3 -8.6 M-18.3 17.8 L-16.3 18.1 Q-15.9 21.1 -17.9 24.15 L-18.2 22.45 -18.25 21.9 Q-17.4 20.75 -18.3 17.8 M-44.75 15.25 L-45.4 17.85 Q-47.6 16.5 -47.2 15.7 -47.05 15.3 -44.75 15.25 M-44.4 6.7 Q-45.75 4.7 -43.3 4.8 L-42.35 5.0 -44.25 6.55 -44.4 6.7" fill="#383632" fill-rule="evenodd" stroke="none"/>
    <path d="M-48.85 11.6 Q-47.9 10.1 -45.4 7.55 L-44.65 6.95 -44.4 6.7 -44.25 6.55 -42.35 5.0 -40.6 5.45 -39.25 5.8 -35.15 6.95 Q-38.25 6.5 -38.35 7.7 -39.35 10.25 -35.25 11.6 -44.1 10.4 -48.85 11.6 M-41.6 0.1 L-39.35 -1.1 -36.85 -2.3 -36.6 -2.4 Q-32.6 -4.05 -27.75 -5.05 -19.35 1.15 -14.5 10.05 L-14.25 10.55 -14.65 10.25 Q-17.65 8.65 -20.4 7.35 -23.75 5.2 -25.95 2.9 -29.95 -1.45 -24.85 0.4 -23.0 2.25 -25.35 2.7 -21.15 4.4 -21.85 1.9 -25.4 -3.75 -30.5 -1.7 -33.65 0.45 -28.5 3.7 -35.95 0.8 -41.6 0.1 M-16.1 14.85 L-18.3 14.4 -29.15 12.4 Q-34.25 11.0 -34.6 9.3 L-34.5 8.8 Q-34.2 7.45 -32.0 8.0 L-31.0 8.3 Q-30.5 8.95 -32.05 9.6 -28.45 11.25 -29.25 8.95 -23.55 11.1 -17.9 13.95 L-16.1 14.85" fill="#57544f" fill-rule="evenodd" stroke="none"/>
    <path d="M-22.55 -12.25 L-23.3 -10.85 -23.4 -10.6 -22.9 -10.6 -22.45 -10.6 -21.25 -11.95 -15.95 -10.1 Q-10.15 -7.6 -3.85 -3.05 L-1.65 -1.5 -1.0 0.4 -0.75 0.6 0.05 1.1 0.0 -0.3 6.8 5.05 7.8 5.9 9.15 7.15 9.6 8.2 Q12.65 22.3 4.4 18.55 3.05 17.65 1.7 17.05 -0.35 16.05 -2.4 15.95 -2.7 14.3 -3.9 13.05 -5.3 11.6 -7.4 11.6 L-8.65 11.8 Q-9.85 8.85 -11.15 6.2 L-11.85 4.85 Q-13.85 0.3 -13.75 -1.75 -14.2 -5.55 -11.4 -3.05 -7.7 2.45 -12.55 0.15 -8.65 4.15 -7.85 1.85 -7.8 -4.0 -14.7 -6.95 -21.65 -9.8 -17.2 -3.1 -22.9 -9.95 -30.6 -13.15 L-22.55 -12.25 M19.9 33.65 L19.6 33.8 19.5 33.8 19.0 33.65 18.3 32.45 18.05 31.75 17.9 30.8 17.8 29.85 17.8 29.3 18.0 27.0 18.25 26.2 18.3 26.05 18.75 25.25 18.75 25.3 18.55 26.95 18.65 28.95 Q18.95 30.85 19.7 33.15 L19.9 33.65 M20.15 27.0 L20.5 26.9 20.7 26.9 20.5 27.45 Q19.75 29.4 20.4 31.6 L20.1 31.3 19.9 30.95 Q19.65 30.25 19.65 29.25 19.65 28.25 19.9 27.55 L20.0 27.4 20.15 27.0" fill="#4d4b46" fill-rule="evenodd" stroke="none"/>
    <path d="M-19.3 -22.95 L-18.55 -23.7 -18.4 -23.7 -19.3 -22.95" fill="#666464" fill-rule="evenodd" stroke="none"/>
    <path d="M1.85 -2.3 Q4.4 1.0 6.8 5.05 L0.0 -0.3 Q-0.1 -2.05 -0.35 -3.55 L-0.75 -5.35 1.85 -2.3 M-1.65 -1.5 L-3.85 -3.05 Q-10.15 -7.6 -15.95 -10.1 L-21.25 -11.95 -20.15 -13.1 Q-17.65 -14.0 -14.7 -14.05 L-12.65 -13.95 -9.75 -12.55 -5.05 -9.45 Q-2.95 -5.15 -1.65 -1.5" fill="url(#gradient1)" fill-rule="evenodd" stroke="none"/>
    <path d="M-43.85 1.65 L-41.6 0.1 Q-35.95 0.8 -28.5 3.7 -33.65 0.45 -30.5 -1.7 -25.4 -3.75 -21.85 1.9 -21.15 4.4 -25.35 2.7 -23.0 2.25 -24.85 0.4 -29.95 -1.45 -25.95 2.9 -23.75 5.2 -20.4 7.35 -17.65 8.65 -14.65 10.25 L-14.25 10.55 -12.9 13.2 -15.25 12.0 -15.95 11.7 Q-32.9 3.45 -43.85 1.65 M18.75 25.3 L18.85 25.2 Q20.2 25.2 20.15 27.0 L20.0 27.4 19.95 27.45 19.9 27.55 Q19.65 28.25 19.65 29.25 19.65 30.25 19.9 30.95 L20.1 31.3 Q20.55 32.65 19.7 33.15 18.95 30.85 18.65 28.95 L18.55 26.95 18.75 25.3 M20.5 27.45 Q21.2 29.5 20.6 31.6 L20.4 31.6 Q19.75 29.4 20.5 27.45 M-8.65 11.8 L-7.4 11.6 Q-5.3 11.6 -3.9 13.05 -2.7 14.3 -2.4 15.95 L-2.35 16.7 -2.65 18.3 Q-2.9 19.1 -3.5 19.8 L-3.75 20.1 -3.9 20.2 Q-5.25 21.65 -7.2 21.7 L-7.4 21.7 Q-9.5 21.7 -11.0 20.2 L-12.1 18.7 -12.25 18.15 -12.45 16.85 -12.45 16.7 -12.35 15.7 -12.15 14.9 Q-11.8 13.85 -11.0 13.05 L-10.0 12.3 -8.65 11.8 M-3.75 18.4 Q-4.05 18.4 -4.15 18.65 -5.7 20.5 -8.25 20.25 L-8.65 20.4 -8.85 20.75 -8.75 21.15 -8.4 21.35 Q-5.7 21.6 -3.95 20.05 L-3.3 19.3 -3.15 18.9 -3.4 18.55 Q-3.55 18.4 -3.75 18.4 M-9.25 14.6 L-9.4 14.7 Q-10.15 15.5 -10.15 16.65 -10.15 17.75 -9.4 18.5 -8.6 19.3 -7.45 19.3 -6.4 19.3 -5.65 18.5 L-5.4 18.3 Q-4.85 17.6 -4.85 16.65 -4.85 15.5 -5.65 14.7 -6.4 14.0 -7.45 14.0 -8.45 14.0 -9.15 14.55 -8.45 14.0 -7.45 14.0 -6.4 14.0 -5.65 14.7 -4.85 15.5 -4.85 16.65 -4.85 17.6 -5.4 18.3 L-5.65 18.5 Q-6.4 19.3 -7.45 19.3 -8.6 19.3 -9.4 18.5 -10.15 17.75 -10.15 16.65 -10.15 15.5 -9.4 14.7 L-9.25 14.6 -9.15 14.55 -9.15 14.5 -9.25 14.6 M-7.75 16.65 L-8.05 17.55 -7.75 18.35 Q-7.35 18.75 -6.8 18.75 -6.35 18.75 -6.0 18.35 -5.65 18.05 -5.6 17.55 -5.65 17.05 -6.0 16.65 -6.35 16.3 -6.8 16.35 -7.35 16.3 -7.75 16.65" fill="#615e58" fill-rule="evenodd" stroke="none"/>
    <path d="M-14.5 10.05 Q-11.15 14.15 -11.95 7.2 -10.8 9.6 -10.0 12.3 L-11.0 13.05 Q-11.8 13.85 -12.15 14.9 L-12.35 15.7 -12.45 16.7 -12.5 16.8 -16.1 14.85 -17.9 13.95 Q-10.85 16.2 -15.25 12.05 L-15.25 12.0 -12.9 13.2 -14.25 10.55 -14.5 10.05 M-12.9 13.2 L-12.15 14.9 -12.9 13.2" fill="#6b6861" fill-rule="evenodd" stroke="none"/>
    <path d="M-45.7 7.15 L-46.15 6.45 -46.2 6.4 Q-46.95 5.15 -46.6 4.6 L-45.95 3.55 -45.7 3.35 -45.5 3.15 -44.75 2.35 -43.85 1.65 Q-32.9 3.45 -15.95 11.7 L-15.25 12.0 -15.25 12.05 Q-10.85 16.2 -17.9 13.95 -23.55 11.1 -29.25 8.95 L-31.0 8.3 -32.0 8.0 -35.15 6.95 -39.25 5.8 -40.6 5.45 -42.35 5.0 -43.3 4.8 Q-45.75 4.7 -44.4 6.7 L-44.65 6.95 Q-45.3 7.4 -45.7 7.15" fill="url(#gradient2)" fill-rule="evenodd" stroke="none"/>
    <path d="M-12.5 16.8 L-12.45 16.85 -12.25 18.15 -20.1 16.45 Q-15.25 16.0 -18.3 14.4 L-16.1 14.85 -12.5 16.8" fill="#595650" fill-rule="evenodd" stroke="none"/>
    <path d="M-12.1 18.7 L-11.0 20.2 Q-9.5 21.7 -7.4 21.7 L-7.2 21.7 Q-8.2 23.65 -11.0 27.2 L-11.3 27.6 -12.85 29.5 -15.1 32.15 -15.45 31.1 -15.95 29.55 -17.3 25.85 -17.9 24.15 Q-15.9 21.1 -16.3 18.1 L-12.1 18.7 M-20.15 17.6 L-18.3 17.8 Q-17.4 20.75 -18.25 21.9 -19.4 20.25 -22.15 19.9 L-23.65 19.8 Q-27.45 19.65 -30.65 22.4 L-27.8 20.1 Q-24.8 18.05 -21.6 17.7 L-21.1 17.65 -20.15 17.6" fill="#6b625b" fill-rule="evenodd" stroke="none"/>
    <path d="M-50.25 14.3 Q-49.8 12.95 -48.85 11.6 -44.1 10.4 -35.25 11.6 -39.35 10.25 -38.35 7.7 -38.25 6.5 -35.15 6.95 L-32.0 8.0 Q-34.2 7.45 -34.5 8.8 L-34.6 9.3 Q-34.25 11.0 -29.15 12.4 L-18.3 14.4 Q-15.25 16.0 -20.1 16.45 -46.8 11.05 -50.15 14.3 L-50.25 14.3 M-31.0 8.3 L-29.25 8.95 Q-28.45 11.25 -32.05 9.6 -30.5 8.95 -31.0 8.3" fill="#69665f" fill-rule="evenodd" stroke="none"/>
    <path d="M18.0 37.35 L19.7 42.9 Q20.9 47.4 20.65 47.45 L14.7 47.45 Q18.15 42.2 17.45 37.9 L18.0 37.35 M-20.65 47.55 L-26.6 47.55 -30.05 47.55 -30.3 46.65 Q-30.65 45.75 -30.9 45.5 -31.3 45.1 -31.85 45.1 -32.4 45.1 -32.8 45.5 -33.2 45.9 -33.2 46.45 L-33.15 46.65 -32.8 47.4 -32.6 47.55 -34.65 47.55 -35.1 46.65 Q-36.2 44.25 -36.2 42.6 L-36.85 39.75 -37.3 38.35 Q-38.0 35.95 -38.9 34.05 -36.05 28.55 -33.0 24.9 L-30.65 22.4 Q-27.45 19.65 -23.65 19.8 L-22.15 19.9 Q-25.8 21.25 -28.6 23.1 -33.45 26.25 -35.6 30.8 -37.2 34.2 -37.3 38.35 -37.2 34.2 -35.6 30.8 L-33.45 35.5 -33.15 36.05 Q-34.05 36.95 -34.45 38.0 L-33.45 35.5 -34.45 38.0 Q-34.05 36.95 -33.15 36.05 -31.8 38.55 -30.05 40.6 -27.6 43.55 -24.5 45.55 L-25.75 46.65 -26.6 47.55 -25.75 46.65 -24.5 45.55 -20.65 47.55 M-13.25 34.05 L-14.25 34.85 -15.1 32.15 -12.85 29.5 -11.3 27.6 -11.0 27.2 Q-8.2 23.65 -7.2 21.7 -5.25 21.65 -3.9 20.2 L-3.75 20.1 -3.5 19.8 Q-2.9 19.1 -2.65 18.3 L-2.6 18.3 -0.35 18.75 Q1.0 19.05 2.15 19.5 L-3.75 26.15 -13.25 34.05 M-34.45 38.0 L-34.5 38.1 Q-35.8 40.1 -36.2 42.6 -35.8 40.1 -34.5 38.1 L-34.45 38.0 M-36.2 42.6 L-30.05 40.6 -36.2 42.6" fill="#756b63" fill-rule="evenodd" stroke="none"/>
    <path d="M-3.75 18.4 Q-3.55 18.4 -3.4 18.55 L-3.15 18.9 -3.3 19.3 -3.95 20.05 Q-5.7 21.6 -8.4 21.35 L-8.75 21.15 -8.85 20.75 -8.65 20.4 -8.25 20.25 Q-5.7 20.5 -4.15 18.65 -4.05 18.4 -3.75 18.4 M-7.75 16.65 Q-7.35 16.3 -6.8 16.35 -6.35 16.3 -6.0 16.65 -5.65 17.05 -5.6 17.55 -5.65 18.05 -6.0 18.35 -6.35 18.75 -6.8 18.75 -7.35 18.75 -7.75 18.35 L-8.05 17.55 -7.75 16.65" fill="#75726a" fill-rule="evenodd" stroke="none"/>
    <path d="M-9.25 14.6 L-9.15 14.5 -9.15 14.55 -9.25 14.6" fill="#ffffcc" fill-opacity="0.0" fill-rule="evenodd" stroke="none"/>
    <path d="M-56.35 44.5 Q-49.25 38.75 -48.05 31.3 -47.25 26.15 -45.85 19.9 L-45.7 19.2 Q-39.0 15.9 -31.55 18.65 L-31.1 18.75 -31.15 18.8 Q-38.8 24.5 -45.85 37.55 -52.1 45.75 -56.35 44.5" fill="url(#gradient3)" fill-rule="evenodd" stroke="none"/>
    <path d="M-46.8 43.85 L-50.7 46.65 -52.75 47.55 -58.9 47.55 -60.0 47.1 -59.3 46.65 -56.35 44.5 Q-52.1 45.75 -45.85 37.55 -38.8 24.5 -31.15 18.8 L-31.1 18.75 -27.8 20.1 -30.65 22.4 -33.0 24.9 Q-36.05 28.55 -38.9 34.05 L-38.9 34.15 -39.4 34.9 Q-43.2 40.6 -46.8 43.85" fill="url(#gradient4)" fill-rule="evenodd" stroke="none"/>
    <path d="M-31.1 18.75 L-31.55 18.65 Q-39.0 15.9 -45.7 19.2 L-45.4 17.85 -44.75 15.25 -27.75 16.65 Q-29.45 17.5 -31.1 18.75 -29.45 17.5 -27.75 16.65 L-21.0 17.45 -20.15 17.6 -21.1 17.65 -21.6 17.7 Q-24.8 18.05 -27.8 20.1 L-31.1 18.75" fill="#523a36" fill-rule="evenodd" stroke="none"/>
    <path d="M-36.85 39.75 L-46.8 43.85 Q-43.2 40.6 -39.4 34.9 L-38.9 34.15 -38.9 34.05 Q-38.0 35.95 -37.3 38.35 L-36.85 39.75" fill="#614641" fill-rule="evenodd" stroke="none"/>
    <path d="M-30.05 47.55 L-32.6 47.55 -32.8 47.4 -33.15 46.65 -33.2 46.45 Q-33.2 45.9 -32.8 45.5 -32.4 45.1 -31.85 45.1 -31.3 45.1 -30.9 45.5 -30.65 45.75 -30.3 46.65 L-30.05 47.55" fill="url(#gradient5)" fill-rule="evenodd" stroke="none"/>
    <path d="M-1.3 28.15 L-1.25 28.3 -1.35 28.4 -1.35 28.2 -1.3 28.15" fill="#776c6a" fill-rule="evenodd" stroke="none"/>
    <path d="M19.0 33.65 L19.05 36.25 18.0 37.35 17.45 37.9 Q18.15 42.2 14.7 47.45 L14.3 47.55 6.9 42.6 12.6 47.55 -2.05 47.55 3.85 43.2 -4.6 47.55 -14.5 47.55 -14.05 46.65 -13.85 46.15 -13.35 46.05 -12.35 45.8 -8.4 44.65 -8.1 44.6 -7.95 44.55 -4.35 43.4 -7.45 46.2 -2.75 42.85 7.0 39.1 9.6 37.8 9.65 39.6 11.5 41.35 10.35 39.85 11.85 39.85 10.15 39.6 10.0 39.3 9.95 37.7 10.6 37.3 10.2 37.0 Q9.85 36.65 9.85 36.2 9.85 35.75 10.2 35.45 10.5 35.1 11.0 35.1 11.45 35.1 11.75 35.45 12.1 35.75 12.1 36.2 L12.1 36.35 14.25 34.8 14.6 37.15 14.35 39.8 15.1 36.95 14.85 35.75 16.6 36.9 14.75 35.5 14.6 34.5 Q16.55 32.8 17.9 30.8 L18.05 31.75 18.3 32.45 19.0 33.65 M4.05 24.75 L5.25 23.1 6.0 21.7 Q8.3 23.4 9.85 25.85 L9.6 28.55 11.15 30.0 6.5 32.7 4.9 31.3 4.55 29.35 4.95 29.35 7.35 30.1 5.8 29.25 6.8 27.9 5.4 29.0 5.4 28.95 5.3 28.9 3.95 28.9 2.45 28.1 1.9 27.05 3.5 25.4 5.05 26.05 6.1 25.65 7.0 26.9 6.45 25.5 7.15 25.2 8.4 25.2 6.75 24.8 4.95 25.4 4.05 24.75 M-9.5 35.7 L-8.1 34.55 -7.95 34.4 Q-4.25 31.35 -0.75 29.2 L-0.35 28.95 1.0 27.9 2.05 28.4 2.65 29.65 2.65 31.6 3.0 29.35 4.15 29.35 4.9 31.3 4.95 31.55 6.15 32.9 4.05 33.8 3.1 33.3 3.75 33.9 1.7 34.6 -3.55 35.45 -4.3 33.6 -4.4 35.55 -7.95 35.75 -8.1 35.75 -9.5 35.7 M13.8 27.55 L12.95 28.45 11.6 29.65 9.9 28.4 10.15 26.45 10.75 27.5 11.2 28.6 11.25 28.55 Q12.55 27.75 13.8 27.55 M12.4 33.85 L12.65 33.95 12.9 34.3 12.65 34.55 12.4 34.7 12.1 34.55 11.95 34.3 12.1 33.95 Q12.2 33.8 12.4 33.85 M0.35 31.6 L0.7 32.3 2.7 33.1 0.35 31.6" fill="url(#gradient6)" fill-rule="evenodd" stroke="none"/>
    <path d="M6.5 32.7 L11.15 30.0 11.6 29.65 12.95 28.45 13.8 27.55 Q15.35 27.25 16.65 28.2 L16.75 28.25 16.85 28.4 16.25 29.05 Q11.55 33.75 3.0 36.1 -3.25 37.7 -7.95 37.75 L-8.1 37.75 -8.85 37.75 -12.35 37.45 -13.35 37.2 -13.55 37.15 -13.95 35.95 -14.1 35.35 -14.25 34.95 -14.25 34.85 -13.4 35.15 -13.35 35.2 -12.35 35.4 -9.5 35.7 -8.1 35.75 -7.95 35.75 -4.4 35.55 -3.55 35.45 1.7 34.6 3.75 33.9 4.05 33.8 6.15 32.9 6.5 32.7 M4.05 20.45 L3.1 21.9 Q1.05 24.75 -1.7 27.2 L-13.25 34.05 -3.75 26.15 2.15 19.5 4.05 20.45" fill="#857a71" fill-rule="evenodd" stroke="none"/>
    <path d="M-7.95 37.75 Q-3.25 37.7 3.0 36.1 11.55 33.75 16.25 29.05 L16.85 28.4 17.8 29.3 17.8 29.85 17.9 30.8 Q16.55 32.8 14.6 34.5 L14.25 34.8 12.1 36.35 12.1 36.2 Q12.1 35.75 11.75 35.45 11.45 35.1 11.0 35.1 10.5 35.1 10.2 35.45 9.85 35.75 9.85 36.2 9.85 36.65 10.2 37.0 L10.6 37.3 9.95 37.7 9.6 37.8 7.0 39.1 -2.75 42.85 -4.35 43.4 -7.95 44.55 -8.1 44.6 -8.4 44.65 -12.35 45.8 -13.35 46.05 -13.85 46.15 -12.95 39.05 -13.35 37.85 -13.55 37.2 -13.55 37.15 -14.05 35.75 -14.2 35.4 -14.25 34.95 -14.1 35.35 -13.95 35.95 -13.55 37.15 -13.35 37.2 -12.35 37.45 -8.85 37.75 -8.1 37.75 -7.95 37.75 M12.4 33.85 Q12.2 33.8 12.1 33.95 L11.95 34.3 12.1 34.55 12.4 34.7 12.65 34.55 12.9 34.3 12.65 33.95 12.4 33.85 M-35.6 30.8 Q-33.45 26.25 -28.6 23.1 -22.7 20.8 -17.3 25.85 L-15.95 29.55 -15.45 31.1 -15.8 31.2 -15.45 31.1 -15.1 32.15 -14.25 34.85 -14.25 34.95 -14.2 35.4 -14.1 35.35 -14.2 35.4 -15.8 31.2 -16.25 30.15 -16.6 29.4 Q-17.5 27.5 -18.1 27.25 L-18.65 27.1 -19.4 26.85 Q-28.45 24.35 -35.6 30.8 M-13.95 35.95 L-14.05 35.75 -13.95 35.95" fill="#877b72" fill-rule="evenodd" stroke="none"/>
    <path d="M7.25 3.8 Q12.7 6.75 16.25 10.15 L15.75 12.8 15.75 12.85 Q14.1 10.5 10.65 8.1 L9.15 7.15 7.8 5.9 7.25 3.8" fill="url(#gradient7)" fill-rule="evenodd" stroke="none"/>
    <path d="M4.4 18.55 Q12.65 22.3 9.6 8.2 L9.15 7.15 10.65 8.1 Q16.45 15.6 18.25 26.2 L18.0 27.0 Q17.0 26.4 16.0 26.1 L15.25 25.85 Q11.8 24.7 11.4 19.15 L11.4 25.25 Q7.85 20.85 4.4 18.55" fill="#42403c" fill-rule="evenodd" stroke="none"/>
    <path d="M19.9 27.55 L19.95 27.45 20.0 27.4 19.9 27.55" fill="#009900" fill-rule="evenodd" stroke="none"/>
    <path d="M11.4 25.25 L11.4 19.15 Q11.8 24.7 15.25 25.85 13.7 25.5 12.0 25.8 L11.8 25.8 11.4 25.25" fill="#474540" fill-rule="evenodd" stroke="none"/>
    <path d="M19.65 -31.15 L20.0 -29.3 20.05 -28.05 20.6 -27.4 20.45 -26.9 M19.65 -31.15 L19.5 -31.75 18.7 -33.15 18.5 -33.35 17.6 -32.9 17.4 -32.85 17.6 -32.85 17.5 -32.75 14.75 -31.1 13.35 -27.55 M19.25 -27.7 L20.05 -28.05 M19.5 -35.6 Q19.65 -34.4 19.45 -33.3 M14.25 -47.15 L13.9 -46.8 Q15.1 -44.05 15.8 -40.95 L15.95 -40.2 15.95 -40.0 16.15 -39.2 M19.15 -37.15 L18.9 -37.9 20.5 -42.05 18.0 -39.35 Q17.25 -43.65 14.75 -47.55 L14.25 -47.15 M15.15 -39.1 L14.55 -39.95 M15.95 -40.0 L14.4 -41.95 12.1 -43.05 11.5 -43.2 M15.15 -39.1 Q16.35 -37.25 16.25 -35.0 L14.75 -31.1 M-4.6 -38.8 L-7.25 -37.05 Q-13.6 -31.35 -18.65 -25.6 L-21.0 -22.35 -23.0 -19.25 -20.65 -21.75 -19.3 -22.95 -18.4 -23.7 Q-11.85 -29.15 -7.9 -31.5 M-6.75 -30.25 Q-11.0 -27.3 -14.5 -23.65 L-16.6 -21.3 -18.35 -18.95 Q-20.7 -15.85 -22.55 -12.25 L-23.3 -10.85 -23.4 -10.6 -22.9 -10.6 -22.45 -10.6 -21.25 -11.95 -15.95 -10.1 Q-10.15 -7.6 -3.85 -3.05 L-1.65 -1.5 Q-2.95 -5.15 -5.05 -9.45 L-9.75 -12.55 -12.65 -13.95 -14.7 -14.05 Q-17.65 -14.0 -20.15 -13.1 L-21.25 -11.95 M-8.35 -23.7 L1.25 -30.8 2.5 -31.6 3.9 -32.15 M11.15 -43.3 L9.0 -43.65 8.1 -43.75 Q3.9 -45.75 -0.7 -45.2 L-3.1 -42.95 Q-5.85 -40.1 -7.25 -37.05 M3.65 -12.5 L3.75 -12.5 4.1 -12.6 4.35 -13.15 5.6 -16.35 5.75 -16.7 5.75 -16.85 6.1 -17.7 6.9 -20.05 7.5 -21.8 9.1 -27.1 9.75 -29.85 9.75 -31.75 M9.65 -27.55 L9.1 -27.1 M9.65 -27.55 L9.75 -29.85 M19.4 -35.95 L19.15 -37.15 Q22.7 -36.5 27.0 -33.2 28.9 -25.75 28.55 -17.7 35.2 -13.05 38.1 -7.4 L38.1 -7.05 38.3 -6.15 38.5 -3.1 34.0 -7.4 Q36.85 -4.35 38.35 -0.95 L38.15 1.0 38.1 0.9 38.05 1.2 Q35.6 -3.55 31.4 -7.1 32.3 -5.8 33.0 -2.5 34.25 5.1 44.15 4.3 54.85 2.1 60.0 9.75 52.4 4.4 39.7 7.55 L33.95 8.65 M29.75 8.7 Q24.55 8.3 21.65 5.45 22.35 8.25 24.35 11.15 26.0 13.55 28.5 15.9 16.15 9.15 14.65 -2.75 L13.75 -1.7 13.55 -1.45 13.2 -1.5 Q13.0 2.8 13.7 7.0 11.85 2.6 11.5 -1.95 L10.65 -2.3 9.85 -2.7 7.0 -4.35 5.8 -2.5 7.25 3.8 Q12.7 6.75 16.25 10.15 L15.75 12.8 Q18.9 15.35 20.5 19.6 L18.9 23.85 19.15 24.9 19.5 24.8 Q20.0 24.8 20.35 25.4 L20.65 26.05 20.75 26.3 21.0 27.15 21.15 27.55 21.4 29.25 21.2 30.75 21.15 30.95 21.0 31.3 20.65 32.45 Q20.35 33.4 19.9 33.65 L19.6 33.8 19.5 33.8 19.0 33.65 19.05 36.25 18.0 37.35 19.7 42.9 Q20.9 47.4 20.65 47.45 M-34.65 47.55 L-35.1 46.65 Q-36.2 44.25 -36.2 42.6 L-36.85 39.75 -46.8 43.85 -50.7 46.65 -52.75 47.55 M-58.9 47.55 L-60.0 47.1 -59.3 46.65 -56.35 44.5 Q-49.25 38.75 -48.05 31.3 -47.25 26.15 -45.85 19.9 -50.75 15.7 -50.15 14.3 L-50.4 14.6 -50.25 14.3 Q-49.8 12.95 -48.85 11.6 -47.9 10.1 -45.4 7.55 L-45.7 7.15 -46.15 6.45 -46.2 6.4 Q-46.95 5.15 -46.6 4.6 L-45.95 3.55 -45.7 3.35 -45.5 3.15 -44.75 2.35 -43.85 1.65 -41.6 0.1 -39.35 -1.1 -38.55 -5.0 Q-37.05 -10.1 -33.9 -12.95 L-33.85 -12.95 -30.6 -13.15 -22.55 -12.25 M13.25 -27.3 L12.05 -24.35 Q15.35 -26.05 19.15 -27.65 L19.25 -27.7 M19.55 -25.75 L20.2 -25.9 20.4 -26.6 M18.95 -21.9 L20.05 -22.35 20.35 -22.95 20.35 -23.2 20.2 -25.9 M11.2 -22.35 Q15.35 -24.35 19.35 -25.7 L19.55 -25.75 M20.05 -20.9 L19.15 -20.7 17.1 -20.3 16.4 -20.1 11.55 -18.75 10.5 -18.45 9.35 -18.1 9.0 -17.35 8.7 -16.6 8.5 -16.05 8.15 -15.35 8.35 -16.2 8.4 -16.8 8.5 -17.2 8.6 -17.85 8.7 -18.25 8.75 -18.6 8.8 -18.75 6.1 -17.7 M16.25 -15.65 L16.15 -15.9 16.15 -15.95 15.95 -16.55 Q16.45 -17.05 17.6 -17.3 M20.05 -20.85 L20.05 -20.9 20.35 -21.0 20.6 -21.1 20.05 -22.35 M18.95 -21.9 Q14.2 -21.05 9.8 -19.1 L9.35 -18.1 M11.2 -22.35 L12.05 -24.35 M16.25 -15.65 L16.25 -15.6 M16.65 -14.75 Q18.0 -15.05 19.0 -14.45 M19.35 -12.95 L19.4 -13.05 19.9 -13.1 20.0 -13.1 21.4 -13.55 22.65 -14.85 22.75 -15.1 21.7 -16.7 20.5 -20.0 20.05 -20.85 M8.8 -18.75 L9.15 -21.25 6.9 -20.05 M7.5 -21.8 L9.35 -22.85 9.65 -27.55 M9.15 -21.25 L9.35 -22.85 M2.7 -18.6 L2.7 -21.5 Q-0.7 -18.1 -3.35 -14.3 L-3.1 -13.45 Q-0.55 -16.15 2.7 -18.6 L2.7 -17.4 2.7 -16.05 2.65 -15.5 2.65 -15.35 2.6 -13.9 2.4 -12.1 3.65 -12.5 M0.75 -14.4 L0.8 -14.45 2.65 -15.35 M7.75 -17.5 L8.6 -17.85 M7.75 -17.5 L6.75 -17.15 5.8 -16.75 5.75 -16.7 M7.0 -4.35 L6.0 -4.9 5.05 -5.45 4.75 -5.7 -0.2 -8.55 Q1.1 -5.5 1.85 -2.3 4.4 1.0 6.8 5.05 L7.8 5.9 7.25 3.8 M-1.5 -13.15 L-2.9 -12.35 -2.85 -12.25 -1.55 -7.65 -0.75 -5.35 1.85 -2.3 M-0.3 -13.85 L-1.5 -13.15 M5.8 -2.5 L4.65 -0.7 M19.15 -11.8 L19.0 -11.35 18.75 -10.3 18.6 -9.7 18.25 -8.8 18.15 -8.55 17.75 -7.6 M17.7 -9.35 L17.65 -9.35 16.7 -9.45 15.95 -8.6 16.6 -7.95 Q16.2 -6.85 15.25 -6.05 M15.9 -8.7 Q14.45 -9.8 12.4 -10.55 L10.75 -10.95 Q10.95 -11.45 12.55 -11.75 L12.95 -11.55 Q14.9 -10.85 16.7 -9.45 M15.9 -8.7 L15.95 -8.6 M19.2 1.25 L19.5 2.1 Q19.95 3.3 20.7 4.3 L21.65 5.45 M12.9 -10.85 L12.4 -10.55 M12.9 -10.85 L12.95 -11.55 M11.5 -1.95 L13.2 -1.5 M15.9 -8.7 Q14.3 -10.65 12.9 -10.85 M14.65 -2.75 L16.0 -4.55 17.65 -7.4 M19.35 -12.95 L19.15 -11.8 M9.8 -19.1 L11.2 -22.35 M34.0 -7.4 L33.6 -7.8 32.9 -8.55 M2.7 -21.5 L2.4 -24.95 M9.15 7.15 L7.8 5.9 M9.15 7.15 L10.65 8.1 Q14.1 10.5 15.75 12.85 L15.75 12.8 M6.0 21.7 L5.25 23.1 4.05 24.75 3.5 25.4 1.9 27.05 1.0 27.9 -0.35 28.95 -0.75 29.2 Q-4.25 31.35 -7.95 34.4 M6.5 32.7 L11.15 30.0 11.6 29.65 12.95 28.45 13.8 27.55 Q15.35 27.25 16.65 28.2 L16.75 28.25 16.85 28.4 16.25 29.05 Q11.55 33.75 3.0 36.1 -3.25 37.7 -7.95 37.75 M9.85 25.85 Q8.3 23.4 6.0 21.7 5.1 21.0 4.05 20.45 L3.1 21.9 Q1.05 24.75 -1.7 27.2 L-13.25 34.05 -14.25 34.85 -13.4 35.15 M-13.35 35.2 L-12.35 35.4 -9.5 35.7 -8.1 34.55 M-2.4 15.95 Q-0.35 16.05 1.7 17.05 3.05 17.65 4.4 18.55 7.85 20.85 11.4 25.25 L11.8 25.8 12.0 25.8 Q13.7 25.5 15.25 25.85 L16.0 26.1 Q17.0 26.4 18.0 27.0 L18.25 26.2 18.3 26.05 18.75 25.25 M4.05 20.45 L2.15 19.5 -3.75 26.15 -13.25 34.05 M18.9 23.85 Q18.55 18.5 16.1 13.5 L15.75 12.85 M20.15 27.0 L20.5 26.9 20.7 26.9 21.0 27.15 M20.1 31.3 L19.9 30.95 Q19.65 30.25 19.65 29.25 19.65 28.25 19.9 27.55 L19.95 27.45 20.0 27.4 20.15 27.0 M17.9 30.8 L17.8 29.85 17.8 29.3 16.85 28.4 M17.8 29.3 L18.0 27.0 M10.15 26.45 L10.75 27.5 11.2 28.6 11.25 28.55 Q12.55 27.75 13.8 27.55 M12.4 33.85 L12.65 33.95 12.9 34.3 12.65 34.55 12.4 34.7 12.1 34.55 11.95 34.3 12.1 33.95 Q12.2 33.8 12.4 33.85 M14.25 34.8 L12.1 36.35 12.1 36.2 Q12.1 35.75 11.75 35.45 11.45 35.1 11.0 35.1 10.5 35.1 10.2 35.45 9.85 35.75 9.85 36.2 9.85 36.65 10.2 37.0 L10.6 37.3 9.95 37.7 9.6 37.8 7.0 39.1 -2.75 42.85 -4.35 43.4 -7.95 44.55 M-8.1 44.6 L-8.4 44.65 -12.35 45.8 -13.35 46.05 -13.85 46.15 -12.95 39.05 -13.35 37.85 -13.55 37.2 -13.55 37.15 -14.05 35.75 -14.2 35.4 -30.05 40.6 -36.2 42.6 Q-35.8 40.1 -34.5 38.1 L-34.45 38.0 Q-34.05 36.95 -33.15 36.05 -29.3 32.1 -15.8 31.2 L-16.25 30.15 -16.6 29.4 Q-17.5 27.5 -18.1 27.25 L-18.65 27.1 -19.4 26.85 Q-29.3 26.25 -33.45 35.5 L-34.45 38.0 M14.6 34.5 L14.25 34.8 M14.6 34.5 Q16.55 32.8 17.9 30.8 L18.05 31.75 18.3 32.45 19.0 33.65 M9.85 25.85 L10.05 26.2 M-3.55 35.45 L1.7 34.6 3.75 33.9 4.05 33.8 6.15 32.9 6.5 32.7 M14.7 47.45 Q18.15 42.2 17.45 37.9 L18.0 37.35 M20.6 31.6 L21.0 31.3 M20.6 31.6 L20.4 31.6 20.1 31.3 M0.0 -0.3 L6.8 5.05 M0.0 -0.3 L0.05 1.1 -0.75 0.6 -1.0 0.4 -1.65 -1.5 M-0.7 -41.35 L-4.6 -38.8 M-3.1 -42.95 Q-9.5 -40.0 -17.65 -33.15 -18.8 -29.8 -18.65 -25.6 M-27.75 -5.05 Q-19.35 1.15 -14.5 10.05 L-14.25 10.55 -14.65 10.25 Q-17.65 8.65 -20.4 7.35 -23.75 5.2 -25.95 2.9 -29.95 -1.45 -24.85 0.4 -23.0 2.25 -25.35 2.7 -21.15 4.4 -21.85 1.9 -25.4 -3.75 -30.5 -1.7 -33.65 0.45 -28.5 3.7 -35.95 0.8 -41.6 0.1 M-11.95 7.2 Q-17.9 -5.05 -33.85 -12.95 M-36.6 -2.4 Q-32.6 -4.05 -27.75 -5.05 M-36.6 -2.4 L-36.85 -2.3 -39.35 -1.1 M-8.95 -23.2 L-8.35 -23.7 M-5.05 -9.45 L-6.6 -12.45 -8.0 -14.65 M-3.1 -13.45 L-3.0 -12.85 -2.5 -13.35 Q-0.3 -15.5 2.7 -17.4 M-3.8 -16.25 L-3.35 -14.3 M-5.9 -23.0 Q-4.95 -20.8 -3.8 -16.25 M-18.35 -18.95 Q-19.0 -21.3 -18.4 -23.7 M-20.15 -13.1 L-17.95 -15.25 Q-14.2 -19.0 -9.5 -22.8 M-30.6 -13.15 Q-22.9 -9.95 -17.2 -3.1 -21.65 -9.8 -14.7 -6.95 -7.8 -4.0 -7.85 1.85 -8.65 4.15 -12.55 0.15 -7.7 2.45 -11.4 -3.05 -14.2 -5.55 -13.75 -1.75 -13.85 0.3 -11.85 4.85 L-11.15 6.2 Q-9.85 8.85 -8.65 11.8 L-7.4 11.6 Q-5.3 11.6 -3.9 13.05 -2.7 14.3 -2.4 15.95 L-2.35 16.7 -2.65 18.3 -2.6 18.3 -0.35 18.75 Q1.0 19.05 2.15 19.5 M-0.2 -8.55 L-1.55 -11.35 M-0.75 -5.35 L-0.35 -3.55 Q-0.1 -2.05 0.0 -0.3 M-3.0 -12.85 L-2.9 -12.35 M-10.0 12.3 L-8.65 11.8 M-15.25 12.0 L-15.95 11.7 Q-32.9 3.45 -43.85 1.65 M-15.25 12.0 L-12.9 13.2 -14.25 10.55 M-12.45 16.7 L-12.35 15.7 -12.15 14.9 -12.9 13.2 M-12.5 16.8 L-12.45 16.85 -12.45 16.7 M-12.25 18.15 L-12.45 16.85 M-12.15 14.9 Q-11.8 13.85 -11.0 13.05 L-10.0 12.3 Q-10.8 9.6 -11.95 7.2 M-16.1 14.85 L-18.3 14.4 -29.15 12.4 Q-34.25 11.0 -34.6 9.3 L-34.5 8.8 Q-34.2 7.45 -32.0 8.0 L-31.0 8.3 -29.25 8.95 Q-23.55 11.1 -17.9 13.95 L-16.1 14.85 -12.5 16.8 M-20.1 16.45 L-12.25 18.15 -12.1 18.7 -11.0 20.2 Q-9.5 21.7 -7.4 21.7 L-7.2 21.7 Q-5.25 21.65 -3.9 20.2 L-3.75 20.1 -3.5 19.8 Q-2.9 19.1 -2.65 18.3 M-18.3 17.8 L-16.3 18.1 -12.1 18.7 M-20.15 17.6 L-18.3 17.8 Q-17.4 20.75 -18.25 21.9 L-18.2 22.45 -17.9 24.15 Q-15.9 21.1 -16.3 18.1 M-9.15 14.55 Q-8.45 14.0 -7.45 14.0 -6.4 14.0 -5.65 14.7 -4.85 15.5 -4.85 16.65 -4.85 17.6 -5.4 18.3 L-5.65 18.5 Q-6.4 19.3 -7.45 19.3 -8.6 19.3 -9.4 18.5 -10.15 17.75 -10.15 16.65 -10.15 15.5 -9.4 14.7 L-9.25 14.6 -9.15 14.55 M-39.25 5.8 L-35.15 6.95 -32.0 8.0 M-48.85 11.6 Q-44.1 10.4 -35.25 11.6 -39.35 10.25 -38.35 7.7 -38.25 6.5 -35.15 6.95 M-29.25 8.95 Q-28.45 11.25 -32.05 9.6 -30.5 8.95 -31.0 8.3 M-45.7 19.2 L-45.85 19.9 M-56.35 44.5 Q-52.1 45.75 -45.85 37.55 -38.8 24.5 -31.15 18.8 L-31.1 18.75 Q-29.45 17.5 -27.75 16.65 L-44.75 15.25 -45.4 17.85 -45.7 19.2 M-30.65 22.4 Q-27.45 19.65 -23.65 19.8 L-22.15 19.9 Q-19.4 20.25 -18.25 21.9 M-21.6 17.7 Q-24.8 18.05 -27.8 20.1 L-30.65 22.4 -33.0 24.9 Q-36.05 28.55 -38.9 34.05 -38.0 35.95 -37.3 38.35 -37.2 34.2 -35.6 30.8 -33.45 26.25 -28.6 23.1 -25.8 21.25 -22.15 19.9 M-27.75 16.65 L-21.0 17.45 -20.15 17.6 -21.1 17.65 M-35.6 30.8 Q-28.45 24.35 -19.4 26.85 M-46.8 43.85 Q-43.2 40.6 -39.4 34.9 L-38.9 34.15 -38.9 34.05 M-37.3 38.35 L-36.85 39.75 M-32.6 47.55 L-32.8 47.4 -33.15 46.65 -33.2 46.45 Q-33.2 45.9 -32.8 45.5 -32.4 45.1 -31.85 45.1 -31.3 45.1 -30.9 45.5 -30.65 45.75 -30.3 46.65 L-30.05 47.55 M-26.6 47.55 L-25.75 46.65 -24.5 45.55 Q-22.7 43.85 -20.3 42.1 L-13.55 37.2 M-7.95 35.75 L-4.4 35.55 -3.55 35.45 M-9.5 35.7 L-8.1 35.75 M-7.2 21.7 Q-8.2 23.65 -11.0 27.2 L-11.3 27.6 -12.85 29.5 -15.1 32.15 -14.25 34.85 -14.25 34.95 -14.1 35.35 -13.95 35.95 -13.55 37.15 M-13.35 37.2 L-12.35 37.45 -8.85 37.75 -8.1 37.75 M-15.45 31.1 L-15.95 29.55 -17.3 25.85 Q-22.7 20.8 -28.6 23.1 M-15.8 31.2 L-15.45 31.1 -15.1 32.15 M-14.2 35.4 L-14.25 34.95 M-14.2 35.4 L-14.1 35.35 M-14.05 35.75 L-13.95 35.95 M-14.2 35.4 L-15.8 31.2 M-17.9 24.15 L-17.3 25.85 M-42.35 5.0 L-40.6 5.45 M-42.35 5.0 L-44.25 6.55 -44.4 6.7 -44.65 6.95 -45.4 7.55 M-50.15 14.3 Q-46.8 11.05 -20.1 16.45 M2.7 -16.05 L-2.5 -13.35 M-0.3 -13.85 L0.75 -14.4" ffdec:has-small-stroke="true" ffdec:original-stroke-width="0.15" fill="none" stroke="#211a00" stroke-linecap="round" stroke-linejoin="round" stroke-opacity="0.56078434" stroke-width="0.11111111111111112"/>
    <path d="M-18.2 22.45 L-18.25 21.9 Q-17.4 20.75 -18.3 17.8 L-16.3 18.1 -12.05 18.8 Q-10.2 21.9 -7.15 21.65 -9.75 23.5 -12.1 22.7 -13.0 27.45 -12.85 29.5 L-12.8 30.95 -11.6 32.7 -11.4 32.95 -9.5 35.7 Q-9.1 36.7 -8.85 37.75 -8.0 41.1 -8.4 44.65 L-8.9 47.55 -14.5 47.55 -14.05 46.65 -13.85 46.15 -12.95 39.05 -13.35 37.85 -13.55 37.2 -13.55 37.15 -13.95 35.95 -14.1 35.35 -14.25 34.95 -14.25 34.85 -15.1 32.15 -15.45 31.1 -15.95 29.55 -17.3 25.85 -17.9 24.15 -18.2 22.45" fill="#000000" fill-opacity="0.09803922" fill-rule="evenodd" stroke="none"/>
    <path d="M5.25 23.1 L3.1 21.9 0.85 21.0 Q-1.2 20.3 -3.35 20.15 L-3.55 20.15 -3.75 20.1 -3.55 19.85 -3.5 19.8 -3.35 19.65 -2.65 18.3 -2.6 18.3 -0.35 18.75 Q1.0 19.05 2.15 19.5 L4.05 20.45 Q5.1 21.0 6.0 21.7 L7.8 23.25 9.85 25.85 10.05 26.2 10.15 26.45 10.75 27.5 10.1 26.9 9.8 26.6 8.25 25.2 8.4 25.2 8.15 25.15 Q6.85 24.05 5.5 23.25 L5.25 23.1 M16.65 28.2 L16.75 28.25 16.85 28.4 17.35 28.85 17.8 29.3 17.8 29.85 16.25 29.05 15.65 28.85 12.95 28.45 11.25 28.55 Q12.55 27.75 13.8 27.55 15.35 27.25 16.65 28.2" fill="#000000" fill-opacity="0.09803922" fill-rule="evenodd" stroke="none"/>
  </g>
  <defs>
    <linearGradient gradientTransform="matrix(0.0163, 0.0, 0.0, 0.0149, -25.25, -0.75)" gradientUnits="userSpaceOnUse" id="gradient0" spreadMethod="pad" x1="-819.2" x2="819.2">
      <stop offset="0.0" stop-color="#66635c"/>
      <stop offset="1.0" stop-color="#858179"/>
    </linearGradient>
    <linearGradient gradientTransform="matrix(0.0119, 0.0, 0.0, 0.0077, -11.45, -7.8)" gradientUnits="userSpaceOnUse" id="gradient1" spreadMethod="pad" x1="-819.2" x2="819.2">
      <stop offset="0.0" stop-color="#3f3d38"/>
      <stop offset="1.0" stop-color="#55534d"/>
    </linearGradient>
    <linearGradient gradientTransform="matrix(0.0205, 0.0, 0.0, 0.0085, -29.0, 8.6)" gradientUnits="userSpaceOnUse" id="gradient2" spreadMethod="pad" x1="-819.2" x2="819.2">
      <stop offset="0.0" stop-color="#66635c"/>
      <stop offset="1.0" stop-color="#858179"/>
    </linearGradient>
    <linearGradient gradientTransform="matrix(-0.0039, 0.0145, -0.0173, -0.0046, -43.1, 29.05)" gradientUnits="userSpaceOnUse" id="gradient3" spreadMethod="pad" x1="-819.2" x2="819.2">
      <stop offset="0.0" stop-color="#614641"/>
      <stop offset="1.0" stop-color="#75554e"/>
    </linearGradient>
    <linearGradient gradientTransform="matrix(-0.0221, 0.0101, -0.0079, -0.0174, -32.05, 28.05)" gradientUnits="userSpaceOnUse" id="gradient4" spreadMethod="pad" x1="-819.2" x2="819.2">
      <stop offset="0.0" stop-color="#614641"/>
      <stop offset="1.0" stop-color="#75554e"/>
    </linearGradient>
    <linearGradient gradientTransform="matrix(0.0016, 0.0, 0.0, 0.0016, -31.85, 46.45)" gradientUnits="userSpaceOnUse" id="gradient5" spreadMethod="pad" x1="-819.2" x2="819.2">
      <stop offset="0.0" stop-color="#80614e"/>
      <stop offset="1.0" stop-color="#96725b"/>
    </linearGradient>
    <linearGradient gradientTransform="matrix(0.009, 0.013, -0.0065, 0.0045, 13.35, 34.85)" gradientUnits="userSpaceOnUse" id="gradient6" spreadMethod="pad" x1="-819.2" x2="819.2">
      <stop offset="0.0" stop-color="#80614e"/>
      <stop offset="1.0" stop-color="#96725b"/>
    </linearGradient>
    <linearGradient gradientTransform="matrix(0.0055, 0.0, 0.0, 0.0055, 11.7, 8.25)" gradientUnits="userSpaceOnUse" id="gradient7" spreadMethod="pad" x1="-819.2" x2="819.2">
      <stop offset="0.0" stop-color="#3f3d38"/>
      <stop offset="1.0" stop-color="#55534d"/>
    </linearGradient>
  </defs>
</svg>
