<?xml version="1.0" encoding="UTF-8" standalone="no"?>
<svg xmlns:ffdec="https://www.free-decompiler.com/flash" xmlns:xlink="http://www.w3.org/1999/xlink" ffdec:objectType="frame" height="77.25px" width="81.15px" xmlns="http://www.w3.org/2000/svg">
  <g transform="matrix(3.0, 0.0, 0.0, 3.0, 38.25, 62.25)">
    <use ffdec:characterId="22" height="25.75" transform="matrix(-1.0018, 0.0, 0.0, 1.0019, 0.0, 0.0)" width="27.05" xlink:href="#sprite0"/>
  </g>
  <defs>
    <g id="sprite0">
      <use ffdec:characterId="2" height="5.9" transform="matrix(1.0, 0.0, 0.0, 1.0, 0.0, 0.0)" width="24.75" xlink:href="#sprite1"/>
      <use ffdec:characterId="18" height="19.95" transform="matrix(1.0, 0.0, 0.0, 1.0, -3.2, -1.3)" width="27.05" xlink:href="#sprite2"/>
      <use ffdec:characterId="20" height="15.1" transform="matrix(1.0, 0.0, 0.0, 1.0, -0.6, -13.2)" width="25.75" xlink:href="#sprite3"/>
      <use ffdec:characterId="21" height="4.95" transform="matrix(1.0, 0.0, 0.0, 1.0, 7.25, -4.95)" width="5.9" xlink:href="#sprite4"/>
    </g>
    <g id="sprite1">
      <use ffdec:characterId="1" height="5.9" transform="matrix(1.0, 0.0, 0.0, 1.0, 0.0, 0.0)" width="24.75" xlink:href="#shape0"/>
    </g>
    <g id="shape0">
      <path d="M0.0 -2.95 L8.8 -2.1 Q12.4 -1.2 12.4 0.0 12.4 1.2 8.8 2.05 L0.0 2.95 Q-5.15 2.95 -8.7 2.05 -12.4 1.2 -12.35 0.0 -12.4 -1.2 -8.7 -2.1 L0.0 -2.95" fill="#000000" fill-rule="evenodd" stroke="none"/>
    </g>
    <g id="sprite2">
      <use ffdec:characterId="17" height="19.95" transform="matrix(1.0, 0.0, 0.0, 1.0, 0.0, 0.0)" width="27.05" xlink:href="#shape1"/>
    </g>
    <g id="shape1">
      <path d="M3.3 -4.15 L4.1 -4.55 3.3 -4.15 3.3 -4.8 4.1 -4.55 5.2 -4.25 5.2 5.7 Q-2.55 2.9 -10.4 1.0 -9.7 -3.85 -10.4 -8.9 L-8.5 -8.3 -8.5 -5.1 -8.5 -3.4 -8.5 -2.25 -8.5 -0.1 3.3 3.5 3.35 1.35 3.35 -1.65 3.3 -3.95 3.3 -4.15" fill="#827c79" fill-rule="evenodd" stroke="none"/>
      <path d="M5.2 5.7 L5.2 -4.25 6.45 -4.7 6.9 -4.9 6.85 -4.6 6.45 -4.7 6.85 -4.6 6.65 -1.8 Q6.55 -0.35 6.7 1.0 6.75 2.15 6.95 3.3 L13.55 -0.7 13.55 -2.95 13.55 -5.7 13.55 -8.35 15.1 -9.2 15.1 -0.25 5.2 5.7" fill="#453d31" fill-rule="evenodd" stroke="none"/>
      <path d="M3.35 -1.65 L3.35 1.35 -0.25 0.3 -0.4 -2.7 3.35 -1.65" fill="#775f52" fill-rule="evenodd" stroke="none"/>
      <path d="M3.3 -4.15 L3.3 -3.95 3.35 -1.65 -0.4 -2.7 -1.0 -2.9 -2.85 -4.25 -3.4 -3.6 -3.45 -3.55 -3.95 -3.75 -3.4 -3.6 -3.95 -3.75 -8.5 -5.1 -8.5 -8.3 3.3 -4.8 3.3 -4.15 M3.35 1.35 L3.3 3.5 -8.5 -0.1 -8.5 -2.25 -0.55 0.2 -0.25 0.3 3.35 1.35 M15.1 -9.2 L12.85 -9.1 -0.8 -12.85 -0.8 -13.65 15.1 -9.2" fill="#7b5a46" fill-rule="evenodd" stroke="none"/>
      <path d="M-8.5 -2.25 L-8.5 -3.4 -8.5 -5.1 -3.95 -3.75 -3.45 -3.55 -3.4 -3.6 -1.0 -2.9 -0.55 0.2 -8.5 -2.25 M6.9 -4.9 L6.45 -4.7 5.15 -5.1 12.85 -9.1 15.1 -9.2 13.55 -8.35 8.75 -5.8 6.9 -4.9 M-5.4 -2.5 L-8.5 -3.4 -5.4 -2.5 M-2.35 -1.4 L-4.35 -2.0 -2.35 -1.4" fill="#806859" fill-rule="evenodd" stroke="none"/>
      <path d="M6.85 -4.6 L6.9 -4.9 8.75 -5.8 8.4 -2.8 6.65 -1.8 8.4 -2.8 13.55 -5.7 13.55 -2.95 6.7 1.0 Q6.55 -0.35 6.65 -1.8 L6.85 -4.6 7.35 -4.45 6.85 -4.6 M-8.15 -9.0 L-9.4 -9.35 -0.8 -13.65 -0.8 -12.85 -8.15 -9.0" fill="#886548" fill-rule="evenodd" stroke="none"/>
      <path d="M-8.5 -8.3 L-10.4 -8.9 -9.4 -9.35 -8.15 -9.0 -0.8 -6.85 5.15 -5.1 4.1 -4.55 3.3 -4.8 -8.5 -8.3 M8.4 -2.8 L8.75 -5.8 13.55 -8.35 13.55 -5.7 8.4 -2.8" fill="#7b5952" fill-rule="evenodd" stroke="none"/>
      <path d="M13.55 -2.95 L13.55 -0.7 6.95 3.3 Q6.75 2.15 6.7 1.0 L13.55 -2.95" fill="#614737" fill-rule="evenodd" stroke="none"/>
      <path d="M-3.4 -3.6 L-2.85 -4.25 -1.0 -2.9 -3.4 -3.6" fill="#463328" fill-rule="evenodd" stroke="none"/>
      <path d="M-1.0 -2.9 L-0.4 -2.7 -0.25 0.3 -0.55 0.2 -1.0 -2.9" fill="#453830" fill-rule="evenodd" stroke="none"/>
      <path d="M12.85 -9.1 L5.15 -5.1 -0.8 -6.85 -0.8 -12.85 12.85 -9.1" fill="#37281f" fill-rule="evenodd" stroke="none"/>
      <path d="M-0.8 -6.85 L-8.15 -9.0 -0.8 -12.85 -0.8 -6.85" fill="#251b15" fill-rule="evenodd" stroke="none"/>
      <path d="M5.2 -4.25 L4.1 -4.55 5.15 -5.1 6.45 -4.7 5.2 -4.25" fill="#524239" fill-rule="evenodd" stroke="none"/>
      <path d="M4.1 -4.55 L3.3 -4.15 3.3 -3.95 M3.3 3.5 L-8.5 -0.1 -8.5 -2.25 -8.5 -3.4 -8.5 -5.1 -8.5 -8.3 -10.4 -8.9 Q-9.7 -3.85 -10.4 1.0 -2.55 2.9 5.2 5.7 L15.1 -0.25 15.1 -9.2 13.55 -8.35 13.55 -5.7 13.55 -2.95 13.55 -0.7 6.95 3.3 Q6.75 2.15 6.7 1.0 L13.55 -2.95 M5.2 -4.25 L4.1 -4.55 3.3 -4.8 M6.85 -4.6 L6.9 -4.9 6.45 -4.7 6.85 -4.6 7.35 -4.45 M5.15 -5.1 L6.45 -4.7 5.2 -4.25 M6.7 1.0 Q6.55 -0.35 6.65 -1.8 L6.85 -4.6 M6.65 -1.8 L8.4 -2.8 8.75 -5.8 M-8.15 -9.0 L-9.4 -9.35 -10.4 -8.9 M4.1 -4.55 L5.15 -5.1 M13.55 -5.7 L8.4 -2.8 M-8.5 -3.4 L-5.4 -2.5 M-1.0 -2.9 L-2.85 -4.25 -3.4 -3.6 -1.0 -2.9 -0.4 -2.7 3.35 -1.65 M-3.95 -3.75 L-3.45 -3.55 -3.4 -3.6 -3.95 -3.75 -8.5 -5.1 M-4.35 -2.0 L-2.35 -1.4 M-9.4 -9.35 L-0.8 -13.65 15.1 -9.2 M-0.55 0.2 L-0.25 0.3 3.35 1.35 M-8.5 -2.25 L-0.55 0.2" ffdec:has-small-stroke="true" ffdec:original-stroke-width="0.15" fill="none" stroke="#000000" stroke-linecap="round" stroke-linejoin="round" stroke-opacity="0.29803923" stroke-width="0.33270636182684327"/>
      <path d="M5.25 3.35 L6.25 2.9 Q6.4 3.9 7.25 4.0 L7.25 5.2 Q6.45 5.95 5.25 6.3 L5.25 3.35" fill="#27221c" fill-rule="evenodd" stroke="none"/>
      <path d="M5.25 6.3 Q3.95 6.2 3.0 5.55 L2.95 4.3 Q4.0 4.1 4.25 3.1 L5.25 3.35 5.25 6.3" fill="#5e5343" fill-rule="evenodd" stroke="none"/>
      <path d="M5.25 3.35 L6.25 2.9 Q6.4 3.9 7.25 4.0 L7.25 5.2 Q6.45 5.95 5.25 6.3 3.95 6.2 3.0 5.55 L2.95 4.3 Q4.0 4.1 4.25 3.1 L5.25 3.35 Z" ffdec:has-small-stroke="true" ffdec:original-stroke-width="0.15" fill="none" stroke="#000000" stroke-linecap="round" stroke-linejoin="round" stroke-opacity="0.02745098" stroke-width="0.33270636182684327"/>
      <path d="M-8.85 -8.85 L-8.85 -7.65 Q-9.7 -7.45 -9.85 -6.4 L-10.85 -6.75 Q-11.3 -8.2 -10.85 -9.7 -10.35 -8.9 -8.85 -8.85" fill="#27221c" fill-rule="evenodd" stroke="none"/>
      <path d="M-8.85 -8.85 Q-10.35 -8.9 -10.85 -9.7 L-9.4 -10.35 -8.15 -10.05 -9.3 -9.6 -7.85 -9.3 -8.85 -8.85" fill="#827c79" fill-rule="evenodd" stroke="none"/>
      <path d="M-10.85 -9.7 Q-11.3 -8.2 -10.85 -6.75 L-9.85 -6.4 Q-9.7 -7.45 -8.85 -7.65 L-8.85 -8.85 M-10.85 -9.7 L-9.4 -10.35 -8.15 -10.05" ffdec:has-small-stroke="true" ffdec:original-stroke-width="0.15" fill="none" stroke="#000000" stroke-linecap="round" stroke-linejoin="round" stroke-opacity="0.02745098" stroke-width="0.33270636182684327"/>
      <path d="M-9.75 -1.25 Q-9.6 -0.15 -8.75 0.65 L-8.75 1.85 Q-9.55 1.95 -10.75 1.35 -11.15 -0.05 -10.75 -1.6 L-9.75 -1.25" fill="#27221c" fill-rule="evenodd" stroke="none"/>
      <path d="M-9.75 -1.25 Q-9.6 -0.15 -8.75 0.65 L-8.75 1.85 Q-9.55 1.95 -10.75 1.35 -11.15 -0.05 -10.75 -1.6 L-9.75 -1.25 Z" ffdec:has-small-stroke="true" ffdec:original-stroke-width="0.15" fill="none" stroke="#000000" stroke-linecap="round" stroke-linejoin="round" stroke-opacity="0.29803923" stroke-width="0.33270636182684327"/>
      <path d="M15.75 -10.4 Q16.15 -9.0 15.65 -7.35 L14.75 -6.9 Q14.6 -7.95 13.75 -8.15 L13.75 -9.35 Q15.15 -9.4 15.75 -10.4" fill="#27221c" fill-rule="evenodd" stroke="none"/>
      <path d="M13.75 -9.35 L12.95 -9.6 14.1 -10.2 12.95 -10.55 13.9 -10.95 15.75 -10.4 Q15.15 -9.4 13.75 -9.35" fill="#827c79" fill-rule="evenodd" stroke="none"/>
      <path d="M15.75 -10.4 Q16.15 -9.0 15.65 -7.35 L14.75 -6.9 Q14.6 -7.95 13.75 -8.15 M12.95 -10.55 L13.9 -10.95 15.75 -10.4" ffdec:has-small-stroke="true" ffdec:original-stroke-width="0.15" fill="none" stroke="#000000" stroke-linecap="round" stroke-linejoin="round" stroke-opacity="0.29803923" stroke-width="0.33270636182684327"/>
      <path d="M5.2 -1.95 L4.2 -2.2 Q4.0 -3.25 3.0 -3.95 L3.05 -5.25 5.2 -4.7 5.2 -1.95" fill="#5e5343" fill-rule="evenodd" stroke="none"/>
      <path d="M3.05 -5.25 L4.2 -5.8 5.25 -5.5 6.15 -5.8 7.15 -5.45 5.2 -4.7 3.05 -5.25" fill="#827c79" fill-rule="evenodd" stroke="none"/>
      <path d="M7.15 -5.45 L7.2 -4.25 Q6.6 -4.0 6.3 -2.4 L5.2 -1.95 5.2 -4.7 7.15 -5.45" fill="#27221c" fill-rule="evenodd" stroke="none"/>
      <path d="M5.2 -1.95 L4.2 -2.2 Q4.0 -3.25 3.0 -3.95 L3.05 -5.25 M7.15 -5.45 L7.2 -4.25 Q6.6 -4.0 6.3 -2.4 L5.2 -1.95" ffdec:has-small-stroke="true" ffdec:original-stroke-width="0.15" fill="none" stroke="#000000" stroke-linecap="round" stroke-linejoin="round" stroke-opacity="0.29803923" stroke-width="0.33270636182684327"/>
      <path d="M14.85 -2.5 L15.55 -2.95 Q15.9 -1.4 15.55 0.0 14.4 1.05 13.85 1.0 L13.85 -0.2 Q14.65 -1.0 14.85 -2.5" fill="#27221c" fill-rule="evenodd" stroke="none"/>
      <path d="M14.85 -2.5 Q14.65 -1.0 13.85 -0.2 L13.85 1.0 Q14.4 1.05 15.55 0.0 15.9 -1.4 15.55 -2.95 L14.85 -2.5 Z" ffdec:has-small-stroke="true" ffdec:original-stroke-width="0.15" fill="none" stroke="#000000" stroke-linecap="round" stroke-linejoin="round" stroke-opacity="0.29803923" stroke-width="0.33270636182684327"/>
    </g>
    <g id="sprite3">
      <use ffdec:characterId="19" height="15.1" transform="matrix(1.0, 0.0, 0.0, 1.0, 0.0, 0.0)" width="25.75" xlink:href="#shape2"/>
    </g>
    <g id="shape2">
      <path d="M2.5 7.55 Q2.35 3.85 3.3 1.15 5.0 -3.55 9.2 -4.2 12.5 -3.35 12.9 2.2 L2.5 7.55 M11.3 -0.8 Q10.0 -3.85 6.95 -1.95 4.75 -0.25 3.95 3.05 3.7 4.05 3.6 5.55 L11.85 1.2 11.3 -0.8" fill="#453d31" fill-rule="evenodd" stroke="none"/>
      <path d="M3.95 3.05 Q4.75 -0.25 6.95 -1.95 10.0 -3.85 11.3 -0.8 L3.95 3.05" fill="#886548" fill-rule="evenodd" stroke="none"/>
      <path d="M1.2 2.35 Q1.65 0.5 2.45 -0.85 L3.45 -2.15 Q5.0 -4.05 7.25 -4.7 L9.2 -4.2 Q5.0 -3.55 3.3 1.15 2.35 3.85 2.5 7.55 L0.7 7.2 Q-4.05 6.05 -11.1 3.55 L-12.75 2.95 Q-13.15 0.85 -12.2 -2.05 -10.7 -6.5 -5.95 -7.55 L-4.15 -7.3 Q-6.85 -6.7 -8.45 -5.05 L-9.35 -3.95 Q-10.25 -2.65 -10.7 -0.8 L-10.9 0.15 -11.05 1.9 Q-7.05 3.6 0.75 5.45 L0.95 3.6 1.2 2.35" fill="#827c79" fill-rule="evenodd" stroke="none"/>
      <path d="M-8.45 -5.05 Q-6.85 -6.7 -4.15 -7.3 L-0.1 -6.5 -4.8 -4.4 -8.45 -5.05 M7.25 -4.7 Q5.0 -4.05 3.45 -2.15 0.25 -3.3 -3.45 -4.1 L-0.1 -6.5 7.25 -4.7" fill="#775f52" fill-rule="evenodd" stroke="none"/>
      <path d="M3.45 -2.15 L2.45 -0.85 Q1.65 0.5 1.2 2.35 L-10.7 -0.8 Q-10.25 -2.65 -9.35 -3.95 L-8.45 -5.05 -4.8 -4.4 -3.45 -4.1 Q0.25 -3.3 3.45 -2.15 M-2.85 -2.4 L-8.5 -3.4 -2.85 -2.4 M0.6 0.85 Q-1.6 -0.1 -3.65 -0.3 -1.6 -0.1 0.6 0.85" fill="#7b5a46" fill-rule="evenodd" stroke="none"/>
      <path d="M11.3 -0.8 L11.85 1.2 3.6 5.55 Q3.7 4.05 3.95 3.05 L11.3 -0.8" fill="#7b5952" fill-rule="evenodd" stroke="none"/>
      <path d="M1.2 2.35 L0.95 3.6 0.75 5.45 Q-7.05 3.6 -11.05 1.9 L-10.9 0.15 -10.7 -0.8 1.2 2.35" fill="#806859" fill-rule="evenodd" stroke="none"/>
      <path d="M-3.45 -4.1 L-4.8 -4.4 -0.1 -6.5 -3.45 -4.1" fill="#524239" fill-rule="evenodd" stroke="none"/>
      <path d="M3.45 -2.15 L2.45 -0.85 Q1.65 0.5 1.2 2.35 L0.95 3.6 0.75 5.45 Q-7.05 3.6 -11.05 1.9 L-10.9 0.15 -10.7 -0.8 Q-10.25 -2.65 -9.35 -3.95 L-8.45 -5.05 Q-6.85 -6.7 -4.15 -7.3 L-5.95 -7.55 Q-10.7 -6.5 -12.2 -2.05 -13.15 0.85 -12.75 2.95 L-11.1 3.55 Q-4.05 6.05 0.7 7.2 L2.5 7.55 12.9 2.2 Q12.5 -3.35 9.2 -4.2 L7.25 -4.7 Q5.0 -4.05 3.45 -2.15 0.25 -3.3 -3.45 -4.1 L-4.8 -4.4 -8.45 -5.05 M3.95 3.05 Q4.75 -0.25 6.95 -1.95 10.0 -3.85 11.3 -0.8 L11.85 1.2 3.6 5.55 Q3.7 4.05 3.95 3.05 L11.3 -0.8 M-0.1 -6.5 L-4.15 -7.3 M-8.5 -3.4 L-2.85 -2.4 M7.25 -4.7 L-0.1 -6.5 M-3.65 -0.3 Q-1.6 -0.1 0.6 0.85 M1.2 2.35 L-10.7 -0.8" ffdec:has-small-stroke="true" ffdec:original-stroke-width="0.15" fill="none" stroke="#000000" stroke-linecap="round" stroke-linejoin="round" stroke-opacity="0.29803923" stroke-width="0.33270636182684327"/>
      <path d="M-8.0 4.25 Q-8.0 3.4 -7.6 2.75 -7.1 1.8 -6.25 1.75 -5.45 1.7 -4.75 2.55 -4.1 3.4 -3.95 4.7 L-3.95 5.5 -8.0 4.25" fill="#5e5343" fill-rule="evenodd" stroke="none"/>
      <path d="M-8.0 4.25 Q-8.0 3.4 -7.6 2.75 -7.1 1.8 -6.25 1.75 -5.45 1.7 -4.75 2.55 -4.1 3.4 -3.95 4.7 L-3.95 5.5" ffdec:has-small-stroke="true" ffdec:original-stroke-width="0.15" fill="none" stroke="#000000" stroke-linecap="round" stroke-linejoin="round" stroke-opacity="0.29803923" stroke-width="0.33270636182684327"/>
      <path d="M-4.6 7.1 L-7.55 6.1 -7.55 4.4 -4.6 5.35 -4.6 7.1" fill="#27221c" fill-rule="evenodd" stroke="none"/>
      <path d="M-4.6 7.1 L-7.55 6.1 -7.55 4.4 -4.6 5.35 -4.6 7.1 Z" ffdec:has-small-stroke="true" ffdec:original-stroke-width="0.15" fill="none" stroke="#000000" stroke-linecap="round" stroke-linejoin="round" stroke-opacity="0.29803923" stroke-width="0.33270636182684327"/>
    </g>
    <g id="sprite4">
      <use ffdec:characterId="7" height="4.95" transform="matrix(1.0, 0.0, 0.0, 1.0, 0.0, 0.0)" width="5.9" xlink:href="#shape3"/>
    </g>
    <g id="shape3">
      <path d="M1.1 -1.25 L2.1 -0.7 3.15 -0.15 2.45 0.25 2.25 0.3 1.1 -0.3 1.1 -1.25 M-0.45 3.4 L-1.45 1.8 -1.45 0.25 -0.1 1.65 -0.45 3.4" fill="#453d31" fill-rule="evenodd" stroke="none"/>
      <path d="M1.1 -1.25 L2.1 -1.55 2.1 -0.7 1.1 -1.25 M2.45 0.25 L3.15 -0.15 3.0 1.4 -0.45 3.4 -0.1 1.65 2.45 0.25 M-1.45 1.8 L-2.75 2.05 -2.75 1.2 -1.45 0.25 -1.45 1.8" fill="#827c79" fill-rule="evenodd" stroke="none"/>
      <path d="M2.1 -1.55 L1.1 -1.25 M3.15 -0.15 L3.0 1.4 -0.45 3.4 -1.45 1.8 M-2.75 2.05 L-2.75 1.2 -1.45 0.25" ffdec:has-small-stroke="true" ffdec:original-stroke-width="0.15" fill="none" stroke="#010203" stroke-linecap="round" stroke-linejoin="round" stroke-opacity="0.29803923" stroke-width="0.33270636182684327"/>
    </g>
  </defs>
</svg>
