<?xml version="1.0" encoding="UTF-8" standalone="no"?>
<svg xmlns:ffdec="https://www.free-decompiler.com/flash" xmlns:xlink="http://www.w3.org/1999/xlink" ffdec:objectType="frame" height="163.05px" width="80.7px" xmlns="http://www.w3.org/2000/svg">
  <g transform="matrix(3.0, 0.0, 0.0, 3.0, 38.25, 156.0)">
    <use ffdec:characterId="1" height="4.9" transform="matrix(1.0, 0.0, 0.0, 1.0, 0.0, 0.0)" width="11.45" xlink:href="#shape0"/>
    <use ffdec:characterId="3" height="118.05" transform="matrix(0.2175, -0.0776, 0.0, 0.3714, 0.7, -25.3)" width="123.95" xlink:href="#sprite0"/>
  </g>
  <defs>
    <g id="shape0">
      <path d="M7.35 -2.05 Q7.35 -2.65 5.7 -2.5 4.0 -2.35 1.65 -1.5 -0.75 -0.7 -2.4 0.3 -4.1 1.3 -4.1 1.9 -4.1 2.5 -2.4 2.3 L1.65 1.35 Q4.0 0.55 5.7 -0.45 7.35 -1.45 7.35 -2.05" fill="#422d00" fill-opacity="0.5019608" fill-rule="evenodd" stroke="none"/>
    </g>
    <g id="sprite0">
      <use ffdec:characterId="2" height="118.05" transform="matrix(1.0, 0.0, 0.0, 1.0, 0.0, 0.0)" width="123.95" xlink:href="#shape1"/>
    </g>
    <g id="shape1">
      <path d="M13.65 30.75 Q25.25 20.9 30.5 5.8 29.65 17.6 21.0 26.2 L17.1 29.65 13.65 30.75" fill="url(#gradient0)" fill-rule="evenodd" stroke="none"/>
      <path d="M6.85 35.75 L5.25 36.7 Q3.7 36.55 2.35 36.05 L2.15 35.95 6.85 35.75" fill="url(#gradient1)" fill-rule="evenodd" stroke="none"/>
      <path d="M-36.85 -15.55 L-36.15 -18.25 -35.25 -19.2 -33.9 -21.1 -33.1 -22.8 Q-29.65 -24.9 -26.5 -27.35 -19.5 -32.65 -11.7 -33.95 11.8 -38.3 23.3 -20.1 24.7 -17.9 25.6 -15.5 L26.4 -13.0 Q27.45 -8.85 26.95 -4.35 L26.5 -3.7 25.45 -3.2 25.15 -3.15 23.45 -7.65 Q20.25 -16.75 12.5 -23.1 -3.5 -30.15 -17.95 -25.4 -21.75 -24.15 -25.45 -22.05 -28.4 -20.45 -31.3 -18.25 L-32.25 -17.4 Q-35.9 -14.15 -38.6 -10.15 -39.55 -8.7 -40.85 -7.95 L-42.5 -7.4 -42.0 -8.15 -39.8 -10.5 -38.3 -12.65 Q-37.4 -14.05 -36.85 -15.55" fill="url(#gradient2)" fill-rule="evenodd" stroke="none"/>
      <path d="M-28.3 46.25 L-27.4 45.15 -25.2 47.15 -23.8 48.3 Q-20.6 50.8 -17.15 52.45 L-16.85 52.55 Q-7.45 56.8 3.8 54.5 24.55 50.15 39.65 36.3 41.5 34.6 42.95 32.25 59.8 5.2 57.95 -26.35 57.7 -30.55 57.05 -34.65 L56.95 -35.25 Q55.75 -42.25 53.4 -49.05 L53.85 -49.05 Q60.1 -35.15 61.05 -20.05 L61.1 -19.15 62.0 -18.25 Q62.35 9.8 47.35 32.85 37.6 47.85 20.2 53.0 9.15 56.3 -2.2 58.5 -12.2 60.45 -20.15 54.65 -24.25 51.65 -27.75 48.15 L-28.9 46.95 -28.3 46.25" fill="url(#gradient3)" fill-rule="evenodd" stroke="none"/>
      <path d="M47.25 -17.9 Q38.5 -42.85 10.45 -50.3 -10.8 -55.9 -31.0 -47.55 L-32.8 -48.15 Q-44.25 -45.05 -52.55 -36.75 L-54.3 -34.95 Q-56.55 -32.45 -59.4 -31.55 L-55.8 -35.65 -55.3 -36.1 Q-50.4 -41.15 -44.2 -45.0 -39.45 -47.9 -34.0 -49.65 -20.65 -58.45 -4.45 -59.05 33.1 -59.9 48.4 -27.8 50.6 -23.15 52.95 -11.6 L52.55 -10.8 51.75 -9.8 51.7 -9.8 52.95 -11.6 51.7 -9.8 50.2 -9.8 Q49.75 -10.25 52.95 -11.6 L49.3 -10.7 Q48.45 -14.45 47.25 -17.9" fill="url(#gradient4)" fill-rule="evenodd" stroke="none"/>
      <path d="M-44.75 -38.6 Q-37.0 -46.1 -25.55 -47.25 L-22.55 -47.85 Q-14.05 -47.2 -6.5 -43.75 L-5.75 -43.4 -5.5 -43.2 -5.05 -42.7 Q-4.9 -42.25 -5.05 -42.05 -5.65 -41.2 -6.55 -40.6 L-7.8 -41.45 -8.95 -42.1 Q-29.35 -45.3 -43.7 -30.65 -49.75 -24.45 -51.75 -16.05 -56.85 5.35 -49.55 25.4 -48.0 29.65 -45.25 33.35 -38.25 42.75 -28.3 46.25 L-28.9 46.95 -27.75 48.15 -38.25 46.95 Q-61.25 34.25 -61.95 7.7 -62.55 -16.85 -47.7 -35.4 L-44.75 -38.6 M-25.2 47.15 Q-20.55 48.3 -15.3 48.3 L-23.8 48.3 -25.2 47.15" fill="url(#gradient5)" fill-rule="evenodd" stroke="none"/>
      <path d="M-36.85 -15.55 Q-37.4 -14.05 -38.3 -12.65 L-39.8 -10.5 Q-38.6 -13.1 -36.85 -15.55 M-40.85 -7.95 Q-39.55 -8.7 -38.6 -10.15 -35.9 -14.15 -32.25 -17.4 L-31.3 -18.25 Q-28.4 -20.45 -25.45 -22.05 -28.15 -17.05 -32.7 -11.9 -35.15 -9.1 -35.45 -5.3 L-35.6 2.1 Q-35.35 10.1 -32.95 17.7 -30.5 25.65 -25.75 33.2 L-23.9 35.65 Q-22.2 37.6 -19.95 39.05 L-19.05 39.55 -19.0 39.6 Q-3.8 48.15 12.95 42.35 18.85 40.3 24.85 39.1 15.15 45.05 4.85 47.1 -5.45 49.1 -16.35 47.25 -20.0 46.65 -23.1 44.5 -31.85 38.4 -36.05 29.45 -37.95 25.35 -38.95 20.6 L-39.0 20.3 Q-39.6 17.45 -40.55 14.5 -44.5 2.15 -40.85 -7.95" fill="url(#gradient6)" fill-rule="evenodd" stroke="none"/>
      <path d="M-32.55 14.9 L-32.95 17.7 Q-35.35 10.1 -35.6 2.1 L-34.4 -1.2 Q-31.6 -8.0 -27.15 -14.4 -20.4 -24.15 -9.25 -24.9 L-7.85 -24.15 -7.15 -23.4 Q-7.0 -22.5 -7.0 -21.6 L-7.15 -20.7 Q-23.65 -10.5 -30.75 8.5 -32.0 11.85 -32.55 14.9 M-23.9 35.65 Q-20.55 37.8 -15.9 39.4 L-17.4 39.7 -18.95 39.35 -19.95 39.05 Q-22.2 37.6 -23.9 35.65 M-36.05 29.45 L-38.85 26.1 -38.95 20.6 Q-37.95 25.35 -36.05 29.45" fill="url(#gradient7)" fill-rule="evenodd" stroke="none"/>
      <path d="M6.85 32.35 L10.9 31.5 13.65 30.75 17.1 29.65 Q24.2 27.0 30.4 22.7 39.6 16.35 41.75 5.4 L41.75 5.25 41.95 4.45 42.85 2.65 41.95 4.45 42.85 2.65 Q43.4 1.95 44.2 1.65 L40.05 16.2 39.95 17.05 Q28.7 33.95 7.1 35.7 L6.85 35.75 2.15 35.95 -2.85 35.8 -9.55 35.0 Q-14.45 34.15 -19.25 32.5 -24.9 30.55 -26.8 25.5 L-26.7 24.5 Q-26.3 23.2 -24.35 23.4 -12.0 35.6 6.85 32.35" fill="url(#gradient8)" fill-rule="evenodd" stroke="none"/>
      <path d="M-17.95 -25.4 Q-3.5 -30.15 12.5 -23.1 20.25 -16.75 23.45 -7.65 L25.15 -3.15 25.45 -3.2 Q24.05 7.0 19.55 16.5 14.8 26.45 6.85 32.35 -12.0 35.6 -24.35 23.4 -26.3 23.2 -26.7 24.5 -30.6 20.05 -32.55 14.9 -32.0 11.85 -30.75 8.5 -23.65 -10.5 -7.15 -20.7 L-7.0 -21.6 Q-7.0 -22.5 -7.15 -23.4 L-7.85 -24.15 -9.25 -24.9 Q-20.4 -24.15 -27.15 -14.4 -31.6 -8.0 -34.4 -1.2 -33.05 -11.95 -25.1 -19.9 -21.75 -23.25 -17.95 -25.4" fill="url(#gradient9)" fill-rule="evenodd" stroke="none"/>
      <path d="M25.45 -3.2 L26.5 -3.7 26.95 -4.35 Q27.45 -8.85 26.4 -13.0 L25.6 -15.5 Q24.7 -17.9 23.3 -20.1 11.8 -38.3 -11.7 -33.95 -19.5 -32.65 -26.5 -27.35 -29.65 -24.9 -33.1 -22.8 L-33.9 -21.1 -35.25 -19.2 -36.15 -18.25 -36.85 -15.55 Q-38.6 -13.1 -39.8 -10.5 L-42.0 -8.15 -42.5 -7.4 -40.85 -7.95 Q-44.5 2.15 -40.55 14.5 -39.6 17.45 -39.0 20.3 L-38.95 20.6 -38.85 26.1 -36.05 29.45 Q-31.85 38.4 -23.1 44.5 -20.0 46.65 -16.35 47.25 -5.45 49.1 4.85 47.1 15.15 45.05 24.85 39.1 18.85 40.3 12.95 42.35 -3.8 48.15 -19.0 39.6 L-19.05 39.55 -19.95 39.05 -18.95 39.35 -17.4 39.7 -15.9 39.4 Q-20.55 37.8 -23.9 35.65 L-25.75 33.2 Q-30.5 25.65 -32.95 17.7 L-32.55 14.9 Q-30.6 20.05 -26.7 24.5 L-26.8 25.5 Q-24.9 30.55 -19.25 32.5 -14.45 34.15 -9.55 35.0 L-2.85 35.8 2.15 35.95 2.35 36.05 Q3.7 36.55 5.25 36.7 L6.85 35.75 7.1 35.7 Q28.7 33.95 39.95 17.05 L40.05 16.2 44.2 1.65 Q43.4 1.95 42.85 2.65 L51.7 -9.8 51.75 -9.8 52.55 -10.8 52.95 -11.6 Q56.55 -23.25 57.05 -34.65 57.7 -30.55 57.95 -26.35 59.8 5.2 42.95 32.25 41.5 34.6 39.65 36.3 24.55 50.15 3.8 54.5 -7.45 56.8 -16.85 52.55 L-17.15 52.45 Q-20.6 50.8 -23.8 48.3 L-15.3 48.3 Q-20.55 48.3 -25.2 47.15 L-27.4 45.15 -28.3 46.25 Q-38.25 42.75 -45.25 33.35 -48.0 29.65 -49.55 25.4 -56.85 5.35 -51.75 -16.05 -49.75 -24.45 -43.7 -30.65 -29.35 -45.3 -8.95 -42.1 L-7.8 -41.45 -6.55 -40.6 Q-5.65 -41.2 -5.05 -42.05 -4.9 -42.25 -5.05 -42.7 L-5.5 -43.2 -5.75 -43.4 -6.5 -43.75 Q-14.05 -47.2 -22.55 -47.85 L-25.55 -47.25 Q-37.0 -46.1 -44.75 -38.6 L-52.55 -36.75 Q-44.25 -45.05 -32.8 -48.15 L-31.0 -47.55 Q-10.8 -55.9 10.45 -50.3 38.5 -42.85 47.25 -17.9 L41.95 4.45 41.75 5.25 41.75 5.4 Q39.6 16.35 30.4 22.7 24.2 27.0 17.1 29.65 L21.0 26.2 Q29.65 17.6 30.5 5.8 25.25 20.9 13.65 30.75 L10.9 31.5 6.85 32.35 Q14.8 26.45 19.55 16.5 24.05 7.0 25.45 -3.2" fill="#de765e" fill-rule="evenodd" stroke="none"/>
      <path d="M57.05 -34.65 Q56.55 -23.25 52.95 -11.6 L51.7 -9.8 42.85 2.65 41.95 4.45 M57.05 -34.65 L56.95 -35.25" ffdec:has-small-stroke="true" ffdec:original-stroke-width="0.15" fill="none" stroke="#df7861" stroke-linecap="round" stroke-linejoin="round" stroke-width="1.1726206868883795"/>
    </g>
    <radialGradient cx="0" cy="0" gradientTransform="matrix(0.0408, 0.0, 0.0, 0.0408, -2.05, 3.15)" gradientUnits="userSpaceOnUse" id="gradient0" r="819.2" spreadMethod="pad">
      <stop offset="0.13725490196078433" stop-color="#ff882d"/>
      <stop offset="0.9215686274509803" stop-color="#e1a62d" stop-opacity="0.0"/>
    </radialGradient>
    <radialGradient cx="0" cy="0" gradientTransform="matrix(0.0546, 0.0, 0.0, 0.0546, 11.85, -3.9)" gradientUnits="userSpaceOnUse" id="gradient1" r="819.2" spreadMethod="pad">
      <stop offset="0.13725490196078433" stop-color="#ff882d"/>
      <stop offset="0.9215686274509803" stop-color="#e1a62d" stop-opacity="0.0"/>
    </radialGradient>
    <radialGradient cx="0" cy="0" gradientTransform="matrix(0.0469, 0.0, 0.0, 0.0469, -7.7, -18.95)" gradientUnits="userSpaceOnUse" id="gradient2" r="819.2" spreadMethod="pad">
      <stop offset="0.13725490196078433" stop-color="#ff882d"/>
      <stop offset="0.9215686274509803" stop-color="#e1a62d" stop-opacity="0.0"/>
    </radialGradient>
    <radialGradient cx="0" cy="0" gradientTransform="matrix(0.0804, 0.0, 0.0, 0.0804, 16.55, 4.95)" gradientUnits="userSpaceOnUse" id="gradient3" r="819.2" spreadMethod="pad">
      <stop offset="0.13725490196078433" stop-color="#ff882d"/>
      <stop offset="0.9215686274509803" stop-color="#e1a62d" stop-opacity="0.0"/>
    </radialGradient>
    <radialGradient cx="0" cy="0" gradientTransform="matrix(0.0741, 0.0, 0.0, 0.0741, -3.2, -34.45)" gradientUnits="userSpaceOnUse" id="gradient4" r="819.2" spreadMethod="pad">
      <stop offset="0.13725490196078433" stop-color="#ff882d"/>
      <stop offset="0.9215686274509803" stop-color="#e1a62d" stop-opacity="0.0"/>
    </radialGradient>
    <radialGradient cx="0" cy="0" gradientTransform="matrix(0.0641, 0.0, 0.0, 0.0641, -33.45, 0.25)" gradientUnits="userSpaceOnUse" id="gradient5" r="819.2" spreadMethod="pad">
      <stop offset="0.13725490196078433" stop-color="#ff882d"/>
      <stop offset="0.9215686274509803" stop-color="#e1a62d" stop-opacity="0.0"/>
    </radialGradient>
    <radialGradient cx="0" cy="0" gradientTransform="matrix(0.0533, 0.0, 0.0, 0.0533, -8.9, 11.9)" gradientUnits="userSpaceOnUse" id="gradient6" r="819.2" spreadMethod="pad">
      <stop offset="0.13725490196078433" stop-color="#ff882d"/>
      <stop offset="0.9215686274509803" stop-color="#e1a62d" stop-opacity="0.0"/>
    </radialGradient>
    <radialGradient cx="0" cy="0" gradientTransform="matrix(0.043, 0.0, 0.0, 0.043, -23.0, 7.4)" gradientUnits="userSpaceOnUse" id="gradient7" r="819.2" spreadMethod="pad">
      <stop offset="0.13725490196078433" stop-color="#ff882d"/>
      <stop offset="0.9215686274509803" stop-color="#e1a62d" stop-opacity="0.0"/>
    </radialGradient>
    <radialGradient cx="0" cy="0" gradientTransform="matrix(0.0489, 0.0, 0.0, 0.0489, 8.7, 18.8)" gradientUnits="userSpaceOnUse" id="gradient8" r="819.2" spreadMethod="pad">
      <stop offset="0.13725490196078433" stop-color="#ff882d"/>
      <stop offset="0.9215686274509803" stop-color="#e1a62d" stop-opacity="0.0"/>
    </radialGradient>
    <radialGradient cx="0" cy="0" gradientTransform="matrix(0.0408, 0.0, 0.0, 0.0408, -2.05, 3.15)" gradientUnits="userSpaceOnUse" id="gradient9" r="819.2" spreadMethod="pad">
      <stop offset="0.054901960784313725" stop-color="#e9772d"/>
      <stop offset="0.36470588235294116" stop-color="#ff882d"/>
      <stop offset="0.6392156862745098" stop-color="#f3942d"/>
      <stop offset="0.8941176470588236" stop-color="#e1a62d" stop-opacity="0.0"/>
    </radialGradient>
  </defs>
</svg>
