<?xml version="1.0" encoding="UTF-8" standalone="no"?>
<svg xmlns:ffdec="https://www.free-decompiler.com/flash" xmlns:xlink="http://www.w3.org/1999/xlink" ffdec:objectType="shape" height="561.5px" width="582.4px" xmlns="http://www.w3.org/2000/svg">
  <g transform="matrix(1.0, 0.0, 0.0, 1.0, 292.45, 280.75)">
    <path d="M31.8 190.15 L31.05 190.45 38.25 190.6 54.7 187.8 65.5 186.15 65.65 186.15 93.9 182.3 91.9 183.8 90.3 184.8 86.0 187.2 Q80.35 190.0 72.05 192.75 L74.6 193.25 Q92.85 190.75 99.7 187.9 L99.75 187.9 100.65 187.5 104.5 188.15 104.7 188.15 Q108.85 189.15 107.75 191.0 98.8 192.75 78.8 195.05 L79.3 195.75 Q86.4 196.2 88.75 197.65 L113.5 195.25 153.95 190.75 151.4 192.15 Q148.55 193.6 145.35 194.85 132.45 199.9 113.1 202.3 L89.95 204.1 Q99.5 204.45 105.45 206.05 107.75 206.65 109.5 207.55 L110.4 207.75 Q121.65 208.85 130.05 210.7 136.95 212.6 133.35 215.55 L127.95 218.0 Q134.25 220.2 137.95 222.65 L149.05 221.05 155.75 215.2 155.95 219.6 168.95 216.8 184.35 208.35 192.3 200.1 189.9 207.15 208.25 203.9 187.85 208.9 181.25 214.2 207.55 207.95 220.05 201.2 207.2 210.65 196.45 213.1 256.4 204.55 228.8 210.25 216.2 211.75 213.35 213.35 217.8 213.5 230.95 215.9 248.3 213.6 255.0 209.95 254.7 213.2 289.95 209.7 237.6 216.6 242.95 217.5 Q243.25 217.95 239.65 219.25 241.85 221.8 247.2 223.85 248.45 224.85 243.9 225.65 L241.1 226.25 234.8 227.85 Q227.25 229.85 221.3 232.3 L214.85 233.75 216.95 234.75 Q228.05 237.3 229.45 242.2 L223.2 240.95 Q219.8 245.1 207.85 248.2 209.5 245.7 205.7 244.0 187.9 250.25 156.15 251.75 161.8 250.15 162.25 248.65 152.85 250.55 139.4 249.95 153.75 248.2 163.25 244.8 158.2 245.1 151.95 246.35 L154.1 245.5 130.35 247.9 94.4 249.65 Q102.3 249.6 107.45 250.0 L135.45 253.0 95.05 251.15 Q83.35 251.65 74.2 251.35 L73.1 252.85 73.3 252.95 73.4 253.05 Q77.1 254.95 88.15 256.3 L91.4 256.6 94.4 256.4 98.45 256.25 104.1 256.25 108.2 256.7 Q109.25 256.9 109.9 257.2 110.75 257.5 110.85 257.9 110.9 258.7 108.8 259.6 L108.85 259.6 Q118.65 263.1 113.5 267.7 L109.2 266.75 99.25 264.75 Q98.9 266.05 97.4 267.45 L93.55 266.5 Q86.35 264.85 78.5 263.7 L73.95 263.05 74.3 263.6 Q74.9 265.05 73.75 266.55 L73.7 266.65 72.8 267.75 Q60.15 264.65 45.65 263.05 38.85 263.5 33.65 263.25 27.95 262.9 27.1 261.85 12.6 261.8 -1.95 260.05 -8.4 259.3 -3.45 257.65 0.55 256.15 5.5 254.75 L-21.95 254.75 -22.95 256.05 -29.1 255.65 -43.45 253.4 Q-61.8 259.6 -104.6 254.45 L-113.6 255.25 Q-120.85 255.55 -126.95 255.15 L-148.45 256.3 Q-157.3 258.05 -156.35 259.85 -158.55 262.4 -162.85 263.4 -168.5 264.85 -174.85 264.35 L-223.55 262.3 Q-229.8 263.3 -238.8 262.25 -240.2 262.05 -238.65 261.25 -250.15 260.45 -264.5 260.9 L-271.9 261.2 -257.65 258.85 -265.2 259.1 Q-251.2 256.45 -236.85 256.15 -236.7 255.65 -234.4 255.35 -230.6 254.75 -228.3 255.35 L-220.4 254.85 Q-215.25 255.2 -213.85 256.05 -213.1 256.45 -212.8 256.85 -201.85 257.2 -194.6 255.75 L-195.3 255.6 Q-199.0 254.95 -199.75 253.8 -200.15 253.25 -199.6 252.55 L-199.0 251.65 Q-197.5 249.85 -193.05 248.55 -183.65 245.55 -162.05 244.4 L-161.2 243.0 Q-157.45 238.25 -141.35 233.05 L-142.25 234.5 Q-143.25 236.1 -143.2 237.35 -143.25 238.55 -142.45 239.5 -140.35 238.1 -137.55 236.55 -138.6 238.55 -138.2 240.1 L-137.55 241.05 Q-127.85 241.3 -120.85 236.7 -128.25 231.6 -129.3 227.4 -130.5 223.05 -125.0 219.65 L-146.9 222.45 Q-155.65 226.2 -166.25 228.2 L-172.25 229.05 Q-178.7 229.65 -182.55 228.4 -183.3 228.0 -190.05 226.65 L-195.3 226.05 Q-198.9 228.4 -199.65 230.45 -199.95 231.3 -199.85 232.2 -211.4 229.4 -216.1 225.95 -217.6 227.25 -217.05 227.85 -239.0 220.95 -220.05 214.9 L-234.3 217.6 Q-229.2 213.5 -211.25 211.75 L-211.2 211.15 -211.2 210.55 Q-216.75 208.7 -221.75 205.9 L-225.55 203.5 Q-225.5 202.2 -221.1 201.1 -214.1 199.1 -206.8 197.8 L-199.65 196.6 -194.4 196.2 -190.0 196.1 Q-186.75 195.85 -184.35 196.05 L-174.1 195.4 -171.05 195.4 Q-165.6 195.0 -163.25 195.4 L-163.0 195.85 -159.45 196.0 Q-154.5 195.55 -149.45 195.85 -146.8 196.4 -150.4 198.25 -151.15 200.0 -149.3 201.5 L-144.55 201.3 Q-138.5 200.85 -134.8 201.45 -133.75 203.3 -148.85 206.75 L-157.35 207.65 -170.15 208.25 Q-174.8 209.1 -172.45 209.85 L-172.35 209.9 -171.9 209.95 -171.9 210.05 Q-167.5 210.85 -164.4 211.75 -151.7 208.7 -134.2 206.45 L-123.15 205.45 -122.15 204.95 Q-119.85 204.1 -117.4 203.45 -109.15 201.2 -96.4 200.3 -82.6 199.85 -68.5 200.4 L-62.0 200.65 -56.25 200.9 -50.65 200.45 Q-50.35 197.8 -37.2 195.45 L-47.25 196.1 -47.35 196.1 -47.5 196.2 -47.6 196.2 -70.2 198.25 Q-64.95 195.55 -41.7 193.05 L-36.25 192.45 -28.2 191.95 Q-22.2 191.65 -16.8 191.95 L-7.4 192.6 17.25 190.65 17.45 189.95 Q24.8 188.65 31.8 190.15 M130.15 246.6 L154.95 245.15 Q159.7 243.3 166.45 241.5 L164.65 241.7 147.4 243.6 130.15 246.6 M89.95 204.1 L88.45 204.1 88.4 204.15 89.95 204.1 M56.5 231.3 Q50.6 228.6 52.05 224.45 43.3 225.55 33.05 224.75 21.85 227.05 4.9 229.4 1.55 231.4 4.7 234.1 L5.6 234.75 Q7.2 235.9 11.2 237.35 14.3 235.7 26.75 233.7 L41.5 227.4 31.05 233.95 23.95 236.35 35.4 235.75 Q39.2 233.65 47.05 231.85 45.4 233.45 45.45 234.45 51.15 232.9 57.5 231.85 L56.5 231.3 M178.75 214.8 L177.15 215.15 178.3 215.0 178.75 214.8 M-182.3 230.45 L-177.9 230.7 Q-176.9 230.9 -178.3 231.8 -177.15 232.5 -173.65 232.65 L-171.25 232.8 Q-166.75 233.25 -172.7 233.5 -176.95 233.1 -180.5 232.05 L-183.15 231.45 Q-185.55 230.7 -182.3 230.45" fill="url(#gradient0)" fill-rule="evenodd" stroke="none"/>
    <path d="M13.05 -248.9 L13.3 -248.7 Q19.3 -244.3 21.5 -233.95 15.75 -221.65 0.0 -203.5 L1.7 -199.9 Q9.7 -198.95 14.75 -191.55 25.2 -201.5 35.1 -211.75 52.0 -229.3 67.3 -247.85 L67.3 -239.35 Q67.1 -230.8 66.25 -223.05 62.65 -191.45 47.7 -172.8 38.95 -162.15 27.8 -156.1 37.95 -156.9 46.8 -149.75 50.3 -146.95 53.6 -142.8 L54.95 -141.6 Q68.15 -138.8 80.0 -130.85 90.4 -122.0 92.2 -104.65 L91.25 -89.95 Q101.55 -79.55 109.8 -67.1 L118.0 -78.5 114.0 -113.4 122.2 -88.8 130.05 -108.15 130.05 -159.2 122.85 -206.95 133.3 -167.25 145.75 -190.1 134.5 -157.2 137.6 -125.85 152.5 -167.6 152.5 -208.55 157.0 -152.7 150.8 -136.1 195.1 -200.15 177.85 -161.15 168.15 -148.95 168.15 -139.2 Q170.3 -140.1 172.8 -139.7 L190.35 -130.3 203.55 -147.55 203.55 -169.6 209.2 -151.55 238.05 -180.85 198.35 -128.25 Q201.95 -127.2 205.25 -125.0 206.45 -122.0 205.25 -114.15 212.2 -100.45 221.3 -90.95 224.3 -85.35 221.3 -79.8 L219.5 -75.3 Q217.65 -70.35 216.25 -65.2 212.3 -51.6 210.9 -36.45 L207.05 -26.65 211.05 -22.1 Q226.75 -10.65 237.15 15.95 L228.7 10.7 Q232.8 34.45 226.55 55.15 223.65 40.9 216.7 32.6 210.4 72.05 181.4 89.0 184.0 78.5 181.85 70.45 175.8 83.35 161.3 83.7 172.5 70.2 175.8 48.75 171.2 51.7 167.3 60.4 L167.8 54.75 Q158.65 66.4 148.45 75.1 132.65 87.15 113.6 95.9 122.8 91.95 129.5 93.05 L174.05 103.75 Q142.95 97.0 119.15 102.65 105.15 111.15 92.65 108.9 97.0 113.6 100.75 118.8 109.7 134.65 109.1 149.15 108.7 158.4 104.45 167.05 L109.95 195.35 Q117.05 205.7 131.35 210.4 133.45 210.45 135.15 211.2 136.4 210.15 137.75 209.25 139.7 208.0 141.6 207.3 144.45 206.15 147.25 206.15 150.05 206.15 152.2 207.3 153.6 208.0 154.7 209.25 156.1 210.85 157.0 213.35 158.5 217.45 157.95 222.7 L157.95 222.8 158.05 222.8 Q174.25 239.95 177.6 266.9 L171.55 262.5 Q164.65 257.75 157.9 254.35 159.95 261.4 160.95 269.4 L155.45 265.4 Q145.2 258.3 135.25 254.1 L129.5 251.9 130.85 254.85 Q134.1 262.5 135.8 271.25 L135.9 271.35 136.95 278.25 Q118.6 264.3 101.1 259.35 95.25 263.8 89.6 263.9 83.25 263.8 80.5 258.25 65.85 261.9 48.1 256.3 40.3 253.7 42.1 243.2 44.7 222.05 53.45 204.6 54.75 199.1 45.15 188.1 30.85 175.75 23.45 159.1 13.65 163.7 3.25 162.0 -6.6 158.2 -15.15 153.65 -22.3 193.0 -74.45 176.55 L-81.95 183.65 Q-88.75 187.25 -95.55 186.25 L-114.8 198.95 Q-120.55 211.25 -116.3 221.0 -113.9 235.2 -116.3 242.2 -119.2 251.9 -126.55 251.0 -152.85 246.85 -179.0 253.05 -183.4 260.15 -194.3 257.25 -196.1 256.25 -196.1 251.4 -208.95 250.4 -222.45 256.55 -225.9 258.1 -229.45 260.15 -225.1 250.6 -219.45 243.25 L-226.45 247.05 Q-217.35 228.25 -203.7 222.65 -204.3 219.7 -202.65 217.2 -199.9 212.85 -196.5 215.45 -194.1 212.0 -189.5 210.75 -183.8 211.05 -180.75 215.45 -179.3 217.65 -178.2 219.85 -166.7 218.85 -162.1 208.35 L-163.05 207.9 Q-167.95 205.2 -170.75 199.1 -172.15 196.15 -173.0 192.45 L-173.95 187.6 Q-175.7 177.1 -173.75 168.05 -169.75 149.25 -150.3 136.65 L-152.0 128.7 Q-157.0 101.45 -150.45 67.9 L-148.7 76.7 Q-146.7 85.6 -144.4 92.45 -142.25 99.4 -139.7 104.25 -140.15 95.85 -140.1 86.75 -137.65 97.7 -134.4 106.1 L-132.05 111.4 Q-121.8 109.75 -123.25 82.6 -140.05 56.55 -148.8 33.45 -157.85 9.9 -158.6 -10.35 -164.45 -0.8 -175.35 10.8 -177.3 34.25 -184.2 48.25 -186.35 52.5 -188.65 54.75 -194.0 59.65 -200.25 54.1 -201.7 52.0 -210.85 46.45 -213.85 46.15 -217.2 44.45 -216.55 58.4 -213.55 70.05 -212.25 75.05 -210.55 79.55 -227.25 67.2 -238.3 49.65 -237.35 57.35 -235.7 60.25 -270.35 28.05 -262.45 -10.15 L-271.65 8.6 Q-274.15 -15.5 -259.3 -30.15 L-260.45 -33.5 -261.55 -37.05 Q-270.5 -45.65 -280.6 -59.75 L-288.75 -71.85 Q-291.15 -78.95 -288.75 -86.15 -285.45 -99.3 -280.6 -108.95 -278.25 -113.55 -275.6 -117.35 -273.25 -119.75 -271.05 -121.05 -268.9 -122.4 -266.8 -122.65 -264.1 -125.0 -261.3 -124.7 -257.3 -129.2 -252.25 -130.85 L-249.2 -131.65 Q-244.45 -135.7 -241.4 -134.05 L-240.3 -131.75 -236.55 -131.85 Q-232.35 -135.65 -226.7 -135.55 -223.1 -133.35 -223.25 -121.6 -220.8 -111.95 -216.2 -104.1 -213.8 -105.15 -211.85 -106.65 -206.7 -110.7 -201.85 -108.55 -197.3 -98.3 -206.2 -75.25 -209.1 -71.05 -213.05 -67.7 -218.05 -63.65 -224.8 -60.95 -227.85 -54.95 -224.2 -51.7 L-224.0 -51.5 -223.3 -51.0 -223.1 -50.9 Q-217.4 -47.35 -212.55 -43.45 -205.35 -63.65 -192.1 -80.95 -187.8 -85.95 -182.85 -89.4 L-182.6 -92.7 Q-182.0 -97.9 -180.75 -102.45 -176.7 -117.4 -165.45 -125.2 -152.55 -131.75 -137.55 -133.1 L-130.45 -133.45 -124.25 -133.25 -119.55 -137.35 Q-124.15 -152.35 -115.2 -168.55 -119.8 -165.65 -124.05 -162.25 L-124.15 -162.25 -124.15 -162.15 -124.2 -162.1 -124.25 -162.1 Q-134.2 -154.3 -143.0 -144.1 -142.9 -160.85 -124.15 -181.0 L-119.75 -185.5 Q-116.3 -188.9 -112.65 -190.9 -107.15 -193.95 -101.25 -193.95 -95.75 -194.25 -90.65 -192.7 -81.05 -204.55 -69.6 -210.55 L-70.7 -214.8 Q-65.65 -223.35 -55.95 -217.5 L-56.15 -215.45 -48.7 -216.5 Q-43.25 -226.75 -37.25 -236.55 L-29.55 -248.7 -29.4 -248.9 Q-19.5 -264.0 -8.25 -278.25 L-7.45 -269.25 Q-7.25 -266.2 -7.2 -263.15 -6.95 -256.05 -7.15 -248.9 L-7.15 -248.7 Q-7.65 -231.55 -11.0 -214.3 L-7.4 -212.2 Q6.1 -230.9 7.85 -248.7 L7.9 -248.9 8.05 -251.25 Q10.75 -250.45 13.05 -248.9 M27.25 -33.2 Q33.25 -9.75 44.25 3.95 L46.15 6.05 Q41.85 13.9 38.9 23.75 37.05 18.65 35.7 9.2 31.2 21.6 31.4 34.15 26.2 33.35 20.95 40.65 L23.6 25.35 22.1 -13.95 18.8 24.9 Q10.1 39.4 9.95 49.75 3.4 42.85 -0.35 36.9 L-2.4 33.45 Q-10.6 19.45 -10.9 7.4 1.7 -10.15 8.7 -26.4 20.5 -24.75 27.25 -33.2 M172.85 29.6 Q169.4 41.0 168.0 52.6 156.8 63.35 146.0 67.8 L157.7 46.25 171.4 31.25 172.85 29.6 M-196.15 65.4 Q-194.0 63.4 -191.25 65.4 -189.9 66.4 -189.7 71.2 -187.2 75.45 -183.55 74.85 L-180.8 74.85 Q-175.4 76.35 -180.95 79.15 -185.95 78.35 -191.45 73.5 L-195.2 70.7 Q-198.85 67.85 -196.15 65.4 Z" fill="none" stroke="#000000" stroke-linecap="round" stroke-linejoin="round" stroke-width="5.0"/>
    <path d="M-7.4 -212.2 Q6.1 -230.9 7.85 -248.7 L7.9 -248.9 8.05 -251.25 Q10.75 -250.45 13.05 -248.9 L13.3 -248.7 Q19.3 -244.3 21.5 -233.95 15.75 -221.65 0.0 -203.5 -3.15 -209.05 -7.4 -212.2 M-56.15 -215.45 L-56.6 -211.0 Q-57.2 -205.85 -58.1 -201.0 L-59.4 -194.3 -61.2 -187.05 Q-53.2 -184.8 -47.95 -180.6 -43.2 -176.75 -43.2 -173.15 L-43.4 -171.9 Q-43.9 -169.8 -45.95 -168.5 -48.05 -167.15 -51.65 -166.55 -58.8 -165.3 -67.9 -167.6 -77.05 -170.0 -82.8 -174.6 -88.55 -179.15 -87.5 -183.25 -87.15 -184.5 -86.2 -185.5 -84.7 -187.3 -81.3 -188.2 L-79.15 -188.65 Q-74.3 -189.5 -68.65 -188.7 -68.0 -192.95 -68.0 -197.45 -68.05 -200.8 -68.45 -204.3 L-69.6 -210.55 -70.7 -214.8 Q-65.65 -223.35 -55.95 -217.5 L-56.15 -215.45 M-68.65 -188.7 Q-69.2 -185.5 -70.1 -182.4 L-70.3 -181.8 -70.1 -182.4 Q-69.2 -185.5 -68.65 -188.7 M-63.35 -180.45 L-61.2 -187.05 -63.35 -180.45" fill="#745724" fill-rule="evenodd" stroke="none"/>
    <path d="M0.0 -203.5 L1.7 -199.9 Q9.7 -198.95 14.75 -191.55 15.95 -189.9 16.95 -187.85 L18.35 -184.9 19.55 -182.15 Q15.2 -188.5 3.1 -196.45 L5.0 -189.8 Q-10.85 -221.65 -41.85 -210.05 L-40.45 -210.75 -35.85 -212.8 Q-43.65 -215.7 -56.15 -215.45 L-48.7 -216.5 Q-44.25 -216.9 -39.5 -216.6 L-31.8 -215.6 -29.2 -215.05 -26.1 -215.7 Q-17.45 -217.3 -11.0 -214.3 L-7.4 -212.2 Q-3.15 -209.05 0.0 -203.5 M35.1 -211.75 Q52.0 -229.3 67.3 -247.85 L67.3 -239.35 35.1 -211.75 M27.8 -156.1 Q37.95 -156.9 46.8 -149.75 28.75 -156.45 4.7 -145.65 16.15 -154.65 26.25 -156.0 L26.35 -155.4 27.8 -156.1 M-43.2 -173.15 Q-24.9 -165.1 -17.05 -159.65 L-45.95 -168.5 Q-43.9 -169.8 -43.4 -171.9 L-43.2 -173.15 M3.1 -196.45 L1.7 -199.9 3.1 -196.45 M-152.0 128.7 Q-157.0 101.45 -150.45 67.9 L-148.7 76.7 Q-146.7 85.6 -144.4 92.45 L-149.2 85.55 -152.0 128.7 M-139.7 104.25 Q-140.15 95.85 -140.1 86.75 -137.65 97.7 -134.4 106.1 L-132.05 111.4 Q-130.2 115.35 -128.05 118.6 L-134.4 110.25 -134.4 138.15 Q-138.55 123.2 -139.7 104.25 M-112.65 -190.9 Q-107.15 -193.95 -101.25 -193.95 -95.75 -194.25 -90.65 -192.7 -85.8 -191.25 -81.3 -188.2 -84.7 -187.3 -86.2 -185.5 -98.85 -191.9 -112.65 -190.9 M-37.25 -236.55 L-29.55 -248.7 -29.4 -248.9 Q-19.5 -264.0 -8.25 -278.25 L-7.45 -269.25 -37.25 -236.55 M-29.2 -215.05 Q-32.35 -214.25 -35.8 -212.8 L-35.85 -212.8 -35.8 -212.8 Q-32.35 -214.25 -29.2 -215.05 M-184.8 -20.75 Q-185.55 -36.0 -183.05 -49.55 L-183.0 -49.95 Q-178.4 -74.3 -163.3 -93.4 L-160.05 -97.3 -156.45 -101.25 Q-177.4 -64.0 -180.95 -30.95 L-182.95 -26.0 -184.8 -20.75 M-143.2 -57.85 Q-140.85 -65.5 -138.05 -71.9 -140.1 -43.85 -137.95 -26.4 -140.95 -20.15 -143.5 -13.25 -147.4 -33.9 -143.2 -57.85 M-91.0 -192.3 L-90.65 -192.7 -91.0 -192.3 M-97.45 -69.5 Q-103.6 -38.9 -99.9 -17.8 -104.85 -8.2 -108.5 3.8 -110.3 -30.8 -97.45 -69.5 M-63.65 -49.4 Q-74.25 -9.85 -47.1 35.35 L-48.45 33.45 Q-71.25 2.0 -72.2 -19.1 -72.8 -32.85 -63.65 -49.4 M-109.5 132.1 Q-116.0 115.3 -118.3 93.85 -114.4 100.45 -110.5 105.95 -105.65 112.8 -100.8 118.05 L-110.95 109.75 Q-111.15 122.55 -97.75 154.35 -104.8 144.4 -109.5 132.1 M-20.05 123.45 L-13.5 130.5 Q-33.6 127.45 -61.85 109.55 -64.45 104.75 -66.45 99.65 -43.85 118.65 -20.05 123.45" fill="#f9ad40" fill-rule="evenodd" stroke="none"/>
    <path d="M14.75 -191.55 Q25.2 -201.5 35.1 -211.75 L67.3 -239.35 Q67.1 -230.8 66.25 -223.05 62.65 -191.45 47.7 -172.8 38.95 -162.15 27.8 -156.1 L26.25 -156.0 Q16.15 -154.65 4.7 -145.65 L2.65 -144.0 Q-6.6 -144.8 -15.35 -144.35 -11.8 -150.15 -12.85 -156.2 -11.8 -150.15 -15.35 -144.35 -17.3 -141.3 -20.5 -138.35 -25.95 -138.9 -32.4 -142.15 -34.0 -142.95 -35.6 -143.95 L-38.4 -140.7 Q-53.4 -122.85 -59.2 -103.35 -63.2 -115.0 -65.15 -129.0 L-66.25 -138.1 -67.05 -150.25 -57.95 -122.5 Q-51.3 -137.05 -43.2 -147.2 L-21.15 -147.2 Q-16.3 -147.15 -12.85 -156.2 -14.3 -157.8 -17.05 -159.65 12.75 -158.9 22.55 -173.6 L19.7 -181.75 19.55 -182.15 18.35 -184.9 16.95 -187.85 Q15.95 -189.9 14.75 -191.55 M26.25 -156.0 Q24.95 -165.45 22.55 -173.6 L26.35 -176.95 Q35.4 -185.85 43.65 -203.4 35.4 -185.85 26.35 -176.95 L22.55 -173.6 Q24.95 -165.45 26.25 -156.0 M-124.05 -162.25 L-124.15 -162.25 -124.15 -162.15 -124.2 -162.1 -124.25 -162.1 Q-134.2 -154.3 -143.0 -144.1 -142.9 -160.85 -124.15 -181.0 L-119.75 -185.5 Q-116.3 -188.9 -112.65 -190.9 L-124.05 -162.25 M-31.8 -215.6 L-39.5 -216.6 Q-30.0 -225.35 -22.8 -238.85 -25.35 -225.9 -31.8 -215.6 M-99.05 -177.2 L-92.55 -181.75 -102.8 -131.3 Q-84.2 -146.6 -67.05 -150.25 -75.1 -144.9 -82.5 -138.8 -95.8 -128.05 -107.15 -115.05 -108.7 -124.4 -108.65 -133.55 L-108.65 -134.9 Q-108.25 -156.4 -99.05 -177.2 M-34.05 -145.6 L-35.6 -143.95 -34.05 -145.6 M-107.9 -134.45 L-108.65 -134.9 -107.9 -134.45" fill="url(#gradient1)" fill-rule="evenodd" stroke="none"/>
    <path d="M152.5 -167.6 L152.5 -208.55 157.0 -152.7 150.8 -136.1 195.1 -200.15 177.85 -161.15 168.15 -148.95 168.15 -139.2 Q165.8 -138.35 164.05 -135.9 L155.9 -124.3 Q150.3 -123.8 146.15 -120.0 L145.35 -128.25 141.3 -124.4 144.6 -132.75 152.5 -152.6 152.5 -167.6 M190.35 -130.3 L203.55 -147.55 203.55 -169.6 209.2 -151.55 238.05 -180.85 198.35 -128.25 Q195.3 -129.25 192.05 -129.45 L191.95 -129.45 190.35 -130.3 M167.8 54.75 Q158.65 66.4 148.45 75.1 132.65 87.15 113.6 95.9 122.8 91.95 129.5 93.05 L174.05 103.75 Q142.95 97.0 119.15 102.65 105.15 111.15 92.65 108.9 70.5 84.7 35.6 73.9 32.8 70.45 29.6 67.5 17.75 57.95 9.95 49.75 L49.15 65.6 62.6 34.15 56.75 73.95 69.5 69.6 Q79.75 47.35 98.15 34.55 109.3 38.0 122.25 40.8 L136.75 54.9 Q143.25 58.75 149.75 54.9 L157.7 46.25 146.0 67.8 Q156.8 63.35 168.0 52.6 L167.8 54.75 M150.8 -136.1 L145.35 -128.25 150.8 -136.1 M154.8 -46.15 Q152.45 -39.5 147.65 -35.4 145.85 -33.8 143.65 -32.6 135.75 -28.95 129.9 -24.7 126.2 -36.05 121.45 -46.3 L130.35 -66.5 130.35 -46.7 136.9 -69.9 Q142.95 -62.8 145.55 -56.05 149.25 -56.35 151.0 -58.55 151.1 -52.1 154.8 -46.15 M149.75 -125.85 L168.15 -148.95 149.75 -125.85 M139.55 71.1 L146.0 67.8 139.55 71.1 M110.0 97.65 L113.6 95.9 110.0 97.65 M76.95 77.35 Q77.8 61.25 98.15 34.55 77.8 61.25 76.95 77.35 M69.5 69.6 Q68.1 72.65 66.85 75.9 68.1 72.65 69.5 69.6" fill="#0c120e" fill-rule="evenodd" stroke="none"/>
    <path d="M137.6 -125.85 L152.5 -167.6 152.5 -152.6 144.6 -132.75 136.15 -120.55 136.15 -121.8 137.6 -125.85" fill="#528c66" fill-rule="evenodd" stroke="none"/>
    <path d="M109.8 -67.1 L118.0 -78.5 114.0 -113.4 122.2 -88.8 130.05 -108.15 130.05 -159.2 122.85 -206.95 133.3 -167.25 145.75 -190.1 134.5 -157.2 137.6 -125.85 136.15 -121.8 135.3 -119.4 136.15 -120.55 135.6 -108.6 124.1 -83.0 126.05 -77.25 Q119.0 -77.6 112.8 -62.4 L109.8 -67.1 M9.95 49.75 Q10.1 39.4 18.8 24.9 L22.1 -13.95 23.6 25.35 20.95 40.65 Q26.2 33.35 31.4 34.15 31.2 21.6 35.7 9.2 37.05 18.65 38.9 23.75 41.85 13.9 46.15 6.05 L48.6 8.5 Q41.75 18.35 40.3 26.9 L36.0 22.95 33.2 38.9 Q25.15 39.45 17.1 46.55 L17.1 35.45 9.95 49.75 M122.2 -88.8 L124.1 -83.0 122.2 -88.8 M40.3 26.9 Q39.55 25.6 38.9 23.75 39.55 25.6 40.3 26.9 M31.4 34.15 L31.45 36.9 31.4 34.15" fill="url(#gradient2)" fill-rule="evenodd" stroke="none"/>
    <path d="M144.6 -132.75 L141.3 -124.4 145.35 -128.25 146.15 -120.0 143.65 -117.4 Q141.3 -112.4 141.2 -104.85 141.15 -101.7 141.5 -98.1 138.35 -96.85 135.25 -94.9 129.15 -90.8 129.3 -81.75 131.5 -73.95 136.9 -69.9 L130.35 -46.7 130.35 -66.5 121.45 -46.3 Q117.55 -54.75 112.8 -62.4 119.0 -77.6 126.05 -77.25 L124.1 -83.0 135.6 -108.6 136.15 -120.55 144.6 -132.75 M48.6 8.5 Q65.4 24.35 98.15 34.55 79.75 47.35 69.5 69.6 L56.75 73.95 62.6 34.15 49.15 65.6 9.95 49.75 17.1 35.45 17.1 46.55 Q25.15 39.45 33.2 38.9 L36.0 22.95 40.3 26.9 Q41.75 18.35 48.6 8.5" fill="url(#gradient3)" fill-rule="evenodd" stroke="none"/>
    <path d="M198.35 -128.25 Q201.95 -127.2 205.25 -125.0 206.45 -122.0 205.25 -114.15 L218.15 -86.05 219.5 -75.3 Q217.65 -70.35 216.25 -65.2 209.55 -49.2 200.9 -43.75 203.8 -63.45 195.7 -83.15 L195.7 -72.05 Q197.75 -59.45 195.7 -46.95 187.8 -22.8 175.8 -1.25 L173.4 3.0 171.8 5.6 Q149.4 40.85 119.0 18.15 L117.85 15.55 Q121.25 -22.4 160.35 -35.6 L147.65 -35.4 Q152.45 -39.5 154.8 -46.15 156.25 -43.7 158.35 -41.35 153.25 -56.0 155.9 -76.45 153.65 -72.5 152.0 -66.6 150.8 -73.05 145.25 -77.7 129.55 -83.8 151.85 -100.25 L159.35 -104.85 141.2 -104.85 Q141.3 -112.4 143.65 -117.4 L146.15 -120.0 Q150.3 -123.8 155.9 -124.3 163.65 -132.3 171.0 -136.05 L191.95 -129.45 192.05 -129.45 Q195.3 -129.25 198.35 -128.25 M41.85 -143.15 Q48.55 -143.0 54.95 -141.6 81.55 -128.1 87.4 -107.7 90.25 -87.2 89.4 -62.9 L90.85 -84.55 Q112.3 -62.9 126.7 -22.2 L122.7 -18.5 Q112.6 -2.2 116.15 11.25 L117.85 15.55 Q76.75 4.0 54.8 -53.2 73.75 -48.95 88.8 -53.2 21.5 -85.05 9.65 -126.45 12.5 -131.3 16.8 -134.7 47.2 -131.9 82.65 -86.35 L84.4 -73.35 Q85.95 -82.6 84.4 -90.25 75.2 -127.4 41.85 -143.15 M89.4 -62.9 L88.8 -53.2 89.4 -62.9 M202.2 -109.6 L192.05 -129.45 202.2 -109.6 M168.4 -109.9 Q167.4 -114.5 162.25 -117.45 154.8 -119.2 148.05 -115.55 159.3 -115.95 168.4 -109.9 M191.3 -88.0 L191.3 -96.7 Q186.1 -104.15 184.4 -103.95 L191.3 -88.0" fill="url(#gradient4)" fill-rule="evenodd" stroke="none"/>
    <path d="M216.25 -65.2 Q212.3 -51.6 210.9 -36.45 L207.05 -26.65 Q202.8 -32.15 200.8 -37.6 L199.6 -33.5 Q192.15 -10.95 166.95 14.9 L181.05 8.25 Q176.05 18.75 172.85 29.6 L171.4 31.25 157.7 46.25 149.75 54.9 Q143.25 58.75 136.75 54.9 L122.25 40.8 Q109.3 38.0 98.15 34.55 65.4 24.35 48.6 8.5 L46.15 6.05 44.25 3.95 Q33.25 -9.75 27.25 -33.2 25.2 -41.3 23.75 -50.55 8.55 -51.1 2.9 -69.85 -1.55 -84.7 4.3 -101.55 L4.3 -108.8 Q5.3 -119.25 9.65 -126.45 21.5 -85.05 88.8 -53.2 46.3 -57.25 24.55 -77.1 15.4 -85.25 9.95 -96.25 15.4 -85.25 24.55 -77.1 46.3 -57.25 88.8 -53.2 73.75 -48.95 54.8 -53.2 76.75 4.0 117.85 15.55 L119.0 18.15 Q149.4 40.85 171.8 5.6 L173.4 3.0 175.8 -1.25 Q187.8 -22.8 195.7 -46.95 197.75 -59.45 195.7 -72.05 L195.7 -83.15 Q203.8 -63.45 200.9 -43.75 209.55 -49.2 216.25 -65.2 M141.2 -104.85 L159.35 -104.85 151.85 -100.25 Q129.55 -83.8 145.25 -77.7 150.8 -73.05 152.0 -66.6 153.65 -72.5 155.9 -76.45 153.25 -56.0 158.35 -41.35 156.25 -43.7 154.8 -46.15 151.1 -52.1 151.0 -58.55 149.25 -56.35 145.55 -56.05 142.95 -62.8 136.9 -69.9 131.5 -73.95 129.3 -81.75 129.15 -90.8 135.25 -94.9 138.35 -96.85 141.5 -98.1 141.15 -101.7 141.2 -104.85 M26.35 -136.15 Q29.05 -141.1 34.8 -143.0 38.35 -143.3 41.85 -143.15 75.2 -127.4 84.4 -90.25 85.95 -82.6 84.4 -73.35 L82.65 -86.35 Q68.75 -118.4 49.6 -129.3 37.4 -136.25 26.35 -136.15 M21.0 -75.65 Q21.9 -62.2 23.75 -50.55 21.9 -62.2 21.0 -75.65 M25.6 -50.55 L23.75 -50.55 25.6 -50.55 M29.75 -36.85 Q28.6 -34.85 27.25 -33.2 28.6 -34.85 29.75 -36.85 M152.0 -66.6 Q150.85 -62.65 151.0 -58.55 150.85 -62.65 152.0 -66.6 M141.5 -98.1 Q146.65 -100.15 151.85 -100.25 146.65 -100.15 141.5 -98.1 M148.05 -115.55 Q154.8 -119.2 162.25 -117.45 167.4 -114.5 168.4 -109.9 159.3 -115.95 148.05 -115.55 M184.4 -103.95 Q186.1 -104.15 191.3 -96.7 L191.3 -88.0 184.4 -103.95 M125.85 27.85 Q122.65 25.9 119.0 18.15 122.65 25.9 125.85 27.85 M-95.55 186.25 L-114.8 198.95 Q-120.55 211.25 -116.3 221.0 -113.9 235.2 -116.3 242.2 -119.2 251.9 -126.55 251.0 -152.85 246.85 -179.0 253.05 -183.4 260.15 -194.3 257.25 -196.1 256.25 -196.1 251.4 L-192.85 251.7 Q-188.65 246.3 -189.05 239.55 -181.8 243.65 -175.95 237.1 -174.9 231.2 -176.15 225.7 L-173.1 224.95 Q-166.3 225.95 -162.05 217.65 L-153.45 208.65 -162.1 208.35 -163.05 207.9 Q-167.95 205.2 -170.75 199.1 -128.4 205.3 -121.4 166.3 -108.45 184.45 -95.55 186.25 M-158.6 -10.35 Q-164.45 -0.8 -175.35 10.8 -177.3 34.25 -184.2 48.25 -186.35 52.5 -188.65 54.75 -194.0 59.65 -200.25 54.1 -201.7 52.0 -210.85 46.45 -213.85 46.15 -217.2 44.45 L-221.0 42.05 Q-240.1 28.0 -259.3 -30.15 L-260.45 -33.5 Q-253.05 -28.25 -245.35 -15.9 L-251.2 -39.6 Q-236.1 -5.45 -218.65 16.05 -207.2 25.15 -198.7 19.1 -195.95 17.15 -193.65 14.85 -191.85 19.75 -189.4 20.75 -185.85 22.3 -185.4 14.55 -187.65 10.65 -187.85 6.7 -186.45 3.85 -185.4 0.65 L-183.75 -0.4 Q-180.55 -2.15 -180.3 -5.85 -180.65 -12.75 -182.65 -17.15 -182.6 -21.4 -182.95 -26.0 L-180.95 -30.95 Q-174.9 -45.3 -165.45 -58.4 -157.25 -59.85 -158.6 -17.25 L-158.6 -10.35 M-182.85 -89.4 L-182.6 -92.7 -130.45 -133.45 -124.25 -133.25 Q-132.45 -125.7 -138.7 -116.45 L-138.75 -116.4 -139.15 -116.05 Q-144.7 -112.15 -149.55 -107.9 -153.2 -104.7 -156.45 -101.3 L-156.45 -101.25 -160.05 -97.3 Q-172.75 -96.7 -182.85 -89.4 M101.1 259.35 Q95.25 263.8 89.6 263.9 83.25 263.8 80.5 258.25 65.85 261.9 48.1 256.3 40.3 253.7 42.1 243.2 44.7 222.05 53.45 204.6 54.75 199.1 45.15 188.1 30.85 175.75 23.45 159.1 8.95 126.8 20.15 78.3 20.0 153.55 49.8 182.85 59.55 186.85 59.2 204.3 65.8 229.7 78.5 229.25 91.45 214.25 95.2 219.4 93.4 220.65 91.65 222.4 89.05 224.85 86.95 227.65 84.6 230.75 82.95 234.3 84.55 244.15 93.8 241.05 89.6 247.5 89.95 257.1 95.45 257.75 101.1 259.35 M108.9 189.7 Q82.15 208.0 64.05 193.75 80.1 200.95 98.85 176.0 102.15 171.55 104.45 167.05 L108.9 189.7 M121.5 227.85 Q118.65 230.35 116.95 233.7 L116.65 233.4 Q117.75 227.15 115.95 222.4 L115.45 221.3 Q118.05 226.05 121.5 227.85 M78.9 248.05 Q78.4 252.85 79.9 256.75 L80.5 258.25 79.9 256.75 Q78.4 252.85 78.9 248.05 M75.1 -9.7 Q83.45 4.2 90.8 10.65 52.0 -21.4 47.2 -57.0 52.0 -21.4 90.8 10.65 83.45 4.2 75.1 -9.7 M-239.35 -129.3 L-229.65 -129.3 Q-228.35 -115.0 -219.7 -102.75 -222.65 -101.85 -226.15 -101.35 L-229.5 -102.3 Q-230.05 -108.0 -234.35 -116.45 L-237.55 -122.25 Q-238.35 -126.25 -239.35 -129.3 M-233.2 -119.85 Q-234.1 -118.95 -234.35 -116.45 -234.1 -118.95 -233.2 -119.85 M-249.45 -103.75 L-246.85 -107.95 -245.2 -103.85 Q-244.55 -93.0 -238.55 -91.75 -239.2 -94.1 -239.0 -97.45 -232.1 -88.65 -220.2 -91.8 L-228.65 -85.65 Q-244.4 -72.95 -243.45 -61.75 -247.35 -55.2 -253.05 -60.2 -255.75 -71.45 -264.95 -78.75 -262.5 -78.0 -259.5 -77.8 -255.0 -79.2 -251.85 -82.9 -255.0 -79.2 -259.5 -77.8 -262.5 -78.0 -264.95 -78.75 -270.3 -80.4 -271.85 -85.05 -274.8 -93.85 -266.0 -99.1 -263.4 -94.2 -262.5 -87.75 -261.85 -79.1 -251.85 -82.9 -250.5 -84.4 -249.45 -86.35 -247.85 -89.2 -246.8 -92.9 -247.8 -98.25 -249.45 -103.75 M-249.45 -86.35 Q-245.95 -82.1 -242.4 -82.35 -239.3 -85.45 -236.9 -88.35 -234.35 -85.35 -228.65 -85.65 -234.35 -85.35 -236.9 -88.35 -239.3 -85.45 -242.4 -82.35 -245.95 -82.1 -249.45 -86.35 M-183.0 -49.95 L-181.15 -68.85 Q-189.9 -60.05 -196.25 -48.7 -183.25 -82.55 -163.3 -93.4 -178.4 -74.3 -183.0 -49.95 M-238.55 -91.75 Q-238.0 -89.65 -236.9 -88.35 -238.0 -89.65 -238.55 -91.75 M-233.8 -52.8 L-229.75 -52.8 Q-232.7 -51.3 -232.05 -47.4 -228.95 -39.65 -221.05 -24.6 L-230.1 -39.6 -235.15 -49.7 Q-236.0 -52.55 -233.8 -52.8 M-233.35 -34.0 L-228.75 -23.55 Q-241.2 -47.35 -246.75 -45.45 -245.15 -50.5 -242.45 -49.4 -237.75 -43.65 -233.35 -34.0 M-184.0 25.0 Q-184.65 25.0 -185.15 25.75 -185.6 26.55 -185.6 27.7 -185.6 28.8 -185.15 29.55 -184.65 30.35 -184.0 30.35 -183.35 30.35 -182.85 29.55 -182.4 28.8 -182.35 27.7 -182.4 26.55 -182.85 25.75 -183.35 25.0 -184.0 25.0 M-207.15 44.45 Q-216.75 41.45 -226.3 23.95 -236.1 -1.05 -245.35 -15.9 -236.1 -1.05 -226.3 23.95 -216.75 41.45 -207.15 44.45 M-202.35 47.15 L-188.65 54.75 -202.35 47.15 M-141.9 203.75 Q-148.4 207.5 -153.45 208.65 -148.4 207.5 -141.9 203.75 M-176.35 244.05 Q-176.95 249.65 -179.0 253.05 -176.95 249.65 -176.35 244.05" fill="#525319" fill-rule="evenodd" stroke="none"/>
    <path d="M46.8 -149.75 Q50.3 -146.95 53.6 -142.8 L54.95 -141.6 Q48.55 -143.0 41.85 -143.15 38.35 -143.3 34.8 -143.0 29.05 -141.1 26.35 -136.15 21.5 -136.1 16.8 -134.7 12.5 -131.3 9.65 -126.45 5.3 -119.25 4.3 -108.8 -5.6 -103.1 -11.9 -119.95 -6.2 -135.95 2.65 -144.0 L4.7 -145.65 Q28.75 -156.45 46.8 -149.75 M3.1 -196.45 Q15.2 -188.5 19.55 -182.15 L19.7 -181.75 22.55 -173.6 Q12.75 -158.9 -17.05 -159.65 -24.9 -165.1 -43.2 -173.15 -43.2 -176.75 -47.95 -180.6 -53.2 -184.8 -61.2 -187.05 L-59.4 -194.3 -53.15 -190.05 -49.5 -187.6 Q-50.45 -200.55 -56.6 -211.0 L-56.15 -215.45 Q-43.65 -215.7 -35.85 -212.8 L-40.45 -210.75 -41.85 -210.05 Q-10.85 -221.65 5.0 -189.8 L3.1 -196.45 M6.1 -177.85 L6.1 -186.05 Q-12.65 -186.85 -31.45 -180.4 L-20.1 -175.1 6.1 -162.75 6.1 -177.85 M-150.3 136.65 L-152.0 128.7 -149.2 85.55 -144.4 92.45 Q-142.25 99.4 -139.7 104.25 -138.55 123.2 -134.4 138.15 L-134.4 110.25 -128.05 118.6 -127.05 120.15 Q-124.25 124.05 -121.0 126.8 -112.05 148.8 -102.0 161.05 -118.2 163.95 -134.4 138.15 -129.7 154.65 -121.4 166.3 -135.2 169.05 -149.2 140.7 L-150.3 136.65 M-115.2 -168.55 Q-119.8 -165.65 -124.05 -162.25 L-112.65 -190.9 Q-98.85 -191.9 -86.2 -185.5 -87.15 -184.5 -87.5 -183.25 -88.55 -179.15 -82.8 -174.6 -77.05 -170.0 -67.9 -167.6 -58.8 -165.3 -51.65 -166.55 -48.05 -167.15 -45.95 -168.5 L-17.05 -159.65 Q-14.3 -157.8 -12.85 -156.2 -16.3 -147.15 -21.15 -147.2 L-43.2 -147.2 Q-51.3 -137.05 -57.95 -122.5 L-67.05 -150.25 Q-84.2 -146.6 -102.8 -131.3 L-92.55 -181.75 -99.05 -177.2 Q-107.45 -173.6 -115.2 -168.55 M-90.65 -192.7 Q-81.05 -204.55 -69.6 -210.55 L-68.45 -204.3 -73.45 -200.1 -68.0 -197.45 Q-68.0 -192.95 -68.65 -188.7 -74.3 -189.5 -79.15 -188.65 L-81.3 -188.2 Q-85.8 -191.25 -90.65 -192.7 M-48.7 -216.5 Q-43.25 -226.75 -37.25 -236.55 L-7.45 -269.25 Q-7.25 -266.2 -7.2 -263.15 -8.4 -219.9 -26.1 -215.7 L-29.2 -215.05 -31.8 -215.6 Q-25.35 -225.9 -22.8 -238.85 -30.0 -225.35 -39.5 -216.6 -44.25 -216.9 -48.7 -216.5 M-20.95 -65.85 Q-19.85 -49.2 -15.7 -38.2 -18.45 -26.75 -15.0 -6.7 -24.55 32.8 1.05 72.25 16.35 106.05 7.75 119.95 -3.8 111.1 -15.45 95.05 L-17.55 91.2 Q-29.1 70.25 -39.3 45.45 L-47.1 35.35 Q-74.25 -9.85 -63.65 -49.4 L-59.75 -56.0 Q-85.3 -47.05 -99.9 -17.8 -103.6 -38.9 -97.45 -69.5 L-96.2 -73.35 Q-122.8 -58.2 -137.95 -26.4 -140.1 -43.85 -138.05 -71.9 -136.45 -75.65 -134.7 -78.8 -120.3 -99.85 -98.85 -109.35 -105.45 -100.1 -105.7 -87.15 L-97.85 -98.4 Q-86.35 -113.55 -72.8 -123.7 -66.6 -100.65 -55.15 -95.7 L-62.25 -80.0 -69.3 -66.1 -26.1 -112.0 Q-26.0 -86.05 -21.25 -67.05 -53.75 -37.8 -46.45 -5.2 L-58.55 -38.2 Q-57.9 -0.8 -41.85 33.45 -38.1 41.5 -33.45 49.45 L-33.15 50.1 Q-19.3 73.55 2.05 95.5 -18.75 64.85 -30.2 33.45 L-33.05 25.3 Q-40.9 -2.65 -37.25 -23.15 -33.45 -46.95 -20.95 -65.85 M-66.6 -74.85 L-62.35 -80.0 -62.25 -80.0 -62.35 -80.0 -66.6 -74.85 M-180.95 -30.95 Q-177.4 -64.0 -156.45 -101.25 L-156.45 -101.3 Q-153.2 -104.7 -149.55 -107.9 -132.9 -121.2 -114.95 -125.85 -132.05 -105.15 -136.9 -82.95 -150.6 -77.15 -162.05 -60.2 L-161.7 -63.45 -165.45 -58.4 Q-174.9 -45.3 -180.95 -30.95 M-148.3 -91.35 Q-159.7 -77.1 -161.7 -63.45 -159.7 -77.1 -148.3 -91.35 M-13.1 124.55 Q-0.25 135.25 0.8 144.4 -25.75 141.55 -58.35 115.55 L-61.85 109.55 Q-33.6 127.45 -13.5 130.5 L-20.05 123.45 -13.1 124.55 M-55.15 -95.7 L-66.95 -81.9 -55.15 -95.7 M-97.35 121.55 Q-90.55 128.05 -83.6 131.45 -67.45 159.1 -54.7 168.75 -71.8 169.35 -96.15 156.5 L-97.75 154.35 Q-111.15 122.55 -110.95 109.75 L-100.8 118.05 Q-95.0 141.3 -69.3 159.65 L-75.25 153.2 Q-86.3 144.35 -97.35 121.55" fill="url(#gradient5)" fill-rule="evenodd" stroke="none"/>
    <path d="M-56.6 -211.0 Q-50.45 -200.55 -49.5 -187.6 L-53.15 -190.05 Q-54.7 -196.05 -58.1 -201.0 -57.2 -205.85 -56.6 -211.0 M-20.1 -175.1 L-31.45 -180.4 Q-12.65 -186.85 6.1 -186.05 L6.1 -177.85 Q-7.0 -178.4 -20.1 -175.1 M-68.0 -197.45 L-73.45 -200.1 -68.45 -204.3 Q-68.05 -200.8 -68.0 -197.45" fill="#fcc176" fill-rule="evenodd" stroke="none"/>
    <path d="M-53.15 -190.05 L-59.4 -194.3 -58.1 -201.0 Q-54.7 -196.05 -53.15 -190.05 M6.1 -177.85 L6.1 -162.75 -20.1 -175.1 Q-7.0 -178.4 6.1 -177.85" fill="#5d3701" fill-rule="evenodd" stroke="none"/>
    <path d="M54.95 -141.6 Q68.15 -138.8 80.0 -130.85 90.4 -122.0 92.2 -104.65 L91.25 -89.95 Q101.55 -79.55 109.8 -67.1 L112.8 -62.4 Q117.55 -54.75 121.45 -46.3 126.2 -36.05 129.9 -24.7 135.75 -28.95 143.65 -32.6 145.85 -33.8 147.65 -35.4 L160.35 -35.6 Q121.25 -22.4 117.85 15.55 L116.15 11.25 Q112.6 -2.2 122.7 -18.5 L126.7 -22.2 Q112.3 -62.9 90.85 -84.55 L89.4 -62.9 Q90.25 -87.2 87.4 -107.7 81.55 -128.1 54.95 -141.6 M168.15 -139.2 Q170.3 -140.1 172.8 -139.7 L190.35 -130.3 191.95 -129.45 171.0 -136.05 Q163.65 -132.3 155.9 -124.3 L164.05 -135.9 Q165.8 -138.35 168.15 -139.2 M205.25 -114.15 Q212.2 -100.45 221.3 -90.95 224.3 -85.35 221.3 -79.8 L219.5 -75.3 218.15 -86.05 205.25 -114.15 M91.25 -89.95 L90.85 -84.55 91.25 -89.95 M16.8 -134.7 Q21.5 -136.1 26.35 -136.15 37.4 -136.25 49.6 -129.3 68.75 -118.4 82.65 -86.35 47.2 -131.9 16.8 -134.7 M126.7 -22.2 L129.9 -24.7 126.7 -22.2 M22.35 73.1 Q24.2 70.7 27.2 71.5 L35.6 73.9 Q70.5 84.7 92.65 108.9 97.0 113.6 100.75 118.8 109.7 134.65 109.1 149.15 102.05 160.0 94.0 165.1 102.05 160.0 109.1 149.15 108.7 158.4 104.45 167.05 102.15 171.55 98.85 176.0 80.1 200.95 64.05 193.75 L62.8 193.2 Q86.8 187.4 94.0 165.1 98.7 133.05 76.95 107.25 55.15 82.35 22.35 73.1 M90.05 108.3 L92.65 108.9 90.05 108.3 M-203.7 222.65 Q-204.3 219.7 -202.65 217.2 -199.9 212.85 -196.5 215.45 -194.1 212.0 -189.5 210.75 -183.8 211.05 -180.75 215.45 -179.3 217.65 -178.2 219.85 -188.65 214.25 -194.65 224.3 -197.05 225.3 -199.3 226.45 L-199.3 225.25 Q-199.15 219.1 -196.5 215.45 -199.15 219.1 -199.3 225.25 -199.45 222.9 -200.65 221.3 L-203.7 222.65 M-173.95 187.6 Q-175.7 177.1 -173.75 168.05 -169.75 149.25 -150.3 136.65 L-149.2 140.7 Q-160.1 147.6 -168.45 162.1 -171.7 177.6 -168.45 183.85 -164.0 189.45 -156.35 190.65 L-164.65 191.0 Q-170.35 190.85 -173.95 187.6 M-271.05 -121.05 Q-268.9 -122.4 -266.8 -122.65 -264.1 -125.0 -261.3 -124.7 L-257.3 -124.25 Q-255.3 -122.15 -255.3 -117.4 -252.0 -112.0 -249.45 -103.75 -247.8 -98.25 -246.8 -92.9 -247.85 -89.2 -249.45 -86.35 -250.5 -84.4 -251.85 -82.9 L-252.0 -90.05 Q-253.7 -103.05 -260.75 -118.25 -265.15 -121.2 -271.05 -121.05 M-252.25 -130.85 L-249.2 -131.65 Q-244.45 -135.7 -241.4 -134.05 L-240.3 -131.75 -236.55 -131.85 Q-232.35 -135.65 -226.7 -135.55 -223.1 -133.35 -223.25 -121.6 -220.8 -111.95 -216.2 -104.1 -213.8 -105.15 -211.85 -106.65 -206.7 -110.7 -201.85 -108.55 -197.3 -98.3 -206.2 -75.25 -209.1 -71.05 -213.05 -67.7 L-208.9 -81.3 Q-206.4 -90.95 -208.9 -101.35 -216.6 -97.65 -226.15 -101.35 -222.65 -101.85 -219.7 -102.75 -228.35 -115.0 -229.65 -129.3 L-239.35 -129.3 -240.3 -131.75 -239.35 -129.3 Q-238.35 -126.25 -237.55 -122.25 L-234.35 -116.45 Q-230.05 -108.0 -229.5 -102.3 L-233.8 -103.1 -244.0 -127.65 Q-246.85 -131.85 -252.25 -130.85 M-223.1 -50.9 Q-217.4 -47.35 -212.55 -43.45 -194.7 -29.2 -188.7 -10.05 -202.9 -36.4 -223.1 -50.9 M-180.75 -102.45 Q-176.7 -117.4 -165.45 -125.2 -152.55 -131.75 -137.55 -133.1 -166.25 -127.7 -180.75 -102.45 M95.2 219.4 L95.8 218.9 Q101.1 215.2 106.2 215.2 111.75 215.2 114.55 219.5 L116.4 217.6 Q123.85 210.4 130.95 210.4 L131.35 210.4 Q133.45 210.45 135.15 211.2 136.4 210.15 137.75 209.25 139.7 208.0 141.6 207.3 144.45 206.15 147.25 206.15 150.05 206.15 152.2 207.3 153.6 208.0 154.7 209.25 156.1 210.85 157.0 213.35 158.5 217.45 157.95 222.7 L152.85 217.85 Q155.5 206.0 135.5 211.35 139.0 212.95 140.7 217.6 141.55 219.85 141.75 222.5 140.75 223.1 139.9 223.75 L136.2 220.4 Q140.6 208.65 114.55 219.5 L115.45 221.3 115.95 222.4 Q117.75 227.15 116.65 233.4 L112.2 229.25 Q109.9 212.95 86.95 227.65 89.05 224.85 91.65 222.4 93.4 220.65 95.2 219.4 M135.5 211.35 L135.15 211.2 135.5 211.35 M-216.2 -104.1 Q-217.85 -103.35 -219.7 -102.75 -217.85 -103.35 -216.2 -104.1" fill="#97a13e" fill-rule="evenodd" stroke="none"/>
    <path d="M4.3 -108.8 L4.3 -101.55 Q-1.55 -84.7 2.9 -69.85 8.55 -51.1 23.75 -50.55 25.2 -41.3 27.25 -33.2 20.5 -24.75 8.7 -26.4 1.7 -10.15 -10.9 7.4 -10.6 19.45 -2.4 33.45 L-0.35 36.9 Q3.4 42.85 9.95 49.75 17.75 57.95 29.6 67.5 32.8 70.45 35.6 73.9 L27.2 71.5 Q24.2 70.7 22.35 73.1 20.95 74.85 20.15 78.3 8.95 126.8 23.45 159.1 13.65 163.7 3.25 162.0 -6.6 158.2 -15.15 153.65 -22.3 193.0 -74.45 176.55 L-81.95 183.65 Q-88.75 187.25 -95.55 186.25 -108.45 184.45 -121.4 166.3 -129.7 154.65 -134.4 138.15 -118.2 163.95 -102.0 161.05 -112.05 148.8 -121.0 126.8 -115.75 131.1 -109.5 132.1 -104.8 144.4 -97.75 154.35 L-96.15 156.5 Q-71.8 169.35 -54.7 168.75 -67.45 159.1 -83.6 131.45 L-80.5 132.85 Q-64.65 138.95 -48.35 128.6 -54.0 122.4 -58.35 115.55 -25.75 141.55 0.8 144.4 -0.25 135.25 -13.1 124.55 L-10.1 124.8 Q1.85 124.15 -2.45 116.3 -9.1 106.25 -15.45 95.05 -3.8 111.1 7.75 119.95 16.35 106.05 1.05 72.25 -24.55 32.8 -15.0 -6.7 -18.45 -26.75 -15.7 -38.2 -19.85 -49.2 -20.95 -65.85 L-18.5 -69.5 -21.25 -67.05 Q-26.0 -86.05 -26.1 -112.0 L-69.3 -66.1 -62.25 -80.0 -55.15 -95.7 Q-66.6 -100.65 -72.8 -123.7 -86.35 -113.55 -97.85 -98.4 L-105.7 -87.15 Q-105.45 -100.1 -98.85 -109.35 -120.3 -99.85 -134.7 -78.8 -136.45 -75.65 -138.05 -71.9 -140.85 -65.5 -143.2 -57.85 -141.1 -69.95 -136.9 -82.95 -132.05 -105.15 -114.95 -125.85 -132.9 -121.2 -149.55 -107.9 -144.7 -112.15 -139.15 -116.05 L-138.75 -116.4 -138.7 -116.45 Q-124.05 -128.0 -108.65 -133.55 -124.05 -128.0 -138.7 -116.45 -132.45 -125.7 -124.25 -133.25 L-119.55 -137.35 -119.15 -137.7 Q-113.9 -138.2 -108.65 -134.9 L-108.65 -133.55 Q-108.7 -124.4 -107.15 -115.05 -95.8 -128.05 -82.5 -138.8 L-66.25 -138.1 -65.15 -129.0 Q-63.2 -115.0 -59.2 -103.35 -53.4 -122.85 -38.4 -140.7 L-32.4 -142.15 Q-25.95 -138.9 -20.5 -138.35 -17.3 -141.3 -15.35 -144.35 -6.6 -144.8 2.65 -144.0 -6.2 -135.95 -11.9 -119.95 -5.6 -103.1 4.3 -108.8 M-65.15 -129.0 L-72.8 -123.7 -65.15 -129.0 M-130.65 -85.65 L-134.7 -78.8 -130.65 -85.65 M-15.15 153.65 Q-35.2 143.1 -48.35 128.6 -35.2 143.1 -15.15 153.65 M-42.4 -104.45 L-62.25 -80.0 -42.4 -104.45 M-11.9 -119.95 Q-16.3 -107.6 -18.75 -90.65 -16.3 -107.6 -11.9 -119.95 M-91.05 173.8 Q-97.0 173.5 -104.05 169.15 -97.0 173.5 -91.05 173.8 M-90.75 171.55 Q-96.55 167.75 -102.0 161.05 -96.55 167.75 -90.75 171.55 M-96.15 156.5 Q-87.0 168.45 -74.45 176.55 -87.0 168.45 -96.15 156.5 M-64.8 151.95 Q-72.65 148.4 -80.5 132.85 -72.65 148.4 -64.8 151.95 M8.7 -26.4 Q-9.65 -24.85 -14.8 -60.0 -9.65 -24.85 8.7 -26.4" fill="url(#gradient6)" fill-rule="evenodd" stroke="none"/>
    <path d="M207.05 -26.65 L211.05 -22.1 Q226.75 -10.65 237.15 15.95 L228.7 10.7 Q232.8 34.45 226.55 55.15 223.65 40.9 216.7 32.6 210.4 72.05 181.4 89.0 184.0 78.5 181.85 70.45 175.8 83.35 161.3 83.7 172.5 70.2 175.8 48.75 179.45 41.2 178.65 26.2 184.6 42.6 178.65 58.85 187.05 50.05 190.75 33.35 193.15 46.3 190.75 67.25 206.0 34.55 200.8 -4.4 L213.0 18.25 Q215.5 -4.45 199.6 -33.5 L200.8 -37.6 Q202.8 -32.15 207.05 -26.65 M179.4 65.2 Q181.6 69.45 181.85 70.45 181.6 69.45 179.4 65.2 M-217.2 44.45 Q-216.55 58.4 -213.55 70.05 -227.1 56.95 -244.55 24.15 L-244.55 37.7 Q-257.25 11.2 -259.3 -30.15 -240.1 28.0 -221.0 42.05 L-217.2 44.45" fill="#131c16" fill-rule="evenodd" stroke="none"/>
    <path d="M-7.2 -263.15 Q-6.95 -256.05 -7.15 -248.9 L-7.15 -248.7 Q-7.65 -231.55 -11.0 -214.3 -17.45 -217.3 -26.1 -215.7 -8.4 -219.9 -7.2 -263.15 M-100.8 118.05 L-97.35 121.55 Q-86.3 144.35 -75.25 153.2 L-69.3 159.65 Q-95.0 141.3 -100.8 118.05" fill="#d46b0e" fill-rule="evenodd" stroke="none"/>
    <path d="M-260.45 -33.5 L-261.55 -37.05 Q-270.5 -45.65 -280.6 -59.75 L-288.75 -71.85 Q-291.15 -78.95 -288.75 -86.15 -285.45 -99.3 -280.6 -108.95 -278.25 -113.55 -275.6 -117.35 -273.25 -119.75 -271.05 -121.05 -265.15 -121.2 -260.75 -118.25 -253.7 -103.05 -252.0 -90.05 L-251.85 -82.9 Q-261.85 -79.1 -262.5 -87.75 -263.4 -94.2 -266.0 -99.1 -274.8 -93.85 -271.85 -85.05 -270.3 -80.4 -264.95 -78.75 -255.75 -71.45 -253.05 -60.2 -247.35 -55.2 -243.45 -61.75 -244.4 -72.95 -228.65 -85.65 L-220.2 -91.8 Q-232.1 -88.65 -239.0 -97.45 L-238.5 -101.7 Q-237.4 -103.35 -233.8 -103.1 -237.4 -103.35 -238.5 -101.7 L-239.0 -97.45 Q-239.2 -94.1 -238.55 -91.75 -244.55 -93.0 -245.2 -103.85 L-246.85 -107.95 -249.45 -103.75 Q-252.0 -112.0 -255.3 -117.4 -255.3 -122.15 -257.3 -124.25 L-261.3 -124.7 Q-257.3 -129.2 -252.25 -130.85 -246.85 -131.85 -244.0 -127.65 L-233.8 -103.1 -229.5 -102.3 -226.15 -101.35 Q-216.6 -97.65 -208.9 -101.35 -206.4 -90.95 -208.9 -81.3 L-213.05 -67.7 Q-218.05 -63.65 -224.8 -60.95 -227.85 -54.95 -224.2 -51.7 L-224.0 -51.5 -223.3 -51.0 -223.1 -50.9 Q-202.9 -36.4 -188.7 -10.05 -194.7 -29.2 -212.55 -43.45 -205.35 -63.65 -192.1 -80.95 -187.8 -85.95 -182.85 -89.4 -172.75 -96.7 -160.05 -97.3 L-163.3 -93.4 Q-183.25 -82.55 -196.25 -48.7 -189.9 -60.05 -181.15 -68.85 L-183.0 -49.95 -183.05 -49.55 Q-185.55 -36.0 -184.8 -20.75 -181.65 -11.3 -185.15 -7.2 -196.5 1.15 -195.75 7.2 -194.85 11.8 -193.65 14.85 -195.95 17.15 -198.7 19.1 -207.2 25.15 -218.65 16.05 -236.1 -5.45 -251.2 -39.6 L-245.35 -15.9 Q-253.05 -28.25 -260.45 -33.5 M-182.6 -92.7 Q-182.0 -97.9 -180.75 -102.45 -166.25 -127.7 -137.55 -133.1 L-130.45 -133.45 -182.6 -92.7 M-270.65 -105.45 Q-267.95 -102.65 -266.0 -99.1 -267.95 -102.65 -270.65 -105.45 M-248.6 -112.0 L-246.85 -107.95 -248.6 -112.0 M-230.1 -39.6 L-221.05 -24.6 Q-228.95 -39.65 -232.05 -47.4 -232.7 -51.3 -229.75 -52.8 L-233.8 -52.8 Q-236.0 -52.55 -235.15 -49.7 L-230.1 -39.6 M-246.75 -45.45 Q-241.2 -47.35 -228.75 -23.55 L-233.35 -34.0 Q-237.75 -43.65 -242.45 -49.4 -245.15 -50.5 -246.75 -45.45 M-185.4 0.65 Q-186.45 3.85 -187.85 6.7 L-187.95 5.05 Q-187.95 2.6 -185.4 0.65 M-182.65 -17.15 Q-183.55 -19.2 -184.8 -20.75 L-182.95 -26.0 Q-182.6 -21.4 -182.65 -17.15" fill="url(#gradient7)" fill-rule="evenodd" stroke="none"/>
    <path d="M-193.65 14.85 Q-194.85 11.8 -195.75 7.2 -196.5 1.15 -185.15 -7.2 -181.65 -11.3 -184.8 -20.75 -183.55 -19.2 -182.65 -17.15 -180.65 -12.75 -180.3 -5.85 -180.55 -2.15 -183.75 -0.4 L-185.4 0.65 Q-187.95 2.6 -187.95 5.05 L-187.85 6.7 Q-187.65 10.65 -185.4 14.55 -185.85 22.3 -189.4 20.75 -191.85 19.75 -193.65 14.85 M-184.0 25.0 Q-183.35 25.0 -182.85 25.75 -182.4 26.55 -182.35 27.7 -182.4 28.8 -182.85 29.55 -183.35 30.35 -184.0 30.35 -184.65 30.35 -185.15 29.55 -185.6 28.8 -185.6 27.7 -185.6 26.55 -185.15 25.75 -184.65 25.0 -184.0 25.0 M-196.15 65.4 Q-194.0 63.4 -191.25 65.4 -189.9 66.4 -189.7 71.2 -187.2 75.45 -183.55 74.85 L-180.8 74.85 Q-175.4 76.35 -180.95 79.15 -185.95 78.35 -191.45 73.5 L-195.2 70.7 Q-198.85 67.85 -196.15 65.4" fill="#ffffff" fill-rule="evenodd" stroke="none"/>
    <path d="M-119.55 -137.35 Q-124.15 -152.35 -115.2 -168.55 -107.45 -173.6 -99.05 -177.2 -108.25 -156.4 -108.65 -134.9 -113.9 -138.2 -119.15 -137.7 L-119.55 -137.35 M-38.4 -140.7 L-35.6 -143.95 Q-34.0 -142.95 -32.4 -142.15 L-38.4 -140.7 M-67.05 -150.25 L-66.25 -138.1 -82.5 -138.8 Q-75.1 -144.9 -67.05 -150.25" fill="#a34a10" fill-rule="evenodd" stroke="none"/>
    <path d="M-132.05 111.4 Q-121.8 109.75 -123.25 82.6 -140.05 56.55 -148.8 33.45 -157.85 9.9 -158.6 -10.35 L-158.0 -11.45 -158.6 -10.35 -158.6 -17.25 Q-157.25 -59.85 -165.45 -58.4 L-161.7 -63.45 -162.05 -60.2 Q-150.6 -77.15 -136.9 -82.95 -141.1 -69.95 -143.2 -57.85 -147.4 -33.9 -143.5 -13.25 -140.95 -20.15 -137.95 -26.4 -122.8 -58.2 -96.2 -73.35 L-97.45 -69.5 Q-110.3 -30.8 -108.5 3.8 -105.05 19.45 -100.45 33.45 -87.7 73.15 -66.45 99.65 -87.7 73.15 -100.45 33.45 -105.05 19.45 -108.5 3.8 -104.85 -8.2 -99.9 -17.8 -85.3 -47.05 -59.75 -56.0 L-63.65 -49.4 Q-72.8 -32.85 -72.2 -19.1 -71.25 2.0 -48.45 33.45 L-47.1 35.35 -39.3 45.45 Q-29.1 70.25 -17.55 91.2 L-15.45 95.05 Q-9.1 106.25 -2.45 116.3 1.85 124.15 -10.1 124.8 L-13.1 124.55 -20.05 123.45 Q-43.85 118.65 -66.45 99.65 -64.45 104.75 -61.85 109.55 L-58.35 115.55 Q-54.0 122.4 -48.35 128.6 -64.65 138.95 -80.5 132.85 L-83.6 131.45 Q-90.55 128.05 -97.35 121.55 L-100.8 118.05 Q-105.65 112.8 -110.5 105.95 -114.4 100.45 -118.3 93.85 -116.0 115.3 -109.5 132.1 -115.75 131.1 -121.0 126.8 -124.25 124.05 -127.05 120.15 L-128.05 118.6 Q-130.2 115.35 -132.05 111.4 M-20.95 -65.85 Q-33.45 -46.95 -37.25 -23.15 -40.9 -2.65 -33.05 25.3 L-30.2 33.45 Q-18.75 64.85 2.05 95.5 -19.3 73.55 -33.15 50.1 L-33.45 49.45 Q-38.1 41.5 -41.85 33.45 -57.9 -0.8 -58.55 -38.2 L-46.45 -5.2 Q-53.75 -37.8 -21.25 -67.05 L-18.5 -69.5 -20.95 -65.85" fill="#000000" fill-rule="evenodd" stroke="none"/>
    <path d="M-178.2 219.85 Q-166.7 218.85 -162.1 208.35 L-153.45 208.65 -162.05 217.65 Q-166.3 225.95 -173.1 224.95 L-176.15 225.7 Q-174.9 231.2 -175.95 237.1 -181.8 243.65 -189.05 239.55 -189.45 232.6 -194.65 224.3 -188.65 214.25 -178.2 219.85 -176.8 222.7 -176.15 225.7 -176.8 222.7 -178.2 219.85 M-170.75 199.1 Q-172.15 196.15 -173.0 192.45 L-173.95 187.6 Q-170.35 190.85 -164.65 191.0 L-156.35 190.65 Q-147.8 189.05 -142.35 182.2 -137.7 161.5 -145.2 151.05 -152.85 152.05 -160.6 161.3 -152.85 152.05 -145.2 151.05 -137.7 161.5 -142.35 182.2 -147.8 189.05 -156.35 190.65 -164.0 189.45 -168.45 183.85 -171.7 177.6 -168.45 162.1 -160.1 147.6 -149.2 140.7 -135.2 169.05 -121.4 166.3 -128.4 205.3 -170.75 199.1" fill="url(#gradient8)" fill-rule="evenodd" stroke="none"/>
    <path d="M-213.55 70.05 Q-212.25 75.05 -210.55 79.55 -227.25 67.2 -238.3 49.65 -237.35 57.35 -235.7 60.25 -270.35 28.05 -262.45 -10.15 L-271.65 8.6 Q-274.15 -15.5 -259.3 -30.15 -257.25 11.2 -244.55 37.7 L-244.55 24.15 Q-227.1 56.95 -213.55 70.05 M-238.3 49.65 L-240.5 45.95 -238.3 49.65" fill="url(#gradient9)" fill-rule="evenodd" stroke="none"/>
    <path d="M-196.1 251.4 Q-208.95 250.4 -222.45 256.55 -211.0 250.85 -201.15 242.4 -197.05 238.85 -198.3 230.8 -198.65 228.75 -199.3 226.45 L-200.5 227.1 Q-211.4 232.9 -219.45 243.25 L-226.45 247.05 Q-217.05 234.2 -200.65 221.3 -199.45 222.9 -199.3 225.25 L-199.3 226.45 Q-197.05 225.3 -194.65 224.3 -189.45 232.6 -189.05 239.55 -188.65 246.3 -192.85 251.7 L-196.1 251.4 M141.75 222.5 Q146.35 219.5 152.85 217.85 L157.95 222.7 157.95 222.8 Q152.2 223.0 150.85 228.9 165.75 245.4 171.55 262.5 164.65 257.75 157.9 254.35 155.5 246.45 151.8 239.65 147.6 232.0 141.75 225.7 L139.9 223.75 Q129.55 226.95 127.75 235.9 143.8 246.4 155.45 265.4 145.2 258.3 135.25 254.1 L129.5 251.9 129.35 251.6 128.75 250.45 Q125.0 242.95 119.6 236.7 L116.95 233.7 Q118.65 230.35 121.5 227.85 126.9 222.8 136.2 220.4 L139.9 223.75 Q140.75 223.1 141.75 222.5 M93.8 241.05 Q99.15 232.55 112.2 229.25 99.9 236.75 98.85 245.4 118.6 252.45 135.8 271.25 L135.9 271.35 136.95 278.25 Q118.6 264.3 101.1 259.35 95.45 257.75 89.95 257.1 89.6 247.5 93.8 241.05" fill="#28231b" fill-rule="evenodd" stroke="none"/>
    <path d="M-229.45 260.15 Q-225.1 250.6 -219.45 243.25 -211.4 232.9 -200.5 227.1 L-199.3 226.45 Q-198.65 228.75 -198.3 230.8 -215.6 240.15 -229.45 260.15 M-226.45 247.05 Q-217.35 228.25 -203.7 222.65 L-200.65 221.3 Q-217.05 234.2 -226.45 247.05 M139.9 223.75 L141.75 225.7 Q147.6 232.0 151.8 239.65 155.5 246.45 157.9 254.35 159.95 261.4 160.95 269.4 L155.45 265.4 Q158.45 252.4 139.9 223.75 M116.95 233.7 L119.6 236.7 Q125.0 242.95 128.75 250.45 L129.35 251.6 129.5 251.9 130.85 254.85 Q134.1 262.5 135.8 271.25 129.05 255.15 112.2 229.25 L116.65 233.4 116.95 233.7 M158.05 222.8 Q174.25 239.95 177.6 266.9 173.4 251.85 158.05 222.8" fill="#5b5c50" fill-rule="evenodd" stroke="none"/>
    <path d="M-222.45 256.55 Q-225.9 258.1 -229.45 260.15 -215.6 240.15 -198.3 230.8 -197.05 238.85 -201.15 242.4 -211.0 250.85 -222.45 256.55 M171.55 262.5 Q165.75 245.4 150.85 228.9 152.2 223.0 157.95 222.8 L158.05 222.8 Q173.4 251.85 177.6 266.9 L171.55 262.5 M155.45 265.4 Q143.8 246.4 127.75 235.9 129.55 226.95 139.9 223.75 158.45 252.4 155.45 265.4 M135.8 271.25 Q118.6 252.45 98.85 245.4 99.9 236.75 112.2 229.25 129.05 255.15 135.8 271.25" fill="url(#gradient10)" fill-rule="evenodd" stroke="none"/>
    <path d="M175.8 48.75 Q171.2 51.7 167.3 60.4 L167.8 54.75 168.0 52.6 Q169.4 41.0 172.85 29.6 176.05 18.75 181.05 8.25 L166.95 14.9 Q192.15 -10.95 199.6 -33.5 215.5 -4.45 213.0 18.25 L200.8 -4.4 Q206.0 34.55 190.75 67.25 193.15 46.3 190.75 33.35 187.05 50.05 178.65 58.85 184.6 42.6 178.65 26.2 179.45 41.2 175.8 48.75" fill="url(#gradient11)" fill-rule="evenodd" stroke="none"/>
    <path d="M22.35 73.1 Q55.15 82.35 76.95 107.25 98.7 133.05 94.0 165.1 84.65 170.9 73.95 169.05 54.95 155.25 46.55 138.05 L45.35 135.35 Q43.65 121.85 48.5 115.2 L51.1 115.95 Q59.35 118.8 70.25 130.3 70.95 135.45 67.05 139.65 70.95 135.45 70.25 130.3 59.35 118.8 51.1 115.95 L48.5 115.2 Q43.65 121.85 45.35 135.35 L46.55 138.05 Q54.95 155.25 73.95 169.05 84.65 170.9 94.0 165.1 86.8 187.4 62.8 193.2 L64.05 193.75 Q82.15 208.0 108.9 189.7 L109.95 195.35 Q117.05 205.7 131.35 210.4 L130.95 210.4 Q123.85 210.4 116.4 217.6 L114.55 219.5 Q111.75 215.2 106.2 215.2 101.1 215.2 95.8 218.9 L95.2 219.4 Q91.45 214.25 78.5 229.25 65.8 229.7 59.2 204.3 59.55 186.85 49.8 182.85 20.0 153.55 20.15 78.3 20.95 74.85 22.35 73.1 M152.85 217.85 Q146.35 219.5 141.75 222.5 141.55 219.85 140.7 217.6 139.0 212.95 135.5 211.35 155.5 206.0 152.85 217.85 M136.2 220.4 Q126.9 222.8 121.5 227.85 118.05 226.05 115.45 221.3 L114.55 219.5 Q140.6 208.65 136.2 220.4 M82.95 234.3 Q84.6 230.75 86.95 227.65 109.9 212.95 112.2 229.25 99.15 232.55 93.8 241.05 84.55 244.15 82.95 234.3" fill="url(#gradient12)" fill-rule="evenodd" stroke="none"/>
    <path d="M-7.4 -212.2 Q6.1 -230.9 7.85 -248.7 L7.9 -248.9 8.05 -251.25 Q10.75 -250.45 13.05 -248.9 L13.3 -248.7 Q19.3 -244.3 21.5 -233.95 15.75 -221.65 0.0 -203.5 L1.7 -199.9 Q9.7 -198.95 14.75 -191.55 25.2 -201.5 35.1 -211.75 52.0 -229.3 67.3 -247.85 L67.3 -239.35 Q67.1 -230.8 66.25 -223.05 62.65 -191.45 47.7 -172.8 38.95 -162.15 27.8 -156.1 37.95 -156.9 46.8 -149.75 50.3 -146.95 53.6 -142.8 L54.95 -141.6 Q68.15 -138.8 80.0 -130.85 90.4 -122.0 92.2 -104.65 L91.25 -89.95 Q101.55 -79.55 109.8 -67.1 L118.0 -78.5 114.0 -113.4 122.2 -88.8 130.05 -108.15 130.05 -159.2 122.85 -206.95 133.3 -167.25 145.75 -190.1 134.5 -157.2 137.6 -125.85 152.5 -167.6 152.5 -208.55 157.0 -152.7 150.8 -136.1 195.1 -200.15 177.85 -161.15 168.15 -148.95 168.15 -139.2 Q170.3 -140.1 172.8 -139.7 L190.35 -130.3 203.55 -147.55 203.55 -169.6 209.2 -151.55 238.05 -180.85 198.35 -128.25 Q201.95 -127.2 205.25 -125.0 206.45 -122.0 205.25 -114.15 212.2 -100.45 221.3 -90.95 224.3 -85.35 221.3 -79.8 L219.5 -75.3 Q217.65 -70.35 216.25 -65.2 212.3 -51.6 210.9 -36.45 L207.05 -26.65 211.05 -22.1 Q226.75 -10.65 237.15 15.95 L228.7 10.7 Q232.8 34.45 226.55 55.15 223.65 40.9 216.7 32.6 210.4 72.05 181.4 89.0 184.0 78.5 181.85 70.45 175.8 83.35 161.3 83.7 172.5 70.2 175.8 48.75 171.2 51.7 167.3 60.4 L167.8 54.75 Q158.65 66.4 148.45 75.1 132.65 87.15 113.6 95.9 122.8 91.95 129.5 93.05 L174.05 103.75 177.0 104.45 M145.35 -128.25 L150.8 -136.1 M136.15 -121.8 L135.3 -119.4 M146.15 -120.0 L143.65 -117.4 Q141.3 -112.4 141.2 -104.85 141.15 -101.7 141.5 -98.1 138.35 -96.85 135.25 -94.9 129.15 -90.8 129.3 -81.75 131.5 -73.95 136.9 -69.9 142.95 -62.8 145.55 -56.05 149.25 -56.35 151.0 -58.55 150.85 -62.65 152.0 -66.6 153.65 -72.5 155.9 -76.45 M145.25 -77.7 Q150.8 -73.05 152.0 -66.6 M158.35 -41.35 Q156.25 -43.7 154.8 -46.15 152.45 -39.5 147.65 -35.4 145.85 -33.8 143.65 -32.6 135.75 -28.95 129.9 -24.7 L126.7 -22.2 122.7 -18.5 Q112.6 -2.2 116.15 11.25 L117.85 15.55 119.0 18.15 Q122.65 25.9 125.85 27.85 M171.8 5.6 L173.4 3.0 175.8 -1.25 Q187.8 -22.8 195.7 -46.95 197.75 -59.45 195.7 -72.05 M136.15 -121.8 L137.6 -125.85 M146.15 -120.0 Q150.3 -123.8 155.9 -124.3 L164.05 -135.9 Q165.8 -138.35 168.15 -139.2 M43.65 -203.4 Q35.4 -185.85 26.35 -176.95 L22.55 -173.6 Q24.95 -165.45 26.25 -156.0 L27.8 -156.1 26.35 -155.4 26.25 -156.0 Q16.15 -154.65 4.7 -145.65 L2.65 -144.0 Q-6.2 -135.95 -11.9 -119.95 -16.3 -107.6 -18.75 -90.65 M3.1 -196.45 L5.0 -189.8 M-41.85 -210.05 L-40.45 -210.75 -35.85 -212.8 -35.8 -212.8 Q-32.35 -214.25 -29.2 -215.05 L-26.1 -215.7 Q-17.45 -217.3 -11.0 -214.3 L-7.4 -212.2 Q-3.15 -209.05 0.0 -203.5 M-56.15 -215.45 L-56.6 -211.0 Q-50.45 -200.55 -49.5 -187.6 L-53.15 -190.05 -59.4 -194.3 -61.2 -187.05 Q-53.2 -184.8 -47.95 -180.6 -43.2 -176.75 -43.2 -173.15 -24.9 -165.1 -17.05 -159.65 -14.3 -157.8 -12.85 -156.2 -11.8 -150.15 -15.35 -144.35 -6.6 -144.8 2.65 -144.0 M22.55 -173.6 L19.7 -181.75 19.55 -182.15 18.35 -184.9 16.95 -187.85 Q15.95 -189.9 14.75 -191.55 M-20.1 -175.1 L-31.45 -180.4 Q-12.65 -186.85 6.1 -186.05 L6.1 -177.85 6.1 -162.75 -20.1 -175.1 Q-7.0 -178.4 6.1 -177.85 M26.35 -136.15 Q29.05 -141.1 34.8 -143.0 38.35 -143.3 41.85 -143.15 48.55 -143.0 54.95 -141.6 M89.4 -62.9 L90.85 -84.55 91.25 -89.95 M16.8 -134.7 Q12.5 -131.3 9.65 -126.45 5.3 -119.25 4.3 -108.8 L4.3 -101.55 Q-1.55 -84.7 2.9 -69.85 8.55 -51.1 23.75 -50.55 21.9 -62.2 21.0 -75.65 M88.8 -53.2 L89.4 -62.9 M26.35 -136.15 Q21.5 -136.1 16.8 -134.7 M82.65 -86.35 Q68.75 -118.4 49.6 -129.3 37.4 -136.25 26.35 -136.15 M9.95 -96.25 Q15.4 -85.25 24.55 -77.1 46.3 -57.25 88.8 -53.2 M23.75 -50.55 L25.6 -50.55 M27.25 -33.2 Q20.5 -24.75 8.7 -26.4 1.7 -10.15 -10.9 7.4 -10.6 19.45 -2.4 33.45 L-0.35 36.9 Q3.4 42.85 9.95 49.75 10.1 39.4 18.8 24.9 L22.1 -13.95 23.6 25.35 20.95 40.65 Q26.2 33.35 31.4 34.15 31.2 21.6 35.7 9.2 37.05 18.65 38.9 23.75 41.85 13.9 46.15 6.05 L44.25 3.95 Q33.25 -9.75 27.25 -33.2 25.2 -41.3 23.75 -50.55 M27.25 -33.2 Q28.6 -34.85 29.75 -36.85 M126.05 -77.25 L124.1 -83.0 122.2 -88.8 M109.8 -67.1 L112.8 -62.4 Q117.55 -54.75 121.45 -46.3 126.2 -36.05 129.9 -24.7 M154.8 -46.15 Q151.1 -52.1 151.0 -58.55 M151.85 -100.25 Q146.65 -100.15 141.5 -98.1 M198.35 -128.25 Q195.3 -129.25 192.05 -129.45 L202.2 -109.6 M191.95 -129.45 L190.35 -130.3 M192.05 -129.45 L191.95 -129.45 M168.4 -109.9 Q159.3 -115.95 148.05 -115.55 M191.3 -88.0 L184.4 -103.95 M199.6 -33.5 L200.8 -37.6 Q202.8 -32.15 207.05 -26.65 M1.7 -199.9 L3.1 -196.45 M168.15 -148.95 L149.75 -125.85 M172.85 29.6 Q176.05 18.75 181.05 8.25 L166.95 14.9 Q192.15 -10.95 199.6 -33.5 M157.7 46.25 L171.4 31.25 172.85 29.6 Q169.4 41.0 168.0 52.6 L167.8 54.75 M181.85 70.45 Q181.6 69.45 179.4 65.2 M113.6 95.9 L110.0 97.65 M146.0 67.8 L139.55 71.1 M98.15 34.55 Q109.3 38.0 122.25 40.8 L136.75 54.9 Q143.25 58.75 149.75 54.9 L157.7 46.25 146.0 67.8 Q156.8 63.35 168.0 52.6 M46.15 6.05 L48.6 8.5 Q65.4 24.35 98.15 34.55 77.8 61.25 76.95 77.35 M69.5 69.6 Q79.75 47.35 98.15 34.55 M31.45 36.9 L31.4 34.15 M38.9 23.75 Q39.55 25.6 40.3 26.9 M35.6 73.9 L27.2 71.5 Q24.2 70.7 22.35 73.1 20.95 74.85 20.15 78.3 8.95 126.8 23.45 159.1 13.65 163.7 3.25 162.0 -6.6 158.2 -15.15 153.65 -22.3 193.0 -74.45 176.55 L-81.95 183.65 Q-88.75 187.25 -95.55 186.25 L-114.8 198.95 Q-120.55 211.25 -116.3 221.0 -113.9 235.2 -116.3 242.2 -119.2 251.9 -126.55 251.0 -152.85 246.85 -179.0 253.05 -183.4 260.15 -194.3 257.25 -196.1 256.25 -196.1 251.4 -208.95 250.4 -222.45 256.55 -225.9 258.1 -229.45 260.15 -225.1 250.6 -219.45 243.25 L-226.45 247.05 Q-217.35 228.25 -203.7 222.65 -204.3 219.7 -202.65 217.2 -199.9 212.85 -196.5 215.45 -194.1 212.0 -189.5 210.75 -183.8 211.05 -180.75 215.45 -179.3 217.65 -178.2 219.85 -166.7 218.85 -162.1 208.35 L-163.05 207.9 Q-167.95 205.2 -170.75 199.1 -172.15 196.15 -173.0 192.45 L-173.95 187.6 Q-175.7 177.1 -173.75 168.05 -169.75 149.25 -150.3 136.65 L-152.0 128.7 Q-157.0 101.45 -150.45 67.9 L-148.7 76.7 Q-146.7 85.6 -144.4 92.45 -142.25 99.4 -139.7 104.25 -140.15 95.85 -140.1 86.75 -137.65 97.7 -134.4 106.1 L-132.05 111.4 Q-121.8 109.75 -123.25 82.6 -140.05 56.55 -148.8 33.45 -157.85 9.9 -158.6 -10.35 -164.45 -0.8 -175.35 10.8 -177.3 34.25 -184.2 48.25 -186.35 52.5 -188.65 54.75 -194.0 59.65 -200.25 54.1 -201.7 52.0 -210.85 46.45 -213.85 46.15 -217.2 44.45 -216.55 58.4 -213.55 70.05 -212.25 75.05 -210.55 79.55 -227.25 67.2 -238.3 49.65 -237.35 57.35 -235.7 60.25 -270.35 28.05 -262.45 -10.15 L-271.65 8.6 Q-274.15 -15.5 -259.3 -30.15 L-260.45 -33.5 -261.55 -37.05 Q-270.5 -45.65 -280.6 -59.75 L-288.75 -71.85 Q-291.15 -78.95 -288.75 -86.15 -285.45 -99.3 -280.6 -108.95 -278.25 -113.55 -275.6 -117.35 -273.25 -119.75 -271.05 -121.05 -268.9 -122.4 -266.8 -122.65 -264.1 -125.0 -261.3 -124.7 -257.3 -129.2 -252.25 -130.85 L-249.2 -131.65 Q-244.45 -135.7 -241.4 -134.05 L-240.3 -131.75 -236.55 -131.85 Q-232.35 -135.65 -226.7 -135.55 -223.1 -133.35 -223.25 -121.6 -220.8 -111.95 -216.2 -104.1 -213.8 -105.15 -211.85 -106.65 -206.7 -110.7 -201.85 -108.55 -197.3 -98.3 -206.2 -75.25 -209.1 -71.05 -213.05 -67.7 -218.05 -63.65 -224.8 -60.95 -227.85 -54.95 -224.2 -51.7 L-224.0 -51.5 -223.3 -51.0 -223.1 -50.9 Q-217.4 -47.35 -212.55 -43.45 -205.35 -63.65 -192.1 -80.95 -187.8 -85.95 -182.85 -89.4 L-182.6 -92.7 Q-182.0 -97.9 -180.75 -102.45 -176.7 -117.4 -165.45 -125.2 -152.55 -131.75 -137.55 -133.1 L-130.45 -133.45 -124.25 -133.25 -119.55 -137.35 Q-124.15 -152.35 -115.2 -168.55 -119.8 -165.65 -124.05 -162.25 L-124.15 -162.25 -124.15 -162.15 -124.2 -162.1 M94.0 165.1 Q102.05 160.0 109.1 149.15 109.7 134.65 100.75 118.8 97.0 113.6 92.65 108.9 L90.05 108.3 M35.6 73.9 Q32.8 70.45 29.6 67.5 17.75 57.95 9.95 49.75 M66.85 75.9 Q68.1 72.65 69.5 69.6 M94.0 165.1 Q84.65 170.9 73.95 169.05 54.95 155.25 46.55 138.05 L45.35 135.35 Q43.65 121.85 48.5 115.2 L51.1 115.95 Q59.35 118.8 70.25 130.3 70.95 135.45 67.05 139.65 M-124.25 -162.1 Q-134.2 -154.3 -143.0 -144.1 -142.9 -160.85 -124.15 -181.0 L-119.75 -185.5 Q-116.3 -188.9 -112.65 -190.9 -107.15 -193.95 -101.25 -193.95 -95.75 -194.25 -90.65 -192.7 -81.05 -204.55 -69.6 -210.55 L-70.7 -214.8 Q-65.65 -223.35 -55.95 -217.5 L-56.15 -215.45 -48.7 -216.5 Q-43.25 -226.75 -37.25 -236.55 L-29.55 -248.7 -29.4 -248.9 Q-19.5 -264.0 -8.25 -278.25 L-7.45 -269.25 Q-7.25 -266.2 -7.2 -263.15 -6.95 -256.05 -7.15 -248.9 L-7.15 -248.7 Q-7.65 -231.55 -11.0 -214.3 M101.1 259.35 Q95.25 263.8 89.6 263.9 83.25 263.8 80.5 258.25 65.85 261.9 48.1 256.3 40.3 253.7 42.1 243.2 44.7 222.05 53.45 204.6 54.75 199.1 45.15 188.1 30.85 175.75 23.45 159.1 M95.8 218.9 Q101.1 215.2 106.2 215.2 111.75 215.2 114.55 219.5 L116.4 217.6 Q123.85 210.4 130.95 210.4 L131.35 210.4 Q117.05 205.7 109.95 195.35 L108.9 189.7 104.45 167.05 Q108.7 158.4 109.1 149.15 M64.05 193.75 Q80.1 200.95 98.85 176.0 102.15 171.55 104.45 167.05 M92.65 108.9 Q105.15 111.15 119.15 102.65 142.95 97.0 174.05 103.75 M-20.95 -65.85 Q-33.45 -46.95 -37.25 -23.15 -40.9 -2.65 -33.05 25.3 L-30.2 33.45 Q-18.75 64.85 2.05 95.5 -19.3 73.55 -33.15 50.1 M-33.45 49.45 Q-38.1 41.5 -41.85 33.45 -57.9 -0.8 -58.55 -38.2 L-46.45 -5.2 Q-53.75 -37.8 -21.25 -67.05 L-18.5 -69.5 -20.95 -65.85 M-62.25 -80.0 L-62.35 -80.0 -66.6 -74.85 M92.65 108.9 Q70.5 84.7 35.6 73.9 M141.75 222.5 Q146.35 219.5 152.85 217.85 L157.95 222.7 157.95 222.8 158.05 222.8 Q174.25 239.95 177.6 266.9 L171.55 262.5 Q164.65 257.75 157.9 254.35 155.5 246.45 151.8 239.65 147.6 232.0 141.75 225.7 L139.9 223.75 136.2 220.4 Q126.9 222.8 121.5 227.85 118.65 230.35 116.95 233.7 L119.6 236.7 Q125.0 242.95 128.75 250.45 L129.35 251.6 129.5 251.9 135.25 254.1 Q145.2 258.3 155.45 265.4 L160.95 269.4 Q159.95 261.4 157.9 254.35 M135.5 211.35 Q139.0 212.95 140.7 217.6 141.55 219.85 141.75 222.5 140.75 223.1 139.9 223.75 M131.35 210.4 Q133.45 210.45 135.15 211.2 136.4 210.15 137.75 209.25 139.7 208.0 141.6 207.3 144.45 206.15 147.25 206.15 150.05 206.15 152.2 207.3 153.6 208.0 154.7 209.25 156.1 210.85 157.0 213.35 158.5 217.45 157.95 222.7 M135.15 211.2 L135.5 211.35 M114.55 219.5 L115.45 221.3 115.95 222.4 Q117.75 227.15 116.65 233.4 L116.95 233.7 M86.95 227.65 Q89.05 224.85 91.65 222.4 93.4 220.65 95.2 219.4 M86.95 227.65 Q84.6 230.75 82.95 234.3 M93.8 241.05 Q99.15 232.55 112.2 229.25 L116.65 233.4 M101.1 259.35 Q95.45 257.75 89.95 257.1 89.6 247.5 93.8 241.05 M129.5 251.9 L130.85 254.85 135.25 254.1 M130.85 254.85 Q134.1 262.5 135.8 271.25 L135.9 271.35 136.95 278.25 Q118.6 264.3 101.1 259.35 M80.5 258.25 L79.9 256.75 Q78.4 252.85 78.9 248.05 M47.2 -57.0 Q52.0 -21.4 90.8 10.65 83.45 4.2 75.1 -9.7 M-68.0 -197.45 L-73.45 -200.1 -68.45 -204.3 -69.6 -210.55 M-56.6 -211.0 Q-57.2 -205.85 -58.1 -201.0 -54.7 -196.05 -53.15 -190.05 M-31.8 -215.6 L-29.2 -215.05 M-31.8 -215.6 L-39.5 -216.6 Q-44.25 -216.9 -48.7 -216.5 M-22.8 -238.85 Q-25.35 -225.9 -31.8 -215.6 M-239.35 -129.3 L-240.3 -131.75 M-219.7 -102.75 Q-217.85 -103.35 -216.2 -104.1 M-229.5 -102.3 L-226.15 -101.35 Q-222.65 -101.85 -219.7 -102.75 M-229.5 -102.3 Q-230.05 -108.0 -234.35 -116.45 L-237.55 -122.25 Q-238.35 -126.25 -239.35 -129.3 M-234.35 -116.45 Q-234.1 -118.95 -233.2 -119.85 M-239.0 -97.45 L-238.5 -101.7 Q-237.4 -103.35 -233.8 -103.1 L-229.5 -102.3 M-261.3 -124.7 L-257.3 -124.25 Q-255.3 -122.15 -255.3 -117.4 -252.0 -112.0 -249.45 -103.75 L-246.85 -107.95 -248.6 -112.0 M-266.0 -99.1 Q-267.95 -102.65 -270.65 -105.45 M-245.2 -103.85 L-246.85 -107.95 M-251.85 -82.9 Q-255.0 -79.2 -259.5 -77.8 -262.5 -78.0 -264.95 -78.75 -255.75 -71.45 -253.05 -60.2 M-243.45 -61.75 Q-244.4 -72.95 -228.65 -85.65 -234.35 -85.35 -236.9 -88.35 -239.3 -85.45 -242.4 -82.35 -245.95 -82.1 -249.45 -86.35 -250.5 -84.4 -251.85 -82.9 M-262.5 -87.75 Q-263.4 -94.2 -266.0 -99.1 -274.8 -93.85 -271.85 -85.05 -270.3 -80.4 -264.95 -78.75 M-249.45 -103.75 Q-247.8 -98.25 -246.8 -92.9 -247.85 -89.2 -249.45 -86.35 M-260.45 -33.5 Q-253.05 -28.25 -245.35 -15.9 -236.1 -1.05 -226.3 23.95 -216.75 41.45 -207.15 44.45 M-184.8 -20.75 Q-185.55 -36.0 -183.05 -49.55 M-196.25 -48.7 Q-183.25 -82.55 -163.3 -93.4 L-160.05 -97.3 Q-172.75 -96.7 -182.85 -89.4 M-163.3 -93.4 Q-178.4 -74.3 -183.0 -49.95 M-236.9 -88.35 Q-238.0 -89.65 -238.55 -91.75 -239.2 -94.1 -239.0 -97.45 M-220.2 -91.8 L-228.65 -85.65 M-233.8 -52.8 Q-236.0 -52.55 -235.15 -49.7 L-230.1 -39.6 M-233.35 -34.0 Q-237.75 -43.65 -242.45 -49.4 -245.15 -50.5 -246.75 -45.45 M-182.95 -26.0 L-180.95 -30.95 Q-174.9 -45.3 -165.45 -58.4 L-161.7 -63.45 Q-159.7 -77.1 -148.3 -91.35 M-156.45 -101.25 L-160.05 -97.3 M-182.95 -26.0 L-184.8 -20.75 M-188.7 -10.05 Q-194.7 -29.2 -212.55 -43.45 M-45.95 -168.5 Q-48.05 -167.15 -51.65 -166.55 -58.8 -165.3 -67.9 -167.6 -77.05 -170.0 -82.8 -174.6 -88.55 -179.15 -87.5 -183.25 -87.15 -184.5 -86.2 -185.5 -84.7 -187.3 -81.3 -188.2 -85.8 -191.25 -90.65 -192.7 L-91.0 -192.3 M-70.3 -181.8 L-70.1 -182.4 Q-69.2 -185.5 -68.65 -188.7 -74.3 -189.5 -79.15 -188.65 L-81.3 -188.2 M-68.65 -188.7 Q-68.0 -192.95 -68.0 -197.45 -68.05 -200.8 -68.45 -204.3 M-61.2 -187.05 L-63.35 -180.45 M-43.2 -173.15 L-43.4 -171.9 Q-43.9 -169.8 -45.95 -168.5 M-66.25 -138.1 L-65.15 -129.0 Q-63.2 -115.0 -59.2 -103.35 -53.4 -122.85 -38.4 -140.7 L-35.6 -143.95 -34.05 -145.6 M-72.8 -123.7 L-65.15 -129.0 M-32.4 -142.15 Q-25.95 -138.9 -20.5 -138.35 -17.3 -141.3 -15.35 -144.35 M-38.4 -140.7 L-32.4 -142.15 Q-34.0 -142.95 -35.6 -143.95 M-67.05 -150.25 L-66.25 -138.1 -82.5 -138.8 Q-95.8 -128.05 -107.15 -115.05 -108.7 -124.4 -108.65 -133.55 -124.05 -128.0 -138.7 -116.45 L-138.75 -116.4 -139.15 -116.05 Q-144.7 -112.15 -149.55 -107.9 -153.2 -104.7 -156.45 -101.3 L-156.45 -101.25 M-136.9 -82.95 Q-141.1 -69.95 -143.2 -57.85 -140.85 -65.5 -138.05 -71.9 -136.45 -75.65 -134.7 -78.8 L-130.65 -85.65 M-115.2 -168.55 Q-107.45 -173.6 -99.05 -177.2 -108.25 -156.4 -108.65 -134.9 L-107.9 -134.45 M-138.7 -116.45 Q-132.45 -125.7 -124.25 -133.25 M-108.65 -134.9 L-108.65 -133.55 M-119.55 -137.35 L-119.15 -137.7 Q-113.9 -138.2 -108.65 -134.9 M-137.95 -26.4 Q-122.8 -58.2 -96.2 -73.35 L-97.45 -69.5 Q-110.3 -30.8 -108.5 3.8 -104.85 -8.2 -99.9 -17.8 -85.3 -47.05 -59.75 -56.0 L-63.65 -49.4 Q-72.8 -32.85 -72.2 -19.1 -71.25 2.0 -48.45 33.45 L-47.1 35.35 -39.3 45.45 Q-29.1 70.25 -17.55 91.2 L-15.45 95.05 Q-9.1 106.25 -2.45 116.3 1.85 124.15 -10.1 124.8 L-13.1 124.55 -20.05 123.45 Q-43.85 118.65 -66.45 99.65 -64.45 104.75 -61.85 109.55 L-58.35 115.55 Q-54.0 122.4 -48.35 128.6 -35.2 143.1 -15.15 153.65 M-158.6 -10.35 L-158.0 -11.45 M-143.2 -57.85 Q-147.4 -33.9 -143.5 -13.25 -140.95 -20.15 -137.95 -26.4 M-165.45 -58.4 Q-157.25 -59.85 -158.6 -17.25 L-158.6 -10.35 M-55.15 -95.7 L-62.25 -80.0 -42.4 -104.45 M-66.95 -81.9 L-55.15 -95.7 M-72.8 -123.7 Q-86.35 -113.55 -97.85 -98.4 M-82.5 -138.8 Q-75.1 -144.9 -67.05 -150.25 M-161.7 -63.45 L-162.05 -60.2 Q-150.6 -77.15 -136.9 -82.95 M-58.1 -201.0 L-59.4 -194.3 M-109.5 132.1 Q-116.0 115.3 -118.3 93.85 -114.4 100.45 -110.5 105.95 -105.65 112.8 -100.8 118.05 L-97.35 121.55 Q-90.55 128.05 -83.6 131.45 L-80.5 132.85 Q-64.65 138.95 -48.35 128.6 M-75.25 153.2 Q-86.3 144.35 -97.35 121.55 M-121.0 126.8 Q-115.75 131.1 -109.5 132.1 -104.8 144.4 -97.75 154.35 L-96.15 156.5 Q-87.0 168.45 -74.45 176.55 M-139.7 104.25 Q-138.55 123.2 -134.4 138.15 -129.7 154.65 -121.4 166.3 -108.45 184.45 -95.55 186.25 M-128.05 118.6 Q-130.2 115.35 -132.05 111.4 M-150.3 136.65 L-149.2 140.7 Q-135.2 169.05 -121.4 166.3 M-102.0 161.05 Q-112.05 148.8 -121.0 126.8 -124.25 124.05 -127.05 120.15 M-156.35 190.65 Q-147.8 189.05 -142.35 182.2 -137.7 161.5 -145.2 151.05 -152.85 152.05 -160.6 161.3 M-102.0 161.05 Q-96.55 167.75 -90.75 171.55 M-104.05 169.15 Q-97.0 173.5 -91.05 173.8 M-80.5 132.85 Q-72.65 148.4 -64.8 151.95 M-217.2 44.45 L-221.0 42.05 Q-240.1 28.0 -259.3 -30.15 M-188.65 54.75 L-202.35 47.15 M-240.5 45.95 L-238.3 49.65 M-156.35 190.65 L-164.65 191.0 Q-170.35 190.85 -173.95 187.6 M-194.65 224.3 Q-189.45 232.6 -189.05 239.55 -188.65 246.3 -192.85 251.7 L-196.1 251.4 M-175.95 237.1 Q-174.9 231.2 -176.15 225.7 -176.8 222.7 -178.2 219.85 M-194.65 224.3 Q-197.05 225.3 -199.3 226.45 L-200.5 227.1 Q-211.4 232.9 -219.45 243.25 M-199.3 225.25 L-199.3 226.45 M-173.1 224.95 Q-166.3 225.95 -162.05 217.65 M-153.45 208.65 L-162.1 208.35 M-199.3 225.25 Q-199.15 219.1 -196.5 215.45 M-200.65 221.3 Q-199.45 222.9 -199.3 225.25 M-200.65 221.3 L-203.7 222.65 M-179.0 253.05 Q-176.95 249.65 -176.35 244.05 M-153.45 208.65 Q-148.4 207.5 -141.9 203.75 M-14.8 -60.0 Q-9.65 -24.85 8.7 -26.4" ffdec:has-small-stroke="true" ffdec:original-stroke-width="0.1" fill="none" stroke="#000000" stroke-linecap="round" stroke-linejoin="round" stroke-opacity="0.29803923" stroke-width="1.0"/>
    <path d="M-193.65 14.85 Q-194.85 11.8 -195.75 7.2 -196.5 1.15 -185.15 -7.2 -181.65 -11.3 -184.8 -20.75 -183.55 -19.2 -182.65 -17.15 -180.65 -12.75 -180.3 -5.85 -180.55 -2.15 -183.75 -0.4 L-185.4 0.65 Q-187.95 2.6 -187.95 5.05 L-187.85 6.7 Q-187.65 10.65 -185.4 14.55 -185.85 22.3 -189.4 20.75 -191.85 19.75 -193.65 14.85 M-184.0 25.0 Q-183.35 25.0 -182.85 25.75 -182.4 26.55 -182.35 27.7 -182.4 28.8 -182.85 29.55 -183.35 30.35 -184.0 30.35 -184.65 30.35 -185.15 29.55 -185.6 28.8 -185.6 27.7 -185.6 26.55 -185.15 25.75 -184.65 25.0 -184.0 25.0 M-196.15 65.4 Q-194.0 63.4 -191.25 65.4 -189.9 66.4 -189.7 71.2 -187.2 75.45 -183.55 74.85 L-180.8 74.85 Q-175.4 76.35 -180.95 79.15 -185.95 78.35 -191.45 73.5 L-195.2 70.7 Q-198.85 67.85 -196.15 65.4" ffdec:has-small-stroke="true" ffdec:original-stroke-width="0.1" fill="none" stroke="#ffffff" stroke-linecap="round" stroke-linejoin="round" stroke-opacity="0.29803923" stroke-width="1.0"/>
    <path d="M-66.45 99.65 Q-87.7 73.15 -100.45 33.45 -105.05 19.45 -108.5 3.8" ffdec:has-small-stroke="true" ffdec:original-stroke-width="0.1" fill="none" stroke="#ffffff" stroke-linecap="round" stroke-linejoin="round" stroke-width="1.0"/>
  </g>
  <defs>
    <radialGradient cx="0" cy="0" gradientTransform="matrix(0.4202, 0.0211, -0.1391, 0.0759, -17.55, 220.0)" gradientUnits="userSpaceOnUse" id="gradient0" r="819.2" spreadMethod="pad">
      <stop offset="0.3607843137254902" stop-color="#000000" stop-opacity="0.54901963"/>
      <stop offset="0.803921568627451" stop-color="#000000" stop-opacity="0.0"/>
    </radialGradient>
    <radialGradient cx="0" cy="0" gradientTransform="matrix(0.2154, 0.0, 0.0, 0.2154, -63.35, -180.45)" gradientUnits="userSpaceOnUse" id="gradient1" r="819.2" spreadMethod="pad">
      <stop offset="0.49411764705882355" stop-color="#d46b0e"/>
      <stop offset="0.7411764705882353" stop-color="#b94d12"/>
    </radialGradient>
    <radialGradient cx="0" cy="0" fx="-297.6" fy="0" gradientTransform="matrix(0.2494, 0.0, 0.0, 0.2494, 82.65, -86.35)" gradientUnits="userSpaceOnUse" id="gradient2" r="819.2" spreadMethod="pad">
      <stop offset="0.3607843137254902" stop-color="#528c66"/>
      <stop offset="0.803921568627451" stop-color="#2a4533"/>
    </radialGradient>
    <radialGradient cx="0" cy="0" gradientTransform="matrix(0.3186, 0.0, 0.0, 0.3776, 4.7, -145.7)" gradientUnits="userSpaceOnUse" id="gradient3" r="819.2" spreadMethod="pad">
      <stop offset="0.2549019607843137" stop-color="#2a4533"/>
      <stop offset="0.7568627450980392" stop-color="#131c16"/>
    </radialGradient>
    <linearGradient gradientTransform="matrix(-0.0438, -0.0253, 0.0357, -0.0619, -440.25, -351.6)" gradientUnits="userSpaceOnUse" id="gradient4" spreadMethod="pad" x1="-819.2" x2="819.2">
      <stop offset="0.2784313725490196" stop-color="#76811f"/>
      <stop offset="0.9098039215686274" stop-color="#525319" stop-opacity="0.9490196"/>
    </linearGradient>
    <radialGradient cx="0" cy="0" gradientTransform="matrix(1.3304, 0.0, 0.0, 1.3304, -208.9, -288.7)" gradientUnits="userSpaceOnUse" id="gradient5" r="819.2" spreadMethod="pad">
      <stop offset="0.2784313725490196" stop-color="#ff8f09"/>
      <stop offset="0.9098039215686274" stop-color="#d46b0e" stop-opacity="0.9490196"/>
    </radialGradient>
    <radialGradient cx="0" cy="0" fx="9.600000000000001" fy="0" gradientTransform="matrix(0.0, -0.2592, 0.2632, 0.0, -155.95, 10.15)" gradientUnits="userSpaceOnUse" id="gradient6" r="819.2" spreadMethod="pad">
      <stop offset="0.49411764705882355" stop-color="#d46b0e"/>
      <stop offset="0.7411764705882353" stop-color="#b94d12"/>
    </radialGradient>
    <radialGradient cx="0" cy="0" gradientTransform="matrix(0.2449, 0.0, 0.0, 0.2449, -181.1, -120.7)" gradientUnits="userSpaceOnUse" id="gradient7" r="819.2" spreadMethod="pad">
      <stop offset="0.2784313725490196" stop-color="#76811f"/>
      <stop offset="0.9098039215686274" stop-color="#525319" stop-opacity="0.9490196"/>
    </radialGradient>
    <radialGradient cx="0" cy="0" gradientTransform="matrix(0.1329, 0.0, 0.0, 0.1329, -168.45, 154.5)" gradientUnits="userSpaceOnUse" id="gradient8" r="819.2" spreadMethod="pad">
      <stop offset="0.2784313725490196" stop-color="#76811f"/>
      <stop offset="0.9098039215686274" stop-color="#525319" stop-opacity="0.9490196"/>
    </radialGradient>
    <radialGradient cx="0" cy="0" gradientTransform="matrix(0.2247, 0.0, 0.0, 0.1353, -263.5, -4.0)" gradientUnits="userSpaceOnUse" id="gradient9" r="819.2" spreadMethod="pad">
      <stop offset="0.2549019607843137" stop-color="#2a4533"/>
      <stop offset="0.7568627450980392" stop-color="#131c16"/>
    </radialGradient>
    <radialGradient cx="0" cy="0" gradientTransform="matrix(0.5854, 0.0105, 0.0121, 0.5852, -12.6, 141.6)" gradientUnits="userSpaceOnUse" id="gradient10" r="819.2" spreadMethod="pad">
      <stop offset="0.2784313725490196" stop-color="#42433a"/>
      <stop offset="0.9098039215686274" stop-color="#28231b" stop-opacity="0.9490196"/>
    </radialGradient>
    <radialGradient cx="0" cy="0" gradientTransform="matrix(0.1237, 0.0, 0.0, 0.1907, 213.45, -20.3)" gradientUnits="userSpaceOnUse" id="gradient11" r="819.2" spreadMethod="pad">
      <stop offset="0.2549019607843137" stop-color="#2a4533"/>
      <stop offset="0.7568627450980392" stop-color="#131c16"/>
    </radialGradient>
    <radialGradient cx="0" cy="0" gradientTransform="matrix(0.2235, 0.0, 0.0, 0.289, 72.95, 91.65)" gradientUnits="userSpaceOnUse" id="gradient12" r="819.2" spreadMethod="pad">
      <stop offset="0.2784313725490196" stop-color="#76811f"/>
      <stop offset="0.9098039215686274" stop-color="#525319" stop-opacity="0.9490196"/>
    </radialGradient>
  </defs>
</svg>
