<?xml version="1.0" encoding="UTF-8" standalone="no"?>
<svg xmlns:ffdec="https://www.free-decompiler.com/flash" xmlns:xlink="http://www.w3.org/1999/xlink" ffdec:objectType="frame" height="412.2px" width="444.6px" xmlns="http://www.w3.org/2000/svg">
  <g transform="matrix(1.0, 0.0, 0.0, 1.0, 222.3, 207.35)">
    <use ffdec:characterId="1" height="412.2" transform="matrix(1.0, 0.0, 0.0, 1.0, 0.0, 0.0)" width="444.6" xlink:href="#shape0"/>
  </g>
  <defs>
    <g id="shape0">
      <path d="M190.95 142.45 Q206.85 148.9 208.35 156.65 208.95 160.15 207.0 163.7 L206.35 164.8 Q203.85 168.3 198.75 171.45 L197.4 171.2 Q194.2 173.15 189.95 174.95 L190.95 175.45 Q166.7 185.55 109.35 190.75 84.0 187.1 77.05 184.2 L70.15 185.05 64.9 185.65 Q59.55 188.1 53.6 189.95 L49.95 191.15 Q37.7 194.65 22.9 196.1 L21.45 196.25 Q2.65 198.15 -20.3 196.75 -43.9 199.75 -65.65 199.9 -69.5 202.15 -76.45 204.25 L-76.8 204.5 -80.9 204.85 -88.3 204.4 -94.75 203.25 Q-97.05 202.55 -96.0 202.05 -95.5 201.7 -93.8 201.55 L-88.9 200.6 -85.3 199.65 Q-116.15 198.4 -143.35 191.5 -153.2 190.65 -173.2 186.9 L-179.5 185.65 Q-185.2 184.45 -190.3 182.9 L-191.75 182.5 -194.95 181.45 Q-204.05 178.5 -211.0 174.5 L-212.05 173.9 -213.3 173.15 Q-215.55 171.85 -217.5 170.4 -219.2 165.5 -214.35 161.4 -213.0 160.2 -211.0 159.2 -206.1 156.5 -197.35 154.25 L-193.0 153.25 -190.95 152.9 -213.85 134.2 Q-209.65 135.75 -205.25 136.0 L-204.4 134.9 -199.05 136.35 -199.55 137.55 Q-192.6 139.05 -183.4 139.65 L-178.9 139.8 -172.75 139.8 -171.4 136.15 -159.85 146.1 Q-143.35 143.55 -113.8 142.65 -120.75 155.65 -130.1 166.0 -124.3 170.1 -117.8 172.9 L-116.75 171.45 -116.1 171.7 -112.85 172.9 -112.15 173.15 -112.4 174.75 Q-96.45 179.6 -75.7 176.9 -69.9 166.0 -69.75 144.9 -64.65 140.1 -61.6 130.75 L-61.35 130.65 -60.9 130.75 Q-53.7 140.25 -45.0 149.15 -34.5 143.8 -22.65 133.2 L-16.7 129.2 -16.45 156.55 Q-2.25 159.3 11.85 155.45 11.7 154.7 11.85 153.95 L17.7 152.0 18.2 153.4 24.95 150.45 22.55 140.15 23.25 140.15 Q27.0 139.4 46.85 152.25 58.85 156.8 66.85 159.1 L71.2 175.85 83.6 174.75 81.65 174.95 Q104.25 168.9 107.8 167.35 116.4 163.6 112.75 163.6 L114.95 161.65 116.4 162.5 Q118.8 160.2 120.2 157.5 L111.4 144.4 Q122.1 144.05 128.2 146.7 161.45 147.15 180.0 142.55 186.55 140.85 190.95 142.45" fill="url(#gradient0)" fill-rule="evenodd" stroke="none"/>
      <path d="M114.2 -137.6 Q172.65 -112.55 198.75 -64.5 L197.85 -62.3 Q202.4 -53.7 206.0 -44.45 L207.35 -45.65 Q213.15 -30.7 216.2 -13.85 L217.05 -8.65 Q226.15 49.2 205.05 92.55 201.0 100.8 194.0 92.5 174.7 70.55 141.45 72.35 135.8 85.4 124.55 83.55 L124.8 85.25 Q118.0 90.8 111.3 95.2 110.2 93.4 107.75 92.8 106.95 95.8 107.8 97.3 98.9 102.6 90.3 105.65 L98.05 119.1 Q100.35 122.9 107.75 123.85 103.4 125.55 98.9 125.95 L120.2 157.5 Q118.8 160.2 116.4 162.5 L114.95 161.65 112.75 163.6 110.3 165.25 111.2 166.5 109.25 167.6 Q96.25 174.5 71.2 175.85 L63.1 144.65 58.95 153.4 58.6 140.25 49.0 109.15 Q41.7 107.6 37.75 103.6 28.25 102.75 23.05 98.6 20.6 105.4 16.85 109.75 20.7 126.3 25.45 129.9 L20.1 129.8 24.95 150.45 18.2 153.4 17.7 152.0 11.85 153.95 Q11.7 154.7 11.85 155.45 -2.25 159.3 -16.45 156.55 L-16.7 129.2 -22.65 133.2 Q-34.5 143.8 -45.0 149.15 -53.7 140.25 -60.9 130.75 L-61.4 130.05 -61.6 130.75 Q-64.65 140.1 -69.75 144.9 -69.9 166.0 -75.7 176.9 -96.45 179.6 -112.4 174.75 L-112.15 173.15 -112.85 172.9 -116.1 171.7 -116.75 171.45 -117.8 172.9 Q-124.3 170.1 -130.1 166.0 -120.75 155.65 -113.8 142.65 L-113.2 141.5 -107.8 129.9 Q-118.45 133.55 -123.15 136.95 -115.75 124.1 -107.0 119.0 -99.5 106.35 -96.7 92.15 -128.55 88.5 -146.4 75.5 -148.55 86.2 -152.7 95.8 -152.2 102.75 -155.1 110.5 -156.95 106.25 -158.65 103.0 -160.8 107.0 -161.8 108.05 -163.75 109.65 -165.95 110.75 -167.85 125.45 -171.4 136.15 L-172.75 139.8 -178.9 139.8 -183.4 139.65 Q-192.6 139.05 -199.55 137.55 L-199.05 136.35 -204.4 134.9 -205.25 136.0 Q-209.65 135.75 -213.85 134.2 -216.9 133.1 -219.8 131.3 -209.5 118.85 -202.85 104.95 L-199.2 96.45 -214.95 94.7 Q-202.35 89.1 -199.3 83.45 -194.95 75.3 -190.6 68.15 L-188.25 64.25 -193.5 64.15 Q-188.9 59.0 -185.2 53.45 L-180.85 46.4 -178.9 42.95 -180.95 41.05 -185.5 36.2 Q-198.2 21.85 -203.9 2.15 -209.4 -16.75 -208.75 -40.55 L-205.05 -53.65 -203.9 -57.3 Q-197.35 -77.85 -188.25 -93.35 L-185.25 -98.15 -183.9 -100.2 Q-179.0 -107.45 -173.6 -113.3 L-167.6 -119.25 Q-148.2 -136.85 -138.6 -141.25 -112.7 -174.15 -82.1 -180.3 -83.85 -182.55 -85.9 -184.6 -88.3 -187.0 -91.0 -189.1 -92.7 -189.7 -93.2 -191.35 -94.3 -193.8 -92.2 -197.0 -90.15 -200.5 -86.0 -202.65 -82.15 -205.0 -78.7 -204.85 -75.85 -204.75 -74.6 -203.05 L-74.1 -201.85 Q-66.7 -191.75 -62.55 -181.55 -40.7 -180.2 -16.55 -166.4 6.25 -172.55 25.35 -164.05 L26.8 -163.35 Q41.95 -156.15 54.75 -139.5 L58.7 -134.05 Q64.95 -124.85 70.75 -113.15 L76.1 -110.5 Q91.4 -101.9 94.2 -93.15 102.65 -91.1 108.85 -84.85 117.95 -75.75 122.2 -57.45 124.45 -42.6 119.35 -28.3 115.65 -24.75 111.55 -21.5 L120.5 -7.8 Q127.2 -9.2 131.8 -5.2 134.6 -2.7 136.55 1.8 137.75 4.5 138.65 8.0 146.25 6.4 147.7 2.7 149.7 -49.7 130.85 -100.45 123.9 -119.15 114.2 -137.6 Z" fill="none" stroke="#000000" stroke-linecap="round" stroke-linejoin="round" stroke-width="5.0"/>
      <path d="M180.1 -18.85 L191.15 -66.9 Q160.3 -106.85 125.95 -124.6 L130.85 -100.45 Q123.9 -119.15 114.2 -137.6 172.7 -112.55 198.8 -64.5 L197.85 -62.3 180.1 -18.85 M-72.7 -88.8 L-70.25 -95.1 -63.7 -111.25 -63.35 -112.05 -62.85 -110.6 -58.25 -98.75 -53.15 -85.0 Q-41.85 -52.85 -33.0 -19.7 -30.2 -9.0 -27.65 1.85 L-24.85 14.3 Q-44.55 -48.2 -63.95 -91.9 -75.95 -64.75 -86.05 -30.6 -90.4 -16.05 -94.3 -0.25 -92.7 -16.85 -88.85 -34.6 -83.25 -60.6 -72.7 -88.8" fill="#5b5c50" fill-rule="evenodd" stroke="none"/>
      <path d="M130.85 -100.45 L125.95 -124.6 Q160.3 -106.85 191.15 -66.9 L180.1 -18.85 206.0 -44.45 207.35 -45.65 Q213.15 -30.7 216.2 -13.85 L217.05 -8.65 Q209.3 21.7 194.45 34.5 L189.35 7.55 194.45 34.5 190.3 37.65 Q174.15 48.2 150.65 40.45 132.9 27.2 138.7 8.0 146.25 6.4 147.7 2.7 149.75 -49.7 130.85 -100.45 M181.35 -10.95 L190.3 37.65 181.35 -10.95" fill="url(#gradient1)" fill-rule="evenodd" stroke="none"/>
      <path d="M16.65 -154.85 L20.8 -148.9 Q25.3 -141.75 28.2 -134.55 L30.05 -129.3 Q24.95 -140.5 19.45 -145.25 18.4 -143.45 17.05 -142.05 21.8 -133.55 24.1 -123.6 25.2 -118.4 25.65 -112.8 24.55 -118.25 22.75 -123.15 19.45 -132.35 14.0 -139.8 10.1 -137.95 4.4 -137.95 L-0.3 -142.1 1.65 -141.85 Q5.15 -141.7 9.15 -144.0 13.05 -146.3 15.2 -149.7 17.2 -152.65 16.65 -154.85 M-60.15 -174.75 Q-58.2 -167.6 -57.75 -160.55 L-57.65 -158.35 Q-61.0 -178.05 -71.0 -193.55 -72.3 -190.75 -73.9 -188.7 -69.8 -181.45 -68.95 -173.4 -71.35 -180.6 -76.55 -186.3 -80.45 -183.7 -85.9 -184.6 -88.25 -187.0 -91.0 -189.1 L-89.05 -188.85 Q-85.55 -188.7 -81.55 -191.0 -77.65 -193.3 -75.5 -196.7 -73.5 -199.65 -74.05 -201.85 -66.7 -191.75 -62.5 -181.55 -61.15 -178.15 -60.15 -174.75" fill="#5e451a" fill-rule="evenodd" stroke="none"/>
      <path d="M-0.3 -142.1 Q-2.0 -142.7 -2.5 -144.25 -3.6 -146.8 -1.5 -150.0 0.65 -153.5 4.75 -155.65 8.55 -158.0 12.05 -157.85 14.85 -157.75 16.65 -154.85 17.2 -152.65 15.2 -149.7 13.05 -146.3 9.15 -144.0 5.15 -141.7 1.65 -141.85 L-0.3 -142.1 M-74.6 -203.05 L-74.05 -201.85 Q-73.5 -199.65 -75.5 -196.7 -77.65 -193.3 -81.55 -191.0 -85.55 -188.7 -89.05 -188.85 L-91.0 -189.1 Q-92.7 -189.7 -93.2 -191.35 -94.3 -193.8 -92.2 -197.0 -90.15 -200.5 -85.95 -202.65 -82.15 -205.0 -78.65 -204.85 -75.85 -204.75 -74.6 -203.05" fill="#bc944e" fill-rule="evenodd" stroke="none"/>
      <path d="M54.8 -139.5 L58.7 -134.05 Q65.0 -124.85 70.75 -113.15 53.35 -121.05 32.35 -119.85 L31.1 -125.7 30.05 -129.3 28.2 -134.55 Q25.3 -141.75 20.8 -148.9 L16.65 -154.85 Q14.85 -157.75 12.05 -157.85 8.55 -158.0 4.75 -155.65 0.65 -153.5 -1.5 -150.0 -3.6 -146.8 -2.5 -144.25 -2.0 -142.7 -0.3 -142.1 L4.4 -137.95 Q6.75 -135.75 8.65 -133.25 13.25 -127.65 15.95 -121.2 L17.2 -117.9 Q-20.7 -113.55 -41.5 -87.1 L-47.2 -86.25 -53.15 -85.0 -58.25 -98.75 -62.85 -110.6 -63.35 -112.05 -63.7 -111.25 -70.25 -95.1 -72.7 -88.8 Q-107.9 -58.55 -112.15 17.5 -118.45 18.95 -125.0 16.5 -126.6 1.7 -127.7 -15.4 -130.25 -8.9 -131.35 -0.85 L-127.95 -31.95 -107.2 -55.25 -128.55 -39.0 -104.95 -77.75 Q-136.9 -42.9 -154.15 -15.65 -168.25 6.55 -181.85 -5.1 -184.25 -7.2 -186.45 -10.2 -196.3 -23.7 -203.85 -57.3 -197.3 -77.85 -188.25 -93.35 L-185.25 -98.15 -183.9 -100.2 Q-178.95 -107.45 -173.6 -113.3 -135.2 -146.55 -101.2 -135.25 -115.9 -145.15 -129.15 -143.4 -107.5 -166.75 -77.55 -173.8 -73.2 -166.4 -71.5 -157.65 -78.5 -155.35 -83.4 -151.2 -90.3 -145.6 -89.55 -140.05 -88.95 -134.7 -81.2 -132.5 L-76.3 -131.65 Q-70.35 -131.15 -62.95 -132.85 L-62.85 -132.85 Q-71.7 -128.75 -80.35 -121.9 -86.4 -117.05 -92.45 -110.9 -84.6 -115.75 -76.7 -119.5 -42.3 -135.8 -5.75 -130.3 -29.45 -142.9 -52.2 -136.75 -48.75 -138.55 -45.7 -141.0 L-45.5 -141.1 Q-38.95 -146.6 -39.4 -151.95 -40.25 -157.4 -47.95 -159.6 -52.5 -161.0 -57.75 -160.55 -58.2 -167.6 -60.15 -174.75 -41.75 -178.3 -21.7 -164.8 L-28.1 -162.5 Q-7.75 -166.0 14.0 -159.45 33.7 -153.6 54.8 -139.5 M-164.95 -112.55 Q-167.9 -108.05 -170.05 -102.75 -175.55 -89.85 -176.0 -72.25 -178.95 -71.3 -181.75 -69.55 L-183.2 -68.5 Q-185.4 -66.9 -187.65 -64.5 -190.25 -61.8 -192.65 -57.95 -190.2 -59.75 -187.55 -60.75 -185.35 -61.7 -183.05 -62.05 L-178.6 -62.45 -173.45 -61.9 -172.95 -61.8 -172.85 -61.35 Q-168.25 -40.7 -159.4 -29.3 -161.8 -40.9 -163.3 -52.7 L-164.7 -66.65 Q-166.15 -85.1 -165.35 -104.3 L-164.95 -112.55 M-132.05 17.0 Q-146.0 4.1 -145.3 -18.35 L-132.05 -32.05 -131.35 -0.85 -131.35 -0.6 -131.55 0.5 Q-132.45 8.1 -132.05 17.0" fill="url(#gradient2)" fill-rule="evenodd" stroke="none"/>
      <path d="M-62.5 -181.55 Q-40.65 -180.2 -16.5 -166.4 6.25 -172.55 25.4 -164.05 L26.85 -163.35 Q41.95 -156.15 54.8 -139.5 33.7 -153.6 14.0 -159.45 -7.75 -166.0 -28.1 -162.5 L-21.7 -164.8 Q-41.75 -178.3 -60.15 -174.75 -61.15 -178.15 -62.5 -181.55 M70.75 -113.15 L76.15 -110.5 Q91.45 -101.9 94.25 -93.15 102.65 -91.1 108.85 -84.85 91.6 -92.5 72.65 -92.65 82.1 -94.85 89.9 -93.9 68.2 -112.55 45.45 -111.7 L45.1 -111.75 44.85 -111.95 42.7 -112.6 Q38.2 -114.0 32.95 -113.55 L32.35 -119.85 Q53.35 -121.05 70.75 -113.15 M120.5 -7.8 Q127.2 -9.2 131.8 -5.2 118.2 -7.8 108.6 11.55 112.85 -5.8 120.5 -7.8 M19.2 -110.65 Q-9.65 -112.35 -41.5 -87.1 -33.1 -87.95 -25.7 -86.95 -11.95 -85.0 -1.4 -76.05 7.35 -81.85 16.2 -84.55 24.2 -87.05 32.1 -87.05 58.95 -87.3 85.75 -59.6 29.65 -100.55 -19.35 -61.45 -13.3 -67.4 -7.35 -71.9 -24.85 -89.6 -47.2 -86.25 L-41.5 -87.1 Q-20.7 -113.55 17.2 -117.9 18.4 -114.4 19.2 -110.65 M-52.2 -136.75 Q-29.45 -142.9 -5.75 -130.3 -42.3 -135.8 -76.7 -119.5 -84.6 -115.75 -92.45 -110.9 -86.4 -117.05 -80.35 -121.9 -71.7 -128.75 -62.85 -132.85 -57.0 -134.3 -52.2 -136.75 M-77.55 -173.8 Q-107.5 -166.75 -129.15 -143.4 -115.9 -145.15 -101.2 -135.25 -135.2 -146.55 -173.6 -113.3 L-167.55 -119.25 Q-148.2 -136.85 -138.6 -141.25 -112.65 -174.15 -82.05 -180.3 -79.5 -177.2 -77.55 -173.8 M94.25 -93.15 L89.9 -93.9 94.25 -93.15 M12.3 34.15 Q15.35 37.85 18.25 42.4 -5.05 20.65 -22.75 24.25 L-23.3 21.1 -23.3 21.0 -8.85 20.55 Q2.75 22.95 12.3 34.15 M-16.5 -166.4 L-21.7 -164.8 -16.5 -166.4 M-129.15 -143.4 L-131.95 -143.2 Q-134.6 -143.3 -138.6 -141.25 -134.6 -143.3 -131.95 -143.2 L-129.15 -143.4 M-1.4 -76.05 L-7.35 -71.9 -1.4 -76.05" fill="#f9ad40" fill-rule="evenodd" stroke="none"/>
      <path d="M30.05 -129.3 L31.1 -125.7 32.35 -119.85 32.95 -113.55 Q38.2 -114.0 42.7 -112.6 L44.85 -111.95 45.1 -111.75 45.45 -111.7 Q50.65 -109.4 51.3 -104.95 51.8 -99.55 45.0 -94.0 42.05 -91.55 38.45 -89.75 35.4 -88.25 32.1 -87.05 24.2 -87.05 16.2 -84.55 12.55 -84.75 9.5 -85.5 1.75 -87.7 1.15 -93.05 0.4 -98.6 7.3 -104.2 12.3 -108.3 19.2 -110.65 18.4 -114.4 17.2 -117.9 L15.95 -121.2 Q13.25 -127.65 8.65 -133.25 6.75 -135.75 4.4 -137.95 10.1 -137.95 14.0 -139.8 19.45 -132.35 22.75 -123.15 24.55 -118.25 25.65 -112.8 25.2 -118.4 24.1 -123.6 21.8 -133.55 17.05 -142.05 18.4 -143.45 19.45 -145.25 24.95 -140.5 30.05 -129.3 M31.85 -98.7 Q33.3 -106.15 32.95 -113.55 33.3 -106.15 31.85 -98.7 M20.05 -94.5 Q20.6 -103.1 19.2 -110.65 20.6 -103.1 20.05 -94.5" fill="url(#gradient3)" fill-rule="evenodd" stroke="none"/>
      <path d="M131.8 -5.2 Q134.6 -2.7 136.55 1.8 135.8 5.0 132.55 4.95 L129.4 1.45 Q127.05 4.95 125.45 9.0 120.75 20.5 122.2 36.4 115.4 45.65 105.55 38.85 103.85 39.8 98.65 34.15 L93.9 25.15 103.25 21.15 105.95 33.25 Q104.6 26.45 108.6 11.55 118.2 -7.8 131.8 -5.2 M19.2 -110.65 Q12.3 -108.3 7.3 -104.2 0.4 -98.6 1.15 -93.05 1.75 -87.7 9.5 -85.5 12.55 -84.75 16.2 -84.55 7.35 -81.85 -1.4 -76.05 -11.95 -85.0 -25.7 -86.95 -33.1 -87.95 -41.5 -87.1 -9.65 -112.35 19.2 -110.65 M32.1 -87.05 Q35.4 -88.25 38.45 -89.75 42.05 -91.55 45.0 -94.0 51.8 -99.55 51.3 -104.95 50.65 -109.4 45.45 -111.7 68.2 -112.55 89.9 -93.9 82.1 -94.85 72.65 -92.65 91.6 -92.5 108.85 -84.85 123.75 -65.3 105.2 -42.0 61.4 -2.45 30.75 -4.15 55.4 -20.15 70.95 -39.85 L38.3 -12.6 57.85 -35.95 41.7 -23.55 Q44.75 -35.1 54.35 -49.7 L20.1 -9.35 Q-7.6 0.0 -25.45 -31.6 -24.75 -21.95 -22.45 -19.45 -25.35 -15.65 -33.0 -19.7 -41.85 -52.85 -53.15 -85.0 L-47.2 -86.25 Q-24.85 -89.6 -7.35 -71.9 -13.3 -67.4 -19.35 -61.45 29.65 -100.55 85.75 -59.6 58.95 -87.3 32.1 -87.05 M39.9 -55.25 L18.9 -23.95 39.9 -55.25 M54.05 42.4 Q45.1 51.5 37.6 62.3 31.35 71.5 26.05 81.95 26.4 72.6 24.55 61.05 19.7 78.05 9.05 68.7 2.45 41.65 -20.7 34.0 L-22.75 24.25 Q-5.05 20.65 18.25 42.4 L22.85 52.0 Q39.25 49.05 54.05 42.4 M22.85 52.0 L24.55 61.05 22.85 52.0" fill="url(#gradient4)" fill-rule="evenodd" stroke="none"/>
      <path d="M108.85 -84.85 Q117.95 -75.75 122.2 -57.45 124.5 -42.6 119.4 -28.3 L111.55 -21.5 Q77.9 5.85 31.1 4.95 13.55 4.6 -3.2 -3.4 -9.3 -6.35 -15.35 -10.35 -9.3 -6.35 -3.2 -3.4 -10.5 4.25 -27.65 1.85 -30.2 -9.0 -33.0 -19.7 -25.35 -15.65 -22.45 -19.45 -24.75 -21.95 -25.45 -31.6 -7.6 0.0 20.1 -9.35 L54.35 -49.7 Q44.75 -35.1 41.7 -23.55 L57.85 -35.95 38.3 -12.6 70.95 -39.85 Q55.4 -20.15 30.75 -4.15 61.4 -2.45 105.2 -42.0 123.75 -65.3 108.85 -84.85 M136.55 1.8 Q137.75 4.5 138.7 8.0 L135.7 8.4 125.45 9.0 Q127.05 4.95 129.4 1.45 L132.55 4.95 Q135.8 5.0 136.55 1.8 M122.2 36.4 L122.3 37.55 Q123.9 53.4 131.3 73.35 L141.5 72.35 Q135.8 85.4 124.6 83.55 L123.15 72.35 114.95 61.1 Q113.2 61.8 110.8 61.05 110.3 58.55 111.25 55.6 105.55 46.75 99.75 36.15 L98.65 34.15 Q103.85 39.8 105.55 38.85 115.4 45.65 122.2 36.4 M-203.85 -57.3 Q-196.3 -23.7 -186.45 -10.2 -184.25 -7.2 -181.85 -5.1 -168.25 6.55 -154.15 -15.65 -136.9 -42.9 -104.95 -77.75 L-128.55 -39.0 -107.2 -55.25 -127.95 -31.95 -131.35 -0.85 -132.05 -32.05 -145.3 -18.35 Q-146.0 4.1 -132.05 17.0 L-131.35 26.0 Q-128.55 51.7 -117.35 64.45 -121.95 44.7 -125.0 16.5 -118.45 18.95 -112.15 17.5 -107.9 -58.55 -72.7 -88.8 -83.25 -60.6 -88.85 -34.6 -92.7 -16.85 -94.3 -0.25 L-94.8 5.35 -95.05 9.2 Q-95.5 17.0 -95.4 24.55 -95.05 62.15 -81.9 93.85 L-96.7 92.15 Q-128.55 88.5 -146.4 75.5 -157.95 67.05 -162.2 54.9 -171.5 49.65 -178.9 42.95 L-180.9 41.05 -185.5 36.2 Q-198.15 21.85 -203.85 2.15 -209.4 -16.75 -208.7 -40.55 L-205.05 -53.65 -203.85 -57.3 M74.75 24.8 Q63.55 32.75 54.05 42.4 39.25 49.05 22.85 52.0 L18.25 42.4 Q15.35 37.85 12.3 34.15 18.6 37.3 25.4 39.85 45.25 31.9 57.15 14.6 65.0 20.55 74.75 24.8 M23.1 98.6 Q20.6 105.4 16.9 109.75 L14.15 112.2 Q4.05 120.1 -10.5 121.2 L-8.55 119.1 Q1.15 108.35 11.6 94.6 11.8 80.0 9.05 68.7 19.7 78.05 24.55 61.05 26.4 72.6 26.05 81.95 25.8 91.3 23.1 98.6 M-162.2 54.9 Q-171.9 27.65 -145.3 -18.35 -171.9 27.65 -162.2 54.9" fill="url(#gradient5)" fill-rule="evenodd" stroke="none"/>
      <path d="M116.4 -14.1 L120.5 -7.8 Q112.85 -5.8 108.6 11.55 104.6 26.45 105.95 33.25 L103.25 21.15 93.9 25.15 91.1 24.5 Q105.2 9.25 116.4 -14.1" fill="url(#gradient6)" fill-rule="evenodd" stroke="none"/>
      <path d="M111.55 -21.5 L116.4 -14.1 Q105.2 9.25 91.1 24.5 83.45 22.8 76.15 23.9 L74.75 24.8 Q65.0 20.55 57.15 14.6 45.25 31.9 25.4 39.85 18.6 37.3 12.3 34.15 2.75 22.95 -8.85 20.55 -19.15 12.4 -27.65 1.85 -10.5 4.25 -3.2 -3.4 13.55 4.6 31.1 4.95 77.9 5.85 111.55 -21.5 M78.95 8.85 Q77.55 7.5 75.6 7.4 73.65 7.4 72.2 8.75 70.85 10.1 70.95 12.05 70.95 14.05 72.4 15.45 73.85 16.9 75.8 16.9 77.75 17.0 79.1 15.55 80.45 14.2 80.45 12.25 80.4 10.3 78.95 8.85 M2.6 21.85 Q4.55 21.85 5.85 20.5 7.3 19.15 7.2 17.15 7.2 15.2 5.75 13.75 4.3 12.35 2.35 12.35 0.4 12.25 -0.95 13.6 -2.35 15.05 -2.35 17.0 -2.25 18.95 -0.9 20.3 0.65 21.75 2.6 21.85" fill="#000000" fill-rule="evenodd" stroke="none"/>
      <path d="M180.1 -18.85 L197.85 -62.3 Q202.45 -53.7 206.0 -44.45 L180.1 -18.85 M138.7 8.0 Q132.9 27.2 150.65 40.45 174.15 48.2 190.3 37.65 L194.45 34.5 Q209.3 21.7 217.05 -8.65 226.15 49.2 205.05 92.55 201.0 100.8 194.0 92.5 174.75 70.55 141.5 72.35 L131.3 73.35 Q123.9 53.4 122.3 37.55 L122.2 36.4 Q120.75 20.5 125.45 9.0 L135.7 8.4 138.7 8.0 M194.6 35.35 L194.45 34.5 194.6 35.35 M191.4 43.85 L190.3 37.65 191.4 43.85 M98.9 125.95 L104.7 134.4 Q97.55 148.0 79.35 147.15 L95.15 162.0 104.5 156.15 110.3 165.25 111.25 166.5 109.3 167.6 Q96.25 174.5 71.2 175.85 L63.1 144.65 67.35 135.9 Q84.35 139.75 101.1 133.1 94.3 131.25 89.4 125.3 L98.9 125.95 M114.05 148.3 L120.25 157.5 Q118.8 160.2 116.4 162.5 L114.95 161.65 106.9 156.25 114.05 148.3 M20.1 129.8 L24.95 150.45 18.25 153.4 17.75 152.0 14.85 143.2 Q11.95 149.15 11.85 153.95 11.7 154.7 11.85 155.45 -2.25 159.3 -16.45 156.55 L-16.7 129.2 -10.4 124.95 -9.15 129.05 Q-7.25 133.6 -4.2 135.55 L-1.8 125.7 Q1.75 128.6 5.65 131.0 L9.4 133.0 Q12.8 134.7 16.35 136.1 L14.75 129.7 20.1 129.8 M-22.65 133.2 Q-34.45 143.8 -45.0 149.15 -53.65 140.25 -60.9 130.75 L-61.4 130.05 Q-74.0 112.95 -81.9 93.85 -95.05 62.15 -95.4 24.55 -65.65 106.5 -41.6 101.05 -21.1 94.0 -23.3 21.1 L-22.75 24.25 -20.7 34.0 Q-17.95 48.35 -15.65 63.0 -17.95 48.35 -20.7 34.0 2.45 41.65 9.05 68.7 11.8 80.0 11.6 94.6 1.15 108.35 -8.55 119.1 L-10.5 121.2 Q-16.45 127.5 -22.05 132.6 L-22.65 133.2 M-69.75 144.9 Q-69.9 166.0 -75.7 176.9 -96.45 179.6 -112.4 174.75 L-112.15 173.15 -111.15 167.6 -105.85 168.7 -96.6 150.35 Q-106.65 149.7 -112.3 142.65 L-113.15 141.5 -112.9 141.0 -110.7 136.5 -107.75 129.95 Q-102.7 128.25 -97.45 127.4 -100.4 131.9 -101.95 136.5 -103.55 140.95 -103.8 145.35 -97.6 138.45 -89.05 136.5 L-88.7 136.4 -88.6 136.5 Q-83.4 150.55 -74.85 155.3 L-75.0 148.4 Q-72.1 147.15 -69.75 144.9 M-165.95 110.75 Q-167.85 125.45 -171.4 136.15 L-172.75 139.8 -178.9 139.8 -183.4 139.65 Q-192.55 139.05 -199.55 137.55 L-199.0 136.35 -197.9 132.7 -197.75 132.7 Q-187.65 128.5 -183.8 116.3 L-183.2 114.0 -183.9 114.05 Q-196.2 114.05 -202.85 104.95 L-199.2 96.45 Q-192.15 97.6 -185.5 94.95 -187.2 101.5 -192.3 107.95 -188.75 106.5 -185.35 103.7 L-184.05 103.7 -179.65 103.2 Q-173.6 102.0 -168.15 98.0 -168.6 105.65 -172.0 112.2 -168.75 112.05 -165.95 110.75 M-111.75 173.25 L-112.15 173.15 -111.75 173.25" fill="#28231b" fill-rule="evenodd" stroke="none"/>
      <path d="M37.6 62.3 L43.0 72.25 Q40.6 76.25 38.9 79.75 L57.1 83.4 Q55.15 87.1 53.6 91.2 58.1 98.25 70.1 99.0 65.35 95.8 65.85 90.1 66.25 87.1 66.95 84.25 L82.15 81.6 Q83.25 93.5 87.35 98.35 L88.1 86.85 Q82.25 49.9 93.9 25.15 L98.65 34.15 99.75 36.15 Q105.55 46.75 111.25 55.6 110.3 58.55 110.8 61.05 113.2 61.8 114.95 61.1 L123.15 72.35 124.6 83.55 124.85 85.25 Q118.05 90.8 111.3 95.2 110.2 93.4 107.75 92.8 107.0 95.8 107.85 97.3 98.9 102.6 90.3 105.65 L98.05 119.1 Q100.35 122.9 107.75 123.85 103.4 125.55 98.9 125.95 L89.4 125.3 Q94.3 131.25 101.1 133.1 84.35 139.75 67.35 135.9 L63.1 144.65 58.95 153.4 58.6 140.25 49.0 109.15 Q41.7 107.6 37.8 103.6 28.25 102.75 23.1 98.6 25.8 91.3 26.05 81.95 31.35 71.5 37.6 62.3 M88.7 90.5 L88.1 86.85 88.7 90.5 M16.9 109.75 Q20.7 126.3 25.45 129.9 L20.1 129.8 14.75 129.7 16.35 136.1 Q12.8 134.7 9.4 133.0 L5.65 131.0 Q1.75 128.6 -1.8 125.7 L-4.2 135.55 Q-7.25 133.6 -9.15 129.05 L-10.4 124.95 -16.7 129.2 -22.65 133.2 -22.05 132.6 Q-16.45 127.5 -10.5 121.2 4.05 120.1 14.15 112.2 L16.9 109.75 M-61.4 130.05 L-61.6 130.75 Q-64.65 140.1 -69.75 144.9 -72.1 147.15 -75.0 148.4 L-74.85 155.3 Q-83.4 150.55 -88.6 136.5 L-88.7 136.4 -89.05 136.5 Q-97.6 138.45 -103.8 145.35 -103.55 140.95 -101.95 136.5 -100.4 131.9 -97.45 127.4 -102.7 128.25 -107.75 129.95 -115.3 132.35 -122.35 136.5 L-122.85 136.85 -123.2 137.0 -123.05 136.85 -122.85 136.5 Q-115.7 124.1 -106.95 119.0 -99.5 106.35 -96.7 92.15 L-81.9 93.85 Q-74.0 112.95 -61.4 130.05 M-146.4 75.5 Q-148.55 86.2 -152.7 95.8 -152.2 102.75 -155.1 110.5 -156.95 106.25 -158.65 103.0 -160.75 107.0 -161.8 108.05 -163.75 109.65 -165.95 110.75 -168.75 112.05 -172.0 112.2 -168.6 105.65 -168.15 98.0 -173.6 102.0 -179.65 103.2 L-184.05 103.7 -185.35 103.7 Q-188.75 106.5 -192.3 107.95 -187.2 101.5 -185.5 94.95 -192.15 97.6 -199.2 96.45 L-214.9 94.7 Q-202.35 89.1 -199.3 83.45 -194.95 75.3 -190.6 68.15 L-188.25 64.25 -193.5 64.15 Q-188.9 59.0 -185.15 53.45 -182.85 50.0 -180.85 46.4 L-178.9 42.95 Q-171.5 49.65 -162.2 54.9 -157.95 67.05 -146.4 75.5 M112.1 77.85 Q105.7 61.1 95.4 57.7 101.65 65.85 104.6 80.05 105.1 84.25 103.15 87.2 109.7 85.0 112.35 78.55 L112.1 77.85 M35.0 99.7 Q32.7 92.4 38.9 79.75 32.7 92.4 35.0 99.7 36.1 101.9 37.8 103.6 36.1 101.9 35.0 99.7 M13.25 123.25 L14.75 129.7 13.25 123.25 M90.3 105.65 L89.3 106.0 82.65 107.85 Q61.15 111.85 49.0 109.15 61.15 111.85 82.65 107.85 L89.3 106.0 90.3 105.65 M-75.2 141.5 L-75.0 148.4 -75.2 141.5 M-184.65 90.25 Q-184.85 92.65 -185.5 94.95 -184.85 92.65 -184.65 90.25 M-179.05 96.8 L-179.75 97.75 Q-181.85 100.4 -184.15 102.5 L-185.35 103.7 -184.15 102.5 Q-181.85 100.4 -179.75 97.75 L-179.05 96.8" fill="#525319" fill-rule="evenodd" stroke="none"/>
      <path d="M91.1 24.5 L93.9 25.15 Q65.95 38.85 48.65 63.5 45.45 68.15 43.0 72.25 L37.6 62.3 Q45.1 51.5 54.05 42.4 63.55 32.75 74.75 24.8 L76.15 23.9 Q83.45 22.8 91.1 24.5" fill="#97a13e" fill-rule="evenodd" stroke="none"/>
      <path d="M43.0 72.25 Q45.45 68.15 48.65 63.5 65.95 38.85 93.9 25.15 82.25 49.9 88.1 86.85 L87.35 98.35 Q83.25 93.5 82.15 81.6 L66.95 84.25 Q69.65 71.15 76.8 61.35 64.4 69.1 57.1 83.4 L38.9 79.75 Q40.6 76.25 43.0 72.25" fill="url(#gradient7)" fill-rule="evenodd" stroke="none"/>
      <path d="M112.1 77.85 L112.35 78.55 Q109.7 85.0 103.15 87.2 105.1 84.25 104.6 80.05 101.65 65.85 95.4 57.7 105.7 61.1 112.1 77.85 M66.95 84.25 Q66.25 87.1 65.85 90.1 65.35 95.8 70.1 99.0 58.1 98.25 53.6 91.2 55.15 87.1 57.1 83.4 64.4 69.1 76.8 61.35 69.65 71.15 66.95 84.25" fill="#2c2c0e" fill-rule="evenodd" stroke="none"/>
      <path d="M78.95 8.85 Q80.4 10.3 80.45 12.25 80.45 14.2 79.1 15.55 77.75 17.0 75.8 16.9 73.85 16.9 72.4 15.45 70.95 14.05 70.95 12.05 70.85 10.1 72.2 8.75 73.65 7.4 75.6 7.4 77.55 7.5 78.95 8.85 M2.6 21.85 Q0.65 21.75 -0.9 20.3 -2.25 18.95 -2.35 17.0 -2.35 15.05 -0.95 13.6 0.4 12.25 2.35 12.35 4.3 12.35 5.75 13.75 7.2 15.2 7.2 17.15 7.3 19.15 5.85 20.5 4.55 21.85 2.6 21.85" fill="#ff1918" fill-rule="evenodd" stroke="none"/>
      <path d="M114.95 161.65 L112.75 163.6 110.3 165.25 104.5 156.15 102.75 153.6 106.9 156.25 114.95 161.65 M17.75 152.0 L11.85 153.95 Q11.95 149.15 14.85 143.2 L17.75 152.0 M-112.15 173.15 L-112.85 172.9 -116.05 171.7 -116.75 171.45 -110.2 162.2 -111.15 167.6 -112.15 173.15 M-199.0 136.35 L-204.4 134.9 -202.7 132.7 Q-199.6 128.35 -197.4 122.55 -196.9 128.1 -197.9 132.7 L-199.0 136.35" fill="#17140f" fill-rule="evenodd" stroke="none"/>
      <path d="M104.7 134.4 L114.05 148.3 106.9 156.25 102.75 153.6 104.5 156.15 95.15 162.0 79.35 147.15 Q97.55 148.0 104.7 134.4" fill="url(#gradient8)" fill-rule="evenodd" stroke="none"/>
      <path d="M-131.35 -0.85 Q-130.25 -8.9 -127.7 -15.4 -126.6 1.7 -125.0 16.5 -121.95 44.7 -117.35 64.45 -128.55 51.7 -131.35 26.0 L-132.05 17.0 Q-132.45 8.1 -131.55 0.5 L-131.35 -0.6 -131.35 -0.85 M-164.95 -112.55 L-165.35 -104.3 Q-166.15 -85.1 -164.7 -66.65 L-163.3 -52.7 Q-161.8 -40.9 -159.4 -29.3 -168.25 -40.7 -172.85 -61.35 L-172.95 -61.8 -173.45 -61.9 -178.6 -62.45 -183.05 -62.05 Q-185.35 -61.7 -187.55 -60.75 -190.2 -59.75 -192.65 -57.95 -190.25 -61.8 -187.65 -64.5 -185.4 -66.9 -183.2 -68.5 L-181.75 -69.55 Q-178.95 -71.3 -176.0 -72.25 -175.55 -89.85 -170.05 -102.75 -167.9 -108.05 -164.95 -112.55" fill="#7a4506" fill-rule="evenodd" stroke="none"/>
      <path d="M-57.75 -160.55 Q-52.5 -161.0 -47.95 -159.6 -40.25 -157.4 -39.4 -151.95 -38.95 -146.6 -45.5 -141.1 L-45.7 -141.0 Q-48.75 -138.55 -52.2 -136.75 -57.0 -134.3 -62.85 -132.85 L-62.95 -132.85 Q-70.35 -131.15 -76.3 -131.65 L-81.2 -132.5 Q-88.95 -134.7 -89.55 -140.05 -90.3 -145.6 -83.4 -151.2 -78.5 -155.35 -71.5 -157.65 -73.2 -166.4 -77.55 -173.8 -79.5 -177.2 -82.05 -180.3 L-85.9 -184.6 Q-80.45 -183.7 -76.55 -186.3 -71.35 -180.6 -68.95 -173.4 -69.8 -181.45 -73.9 -188.7 -72.3 -190.75 -71.0 -193.55 -61.0 -178.05 -57.65 -158.35 L-57.75 -160.55 M-58.85 -145.7 Q-57.65 -152.05 -57.65 -158.35 -57.65 -152.05 -58.85 -145.7 M-70.65 -141.5 Q-70.1 -150.1 -71.5 -157.65 -70.1 -150.1 -70.65 -141.5" fill="url(#gradient9)" fill-rule="evenodd" stroke="none"/>
      <path d="M-94.3 -0.25 Q-90.4 -16.05 -86.05 -30.6 -75.95 -64.75 -63.95 -91.9 -44.55 -48.2 -24.85 14.3 L-24.75 14.7 -23.3 21.0 -23.3 21.1 Q-21.1 94.0 -41.6 101.05 -65.65 106.5 -95.4 24.55 -95.5 17.0 -95.05 9.2 L-94.8 5.35 -94.3 -0.25 M-67.35 21.5 L-69.3 16.4 -63.7 0.1 -70.0 14.6 -69.3 16.4 -75.5 34.1 -67.35 21.5 -56.5 4.6 -67.35 21.5 -65.05 27.65 -53.35 9.8 -65.05 27.65 -67.35 21.5 M-55.95 51.1 L-59.9 40.7 -50.2 18.8 -59.9 40.7 -55.95 51.1 M-71.5 37.55 L-65.05 27.65 -59.9 40.7 -65.65 53.45 -59.9 40.7 -65.05 27.65 -71.5 37.55 M-76.05 28.55 L-70.0 14.6 -74.0 4.35 -70.0 14.6 -76.05 28.55 M-63.7 0.1 L-61.85 -4.5 -63.7 0.1" fill="url(#gradient10)" fill-rule="evenodd" stroke="none"/>
      <path d="M-24.85 14.3 L-27.65 1.85 Q-19.15 12.4 -8.85 20.55 L-23.3 21.0 -24.75 14.7 -24.85 14.3" fill="#d46b0e" fill-rule="evenodd" stroke="none"/>
      <path d="M-63.7 0.1 L-69.3 16.4 -67.35 21.5 -75.5 34.1 -69.3 16.4 -70.0 14.6 -63.7 0.1" fill="#36342b" fill-rule="evenodd" stroke="none"/>
      <path d="M-116.75 171.45 L-117.75 172.9 Q-124.3 170.1 -130.1 166.0 -120.75 155.65 -113.75 142.65 L-113.15 141.5 -112.3 142.65 Q-106.65 149.7 -96.6 150.35 L-105.85 168.7 -111.15 167.6 -110.2 162.2 -116.75 171.45" fill="url(#gradient11)" fill-rule="evenodd" stroke="none"/>
      <path d="M-112.9 141.0 Q-116.3 138.9 -122.1 136.95 L-122.85 136.85 -122.35 136.5 -110.7 136.5 -112.9 141.0 M-123.05 136.85 L-125.35 136.5 -122.85 136.5 -123.05 136.85" fill="url(#gradient12)" fill-rule="evenodd" stroke="none"/>
      <path d="M-204.4 134.9 L-205.25 136.0 Q-209.65 135.75 -213.8 134.2 -216.85 133.1 -219.75 131.3 -209.5 118.85 -202.85 104.95 -196.2 114.05 -183.9 114.05 L-183.2 114.0 -183.8 116.3 Q-187.65 128.5 -197.75 132.7 L-197.9 132.7 Q-196.9 128.1 -197.4 122.55 -199.6 128.35 -202.7 132.7 L-204.4 134.9" fill="url(#gradient13)" fill-rule="evenodd" stroke="none"/>
      <path d="M180.1 -18.85 L197.85 -62.3 198.8 -64.5 Q172.7 -112.55 114.2 -137.6 123.9 -119.15 130.85 -100.45 149.75 -49.7 147.7 2.7 146.25 6.4 138.7 8.0 L135.7 8.4 125.45 9.0 Q120.75 20.5 122.2 36.4 L122.3 37.55 Q123.9 53.4 131.3 73.35 L141.5 72.35 Q174.75 70.55 194.0 92.5 201.0 100.8 205.05 92.55 226.15 49.2 217.05 -8.65 L216.2 -13.85 Q213.15 -30.7 207.35 -45.65 L206.0 -44.45 180.1 -18.85 M190.3 37.65 L181.35 -10.95 M-62.5 -181.55 Q-40.65 -180.2 -16.5 -166.4 6.25 -172.55 25.4 -164.05 L26.85 -163.35 Q41.95 -156.15 54.8 -139.5 L58.7 -134.05 Q65.0 -124.85 70.75 -113.15 L76.15 -110.5 Q91.45 -101.9 94.25 -93.15 102.65 -91.1 108.85 -84.85 117.95 -75.75 122.2 -57.45 124.5 -42.6 119.4 -28.3 L111.55 -21.5 116.4 -14.1 120.5 -7.8 Q127.2 -9.2 131.8 -5.2 134.6 -2.7 136.55 1.8 137.75 4.5 138.7 8.0 M194.45 34.5 L194.6 35.35 M-0.3 -142.1 Q-2.0 -142.7 -2.5 -144.25 -3.6 -146.8 -1.5 -150.0 0.65 -153.5 4.75 -155.65 8.55 -158.0 12.05 -157.85 14.85 -157.75 16.65 -154.85 L20.8 -148.9 Q25.3 -141.75 28.2 -134.55 L30.05 -129.3 31.1 -125.7 32.35 -119.85 Q53.35 -121.05 70.75 -113.15 M-0.3 -142.1 L4.4 -137.95 Q6.75 -135.75 8.65 -133.25 13.25 -127.65 15.95 -121.2 L17.2 -117.9 Q18.4 -114.4 19.2 -110.65 20.6 -103.1 20.05 -94.5 M16.2 -84.55 Q12.55 -84.75 9.5 -85.5 1.75 -87.7 1.15 -93.05 0.4 -98.6 7.3 -104.2 12.3 -108.3 19.2 -110.65 M-41.5 -87.1 Q-33.1 -87.95 -25.7 -86.95 -11.95 -85.0 -1.4 -76.05 7.35 -81.85 16.2 -84.55 24.2 -87.05 32.1 -87.05 35.4 -88.25 38.45 -89.75 42.05 -91.55 45.0 -94.0 51.8 -99.55 51.3 -104.95 50.65 -109.4 45.45 -111.7 L45.1 -111.75 44.85 -111.95 42.7 -112.6 Q38.2 -114.0 32.95 -113.55 33.3 -106.15 31.85 -98.7 M32.35 -119.85 L32.95 -113.55 M-28.1 -162.5 L-21.7 -164.8 -16.5 -166.4 M-60.15 -174.75 Q-58.2 -167.6 -57.75 -160.55 -52.5 -161.0 -47.95 -159.6 -40.25 -157.4 -39.4 -151.95 -38.95 -146.6 -45.5 -141.1 L-45.7 -141.0 Q-48.75 -138.55 -52.2 -136.75 -29.45 -142.9 -5.75 -130.3 M-92.45 -110.9 Q-86.4 -117.05 -80.35 -121.9 -71.7 -128.75 -62.85 -132.85 L-62.95 -132.85 Q-70.35 -131.15 -76.3 -131.65 L-81.2 -132.5 Q-88.95 -134.7 -89.55 -140.05 -90.3 -145.6 -83.4 -151.2 -78.5 -155.35 -71.5 -157.65 -73.2 -166.4 -77.55 -173.8 -79.5 -177.2 -82.05 -180.3 L-85.9 -184.6 Q-88.25 -187.0 -91.0 -189.1 -92.7 -189.7 -93.2 -191.35 -94.3 -193.8 -92.2 -197.0 -90.15 -200.5 -85.95 -202.65 -82.15 -205.0 -78.65 -204.85 -75.85 -204.75 -74.6 -203.05 L-74.05 -201.85 -74.25 -202.3 -74.6 -203.05 M-129.15 -143.4 Q-115.9 -145.15 -101.2 -135.25 M-173.6 -113.3 Q-178.95 -107.45 -183.9 -100.2 L-185.25 -98.15 -188.25 -93.35 Q-197.3 -77.85 -203.85 -57.3 L-205.05 -53.65 -208.7 -40.55 Q-209.4 -16.75 -203.85 2.15 -198.15 21.85 -185.5 36.2 L-180.9 41.05 -178.9 42.95 -180.85 46.4 Q-182.85 50.0 -185.15 53.45 -188.9 59.0 -193.5 64.15 L-188.25 64.25 -190.6 68.15 Q-194.95 75.3 -199.3 83.45 -202.35 89.1 -214.9 94.7 L-199.2 96.45 -202.85 104.95 Q-209.5 118.85 -219.75 131.3 -216.85 133.1 -213.8 134.2 -209.65 135.75 -205.25 136.0 L-204.4 134.9 -202.7 132.7 Q-199.6 128.35 -197.4 122.55 -196.9 128.1 -197.9 132.7 L-199.0 136.35 -204.4 134.9 M-131.35 -0.85 Q-130.25 -8.9 -127.7 -15.4 -126.6 1.7 -125.0 16.5 -121.95 44.7 -117.35 64.45 -128.55 51.7 -131.35 26.0 L-132.05 17.0 Q-132.45 8.1 -131.55 0.5 M-72.7 -88.8 L-70.25 -95.1 -63.7 -111.25 -63.35 -112.05 -62.85 -110.6 -58.25 -98.75 -53.15 -85.0 -47.2 -86.25 -41.5 -87.1 Q-20.7 -113.55 17.2 -117.9 M72.65 -92.65 Q82.1 -94.85 89.9 -93.9 L94.25 -93.15 M18.9 -23.95 L39.9 -55.25 M32.1 -87.05 Q58.95 -87.3 85.75 -59.6 M-19.35 -61.45 Q-13.3 -67.4 -7.35 -71.9 L-1.4 -76.05 M197.85 -62.3 Q202.45 -53.7 206.0 -44.45 M194.45 34.5 L189.35 7.55 M190.3 37.65 L191.4 43.85 M129.4 1.45 Q127.05 4.95 125.45 9.0 M108.6 11.55 Q112.85 -5.8 120.5 -7.8 M93.9 25.15 L91.1 24.5 Q83.45 22.8 76.15 23.9 L74.75 24.8 Q63.55 32.75 54.05 42.4 45.1 51.5 37.6 62.3 31.35 71.5 26.05 81.95 25.8 91.3 23.1 98.6 20.6 105.4 16.9 109.75 20.7 126.3 25.45 129.9 L20.1 129.8 24.95 150.45 18.25 153.4 17.75 152.0 11.85 153.95 Q11.7 154.7 11.85 155.45 -2.25 159.3 -16.45 156.55 L-16.7 129.2 -22.65 133.2 Q-34.45 143.8 -45.0 149.15 -53.65 140.25 -60.9 130.75 L-61.4 130.05 -61.6 130.75 Q-64.65 140.1 -69.75 144.9 -69.9 166.0 -75.7 176.9 -96.45 179.6 -112.4 174.75 L-112.15 173.15 -112.85 172.9 -116.05 171.7 -116.75 171.45 -117.75 172.9 Q-124.3 170.1 -130.1 166.0 -120.75 155.65 -113.75 142.65 L-113.15 141.5 -112.9 141.0 -110.7 136.5 -107.75 129.95 Q-102.7 128.25 -97.45 127.4 -100.4 131.9 -101.95 136.5 -103.55 140.95 -103.8 145.35 -97.6 138.45 -89.05 136.5 L-88.7 136.4 -88.6 136.5 Q-83.4 150.55 -74.85 155.3 L-75.0 148.4 -75.2 141.5 M93.9 25.15 L98.65 34.15 99.75 36.15 Q105.55 46.75 111.25 55.6 110.3 58.55 110.8 61.05 113.2 61.8 114.95 61.1 L123.15 72.35 124.6 83.55 Q135.8 85.4 141.5 72.35 M88.1 86.85 Q82.25 49.9 93.9 25.15 M88.1 86.85 L88.7 90.5 M124.6 83.55 L124.85 85.25 Q118.05 90.8 111.3 95.2 110.2 93.4 107.75 92.8 107.0 95.8 107.85 97.3 98.9 102.6 90.3 105.65 L98.05 119.1 Q100.35 122.9 107.75 123.85 103.4 125.55 98.9 125.95 L104.7 134.4 114.05 148.3 120.25 157.5 Q118.8 160.2 116.4 162.5 L114.95 161.65 112.75 163.6 110.3 165.25 111.25 166.5 109.3 167.6 Q96.25 174.5 71.2 175.85 L63.1 144.65 58.95 153.4 58.6 140.25 49.0 109.15 Q41.7 107.6 37.8 103.6 28.25 102.75 23.1 98.6 M-122.85 136.85 L-123.2 137.0 -123.05 136.85 -122.85 136.5 Q-115.7 124.1 -106.95 119.0 -99.5 106.35 -96.7 92.15 -128.55 88.5 -146.4 75.5 -148.55 86.2 -152.7 95.8 -152.2 102.75 -155.1 110.5 -156.95 106.25 -158.65 103.0 -160.75 107.0 -161.8 108.05 -163.75 109.65 -165.95 110.75 -167.85 125.45 -171.4 136.15 L-172.75 139.8 -178.9 139.8 -183.4 139.65 Q-192.55 139.05 -199.55 137.55 L-199.0 136.35 M112.1 77.85 Q105.7 61.1 95.4 57.7 101.65 65.85 104.6 80.05 105.1 84.25 103.15 87.2 109.7 85.0 112.35 78.55 L112.1 77.85 M78.95 8.85 Q80.4 10.3 80.45 12.25 80.45 14.2 79.1 15.55 77.75 17.0 75.8 16.9 73.85 16.9 72.4 15.45 70.95 14.05 70.95 12.05 70.85 10.1 72.2 8.75 73.65 7.4 75.6 7.4 77.55 7.5 78.95 8.85 M74.75 24.8 Q65.0 20.55 57.15 14.6 45.25 31.9 25.4 39.85 18.6 37.3 12.3 34.15 15.35 37.85 18.25 42.4 M2.6 21.85 Q0.65 21.75 -0.9 20.3 -2.25 18.95 -2.35 17.0 -2.35 15.05 -0.95 13.6 0.4 12.25 2.35 12.35 4.3 12.35 5.75 13.75 7.2 15.2 7.2 17.15 7.3 19.15 5.85 20.5 4.55 21.85 2.6 21.85 M26.05 81.95 Q26.4 72.6 24.55 61.05 L22.85 52.0 M9.05 68.7 Q11.8 80.0 11.6 94.6 1.15 108.35 -8.55 119.1 L-10.5 121.2 Q4.05 120.1 14.15 112.2 L16.9 109.75 M66.95 84.25 Q66.25 87.1 65.85 90.1 65.35 95.8 70.1 99.0 58.1 98.25 53.6 91.2 55.15 87.1 57.1 83.4 64.4 69.1 76.8 61.35 69.65 71.15 66.95 84.25 M35.0 99.7 Q36.1 101.9 37.8 103.6 M98.9 125.95 L89.4 125.3 Q94.3 131.25 101.1 133.1 84.35 139.75 67.35 135.9 L63.1 144.65 M20.1 129.8 L14.75 129.7 16.35 136.1 Q12.8 134.7 9.4 133.0 L5.65 131.0 Q1.75 128.6 -1.8 125.7 L-4.2 135.55 Q-7.25 133.6 -9.15 129.05 L-10.4 124.95 -16.7 129.2 M14.75 129.7 L13.25 123.25 M11.85 153.95 Q11.95 149.15 14.85 143.2 L17.75 152.0 M49.0 109.15 Q61.15 111.85 82.65 107.85 L89.3 106.0 90.3 105.65 M104.5 156.15 L102.75 153.6 106.9 156.25 114.95 161.65 M110.3 165.25 L104.5 156.15 M-3.2 -3.4 Q13.55 4.6 31.1 4.95 77.9 5.85 111.55 -21.5 M116.4 -14.1 Q105.2 9.25 91.1 24.5 M-74.05 -201.85 Q-66.7 -191.75 -62.5 -181.55 -61.15 -178.15 -60.15 -174.75 M-173.6 -113.3 L-167.55 -119.25 Q-148.2 -136.85 -138.6 -141.25 -112.65 -174.15 -82.05 -180.3 M-164.95 -112.55 Q-167.9 -108.05 -170.05 -102.75 -175.55 -89.85 -176.0 -72.25 -178.95 -71.3 -181.75 -69.55 L-183.2 -68.5 Q-185.4 -66.9 -187.65 -64.5 -190.25 -61.8 -192.65 -57.95 -190.2 -59.75 -187.55 -60.75 -185.35 -61.7 -183.05 -62.05 L-178.6 -62.45 -173.45 -61.9 -172.95 -61.8 -172.85 -61.35 Q-168.25 -40.7 -159.4 -29.3 -161.8 -40.9 -163.3 -52.7 L-164.7 -66.65 Q-166.15 -85.1 -165.35 -104.3 L-164.95 -112.55 M-57.65 -158.35 L-57.75 -160.55 M-52.2 -136.75 Q-57.0 -134.3 -62.85 -132.85 M-71.5 -157.65 Q-70.1 -150.1 -70.65 -141.5 M-57.65 -158.35 Q-57.65 -152.05 -58.85 -145.7 M-138.6 -141.25 Q-134.6 -143.3 -131.95 -143.2 L-129.15 -143.4 M-72.7 -88.8 Q-83.25 -60.6 -88.85 -34.6 -92.7 -16.85 -94.3 -0.25 L-94.8 5.35 -95.05 9.2 Q-95.5 17.0 -95.4 24.55 -95.05 62.15 -81.9 93.85 -74.0 112.95 -61.4 130.05 M-24.85 14.3 L-27.65 1.85 Q-30.2 -9.0 -33.0 -19.7 -41.85 -52.85 -53.15 -85.0 M-3.2 -3.4 Q-9.3 -6.35 -15.35 -10.35 M-22.75 24.25 L-23.3 21.1 -23.3 21.0 -8.85 20.55 Q-19.15 12.4 -27.65 1.85 -10.5 4.25 -3.2 -3.4 M-23.3 21.0 L-24.75 14.7 M-20.7 34.0 L-22.75 24.25 M-63.7 0.1 L-69.3 16.4 -67.35 21.5 -56.5 4.6 M-63.7 0.1 L-70.0 14.6 -69.3 16.4 -75.5 34.1 -67.35 21.5 -65.05 27.65 -53.35 9.8 M-74.0 4.35 L-70.0 14.6 -76.05 28.55 M-65.65 53.45 L-59.9 40.7 -65.05 27.65 -71.5 37.55 M-50.2 18.8 L-59.9 40.7 -55.95 51.1 M-15.65 63.0 Q-17.95 48.35 -20.7 34.0 2.45 41.65 9.05 68.7 M-96.7 92.15 L-81.9 93.85 M-111.15 167.6 L-112.15 173.15 -111.75 173.25 M-122.85 136.85 L-122.35 136.5 Q-115.3 132.35 -107.75 129.95 M-116.75 171.45 L-110.2 162.2 -111.15 167.6 M-22.65 133.2 L-22.05 132.6 Q-16.45 127.5 -10.5 121.2 M-75.0 148.4 Q-72.1 147.15 -69.75 144.9 M-165.95 110.75 Q-168.75 112.05 -172.0 112.2 -168.6 105.65 -168.15 98.0 -173.6 102.0 -179.65 103.2 L-184.05 103.7 -185.35 103.7 Q-188.75 106.5 -192.3 107.95 -187.2 101.5 -185.5 94.95 -192.15 97.6 -199.2 96.45 M-185.35 103.7 L-184.15 102.5 Q-181.85 100.4 -179.75 97.75 L-179.05 96.8 M-185.5 94.95 Q-184.85 92.65 -184.65 90.25 M-146.4 75.5 Q-157.95 67.05 -162.2 54.9 -171.5 49.65 -178.9 42.95 M-61.85 -4.5 L-63.7 0.1 M-145.3 -18.35 Q-171.9 27.65 -162.2 54.9 M-8.85 20.55 Q2.75 22.95 12.3 34.15" ffdec:has-small-stroke="true" ffdec:original-stroke-width="0.1" fill="none" stroke="#000000" stroke-linecap="round" stroke-linejoin="round" stroke-opacity="0.29803923" stroke-width="1.0"/>
      <path d="M43.0 72.25 Q45.45 68.15 48.65 63.5 65.95 38.85 93.9 25.15 M38.9 79.75 Q32.7 92.4 35.0 99.7 M43.0 72.25 Q40.6 76.25 38.9 79.75" ffdec:has-small-stroke="true" ffdec:original-stroke-width="0.1" fill="none" stroke="#000000" stroke-linecap="round" stroke-linejoin="round" stroke-opacity="0.14901961" stroke-width="1.0"/>
      <path d="M16.85 109.75 Q20.7 126.3 25.45 129.9 L20.1 129.8 24.95 150.45 18.2 153.4 14.8 143.2 Q11.95 149.15 11.85 153.95 11.7 154.7 11.85 155.45 -2.25 159.3 -16.45 156.55 L-16.7 129.2 -22.65 133.2 -22.05 132.6 Q-16.45 127.5 -10.5 121.2 4.05 120.1 14.15 112.2 L16.85 109.75" fill="url(#gradient14)" fill-rule="evenodd" stroke="none"/>
    </g>
    <radialGradient cx="0" cy="0" fx="3.2" fy="0" gradientTransform="matrix(0.0, -0.0482, -0.3317, -0.0136, -26.05, 162.95)" gradientUnits="userSpaceOnUse" id="gradient0" r="819.2" spreadMethod="pad">
      <stop offset="0.0" stop-color="#000000"/>
      <stop offset="0.9058823529411765" stop-color="#101010" stop-opacity="0.0"/>
    </radialGradient>
    <radialGradient cx="0" cy="0" gradientTransform="matrix(0.2482, 0.0045, 0.0052, 0.2481, 148.6, -98.8)" gradientUnits="userSpaceOnUse" id="gradient1" r="819.2" spreadMethod="pad">
      <stop offset="0.2784313725490196" stop-color="#42433a"/>
      <stop offset="0.9098039215686274" stop-color="#28231b" stop-opacity="0.9490196"/>
    </radialGradient>
    <radialGradient cx="0" cy="0" gradientTransform="matrix(0.2972, 0.0054, 0.0062, 0.2971, -70.7, -141.55)" gradientUnits="userSpaceOnUse" id="gradient2" r="819.2" spreadMethod="pad">
      <stop offset="0.2784313725490196" stop-color="#ff8f09"/>
      <stop offset="0.9098039215686274" stop-color="#d46b0e" stop-opacity="0.9490196"/>
    </radialGradient>
    <radialGradient cx="0" cy="0" gradientTransform="matrix(0.1063, 0.0, 0.0, 0.1063, 29.35, -117.0)" gradientUnits="userSpaceOnUse" id="gradient3" r="819.2" spreadMethod="pad">
      <stop offset="0.0" stop-color="#7e5f29"/>
      <stop offset="0.9058823529411765" stop-color="#5e451a"/>
    </radialGradient>
    <radialGradient cx="0" cy="0" gradientTransform="matrix(0.4172, 0.0075, 0.0087, 0.417, 20.35, -80.7)" gradientUnits="userSpaceOnUse" id="gradient4" r="819.2" spreadMethod="pad">
      <stop offset="0.2784313725490196" stop-color="#ff8f09"/>
      <stop offset="0.9098039215686274" stop-color="#d46b0e" stop-opacity="0.9490196"/>
    </radialGradient>
    <radialGradient cx="0" cy="0" fx="3.2" fy="0" gradientTransform="matrix(0.3457, 0.0, 0.0, 0.3457, -43.9, -130.0)" gradientUnits="userSpaceOnUse" id="gradient5" r="819.2" spreadMethod="pad">
      <stop offset="0.49411764705882355" stop-color="#d46b0e"/>
      <stop offset="0.7411764705882353" stop-color="#b94d12"/>
    </radialGradient>
    <radialGradient cx="0" cy="0" fx="3.2" fy="0" gradientTransform="matrix(0.0, 0.0, 0.0, 0.0, -969.9, -929.8)" gradientUnits="userSpaceOnUse" id="gradient6" r="819.2" spreadMethod="pad">
      <stop offset="0.49411764705882355" stop-color="#d46b0e"/>
      <stop offset="0.7411764705882353" stop-color="#b94d12"/>
    </radialGradient>
    <radialGradient cx="0" cy="0" gradientTransform="matrix(0.1361, 0.0024, 0.0028, 0.1361, 66.35, 1.1)" gradientUnits="userSpaceOnUse" id="gradient7" r="819.2" spreadMethod="pad">
      <stop offset="0.2784313725490196" stop-color="#76811f"/>
      <stop offset="0.9098039215686274" stop-color="#525319" stop-opacity="0.9490196"/>
    </radialGradient>
    <radialGradient cx="0" cy="0" gradientTransform="matrix(0.0844, 0.0015, 0.0022, 0.1038, 111.3, 114.2)" gradientUnits="userSpaceOnUse" id="gradient8" r="819.2" spreadMethod="pad">
      <stop offset="0.2784313725490196" stop-color="#42433a"/>
      <stop offset="0.9098039215686274" stop-color="#28231b" stop-opacity="0.9490196"/>
    </radialGradient>
    <radialGradient cx="0" cy="0" gradientTransform="matrix(0.092, 0.0, 0.0, 0.092, -64.5, -162.55)" gradientUnits="userSpaceOnUse" id="gradient9" r="819.2" spreadMethod="pad">
      <stop offset="0.0" stop-color="#7e5f29"/>
      <stop offset="0.9058823529411765" stop-color="#5e451a"/>
    </radialGradient>
    <radialGradient cx="0" cy="0" gradientTransform="matrix(0.2081, 0.0038, 0.0043, 0.2081, -68.65, -46.7)" gradientUnits="userSpaceOnUse" id="gradient10" r="819.2" spreadMethod="pad">
      <stop offset="0.2784313725490196" stop-color="#42433a"/>
      <stop offset="0.9098039215686274" stop-color="#28231b" stop-opacity="0.9490196"/>
    </radialGradient>
    <radialGradient cx="0" cy="0" gradientTransform="matrix(0.082, 0.0015, 0.0017, 0.0819, -137.15, 138.6)" gradientUnits="userSpaceOnUse" id="gradient11" r="819.2" spreadMethod="pad">
      <stop offset="0.2784313725490196" stop-color="#42433a"/>
      <stop offset="0.9098039215686274" stop-color="#28231b" stop-opacity="0.9490196"/>
    </radialGradient>
    <radialGradient cx="0" cy="0" fx="3.2" fy="0" gradientTransform="matrix(0.0, -0.0482, -0.3317, -0.0136, -26.05, 162.9)" gradientUnits="userSpaceOnUse" id="gradient12" r="819.2" spreadMethod="pad">
      <stop offset="0.0" stop-color="#000000"/>
      <stop offset="0.9058823529411765" stop-color="#101010" stop-opacity="0.0"/>
    </radialGradient>
    <radialGradient cx="0" cy="0" gradientTransform="matrix(0.0575, 0.001, 0.0012, 0.0575, -219.95, 106.4)" gradientUnits="userSpaceOnUse" id="gradient13" r="819.2" spreadMethod="pad">
      <stop offset="0.2784313725490196" stop-color="#42433a"/>
      <stop offset="0.9098039215686274" stop-color="#28231b" stop-opacity="0.9490196"/>
    </radialGradient>
    <linearGradient gradientTransform="matrix(0.0, 0.0253, -0.0199, 0.0, -18.6, 138.4)" gradientUnits="userSpaceOnUse" id="gradient14" spreadMethod="pad" x1="-819.2" x2="819.2">
      <stop offset="0.12549019607843137" stop-color="#000000" stop-opacity="0.64705884"/>
      <stop offset="0.5686274509803921" stop-color="#101010" stop-opacity="0.29803923"/>
    </linearGradient>
  </defs>
</svg>
