<?xml version="1.0" encoding="UTF-8" standalone="no"?>
<svg xmlns:ffdec="https://www.free-decompiler.com/flash" xmlns:xlink="http://www.w3.org/1999/xlink" ffdec:objectType="shape" height="575.25px" width="649.0px" xmlns="http://www.w3.org/2000/svg">
  <g transform="matrix(1.0, 0.0, 0.0, 1.0, 325.75, 287.6)">
    <path d="M323.25 81.55 L317.05 93.8 306.2 95.95 311.25 97.4 307.9 103.4 266.6 110.6 255.45 106.3 276.2 100.3 230.2 99.85 231.5 103.6 215.4 105.3 219.7 107.05 199.0 113.05 175.05 111.7 170.25 100.9 166.1 101.2 149.1 94.55 137.0 98.4 118.65 95.5 117.9 97.05 94.9 100.9 Q98.4 102.7 100.95 104.9 L103.2 107.1 Q105.7 109.9 107.15 113.2 110.9 125.3 78.3 136.8 47.45 144.35 30.9 144.05 18.55 146.75 7.2 147.75 L42.25 155.75 44.2 155.75 60.45 156.5 62.75 156.95 Q68.3 158.5 66.25 162.95 L65.85 163.35 65.6 163.55 66.5 163.85 Q70.0 165.1 70.6 166.7 L60.2 167.1 Q55.3 169.85 48.5 171.85 L46.4 175.1 74.8 181.55 82.55 191.0 74.85 192.9 73.0 192.9 33.9 218.0 -23.5 200.7 -22.6 207.7 4.1 229.65 8.55 228.3 51.8 233.0 53.45 248.2 47.3 254.15 33.1 254.15 -0.4 244.3 -9.9 248.05 0.85 257.05 -6.3 268.8 -39.9 268.8 -41.65 254.0 -49.2 254.45 -48.25 262.1 -62.0 273.4 -91.05 269.05 -92.85 254.15 -90.65 252.45 -117.2 254.25 -125.6 249.3 -123.85 241.5 -87.8 229.5 -80.2 231.85 -69.15 220.9 -70.65 220.9 Q-74.45 223.95 -79.1 227.0 -83.9 230.75 -92.65 227.0 -98.75 223.6 -103.7 219.45 -109.2 215.0 -113.4 209.75 -104.25 215.15 -96.15 216.95 -88.2 218.75 -81.2 217.15 L-80.65 216.7 -82.1 216.15 Q-86.7 218.35 -94.15 215.2 -100.1 211.7 -104.95 207.7 L-109.1 204.05 -109.65 203.45 -129.3 194.4 -129.15 192.9 -127.25 192.9 -118.85 184.6 -152.6 184.1 Q-153.6 184.95 -154.75 185.65 -156.95 186.8 -159.8 187.35 -161.6 186.7 -162.65 185.5 L-162.6 185.5 -163.55 183.95 -169.95 183.85 Q-175.8 183.65 -176.65 180.0 L-181.65 179.3 -182.05 179.25 -174.0 186.95 -183.05 194.6 -225.25 201.4 -225.0 202.6 -258.45 209.15 -305.15 201.95 -304.5 200.75 -323.25 200.3 -320.9 195.8 -302.35 190.55 -281.3 190.0 -301.4 167.15 -293.25 163.1 -307.15 154.6 -279.8 147.95 -256.5 154.2 -271.8 147.55 -222.9 135.35 -211.25 135.5 -209.65 134.45 -207.9 133.4 Q-209.55 133.0 -210.35 132.25 -210.95 131.8 -211.05 131.15 L-206.4 130.45 Q-204.1 130.25 -201.45 130.35 L-199.5 129.6 Q-192.25 126.85 -182.75 125.1 L-183.25 117.45 -138.75 102.95 -79.45 90.9 -39.4 92.7 -18.2 88.35 -12.65 85.05 -10.3 83.95 Q-5.75 81.95 -0.25 80.35 L0.0 80.25 0.85 80.0 Q0.4 79.55 0.4 79.1 L0.4 78.85 Q0.6 77.85 2.45 76.75 7.6 76.85 10.05 77.85 L22.8 75.95 Q32.85 75.35 41.75 75.95 44.55 74.95 48.1 74.7 49.6 75.85 48.75 76.45 L48.6 76.5 48.75 76.6 56.85 77.8 102.6 76.1 107.5 77.95 118.35 74.65 Q119.3 73.25 120.8 71.85 123.25 69.45 127.3 67.0 L128.75 66.1 Q126.65 65.3 125.2 63.9 L124.3 62.7 Q128.3 62.3 134.85 62.85 L137.4 61.6 Q143.4 59.35 151.2 58.65 168.45 57.5 184.5 57.85 188.35 55.75 192.2 55.0 193.15 55.65 193.45 56.8 L193.45 58.1 194.3 58.1 Q208.3 58.75 221.45 60.45 L223.7 60.75 232.05 60.1 Q230.6 60.9 228.95 61.5 L228.25 61.75 Q229.15 62.05 229.4 62.3 229.8 62.75 228.3 63.25 L227.3 63.5 164.7 71.85 Q183.15 68.6 197.0 64.45 L199.0 63.9 Q201.4 63.05 198.5 62.25 L187.05 61.4 179.15 61.1 Q163.45 60.75 153.25 62.65 L152.55 62.85 153.8 63.7 Q155.0 64.6 154.85 65.1 L153.4 65.1 149.25 65.0 146.85 64.8 Q140.1 67.25 136.3 69.85 134.75 70.85 133.65 72.0 L169.55 72.0 170.65 72.3 202.4 67.0 223.0 70.25 228.5 69.1 236.95 70.55 285.8 69.75 286.45 73.4 323.25 81.55 M-89.55 120.05 L-88.45 121.35 -88.0 119.75 -89.55 120.05 M-151.65 177.5 L-151.35 177.5 -151.95 177.3 -151.65 177.5 M-111.95 177.75 L-120.6 177.75 -112.1 178.0 -111.95 177.75 M-15.3 127.65 L-17.4 126.6 -19.1 127.0 -15.3 127.65 M-195.3 132.65 Q-198.6 134.0 -201.1 135.7 L-178.85 135.95 -184.9 134.2 -182.5 129.4 -182.5 128.7 Q-188.1 129.9 -192.6 131.55 -194.0 132.05 -195.3 132.65 M-169.4 172.15 L-198.5 163.5 -182.95 178.3 Q-179.75 177.2 -175.3 177.2 L-172.45 171.7 -169.4 172.15" fill="url(#gradient0)" fill-rule="evenodd" stroke="none"/>
    <path d="M164.85 -263.2 Q165.95 -262.25 166.35 -261.3 167.0 -259.75 165.7 -258.25 L164.8 -257.45 106.5 -230.35 Q123.25 -240.85 135.05 -254.3 136.15 -255.25 136.75 -256.15 138.7 -259.05 135.4 -261.6 L123.5 -264.25 121.45 -260.5 Q119.75 -257.9 118.0 -256.4 116.7 -258.0 116.0 -261.05 L115.4 -265.2 Q99.55 -266.45 90.35 -260.3 L89.75 -259.55 91.45 -256.85 Q93.15 -254.0 93.2 -252.3 L91.75 -252.2 87.55 -252.7 85.05 -253.3 Q79.6 -245.25 77.05 -236.8 76.0 -233.4 75.5 -229.95 L111.4 -229.95 112.65 -228.85 141.65 -246.2 163.95 -235.55 168.95 -239.1 178.1 -234.45 226.5 -237.15 229.0 -225.15 270.0 -198.8 270.0 -158.85 260.25 -151.85 266.1 -147.2 265.75 -127.7 228.1 -104.3 214.75 -118.3 232.45 -137.75 186.25 -139.3 189.45 -127.05 174.2 -121.6 179.4 -115.95 161.8 -96.2 137.15 -100.75 126.8 -135.85 122.8 -134.8 102.45 -156.6 92.35 -143.9 72.5 -153.35 72.5 -148.45 51.45 -135.9 Q55.85 -130.05 59.55 -122.85 L62.95 -115.7 Q66.9 -106.65 70.0 -95.8 79.9 -56.4 53.15 -19.1 26.1 5.5 9.45 4.4 -1.55 13.25 -12.35 16.5 L26.75 42.6 28.7 42.5 Q38.45 41.85 45.35 44.9 46.65 45.45 47.85 46.35 54.2 51.35 54.45 66.0 L54.25 67.25 54.05 67.95 55.15 69.0 Q59.25 73.0 60.65 78.25 55.75 79.95 50.5 79.5 46.9 88.3 41.15 94.9 L41.15 94.95 40.75 105.45 72.45 126.55 85.05 157.2 36.3 201.3 -19.1 175.2 -19.1 185.55 5.1 218.95 9.7 216.85 52.35 223.95 52.35 247.0 45.5 256.1 31.3 256.1 -1.1 241.0 -11.1 246.7 -1.35 260.55 -9.85 278.15 -43.5 278.15 -43.5 255.9 -51.0 256.55 -51.0 268.15 -66.1 285.15 -94.7 278.65 -94.7 256.1 -92.35 253.5 -119.1 256.25 -126.9 248.6 -124.25 236.85 -86.7 218.75 -79.45 222.4 -67.05 205.65 -68.55 205.65 Q-72.75 210.4 -77.9 215.0 -83.1 220.7 -91.45 215.0 -97.0 209.8 -101.5 203.6 -106.4 196.85 -110.1 188.8 -101.55 197.05 -93.65 199.85 -85.85 202.55 -78.75 199.95 L-78.15 199.45 -79.45 198.45 -79.5 198.45 Q-84.3 201.85 -91.45 196.95 -97.0 191.8 -101.5 185.55 L-105.1 180.1 -105.55 179.35 -105.65 179.3 -124.25 165.65 -119.7 136.25 -153.65 134.7 -153.65 134.75 -154.15 136.9 -155.05 139.6 Q-156.65 143.45 -159.2 145.25 -161.35 143.1 -163.0 139.3 L-163.0 139.25 -164.75 134.2 -171.2 133.85 Q-177.1 133.2 -179.85 121.4 -181.65 121.3 -185.15 119.15 L-185.6 118.8 -185.65 118.8 -173.6 144.05 -178.8 168.85 -217.55 190.95 -216.65 194.95 -246.7 216.3 -274.1 204.1 -297.1 192.75 -297.1 188.8 -316.05 187.4 -316.05 172.75 -300.15 155.7 -279.35 153.95 -311.05 79.7 -305.05 66.35 -323.25 38.8 -299.35 17.0 -272.75 37.6 -291.5 15.7 -248.85 -23.9 -237.05 -23.3 -235.95 -26.75 -234.8 -30.1 Q-236.65 -31.45 -237.85 -33.85 -238.6 -35.4 -239.05 -37.4 -237.2 -39.15 -234.8 -39.8 L-229.9 -40.1 -228.35 -42.6 Q-222.45 -51.4 -213.85 -57.05 L-218.25 -82.0 -181.1 -129.1 -128.0 -168.45 -87.05 -162.55 -67.9 -176.55 Q-66.35 -182.25 -64.1 -187.25 L-62.35 -190.8 Q-58.85 -197.5 -54.1 -202.65 L-53.9 -202.95 -53.2 -203.7 Q-53.9 -205.2 -54.1 -206.75 L-54.25 -207.55 Q-54.55 -210.7 -53.2 -214.2 -48.1 -214.1 -45.1 -210.75 L-45.1 -210.7 Q-39.7 -214.45 -33.3 -217.05 -23.6 -219.0 -14.4 -217.05 -12.1 -220.1 -8.7 -221.0 -6.6 -217.3 -7.15 -215.3 L-7.2 -215.05 -7.05 -215.0 Q-2.65 -213.35 1.7 -210.85 L46.55 -216.35 52.45 -210.5 61.55 -221.25 Q61.85 -225.75 62.6 -230.3 63.85 -238.1 66.55 -246.15 L67.6 -249.05 Q65.05 -251.6 62.95 -256.35 62.15 -258.0 61.45 -260.0 L72.05 -259.7 73.95 -263.6 Q78.8 -271.05 86.25 -273.3 102.9 -276.8 119.2 -275.9 121.95 -282.6 125.4 -285.1 126.7 -282.95 127.55 -279.25 L128.25 -275.05 129.1 -274.95 Q143.4 -272.9 157.4 -267.4 L159.85 -266.3 Q163.5 -267.95 167.9 -268.45 L165.45 -264.0 164.85 -263.2 M-211.4 -43.15 L-211.4 -27.55 -204.45 -21.85 -204.5 -21.85 -226.8 -22.85 Q-225.2 -28.2 -222.6 -32.75 L-220.4 -36.25 Q-216.75 -41.55 -211.8 -45.45 L-211.4 -43.15 M-176.5 95.8 L-210.1 67.55 -186.95 116.05 -186.95 115.95 Q-184.3 112.4 -179.85 112.4 L-179.85 94.4 -176.5 95.8 Z" fill="none" stroke="#000000" stroke-linecap="round" stroke-linejoin="round" stroke-width="5.0"/>
    <path d="M199.85 -202.1 L178.1 -207.6 178.1 -234.45 226.5 -237.15 213.15 -209.55 199.85 -202.1 M179.7 -233.6 L178.1 -234.45 179.7 -233.6 M-126.9 248.6 L-124.25 236.85 -86.7 218.75 -86.7 232.1 -126.9 248.6 M-297.1 174.1 L-274.5 158.85 -251.1 168.05 -274.1 183.6 -297.1 174.1" fill="#5b5c50" fill-rule="evenodd" stroke="none"/>
    <path d="M163.95 -235.55 L168.95 -239.1 178.1 -234.45 178.1 -207.6 199.85 -202.1 212.5 -158.2 234.25 -172.15 240.9 -154.65 234.25 -149.45 238.5 -144.4 232.45 -137.75 186.25 -139.3 178.75 -168.25 147.3 -186.55 152.15 -223.1 152.75 -227.7 163.95 -235.55 M89.5 -207.85 L92.3 -216.65 124.5 -207.2 116.95 -157.55 84.2 -181.2 89.5 -207.85 M0.9 -132.75 L-18.1 -148.3 -46.4 -187.95 -51.8 -186.2 -51.8 -204.3 -22.3 -163.45 0.9 -132.75 M56.3 -190.7 L52.35 -171.85 46.85 -191.65 38.1 -205.25 56.3 -190.7 M-19.1 185.55 L5.1 218.95 -6.35 223.95 -6.35 238.5 -1.1 241.0 -11.1 246.7 -14.4 242.0 -20.4 229.95 -35.45 229.95 -43.5 252.05 -43.5 255.9 -51.0 256.55 -51.0 245.0 -63.55 234.5 -75.6 234.5 -78.0 237.3 -82.45 232.8 -82.45 226.35 -79.45 222.4 -67.05 205.65 -31.6 205.65 -19.1 189.65 -19.1 185.55 M-152.75 -150.1 L-128.0 -168.45 -73.5 -108.9 -123.25 -73.6 -145.1 -80.15 -174.65 -128.6 -152.75 -150.1 M-87.05 -162.55 L-57.1 -184.55 -26.5 -142.35 -53.6 -123.1 -87.05 -162.55" fill="#525319" fill-rule="evenodd" stroke="none"/>
    <path d="M232.45 -137.75 L238.5 -144.4 234.25 -149.45 240.9 -154.65 252.75 -164.05 249.5 -211.95 270.0 -198.8 270.0 -158.85 260.25 -151.85 266.1 -147.2 231.05 -123.8 214.75 -118.3 232.45 -137.75 M234.25 -172.15 L212.5 -158.2 222.2 -178.05 213.15 -209.55 226.5 -237.15 229.0 -225.15 239.45 -175.45 234.25 -172.15 M126.8 -135.85 L124.8 -142.6 135.5 -155.0 146.9 -163.75 136.8 -137.1 161.8 -96.2 137.15 -100.75 126.8 -135.85 M238.5 -144.4 L242.7 -139.35 260.25 -151.85 242.7 -139.35 238.5 -144.4" fill="url(#gradient1)" fill-rule="evenodd" stroke="none"/>
    <path d="M240.9 -154.65 L234.25 -172.15 239.45 -175.45 229.0 -225.15 249.5 -211.95 252.75 -164.05 240.9 -154.65 M212.5 -158.2 L199.85 -202.1 213.15 -209.55 222.2 -178.05 212.5 -158.2 M266.1 -147.2 L265.75 -127.7 228.1 -104.3 231.05 -123.8 266.1 -147.2 M146.9 -163.75 L158.9 -159.2 158.9 -138.4 174.2 -121.6 179.4 -115.95 161.8 -96.2 136.8 -137.1 146.9 -163.75 M31.3 256.1 L-1.1 241.0 -6.35 238.5 -6.35 223.95 29.3 230.5 31.3 256.1 M-11.1 246.7 L-1.35 260.55 -9.85 278.15 -43.5 278.15 -43.5 255.9 -43.5 252.05 -14.4 242.0 -11.1 246.7 M-51.0 268.15 L-66.1 285.15 -94.7 278.65 -94.7 256.1 -73.6 256.1 -51.0 268.15 M-92.35 253.5 L-119.1 256.25 -126.9 248.6 -86.7 232.1 -80.5 240.0 -92.35 253.5 M-246.7 216.3 L-274.1 204.1 -297.1 192.75 -297.1 188.8 -316.05 187.4 -316.05 172.75 -297.1 174.1 -297.1 188.8 -297.1 174.1 -274.1 183.6 -251.05 194.95 -246.7 216.3 M-274.1 183.6 L-274.1 204.1 -274.1 183.6" fill="#28231b" fill-rule="evenodd" stroke="none"/>
    <path d="M105.55 -229.95 L75.95 -224.7 80.95 -216.0 68.95 -229.95 105.55 -229.95 M92.3 -216.65 L112.65 -228.85 141.65 -246.2 106.85 -219.65 124.5 -207.2 92.3 -216.65 M46.85 -191.65 L-22.3 -163.45 -51.8 -204.3 -19.95 -171.65 46.85 -191.65 M64.4 -190.7 L56.3 -190.7 38.1 -205.25 Q51.25 -197.95 64.4 -190.7 M40.3 112.6 L34.55 55.75 26.05 42.15 39.4 51.05 Q42.0 81.1 40.75 105.45 L40.3 112.6 M-323.25 38.8 L-299.35 17.0 -289.35 47.0 -301.1 72.3 -292.4 46.7 -301.25 26.6 -323.25 38.8 M-291.5 15.7 L-248.85 -23.9 -204.5 -21.85 -207.1 -19.65 -247.3 -19.1 -291.5 15.7 M-128.0 -168.45 L-87.05 -162.55 -114.0 -162.55 -73.5 -108.9 -128.0 -168.45 M65.5 139.55 L68.3 142.8 43.9 165.2 10.25 155.2 42.15 160.1 65.5 139.55 M-205.8 -72.3 L-171.6 -43.2 -150.85 -43.2 -150.85 -55.9 -141.65 -47.35 -127.8 -48.95 -128.35 -45.7 -140.9 -43.3 -147.6 -50.85 -146.5 -42.2 -171.65 -37.4 -211.4 -68.15 -205.8 -72.3 M-233.3 2.0 L-163.75 24.55 -110.7 3.45 -164.35 33.1 -233.3 2.0 M-31.6 180.45 L-36.6 150.55 -56.25 122.0 -68.55 110.0 -54.65 118.65 -31.6 150.65 -31.6 180.45 M-281.9 68.35 L-280.4 63.3 -244.5 80.95 -221.45 114.0 -226.6 122.75 -217.1 122.75 -206.65 148.8 -218.8 126.45 -233.25 122.75 -226.1 113.85 -245.35 82.8 -281.9 68.35" fill="#aeb947" fill-rule="evenodd" stroke="none"/>
    <path d="M80.95 -216.0 L86.7 -199.1 80.6 -180.0 102.45 -156.6 92.35 -143.9 72.5 -153.35 72.5 -190.7 52.45 -210.5 68.95 -229.95 80.95 -216.0" fill="url(#gradient2)" fill-rule="evenodd" stroke="none"/>
    <path d="M163.95 -235.55 L152.75 -227.7 152.15 -223.1 124.5 -207.2 106.85 -219.65 141.65 -246.2 163.95 -235.55 M80.95 -216.0 L75.95 -224.7 105.55 -229.95 111.4 -229.95 112.65 -228.85 92.3 -216.65 89.5 -207.85 86.7 -199.1 89.5 -207.85 84.2 -181.2 116.95 -157.55 80.6 -180.0 86.7 -199.1 80.95 -216.0 M-51.8 -204.3 L46.55 -216.35 52.45 -210.5 72.5 -190.7 64.4 -190.7 Q51.25 -197.95 38.1 -205.25 L46.85 -191.65 -19.95 -171.65 -51.8 -204.3 M-305.05 66.35 L-323.25 38.8 -301.25 26.6 -292.4 46.7 -301.1 72.3 -305.05 66.35 M-181.1 -129.1 L-152.75 -150.1 -174.65 -128.6 -145.1 -80.15 -123.25 -73.6 -127.8 -48.95 -141.65 -47.35 -150.85 -55.9 -150.85 -43.2 -171.6 -43.2 -205.8 -72.3 -187.85 -85.85 -181.1 -90.95 -145.1 -80.15 -181.1 -129.1 M-57.1 -184.55 L-51.8 -186.2 -46.4 -187.95 -18.1 -148.3 -26.5 -142.35 -57.1 -184.55 M65.5 139.55 L42.15 160.1 10.25 155.2 20.8 132.6 26.3 133.0 39.4 122.15 45.9 116.5 65.5 139.55 M-207.1 -19.65 L-215.0 -13.2 -232.75 -11.25 -291.5 15.7 -247.3 -19.1 -207.1 -19.65 M-53.6 -123.1 L-73.5 -108.9 -114.0 -162.55 -87.05 -162.55 -53.6 -123.1" fill="#97a13e" fill-rule="evenodd" stroke="none"/>
    <path d="M152.15 -223.1 L147.3 -186.55 139.05 -191.35 135.5 -155.0 124.8 -142.6 126.8 -135.85 122.8 -134.8 116.95 -157.55 124.5 -207.2 152.15 -223.1" fill="url(#gradient3)" fill-rule="evenodd" stroke="none"/>
    <path d="M147.3 -186.55 L178.75 -168.25 186.25 -139.3 189.45 -127.05 174.2 -121.6 158.9 -138.4 158.9 -159.2 146.9 -163.75 135.5 -155.0 139.05 -191.35 147.3 -186.55" fill="url(#gradient4)" fill-rule="evenodd" stroke="none"/>
    <path d="M116.95 -157.55 L122.8 -134.8 102.45 -156.6 102.7 -156.9 102.45 -156.6 80.6 -180.0 116.95 -157.55 M-14.1 111.55 L39.4 122.15 26.3 133.0 20.8 132.6 -16.9 129.6 -14.1 111.55 M-19.1 175.2 L-19.1 185.55 -19.1 189.65 -31.6 205.65 -31.6 180.45 -31.6 150.65 -19.1 142.15 -19.1 175.2 M-70.0 92.85 L-34.15 110.6 -54.65 118.65 -68.55 110.0 -74.8 106.1 -70.0 92.85 M-145.1 -80.15 L-181.1 -90.95 -187.85 -85.85 -181.1 -129.1 -145.1 -80.15 M-127.8 -48.95 L-123.25 -73.6 -104.4 -29.95 -122.5 -15.0 -128.35 -45.7 -127.8 -48.95 M-110.7 3.45 L-95.7 -13.5 -78.4 24.1 -75.7 30.05 -65.2 79.55 -110.7 3.45 M-272.75 37.6 L-272.75 37.7 -280.4 63.3 -281.9 68.35 -301.1 72.3 -289.35 47.0 -272.75 37.6" fill="#464615" fill-rule="evenodd" stroke="none"/>
    <path d="M72.5 -153.35 L72.5 -148.45 19.9 -117.25 0.9 -132.75 -22.3 -163.45 46.85 -191.65 52.35 -171.85 56.3 -190.7 64.4 -190.7 72.5 -190.7 72.5 -153.35" fill="url(#gradient5)" fill-rule="evenodd" stroke="none"/>
    <path d="M228.1 -104.3 L214.75 -118.3 231.05 -123.8 228.1 -104.3 M52.35 223.95 L52.35 247.0 45.5 256.1 31.3 256.1 29.3 230.5 52.35 223.95 M-86.7 218.75 L-79.45 222.4 -82.45 226.35 -82.45 232.8 -78.0 237.3 -80.5 240.0 -86.7 232.1 -86.7 218.75 M-217.55 190.95 L-216.65 194.95 -246.7 216.3 -251.05 194.95 -221.9 172.8 -219.75 181.85 -217.55 190.95" fill="#1e1a14" fill-rule="evenodd" stroke="none"/>
    <path d="M26.05 42.15 L34.55 55.75 40.3 112.6 39.4 122.15 -14.1 111.55 -39.55 80.7 Q-36.5 74.8 -34.1 68.1 -27.6 49.75 -26.2 25.25 -25.7 17.45 -25.7 9.15 L-25.15 8.0 26.05 42.15" fill="url(#gradient6)" fill-rule="evenodd" stroke="none"/>
    <path d="M39.4 122.15 L40.3 112.6 40.75 105.45 72.45 126.55 85.05 157.2 36.3 201.3 -19.1 175.2 -19.1 142.15 -34.15 110.6 -70.0 92.85 -65.2 79.55 Q-56.5 69.9 -50.35 96.55 -47.0 92.75 -44.15 88.45 L-16.9 129.6 20.8 132.6 10.25 155.2 37.35 178.25 66.45 171.25 77.5 153.6 68.3 142.8 65.5 139.55 45.9 116.5 39.4 122.15" fill="#32330d" fill-rule="evenodd" stroke="none"/>
    <path d="M-39.55 80.7 L-14.1 111.55 -16.9 129.6 -44.15 88.45 Q-41.65 84.75 -39.55 80.7 M-210.1 67.55 L-173.6 144.05 -178.8 168.85 -217.55 190.95 -219.75 181.85 -206.65 148.8 -217.1 122.75 -226.6 122.75 -221.45 114.0 -244.5 80.95 -280.4 63.3 -272.75 37.7 -241.0 74.9 -210.15 67.5 -210.1 67.55 M-299.35 17.0 L-272.75 37.6 -289.35 47.0 -299.35 17.0 M-204.5 -21.85 L-204.45 -21.85 -172.05 4.7 -122.5 -15.0 -172.05 4.7 -171.65 -37.4 -146.5 -42.2 -147.6 -50.85 -140.9 -43.3 -128.35 -45.7 -122.5 -15.0 -104.4 -29.95 -100.05 -21.75 -95.7 -13.5 -110.7 3.45 -163.75 24.55 -233.3 2.0 -215.0 -13.2 -207.1 -19.65 -204.5 -21.85 M10.25 155.2 L43.9 165.2 37.35 178.25 10.25 155.2 M-34.15 110.6 L-19.1 142.15 -31.6 150.65 -54.65 118.65 -34.15 110.6 M-147.05 71.7 L-174.95 61.25 -127.0 46.1 -147.05 71.7" fill="url(#gradient7)" fill-rule="evenodd" stroke="none"/>
    <path d="M43.9 165.2 L68.3 142.8 77.5 153.6 66.45 171.25 37.35 178.25 43.9 165.2" fill="url(#gradient8)" fill-rule="evenodd" stroke="none"/>
    <path d="M5.1 218.95 L9.7 216.85 52.35 223.95 29.3 230.5 -6.35 223.95 5.1 218.95 M-51.0 256.55 L-51.0 268.15 -73.6 256.1 -94.7 256.1 -92.35 253.5 -80.5 240.0 -78.0 237.3 -75.6 234.5 -63.55 234.5 -51.0 245.0 -51.0 256.55 M-316.05 172.75 L-300.15 155.7 -279.35 153.95 -273.75 153.45 -274.5 158.85 -297.1 174.1 -316.05 172.75 M-251.1 168.05 L-245.8 164.5 -221.9 172.8 -251.05 194.95 -274.1 183.6 -251.1 168.05 M-43.5 252.05 L-35.45 229.95 -20.4 229.95 -14.4 242.0 -43.5 252.05" fill="url(#gradient9)" fill-rule="evenodd" stroke="none"/>
    <path d="M-211.4 -43.15 L-218.25 -82.0 -205.8 -72.3 -211.4 -68.15 -211.4 -43.15" fill="url(#gradient10)" fill-rule="evenodd" stroke="none"/>
    <path d="M-272.75 37.6 L-291.5 15.7 -232.75 -11.25 -215.0 -13.2 -233.3 2.0 -217.3 61.55 -210.15 67.5 -241.0 74.9 -272.75 37.7 -272.75 37.6 M-204.45 -21.85 L-211.4 -27.55 -211.4 -43.15 -211.4 -68.15 -171.65 -37.4 -172.05 4.7 -204.45 -21.85 M-218.25 -82.0 L-181.1 -129.1 -187.85 -85.85 -205.8 -72.3 -218.25 -82.0" fill="url(#gradient11)" fill-rule="evenodd" stroke="none"/>
    <path d="M-25.7 9.15 Q-25.7 17.45 -26.2 25.25 L-41.0 32.75 -46.0 68.15 -34.1 68.1 Q-36.5 74.8 -39.55 80.7 -41.65 84.75 -44.15 88.45 -47.0 92.75 -50.35 96.55 -56.5 69.9 -65.2 79.55 L-75.7 30.05 -78.4 24.1 -95.7 -13.5 -100.05 -21.75 -25.8 5.15 -25.7 9.15 M-43.35 22.95 L-70.2 31.85 -43.35 22.95 M-25.8 5.15 L-78.4 24.1 -25.8 5.15" fill="#131c16" fill-rule="evenodd" stroke="none"/>
    <path d="M-116.25 114.1 L-154.75 114.1 -210.1 67.55 -210.15 67.5 -217.3 61.55 -233.3 2.0 -164.35 33.1 -110.7 3.45 -65.2 79.55 -70.0 92.85 -74.8 106.1 -77.7 114.1 -116.25 114.1 M-147.05 71.7 L-127.0 46.1 -174.95 61.25 -147.05 71.7" fill="url(#gradient12)" fill-rule="evenodd" stroke="none"/>
    <path d="M-26.2 25.25 Q-27.6 49.75 -34.1 68.1 L-46.0 68.15 -41.0 32.75 -26.2 25.25" fill="#2b4634" fill-rule="evenodd" stroke="none"/>
    <path d="M-67.05 205.65 L-69.65 205.65 -124.25 165.65 -116.25 114.1 -77.7 114.1 -74.8 106.1 -68.55 110.0 -56.25 122.0 -36.6 150.55 -31.6 180.45 -31.6 205.65 -67.05 205.65" fill="url(#gradient13)" fill-rule="evenodd" stroke="none"/>
    <path d="M-279.35 153.95 L-311.05 79.7 -305.05 66.35 -301.1 72.3 -281.9 68.35 -245.35 82.8 -226.1 113.85 -233.25 122.75 -218.8 126.45 -206.65 148.8 -219.75 181.85 -221.9 172.8 -245.8 164.5 -251.1 168.05 -274.5 158.85 -273.75 153.45 -279.35 153.95" fill="url(#gradient14)" fill-rule="evenodd" stroke="none"/>
    <path d="M178.1 -234.45 L168.95 -239.1 163.95 -235.55 152.75 -227.7 152.15 -223.1 147.3 -186.55 178.75 -168.25 186.25 -139.3 232.45 -137.75 238.5 -144.4 234.25 -149.45 240.9 -154.65 234.25 -172.15 212.5 -158.2 199.85 -202.1 178.1 -207.6 178.1 -234.45 226.5 -237.15 229.0 -225.15 249.5 -211.95 270.0 -198.8 270.0 -158.85 260.25 -151.85 266.1 -147.2 265.75 -127.7 228.1 -104.3 214.75 -118.3 232.45 -137.75 M178.1 -234.45 L179.7 -233.6 M86.7 -199.1 L89.5 -207.85 92.3 -216.65 112.65 -228.85 111.4 -229.95 105.55 -229.95 68.95 -229.95 52.45 -210.5 72.5 -190.7 72.5 -153.35 72.5 -148.45 19.9 -117.25 0.9 -132.75 -18.1 -148.3 -16.15 -145.5 M-51.8 -204.3 L46.55 -216.35 52.45 -210.5 M122.8 -134.8 L126.8 -135.85 124.8 -142.6 135.5 -155.0 139.05 -191.35 147.3 -186.55 M112.65 -228.85 L141.65 -246.2 163.95 -235.55 M135.5 -155.0 L146.9 -163.75 158.9 -159.2 158.9 -138.4 174.2 -121.6 189.45 -127.05 186.25 -139.3 M102.45 -156.6 L102.7 -156.9 M161.8 -96.2 L137.15 -100.75 126.8 -135.85 M122.8 -134.8 L102.45 -156.6 92.35 -143.9 72.5 -153.35 M80.6 -180.0 L102.45 -156.6 M234.25 -172.15 L239.45 -175.45 229.0 -225.15 M174.2 -121.6 L179.4 -115.95 161.8 -96.2 M260.25 -151.85 L242.7 -139.35 238.5 -144.4 M86.7 -199.1 L80.6 -180.0 M26.05 42.15 L-25.15 8.0 -25.7 9.15 Q-25.7 17.45 -26.2 25.25 -27.6 49.75 -34.1 68.1 -36.5 74.8 -39.55 80.7 -41.65 84.75 -44.15 88.45 -47.0 92.75 -50.35 96.55 -56.5 69.9 -65.2 79.55 L-70.0 92.85 -34.15 110.6 -19.1 142.15 -19.1 175.2 -19.1 185.55 5.1 218.95 9.7 216.85 52.35 223.95 52.35 247.0 45.5 256.1 31.3 256.1 -1.1 241.0 -11.1 246.7 -1.35 260.55 -9.85 278.15 -43.5 278.15 -43.5 255.9 -51.0 256.55 -51.0 268.15 -66.1 285.15 -94.7 278.65 -94.7 256.1 -92.35 253.5 -119.1 256.25 -126.9 248.6 -124.25 236.85 -86.7 218.75 -79.45 222.4 -67.05 205.65 -69.65 205.65 -124.25 165.65 -116.25 114.1 -154.75 114.1 -210.1 67.55 -173.6 144.05 -178.8 168.85 -217.55 190.95 -216.65 194.95 -246.7 216.3 -274.1 204.1 -297.1 192.75 -297.1 188.8 -316.05 187.4 -316.05 172.75 -300.15 155.7 -279.35 153.95 -311.05 79.7 -305.05 66.35 -323.25 38.8 -299.35 17.0 -272.75 37.6 -291.5 15.7 -248.85 -23.9 -204.5 -21.85 -204.45 -21.85 -211.4 -27.55 -211.4 -43.15 -218.25 -82.0 -181.1 -129.1 -152.75 -150.1 -128.0 -168.45 -87.05 -162.55 -57.1 -184.55 -51.8 -186.2 -51.8 -204.3 M39.4 122.15 L40.3 112.6 40.75 105.45 Q42.0 81.1 39.4 51.05 L26.05 42.15 M40.75 105.45 L72.45 126.55 85.05 157.2 36.3 201.3 -19.1 175.2 M68.3 142.8 L65.5 139.55 45.9 116.5 39.4 122.15 26.3 133.0 20.8 132.6 -16.9 129.6 -44.15 88.45 M68.3 142.8 L77.5 153.6 66.45 171.25 37.35 178.25 10.25 155.2 20.8 132.6 M-145.1 -80.15 L-181.1 -90.95 -187.85 -85.85 -205.8 -72.3 -211.4 -68.15 -211.4 -43.15 M-123.25 -73.6 L-145.1 -80.15 M-181.1 -129.1 L-187.85 -85.85 M-204.5 -21.85 L-207.1 -19.65 -215.0 -13.2 -233.3 2.0 -217.3 61.55 -210.15 67.5 -210.1 67.55 M-95.7 -13.5 L-100.05 -21.75 -104.4 -29.95 -122.5 -15.0 -172.05 4.7 -204.45 -21.85 M-51.8 -186.2 L-46.4 -187.95 -18.1 -148.3 -26.5 -142.35 -53.6 -123.1 -73.5 -108.9 -123.25 -73.6 -104.4 -29.95 M-100.05 -21.75 L-25.8 5.15 -25.7 9.15 M-70.2 31.85 L-43.35 22.95 M-65.2 79.55 L-75.7 30.05 -78.4 24.1 -95.7 -13.5 M-78.4 24.1 L-25.8 5.15 M-147.05 71.7 L-174.95 61.25 -127.0 46.1 -147.05 71.7 M-116.25 114.1 L-77.7 114.1 -74.8 106.1 -70.0 92.85 M-19.1 185.55 L-19.1 189.65 -31.6 205.65 -67.05 205.65 M-272.75 37.7 L-241.0 74.9 -210.15 67.5 M-272.75 37.7 L-272.75 37.6 M-301.1 72.3 L-281.9 68.35 -280.4 63.3 -272.75 37.7 M-305.05 66.35 L-301.1 72.3 M-297.1 174.1 L-297.1 188.8 M-297.1 174.1 L-274.5 158.85 -273.75 153.45 -279.35 153.95 M-274.5 158.85 L-251.1 168.05 -245.8 164.5 -221.9 172.8 -219.75 181.85 -217.55 190.95 M-274.1 183.6 L-251.1 168.05 M-43.5 252.05 L-35.45 229.95 -20.4 229.95 -14.4 242.0 -11.1 246.7 M-6.35 223.95 L-6.35 238.5 -1.1 241.0 M-80.5 240.0 L-78.0 237.3 -82.45 232.8 -82.45 226.35 -79.45 222.4 M-78.0 237.3 L-75.6 234.5 -63.55 234.5 -51.0 245.0 -51.0 256.55 M-43.5 255.9 L-43.5 252.05 M-80.5 240.0 L-92.35 253.5 M-274.1 204.1 L-274.1 183.6 M5.1 218.95 L-6.35 223.95" ffdec:has-small-stroke="true" ffdec:original-stroke-width="0.1" fill="none" stroke="#000000" stroke-linecap="round" stroke-linejoin="round" stroke-opacity="0.29803923" stroke-width="1.0"/>
    <path d="M-204.5 -21.85 L-233.3 2.0 -217.3 61.55 -210.15 67.5 -210.1 67.55 -173.6 144.05 -178.8 168.85 -217.55 190.95 -216.65 194.95 -246.7 216.3 -274.1 204.1 -297.1 192.75 -297.1 188.8 -316.05 187.4 -316.05 172.75 -300.15 155.7 -279.35 153.95 -311.05 79.7 -305.05 66.35 -323.25 38.8 -299.35 17.0 -272.75 37.6 -291.5 15.7 -248.85 -23.9 -204.5 -21.85 M-100.05 -21.75 L-25.8 5.15 -25.7 9.15 -25.15 8.0 39.4 51.05 Q42.0 81.1 40.75 105.45 L72.45 126.55 85.05 157.2 36.3 201.3 -19.1 175.2 -19.1 142.15 -34.15 110.6 -70.0 92.85 -65.2 79.55 -75.7 30.05 -95.7 -13.5 -100.05 -21.75" fill="url(#gradient15)" fill-rule="evenodd" stroke="none"/>
    <path d="M-104.4 -29.95 L-105.3 -29.2 -104.6 -30.4 -104.4 -29.95" fill="url(#gradient16)" fill-rule="evenodd" stroke="none"/>
    <path d="M164.85 -263.2 Q165.95 -262.25 166.35 -261.3 167.0 -259.75 165.7 -258.25 L164.8 -257.45 137.5 -244.75 143.95 -255.5 Q146.45 -260.0 141.0 -264.05 119.3 -272.6 96.25 -269.1 89.15 -267.4 83.75 -261.45 77.0 -249.25 72.5 -234.75 L62.6 -230.3 Q63.85 -238.1 66.55 -246.15 L67.6 -249.05 Q68.85 -252.5 70.4 -256.0 L72.0 -259.65 70.4 -256.0 Q68.85 -252.5 67.6 -249.05 65.05 -251.6 62.95 -256.35 70.1 -259.7 72.0 -259.65 L72.05 -259.65 72.05 -259.7 Q78.05 -268.95 89.35 -272.35 100.65 -275.7 119.2 -275.9 L121.1 -275.75 127.55 -275.2 128.25 -275.05 127.55 -275.2 121.1 -275.75 Q121.75 -280.2 125.15 -283.15 L127.55 -279.25 128.25 -275.05 129.1 -274.95 128.85 -274.8 Q145.6 -269.8 155.9 -263.9 L157.4 -263.35 159.85 -262.25 Q162.45 -263.4 165.45 -264.0 L164.85 -263.2 Q163.05 -260.75 160.7 -259.0 158.2 -259.1 156.95 -260.75 156.05 -261.9 155.9 -263.9 156.05 -261.9 156.95 -260.75 158.2 -259.1 160.7 -259.0 163.05 -260.75 164.85 -263.2" fill="url(#gradient17)" fill-rule="evenodd" stroke="none"/>
    <path d="M155.9 -263.9 Q145.6 -269.8 128.85 -274.8 L129.1 -274.95 Q143.4 -272.9 157.4 -267.4 L159.85 -266.3 Q163.5 -267.95 167.9 -268.45 L165.45 -264.0 Q162.45 -263.4 159.85 -262.25 L157.4 -263.35 155.9 -263.9 155.85 -264.1 Q157.75 -265.4 159.85 -266.3 157.75 -265.4 155.85 -264.1 L155.9 -263.9 M121.1 -275.75 L119.2 -275.9 Q100.65 -275.7 89.35 -272.35 78.05 -268.95 72.05 -259.7 L72.05 -259.65 72.0 -259.65 72.05 -259.7 72.0 -259.65 Q70.1 -259.7 62.95 -256.35 62.15 -258.0 61.45 -260.0 L72.05 -259.7 73.95 -263.6 Q78.8 -271.05 86.25 -273.3 102.9 -276.8 119.2 -275.9 121.95 -282.6 125.4 -285.1 126.7 -282.95 127.55 -279.25 L125.15 -283.15 Q121.75 -280.2 121.1 -275.75" fill="url(#gradient18)" fill-rule="evenodd" stroke="none"/>
    <path d="M-7.2 -215.05 L-7.05 -215.0 Q-2.65 -213.35 1.7 -210.85 9.25 -206.3 16.6 -198.9 L18.15 -196.85 26.2 -197.5 23.85 -193.55 22.1 -191.05 20.5 -189.05 Q22.6 -192.65 24.2 -196.3 16.35 -195.85 9.7 -193.8 12.5 -195.2 15.45 -196.15 L18.15 -196.85 15.45 -196.15 Q5.7 -205.6 -4.6 -210.05 L-7.2 -211.1 Q-10.75 -212.4 -14.4 -213.1 -23.6 -215.05 -33.45 -214.4 -35.2 -213.95 -39.85 -212.15 -44.5 -210.4 -53.9 -202.95 L-53.2 -203.7 -47.55 -208.85 -45.1 -210.7 Q-39.7 -214.45 -33.3 -217.05 -23.6 -219.0 -14.4 -217.05 -12.1 -220.1 -8.7 -221.0 -6.6 -217.3 -7.15 -215.3 -7.45 -216.95 -8.7 -219.15 -11.15 -218.5 -12.95 -216.75 L-10.8 -216.2 -7.75 -215.25 -7.2 -215.05 M23.45 -188.95 Q32.35 -174.6 36.9 -158.5 39.65 -148.25 40.7 -137.35 L40.25 -137.5 Q39.15 -146.25 36.9 -154.5 32.15 -171.3 23.4 -188.85 L23.45 -188.95 M-54.25 -207.55 Q-54.55 -210.7 -53.2 -214.2 -48.1 -214.1 -45.1 -210.75 -46.6 -212.35 -52.4 -212.85 -54.0 -209.75 -54.25 -207.55 M-14.4 -217.05 L-12.95 -216.75 -14.4 -217.05" fill="url(#gradient19)" fill-rule="evenodd" stroke="none"/>
    <path d="M62.6 -230.3 L72.5 -234.75 Q77.0 -249.25 83.75 -261.45 89.15 -267.4 96.25 -269.1 119.3 -272.6 141.0 -264.05 146.45 -260.0 143.95 -255.5 L137.5 -244.75 106.5 -230.35 Q123.25 -240.85 135.05 -254.3 136.15 -255.25 136.75 -256.15 138.7 -259.05 135.4 -261.6 L123.5 -264.25 121.45 -260.5 Q119.75 -257.9 118.0 -256.4 116.7 -258.0 116.0 -261.05 L115.4 -265.2 Q99.55 -266.45 90.35 -260.3 L89.75 -259.55 91.45 -256.85 Q93.15 -254.0 93.2 -252.3 L91.75 -252.2 87.55 -252.7 85.05 -253.3 Q79.6 -245.25 77.05 -236.8 76.0 -233.4 75.5 -229.95 L68.95 -229.95 61.55 -221.25 Q61.85 -225.75 62.6 -230.3 M33.4 -139.35 L26.1 -141.35 20.1 -143.05 Q18.0 -150.7 13.85 -158.5 L9.45 -165.95 5.45 -171.65 3.75 -173.85 -1.95 -180.7 -4.6 -179.6 Q-7.95 -178.45 -12.2 -177.6 L-12.25 -177.6 Q-12.45 -182.5 -11.55 -185.95 L-10.5 -189.05 Q-6.35 -185.65 -1.95 -180.7 -6.35 -185.65 -10.5 -189.05 -13.95 -191.9 -17.1 -193.65 -25.1 -198.2 -31.9 -196.45 -39.05 -194.7 -45.05 -186.1 L-46.4 -187.95 -57.1 -184.55 -68.0 -176.5 Q-66.35 -182.25 -64.1 -187.25 L-60.35 -190.35 Q-56.2 -193.65 -51.8 -196.4 -37.95 -204.95 -21.6 -208.0 L-14.1 -209.1 -25.2 -202.85 Q-0.3 -201.2 20.55 -171.95 18.75 -170.35 17.75 -168.6 L19.75 -170.7 Q24.45 -167.7 27.35 -161.65 24.0 -160.85 19.4 -162.15 23.0 -160.55 26.05 -159.95 L33.4 -139.35 M115.4 -265.2 L123.5 -264.25 115.4 -265.2 M85.05 -253.3 Q87.1 -256.45 89.75 -259.55 87.1 -256.45 85.05 -253.3 M19.4 -162.15 L16.85 -163.4 Q16.45 -166.1 17.75 -168.6 16.45 -166.1 16.85 -163.4 L19.4 -162.15 M47.85 46.35 Q54.2 51.35 54.45 66.0 L54.25 67.25 54.05 67.95 55.15 69.0 Q59.25 73.0 60.65 78.25 55.75 79.95 50.5 79.5 46.9 88.3 41.15 94.9 L41.15 94.95 36.15 99.85 Q18.55 119.55 -1.25 130.85 -7.5 134.45 -14.05 137.2 L-20.3 139.7 -21.3 140.0 Q-31.35 141.55 -30.25 134.1 L-25.65 133.9 -23.4 133.15 Q-20.85 132.25 -18.4 131.15 L-15.15 129.7 Q9.9 118.15 31.8 93.75 37.2 89.15 41.15 83.2 L41.15 83.1 44.35 77.55 Q44.2 75.2 44.5 73.2 45.35 67.9 49.25 64.5 L50.1 59.9 Q49.95 51.55 47.85 46.35 M54.05 67.95 L52.8 66.9 Q51.2 65.6 49.25 64.5 51.2 65.6 52.8 66.9 L54.05 67.95 M50.5 79.5 L44.35 78.25 44.35 77.55 44.35 78.25 50.5 79.5 M-91.0 22.25 L-90.9 22.35 -90.0 25.95 -89.7 27.6 -89.55 28.75 -90.35 28.7 -91.35 28.55 -96.05 27.2 -123.4 54.75 Q-127.25 57.0 -130.85 58.4 -140.75 62.25 -148.2 59.05 -154.05 56.55 -160.0 51.15 L-160.4 50.8 Q-162.05 51.75 -163.7 51.95 L-163.95 52.0 -165.65 51.95 -165.75 51.3 -165.95 49.5 -165.95 49.35 Q-166.0 47.45 -165.65 45.45 L-168.9 41.7 Q-180.1 27.7 -191.9 27.7 L-199.1 27.6 Q-220.65 26.6 -228.65 19.15 L-230.55 17.0 -233.05 17.4 -233.3 17.4 -234.25 17.25 -235.35 17.0 -235.0 14.4 -233.95 11.95 Q-239.05 3.15 -239.85 -5.45 L-239.9 -5.75 -239.9 -5.85 -239.95 -7.95 Q-240.1 -12.15 -239.1 -16.35 -238.5 -19.3 -237.35 -22.15 L-237.05 -23.3 -235.95 -26.75 -234.8 -30.1 Q-236.65 -31.45 -237.85 -33.85 -238.6 -35.4 -239.05 -37.4 -237.2 -39.15 -234.8 -39.8 L-229.9 -40.1 -232.15 -36.05 -231.65 -35.75 -231.55 -35.6 Q-233.05 -31.85 -234.15 -27.65 L-234.8 -25.7 -235.35 -23.9 -235.55 -23.25 -235.9 -21.85 Q-237.05 -16.7 -236.65 -11.35 L-236.6 -11.0 -236.4 -9.55 Q-235.7 -4.75 -232.7 1.5 -230.65 6.15 -227.35 11.5 -220.85 20.3 -199.1 21.85 L-191.8 22.2 -188.65 22.2 -186.1 22.4 Q-175.7 23.7 -165.65 36.2 L-157.15 45.25 -156.75 45.65 Q-150.8 51.05 -144.95 53.55 -138.75 56.2 -130.85 54.0 -125.85 52.6 -120.15 49.2 L-97.6 26.55 -99.9 25.35 -102.0 24.1 Q-100.45 20.95 -98.25 18.9 -96.15 16.9 -93.55 15.8 -91.95 19.0 -91.0 22.25 M-234.8 -30.1 L-232.3 -35.65 -232.15 -36.05 -232.3 -35.65 -234.8 -30.1 M-97.6 26.55 Q-96.8 26.85 -96.05 27.2 -96.8 26.85 -97.6 26.55 M-160.4 50.8 L-161.8 49.5 -165.65 45.45 -161.8 49.5 -160.4 50.8 M-69.9 145.95 L-71.4 142.85 Q-77.25 137.6 -88.4 137.75 L-119.7 136.25 -153.65 134.7 -153.65 134.75 -154.15 136.9 -155.05 139.6 Q-156.65 143.45 -159.2 145.25 -161.35 143.1 -163.0 139.3 L-163.0 139.25 -164.75 134.2 -171.2 133.85 Q-177.1 133.2 -179.85 121.4 -181.65 121.3 -185.15 119.15 L-185.6 118.8 -187.95 117.35 -186.95 115.95 Q-184.3 112.4 -179.85 112.4 L-179.85 94.4 -176.45 95.8 -172.4 98.0 -172.4 104.25 Q-169.65 125.05 -163.75 125.7 L-132.85 127.2 -132.85 128.3 Q-128.45 133.0 -123.4 128.3 L-123.4 127.65 -80.95 129.6 Q-76.2 129.5 -72.45 130.4 L-75.1 133.85 Q-72.7 140.4 -66.3 139.05 -65.65 136.85 -65.65 133.35 L-63.95 134.7 -62.45 137.8 Q-60.35 143.1 -60.35 147.6 -60.35 152.0 -59.75 154.0 -59.15 156.0 -61.65 166.95 -64.1 177.85 -71.55 189.9 L-70.45 188.8 -67.35 185.95 -65.65 184.35 -66.75 185.55 Q-69.2 188.5 -72.0 191.35 L-74.8 194.1 -77.9 196.95 -79.5 198.45 Q-84.3 201.85 -91.45 196.95 -97.0 191.8 -101.5 185.55 L-105.1 180.1 -105.65 179.3 Q-108.1 175.2 -110.1 170.8 -99.35 181.1 -89.75 182.85 -84.05 183.9 -78.75 181.95 L-76.25 179.5 -74.0 176.65 -75.9 174.95 -76.55 174.1 -79.4 169.8 Q-74.5 168.05 -70.45 169.8 -69.75 167.95 -69.2 165.95 L-69.15 165.8 -68.6 163.6 -68.15 160.8 -68.0 159.15 -67.9 157.3 Q-67.8 151.3 -69.9 145.95 M-164.75 134.2 L-153.7 134.7 -153.65 134.7 -153.7 134.7 -164.75 134.2 M-70.45 169.8 L-72.45 174.15 -72.5 174.25 -74.0 176.65 -72.5 174.25 -72.45 174.15 -70.45 169.8 M-230.55 17.0 L-230.7 16.9 -232.9 13.6 -233.95 11.95 -232.9 13.6 -230.7 16.9 -230.55 17.0" fill="#131c16" fill-rule="evenodd" stroke="none"/>
    <path d="M22.1 -191.05 L22.9 -189.85 22.9 -189.9 23.0 -189.7 23.0 -189.65 23.45 -188.95 23.4 -188.85 Q32.15 -171.3 36.9 -154.5 39.15 -146.25 40.25 -137.5 L33.4 -139.35 26.05 -159.95 Q23.0 -160.55 19.4 -162.15 24.0 -160.85 27.35 -161.65 24.45 -167.7 19.75 -170.7 L17.75 -168.6 Q18.75 -170.35 20.55 -171.95 26.9 -167.8 29.35 -159.7 L28.2 -159.7 26.05 -159.95 28.2 -159.7 29.35 -159.7 Q26.9 -167.8 20.55 -171.95 -0.3 -201.2 -25.2 -202.85 L-14.1 -209.1 -21.6 -208.0 Q-37.95 -204.95 -51.8 -196.4 -56.2 -193.65 -60.35 -190.35 L-64.1 -187.25 -62.35 -190.8 Q-58.85 -197.5 -54.1 -202.65 L-53.9 -202.95 Q-44.5 -210.4 -39.85 -212.15 -35.2 -213.95 -33.45 -214.4 -23.6 -215.05 -14.4 -213.1 -10.75 -212.4 -7.2 -211.1 L-4.6 -210.05 Q5.7 -205.6 15.45 -196.15 12.5 -195.2 9.7 -193.8 16.35 -195.85 24.2 -196.3 22.6 -192.65 20.5 -189.05 18.4 -186.8 16.25 -185.3 12.2 -187.45 10.65 -190.3 9.8 -191.9 9.7 -193.8 9.8 -191.9 10.65 -190.3 12.2 -187.45 16.25 -185.3 18.4 -186.8 20.5 -189.05 L22.1 -191.05 M-53.2 -203.7 Q-53.9 -205.2 -54.1 -206.75 L-54.25 -207.55 Q-54.0 -209.75 -52.4 -212.85 -46.6 -212.35 -45.1 -210.75 L-45.1 -210.7 -47.55 -208.85 -53.2 -203.7 M-7.15 -215.3 L-7.2 -215.05 -7.75 -215.25 -10.8 -216.2 -12.95 -216.75 Q-11.15 -218.5 -8.7 -219.15 -7.45 -216.95 -7.15 -215.3 M22.9 -189.85 L23.0 -189.7 22.9 -189.85" fill="url(#gradient20)" fill-rule="evenodd" stroke="none"/>
    <path d="M26.1 -141.35 L27.4 -137.1 27.4 -136.95 Q29.25 -130.35 30.35 -123.4 L31.25 -115.85 10.65 -121.55 9.25 -125.95 Q7.4 -131.45 4.4 -136.95 0.9 -143.5 -4.0 -150.1 -7.75 -155.15 -11.4 -159.2 -15.7 -157.25 -21.7 -156.1 -21.95 -163.4 -19.95 -167.55 -29.4 -175.4 -37.45 -175.45 -48.15 -175.5 -56.3 -161.8 L-79.4 -147.0 Q-76.2 -163.55 -68.45 -174.95 L-68.0 -176.5 -57.1 -184.55 -46.4 -187.95 -45.05 -186.1 Q-39.05 -194.7 -31.9 -196.45 L-23.85 -195.55 Q-20.45 -194.9 -17.1 -193.65 -13.95 -191.9 -10.5 -189.05 L-11.55 -185.95 Q-12.45 -182.5 -12.25 -177.6 L-12.2 -177.6 Q-7.95 -178.45 -4.6 -179.6 L-1.95 -180.7 3.75 -173.85 5.45 -171.65 9.45 -165.95 13.85 -158.5 Q18.0 -150.7 20.1 -143.05 L26.1 -141.35 M-89.7 27.6 Q-84.1 24.7 -77.95 25.05 L-75.7 30.05 -74.15 37.35 Q-78.65 35.4 -87.35 44.45 -86.05 47.85 -85.4 51.3 -88.8 50.95 -92.2 49.85 L-118.7 79.7 Q-125.85 84.3 -132.0 85.65 L-136.45 86.2 -142.05 85.65 -144.05 85.0 Q-150.55 82.4 -157.35 76.7 -160.0 78.3 -162.65 78.1 -163.3 76.05 -163.3 73.8 L-163.05 71.3 -166.65 67.45 Q-179.25 53.1 -191.5 53.5 L-199.1 53.55 Q-211.85 53.3 -220.15 50.85 -228.45 48.3 -232.3 43.5 L-237.25 43.65 Q-237.3 40.35 -236.1 38.25 -243.1 27.6 -243.8 16.8 -244.25 9.7 -241.9 2.65 -241.15 -1.6 -239.9 -5.35 L-239.85 -5.45 Q-239.05 3.15 -233.95 11.95 L-235.0 14.4 -235.35 17.0 -234.25 17.25 -233.3 17.4 -233.05 17.4 -232.95 17.8 -232.6 21.85 Q-230.85 33.55 -223.95 36.65 -220.45 38.25 -215.6 37.6 L-199.1 35.8 Q-193.95 35.5 -189.85 35.7 L-188.1 34.45 -187.35 35.85 Q-181.45 36.45 -178.1 38.35 -173.75 40.95 -169.6 45.2 -167.75 47.1 -165.95 49.35 L-165.95 49.5 -165.75 51.3 -165.65 51.95 -163.95 52.0 -163.7 51.95 Q-162.05 51.75 -160.4 50.8 L-160.0 51.15 Q-159.6 53.7 -160.0 55.55 L-160.5 57.0 Q-153.05 67.55 -138.05 69.95 L-130.85 69.7 Q-124.6 68.25 -118.8 62.65 -119.75 60.0 -119.55 55.45 L-119.35 53.0 -116.9 52.7 Q-114.1 52.65 -111.6 53.8 L-108.05 47.85 Q-102.25 37.45 -95.7 31.8 -93.65 29.85 -91.35 28.55 L-90.35 28.7 -89.55 28.75 -89.7 27.6 M-239.9 -5.85 L-241.4 -7.3 Q-243.55 -9.55 -244.7 -13.4 -242.45 -15.85 -239.1 -16.35 -240.1 -12.15 -239.95 -7.95 L-239.9 -5.85 M-119.7 136.25 L-88.4 137.75 Q-77.25 137.6 -71.4 142.85 L-69.9 145.95 -71.65 147.65 -75.1 151.85 Q-73.1 157.4 -68.15 157.3 L-67.9 157.3 -68.0 159.15 -68.15 160.8 -68.6 163.6 -69.15 165.8 -69.2 165.95 -69.25 165.65 Q-70.0 163.45 -71.1 161.4 L-71.4 160.9 Q-77.25 155.65 -88.4 155.75 L-122.4 154.2 -119.7 136.25 M-47.1 160.25 Q-47.3 162.8 -47.75 165.4 L-48.4 168.9 Q-44.0 170.25 -42.05 174.8 -46.0 178.85 -51.6 179.15 -56.5 191.65 -66.75 203.6 L-68.55 205.65 Q-72.75 210.4 -77.9 215.0 -83.1 220.7 -91.45 215.0 -97.0 209.8 -101.5 203.6 -106.4 196.85 -110.1 188.8 -101.55 197.05 -93.65 199.85 -85.85 202.55 -78.75 199.95 L-78.15 199.45 Q-75.8 197.25 -74.0 194.65 L-72.0 191.35 Q-69.2 188.5 -66.75 185.55 L-65.65 184.35 Q-56.25 173.0 -51.6 161.15 L-49.7 160.95 -47.5 160.35 -47.1 160.25" fill="#000000" fill-opacity="0.49803922" fill-rule="evenodd" stroke="none"/>
    <path d="M26.75 42.6 L28.7 42.5 Q38.45 41.85 45.35 44.9 46.65 45.45 47.85 46.35 49.95 51.55 50.1 59.9 L49.25 64.5 Q45.35 67.9 44.5 73.2 44.2 75.2 44.35 77.55 L41.15 83.1 41.15 83.2 Q37.2 89.15 31.8 93.75 9.9 118.15 -15.15 129.7 L-18.4 131.15 Q-20.85 132.25 -23.4 133.15 L-25.65 133.9 -30.25 134.1 Q-29.85 130.95 -27.4 126.2 L-26.9 125.9 -21.65 122.45 -14.05 117.35 Q-1.5 108.6 7.9 100.5 L7.8 100.05 Q6.6 94.95 6.4 88.7 10.9 90.35 14.8 93.2 L15.35 93.7 Q38.55 69.75 34.4 52.6 33.65 49.3 32.0 46.1 L26.75 42.6 M7.9 100.5 Q8.6 103.65 9.8 106.25 17.75 106.45 19.55 97.45 17.55 95.35 15.35 93.7 17.55 95.35 19.55 97.45 17.75 106.45 9.8 106.25 8.6 103.65 7.9 100.5 M-51.9 126.55 Q-48.9 122.7 -44.4 122.25 -44.65 125.15 -45.15 127.35 -45.95 130.25 -47.15 131.85 -46.9 132.9 -47.0 134.05 L-46.9 136.5 -47.0 139.45 -47.05 140.85 Q-47.25 144.55 -47.9 148.1 L-48.4 150.9 -47.55 151.2 -47.0 151.5 Q-45.4 152.2 -44.25 153.35 -42.9 154.8 -42.05 156.8 L-44.05 158.55 -47.1 160.25 -47.5 160.35 -49.7 160.95 -51.6 161.15 Q-56.25 173.0 -65.65 184.35 L-67.35 185.95 -70.45 188.8 -71.55 189.9 Q-64.1 177.85 -61.65 166.95 -59.15 156.0 -59.75 154.0 -60.35 152.0 -60.35 147.6 -60.35 143.1 -62.45 137.8 L-63.95 134.7 -65.65 133.35 Q-65.65 136.85 -66.3 139.05 -72.7 140.4 -75.1 133.85 L-72.45 130.4 Q-76.2 129.5 -80.95 129.6 L-123.4 127.65 -123.4 128.3 Q-128.45 133.0 -132.85 128.3 L-132.85 127.2 Q-132.8 123.25 -129.4 118.8 -132.8 123.25 -132.85 127.2 L-163.75 125.7 Q-169.65 125.05 -172.4 104.25 L-172.4 98.0 Q-167.5 100.95 -163.15 105.1 -159.65 108.45 -156.5 112.6 L-156.05 113.2 -158.7 113.25 -158.75 113.25 -161.35 113.25 -154.15 115.0 Q-139.95 118.15 -129.4 118.8 L-128.1 117.15 -126.6 118.95 Q-123.45 123.3 -123.4 127.65 -123.45 123.3 -126.6 118.95 L-117.1 119.75 -108.8 120.55 Q-88.5 122.75 -69.0 127.25 -67.65 126.2 -66.3 125.5 L-65.95 127.9 -47.15 131.85 Q-47.65 130.15 -48.85 128.8 -50.1 127.5 -51.9 126.55 M-72.45 130.4 Q-70.85 128.55 -69.0 127.25 -70.85 128.55 -72.45 130.4 M-65.95 127.9 L-65.65 133.35 -65.95 127.9 M-51.6 161.15 Q-49.55 156.1 -48.4 150.9 -49.55 156.1 -51.6 161.15" fill="#2b4634" fill-rule="evenodd" stroke="none"/>
    <path d="M-213.85 -57.05 L-213.35 -54.25 Q-223.45 -47.65 -232.15 -36.05 L-229.9 -40.1 -228.35 -42.6 Q-222.45 -51.4 -213.85 -57.05" fill="url(#gradient21)" fill-rule="evenodd" stroke="none"/>
    <path d="M-213.35 -54.25 L-211.8 -45.5 Q-216.75 -41.55 -220.4 -36.25 L-222.6 -32.75 Q-225.2 -28.2 -226.8 -22.85 -228.5 -17.65 -229.25 -11.65 L-229.65 -8.7 -229.55 -4.65 -229.6 -4.25 -229.25 -1.35 -227.85 5.75 Q-226.1 13.1 -213.7 13.7 L-199.1 14.6 -193.0 15.2 -193.3 15.7 Q-192.7 17.1 -191.75 17.85 -189.8 19.35 -186.45 18.65 L-186.1 17.45 -185.9 15.7 -182.8 16.3 Q-179.9 17.0 -178.0 18.25 -171.8 22.15 -161.75 37.35 L-161.75 37.25 Q-155.1 46.9 -141.35 49.4 -136.85 50.2 -130.85 47.2 -123.9 43.65 -114.9 34.9 L-111.0 29.35 Q-99.1 10.45 -85.55 8.6 -82.55 8.2 -79.45 8.6 -75.5 9.8 -74.2 11.95 -75.05 13.9 -77.2 16.25 -79.05 14.85 -82.1 16.05 -84.3 16.9 -87.1 18.95 L-91.0 22.25 Q-91.95 19.0 -93.55 15.8 -96.15 16.9 -98.25 18.9 -100.45 20.95 -102.0 24.1 L-99.9 25.35 -97.6 26.55 -120.15 49.2 Q-125.85 52.6 -130.85 54.0 -138.75 56.2 -144.95 53.55 -150.8 51.05 -156.75 45.65 L-157.15 45.25 -165.65 36.2 Q-175.7 23.7 -186.1 22.4 L-188.65 22.2 -191.8 22.2 -199.1 21.85 Q-220.85 20.3 -227.35 11.5 -230.65 6.15 -232.7 1.5 -235.7 -4.75 -236.4 -9.55 L-236.6 -11.0 -236.65 -11.35 Q-237.05 -16.7 -235.9 -21.85 L-235.55 -23.25 -235.35 -23.9 -234.8 -25.7 -234.15 -27.65 Q-233.05 -31.85 -231.55 -35.6 L-231.65 -35.75 -232.15 -36.05 Q-223.45 -47.65 -213.35 -54.25" fill="url(#gradient22)" fill-rule="evenodd" stroke="none"/>
    <path d="M-229.55 -4.65 L-229.45 -3.9 -229.2 -1.4 Q-227.05 13.2 -214.15 11.9 L-199.1 10.75 Q-193.85 10.55 -189.75 10.85 L-189.2 10.85 -189.55 11.1 Q-191.75 12.85 -193.0 15.2 L-199.1 14.6 -213.7 13.7 Q-226.1 13.1 -227.85 5.75 L-229.25 -1.35 -229.6 -4.25 -229.55 -4.65" fill="#528c66" fill-rule="evenodd" stroke="none"/>
    <path d="M-186.85 11.1 L-182.85 11.85 Q-179.95 12.55 -178.1 13.75 -171.85 17.65 -166.6 25.05 L-163.95 29.2 -163.55 29.85 -162.35 32.0 -161.3 33.45 Q-154.6 42.55 -141.4 44.95 -136.1 45.9 -130.85 43.95 -126.75 42.35 -122.75 39.0 L-122.4 38.65 -120.9 37.3 -117.75 33.95 -114.95 30.45 -111.05 24.85 Q-100.0 7.3 -87.4 4.5 L-79.5 4.1 Q-72.9 6.2 -73.8 10.6 L-74.2 11.95 Q-75.5 9.8 -79.45 8.6 -82.55 8.2 -85.55 8.6 -99.1 10.45 -111.0 29.35 L-114.9 34.9 Q-123.9 43.65 -130.85 47.2 -136.85 50.2 -141.35 49.4 -155.1 46.9 -161.75 37.25 L-161.75 37.35 Q-171.8 22.15 -178.0 18.25 -179.9 17.0 -182.8 16.3 L-185.9 15.7 -186.1 13.3 -186.85 11.1" fill="url(#gradient23)" fill-rule="evenodd" stroke="none"/>
    <path d="M-189.2 10.85 L-187.55 9.7 -186.85 11.1 -186.1 13.3 -185.9 15.7 -186.1 17.45 -186.45 18.65 Q-189.8 19.35 -191.75 17.85 -192.7 17.1 -193.3 15.7 L-193.0 15.2 Q-191.75 12.85 -189.55 11.1 L-189.2 10.85 M-166.6 25.05 Q-164.1 24.35 -161.6 25.05 -161.1 27.85 -161.5 29.85 -161.75 31.0 -162.35 32.0 L-163.55 29.85 -163.95 29.2 -166.6 25.05 M-122.4 38.65 L-122.65 37.15 -122.8 35.95 Q-123.0 33.2 -122.4 29.4 L-119.65 29.25 Q-117.7 29.35 -115.95 30.05 -115.4 30.15 -114.95 30.45 L-117.75 33.95 -120.9 37.3 -122.4 38.65" fill="#2a4533" fill-rule="evenodd" stroke="none"/>
    <path d="M-156.05 113.2 L-155.8 113.2 -154.15 113.2 -124.85 114.1 -116.3 114.8 -108.8 115.6 Q-79.5 118.75 -51.9 126.55 -50.1 127.5 -48.85 128.8 -47.65 130.15 -47.15 131.85 L-65.95 127.9 -66.3 125.5 Q-67.65 126.2 -69.0 127.25 -88.5 122.75 -108.8 120.55 L-117.1 119.75 -126.6 118.95 -128.1 117.15 -129.4 118.8 Q-139.95 118.15 -154.15 115.0 L-161.35 113.25 -158.75 113.25 -158.7 113.25 -156.05 113.2" fill="url(#gradient24)" fill-rule="evenodd" stroke="none"/>
    <path d="M137.5 -244.75 L164.8 -257.45 165.7 -258.25 Q167.0 -259.75 166.35 -261.3 165.95 -262.25 164.85 -263.2 163.05 -260.75 160.7 -259.0 158.2 -259.1 156.95 -260.75 156.05 -261.9 155.9 -263.9 L155.85 -264.1 Q157.75 -265.4 159.85 -266.3 163.5 -267.95 167.9 -268.45 L165.45 -264.0 164.85 -263.2 M129.1 -274.95 L128.25 -275.05 127.55 -275.2 121.1 -275.75 119.2 -275.9 Q121.95 -282.6 125.4 -285.1 126.7 -282.95 127.55 -279.25 L128.25 -275.05 M72.0 -259.65 L70.4 -256.0 Q68.85 -252.5 67.6 -249.05 L66.55 -246.15 Q63.85 -238.1 62.6 -230.3 61.85 -225.75 61.55 -221.25 M137.5 -244.75 L106.5 -230.35 Q123.25 -240.85 135.05 -254.3 136.15 -255.25 136.75 -256.15 138.7 -259.05 135.4 -261.6 L123.5 -264.25 121.45 -260.5 Q119.75 -257.9 118.0 -256.4 116.7 -258.0 116.0 -261.05 L115.4 -265.2 Q99.55 -266.45 90.35 -260.3 L89.75 -259.55 91.45 -256.85 Q93.15 -254.0 93.2 -252.3 L91.75 -252.2 87.55 -252.7 85.05 -253.3 Q79.6 -245.25 77.05 -236.8 76.0 -233.4 75.5 -229.95 M62.95 -256.35 Q65.05 -251.6 67.6 -249.05 M72.05 -259.7 L72.0 -259.65 M62.95 -256.35 Q62.15 -258.0 61.45 -260.0 L72.05 -259.7 73.95 -263.6 Q78.8 -271.05 86.25 -273.3 102.9 -276.8 119.2 -275.9 M-7.2 -215.05 L-7.05 -215.0 Q-2.65 -213.35 1.7 -210.85 9.25 -206.3 16.6 -198.9 L18.15 -196.85 26.2 -197.5 23.85 -193.55 22.1 -191.05 22.9 -189.85 23.0 -189.7 23.0 -189.65 23.45 -188.95 Q32.35 -174.6 36.9 -158.5 39.65 -148.25 40.7 -137.35 L40.25 -137.5 33.4 -139.35 26.1 -141.35 20.1 -143.05 Q18.0 -150.7 13.85 -158.5 L9.45 -165.95 5.45 -171.65 3.75 -173.85 -1.95 -180.7 Q-6.35 -185.65 -10.5 -189.05 -13.95 -191.9 -17.1 -193.65 -25.1 -198.2 -31.9 -196.45 -39.05 -194.7 -45.05 -186.1 M-68.45 -174.95 L-68.0 -176.5 Q-66.35 -182.25 -64.1 -187.25 L-62.35 -190.8 Q-58.85 -197.5 -54.1 -202.65 L-53.9 -202.95 -53.2 -203.7 Q-53.9 -205.2 -54.1 -206.75 L-54.25 -207.55 Q-54.55 -210.7 -53.2 -214.2 -48.1 -214.1 -45.1 -210.75 L-45.1 -210.7 Q-39.7 -214.45 -33.3 -217.05 -23.6 -219.0 -14.4 -217.05 -12.1 -220.1 -8.7 -221.0 -6.6 -217.3 -7.15 -215.3 L-7.2 -215.05 -7.75 -215.25 -10.8 -216.2 -12.95 -216.75 -14.4 -217.05 M129.1 -274.95 Q143.4 -272.9 157.4 -267.4 L159.85 -266.3 M89.75 -259.55 Q87.1 -256.45 85.05 -253.3 M123.5 -264.25 L115.4 -265.2 M20.5 -189.05 L22.1 -191.05 M9.7 -193.8 Q9.8 -191.9 10.65 -190.3 12.2 -187.45 16.25 -185.3 18.4 -186.8 20.5 -189.05 M15.45 -196.15 L18.15 -196.85 M15.45 -196.15 Q12.5 -195.2 9.7 -193.8 M19.4 -162.15 Q23.0 -160.55 26.05 -159.95 L28.2 -159.7 29.35 -159.7 Q26.9 -167.8 20.55 -171.95 18.75 -170.35 17.75 -168.6 16.45 -166.1 16.85 -163.4 L19.4 -162.15 M26.75 42.6 L28.7 42.5 Q38.45 41.85 45.35 44.9 46.65 45.45 47.85 46.35 54.2 51.35 54.45 66.0 L54.25 67.25 54.05 67.95 55.15 69.0 Q59.25 73.0 60.65 78.25 55.75 79.95 50.5 79.5 46.9 88.3 41.15 94.9 L41.15 94.95 36.15 99.85 Q18.55 119.55 -1.25 130.85 -7.5 134.45 -14.05 137.2 L-20.3 139.7 -21.3 140.0 Q-31.35 141.55 -30.25 134.1 -29.85 130.95 -27.4 126.2 L-26.9 125.9 -21.65 122.45 -14.05 117.35 Q-1.5 108.6 7.9 100.5 L7.8 100.05 Q6.6 94.95 6.4 88.7 10.9 90.35 14.8 93.2 L15.35 93.7 Q38.55 69.75 34.4 52.6 33.65 49.3 32.0 46.1 M15.35 93.7 Q17.55 95.35 19.55 97.45 17.75 106.45 9.8 106.25 8.6 103.65 7.9 100.5 M49.25 64.5 Q51.2 65.6 52.8 66.9 L54.05 67.95 M49.25 64.5 Q45.35 67.9 44.5 73.2 44.2 75.2 44.35 77.55 L44.35 78.25 50.5 79.5 M-53.2 -203.7 L-47.55 -208.85 -45.1 -210.7 M-211.8 -45.5 Q-216.75 -41.55 -220.4 -36.25 L-222.6 -32.75 Q-225.2 -28.2 -226.8 -22.85 -228.5 -17.65 -229.25 -11.65 L-229.65 -8.7 -229.55 -4.65 -229.45 -3.9 -229.2 -1.4 Q-227.05 13.2 -214.15 11.9 L-199.1 10.75 Q-193.85 10.55 -189.75 10.85 L-189.2 10.85 -187.55 9.7 -186.85 11.1 -182.85 11.85 Q-179.95 12.55 -178.1 13.75 -171.85 17.65 -166.6 25.05 -164.1 24.35 -161.6 25.05 -161.1 27.85 -161.5 29.85 -161.75 31.0 -162.35 32.0 L-161.3 33.45 Q-154.6 42.55 -141.4 44.95 -136.1 45.9 -130.85 43.95 -126.75 42.35 -122.75 39.0 L-122.4 38.65 -122.65 37.15 -122.8 35.95 Q-123.0 33.2 -122.4 29.4 L-119.65 29.25 Q-117.7 29.35 -115.95 30.05 -115.4 30.15 -114.95 30.45 L-111.05 24.85 Q-100.0 7.3 -87.4 4.5 L-79.5 4.1 Q-72.9 6.2 -73.8 10.6 L-74.2 11.95 Q-75.05 13.9 -77.2 16.25 -79.05 14.85 -82.1 16.05 -84.3 16.9 -87.1 18.95 L-91.0 22.25 -90.9 22.35 -90.0 25.95 -89.7 27.6 -89.55 28.75 -90.35 28.7 -91.35 28.55 -96.05 27.2 -123.4 54.75 Q-127.25 57.0 -130.85 58.4 -140.75 62.25 -148.2 59.05 -154.05 56.55 -160.0 51.15 L-160.4 50.8 Q-162.05 51.75 -163.7 51.95 L-163.95 52.0 -165.65 51.95 -165.75 51.3 -165.95 49.5 -165.95 49.35 Q-166.0 47.45 -165.65 45.45 L-168.9 41.7 Q-180.1 27.7 -191.9 27.7 L-199.1 27.6 Q-220.65 26.6 -228.65 19.15 L-230.55 17.0 -233.05 17.4 -233.3 17.4 -234.25 17.25 -235.35 17.0 -235.0 14.4 -233.95 11.95 Q-239.05 3.15 -239.85 -5.45 L-239.9 -5.75 M-239.1 -16.35 Q-238.5 -19.3 -237.35 -22.15 L-237.05 -23.3 -235.95 -26.75 -234.8 -30.1 Q-236.65 -31.45 -237.85 -33.85 -238.6 -35.4 -239.05 -37.4 -237.2 -39.15 -234.8 -39.8 L-229.9 -40.1 -228.35 -42.6 Q-222.45 -51.4 -213.85 -57.05 M-232.15 -36.05 L-232.3 -35.65 -234.8 -30.1 M-229.9 -40.1 L-232.15 -36.05 M-239.1 -16.35 Q-240.1 -12.15 -239.95 -7.95 L-239.9 -5.85 M-193.0 15.2 Q-191.75 12.85 -189.55 11.1 L-189.2 10.85 M-10.5 -189.05 L-11.55 -185.95 Q-12.45 -182.5 -12.25 -177.6 L-12.2 -177.6 Q-7.95 -178.45 -4.6 -179.6 L-1.95 -180.7 M-97.6 26.55 L-99.9 25.35 -102.0 24.1 Q-100.45 20.95 -98.25 18.9 -96.15 16.9 -93.55 15.8 -91.95 19.0 -91.0 22.25 M-122.4 38.65 L-120.9 37.3 -117.75 33.95 -114.95 30.45 M-96.05 27.2 Q-96.8 26.85 -97.6 26.55 M-165.65 45.45 L-161.8 49.5 -160.4 50.8 M-69.9 145.95 L-71.4 142.85 Q-77.25 137.6 -88.4 137.75 L-119.7 136.25 -153.65 134.7 -153.65 134.75 -154.15 136.9 -155.05 139.6 Q-156.65 143.45 -159.2 145.25 -161.35 143.1 -163.0 139.3 L-163.0 139.25 -164.75 134.2 -171.2 133.85 Q-177.1 133.2 -179.85 121.4 -181.65 121.3 -185.15 119.15 L-185.6 118.8 -187.95 117.35 -186.95 115.95 Q-184.3 112.4 -179.85 112.4 L-179.85 94.4 -176.45 95.8 -172.4 98.0 Q-167.5 100.95 -163.15 105.1 -159.65 108.45 -156.5 112.6 L-156.05 113.2 -155.8 113.2 -154.15 113.2 -124.85 114.1 -116.3 114.8 -108.8 115.6 Q-79.5 118.75 -51.9 126.55 -48.9 122.7 -44.4 122.25 -44.65 125.15 -45.15 127.35 -45.95 130.25 -47.15 131.85 -46.9 132.9 -47.0 134.05 L-46.9 136.5 -47.0 139.45 -47.05 140.85 Q-47.25 144.55 -47.9 148.1 L-48.4 150.9 -47.55 151.2 -47.0 151.5 Q-45.4 152.2 -44.25 153.35 -42.9 154.8 -42.05 156.8 L-44.05 158.55 -47.1 160.25 -47.5 160.35 -49.7 160.95 -51.6 161.15 Q-56.25 173.0 -65.65 184.35 L-66.75 185.55 Q-69.2 188.5 -72.0 191.35 L-74.8 194.1 -77.9 196.95 -79.5 198.45 Q-84.3 201.85 -91.45 196.95 -97.0 191.8 -101.5 185.55 L-105.1 180.1 -105.65 179.3 Q-108.1 175.2 -110.1 170.8 -99.35 181.1 -89.75 182.85 -84.05 183.9 -78.75 181.95 L-76.25 179.5 -74.0 176.65 -75.9 174.95 -76.55 174.1 -79.4 169.8 Q-74.5 168.05 -70.45 169.8 -69.75 167.95 -69.2 165.95 L-69.15 165.8 -68.6 163.6 -68.15 160.8 -68.0 159.15 -67.9 157.3 Q-67.8 151.3 -69.9 145.95 M-69.0 127.25 Q-67.65 126.2 -66.3 125.5 L-65.95 127.9 -65.65 133.35 Q-65.65 136.85 -66.3 139.05 -72.7 140.4 -75.1 133.85 L-72.45 130.4 Q-70.85 128.55 -69.0 127.25 M-47.15 131.85 Q-47.65 130.15 -48.85 128.8 -50.1 127.5 -51.9 126.55 M-126.6 118.95 L-128.1 117.15 -129.4 118.8 Q-132.8 123.25 -132.85 127.2 L-132.85 128.3 Q-128.45 133.0 -123.4 128.3 L-123.4 127.65 Q-123.45 123.3 -126.6 118.95 M-161.35 113.25 L-158.75 113.25 -158.7 113.25 -156.05 113.2 M-153.65 134.7 L-153.7 134.7 -164.75 134.2 M-48.4 150.9 Q-49.55 156.1 -51.6 161.15 M-74.0 176.65 L-72.5 174.25 -72.45 174.15 -70.45 169.8 M-193.0 15.2 L-193.3 15.7 Q-192.7 17.1 -191.75 17.85 -189.8 19.35 -186.45 18.65 L-186.1 17.45 -185.9 15.7 -186.1 13.3 -186.85 11.1 M-166.6 25.05 L-163.95 29.2 -163.55 29.85 -162.35 32.0 M-233.95 11.95 L-232.9 13.6 -230.7 16.9 -230.55 17.0" ffdec:has-small-stroke="true" ffdec:original-stroke-width="0.1" fill="none" stroke="#000000" stroke-linecap="round" stroke-linejoin="round" stroke-opacity="0.29803923" stroke-width="1.0"/>
    <path d="M12.95 -161.65 Q42.9 -155.15 59.65 -122.85 35.15 -150.5 5.5 -162.35 L9.1 -162.35 12.95 -161.65 M-110.5 -119.5 Q-100.85 -135.85 -82.95 -152.0 -75.3 -158.3 -67.9 -160.1 L-61.25 -160.8 Q-70.25 -160.8 -110.5 -119.5 M-60.4 -166.75 Q-49.65 -174.8 -37.0 -176.05 L-36.55 -173.1 Q-48.2 -171.7 -60.4 -166.75 M-23.05 -177.4 Q-4.55 -177.6 9.9 -164.55 -6.2 -173.05 -23.45 -173.7 L-23.05 -177.4 M-3.8 -146.35 Q2.45 -141.6 8.6 -134.45 -30.3 -168.65 -69.15 -134.6 -62.35 -141.6 -55.65 -146.2 -28.65 -165.2 -3.8 -146.35" fill="#f9ad40" fill-rule="evenodd" stroke="none"/>
    <path d="M9.9 -164.55 L12.95 -161.65 9.1 -162.35 5.5 -162.35 Q35.15 -150.5 59.65 -122.85 L63.0 -115.7 Q67.1 -41.55 10.25 -66.5 -0.85 -47.25 -27.6 -45.2 -37.05 -45.3 -45.05 -48.9 L-47.7 -52.25 -49.2 -51.05 Q-58.5 -56.45 -65.7 -66.95 -111.25 -55.1 -110.5 -119.5 -70.25 -160.8 -61.25 -160.8 L-67.9 -160.1 Q-64.3 -163.9 -60.4 -166.75 -48.2 -171.7 -36.55 -173.1 -36.15 -169.75 -36.55 -165.85 -46.5 -165.65 -53.4 -163.05 -63.1 -159.4 -63.1 -154.2 -63.1 -149.65 -55.65 -146.2 -62.35 -141.6 -69.15 -134.6 -30.3 -168.65 8.6 -134.45 2.45 -141.6 -3.8 -146.35 3.4 -149.7 3.4 -154.2 3.4 -159.4 -6.35 -163.05 -14.2 -166.05 -24.7 -166.65 -23.85 -170.4 -23.45 -173.7 -6.2 -173.05 9.9 -164.55 M-2.45 -82.0 Q-5.55 -75.25 -7.95 -67.85 15.8 -84.55 40.85 -84.8 40.25 -90.45 39.3 -95.2 35.7 -112.6 26.6 -120.45 8.05 -104.8 -2.45 -82.0 M-52.4 -116.35 L-47.75 -123.75 -50.55 -132.3 -47.75 -123.75 -34.3 -145.5 -47.75 -123.75 -46.5 -119.85 -31.35 -140.6 -46.5 -119.85 -47.75 -123.75 -52.4 -116.35 M-39.85 -99.05 L-46.5 -119.85 -39.85 -99.05 M-87.6 -91.55 Q-88.6 -86.75 -89.15 -81.1 -64.15 -80.85 -40.35 -64.2 -42.75 -71.55 -45.9 -78.3 -56.35 -101.1 -74.9 -116.75 -84.05 -108.9 -87.6 -91.55" fill="url(#gradient25)" fill-rule="evenodd" stroke="none"/>
    <path d="M55.55 -56.15 L66.65 -65.5 Q52.05 -39.05 32.75 -12.6 L22.9 -19.0 55.55 -56.15 M-18.85 1.35 L-51.4 -25.5 -44.95 -29.55 -18.85 -8.2 -18.85 1.35 M39.3 -95.2 Q40.25 -90.45 40.85 -84.8 15.8 -84.55 -7.95 -67.85 -5.55 -75.25 -2.45 -82.0 17.95 -94.55 39.3 -95.2 M-45.9 -78.3 Q-42.75 -71.55 -40.35 -64.2 -64.15 -80.85 -89.15 -81.1 -88.6 -86.75 -87.6 -91.55 -66.3 -90.9 -45.9 -78.3" fill="#fcc176" fill-rule="evenodd" stroke="none"/>
    <path d="M63.0 -115.7 Q66.95 -106.65 70.05 -95.8 79.95 -56.4 53.2 -19.1 26.2 5.5 9.55 4.4 -24.5 31.65 -56.3 6.0 -101.95 -2.4 -115.85 -42.65 -118.7 -50.95 -120.25 -60.55 -121.95 -71.2 -122.0 -83.35 -121.75 -89.7 -120.25 -96.0 -118.7 -102.6 -115.85 -109.15 -113.6 -114.4 -110.5 -119.5 -111.25 -55.1 -65.7 -66.95 -58.5 -56.45 -49.2 -51.05 L-69.0 -35.35 -93.9 -56.15 -105.0 -65.5 Q-90.4 -39.05 -71.1 -12.6 L-61.25 -19.0 -51.4 -25.5 -18.85 1.35 13.05 -25.5 22.9 -19.0 32.75 -12.6 Q52.05 -39.05 66.65 -65.5 L55.55 -56.15 30.65 -35.35 9.35 -52.25 -19.2 -15.95 -45.05 -48.9 Q-37.05 -45.3 -27.6 -45.2 -0.85 -47.25 10.25 -66.5 67.1 -41.55 63.0 -115.7 M21.5 -6.9 Q15.5 -0.5 9.55 4.4 15.5 -0.5 21.5 -6.9 M-56.3 6.0 Q-62.35 1.15 -68.25 -5.6 -62.35 1.15 -56.3 6.0" fill="url(#gradient26)" fill-rule="evenodd" stroke="none"/>
    <path d="M55.55 -56.15 L22.9 -19.0 13.05 -25.5 6.6 -29.55 -18.85 -8.2 -44.95 -29.55 -51.4 -25.5 -61.25 -19.0 -93.9 -56.15 -69.0 -35.35 -49.2 -51.05 Q-47.15 -49.85 -45.05 -48.9 L-19.2 -15.95 9.35 -52.25 30.65 -35.35 55.55 -56.15 M39.3 -95.2 Q17.95 -94.55 -2.45 -82.0 8.05 -104.8 26.6 -120.45 35.7 -112.6 39.3 -95.2 M-87.6 -91.55 Q-84.05 -108.9 -74.9 -116.75 -56.35 -101.1 -45.9 -78.3 -66.3 -90.9 -87.6 -91.55" fill="#5d3701" fill-rule="evenodd" stroke="none"/>
    <path d="M13.05 -25.5 L-18.85 1.35 -18.85 -8.2 6.6 -29.55 13.05 -25.5 M-61.25 -19.0 L-71.1 -12.6 Q-90.4 -39.05 -105.0 -65.5 L-93.9 -56.15 -61.25 -19.0" fill="#d6a463" fill-rule="evenodd" stroke="none"/>
    <path d="M-39.9 -183.05 Q-41.2 -185.05 -42.9 -186.75 -42.2 -186.1 -40.8 -185.55 L-33.95 -185.25 Q-30.25 -185.9 -27.6 -187.7 -25.05 -189.5 -25.15 -191.4 L-25.15 -191.65 Q-23.65 -188.55 -23.2 -184.25 L-25.6 -182.4 -27.85 -169.6 -27.85 -183.05 Q-33.5 -180.85 -39.9 -183.05" fill="#5e451a" fill-rule="evenodd" stroke="none"/>
    <path d="M-42.9 -186.75 L-43.0 -186.85 Q-43.75 -187.7 -43.75 -188.65 -43.8 -190.8 -40.9 -192.55 -38.1 -194.35 -34.2 -194.75 L-27.85 -194.3 Q-25.45 -193.4 -25.15 -191.65 L-25.15 -191.4 Q-25.05 -189.5 -27.6 -187.7 -30.25 -185.9 -33.95 -185.25 L-40.8 -185.55 Q-42.2 -186.1 -42.9 -186.75" fill="#bc944e" fill-rule="evenodd" stroke="none"/>
    <path d="M-37.0 -176.05 Q-37.9 -179.85 -39.9 -183.05 -33.5 -180.85 -27.85 -183.05 L-27.85 -169.6 -25.6 -182.4 -23.2 -184.25 Q-22.85 -181.15 -23.05 -177.4 L-23.45 -173.7 Q-23.85 -170.4 -24.7 -166.65 -14.2 -166.05 -6.35 -163.05 3.4 -159.4 3.4 -154.2 3.4 -149.7 -3.8 -146.35 -28.65 -165.2 -55.65 -146.2 -63.1 -149.65 -63.1 -154.2 -63.1 -159.4 -53.4 -163.05 -46.5 -165.65 -36.55 -165.85 -36.15 -169.75 -36.55 -173.1 L-37.0 -176.05 M-25.6 -162.7 L-24.7 -166.65 -25.6 -162.7 M-37.95 -160.55 L-36.55 -165.85 -37.95 -160.55" fill="url(#gradient27)" fill-rule="evenodd" stroke="none"/>
    <path d="M9.9 -164.55 L12.95 -161.65 Q42.9 -155.15 59.65 -122.85 L63.0 -115.7 Q66.95 -106.65 70.05 -95.8 79.95 -56.4 53.2 -19.1 26.2 5.5 9.55 4.4 -24.5 31.65 -56.3 6.0 -101.95 -2.4 -115.85 -42.65 -118.7 -50.95 -120.25 -60.55 -121.95 -71.2 -122.0 -83.35 -121.75 -89.7 -120.25 -96.0 -118.7 -102.6 -115.85 -109.15 -113.6 -114.4 -110.5 -119.5 -100.85 -135.85 -82.95 -152.0 -75.3 -158.3 -67.9 -160.1 -64.3 -163.9 -60.4 -166.75 -49.65 -174.8 -37.0 -176.05 -37.9 -179.85 -39.9 -183.05 -41.2 -185.05 -42.9 -186.75 L-43.0 -186.85 Q-43.75 -187.7 -43.75 -188.65 -43.8 -190.8 -40.9 -192.55 -38.1 -194.35 -34.2 -194.75 L-27.85 -194.3 Q-25.45 -193.4 -25.15 -191.65 -23.65 -188.55 -23.2 -184.25 -22.85 -181.15 -23.05 -177.4 -4.55 -177.6 9.9 -164.55 M-23.45 -173.7 Q-23.85 -170.4 -24.7 -166.65 -14.2 -166.05 -6.35 -163.05 3.4 -159.4 3.4 -154.2 3.4 -149.7 -3.8 -146.35 2.45 -141.6 8.6 -134.45 M-69.15 -134.6 Q-62.35 -141.6 -55.65 -146.2 -63.1 -149.65 -63.1 -154.2 -63.1 -159.4 -53.4 -163.05 -46.5 -165.65 -36.55 -165.85 -36.15 -169.75 -36.55 -173.1 L-37.0 -176.05 M12.95 -161.65 L9.1 -162.35 M22.9 -19.0 L32.75 -12.6 Q52.05 -39.05 66.65 -65.5 L55.55 -56.15 30.65 -35.35 9.35 -52.25 -19.2 -15.95 -45.05 -48.9 -47.7 -52.25 -49.2 -51.05 -69.0 -35.35 -93.9 -56.15 -105.0 -65.5 Q-90.4 -39.05 -71.1 -12.6 L-61.25 -19.0 -51.4 -25.5 -18.85 1.35 13.05 -25.5 22.9 -19.0 M-61.25 -160.8 L-67.9 -160.1 M-2.45 -82.0 Q-5.55 -75.25 -7.95 -67.85 15.8 -84.55 40.85 -84.8 40.25 -90.45 39.3 -95.2 35.7 -112.6 26.6 -120.45 8.05 -104.8 -2.45 -82.0 M9.55 4.4 Q15.5 -0.5 21.5 -6.9 M-23.05 -177.4 L-23.45 -173.7 M-36.55 -165.85 L-37.95 -160.55 M-24.7 -166.65 L-25.6 -162.7 M-50.55 -132.3 L-47.75 -123.75 -34.3 -145.5 M-47.75 -123.75 L-46.5 -119.85 -31.35 -140.6 M-47.75 -123.75 L-52.4 -116.35 M-55.65 -146.2 Q-28.65 -165.2 -3.8 -146.35 M-46.5 -119.85 L-39.85 -99.05 M-45.9 -78.3 Q-42.75 -71.55 -40.35 -64.2 -64.15 -80.85 -89.15 -81.1 -88.6 -86.75 -87.6 -91.55 -84.05 -108.9 -74.9 -116.75 -56.35 -101.1 -45.9 -78.3 M-68.25 -5.6 Q-62.35 1.15 -56.3 6.0" ffdec:has-small-stroke="true" ffdec:original-stroke-width="0.1" fill="none" stroke="#000000" stroke-linecap="round" stroke-linejoin="round" stroke-opacity="0.29803923" stroke-width="1.0"/>
  </g>
  <defs>
    <radialGradient cx="0" cy="0" gradientTransform="matrix(0.5181, 0.0, -0.0783, 0.1539, -21.75, 127.05)" gradientUnits="userSpaceOnUse" id="gradient0" r="819.2" spreadMethod="pad">
      <stop offset="0.3607843137254902" stop-color="#000000" stop-opacity="0.54901963"/>
      <stop offset="0.803921568627451" stop-color="#000000" stop-opacity="0.0"/>
    </radialGradient>
    <radialGradient cx="0" cy="0" fx="-99.2" fy="0" gradientTransform="matrix(0.3126, 0.0, 0.0, 0.3126, 220.25, -181.8)" gradientUnits="userSpaceOnUse" id="gradient1" r="819.2" spreadMethod="pad">
      <stop offset="0.2784313725490196" stop-color="#42433a"/>
      <stop offset="0.9098039215686274" stop-color="#28231b" stop-opacity="0.9490196"/>
    </radialGradient>
    <linearGradient gradientTransform="matrix(0.0292, 0.0506, -0.0455, 0.0263, 82.75, -180.5)" gradientUnits="userSpaceOnUse" id="gradient2" spreadMethod="pad" x1="-819.2" x2="819.2">
      <stop offset="0.2784313725490196" stop-color="#76811f"/>
      <stop offset="0.9098039215686274" stop-color="#525319" stop-opacity="0.9490196"/>
    </linearGradient>
    <linearGradient gradientTransform="matrix(0.0536, 0.0144, -0.0139, 0.052, 139.8, -180.3)" gradientUnits="userSpaceOnUse" id="gradient3" spreadMethod="pad" x1="-819.2" x2="819.2">
      <stop offset="0.2784313725490196" stop-color="#76811f"/>
      <stop offset="0.9098039215686274" stop-color="#525319" stop-opacity="0.9490196"/>
    </linearGradient>
    <linearGradient gradientTransform="matrix(0.0681, 0.0393, -0.0213, 0.0368, 173.5, -151.5)" gradientUnits="userSpaceOnUse" id="gradient4" spreadMethod="pad" x1="-819.2" x2="819.2">
      <stop offset="0.2784313725490196" stop-color="#76811f"/>
      <stop offset="0.9098039215686274" stop-color="#525319" stop-opacity="0.9490196"/>
    </linearGradient>
    <linearGradient gradientTransform="matrix(0.0289, 0.0501, -0.0393, 0.0227, 31.45, -145.95)" gradientUnits="userSpaceOnUse" id="gradient5" spreadMethod="pad" x1="-819.2" x2="819.2">
      <stop offset="0.2784313725490196" stop-color="#76811f"/>
      <stop offset="0.9098039215686274" stop-color="#525319" stop-opacity="0.9490196"/>
    </linearGradient>
    <linearGradient gradientTransform="matrix(-0.0892, -0.0515, 0.0348, -0.0603, 47.25, 79.7)" gradientUnits="userSpaceOnUse" id="gradient6" spreadMethod="pad" x1="-819.2" x2="819.2">
      <stop offset="0.2784313725490196" stop-color="#76811f"/>
      <stop offset="0.9098039215686274" stop-color="#525319" stop-opacity="0.9490196"/>
    </linearGradient>
    <radialGradient cx="0" cy="0" gradientTransform="matrix(1.2961, 0.0, 0.0, 1.2961, -1230.3, -343.8)" gradientUnits="userSpaceOnUse" id="gradient7" r="819.2" spreadMethod="pad">
      <stop offset="0.2784313725490196" stop-color="#76811f"/>
      <stop offset="0.9098039215686274" stop-color="#525319"/>
    </radialGradient>
    <radialGradient cx="0" cy="0" gradientTransform="matrix(0.5159, 0.0, 0.0, 0.5159, -41.8, -163.45)" gradientUnits="userSpaceOnUse" id="gradient8" r="819.2" spreadMethod="pad">
      <stop offset="0.2784313725490196" stop-color="#76811f"/>
      <stop offset="0.9098039215686274" stop-color="#525319"/>
    </radialGradient>
    <radialGradient cx="0" cy="0" fx="-89.60000000000001" fy="0" gradientTransform="matrix(0.5992, 0.1602, -0.1602, 0.5992, -113.85, -51.8)" gradientUnits="userSpaceOnUse" id="gradient9" r="819.2" spreadMethod="pad">
      <stop offset="0.2784313725490196" stop-color="#42433a"/>
      <stop offset="0.9098039215686274" stop-color="#28231b" stop-opacity="0.9490196"/>
    </radialGradient>
    <radialGradient cx="0" cy="0" fx="41.6" fy="0" gradientTransform="matrix(0.1113, 0.0, 0.0, 0.0925, -205.6, -129.55)" gradientUnits="userSpaceOnUse" id="gradient10" r="819.2" spreadMethod="pad">
      <stop offset="0.2784313725490196" stop-color="#76811f"/>
      <stop offset="0.9098039215686274" stop-color="#525319" stop-opacity="0.9490196"/>
    </radialGradient>
    <radialGradient cx="0" cy="0" gradientTransform="matrix(0.5159, 0.0, 0.0, 0.5159, -41.8, -163.45)" gradientUnits="userSpaceOnUse" id="gradient11" r="819.2" spreadMethod="pad">
      <stop offset="0.2784313725490196" stop-color="#76811f"/>
      <stop offset="0.9098039215686274" stop-color="#525319" stop-opacity="0.9490196"/>
    </radialGradient>
    <linearGradient gradientTransform="matrix(0.0848, 0.1469, -0.0592, 0.0342, -99.65, 129.9)" gradientUnits="userSpaceOnUse" id="gradient12" spreadMethod="pad" x1="-819.2" x2="819.2">
      <stop offset="0.2784313725490196" stop-color="#76811f"/>
      <stop offset="0.9098039215686274" stop-color="#525319" stop-opacity="0.9490196"/>
    </linearGradient>
    <linearGradient gradientTransform="matrix(-0.0155, -0.0581, 0.0587, -0.0157, -57.2, 134.05)" gradientUnits="userSpaceOnUse" id="gradient13" spreadMethod="pad" x1="-819.2" x2="819.2">
      <stop offset="0.2784313725490196" stop-color="#76811f"/>
      <stop offset="0.9098039215686274" stop-color="#525319"/>
    </linearGradient>
    <linearGradient gradientTransform="matrix(0.0624, 0.1081, -0.0627, 0.0362, -248.4, 119.85)" gradientUnits="userSpaceOnUse" id="gradient14" spreadMethod="pad" x1="-819.2" x2="819.2">
      <stop offset="0.2784313725490196" stop-color="#76811f"/>
      <stop offset="0.9098039215686274" stop-color="#525319" stop-opacity="0.9490196"/>
    </linearGradient>
    <linearGradient gradientTransform="matrix(-1.0E-4, -0.1992, 0.1458, -1.0E-4, -334.6, 38.4)" gradientUnits="userSpaceOnUse" id="gradient15" spreadMethod="pad" x1="-819.2" x2="819.2">
      <stop offset="0.12549019607843137" stop-color="#000000" stop-opacity="0.64705884"/>
      <stop offset="0.5686274509803921" stop-color="#101010" stop-opacity="0.29803923"/>
    </linearGradient>
    <linearGradient gradientTransform="matrix(5.0E-4, 0.0, 0.0, 7.0E-4, -104.85, -29.85)" gradientUnits="userSpaceOnUse" id="gradient16" spreadMethod="pad" x1="-819.2" x2="819.2">
      <stop offset="0.15294117647058825" stop-color="#000000" stop-opacity="0.8"/>
      <stop offset="0.9058823529411765" stop-color="#101010" stop-opacity="0.29803923"/>
    </linearGradient>
    <radialGradient cx="0" cy="0" gradientTransform="matrix(0.133, 0.0, 0.0, 0.133, 109.0, -278.9)" gradientUnits="userSpaceOnUse" id="gradient17" r="819.2" spreadMethod="pad">
      <stop offset="0.2549019607843137" stop-color="#2a4533"/>
      <stop offset="0.7568627450980392" stop-color="#131c16"/>
    </radialGradient>
    <radialGradient cx="0" cy="0" gradientTransform="matrix(0.0832, 0.0, 0.0, 0.0832, 97.55, -300.85)" gradientUnits="userSpaceOnUse" id="gradient18" r="819.2" spreadMethod="pad">
      <stop offset="0.3607843137254902" stop-color="#528c66"/>
      <stop offset="0.803921568627451" stop-color="#2a4533"/>
    </radialGradient>
    <radialGradient cx="0" cy="0" gradientTransform="matrix(0.1416, 0.0, 0.0, 0.1416, -27.85, -251.15)" gradientUnits="userSpaceOnUse" id="gradient19" r="819.2" spreadMethod="pad">
      <stop offset="0.3607843137254902" stop-color="#528c66"/>
      <stop offset="0.803921568627451" stop-color="#2a4533"/>
    </radialGradient>
    <radialGradient cx="0" cy="0" gradientTransform="matrix(0.1533, 0.0, 0.0, 0.1533, -10.5, -213.8)" gradientUnits="userSpaceOnUse" id="gradient20" r="819.2" spreadMethod="pad">
      <stop offset="0.2549019607843137" stop-color="#2a4533"/>
      <stop offset="0.7568627450980392" stop-color="#131c16"/>
    </radialGradient>
    <radialGradient cx="0" cy="0" gradientTransform="matrix(0.0202, 0.0, 0.0, 0.0202, -220.15, -47.55)" gradientUnits="userSpaceOnUse" id="gradient21" r="819.2" spreadMethod="pad">
      <stop offset="0.3607843137254902" stop-color="#528c66"/>
      <stop offset="0.803921568627451" stop-color="#2a4533"/>
    </radialGradient>
    <radialGradient cx="0" cy="0" gradientTransform="matrix(0.2189, 0.0, 0.0, 0.1318, -157.3, -7.15)" gradientUnits="userSpaceOnUse" id="gradient22" r="819.2" spreadMethod="pad">
      <stop offset="0.2549019607843137" stop-color="#2a4533"/>
      <stop offset="0.7568627450980392" stop-color="#131c16"/>
    </radialGradient>
    <radialGradient cx="0" cy="0" fx="-310.40000000000003" fy="0" gradientTransform="matrix(0.162, 0.0, 0.0, 0.162, -170.7, -24.35)" gradientUnits="userSpaceOnUse" id="gradient23" r="819.2" spreadMethod="pad">
      <stop offset="0.3607843137254902" stop-color="#528c66"/>
      <stop offset="0.803921568627451" stop-color="#2a4533"/>
    </radialGradient>
    <radialGradient cx="0" cy="0" fx="-310.40000000000003" fy="0" gradientTransform="matrix(0.1418, 0.0, 0.0, 0.1418, -94.05, 69.35)" gradientUnits="userSpaceOnUse" id="gradient24" r="819.2" spreadMethod="pad">
      <stop offset="0.3607843137254902" stop-color="#528c66"/>
      <stop offset="0.803921568627451" stop-color="#2a4533"/>
    </radialGradient>
    <radialGradient cx="0" cy="0" gradientTransform="matrix(0.2726, 0.0, 0.0, 0.2726, -25.15, -191.7)" gradientUnits="userSpaceOnUse" id="gradient25" r="819.2" spreadMethod="pad">
      <stop offset="0.2784313725490196" stop-color="#ff8f09"/>
      <stop offset="0.9098039215686274" stop-color="#d46b0e" stop-opacity="0.9490196"/>
    </radialGradient>
    <radialGradient cx="0" cy="0" gradientTransform="matrix(0.332, 0.0, 0.0, 0.332, -25.15, -191.65)" gradientUnits="userSpaceOnUse" id="gradient26" r="819.2" spreadMethod="pad">
      <stop offset="0.49411764705882355" stop-color="#d46b0e"/>
      <stop offset="0.7411764705882353" stop-color="#b94d12"/>
    </radialGradient>
    <radialGradient cx="0" cy="0" gradientTransform="matrix(0.0871, 0.0, 0.0, 0.0871, -27.7, -144.9)" gradientUnits="userSpaceOnUse" id="gradient27" r="819.2" spreadMethod="pad">
      <stop offset="0.0" stop-color="#7e5f29"/>
      <stop offset="0.9058823529411765" stop-color="#5e451a"/>
    </radialGradient>
  </defs>
</svg>
