<?xml version="1.0" encoding="UTF-8" standalone="no"?>
<svg xmlns:ffdec="https://www.free-decompiler.com/flash" xmlns:xlink="http://www.w3.org/1999/xlink" ffdec:objectType="frame" height="37.730000000000004px" width="40.15px" xmlns="http://www.w3.org/2000/svg">
  <g transform="matrix(1.1, 0.0, 0.0, 1.1, 19.965, 35.86)">
    <use ffdec:characterId="3" height="6.2" transform="matrix(1.0, 0.0, 0.0, 1.0, 12.5, -13.5)" width="7.65" xlink:href="#sprite0"/>
    <use ffdec:characterId="5" height="34.3" transform="matrix(1.0, 0.0, 0.0, 1.0, 2.35, -9.6)" width="28.3" xlink:href="#sprite1"/>
    <use ffdec:characterId="7" height="5.85" transform="matrix(1.0, 0.0, 0.0, 1.0, -9.9, -7.85)" width="9.5" xlink:href="#sprite2"/>
  </g>
  <defs>
    <g id="sprite0">
      <use ffdec:characterId="2" height="6.2" transform="matrix(1.0, 0.0, 0.0, 1.0, 0.0, 0.0)" width="7.65" xlink:href="#shape0"/>
    </g>
    <g id="shape0">
      <path d="M4.1 -2.45 L3.65 -0.75 1.9 -4.2 3.5 -4.15 4.1 -2.45" fill="#a2d8c4" fill-rule="evenodd" stroke="none"/>
      <path d="M4.1 -2.45 L4.55 -4.5 5.85 -3.35 5.35 -0.75 5.15 -0.35 5.6 1.35 4.25 1.1 3.65 -0.75 4.1 -2.45" fill="#b2dfce" fill-rule="evenodd" stroke="none"/>
      <path d="M3.65 -0.75 L4.25 1.1 5.6 1.35 5.15 -0.35 5.35 -0.75 5.85 -3.35 4.55 -4.5 4.1 -2.45 3.5 -4.15 1.9 -4.2 3.65 -0.75 Z" ffdec:has-small-stroke="true" ffdec:original-stroke-width="0.05500000000000001" fill="none" stroke="#000000" stroke-linecap="round" stroke-linejoin="round" stroke-opacity="0.3019608" stroke-width="0.9090909090909091"/>
      <path d="M2.0 -1.65 L3.3 -1.8 4.15 -0.25 -0.1 1.7 Q-1.25 1.35 -1.8 0.85 L2.0 -1.65" fill="#b2dfce" fill-rule="evenodd" stroke="none"/>
      <path d="M-1.8 0.85 L-1.1 -1.15 2.0 -1.65 -1.8 0.85" fill="#ffffff" fill-rule="evenodd" stroke="none"/>
      <path d="M2.0 -1.65 L3.3 -1.8 M4.15 -0.25 L-0.1 1.7 M-1.1 -1.15 L2.0 -1.65" ffdec:has-small-stroke="true" ffdec:original-stroke-width="0.05500000000000001" fill="none" stroke="#000000" stroke-linecap="round" stroke-linejoin="round" stroke-opacity="0.3019608" stroke-width="0.9090909090909091"/>
    </g>
    <g id="sprite1">
      <use ffdec:characterId="4" height="34.3" transform="matrix(1.0, 0.0, 0.0, 1.0, 0.0, 0.0)" width="28.3" xlink:href="#shape1"/>
    </g>
    <g id="shape1">
      <path d="M4.55 -17.5 L4.55 -17.55 9.15 -14.15 10.15 -8.95 10.35 -8.65 11.0 -7.0 Q11.7 -4.9 11.55 -2.45 11.25 2.85 7.3 6.6 L5.3 8.2 5.0 8.4 Q1.85 10.35 -1.95 10.4 -7.25 10.35 -10.8 6.6 -13.7 3.55 -14.1 -0.45 L-14.1 -0.7 -16.25 -3.85 -12.55 -11.75 -9.75 -9.85 -11.0 -15.4 -6.9 -22.8 -6.75 -22.8 -5.4 -19.25 0.85 -16.25 2.7 -12.35 4.55 -17.5" fill="url(#gradient0)" fill-rule="evenodd" stroke="none"/>
      <path d="M10.15 -8.95 L10.35 -8.65 11.0 -7.0 Q11.7 -4.9 11.55 -2.45 11.25 2.85 7.3 6.6 L5.3 8.2 M5.0 8.4 Q1.85 10.35 -1.95 10.4 -7.25 10.35 -10.8 6.6 -13.7 3.55 -14.1 -0.45 L-14.1 -0.7" ffdec:has-small-stroke="true" ffdec:original-stroke-width="0.05500000000000001" fill="none" stroke="#000000" stroke-linecap="round" stroke-linejoin="round" stroke-opacity="0.3019608" stroke-width="0.9090909090909091"/>
      <path d="M4.55 -17.5 L4.55 -17.55" ffdec:has-small-stroke="true" ffdec:original-stroke-width="0.05500000000000001" fill="none" stroke="#3c554d" stroke-linecap="round" stroke-linejoin="round" stroke-width="0.9090909090909091"/>
      <path d="M4.7 -10.45 L2.65 -12.45 4.55 -17.6 4.7 -10.45 M-6.55 -22.15 L-7.95 -16.15 -6.6 -8.7 -9.8 -9.95 -11.05 -15.5 -6.85 -23.0 -6.55 -22.15" fill="#852f05" fill-opacity="0.3019608" fill-rule="evenodd" stroke="none"/>
      <path d="M-12.95 -6.95 L-11.0 -1.2 -11.15 -1.1 -9.6 -1.35 -8.45 2.85 -2.75 7.45 4.95 8.3 Q1.8 10.25 -2.05 10.3 -7.35 10.25 -10.85 6.5 -13.75 3.45 -14.15 -0.55 L-14.0 -0.6 -16.3 -3.95 -12.6 -11.85 -12.95 -6.95" fill="#521803" fill-opacity="0.4" fill-rule="evenodd" stroke="none"/>
      <path d="M2.7 -10.4 L0.1 -14.55 -5.2 -17.4 -5.45 -19.2 0.85 -16.2 2.7 -12.3 2.7 -10.4 M-6.55 -8.55 L-10.4 -8.85 -12.55 -11.7 -9.75 -9.8 -6.55 -8.55 M4.55 -17.45 L4.55 -17.5 9.15 -14.1 10.25 -8.55 8.15 -13.4 4.55 -17.45" fill="#87fbff" fill-opacity="0.3019608" fill-rule="evenodd" stroke="none"/>
      <path d="M3.3 -0.15 Q3.05 -5.3 -0.95 -10.85 5.25 -6.25 3.3 -0.15 M5.0 -0.8 Q6.9 -5.0 5.2 -9.55 9.5 -5.75 5.0 -0.8" fill="#852f05" fill-opacity="0.3019608" fill-rule="evenodd" stroke="none"/>
      <path d="M10.7 1.9 L12.0 5.55 7.95 5.8 10.7 1.9 M7.95 5.8 L6.4 10.2 2.0 8.1 -0.65 11.3 -4.2 7.3 -8.25 8.95 -8.5 4.3 -4.2 7.3 2.0 8.1 7.95 5.8" fill="#fef7e0" fill-rule="evenodd" stroke="none"/>
      <path d="M7.95 5.8 L12.0 5.55 10.7 1.9 M7.95 5.8 L6.4 10.2 2.0 8.1 -0.65 11.3 -4.2 7.3 -8.25 8.95 -8.5 4.3" ffdec:has-small-stroke="true" ffdec:original-stroke-width="0.05500000000000001" fill="none" stroke="#3c554d" stroke-linecap="round" stroke-linejoin="round" stroke-width="0.9090909090909091"/>
      <path d="M10.6 -3.9 Q11.35 -4.25 11.65 -2.2 12.05 -0.15 10.9 1.4 9.15 3.95 6.75 3.95 4.0 4.05 4.6 2.25 5.4 0.5 7.15 -1.2 8.95 -3.05 10.6 -3.9" fill="#5cad95" fill-rule="evenodd" stroke="none"/>
      <path d="M10.6 -3.9 Q8.95 -3.05 7.15 -1.2 5.4 0.5 4.6 2.25 4.0 4.05 6.75 3.95 9.15 3.95 10.9 1.4 12.05 -0.15 11.65 -2.2 11.35 -4.25 10.6 -3.9 Z" ffdec:has-small-stroke="true" ffdec:original-stroke-width="0.05500000000000001" fill="none" stroke="#000000" stroke-linecap="round" stroke-linejoin="round" stroke-opacity="0.3019608" stroke-width="0.9090909090909091"/>
      <path d="M-1.35 -0.4 Q1.4 0.75 2.9 2.4 4.25 4.15 0.7 5.4 -2.3 6.5 -5.35 4.4 -7.15 3.15 -7.35 0.6 -7.5 -1.9 -6.55 -1.8 -4.15 -1.6 -1.35 -0.4" fill="#5cad95" fill-rule="evenodd" stroke="none"/>
      <path d="M-1.35 -0.4 Q1.4 0.75 2.9 2.4 4.25 4.15 0.7 5.4 -2.3 6.5 -5.35 4.4 -7.15 3.15 -7.35 0.6 -7.5 -1.9 -6.55 -1.8 -4.15 -1.6 -1.35 -0.4 Z" ffdec:has-small-stroke="true" ffdec:original-stroke-width="0.05500000000000001" fill="none" stroke="#000000" stroke-linecap="round" stroke-linejoin="round" stroke-opacity="0.3019608" stroke-width="0.9090909090909091"/>
      <path d="M7.75 -0.7 L8.3 -0.95 8.85 -0.85 9.1 -0.5 8.85 0.0 8.3 0.25 7.75 0.15 7.5 -0.25 7.75 -0.7" fill="#ffffff" fill-rule="evenodd" stroke="none"/>
      <path d="M-1.75 1.0 Q-1.4 1.0 -1.2 1.25 L-0.95 1.7 -1.2 2.1 -1.75 2.2 -2.3 1.95 -2.55 1.45 -2.3 1.1 -1.75 1.0" fill="#ffffff" fill-rule="evenodd" stroke="none"/>
      <path d="M2.8 -3.7 L1.8 -1.05 0.25 -1.05 -4.35 -5.15 -3.95 -5.9 1.4 -1.8 2.8 -3.7 M-3.8 -8.75 L-6.35 -4.75 -7.45 -1.8 -8.05 -2.35 -7.25 -5.2 -3.8 -8.75" fill="#3c554d" fill-rule="evenodd" stroke="none"/>
      <path d="M2.8 -3.7 L3.25 -0.3 2.55 2.5 Q-5.05 -0.1 -7.45 -1.8 L-6.35 -4.75 -3.8 -8.75 -3.95 -5.9 -4.35 -5.15 0.25 -1.05 1.8 -1.05 2.8 -3.7" fill="#4e6f64" fill-rule="evenodd" stroke="none"/>
      <path d="M8.6 -9.6 L11.3 -7.65 12.0 -5.15 Q12.2 -3.4 5.35 1.35 L4.55 0.0 4.7 -3.1 5.85 -2.0 5.8 -0.85 8.25 -3.2 9.95 -6.4 8.6 -9.6" fill="#4e6f64" fill-rule="evenodd" stroke="none"/>
      <path d="M5.85 -2.0 L9.0 -6.15 8.6 -9.6 9.95 -6.4 8.25 -3.2 5.8 -0.85 5.85 -2.0 M5.35 1.35 L4.25 2.1 3.85 0.25 4.7 -3.1 4.55 0.0 5.35 1.35" fill="#3c554d" fill-rule="evenodd" stroke="none"/>
    </g>
    <radialGradient cx="0" cy="0" gradientTransform="matrix(-0.0303, 0.0, -0.0016, 0.0303, 3.3, -0.8)" gradientUnits="userSpaceOnUse" id="gradient0" r="819.2" spreadMethod="pad">
      <stop offset="0.0" stop-color="#ffffff"/>
      <stop offset="0.4549019607843137" stop-color="#c6e8db"/>
      <stop offset="1.0" stop-color="#8aceb5"/>
    </radialGradient>
    <g id="sprite2">
      <use ffdec:characterId="6" height="5.85" transform="matrix(1.0, 0.0, 0.0, 1.0, 0.0, 0.0)" width="9.5" xlink:href="#shape2"/>
    </g>
    <g id="shape2">
      <path d="M-3.25 -0.6 L-0.25 -1.5 1.25 0.0 -3.25 -0.6" fill="#ffffff" fill-rule="evenodd" stroke="none"/>
      <path d="M-4.45 -0.2 L-3.25 -0.6 1.25 0.0 0.1 1.5 -4.55 1.55 -4.45 -0.2" fill="#b2dfce" fill-rule="evenodd" stroke="none"/>
      <path d="M-4.45 -0.2 L-3.25 -0.6 -0.25 -1.5 M0.1 1.5 L-4.55 1.55" ffdec:has-small-stroke="true" ffdec:original-stroke-width="0.05500000000000001" fill="none" stroke="#000000" stroke-linecap="round" stroke-linejoin="round" stroke-opacity="0.3019608" stroke-width="0.9090909090909091"/>
      <path d="M-4.5 3.3 L-3.65 1.1 -5.15 -2.15 -4.3 -1.9 -3.6 0.65 -3.65 1.1 -3.85 3.1 -4.5 3.3" fill="#ffffff" fill-rule="evenodd" stroke="none"/>
      <path d="M-5.5 -0.3 L-5.15 1.4 -8.25 -0.95 -6.8 -1.6 -5.5 -0.3" fill="#a2d8c4" fill-rule="evenodd" stroke="none"/>
      <path d="M-5.5 -0.3 L-6.0 -2.35 -5.15 -2.15 -3.65 1.1 -4.5 3.3 -5.15 3.5 -5.15 1.4 -5.5 -0.3" fill="#b2dfce" fill-rule="evenodd" stroke="none"/>
      <path d="M-5.15 -2.15 L-6.0 -2.35 -5.5 -0.3 -6.8 -1.6 -8.25 -0.95 -5.15 1.4 -5.15 3.5 -4.5 3.3 -3.85 3.1 -3.65 1.1 -3.6 0.65 -4.3 -1.9 -5.15 -2.15 Z" ffdec:has-small-stroke="true" ffdec:original-stroke-width="0.05500000000000001" fill="none" stroke="#000000" stroke-linecap="round" stroke-linejoin="round" stroke-opacity="0.3019608" stroke-width="0.9090909090909091"/>
    </g>
  </defs>
</svg>
