<?xml version="1.0" encoding="UTF-8" standalone="no"?>
<svg xmlns:ffdec="https://www.free-decompiler.com/flash" xmlns:xlink="http://www.w3.org/1999/xlink" ffdec:objectType="frame" height="400.0px" width="400.0px" xmlns="http://www.w3.org/2000/svg">
  <g transform="matrix(2.0, 0.0, 0.0, 2.0, 0.0, 0.0)">
    <use ffdec:characterId="39" height="277.6" transform="matrix(-0.4867, 0.0, 0.0, 0.4867, 197.15, -0.85)" width="211.75" xlink:href="#sprite0"/>
    <use ffdec:characterId="40" height="221.0" transform="matrix(1.0, 0.0, 0.0, 1.0, 0.0, 0.0)" width="221.0" xlink:href="#shape38"/>
    <use ffdec:characterId="42" height="40.0" id="_mcMask" transform="matrix(0.8856, 0.0, 0.0, 0.8856, 37.95, 29.9)" width="100.0" xlink:href="#sprite33"/>
  </g>
  <defs>
    <g id="sprite0">
      <use ffdec:characterId="3" height="21.05" transform="matrix(2.1111, 0.0, 0.0, 1.3188, 178.7, 309.55)" width="94.2" xlink:href="#sprite1"/>
      <use ffdec:characterId="4" height="261.75" transform="matrix(1.0, 0.0, 0.0, 1.0, 0.0, 0.0)" width="130.5" xlink:href="#shape2"/>
      <use ffdec:characterId="6" height="21.05" transform="matrix(0.0702, 1.0614, 1.0614, -0.0702, 210.9, 198.35)" width="12.4" xlink:href="#sprite4"/>
      <use ffdec:characterId="7" height="143.95" transform="matrix(1.0, 0.0, 0.0, 1.0, 0.0, 0.0)" width="73.3" xlink:href="#shape4"/>
      <use ffdec:characterId="6" height="21.05" transform="matrix(-0.5135, -2.5237, -1.1841, 0.0509, 182.5, 288.05)" width="12.4" xlink:href="#sprite5"/>
      <use ffdec:characterId="9" height="16.95" transform="matrix(-5.2141, -0.205, 0.0856, -2.1763, 202.65, 306.5)" width="13.2" xlink:href="#sprite6"/>
      <use ffdec:characterId="6" height="21.05" transform="matrix(1.0, 0.0, 0.0, 1.0, 191.0, 220.4)" width="12.4" xlink:href="#sprite7"/>
      <use ffdec:characterId="6" height="21.05" transform="matrix(1.0, 0.0, 0.0, 1.0, 167.1, 182.3)" width="12.4" xlink:href="#sprite8"/>
      <use ffdec:characterId="6" height="21.05" transform="matrix(0.1227, -2.8553, -2.4318, -0.1045, 187.5, 302.4)" width="12.4" xlink:href="#sprite9"/>
      <use ffdec:characterId="6" height="21.05" transform="matrix(0.4725, -0.9557, -0.9557, -0.4725, 194.45, 293.0)" width="12.4" xlink:href="#sprite10"/>
      <use ffdec:characterId="6" height="21.05" transform="matrix(0.0653, -1.5198, 1.5336, 0.0659, 239.15, 299.0)" width="12.4" xlink:href="#sprite11"/>
      <use ffdec:characterId="6" height="21.05" transform="matrix(-0.0123, -1.5855, 2.3803, 0.1541, 236.95, 307.7)" width="12.4" xlink:href="#sprite12"/>
      <use ffdec:characterId="12" height="8.3" transform="matrix(-3.3956, 0.4153, -0.473, 1.6478, 164.8, 180.7)" width="10.3" xlink:href="#sprite13"/>
      <use ffdec:characterId="13" height="12.3" transform="matrix(1.0, 0.0, 0.0, 1.0, 0.0, 0.0)" width="12.6" xlink:href="#shape14"/>
      <use ffdec:characterId="15" height="5.35" transform="matrix(-0.6397, 2.6157, 2.6157, 0.6397, 211.95, 143.75)" width="4.3" xlink:href="#sprite15"/>
      <use ffdec:characterId="16" height="12.1" transform="matrix(1.0, 0.0, 0.0, 1.0, 0.0, 0.0)" width="14.95" xlink:href="#shape16"/>
      <use ffdec:characterId="11" height="10.8" transform="matrix(-2.53, 0.9498, 0.9498, 2.53, 198.25, 168.25)" width="8.85" xlink:href="#sprite16"/>
      <use ffdec:characterId="18" height="7.25" transform="matrix(4.8626, 0.0, 0.0, 4.8626, 188.0, 170.8)" width="6.9" xlink:href="#sprite17"/>
      <use ffdec:characterId="11" height="10.8" transform="matrix(-2.5377, 0.9389, 0.9389, 2.5377, 179.3, 177.8)" width="8.85" xlink:href="#sprite18"/>
      <use ffdec:characterId="20" height="3.05" transform="matrix(3.2219, -4.6681, 4.2274, 2.3735, 194.75, 132.6)" width="10.3" xlink:href="#sprite19"/>
      <use ffdec:characterId="22" height="9.4" transform="matrix(2.2203, -0.1526, 0.3228, 2.0059, 192.7, 163.15)" width="9.2" xlink:href="#sprite20"/>
      <use ffdec:characterId="24" height="9.85" transform="matrix(-2.6297, -0.9338, -0.9338, 2.6297, 241.3, 93.2)" width="19.15" xlink:href="#sprite21"/>
      <use ffdec:characterId="26" height="15.75" transform="matrix(3.9759, 1.0653, -1.0653, 3.9759, 273.8, 109.25)" width="1.55" xlink:href="#sprite22"/>
      <use ffdec:characterId="27" height="12.0" transform="matrix(-4.1161, 0.0, 0.0, 4.1161, 229.35, 86.8)" width="20.35" xlink:href="#shape24"/>
      <use ffdec:characterId="24" height="9.85" transform="matrix(-2.7917, -0.0239, -0.0239, 2.7917, 222.15, 88.85)" width="19.15" xlink:href="#sprite21"/>
      <use ffdec:characterId="26" height="15.75" transform="matrix(-3.872, 1.3929, 1.2441, 3.4582, 264.35, 114.15)" width="1.55" xlink:href="#sprite22"/>
      <use ffdec:characterId="29" height="59.25" transform="matrix(0.48, -0.1541, 0.1541, 0.48, 205.65, 180.25)" width="27.75" xlink:href="#sprite23"/>
      <use ffdec:characterId="29" height="59.25" transform="matrix(0.4485, 0.2313, -0.2313, 0.4485, 193.35, 182.1)" width="27.75" xlink:href="#sprite24"/>
      <use ffdec:characterId="30" height="21.4" transform="matrix(1.0, 0.0, 0.0, 1.0, 0.0, 0.0)" width="21.4" xlink:href="#shape27"/>
      <use ffdec:characterId="32" height="13.8" transform="matrix(-0.6397, 2.6157, 2.6157, 0.6397, 199.75, 151.2)" width="9.65" xlink:href="#sprite25"/>
      <use ffdec:characterId="33" height="5.3" transform="matrix(1.0, 0.0, 0.0, 1.0, 0.0, 0.0)" width="9.5" xlink:href="#shape29"/>
      <use ffdec:characterId="35" height="13.05" transform="matrix(-0.3154, 0.7627, -0.7627, -0.3154, 234.3, 155.25)" width="15.25" xlink:href="#sprite26"/>
      <use ffdec:characterId="6" height="21.05" transform="matrix(-0.079, 0.9966, -0.9966, -0.079, 198.75, 126.1)" width="12.4" xlink:href="#sprite27"/>
      <use ffdec:characterId="6" height="21.05" transform="matrix(-0.56, 0.8265, -0.8265, -0.56, 199.0, 118.7)" width="12.4" xlink:href="#sprite28"/>
      <use ffdec:characterId="6" height="21.05" transform="matrix(-0.56, 0.8265, -0.8265, -0.56, 168.9, 83.1)" width="12.4" xlink:href="#sprite29"/>
      <use ffdec:characterId="6" height="21.05" transform="matrix(-0.513, 0.2767, -0.2767, -0.513, 193.3, 68.55)" width="12.4" xlink:href="#sprite30"/>
      <use ffdec:characterId="36" height="10.6" transform="matrix(1.0, 0.0, 0.0, 1.0, 0.0, 0.0)" width="12.85" xlink:href="#shape35"/>
      <use ffdec:characterId="38" height="97.0" transform="matrix(-0.3133, 0.2243, -0.2086, -0.2913, 216.55, 149.35)" width="97.0" xlink:href="#sprite31"/>
      <use ffdec:characterId="38" height="97.0" transform="matrix(0.6778, 0.2812, -0.1376, 0.3318, 235.0, 105.55)" width="97.0" xlink:href="#sprite31"/>
      <use ffdec:characterId="38" height="97.0" transform="matrix(-0.3133, 0.2243, -0.2086, -0.2913, 216.55, 149.35)" width="97.0" xlink:href="#sprite31"/>
      <use ffdec:characterId="38" height="97.0" transform="matrix(-0.3302, 0.2365, -0.2198, -0.3071, 197.0, 183.65)" width="97.0" xlink:href="#sprite32"/>
      <use ffdec:characterId="38" height="97.0" transform="matrix(-0.2294, 0.1643, -0.1527, -0.2133, 172.7, 173.05)" width="97.0" xlink:href="#sprite31"/>
      <use ffdec:characterId="38" height="97.0" transform="matrix(-0.6834, -0.1931, 0.2788, -0.9868, 237.9, 267.2)" width="97.0" xlink:href="#sprite31"/>
    </g>
    <g id="sprite1">
      <use ffdec:characterId="2" height="48.3" transform="matrix(1.9322, 0.0, 0.0, 0.4121, 0.0, 0.0)" width="48.3" xlink:href="#sprite2"/>
      <use ffdec:characterId="2" height="48.3" transform="matrix(0.5766, 0.0, 0.0, 0.3444, 21.3, 1.8)" width="48.3" xlink:href="#sprite2"/>
      <use ffdec:characterId="2" height="48.3" transform="matrix(0.5766, 0.0, 0.0, 0.3444, 17.45, 1.8)" width="48.3" xlink:href="#sprite2"/>
      <use ffdec:characterId="2" height="48.3" transform="matrix(0.5766, 0.0, 0.0, 0.3444, 10.1, -1.65)" width="48.3" xlink:href="#sprite2"/>
      <use ffdec:characterId="2" height="48.3" transform="matrix(0.5766, 0.0, 0.0, 0.3444, 33.65, 1.8)" width="48.3" xlink:href="#sprite3"/>
      <use ffdec:characterId="2" height="48.3" transform="matrix(0.5766, 0.0, 0.0, 0.3444, 30.45, 2.8)" width="48.3" xlink:href="#sprite3"/>
      <use ffdec:characterId="2" height="48.3" transform="matrix(0.5766, 0.0, 0.0, 0.3444, -2.7, 1.8)" width="48.3" xlink:href="#sprite3"/>
    </g>
    <g id="sprite2">
      <use ffdec:characterId="1" height="48.3" transform="matrix(1.0, 0.0, 0.0, 1.0, 0.0, 0.0)" width="48.3" xlink:href="#shape0"/>
    </g>
    <g id="shape0">
      <path d="M-17.1 -17.1 Q-10.0 -24.15 0.0 -24.15 10.0 -24.15 17.05 -17.1 24.15 -10.0 24.15 0.0 24.15 10.0 17.05 17.05 10.0 24.15 0.0 24.15 -10.0 24.15 -17.1 17.05 -24.15 10.0 -24.15 0.0 -24.15 -10.0 -17.1 -17.1" fill="url(#gradient0)" fill-rule="evenodd" stroke="none"/>
    </g>
    <radialGradient cx="0" cy="0" gradientTransform="matrix(0.0306, 0.0, 0.0, 0.0306, 0.0, 0.0)" gradientUnits="userSpaceOnUse" id="gradient0" r="819.2" spreadMethod="pad">
      <stop offset="0.0" stop-color="#91b600" stop-opacity="0.44705883"/>
      <stop offset="1.0" stop-color="#8fb500" stop-opacity="0.0"/>
    </radialGradient>
    <g id="sprite3">
      <use ffdec:characterId="1" height="48.3" transform="matrix(1.0, 0.0, 0.0, 1.0, 0.0, 0.0)" width="48.3" xlink:href="#shape1"/>
    </g>
    <g id="shape1">
      <path d="M-17.1 -17.1 Q-10.0 -24.15 0.0 -24.15 10.0 -24.15 17.05 -17.1 24.15 -10.0 24.15 0.0 24.15 10.0 17.05 17.05 10.0 24.15 0.0 24.15 -10.0 24.15 -17.1 17.05 -24.15 10.0 -24.15 0.0 -24.15 -10.0 -17.1 -17.1" fill="url(#gradient1)" fill-rule="evenodd" stroke="none"/>
    </g>
    <radialGradient cx="0" cy="0" gradientTransform="matrix(0.0306, 0.0, 0.0, 0.0306, 0.0, 0.0)" gradientUnits="userSpaceOnUse" id="gradient1" r="819.2" spreadMethod="pad">
      <stop offset="0.0" stop-color="#91b600" stop-opacity="0.11372549"/>
      <stop offset="1.0" stop-color="#8fb500" stop-opacity="0.0"/>
    </radialGradient>
    <g id="shape2">
      <path d="M210.6 141.4 L209.95 142.3 206.85 140.4 200.5 139.25 202.85 137.9 198.65 135.3 Q197.45 136.85 196.4 138.55 L195.65 139.6 194.65 141.35 195.05 141.65 204.2 148.65 204.4 148.75 207.2 147.85 207.2 147.75 207.25 147.55 206.6 145.4 207.35 142.95 208.65 143.55 208.7 143.55 208.25 144.6 208.3 144.65 Q209.0 143.35 210.1 142.25 L210.5 141.9 210.6 141.4" fill="none" stroke="#427738" stroke-linecap="round" stroke-linejoin="round" stroke-opacity="0.5411765" stroke-width="3.0"/>
      <path d="M225.85 140.5 L227.65 140.8 Q229.25 141.45 229.65 142.8 L228.15 144.55 228.25 145.1 Q229.6 144.95 230.8 145.85 L231.25 144.95 233.1 144.75 233.95 146.8 232.5 147.6 232.4 147.65 Q235.1 148.2 238.2 150.95 L238.15 150.95 Q238.9 156.05 236.9 162.65 L236.7 162.9 Q231.85 158.65 229.7 154.15 229.65 150.95 231.5 147.95 L231.4 147.95 228.35 148.85 228.4 149.85 Q228.4 154.3 225.25 157.4 222.15 160.55 217.7 160.55 213.9 160.55 211.1 158.3 L208.75 157.45 206.7 157.95 205.25 153.95 204.95 154.0 203.05 154.25 202.9 154.2 Q201.2 154.2 199.55 153.45 L197.4 152.15 193.4 148.95 192.9 148.7 196.95 148.05 195.35 146.4 Q194.15 145.45 192.8 144.95 191.9 146.85 191.15 148.9 L190.35 150.85 189.7 153.05 191.65 153.8 194.2 154.95 Q195.9 155.6 197.6 156.7 199.95 158.15 201.55 159.95 L204.65 161.95 210.65 173.15 210.55 173.2 Q211.7 175.8 212.45 178.9 213.5 183.65 212.65 189.55 212.5 190.8 213.1 192.2 L213.1 192.25 214.3 192.35 221.7 197.45 216.05 196.95 222.4 203.0 222.05 204.15 216.8 200.2 215.0 200.05 215.25 200.3 Q223.0 207.05 233.25 212.9 L248.45 234.05 247.8 236.3 Q254.2 245.95 253.7 258.75 L242.65 284.8 231.15 293.45 233.5 299.05 238.1 297.1 247.6 296.2 255.0 290.4 255.6 292.0 246.6 300.9 254.75 299.95 247.4 305.3 249.85 305.2 260.85 299.6 261.9 301.3 248.65 310.1 261.2 309.55 245.55 316.9 233.25 317.2 217.75 313.1 Q214.95 312.95 211.85 313.1 L212.55 313.5 190.65 320.05 178.15 317.6 162.75 301.85 170.8 303.75 173.6 302.2 162.6 286.8 163.75 283.95 174.6 295.85 176.4 296.2 170.55 289.0 177.25 290.9 167.45 275.8 167.45 273.2 175.0 283.05 182.75 284.95 188.75 289.85 186.85 283.2 187.7 282.4 190.25 288.45 192.1 289.7 193.85 286.3 Q193.7 282.45 194.0 277.85 194.75 267.8 197.3 254.25 L199.75 248.95 Q195.35 239.6 191.95 229.95 L190.5 225.8 190.0 225.3 190.85 230.6 185.55 224.0 184.9 218.8 186.65 212.8 186.55 212.3 Q185.1 207.05 184.05 201.75 L182.75 194.35 182.05 190.4 168.85 185.0 169.2 187.75 173.2 192.4 172.2 192.8 166.1 187.2 166.95 192.5 161.65 185.9 161.0 180.7 163.6 171.85 163.95 172.5 163.85 171.85 166.8 169.75 173.75 164.85 178.25 154.4 Q177.3 155.45 176.3 158.5 177.45 150.5 179.9 145.65 L180.05 145.4 186.8 132.5 186.85 132.4 187.95 130.5 187.9 130.35 188.2 130.05 191.3 124.9 188.65 125.15 193.2 122.05 195.65 118.55 193.35 117.4 187.25 118.1 187.5 117.05 195.55 115.1 190.7 112.85 199.1 112.2 199.5 112.4 202.7 104.45 202.4 104.55 205.15 97.7 181.1 91.0 176.5 85.65 168.85 84.55 163.25 81.8 157.15 82.5 157.4 81.45 165.45 79.5 160.6 77.25 169.0 76.6 169.55 76.9 176.8 77.75 193.85 79.55 201.2 80.4 197.7 71.6 198.0 72.95 192.9 69.3 190.75 66.35 187.4 65.1 187.8 64.6 192.5 65.75 192.3 65.55 190.6 63.3 195.1 65.2 195.3 65.45 194.9 64.45 202.1 67.9 217.6 75.15 231.45 81.8 237.7 83.3 249.1 89.5 Q251.5 92.2 260.9 97.95 L274.0 105.5 281.45 109.55 282.65 111.7 281.75 118.9 275.85 122.4 272.4 121.8 260.05 122.95 257.65 125.1 255.7 123.25 246.75 123.95 246.55 125.1 246.55 125.5 246.35 127.45 244.3 130.45 242.0 127.45 240.5 124.25 Q239.55 124.25 235.65 121.8 231.7 119.3 225.25 116.45 L208.15 125.7 207.9 125.4 207.7 125.95 Q204.45 128.6 201.7 131.6 204.75 136.25 212.05 139.3 L211.95 139.4 213.65 139.0 213.95 139.8 Q215.7 139.15 217.7 139.15 L220.0 139.4 Q220.25 138.05 221.6 137.0 L223.6 136.05 Q222.5 138.15 222.35 140.15 L223.05 140.55 223.15 140.55 225.2 140.65" fill="none" stroke="#bbfba0" stroke-linecap="round" stroke-linejoin="round" stroke-width="5.0"/>
    </g>
    <g id="sprite4">
      <use ffdec:characterId="5" height="21.05" transform="matrix(1.0, 0.0, 0.0, 1.0, 0.0, 0.0)" width="12.4" xlink:href="#shape3"/>
    </g>
    <g id="shape3">
      <path d="M-4.85 -5.8 L-3.5 -10.45 1.25 -0.75 2.1 5.45 6.1 10.1 5.1 10.5 -1.0 4.9 -0.95 5.35 -0.15 10.2 -0.7 9.55 -5.45 3.6 -6.1 -1.6 -4.85 -5.8 M-0.95 5.35 L-2.75 2.8 -0.95 5.35" fill="#a7f793" fill-rule="evenodd" stroke="none"/>
      <path d="M1.25 -0.75 L2.1 5.45 6.1 10.1 5.1 10.5 -1.0 4.9 -0.95 5.35 -2.75 2.8 M-0.7 9.55 L-5.45 3.6 -6.1 -1.6 -4.85 -5.8" ffdec:has-small-stroke="true" ffdec:original-stroke-width="0.5" fill="none" stroke="#a7f793" stroke-linecap="round" stroke-linejoin="round" stroke-width="0.9657891176502251"/>
    </g>
    <g id="shape4">
      <path d="M207.35 232.35 L207.4 232.35 207.35 232.45 207.35 232.35" fill="#d1a61c" fill-rule="evenodd" stroke="none"/>
      <path d="M248.45 234.05 L247.8 236.3 247.0 235.15 248.45 234.05 M244.95 279.5 L244.9 279.55 242.15 278.3 244.95 279.5" fill="url(#gradient2)" fill-rule="evenodd" stroke="none"/>
      <path d="M188.85 190.6 Q193.35 184.6 200.15 187.4 201.7 191.3 202.5 199.35 189.9 206.15 195.8 218.4 L208.95 216.8 Q201.25 225.9 203.85 232.5 L207.35 232.35 207.35 232.45 Q204.65 239.3 204.35 245.4 204.1 249.3 204.9 252.85 L208.2 254.1 Q211.8 244.45 223.25 239.35 213.8 261.45 220.5 273.4 222.05 276.2 224.55 278.45 241.05 273.0 242.2 259.9 245.6 269.35 242.15 278.3 238.6 287.25 228.1 295.75 L212.75 302.65 Q224.25 297.0 226.65 290.85 L206.75 297.85 Q204.55 286.75 211.75 278.6 201.0 282.75 202.75 293.85 195.0 280.2 201.5 266.05 195.4 268.6 194.0 277.85 194.75 267.8 197.3 254.25 L199.75 248.95 201.8 244.45 Q196.95 241.55 191.95 229.95 188.85 221.2 186.55 212.3 185.1 207.05 184.05 201.75 185.15 197.55 186.6 194.5 187.65 192.25 188.85 190.6 M207.35 232.45 L201.8 244.45 207.35 232.45 M208.2 254.1 Q207.35 256.3 206.95 258.8 205.55 255.95 204.9 252.85 205.55 255.95 206.95 258.8 207.35 256.3 208.2 254.1" fill="#8acd7d" fill-rule="evenodd" stroke="none"/>
      <path d="M200.15 187.4 Q203.0 188.55 206.3 191.35 L206.85 191.95 Q210.6 196.25 215.25 200.3 223.0 207.05 233.25 212.9 L248.45 234.05 247.0 235.15 247.8 236.3 Q254.2 245.95 253.7 258.75 L244.95 279.5 242.15 278.3 Q245.6 269.35 242.2 259.9 241.05 273.0 224.55 278.45 222.05 276.2 220.5 273.4 213.8 261.45 223.25 239.35 211.8 244.45 208.2 254.1 L204.9 252.85 Q204.1 249.3 204.35 245.4 204.65 239.3 207.35 232.45 L207.4 232.35 207.35 232.35 203.85 232.5 Q201.25 225.9 208.95 216.8 L195.8 218.4 Q189.9 206.15 202.5 199.35 201.7 191.3 200.15 187.4 M209.8 226.95 L207.4 232.35 209.8 226.95 M240.8 228.35 Q244.4 231.5 247.0 235.15 244.4 231.5 240.8 228.35" fill="url(#gradient3)" fill-rule="evenodd" stroke="none"/>
      <path d="M200.15 187.4 Q193.35 184.6 188.85 190.6 187.65 192.25 186.6 194.5 185.15 197.55 184.05 201.75 L182.75 194.35 181.3 185.15 180.45 176.7 183.7 164.75 192.9 167.3 Q194.9 173.65 198.1 179.55 201.5 185.7 206.3 191.35 203.0 188.55 200.15 187.4 M212.75 302.65 Q206.15 305.65 199.6 308.7 L196.15 304.75 195.15 296.85 Q194.6 294.85 194.3 292.45 193.45 286.45 194.0 277.85 195.4 268.6 201.5 266.05 195.0 280.2 202.75 293.85 201.0 282.75 211.75 278.6 204.55 286.75 206.75 297.85 L226.65 290.85 Q224.25 297.0 212.75 302.65 M199.75 248.95 Q195.35 239.6 191.95 229.95 196.95 241.55 201.8 244.45 L199.75 248.95" fill="#7ec36f" fill-rule="evenodd" stroke="none"/>
      <path d="M244.9 279.55 L242.65 284.8 228.1 295.75 Q238.6 287.25 242.15 278.3 L244.9 279.55" fill="#a1e396" fill-rule="evenodd" stroke="none"/>
      <path d="M207.4 232.35 L207.35 232.35 203.85 232.5 Q201.25 225.9 208.95 216.8 L195.8 218.4 Q189.9 206.15 202.5 199.35 201.7 191.3 200.15 187.4 M207.35 232.45 Q204.65 239.3 204.35 245.4 204.1 249.3 204.9 252.85 205.55 255.95 206.95 258.8 207.35 256.3 208.2 254.1 211.8 244.45 223.25 239.35 213.8 261.45 220.5 273.4 222.05 276.2 224.55 278.45 241.05 273.0 242.2 259.9 245.6 269.35 242.15 278.3 238.6 287.25 228.1 295.75" ffdec:has-small-stroke="true" ffdec:original-stroke-width="1.0" fill="none" stroke="#d2db1c" stroke-linecap="round" stroke-linejoin="round" stroke-opacity="0.101960786" stroke-width="1.0273710612948739"/>
      <path d="M188.85 190.6 Q193.35 184.6 200.15 187.4 203.0 188.55 206.3 191.35 201.5 185.7 198.1 179.55 194.9 173.65 192.9 167.3 L183.7 164.75 180.45 176.7 181.3 185.15 182.75 194.35 184.05 201.75 Q185.1 207.05 186.55 212.3 188.85 221.2 191.95 229.95 195.35 239.6 199.75 248.95 L201.8 244.45 207.35 232.45 207.4 232.35 209.8 226.95 M248.45 234.05 L233.25 212.9 Q223.0 207.05 215.25 200.3 210.6 196.25 206.85 191.95 L206.3 191.35 M247.8 236.3 L248.45 234.05 M247.0 235.15 L247.8 236.3 Q254.2 245.95 253.7 258.75 L244.95 279.5 244.9 279.55 242.65 284.8 228.1 295.75 212.75 302.65 Q206.15 305.65 199.6 308.7 L196.15 304.75 195.15 296.85 Q194.6 294.85 194.3 292.45 193.45 286.45 194.0 277.85 194.75 267.8 197.3 254.25 L199.75 248.95 M247.0 235.15 Q244.4 231.5 240.8 228.35" ffdec:has-small-stroke="true" ffdec:original-stroke-width="0.1" fill="none" stroke="#4bac38" stroke-linecap="round" stroke-linejoin="round" stroke-opacity="0.5411765" stroke-width="1.0273710612948739"/>
    </g>
    <linearGradient gradientTransform="matrix(0.0054, -0.0059, 0.0428, 0.0394, 229.6, 225.75)" gradientUnits="userSpaceOnUse" id="gradient2" spreadMethod="pad" x1="-819.2" x2="819.2">
      <stop offset="0.0" stop-color="#d2b427"/>
      <stop offset="1.0" stop-color="#d1d97a"/>
    </linearGradient>
    <linearGradient gradientTransform="matrix(0.0449, -0.0242, 0.0296, 0.055, 226.85, 231.15)" gradientUnits="userSpaceOnUse" id="gradient3" spreadMethod="pad" x1="-819.2" x2="819.2">
      <stop offset="0.19607843137254902" stop-color="#8acd7d"/>
      <stop offset="0.5647058823529412" stop-color="#b2f4a9"/>
      <stop offset="0.9725490196078431" stop-color="#d2ffce"/>
    </linearGradient>
    <g id="sprite5">
      <use ffdec:characterId="5" height="21.05" transform="matrix(1.0, 0.0, 0.0, 1.0, 0.0, 0.0)" width="12.4" xlink:href="#shape5"/>
    </g>
    <g id="shape5">
      <path d="M-4.85 -5.8 L-3.5 -10.45 1.25 -0.75 2.1 5.45 6.1 10.1 5.1 10.5 -1.0 4.9 -0.95 5.35 -0.15 10.2 -0.7 9.55 -5.45 3.6 -6.1 -1.6 -4.85 -5.8 M-0.95 5.35 L-2.75 2.8 -0.95 5.35" fill="#78c167" fill-rule="evenodd" stroke="none"/>
      <path d="M1.25 -0.75 L2.1 5.45 6.1 10.1 5.1 10.5 -1.0 4.9 -0.95 5.35 -2.75 2.8 M-0.7 9.55 L-5.45 3.6 -6.1 -1.6 -4.85 -5.8" ffdec:has-small-stroke="true" ffdec:original-stroke-width="0.5" fill="none" stroke="#78c167" stroke-linecap="round" stroke-linejoin="round" stroke-width="0.591747905976785"/>
    </g>
    <g id="sprite6">
      <use ffdec:characterId="8" height="16.95" transform="matrix(1.0, 0.0, 0.0, 1.0, 0.0, 0.0)" width="13.2" xlink:href="#shape6"/>
    </g>
    <g id="shape6">
      <path d="M3.3 -5.7 L3.95 -2.3 6.6 0.05 2.45 5.95 1.8 9.35 Q-0.4 -2.0 -2.85 11.25 -2.65 -1.75 -4.8 9.35 L-6.6 0.05 -5.3 -3.4 -5.15 -3.7 Q-2.3 -1.1 3.3 -5.7" fill="#6cb25d" fill-rule="evenodd" stroke="none"/>
    </g>
    <g id="sprite7">
      <use ffdec:characterId="5" height="21.05" transform="matrix(1.0, 0.0, 0.0, 1.0, 0.0, 0.0)" width="12.4" xlink:href="#shape7"/>
    </g>
    <g id="shape7">
      <path d="M-4.85 -5.8 L-3.5 -10.45 1.25 -0.75 2.1 5.45 6.1 10.1 5.1 10.5 -1.0 4.9 -0.95 5.35 -0.15 10.2 -0.7 9.55 -5.45 3.6 -6.1 -1.6 -4.85 -5.8 M-0.95 5.35 L-2.75 2.8 -0.95 5.35" fill="#b9ffa7" fill-rule="evenodd" stroke="none"/>
      <path d="M1.25 -0.75 L2.1 5.45 6.1 10.1 5.1 10.5 -1.0 4.9 -0.95 5.35 -2.75 2.8 M-0.7 9.55 L-5.45 3.6 -6.1 -1.6 -4.85 -5.8" ffdec:has-small-stroke="true" ffdec:original-stroke-width="0.5" fill="none" stroke="#b9ffa7" stroke-linecap="round" stroke-linejoin="round" stroke-width="1.0273710612948739"/>
    </g>
    <g id="sprite8">
      <use ffdec:characterId="5" height="21.05" transform="matrix(1.0, 0.0, 0.0, 1.0, 0.0, 0.0)" width="12.4" xlink:href="#shape8"/>
    </g>
    <g id="shape8">
      <path d="M-4.85 -5.8 L-3.5 -10.45 1.25 -0.75 2.1 5.45 6.1 10.1 5.1 10.5 -1.0 4.9 -0.95 5.35 -0.15 10.2 -0.7 9.55 -5.45 3.6 -6.1 -1.6 -4.85 -5.8 M-0.95 5.35 L-2.75 2.8 -0.95 5.35" fill="#f2ffe7" fill-rule="evenodd" stroke="none"/>
      <path d="M1.25 -0.75 L2.1 5.45 6.1 10.1 5.1 10.5 -1.0 4.9 -0.95 5.35 -2.75 2.8 M-0.7 9.55 L-5.45 3.6 -6.1 -1.6 -4.85 -5.8" ffdec:has-small-stroke="true" ffdec:original-stroke-width="0.5" fill="none" stroke="#f2ffe7" stroke-linecap="round" stroke-linejoin="round" stroke-width="1.0273710612948739"/>
    </g>
    <g id="sprite9">
      <use ffdec:characterId="5" height="21.05" transform="matrix(1.0, 0.0, 0.0, 1.0, 0.0, 0.0)" width="12.4" xlink:href="#shape9"/>
    </g>
    <g id="shape9">
      <path d="M-4.85 -5.8 L-3.5 -10.45 1.25 -0.75 2.1 5.45 6.1 10.1 5.1 10.5 -1.0 4.9 -0.95 5.35 -0.15 10.2 -0.7 9.55 -5.45 3.6 -6.1 -1.6 -4.85 -5.8 M-0.95 5.35 L-2.75 2.8 -0.95 5.35" fill="#b9ffa7" fill-rule="evenodd" stroke="none"/>
      <path d="M1.25 -0.75 L2.1 5.45 6.1 10.1 5.1 10.5 -1.0 4.9 -0.95 5.35 -2.75 2.8 M-0.7 9.55 L-5.45 3.6 -6.1 -1.6 -4.85 -5.8" ffdec:has-small-stroke="true" ffdec:original-stroke-width="0.5" fill="none" stroke="#b9ffa7" stroke-linecap="round" stroke-linejoin="round" stroke-width="0.3895292709968889"/>
    </g>
    <g id="sprite10">
      <use ffdec:characterId="5" height="21.05" transform="matrix(1.0, 0.0, 0.0, 1.0, 0.0, 0.0)" width="12.4" xlink:href="#shape10"/>
    </g>
    <g id="shape10">
      <path d="M-4.85 -5.8 L-3.5 -10.45 1.25 -0.75 2.1 5.45 6.1 10.1 5.1 10.5 -1.0 4.9 -0.95 5.35 -0.15 10.2 -0.7 9.55 -5.45 3.6 -6.1 -1.6 -4.85 -5.8 M-0.95 5.35 L-2.75 2.8 -0.95 5.35" fill="#8dde7a" fill-rule="evenodd" stroke="none"/>
      <path d="M1.25 -0.75 L2.1 5.45 6.1 10.1 5.1 10.5 -1.0 4.9 -0.95 5.35 -2.75 2.8 M-0.7 9.55 L-5.45 3.6 -6.1 -1.6 -4.85 -5.8" ffdec:has-small-stroke="true" ffdec:original-stroke-width="0.5" fill="none" stroke="#8dde7a" stroke-linecap="round" stroke-linejoin="round" stroke-width="0.9636530810505146"/>
    </g>
    <g id="sprite11">
      <use ffdec:characterId="5" height="21.05" transform="matrix(1.0, 0.0, 0.0, 1.0, 0.0, 0.0)" width="12.4" xlink:href="#shape11"/>
    </g>
    <g id="shape11">
      <path d="M-4.85 -5.8 L-3.5 -10.45 1.25 -0.75 2.1 5.45 6.1 10.1 5.1 10.5 -1.0 4.9 -0.95 5.35 -0.15 10.2 -0.7 9.55 -5.45 3.6 -6.1 -1.6 -4.85 -5.8 M-0.95 5.35 L-2.75 2.8 -0.95 5.35" fill="#8dde7a" fill-rule="evenodd" stroke="none"/>
      <path d="M1.25 -0.75 L2.1 5.45 6.1 10.1 5.1 10.5 -1.0 4.9 -0.95 5.35 -2.75 2.8 M-0.7 9.55 L-5.45 3.6 -6.1 -1.6 -4.85 -5.8" ffdec:has-small-stroke="true" ffdec:original-stroke-width="0.5" fill="none" stroke="#8dde7a" stroke-linecap="round" stroke-linejoin="round" stroke-width="0.6723410443724656"/>
    </g>
    <g id="sprite12">
      <use ffdec:characterId="5" height="21.05" transform="matrix(1.0, 0.0, 0.0, 1.0, 0.0, 0.0)" width="12.4" xlink:href="#shape12"/>
    </g>
    <g id="shape12">
      <path d="M-4.85 -5.8 L-3.5 -10.45 1.25 -0.75 2.1 5.45 6.1 10.1 5.1 10.5 -1.0 4.9 -0.95 5.35 -0.15 10.2 -0.7 9.55 -5.45 3.6 -6.1 -1.6 -4.85 -5.8 M-0.95 5.35 L-2.75 2.8 -0.95 5.35" fill="#b9ffa7" fill-rule="evenodd" stroke="none"/>
      <path d="M1.25 -0.75 L2.1 5.45 6.1 10.1 5.1 10.5 -1.0 4.9 -0.95 5.35 -2.75 2.8 M-0.7 9.55 L-5.45 3.6 -6.1 -1.6 -4.85 -5.8" ffdec:has-small-stroke="true" ffdec:original-stroke-width="0.5" fill="none" stroke="#b9ffa7" stroke-linecap="round" stroke-linejoin="round" stroke-width="0.5289875158019058"/>
    </g>
    <g id="sprite13">
      <use ffdec:characterId="11" height="10.8" transform="matrix(0.9176, -0.006, -0.2051, 0.7656, -10.15, 2.4)" width="8.85" xlink:href="#sprite14"/>
    </g>
    <g id="sprite14">
      <use ffdec:characterId="10" height="10.8" transform="matrix(1.0, 0.0, 0.0, 1.0, 0.0, 0.0)" width="8.85" xlink:href="#shape13"/>
    </g>
    <g id="shape13">
      <path d="M3.3 -4.4 Q4.45 -3.6 3.65 -2.55 3.2 -2.8 2.1 -2.55 -0.2 -0.95 -0.8 1.55 L-3.25 0.35 -3.0 -1.35 -0.1 -5.3 3.3 -4.4" fill="#7db372" fill-rule="evenodd" stroke="none"/>
      <path d="M3.3 -4.4 L4.6 -4.05 5.0 -2.0 5.0 0.75 0.05 5.3 -3.65 3.3 -3.25 0.35 -0.8 1.55 Q-0.2 -0.95 2.1 -2.55 3.2 -2.8 3.65 -2.55 4.45 -3.6 3.3 -4.4" fill="#7db372" fill-rule="evenodd" stroke="none"/>
      <path d="M5.0 -2.0 L4.6 -4.05 3.3 -4.4 -0.1 -5.3 -3.0 -1.35 -3.25 0.35" ffdec:has-small-stroke="true" ffdec:original-stroke-width="0.5" fill="none" stroke="#7db372" stroke-linecap="round" stroke-linejoin="round" stroke-opacity="0.5411765" stroke-width="0.5279647081881284"/>
      <path d="M-3.25 0.35 L-3.65 3.3 0.05 5.3 5.0 0.75 5.0 -2.0" ffdec:has-small-stroke="true" ffdec:original-stroke-width="0.5" fill="none" stroke="#7db372" stroke-linecap="round" stroke-linejoin="round" stroke-opacity="0.5411765" stroke-width="0.5279647081881284"/>
    </g>
    <g id="shape14">
      <path d="M227.35 147.55 L227.0 147.6 228.2 145.1 Q229.95 144.9 231.4 146.45 L232.55 148.35 Q229.75 147.25 227.35 147.55" fill="#7e7b1c" fill-rule="evenodd" stroke="none"/>
      <path d="M222.3 141.15 L222.3 141.5 219.95 140.05 Q219.95 138.3 221.6 137.0 L223.6 136.05 Q222.25 138.7 222.3 141.15" fill="#a7ef9c" fill-rule="evenodd" stroke="none"/>
    </g>
    <g id="sprite15">
      <use ffdec:characterId="14" height="5.35" transform="matrix(1.0, 0.0, 0.0, 1.0, 0.0, 0.0)" width="4.3" xlink:href="#shape15"/>
    </g>
    <g id="shape15">
      <path d="M1.45 3.8 L-0.45 3.85 -0.35 6.15 -1.15 5.9 -1.9 6.3 Q-2.35 6.05 -2.45 5.4 L-2.4 4.75 -2.3 4.55 -2.3 4.5 -2.15 3.75 -1.8 2.35 -1.7 2.15 -1.05 2.3 -0.7 0.95 0.25 1.2 0.5 2.25 1.85 3.1 1.45 3.8" fill="#a7ef9c" fill-rule="evenodd" stroke="none"/>
    </g>
    <g id="shape16">
      <path d="M209.95 142.3 L206.85 140.4 200.5 139.25 202.85 137.9 197.1 134.35 200.9 130.2 Q203.7 135.8 212.05 139.3 L209.95 142.3" fill="#a7ef9c" fill-rule="evenodd" stroke="none"/>
    </g>
    <g id="sprite16">
      <use ffdec:characterId="10" height="10.8" transform="matrix(1.0, 0.0, 0.0, 1.0, 0.0, 0.0)" width="8.85" xlink:href="#shape17"/>
    </g>
    <g id="shape17">
      <path d="M3.3 -4.4 Q4.45 -3.6 3.65 -2.55 3.2 -2.8 2.1 -2.55 -0.2 -0.95 -0.8 1.55 L-3.25 0.35 -3.0 -1.35 -0.1 -5.3 3.3 -4.4" fill="#a7f793" fill-rule="evenodd" stroke="none"/>
      <path d="M3.3 -4.4 L4.6 -4.05 5.0 -2.0 5.0 0.75 0.05 5.3 -3.65 3.3 -3.25 0.35 -0.8 1.55 Q-0.2 -0.95 2.1 -2.55 3.2 -2.8 3.65 -2.55 4.45 -3.6 3.3 -4.4" fill="#a7f793" fill-rule="evenodd" stroke="none"/>
      <path d="M5.0 -2.0 L4.6 -4.05 3.3 -4.4 -0.1 -5.3 -3.0 -1.35 -3.25 0.35" ffdec:has-small-stroke="true" ffdec:original-stroke-width="0.5" fill="none" stroke="#a7f793" stroke-linecap="round" stroke-linejoin="round" stroke-opacity="0.5411765" stroke-width="0.38016743448244555"/>
      <path d="M-3.25 0.35 L-3.65 3.3 0.05 5.3 5.0 0.75 5.0 -2.0" ffdec:has-small-stroke="true" ffdec:original-stroke-width="0.5" fill="none" stroke="#a7f793" stroke-linecap="round" stroke-linejoin="round" stroke-opacity="0.5411765" stroke-width="0.38016743448244555"/>
    </g>
    <g id="sprite17">
      <use ffdec:characterId="17" height="7.25" transform="matrix(1.0, 0.0, 0.0, 1.0, 0.0, 0.0)" width="6.9" xlink:href="#shape18"/>
    </g>
    <g id="shape18">
      <path d="M1.55 2.9 L0.25 3.6 -3.0 2.45 Q-3.8 0.8 -3.2 -0.55 L-1.85 -3.65 0.25 -3.65 0.75 -3.5 Q-0.35 -3.25 -0.85 -2.45 L-0.9 -2.4 -0.95 -1.6 -0.95 -1.4 -0.1 -0.45 0.15 -0.1 Q-1.0 1.1 0.05 2.4 L1.55 2.9" fill="#b2f4a9" fill-rule="evenodd" stroke="none"/>
      <path d="M0.75 -3.5 Q2.2 -2.95 3.25 -1.3 3.0 -0.5 1.95 0.3 L0.15 -0.1 -0.1 -0.45 -0.95 -1.4 -0.95 -1.6 -0.9 -2.4 -0.85 -2.45 Q-0.35 -3.25 0.75 -3.5" fill="#ccfec8" fill-rule="evenodd" stroke="none"/>
      <path d="M3.25 -1.3 L3.45 -1.0 2.7 2.3 1.55 2.9 0.05 2.4 Q-1.0 1.1 0.15 -0.1 L1.95 0.3 Q3.0 -0.5 3.25 -1.3 M1.4 2.1 L1.9 1.5 1.4 2.1" fill="#abf1a0" fill-rule="evenodd" stroke="none"/>
      <path d="M1.9 1.5 L1.4 2.1" fill="none" stroke="#427738" stroke-linecap="round" stroke-linejoin="round" stroke-opacity="0.5411765" stroke-width="0.25"/>
    </g>
    <g id="sprite18">
      <use ffdec:characterId="10" height="10.8" transform="matrix(1.0, 0.0, 0.0, 1.0, 0.0, 0.0)" width="8.85" xlink:href="#shape19"/>
    </g>
    <g id="shape19">
      <path d="M3.3 -4.4 Q4.45 -3.6 3.65 -2.55 3.2 -2.8 2.1 -2.55 -0.2 -0.95 -0.8 1.55 L-3.25 0.35 -3.0 -1.35 -0.1 -5.3 3.3 -4.4" fill="#c6ffc4" fill-rule="evenodd" stroke="none"/>
      <path d="M3.3 -4.4 L4.6 -4.05 5.0 -2.0 5.0 0.75 0.05 5.3 -3.65 3.3 -3.25 0.35 -0.8 1.55 Q-0.2 -0.95 2.1 -2.55 3.2 -2.8 3.65 -2.55 4.45 -3.6 3.3 -4.4" fill="#b2f4a9" fill-rule="evenodd" stroke="none"/>
      <path d="M5.0 -2.0 L4.6 -4.05 3.3 -4.4 -0.1 -5.3 -3.0 -1.35 -3.25 0.35" ffdec:has-small-stroke="true" ffdec:original-stroke-width="0.5" fill="none" stroke="#4bac38" stroke-linecap="round" stroke-linejoin="round" stroke-opacity="0.5411765" stroke-width="0.37969004186145927"/>
      <path d="M-3.25 0.35 L-3.65 3.3 0.05 5.3 5.0 0.75 5.0 -2.0" ffdec:has-small-stroke="true" ffdec:original-stroke-width="0.5" fill="none" stroke="#4bac38" stroke-linecap="round" stroke-linejoin="round" stroke-opacity="0.5411765" stroke-width="0.37969004186145927"/>
    </g>
    <g id="sprite19">
      <use ffdec:characterId="19" height="3.05" transform="matrix(1.0, 0.0, 0.0, 1.0, 0.0, 0.0)" width="10.3" xlink:href="#shape20"/>
    </g>
    <g id="shape20">
      <path d="M-2.65 -0.2 L-2.65 -0.25 -3.15 -0.1 -4.4 0.3 -4.6 0.05 Q-4.45 -0.45 -5.6 -0.1 -4.25 -0.85 -3.3 -1.0 L-3.25 -1.0 -0.65 -1.35 Q1.8 -1.65 4.15 -1.35 L4.25 -1.35 4.7 0.7 2.15 1.45 Q0.7 0.9 -0.75 1.0 L-1.0 1.0 Q-1.2 0.85 0.2 -0.4 L-1.5 -0.5 -1.65 -0.45 -2.65 -0.2" fill="#b2f4a9" fill-rule="evenodd" stroke="none"/>
      <path d="M-4.4 0.3 L-3.15 -0.1 -2.65 -0.25 -2.65 -0.2 Q-3.3 0.4 -3.2 1.4 L-3.6 1.55 -4.4 0.3 M-1.65 -0.45 L-1.5 -0.5 0.2 -0.4 Q-1.2 0.85 -1.0 1.0 L-2.8 1.3 Q-2.3 -0.15 -1.65 -0.45" fill="#c6ffc4" fill-rule="evenodd" stroke="none"/>
      <path d="M-2.65 -0.2 L-1.65 -0.45 Q-2.3 -0.15 -2.8 1.3 L-3.2 1.4 Q-3.3 0.4 -2.65 -0.2" fill="url(#gradient4)" fill-rule="evenodd" stroke="none"/>
    </g>
    <linearGradient gradientTransform="matrix(2.0E-4, -0.0011, 8.0E-4, 2.0E-4, -2.45, 0.25)" gradientUnits="userSpaceOnUse" id="gradient4" spreadMethod="pad" x1="-819.2" x2="819.2">
      <stop offset="0.0" stop-color="#c6ffc4"/>
      <stop offset="1.0" stop-color="#b2f4a9"/>
    </linearGradient>
    <g id="sprite20">
      <use ffdec:characterId="21" height="9.4" transform="matrix(1.0, 0.0, 0.0, 1.0, 0.0, 0.0)" width="9.2" xlink:href="#shape21"/>
    </g>
    <g id="shape21">
      <path d="M-2.7 -3.75 L-4.15 -3.7 Q-3.05 -4.9 -1.1 -4.7 0.9 -4.55 2.65 -3.0 4.4 -1.5 4.9 0.45 5.35 2.4 4.25 3.65 L2.6 4.65 2.65 4.6 Q3.75 3.35 3.3 1.4 2.8 -0.55 1.05 -2.05 -0.7 -3.6 -2.7 -3.75" fill="#d2ffce" fill-opacity="0.49803922" fill-rule="evenodd" stroke="none"/>
    </g>
    <g id="sprite21">
      <use ffdec:characterId="23" height="9.85" transform="matrix(1.0, 0.0, 0.0, 1.0, 0.0, 0.0)" width="19.15" xlink:href="#shape22"/>
    </g>
    <g id="shape22">
      <path d="M16.3 -3.85 L19.15 -4.15 14.7 0.9 6.1 3.25 2.85 4.1 2.8 4.1 0.55 1.55 3.1 1.2 2.7 0.4 5.9 0.05 5.0 -0.35 10.9 -0.9 8.65 -1.1 13.65 -1.3 15.25 -2.0 Q19.4 -3.9 16.3 -3.85" fill="#ccfec8" fill-rule="evenodd" stroke="none"/>
      <path d="M0.55 1.55 L0.0 0.95 1.85 -2.35 10.2 -3.25 16.3 -3.85 Q19.4 -3.9 15.25 -2.0 L13.65 -1.3 8.65 -1.1 10.9 -0.9 5.0 -0.35 5.9 0.05 2.7 0.4 3.1 1.2 0.55 1.55" fill="#d2ffce" fill-rule="evenodd" stroke="none"/>
      <path d="M6.1 3.25 L7.05 5.7 2.85 4.1 6.1 3.25" fill="#b2f4a9" fill-rule="evenodd" stroke="none"/>
    </g>
    <g id="sprite22">
      <use ffdec:characterId="25" height="15.75" transform="matrix(1.0, 0.0, 0.0, 1.0, 0.0, 0.0)" width="1.55" xlink:href="#shape23"/>
    </g>
    <g id="shape23">
      <path d="M-0.05 0.0 L-0.4 -2.75 -0.5 -4.0 -0.55 -4.5" fill="none" stroke="#377026" stroke-linecap="round" stroke-linejoin="round" stroke-opacity="0.2" stroke-width="0.75"/>
      <path d="M-0.6 -5.15 L-0.6 -5.45 -0.7 -7.0 -0.7 -8.25 -0.7 -8.5 -0.7 -8.6" fill="none" stroke="#519833" stroke-linecap="round" stroke-linejoin="round" stroke-opacity="0.2" stroke-width="0.75"/>
      <path d="M-0.55 -4.5 L-0.55 -4.85 -0.6 -5.0 -0.6 -5.15" fill="none" stroke="#519833" stroke-linecap="round" stroke-linejoin="round" stroke-opacity="0.2" stroke-width="0.75"/>
      <path d="M-0.7 -8.6 L-0.65 -10.2 -0.65 -10.25 -0.4 -12.2" fill="none" stroke="#6cbf40" stroke-linecap="round" stroke-linejoin="round" stroke-opacity="0.2" stroke-width="0.75"/>
      <path d="M-0.4 -12.2 L-0.35 -12.65 0.1 -15.05" fill="none" stroke="#85d85c" stroke-linecap="round" stroke-linejoin="round" stroke-opacity="0.2" stroke-width="0.75"/>
    </g>
    <g id="shape24">
      <path d="M2.7 5.75 Q-1.0 6.85 -2.35 7.65 -0.85 5.7 0.05 5.4 1.25 5.2 2.7 5.75 M-4.15 9.4 L-2.95 9.65 -3.05 9.9 -3.6 10.6 -4.1 9.9 -4.15 9.4" fill="#d2ffce" fill-rule="evenodd" stroke="none"/>
      <path d="M-12.65 5.55 Q-11.3 5.05 -10.65 6.3 L-10.45 8.5 -11.3 8.65 -12.7 7.8 -12.95 6.05 -12.65 5.55" fill="#d2f7b6" fill-rule="evenodd" stroke="none"/>
      <path d="M-10.65 6.3 L-10.4 5.95 -6.8 5.05 -6.95 4.8 Q-6.65 4.4 -5.4 4.25 L-5.7 4.1 -5.75 4.1 -5.5 3.95 -2.1 3.15 Q-2.0 2.95 -2.3 2.95 L-2.45 2.85 -1.85 2.65 1.2 1.6 0.5 1.3 1.9 0.6 0.4 0.1 1.25 -0.2 1.35 -0.3 Q0.6 -0.15 -0.35 -0.3 L-0.4 -0.25 -0.5 -0.45 -1.65 -0.25 Q-2.95 -0.05 -2.2 -0.35 -1.45 -0.65 -1.55 -0.7 L-2.0 -0.85 2.9 -1.35 Q4.1 -1.1 4.7 -0.2 L6.55 4.4 5.5 5.4 6.15 5.3 6.15 5.35 Q5.45 6.4 5.4 6.8 L5.15 7.2 2.95 6.9 2.8 6.75 2.6 6.1 2.2 6.7 2.15 6.8 1.0 7.2 Q-0.6 7.9 -1.5 8.5 L-2.7 9.1 -4.2 9.05 -6.4 8.85 -7.45 8.8 -10.45 8.5 -10.65 6.3 M2.7 5.75 Q1.25 5.2 0.05 5.4 -0.85 5.7 -2.35 7.65 -1.0 6.85 2.7 5.75" fill="#c6ffc4" fill-rule="evenodd" stroke="none"/>
      <path d="M1.0 7.2 L2.15 6.8 2.2 6.7 2.6 6.1 2.8 6.75 2.95 6.9 5.15 7.2 5.4 6.8 Q5.45 6.4 6.15 5.35 L6.15 5.3 5.5 5.4 6.55 4.4 7.4 6.55 5.15 9.45 1.0 7.2" fill="#b2f4a9" fill-rule="evenodd" stroke="none"/>
      <path d="M-2.0 -0.85 L-1.55 -0.7 Q-1.45 -0.65 -2.2 -0.35 -2.95 -0.05 -1.65 -0.25 L-0.5 -0.45 -0.4 -0.25 -0.35 -0.3 Q0.6 -0.15 1.35 -0.3 L1.25 -0.2 0.4 0.1 1.9 0.6 0.5 1.3 1.2 1.6 -1.85 2.65 -2.45 2.85 -2.3 2.95 Q-2.0 2.95 -2.1 3.15 L-5.5 3.95 -5.75 4.1 -5.7 4.1 -5.4 4.25 Q-6.65 4.4 -6.95 4.8 L-6.8 5.05 -10.4 5.95 -10.65 6.3 Q-11.3 5.05 -12.65 5.55 -5.9 1.85 -4.8 0.65 L-2.0 -0.85" fill="url(#gradient5)" fill-rule="evenodd" stroke="none"/>
      <path d="M-7.45 8.8 L-6.4 8.85 -6.85 9.3 -7.45 8.8 M-4.2 9.05 L-2.7 9.1 -2.95 9.65 -4.15 9.4 -4.15 9.3 -4.2 9.05" fill="#9bc81c" fill-rule="evenodd" stroke="none"/>
      <path d="M-6.4 8.85 L-6.85 9.3 -7.45 8.8 M-2.95 9.65 L-2.7 9.1 M-2.95 9.65 L-3.05 9.9 -3.6 10.6 -4.1 9.9 -4.15 9.4 M-4.15 9.3 L-4.2 9.05" ffdec:has-small-stroke="true" ffdec:original-stroke-width="0.1" fill="none" stroke="#5d6b1c" stroke-linecap="round" stroke-linejoin="round" stroke-opacity="0.37254903" stroke-width="0.2495960774518391"/>
      <path d="M-10.8 7.65 Q-11.3 7.3 -11.75 8.3 M-12.7 7.1 Q-12.4 7.05 -12.25 8.05" fill="none" stroke="#91873e" stroke-linecap="round" stroke-linejoin="round" stroke-opacity="0.6313726" stroke-width="0.25"/>
      <path d="M0.9 5.05 L0.65 5.0 Q-0.1 4.5 -0.7 4.75 -1.25 5.0 -1.65 6.0 L-2.45 6.0 -3.4 6.2 Q-1.05 4.2 -0.2 4.1 L1.75 3.8 0.9 5.05" fill="#204d1c" fill-rule="evenodd" stroke="none"/>
      <path d="M0.9 5.05 L1.75 3.8 -0.2 4.1 Q-1.05 4.2 -3.4 6.2 L-2.45 6.0 -1.65 6.0 Q-1.25 5.0 -0.7 4.75 -0.1 4.5 0.65 5.0 L0.9 5.05 Z" fill="none" stroke="#6f9137" stroke-linecap="round" stroke-linejoin="round" stroke-opacity="0.2" stroke-width="0.5"/>
    </g>
    <linearGradient gradientTransform="matrix(-0.0087, 0.0038, -9.0E-4, -0.002, -10.3, 4.8)" gradientUnits="userSpaceOnUse" id="gradient5" spreadMethod="pad" x1="-819.2" x2="819.2">
      <stop offset="0.0" stop-color="#baffba"/>
      <stop offset="0.7843137254901961" stop-color="#d2ffce"/>
    </linearGradient>
    <g id="sprite23">
      <use ffdec:characterId="28" height="59.25" transform="matrix(1.0, 0.0, 0.0, 1.0, 0.0, 0.0)" width="27.75" xlink:href="#shape25"/>
    </g>
    <g id="shape25">
      <path d="M1.9 -26.9 L1.8 -26.75 Q-4.35 -15.4 -6.65 -1.5 -8.65 8.5 -4.2 19.2 L-1.4 31.15 -3.2 30.65 -5.8 25.25 Q-12.05 17.6 -13.6 7.55 -14.1 -1.5 -10.85 -11.3 -5.75 -20.8 1.9 -26.9" fill="#8acd7d" fill-rule="evenodd" stroke="none"/>
      <path d="M1.8 -26.75 Q6.75 -29.9 9.8 -24.45 14.9 -13.2 13.65 1.5 12.8 11.2 7.6 21.8 6.6 24.05 6.85 27.05 3.4 31.3 -1.4 31.15 L-4.2 19.2 Q-8.65 8.5 -6.65 -1.5 -4.35 -15.4 1.8 -26.75" fill="#9ddf91" fill-rule="evenodd" stroke="none"/>
      <path d="M1.8 -26.75 Q6.75 -29.9 9.8 -24.45 14.9 -13.2 13.65 1.5 12.8 11.2 7.6 21.8 6.6 24.05 6.85 27.05 3.4 31.3 -1.4 31.15 M-3.2 30.65 L-5.8 25.25 Q-12.05 17.6 -13.6 7.55 -14.1 -1.5 -10.85 -11.3 -5.75 -20.8 1.9 -26.9" ffdec:has-small-stroke="true" ffdec:original-stroke-width="0.5" fill="none" stroke="#4bac38" stroke-linecap="round" stroke-linejoin="round" stroke-opacity="0.5411765" stroke-width="2.0378716974889364"/>
      <path d="M5.45 -13.75 Q4.55 -12.15 3.1 -11.5 L0.7 -11.65 Q-0.25 -12.45 -0.25 -14.2 -0.25 -15.85 0.7 -17.5 1.65 -19.2 3.1 -19.8 4.55 -20.45 5.45 -19.6 6.4 -18.85 6.45 -17.15 6.4 -15.45 5.45 -13.75" fill="#d1c493" fill-opacity="0.49019608" fill-rule="evenodd" stroke="none"/>
      <path d="M5.45 -13.75 Q4.55 -12.15 3.1 -11.5 L0.7 -11.65 Q-0.25 -12.45 -0.25 -14.2 -0.25 -15.85 0.7 -17.5 1.65 -19.2 3.1 -19.8 4.55 -20.45 5.45 -19.6 6.4 -18.85 6.45 -17.15 6.4 -15.45 5.45 -13.75 Z" ffdec:has-small-stroke="true" ffdec:original-stroke-width="0.1" fill="none" stroke="#d07e4d" stroke-linecap="round" stroke-linejoin="round" stroke-opacity="0.22352941" stroke-width="2.0378716974889364"/>
      <path d="M5.9 -8.85 Q5.9 -10.5 6.85 -12.15 7.8 -13.85 9.25 -14.45 10.7 -15.1 11.6 -14.25 12.55 -13.5 12.6 -11.8 12.55 -10.1 11.6 -8.4 10.7 -6.8 9.25 -6.15 7.8 -5.5 6.85 -6.3 5.9 -7.1 5.9 -8.85" fill="#d1c493" fill-opacity="0.49019608" fill-rule="evenodd" stroke="none"/>
      <path d="M5.9 -8.85 Q5.9 -10.5 6.85 -12.15 7.8 -13.85 9.25 -14.45 10.7 -15.1 11.6 -14.25 12.55 -13.5 12.6 -11.8 12.55 -10.1 11.6 -8.4 10.7 -6.8 9.25 -6.15 7.8 -5.5 6.85 -6.3 5.9 -7.1 5.9 -8.85 Z" ffdec:has-small-stroke="true" ffdec:original-stroke-width="0.1" fill="none" stroke="#d07e4d" stroke-linecap="round" stroke-linejoin="round" stroke-opacity="0.22352941" stroke-width="2.0378716974889364"/>
      <path d="M7.55 -18.55 Q9.0 -19.2 9.9 -18.35 10.85 -17.6 10.9 -15.9 10.85 -14.2 9.9 -12.5 9.0 -10.9 7.55 -10.25 L5.15 -10.4 Q4.2 -11.2 4.2 -12.95 4.2 -14.6 5.15 -16.25 6.1 -17.95 7.55 -18.55" fill="#d1c493" fill-opacity="0.49019608" fill-rule="evenodd" stroke="none"/>
      <path d="M7.55 -18.55 Q9.0 -19.2 9.9 -18.35 10.85 -17.6 10.9 -15.9 10.85 -14.2 9.9 -12.5 9.0 -10.9 7.55 -10.25 L5.15 -10.4 Q4.2 -11.2 4.2 -12.95 4.2 -14.6 5.15 -16.25 6.1 -17.95 7.55 -18.55 Z" ffdec:has-small-stroke="true" ffdec:original-stroke-width="0.1" fill="none" stroke="#d07e4d" stroke-linecap="round" stroke-linejoin="round" stroke-opacity="0.22352941" stroke-width="2.0378716974889364"/>
      <path d="M1.65 -7.05 Q0.75 -5.45 -0.7 -4.8 L-3.1 -4.95 Q-4.05 -5.75 -4.05 -7.5 -4.05 -9.15 -3.1 -10.8 -2.15 -12.5 -0.7 -13.1 0.75 -13.75 1.65 -12.9 2.6 -12.15 2.65 -10.45 2.6 -8.75 1.65 -7.05" fill="#d1c493" fill-opacity="0.49019608" fill-rule="evenodd" stroke="none"/>
      <path d="M1.65 -7.05 Q0.75 -5.45 -0.7 -4.8 L-3.1 -4.95 Q-4.05 -5.75 -4.05 -7.5 -4.05 -9.15 -3.1 -10.8 -2.15 -12.5 -0.7 -13.1 0.75 -13.75 1.65 -12.9 2.6 -12.15 2.65 -10.45 2.6 -8.75 1.65 -7.05 Z" ffdec:has-small-stroke="true" ffdec:original-stroke-width="0.1" fill="none" stroke="#d07e4d" stroke-linecap="round" stroke-linejoin="round" stroke-opacity="0.22352941" stroke-width="2.0378716974889364"/>
      <path d="M-1.6 23.35 Q-2.25 21.0 -1.65 18.3 -1.0 15.5 0.8 14.05 2.6 12.55 4.2 13.4 5.85 14.05 6.6 16.45 7.25 18.85 6.6 21.6 6.0 24.2 4.25 25.75 2.45 27.25 0.75 26.5 -0.85 25.8 -1.6 23.35" fill="#d1c493" fill-opacity="0.49019608" fill-rule="evenodd" stroke="none"/>
      <path d="M-1.6 23.35 Q-2.25 21.0 -1.65 18.3 -1.0 15.5 0.8 14.05 2.6 12.55 4.2 13.4 5.85 14.05 6.6 16.45 7.25 18.85 6.6 21.6 6.0 24.2 4.25 25.75 2.45 27.25 0.75 26.5 -0.85 25.8 -1.6 23.35 Z" ffdec:has-small-stroke="true" ffdec:original-stroke-width="0.1" fill="none" stroke="#d07e4d" stroke-linecap="round" stroke-linejoin="round" stroke-opacity="0.22352941" stroke-width="2.0378716974889364"/>
    </g>
    <g id="sprite24">
      <use ffdec:characterId="28" height="59.25" transform="matrix(1.0, 0.0, 0.0, 1.0, 0.0, 0.0)" width="27.75" xlink:href="#shape26"/>
    </g>
    <g id="shape26">
      <path d="M1.9 -26.9 L1.8 -26.75 Q-4.35 -15.4 -6.65 -1.5 -8.65 8.5 -4.2 19.2 L-1.4 31.15 -3.2 30.65 -5.8 25.25 Q-12.05 17.6 -13.6 7.55 -14.1 -1.5 -10.85 -11.3 -5.75 -20.8 1.9 -26.9" fill="#8acd7d" fill-rule="evenodd" stroke="none"/>
      <path d="M1.8 -26.75 Q6.75 -29.9 9.8 -24.45 14.9 -13.2 13.65 1.5 12.8 11.2 7.6 21.8 6.6 24.05 6.85 27.05 3.4 31.3 -1.4 31.15 L-4.2 19.2 Q-8.65 8.5 -6.65 -1.5 -4.35 -15.4 1.8 -26.75" fill="#9ddf91" fill-rule="evenodd" stroke="none"/>
      <path d="M1.8 -26.75 Q6.75 -29.9 9.8 -24.45 14.9 -13.2 13.65 1.5 12.8 11.2 7.6 21.8 6.6 24.05 6.85 27.05 3.4 31.3 -1.4 31.15 M-3.2 30.65 L-5.8 25.25 Q-12.05 17.6 -13.6 7.55 -14.1 -1.5 -10.85 -11.3 -5.75 -20.8 1.9 -26.9" ffdec:has-small-stroke="true" ffdec:original-stroke-width="0.5" fill="none" stroke="#4bac38" stroke-linecap="round" stroke-linejoin="round" stroke-opacity="0.5411765" stroke-width="2.035950250348114"/>
      <path d="M5.45 -13.75 Q4.55 -12.15 3.1 -11.5 L0.7 -11.65 Q-0.25 -12.45 -0.25 -14.2 -0.25 -15.85 0.7 -17.5 1.65 -19.2 3.1 -19.8 4.55 -20.45 5.45 -19.6 6.4 -18.85 6.45 -17.15 6.4 -15.45 5.45 -13.75" fill="#d1c493" fill-opacity="0.49019608" fill-rule="evenodd" stroke="none"/>
      <path d="M5.45 -13.75 Q4.55 -12.15 3.1 -11.5 L0.7 -11.65 Q-0.25 -12.45 -0.25 -14.2 -0.25 -15.85 0.7 -17.5 1.65 -19.2 3.1 -19.8 4.55 -20.45 5.45 -19.6 6.4 -18.85 6.45 -17.15 6.4 -15.45 5.45 -13.75 Z" ffdec:has-small-stroke="true" ffdec:original-stroke-width="0.1" fill="none" stroke="#d07e4d" stroke-linecap="round" stroke-linejoin="round" stroke-opacity="0.22352941" stroke-width="2.035950250348114"/>
      <path d="M5.9 -8.85 Q5.9 -10.5 6.85 -12.15 7.8 -13.85 9.25 -14.45 10.7 -15.1 11.6 -14.25 12.55 -13.5 12.6 -11.8 12.55 -10.1 11.6 -8.4 10.7 -6.8 9.25 -6.15 7.8 -5.5 6.85 -6.3 5.9 -7.1 5.9 -8.85" fill="#d1c493" fill-opacity="0.49019608" fill-rule="evenodd" stroke="none"/>
      <path d="M5.9 -8.85 Q5.9 -10.5 6.85 -12.15 7.8 -13.85 9.25 -14.45 10.7 -15.1 11.6 -14.25 12.55 -13.5 12.6 -11.8 12.55 -10.1 11.6 -8.4 10.7 -6.8 9.25 -6.15 7.8 -5.5 6.85 -6.3 5.9 -7.1 5.9 -8.85 Z" ffdec:has-small-stroke="true" ffdec:original-stroke-width="0.1" fill="none" stroke="#d07e4d" stroke-linecap="round" stroke-linejoin="round" stroke-opacity="0.22352941" stroke-width="2.035950250348114"/>
      <path d="M7.55 -18.55 Q9.0 -19.2 9.9 -18.35 10.85 -17.6 10.9 -15.9 10.85 -14.2 9.9 -12.5 9.0 -10.9 7.55 -10.25 L5.15 -10.4 Q4.2 -11.2 4.2 -12.95 4.2 -14.6 5.15 -16.25 6.1 -17.95 7.55 -18.55" fill="#d1c493" fill-opacity="0.49019608" fill-rule="evenodd" stroke="none"/>
      <path d="M7.55 -18.55 Q9.0 -19.2 9.9 -18.35 10.85 -17.6 10.9 -15.9 10.85 -14.2 9.9 -12.5 9.0 -10.9 7.55 -10.25 L5.15 -10.4 Q4.2 -11.2 4.2 -12.95 4.2 -14.6 5.15 -16.25 6.1 -17.95 7.55 -18.55 Z" ffdec:has-small-stroke="true" ffdec:original-stroke-width="0.1" fill="none" stroke="#d07e4d" stroke-linecap="round" stroke-linejoin="round" stroke-opacity="0.22352941" stroke-width="2.035950250348114"/>
      <path d="M1.65 -7.05 Q0.75 -5.45 -0.7 -4.8 L-3.1 -4.95 Q-4.05 -5.75 -4.05 -7.5 -4.05 -9.15 -3.1 -10.8 -2.15 -12.5 -0.7 -13.1 0.75 -13.75 1.65 -12.9 2.6 -12.15 2.65 -10.45 2.6 -8.75 1.65 -7.05" fill="#d1c493" fill-opacity="0.49019608" fill-rule="evenodd" stroke="none"/>
      <path d="M1.65 -7.05 Q0.75 -5.45 -0.7 -4.8 L-3.1 -4.95 Q-4.05 -5.75 -4.05 -7.5 -4.05 -9.15 -3.1 -10.8 -2.15 -12.5 -0.7 -13.1 0.75 -13.75 1.65 -12.9 2.6 -12.15 2.65 -10.45 2.6 -8.75 1.65 -7.05 Z" ffdec:has-small-stroke="true" ffdec:original-stroke-width="0.1" fill="none" stroke="#d07e4d" stroke-linecap="round" stroke-linejoin="round" stroke-opacity="0.22352941" stroke-width="2.035950250348114"/>
      <path d="M-1.6 23.35 Q-2.25 21.0 -1.65 18.3 -1.0 15.5 0.8 14.05 2.6 12.55 4.2 13.4 5.85 14.05 6.6 16.45 7.25 18.85 6.6 21.6 6.0 24.2 4.25 25.75 2.45 27.25 0.75 26.5 -0.85 25.8 -1.6 23.35" fill="#d1c493" fill-opacity="0.49019608" fill-rule="evenodd" stroke="none"/>
      <path d="M-1.6 23.35 Q-2.25 21.0 -1.65 18.3 -1.0 15.5 0.8 14.05 2.6 12.55 4.2 13.4 5.85 14.05 6.6 16.45 7.25 18.85 6.6 21.6 6.0 24.2 4.25 25.75 2.45 27.25 0.75 26.5 -0.85 25.8 -1.6 23.35 Z" ffdec:has-small-stroke="true" ffdec:original-stroke-width="0.1" fill="none" stroke="#d07e4d" stroke-linecap="round" stroke-linejoin="round" stroke-opacity="0.22352941" stroke-width="2.035950250348114"/>
    </g>
    <g id="shape27">
      <path d="M225.25 142.25 Q228.4 145.4 228.4 149.85 228.4 154.3 225.25 157.4 222.15 160.55 217.7 160.55 213.25 160.55 210.1 157.4 207.0 154.3 207.0 149.85 207.0 145.4 210.1 142.25 213.25 139.15 217.7 139.15 222.15 139.15 225.25 142.25" fill="url(#gradient6)" fill-rule="evenodd" stroke="none"/>
      <path d="M225.25 142.25 Q228.4 145.4 228.4 149.85 228.4 154.3 225.25 157.4 222.15 160.55 217.7 160.55 213.25 160.55 210.1 157.4 207.0 154.3 207.0 149.85 207.0 145.4 210.1 142.25 213.25 139.15 217.7 139.15 222.15 139.15 225.25 142.25 Z" ffdec:has-small-stroke="true" ffdec:original-stroke-width="0.1" fill="none" stroke="#6a4f1e" stroke-linecap="round" stroke-linejoin="round" stroke-width="1.0273710612948739"/>
      <path d="M224.35 149.25 Q224.9 147.25 218.15 139.85 224.35 142.55 226.8 149.15 L224.35 149.25" fill="url(#gradient7)" fill-rule="evenodd" stroke="none"/>
    </g>
    <radialGradient cx="0" cy="0" gradientTransform="matrix(0.0204, 0.0, 0.0, 0.0204, 221.7, 145.35)" gradientUnits="userSpaceOnUse" id="gradient6" r="819.2" spreadMethod="pad">
      <stop offset="0.0" stop-color="#d29463"/>
      <stop offset="1.0" stop-color="#ae4d1c"/>
    </radialGradient>
    <linearGradient gradientTransform="matrix(0.0022, 0.0032, -0.0013, 9.0E-4, 223.45, 145.55)" gradientUnits="userSpaceOnUse" id="gradient7" spreadMethod="pad" x1="-819.2" x2="819.2">
      <stop offset="0.0" stop-color="#8a4d1c" stop-opacity="0.0"/>
      <stop offset="1.0" stop-color="#8a4d1c"/>
    </linearGradient>
    <g id="sprite25">
      <use ffdec:characterId="31" height="13.8" transform="matrix(1.0, 0.0, 0.0, 1.0, 0.0, 0.0)" width="9.65" xlink:href="#shape28"/>
    </g>
    <g id="shape28">
      <path d="M-4.05 3.1 L-3.95 3.1 -4.0 3.1 -4.05 3.1" fill="#d2b427" fill-rule="evenodd" stroke="none"/>
      <path d="M0.55 6.05 L0.65 6.0 0.65 6.05 0.55 6.05 M-4.05 3.1 L-4.0 3.1 -4.0 3.2 -4.05 3.1" fill="#98891d" fill-rule="evenodd" stroke="none"/>
      <path d="M-3.4 -3.45 L-3.55 -3.45 Q-4.2 -4.65 -5.0 -4.6 -6.2 -4.9 -7.8 -4.6 L-5.95 -5.15 -4.35 -6.0 -3.2 -6.15 -2.5 -5.7 -2.05 -5.6 Q-1.6 -5.15 -1.65 -3.8 -1.75 -2.85 -1.35 -2.0 L-0.9 -1.3 -0.3 -2.7 -0.25 -2.5 0.55 -0.75 0.85 0.15 0.8 1.4 0.8 1.45 0.55 2.15 0.5 2.25 1.85 3.1 1.45 3.8 1.55 4.9 1.45 5.65 0.7 6.65 0.65 6.05 0.65 6.0 0.55 6.05 0.5 5.85 -1.3 5.6 -2.45 5.3 Q-3.1 4.95 -3.35 4.25 L-3.6 2.95 -2.95 2.75 -3.1 2.5 -3.55 2.55 -3.65 2.0 -2.7 1.95 -1.9 2.45 -1.3 1.45 -1.3 1.4 -1.05 -0.7 -1.1 -0.75 -1.7 -1.75 Q-2.6 -2.85 -3.0 -2.55 L-3.4 -3.45 M-2.95 2.75 L-2.3 2.8 -2.1 2.8 -1.9 2.45 -2.1 2.8 -2.3 2.8 -2.95 2.75" fill="#b2f4a9" fill-rule="evenodd" stroke="none"/>
      <path d="M-3.0 -2.55 Q-2.6 -2.85 -1.7 -1.75 L-1.1 -0.75 -1.05 -0.7 -1.3 1.4 -3.0 -2.55 M-3.6 2.95 L-3.35 4.25 Q-3.1 4.95 -2.45 5.3 L-1.3 5.6 0.5 5.85 0.55 6.05 -0.6 6.05 -0.65 6.15 -0.6 6.05 0.55 6.05 0.65 6.05 0.7 6.65 0.75 7.2 -0.1 7.6 -0.8 7.5 -0.65 6.15 -0.9 6.15 -2.4 5.85 -3.45 5.2 -2.4 5.85 -3.0 6.9 -3.9 6.75 -4.45 6.25 -3.45 5.2 -3.55 5.1 -3.6 5.0 -4.0 3.85 -4.0 3.2 -4.0 3.85 -5.3 4.15 -5.6 3.95 -5.15 3.0 -4.05 3.1 -4.0 3.2 -4.0 3.1 -3.95 3.1 -3.6 2.95" fill="#c6ffc4" fill-rule="evenodd" stroke="none"/>
      <path d="M-3.4 -3.45 L-3.0 -2.55 -1.3 1.4 -1.3 1.45 -1.9 2.45 -2.1 2.8 -2.3 2.8 -2.95 2.75 -3.6 2.95 -3.95 3.1 -4.05 3.1 -5.15 3.0 -5.6 3.95 -5.3 4.15 -4.0 3.85 -3.6 5.0 -3.55 5.1 -3.45 5.2 -2.4 5.85 -0.9 6.15 -0.65 6.15 M0.7 6.65 L1.45 5.65 1.55 4.9 1.45 3.8 1.85 3.1 0.5 2.25 0.55 2.15 0.8 1.45 M0.8 1.4 L0.85 0.15 0.55 -0.75 -0.25 -2.5 -0.3 -2.7 -0.9 -1.3 -1.35 -2.0 Q-1.75 -2.85 -1.65 -3.8 -1.6 -5.15 -2.05 -5.6 L-2.5 -5.7 M-4.0 3.1 L-3.95 3.1 M-2.95 2.75 L-3.1 2.5 -3.55 2.55 -3.65 2.0 -2.7 1.95 -1.9 2.45 M-4.0 3.2 L-4.0 3.85 M-4.0 3.2 L-4.0 3.1 M-3.45 5.2 L-4.45 6.25 -3.9 6.75 -3.0 6.9 -2.4 5.85" ffdec:has-small-stroke="true" ffdec:original-stroke-width="0.1" fill="none" stroke="#5d6b1c" stroke-linecap="round" stroke-linejoin="round" stroke-opacity="0.37254903" stroke-width="0.38153198636843066"/>
      <path d="M0.55 6.05 L0.65 6.0 0.65 6.05 0.7 6.65 0.75 7.2 -0.1 7.6 -0.8 7.5 -0.65 6.15 -0.6 6.05 0.55 6.05 Z" ffdec:has-small-stroke="true" ffdec:original-stroke-width="0.1" fill="none" stroke="#5d6b1c" stroke-linecap="round" stroke-linejoin="round" stroke-opacity="0.37254903" stroke-width="0.38153198636843066"/>
    </g>
    <g id="shape29">
      <path d="M231.25 144.95 L231.25 146.8 232.5 147.6 Q228.5 148.75 224.8 150.05 L224.45 149.35 230.6 146.25 231.25 144.95" fill="#9b8b1c" fill-rule="evenodd" stroke="none"/>
      <path d="M232.5 147.6 L231.25 146.8 231.25 144.95 233.1 144.75 233.95 146.8 232.5 147.6" fill="#bfd36a" fill-rule="evenodd" stroke="none"/>
      <path d="M231.25 144.95 L230.6 146.25 224.45 149.35 224.8 150.05 Q228.5 148.75 232.5 147.6 L233.95 146.8 233.1 144.75 231.25 144.95 Z" ffdec:has-small-stroke="true" ffdec:original-stroke-width="0.1" fill="none" stroke="#6a4f1e" stroke-linecap="round" stroke-linejoin="round" stroke-width="1.0273710612948739"/>
    </g>
    <g id="sprite26">
      <use ffdec:characterId="34" height="13.05" transform="matrix(1.0, 0.0, 0.0, 1.0, 0.0, 0.0)" width="15.25" xlink:href="#shape30"/>
    </g>
    <g id="shape30">
      <path d="M-7.45 6.45 Q-8.45 2.95 -6.6 -2.35 L-6.6 -2.3 Q-1.25 -5.5 7.1 -6.3 -4.9 -2.35 -7.45 6.45" fill="#aedb1c" fill-rule="evenodd" stroke="none"/>
      <path d="M7.1 -6.3 L7.45 -6.2 Q4.9 1.15 0.9 5.7 -2.9 7.35 -7.45 6.45 -4.9 -2.35 7.1 -6.3" fill="#9bc81c" fill-rule="evenodd" stroke="none"/>
      <path d="M7.1 -6.3 L7.45 -6.2 Q4.9 1.15 0.9 5.7 -2.9 7.35 -7.45 6.45 -8.45 2.95 -6.6 -2.35 L-6.6 -2.3 Q-1.25 -5.5 7.1 -6.3 Z" ffdec:has-small-stroke="true" ffdec:original-stroke-width="0.1" fill="none" stroke="#8ab61c" stroke-linecap="round" stroke-linejoin="round" stroke-width="1.244708747665986"/>
    </g>
    <g id="sprite27">
      <use ffdec:characterId="5" height="21.05" transform="matrix(1.0, 0.0, 0.0, 1.0, 0.0, 0.0)" width="12.4" xlink:href="#shape31"/>
    </g>
    <g id="shape31">
      <path d="M-4.85 -5.8 L-3.5 -10.45 1.25 -0.75 2.1 5.45 6.1 10.1 5.1 10.5 -1.0 4.9 -0.95 5.35 -0.15 10.2 -0.7 9.55 -5.45 3.6 -6.1 -1.6 -4.85 -5.8 M-0.95 5.35 L-2.75 2.8 -0.95 5.35" fill="#f2ffe7" fill-rule="evenodd" stroke="none"/>
      <path d="M1.25 -0.75 L2.1 5.45 6.1 10.1 5.1 10.5 -1.0 4.9 -0.95 5.35 -2.75 2.8 M-0.7 9.55 L-5.45 3.6 -6.1 -1.6 -4.85 -5.8" ffdec:has-small-stroke="true" ffdec:original-stroke-width="0.5" fill="none" stroke="#f2ffe7" stroke-linecap="round" stroke-linejoin="round" stroke-width="1.0276399562910368"/>
    </g>
    <g id="sprite28">
      <use ffdec:characterId="5" height="21.05" transform="matrix(1.0, 0.0, 0.0, 1.0, 0.0, 0.0)" width="12.4" xlink:href="#shape32"/>
    </g>
    <g id="shape32">
      <path d="M-4.85 -5.8 L-3.5 -10.45 1.25 -0.75 2.1 5.45 6.1 10.1 5.1 10.5 -1.0 4.9 -0.95 5.35 -0.15 10.2 -0.7 9.55 -5.45 3.6 -6.1 -1.6 -4.85 -5.8 M-0.95 5.35 L-2.75 2.8 -0.95 5.35" fill="#f2ffe7" fill-rule="evenodd" stroke="none"/>
      <path d="M1.25 -0.75 L2.1 5.45 6.1 10.1 5.1 10.5 -1.0 4.9 -0.95 5.35 -2.75 2.8 M-0.7 9.55 L-5.45 3.6 -6.1 -1.6 -4.85 -5.8" ffdec:has-small-stroke="true" ffdec:original-stroke-width="0.5" fill="none" stroke="#f2ffe7" stroke-linecap="round" stroke-linejoin="round" stroke-width="1.0290818667735733"/>
    </g>
    <g id="sprite29">
      <use ffdec:characterId="5" height="21.05" transform="matrix(1.0, 0.0, 0.0, 1.0, 0.0, 0.0)" width="12.4" xlink:href="#shape33"/>
    </g>
    <g id="shape33">
      <path d="M-4.85 -5.8 L-3.5 -10.45 1.25 -0.75 2.1 5.45 6.1 10.1 5.1 10.5 -1.0 4.9 -0.95 5.35 -0.15 10.2 -0.7 9.55 -5.45 3.6 -6.1 -1.6 -4.85 -5.8 M-0.95 5.35 L-2.75 2.8 -0.95 5.35" fill="#ffffff" fill-rule="evenodd" stroke="none"/>
      <path d="M1.25 -0.75 L2.1 5.45 6.1 10.1 5.1 10.5 -1.0 4.9 -0.95 5.35 -2.75 2.8 M-0.7 9.55 L-5.45 3.6 -6.1 -1.6 -4.85 -5.8" ffdec:has-small-stroke="true" ffdec:original-stroke-width="0.5" fill="none" stroke="#ffffff" stroke-linecap="round" stroke-linejoin="round" stroke-width="1.0290818667735733"/>
    </g>
    <g id="sprite30">
      <use ffdec:characterId="5" height="21.05" transform="matrix(1.0, 0.0, 0.0, 1.0, 0.0, 0.0)" width="12.4" xlink:href="#shape34"/>
    </g>
    <g id="shape34">
      <path d="M-4.85 -5.8 L-3.5 -10.45 1.25 -0.75 2.1 5.45 6.1 10.1 5.1 10.5 -1.0 4.9 -0.95 5.35 -0.15 10.2 -0.7 9.55 -5.45 3.6 -6.1 -1.6 -4.85 -5.8 M-0.95 5.35 L-2.75 2.8 -0.95 5.35" fill="#ffffff" fill-rule="evenodd" stroke="none"/>
      <path d="M1.25 -0.75 L2.1 5.45 6.1 10.1 5.1 10.5 -1.0 4.9 -0.95 5.35 -2.75 2.8 M-0.7 9.55 L-5.45 3.6 -6.1 -1.6 -4.85 -5.8" ffdec:has-small-stroke="true" ffdec:original-stroke-width="0.5" fill="none" stroke="#ffffff" stroke-linecap="round" stroke-linejoin="round" stroke-width="1.762579084406414"/>
    </g>
    <g id="shape35">
      <path d="M224.25 153.05 Q224.25 152.55 224.5 152.2 L225.1 151.85 Q225.5 151.85 225.75 152.2 L226.0 153.05 225.75 153.9 Q225.5 154.25 225.1 154.25 L224.5 153.9 224.25 153.05" fill="#d2ffce" fill-rule="evenodd" stroke="none"/>
      <path d="M235.35 161.25 Q235.35 160.75 235.6 160.4 235.85 160.05 236.2 160.05 236.6 160.05 236.85 160.4 L237.1 161.25 236.85 162.1 Q236.6 162.45 236.2 162.45 235.85 162.45 235.6 162.1 235.35 161.75 235.35 161.25" fill="#d2ffce" fill-rule="evenodd" stroke="none"/>
    </g>
    <g id="sprite31">
      <use ffdec:characterId="37" height="97.0" transform="matrix(1.0, 0.0, 0.0, 1.0, 0.0, 0.0)" width="97.0" xlink:href="#shape36"/>
    </g>
    <g id="shape36">
      <path d="M34.3 -34.3 Q48.5 -20.1 48.5 0.0 48.5 20.1 34.3 34.3 20.1 48.5 0.0 48.5 -20.1 48.5 -34.3 34.3 -48.5 20.1 -48.5 0.0 -48.5 -20.1 -34.3 -34.3 -20.1 -48.5 0.0 -48.5 20.1 -48.5 34.3 -34.3" fill="url(#gradient8)" fill-rule="evenodd" stroke="none"/>
    </g>
    <radialGradient cx="0" cy="0" gradientTransform="matrix(0.0596, 0.0, 0.0, 0.0596, 0.0, 0.0)" gradientUnits="userSpaceOnUse" id="gradient8" r="819.2" spreadMethod="pad">
      <stop offset="0.0" stop-color="#c6d869" stop-opacity="0.32941177"/>
      <stop offset="1.0" stop-color="#d0b235" stop-opacity="0.0"/>
    </radialGradient>
    <g id="sprite32">
      <use ffdec:characterId="37" height="97.0" transform="matrix(1.0, 0.0, 0.0, 1.0, 0.0, 0.0)" width="97.0" xlink:href="#shape37"/>
    </g>
    <g id="shape37">
      <path d="M34.3 -34.3 Q48.5 -20.1 48.5 0.0 48.5 20.1 34.3 34.3 20.1 48.5 0.0 48.5 -20.1 48.5 -34.3 34.3 -48.5 20.1 -48.5 0.0 -48.5 -20.1 -34.3 -34.3 -20.1 -48.5 0.0 -48.5 20.1 -48.5 34.3 -34.3" fill="url(#gradient9)" fill-rule="evenodd" stroke="none"/>
    </g>
    <radialGradient cx="0" cy="0" gradientTransform="matrix(0.0596, 0.0, 0.0, 0.0596, 0.0, 0.0)" gradientUnits="userSpaceOnUse" id="gradient9" r="819.2" spreadMethod="pad">
      <stop offset="0.0" stop-color="#c6d869" stop-opacity="0.12941177"/>
      <stop offset="1.0" stop-color="#d0b235" stop-opacity="0.0"/>
    </radialGradient>
    <g id="shape38">
      <path d="M200.7 -15.4 L200.7 204.6 -19.25 204.6 -19.3 204.6 -19.3 -15.4 200.7 -15.4" fill="none" stroke="#ff00ff" stroke-linecap="round" stroke-linejoin="round" stroke-opacity="0.0" stroke-width="1.0"/>
      <path d="M200.7 -15.4 L90.7 94.6 200.7 204.6 M-19.3 -15.4 L90.7 94.6 -19.25 204.6" fill="none" stroke="#ff00ff" stroke-linecap="round" stroke-linejoin="round" stroke-opacity="0.0" stroke-width="1.0"/>
      <path d="M145.7 132.25 L35.75 132.25" fill="none" stroke="#ff00ff" stroke-linecap="round" stroke-linejoin="round" stroke-opacity="0.0" stroke-width="1.0"/>
      <path d="M149.0 159.2 L30.85 159.2 30.85 23.0 149.0 23.0 149.0 159.2 Z" fill="none" stroke="#ff00ff" stroke-linecap="round" stroke-linejoin="round" stroke-opacity="0.0" stroke-width="1.0"/>
    </g>
    <g id="sprite33">
      <use ffdec:characterId="41" height="40.0" transform="matrix(1.0, 0.0, 0.0, 1.0, 0.0, 0.0)" width="100.0" xlink:href="#shape39"/>
    </g>
    <g id="shape39">
      <path d="M100.0 40.0 L0.0 40.0 0.0 0.0 100.0 0.0 100.0 40.0" fill="#ff00ff" fill-opacity="0.0" fill-rule="evenodd" stroke="none"/>
    </g>
  </defs>
</svg>
