<?xml version="1.0" encoding="UTF-8" standalone="no"?>
<svg xmlns:ffdec="https://www.free-decompiler.com/flash" xmlns:xlink="http://www.w3.org/1999/xlink" ffdec:objectType="frame" height="106.37000000000003px" width="120.28500000000001px" xmlns="http://www.w3.org/2000/svg">
  <g transform="matrix(1.1, 0.0, 0.0, 1.1, 60.17, 51.865)">
    <use ffdec:characterId="2" height="87.95" transform="matrix(1.0, 0.0, 0.0, 1.0, 0.0, 0.0)" width="109.35" xlink:href="#shape0"/>
    <use ffdec:characterId="3" height="4.35" transform="matrix(-2.1124, 0.0, 0.0, 2.1124, 1.4, -2.1)" width="4.55" xlink:href="#shape1"/>
    <use ffdec:characterId="4" height="45.7" transform="matrix(0.8782, 0.4197, -0.4197, 0.8782, 3.2, -7.3)" width="48.45" xlink:href="#shape2"/>
    <use ffdec:characterId="4" height="45.7" transform="matrix(-1.1698, -0.1808, -0.1808, 1.1698, 3.2, -7.3)" width="48.45" xlink:href="#shape2"/>
    <use ffdec:characterId="4" height="45.7" transform="matrix(0.9928, 0.6411, -0.6411, 0.9928, 3.2, -7.3)" width="48.45" xlink:href="#shape2"/>
    <use ffdec:characterId="4" height="45.7" transform="matrix(1.117, -0.3802, 0.3802, 1.117, 3.2, -7.3)" width="48.45" xlink:href="#shape2"/>
    <use ffdec:characterId="4" height="45.7" transform="matrix(-0.8344, 0.4982, -0.4982, -0.8344, 3.2, -7.3)" width="48.45" xlink:href="#shape2"/>
    <use ffdec:characterId="4" height="45.7" transform="matrix(0.3419, 0.9096, -0.9096, 0.3419, 1.8, -6.45)" width="48.45" xlink:href="#shape2"/>
    <use ffdec:characterId="4" height="45.7" transform="matrix(-0.7171, -0.9394, -0.9394, 0.7171, 1.8, -6.45)" width="48.45" xlink:href="#shape2"/>
    <use ffdec:characterId="4" height="45.7" transform="matrix(0.2712, 1.1483, -1.1483, 0.2712, 1.8, -6.45)" width="48.45" xlink:href="#shape2"/>
    <use ffdec:characterId="4" height="45.7" transform="matrix(1.067, 0.499, -0.499, 1.067, 1.8, -6.45)" width="48.45" xlink:href="#shape2"/>
    <use ffdec:characterId="4" height="45.7" transform="matrix(-0.9453, -0.2185, 0.2185, -0.9453, 1.8, -6.45)" width="48.45" xlink:href="#shape2"/>
    <use ffdec:characterId="4" height="45.7" transform="matrix(0.7288, 0.6408, -0.6408, 0.7288, 1.1, -6.0)" width="48.45" xlink:href="#shape2"/>
    <use ffdec:characterId="4" height="45.7" transform="matrix(-1.0734, -0.4906, -0.4906, 1.0734, 1.1, -6.0)" width="48.45" xlink:href="#shape2"/>
    <use ffdec:characterId="4" height="45.7" transform="matrix(0.7787, 0.8842, -0.8842, 0.7787, 1.1, -6.0)" width="48.45" xlink:href="#shape2"/>
    <use ffdec:characterId="4" height="45.7" transform="matrix(1.1747, -0.062, 0.062, 1.1747, 1.1, -6.0)" width="48.45" xlink:href="#shape2"/>
    <use ffdec:characterId="4" height="45.7" transform="matrix(-0.9357, 0.2518, -0.2518, -0.9357, 1.1, -6.0)" width="48.45" xlink:href="#shape2"/>
    <use ffdec:characterId="5" height="31.05" transform="matrix(-2.1124, 0.0, 0.0, 2.1124, 1.4, -2.1)" width="25.75" xlink:href="#shape3"/>
    <use ffdec:characterId="4" height="45.7" transform="matrix(0.9675, 0.0972, -0.0972, 0.9675, 2.75, -7.8)" width="48.45" xlink:href="#shape2"/>
    <use ffdec:characterId="4" height="45.7" transform="matrix(-1.1607, 0.226, 0.226, 1.1607, 2.75, -7.8)" width="48.45" xlink:href="#shape2"/>
    <use ffdec:characterId="4" height="45.7" transform="matrix(0.9211, -0.7354, 0.7354, 0.9211, 2.75, -7.8)" width="48.45" xlink:href="#shape2"/>
    <use ffdec:characterId="4" height="45.7" transform="matrix(-0.6156, 0.7507, -0.7507, -0.6156, 2.75, -7.8)" width="48.45" xlink:href="#shape2"/>
    <use ffdec:characterId="4" height="45.7" transform="matrix(0.6292, 0.7392, -0.7392, 0.6292, 1.7, -6.65)" width="48.45" xlink:href="#shape2"/>
    <use ffdec:characterId="4" height="45.7" transform="matrix(-0.9919, -0.6402, -0.6402, 0.9919, 1.7, -6.65)" width="48.45" xlink:href="#shape2"/>
    <use ffdec:characterId="4" height="45.7" transform="matrix(0.6435, 0.9875, -0.9875, 0.6435, 1.7, -6.65)" width="48.45" xlink:href="#shape2"/>
    <use ffdec:characterId="4" height="45.7" transform="matrix(-0.9624, 0.1146, -0.1146, -0.9624, 1.7, -6.65)" width="48.45" xlink:href="#shape2"/>
    <use ffdec:characterId="4" height="45.7" transform="matrix(0.9019, 0.3556, -0.3556, 0.9019, 1.2, -5.9)" width="48.45" xlink:href="#shape2"/>
    <use ffdec:characterId="4" height="45.7" transform="matrix(1.0312, 0.5675, -0.5675, 1.0312, 1.2, -5.9)" width="48.45" xlink:href="#shape2"/>
    <use ffdec:characterId="4" height="45.7" transform="matrix(1.0831, -0.4558, 0.4558, 1.0831, 1.2, -5.9)" width="48.45" xlink:href="#shape2"/>
    <use ffdec:characterId="4" height="45.7" transform="matrix(0.8571, 0.4567, -0.4567, 0.8571, 2.9, -7.4)" width="48.45" xlink:href="#shape2"/>
    <use ffdec:characterId="4" height="45.7" transform="matrix(-1.1582, -0.2313, -0.2313, 1.1582, 2.9, -7.4)" width="48.45" xlink:href="#shape2"/>
    <use ffdec:characterId="4" height="45.7" transform="matrix(0.9616, 0.6824, -0.6824, 0.9616, 2.9, -7.4)" width="48.45" xlink:href="#shape2"/>
    <use ffdec:characterId="6" height="47.2" transform="matrix(-0.3716, 0.9638, 0.9638, 0.3716, 2.9, -7.4)" width="46.5" xlink:href="#shape4"/>
    <use ffdec:characterId="4" height="45.7" transform="matrix(-0.8535, 0.4602, -0.4602, -0.8535, 2.9, -7.4)" width="48.45" xlink:href="#shape2"/>
    <use ffdec:characterId="4" height="45.7" transform="matrix(0.301, 0.9216, -0.9216, 0.301, 1.5, -6.75)" width="48.45" xlink:href="#shape2"/>
    <use ffdec:characterId="4" height="45.7" transform="matrix(-0.6738, -0.9677, -0.9677, 0.6738, 1.5, -6.75)" width="48.45" xlink:href="#shape2"/>
    <use ffdec:characterId="4" height="45.7" transform="matrix(0.2202, 1.1565, -1.1565, 0.2202, 1.5, -6.75)" width="48.45" xlink:href="#shape2"/>
    <use ffdec:characterId="6" height="47.2" transform="matrix(1.0418, 0.544, -0.544, 1.0418, 1.5, -6.75)" width="46.5" xlink:href="#shape4"/>
    <use ffdec:characterId="4" height="45.7" transform="matrix(-0.9328, -0.2592, 0.2592, -0.9328, 1.5, -6.75)" width="48.45" xlink:href="#shape2"/>
    <use ffdec:characterId="4" height="45.7" transform="matrix(0.6985, 0.6706, -0.6706, 0.6985, 0.65, -6.2)" width="48.45" xlink:href="#shape2"/>
    <use ffdec:characterId="4" height="45.7" transform="matrix(-1.0485, -0.5359, -0.5359, 1.0485, 0.65, -6.2)" width="48.45" xlink:href="#shape2"/>
    <use ffdec:characterId="6" height="47.2" transform="matrix(-0.7376, 0.9155, 0.9155, 0.7376, 0.65, -6.2)" width="46.5" xlink:href="#shape4"/>
    <use ffdec:characterId="4" height="45.7" transform="matrix(1.1737, -0.0104, 0.0104, 1.1737, 0.65, -6.2)" width="48.45" xlink:href="#shape2"/>
    <use ffdec:characterId="4" height="45.7" transform="matrix(-0.9437, 0.2102, -0.2102, -0.9437, 0.65, -6.2)" width="48.45" xlink:href="#shape2"/>
    <use ffdec:characterId="7" height="32.6" transform="matrix(-2.1124, 0.0, 0.0, 2.1124, 1.4, -2.1)" width="35.2" xlink:href="#shape5"/>
  </g>
  <defs>
    <g id="shape0">
      <path d="M13.2 -28.05 L14.75 -32.0 14.1 -28.9 14.3 -29.1 14.85 -32.1 14.65 -29.45 15.4 -30.15 14.6 -29.0 14.6 -28.85 15.6 -27.95 16.9 -30.4 16.15 -28.3 16.5 -28.65 16.3 -28.4 16.5 -28.6 15.95 -27.85 15.85 -27.55 16.05 -27.25 16.95 -28.0 17.1 -28.15 16.15 -27.0 Q16.55 -25.95 16.45 -24.65 L18.25 -27.25 17.0 -24.6 20.2 -26.8 16.05 -22.8 14.95 -20.15 16.95 -21.35 17.0 -21.35 17.05 -21.5 Q18.4 -23.65 19.45 -25.95 L18.35 -23.05 20.5 -25.65 21.25 -24.6 21.75 -25.2 21.3 -24.5 21.6 -23.85 22.85 -26.1 21.8 -23.7 22.7 -24.1 21.7 -23.4 21.8 -22.8 23.05 -23.3 21.85 -22.5 21.8 -21.6 24.15 -23.75 21.55 -20.75 21.45 -20.35 21.6 -20.45 24.55 -22.9 23.3 -21.55 24.2 -22.1 23.1 -21.35 20.6 -18.7 19.45 -17.2 Q22.75 -18.5 26.05 -19.2 L22.3 -17.5 24.4 -18.05 25.05 -18.65 24.55 -18.05 26.25 -18.4 24.2 -17.6 23.35 -16.65 24.0 -16.75 25.1 -17.8 24.2 -16.8 24.3 -16.8 24.15 -16.75 23.3 -15.85 24.0 -15.9 Q26.9 -16.75 28.4 -18.65 L29.3 -19.95 30.4 -21.35 Q30.7 -21.65 31.35 -21.8 34.75 -19.55 38.0 -16.7 46.6 -9.25 45.6 -2.3 45.15 0.7 43.85 3.25 43.45 4.2 42.35 4.8 L42.45 5.35 Q42.6 7.45 46.85 7.75 51.2 8.05 51.9 10.15 52.65 12.3 51.25 13.6 49.85 14.9 47.15 14.35 44.4 13.85 39.45 11.25 34.45 8.6 36.95 7.2 L40.2 5.05 39.15 4.5 Q42.45 1.6 43.3 -2.6 44.25 -7.45 39.25 -13.0 36.0 -16.6 32.05 -19.65 30.4 -15.7 24.65 -14.6 L23.7 -14.05 26.25 -14.05 24.25 -13.65 24.45 -13.5 26.1 -13.95 24.5 -13.45 25.05 -12.85 28.9 -13.7 25.15 -12.7 25.2 -12.35 27.5 -13.1 25.05 -11.9 Q24.6 -11.3 22.9 -10.7 L34.15 -10.05 28.2 -10.1 20.15 -9.75 23.35 -9.35 27.05 -9.8 23.8 -9.3 24.6 -9.2 23.05 -9.2 16.55 -8.1 27.9 -8.95 18.0 -7.85 21.9 -6.9 23.15 -7.05 23.5 -7.2 23.3 -7.05 24.3 -7.2 24.3 -7.25 24.35 -7.2 34.05 -8.4 Q29.7 -6.9 25.6 -6.0 L25.9 -5.65 26.1 -5.55 28.95 -6.35 Q27.8 -5.8 26.55 -5.4 L27.15 -5.15 27.25 -5.15 28.55 -5.5 Q28.75 -4.2 28.5 -3.25 L30.15 -3.55 28.4 -3.05 27.95 -2.3 29.6 -2.5 27.7 -2.05 27.0 -1.65 30.75 0.0 31.95 0.45 31.3 0.25 33.5 1.25 29.35 -0.35 25.95 -1.3 24.25 -1.2 21.95 -1.4 23.6 -0.45 20.7 -1.6 19.85 -1.8 16.6 -2.25 15.35 -2.35 15.95 -1.9 22.95 0.3 25.25 0.25 24.5 0.85 32.85 2.7 26.35 2.4 27.05 2.55 27.1 2.55 27.1 2.6 32.0 3.9 26.6 3.45 25.45 4.9 26.0 4.95 25.4 4.95 Q24.6 5.75 23.7 6.15 L24.75 6.8 23.65 6.2 23.0 6.35 24.7 7.75 27.9 10.45 24.2 7.7 22.25 7.35 24.25 8.95 22.9 7.9 26.6 11.35 21.25 7.05 21.0 7.0 20.85 7.0 21.1 7.3 23.2 8.75 21.35 7.55 22.6 9.0 20.9 7.25 20.6 7.05 20.2 7.1 23.1 9.7 20.0 7.15 19.25 7.15 21.5 8.8 19.15 7.15 18.4 7.1 21.5 8.8 21.55 8.85 23.1 9.7 26.8 11.7 21.8 10.0 21.5 10.1 25.5 12.5 20.15 10.45 19.3 10.55 24.65 14.55 Q19.95 12.4 16.05 9.95 L18.65 13.8 15.8 9.75 13.4 8.15 15.05 10.15 13.35 8.25 14.35 10.7 16.05 12.75 14.5 11.05 14.95 12.1 17.3 14.0 18.65 13.8 20.5 13.35 18.15 14.6 18.6 14.9 18.05 14.6 17.0 15.05 17.3 15.25 16.95 15.05 16.75 15.15 15.65 15.5 15.85 16.0 Q19.05 21.05 18.4 26.6 17.9 30.1 16.75 33.3 16.35 34.55 15.35 35.45 16.85 37.7 19.9 37.55 23.45 37.5 25.4 40.4 27.45 43.35 27.25 45.35 27.0 47.4 24.55 47.0 22.1 46.55 16.5 43.45 10.9 40.35 11.9 38.0 L12.75 35.7 12.6 35.6 12.85 35.25 13.15 33.65 Q13.3 32.25 14.1 33.35 15.8 30.25 16.4 26.65 16.85 23.8 16.0 21.05 L14.85 19.9 15.35 21.85 14.7 19.7 14.4 19.4 15.3 22.2 14.1 19.05 12.8 17.65 13.05 18.8 14.65 21.5 13.3 20.0 13.7 22.15 13.1 19.8 10.45 16.6 10.9 18.55 10.35 16.45 9.3 15.15 10.3 18.25 9.15 14.9 8.6 14.15 7.95 14.7 8.05 14.85 8.0 14.85 8.7 17.6 7.9 14.75 7.35 15.1 8.05 16.75 7.25 15.15 7.1 15.25 7.45 19.15 6.85 15.35 6.15 15.7 6.55 16.8 6.05 15.7 5.7 15.85 5.85 19.15 5.5 15.95 5.2 16.05 5.65 19.75 5.15 16.45 5.05 16.1 4.85 25.25 4.5 16.7 4.35 19.15 4.35 16.35 4.05 16.45 4.25 19.55 3.9 16.45 2.25 16.85 0.9 24.8 1.45 19.95 1.5 17.55 0.2 18.7 0.1 19.6 0.15 18.7 0.0 18.8 -0.15 20.6 -0.05 18.85 Q-2.75 20.35 -7.9 19.95 L-9.65 22.9 -8.15 19.9 -8.7 19.85 -8.05 19.75 -7.3 18.15 -8.3 17.55 -9.05 18.75 -11.15 22.05 -8.45 17.1 -7.9 15.6 -9.8 16.3 -10.15 17.1 -9.85 16.35 -10.55 17.5 -9.9 16.35 -11.9 16.55 -8.9 13.9 -7.95 11.65 -7.95 11.6 -7.9 11.5 -6.95 9.05 -7.05 9.0 -7.2 8.9 -10.45 13.75 -11.5 15.6 -10.95 14.55 -12.7 17.15 -10.45 13.65 -8.5 9.9 -9.3 10.95 -9.4 11.2 -9.35 11.0 -12.35 14.8 -9.3 10.65 -9.05 9.65 -9.25 9.85 Q-11.9 15.4 -15.9 14.35 L-17.9 15.55 -16.4 14.2 -18.2 13.25 -19.4 14.75 -18.25 13.2 -19.1 12.6 -17.5 12.15 -15.3 9.15 -15.25 9.15 -13.55 6.95 -15.25 7.7 -15.8 8.1 -16.0 8.35 -15.9 8.15 -18.4 10.3 -16.65 8.7 -19.8 11.0 -15.85 7.95 -15.75 7.9 -19.85 9.4 -24.95 10.9 -20.5 8.7 Q-22.1 8.7 -22.95 7.45 L-24.15 7.7 -23.05 7.25 -23.65 5.8 -22.9 5.7 -23.6 5.4 -25.3 6.4 -23.7 5.35 -25.15 4.55 -26.0 5.0 -25.25 4.5 Q-27.5 3.1 -28.85 1.0 L-29.15 0.95 -28.85 0.95 -29.5 -0.25 -31.25 -0.75 Q-33.95 1.7 -36.2 4.55 -40.45 10.05 -39.55 15.75 -38.85 20.0 -36.6 23.5 -35.6 22.75 -35.65 23.9 -35.75 25.55 -35.2 27.55 -34.55 29.5 -40.8 31.2 -47.1 32.9 -49.7 32.9 -52.3 32.85 -52.2 31.2 -52.1 29.55 -49.5 27.5 -46.95 25.45 -43.35 26.05 -40.05 26.55 -38.05 24.85 -39.4 23.9 -39.9 22.4 -41.05 19.2 -41.55 15.7 -42.5 7.55 -35.2 0.55 L-32.9 -1.45 Q-34.6 -2.45 -35.0 -3.85 -35.5 -5.7 -33.75 -7.1 -31.95 -8.45 -28.15 -6.45 L-27.5 -6.1 -26.2 -6.35 Q-26.85 -6.85 -27.1 -7.5 -28.4 -10.05 -28.85 -13.05 -29.85 -20.0 -21.25 -27.45 L-19.35 -29.0 -19.55 -29.4 -19.3 -29.05 -14.6 -32.55 -13.65 -32.1 -12.55 -30.7 -11.65 -29.4 -10.3 -28.15 -10.55 -29.4 -9.9 -27.85 -9.75 -27.75 -9.95 -28.2 -9.7 -27.7 -9.4 -27.55 Q-10.1 -31.15 -10.45 -35.1 L-9.05 -30.6 -9.5 -35.9 -8.1 -30.5 Q-7.25 -31.7 -5.6 -32.3 L-5.7 -29.1 -5.55 -28.7 -5.2 -28.7 -5.35 -31.6 -4.8 -28.65 -4.65 -28.65 -4.45 -31.1 -4.9 -32.6 -4.35 -31.55 -4.15 -32.8 -4.2 -32.95 -4.15 -32.85 -4.1 -33.05 -4.1 -32.8 -3.6 -31.65 -3.2 -33.5 -3.45 -31.3 -1.75 -26.75 -1.55 -26.5 -1.6 -29.3 Q-2.25 -31.0 -3.05 -32.45 L-1.55 -32.35 -1.55 -33.5 -1.4 -32.35 -0.75 -32.15 -0.65 -33.7 -0.55 -32.05 Q0.5 -31.6 1.25 -30.65 L2.15 -35.2 1.9 -29.65 2.3 -28.75 2.5 -31.5 2.35 -28.6 2.45 -28.35 3.25 -31.0 3.25 -31.1 3.4 -31.6 3.65 -32.4 3.0 -28.25 2.9 -26.8 3.15 -25.15 4.15 -28.4 3.3 -23.2 3.3 -22.1 3.1 -22.1 3.1 -21.95 3.2 -21.0 3.25 -21.2 3.5 -23.25 3.35 -21.5 3.65 -22.25 3.8 -23.35 3.7 -22.35 4.95 -25.45 5.25 -29.2 5.05 -25.7 5.75 -27.35 5.8 -27.9 5.85 -27.55 8.05 -32.45 6.2 -26.2 6.8 -26.3 7.2 -26.4 7.65 -27.85 7.25 -26.4 7.35 -26.45 7.75 -26.55 9.05 -32.8 8.8 -27.85 9.55 -29.4 10.15 -31.65 10.05 -30.3 11.9 -33.35 10.15 -29.1 12.7 -32.95 10.6 -28.35 Q12.15 -30.05 12.85 -33.1 L12.3 -27.7 14.0 -32.5 13.2 -28.05 13.15 -28.0 13.15 -27.95 13.2 -28.05 13.15 -27.95 13.15 -28.0 13.2 -28.05 M5.0 -17.35 Q5.9 -20.85 7.15 -24.05 L7.05 -24.2 5.25 -18.7 5.0 -17.35 4.95 -17.2 4.95 -17.15 5.0 -17.35 4.95 -17.15 4.95 -17.2 5.0 -17.35 M6.95 -24.3 L6.75 -24.65 5.6 -20.6 6.95 -24.3 M19.35 -14.1 L17.9 -14.05 17.15 -13.8 16.7 -13.5 19.3 -13.8 19.7 -14.1 19.35 -14.1 M10.45 -14.8 L10.4 -14.95 9.75 -14.15 9.05 -13.35 10.45 -14.8 M11.65 -15.2 L12.25 -15.7 13.45 -17.15 13.3 -17.05 12.05 -15.7 11.65 -15.2 M13.65 -27.4 L13.95 -28.1 13.8 -27.9 13.65 -27.4 M6.65 -24.8 L6.45 -25.15 5.8 -23.05 5.75 -22.5 6.65 -24.7 6.65 -24.8 M6.05 -25.75 L5.9 -25.2 5.85 -23.75 6.4 -25.2 6.05 -25.75 M0.6 -21.3 L0.6 -20.85 0.7 -21.35 0.6 -21.3 M0.8 -21.7 L0.8 -21.75 0.8 -22.1 0.7 -22.1 0.8 -21.7 M9.05 -21.1 L8.6 -20.4 8.45 -19.95 9.2 -20.8 9.05 -21.1 M4.65 -20.55 L4.7 -20.85 4.5 -20.1 4.65 -20.55 M4.7 -20.85 L4.75 -20.9 4.8 -21.25 4.75 -20.9 4.7 -20.85 M17.5 -8.7 L21.85 -9.2 18.65 -9.15 17.5 -8.7 M20.05 -10.8 L21.05 -11.1 22.15 -11.9 18.1 -10.8 20.05 -10.8 M14.05 -6.65 L15.1 -6.65 14.7 -6.7 14.05 -6.65 M12.2 -6.9 L12.3 -6.85 13.65 -6.9 12.8 -7.05 12.2 -6.9 M12.25 -10.5 L12.6 -10.55 16.6 -12.2 14.95 -11.85 12.25 -10.5 M14.15 -11.65 L13.4 -11.5 12.4 -10.95 14.15 -11.65 M16.6 -6.35 L15.75 -6.5 14.0 -6.4 14.15 -6.35 15.8 -6.3 16.6 -6.35 M20.2 -12.0 L19.7 -11.7 22.45 -12.3 22.65 -12.8 20.2 -12.0 M14.4 -1.95 L15.05 -1.45 15.45 -1.35 15.1 -1.8 14.4 -1.95 M14.75 -2.25 L14.65 -2.4 14.3 -2.4 14.75 -2.25 M18.15 -0.7 L21.85 0.2 22.85 0.3 16.8 -1.35 Q17.4 -1.0 18.15 -0.7 M21.8 -15.7 L22.3 -16.1 20.75 -15.55 21.8 -15.7 M22.85 -16.6 L23.8 -17.45 21.0 -16.3 22.85 -16.6 M22.85 -15.8 L23.85 -16.6 23.1 -16.35 22.5 -15.8 22.85 -15.8 M22.5 -13.3 L21.15 -12.5 22.7 -12.95 22.75 -13.35 22.5 -13.3 M17.1 4.3 L17.7 4.85 19.05 5.8 19.7 6.1 19.0 5.4 18.3 4.95 17.1 4.3 M17.3 5.0 L16.9 4.7 15.35 3.7 15.8 4.25 17.3 5.0 M17.35 1.8 L17.6 1.9 16.95 1.5 17.35 1.8 M17.9 1.95 L18.3 2.05 17.55 1.75 17.9 1.95 M19.65 2.6 L20.0 2.65 19.85 2.6 19.65 2.6 M21.05 6.3 L21.4 6.6 21.65 6.75 21.5 6.65 21.65 6.8 24.0 7.55 22.4 6.45 21.05 6.3 M21.3 2.85 L23.2 2.9 20.15 2.3 20.65 2.55 22.0 2.7 21.0 2.7 21.3 2.85 M26.15 -5.25 L26.2 -5.2 26.6 -5.2 26.15 -5.25 M27.0 -5.1 L26.8 -5.15 26.25 -5.15 26.35 -4.95 27.0 -5.1 M20.55 -4.85 L21.5 -4.75 23.35 -5.0 22.35 -5.2 20.55 -4.85 M23.7 -5.6 L24.1 -5.45 24.15 -5.6 23.85 -5.65 23.7 -5.6 M22.9 -4.4 L23.15 -4.45 23.05 -4.45 22.9 -4.4 M16.55 3.65 L16.05 3.35 16.15 3.4 16.55 3.65 16.15 3.4 16.05 3.35 16.55 3.65 M11.55 3.1 L11.35 2.85 11.5 3.05 11.55 3.1 M12.05 1.65 L13.0 2.4 12.3 1.8 12.05 1.65 M12.45 11.0 L13.3 11.9 13.05 11.3 12.9 11.0 12.3 10.45 12.3 10.5 12.45 11.0 M5.9 11.55 L6.0 11.95 6.4 12.95 6.05 11.25 5.9 11.55 M3.35 11.8 L3.1 10.1 2.85 12.45 3.35 11.8 M3.6 9.95 L3.6 10.6 3.75 11.1 3.8 11.0 3.85 10.9 3.8 10.4 3.6 9.95 M6.0 4.55 L6.05 5.0 6.1 5.2 6.15 5.4 6.3 5.3 6.0 4.55 M12.7 8.05 L12.6 8.4 13.0 9.0 13.5 9.6 12.7 8.05 M12.75 12.05 L12.8 12.2 14.0 13.5 13.75 12.85 12.75 12.05 M13.9 10.4 L13.8 10.25 12.9 9.25 13.4 10.35 14.15 11.45 14.55 11.8 13.9 10.4 M5.45 12.3 L5.6 14.25 5.7 14.55 6.35 13.75 6.1 12.75 5.65 11.9 5.45 12.3 M5.1 12.95 L5.1 12.75 5.05 12.8 5.1 12.95 M6.35 13.7 L6.45 13.5 6.2 13.0 6.35 13.7 M5.4 14.85 L5.25 13.8 5.0 13.25 5.0 14.25 5.1 15.05 5.4 14.85 M15.15 13.0 L14.8 12.55 14.2 12.1 14.4 12.65 14.45 12.7 14.6 13.05 14.85 13.25 15.55 13.85 15.15 13.0 M15.7 14.0 L15.8 14.1 15.95 14.1 15.45 13.45 15.7 14.0 M15.25 12.85 L15.35 13.15 16.0 14.1 17.05 14.05 15.25 12.85 M1.7 17.3 L1.6 17.45 1.5 19.55 1.7 17.3 M2.4 16.05 L2.25 16.8 3.85 15.95 3.65 14.3 2.5 15.15 2.4 16.05 M4.2 13.75 L3.85 14.1 4.0 15.85 4.3 15.65 4.3 14.5 4.2 13.75 M13.95 13.05 L14.25 13.8 14.45 13.85 14.05 13.1 13.95 13.05 M15.0 14.0 L15.35 14.05 14.9 13.75 15.0 14.0 M12.4 17.2 L11.4 16.05 12.65 18.2 12.4 17.2 M14.2 18.2 L13.45 16.0 13.4 15.9 13.25 15.9 13.8 17.55 14.2 18.2 M12.8 15.9 L12.7 15.9 12.9 16.2 12.8 15.9 M14.1 16.95 L14.6 18.75 15.95 20.85 Q15.35 18.85 14.1 16.95 M-17.6 -25.35 L-17.35 -25.05 -18.65 -27.55 -22.0 -24.3 -18.25 -20.6 -19.5 -22.45 Q-17.75 -20.2 -15.6 -18.25 -18.4 -21.9 -20.3 -25.8 -18.65 -23.6 -16.75 -22.6 L-18.0 -24.35 -16.85 -23.1 -16.1 -22.25 -15.95 -22.2 -16.6 -22.9 -15.9 -22.2 -15.65 -22.1 -16.0 -22.7 -16.8 -23.5 -16.05 -22.85 -16.8 -24.1 -17.6 -25.35 M-12.5 -25.9 L-11.8 -25.0 -12.35 -26.95 Q-14.4 -28.25 -15.3 -30.4 L-18.35 -27.85 -16.55 -25.4 -16.15 -25.2 -16.6 -26.65 -15.9 -25.05 -15.2 -24.65 -15.25 -24.9 -15.7 -25.55 -15.3 -25.05 -15.45 -25.5 -15.9 -26.0 -15.45 -25.55 -16.05 -27.55 -15.05 -25.1 -13.85 -23.85 -13.05 -23.35 -15.05 -26.6 -12.6 -23.05 -11.45 -22.25 -15.45 -27.15 -11.1 -22.25 -11.0 -22.3 -11.0 -22.15 -10.45 -21.5 -10.4 -21.45 -10.8 -22.45 -13.65 -25.85 -10.95 -22.8 -11.75 -24.85 -12.5 -25.9 M-12.0 -26.75 L-10.85 -23.85 -9.5 -22.15 -10.25 -24.55 -11.75 -26.65 -12.0 -26.75 M-4.2 -31.25 L-3.8 -30.4 -3.7 -31.1 -4.1 -32.7 -4.2 -31.25 M-9.0 -25.6 L-9.05 -25.6 -8.95 -25.45 -9.0 -25.6 M-5.7 -28.8 L-5.65 -28.7 -5.6 -28.7 -5.7 -28.95 -5.7 -28.8 M-9.6 -25.0 L-9.8 -25.85 -10.05 -25.9 -9.6 -25.0 M-3.5 -30.3 L-3.55 -29.8 -3.2 -29.0 -3.5 -30.3 M-22.5 -23.75 L-24.9 -20.55 -18.15 -16.45 -18.3 -16.6 -21.2 -18.75 -18.95 -17.25 -19.7 -18.0 -21.7 -19.1 -19.9 -18.2 -19.65 -18.05 -20.8 -19.4 -18.05 -17.25 -17.85 -17.2 -19.75 -19.35 -20.25 -19.8 -19.9 -19.6 -20.6 -20.45 -18.6 -18.8 -17.95 -18.35 -22.2 -24.05 -22.5 -23.75 M-4.25 -30.45 L-4.25 -28.55 -4.0 -28.45 -3.95 -29.45 -4.25 -30.45 M-23.0 -9.1 L-22.05 -9.1 -21.85 -9.9 -22.05 -10.0 -22.85 -10.25 -22.2 -10.1 -22.5 -10.25 -23.15 -10.35 -22.6 -10.3 -23.9 -11.05 -21.95 -10.4 -22.7 -11.0 -23.3 -11.55 -23.55 -11.65 -23.35 -11.6 -23.4 -11.65 -26.55 -13.5 -26.55 -13.35 Q-25.8 -9.6 -23.05 -6.9 L-22.25 -7.0 -22.05 -8.85 -22.6 -8.95 -22.05 -8.9 -22.05 -9.05 -23.0 -9.1 M-26.65 -16.0 L-24.75 -15.65 -24.5 -16.7 -22.55 -15.7 -21.35 -15.25 -21.55 -15.4 -20.7 -15.0 -20.6 -14.95 -22.45 -16.3 -26.35 -17.4 -26.65 -16.0 M-26.65 -13.95 L-24.35 -13.05 -24.45 -13.3 -26.7 -14.85 -26.65 -13.95 M-26.7 -15.25 L-24.75 -14.35 -24.75 -15.45 -26.65 -15.9 -26.7 -15.25 M-22.0 -16.15 L-20.25 -15.25 -21.1 -15.9 -22.0 -16.15 M-22.05 -15.45 L-21.25 -15.05 -21.0 -15.0 -22.05 -15.45 M-20.7 -16.75 L-24.95 -20.5 -25.5 -19.45 -20.7 -16.75 M-25.5 -19.45 L-26.3 -17.5 -21.95 -16.55 -25.5 -19.45 M-27.3 -6.0 Q-24.65 -4.75 -23.4 -5.7 L-23.9 -5.45 Q-25.15 -5.65 -25.95 -6.15 L-27.3 -6.0 M-2.75 -21.75 L-3.0 -22.95 -3.25 -23.45 -3.15 -22.4 -2.75 -21.75 M-2.65 -22.3 L-2.7 -22.5 -2.75 -22.55 -2.65 -22.3 M-4.9 -21.25 L-5.15 -21.15 -4.65 -19.65 -4.5 -19.4 -4.9 -21.25 M-9.55 -19.4 L-9.15 -19.05 -9.55 -19.4 M-8.85 -20.4 L-9.1 -21.05 -10.15 -22.8 -10.7 -23.5 -9.6 -21.2 -8.85 -20.4 M-10.05 -22.65 L-9.2 -21.3 -9.35 -21.7 -10.05 -22.65 M-7.6 -14.15 L-7.2 -13.85 -11.45 -19.4 -11.55 -18.9 -8.5 -15.0 -7.6 -14.15 M-2.1 -18.0 L-2.15 -18.1 -2.1 -17.85 -2.1 -18.0 M-14.2 -24.05 L-15.0 -25.0 -14.75 -24.4 -14.2 -24.05 M-12.85 -21.85 L-12.45 -21.9 -13.65 -22.85 -12.85 -21.85 M-13.75 -22.45 L-13.4 -21.8 -13.2 -21.8 -13.35 -22.05 -13.4 -22.1 -14.2 -23.3 -13.75 -22.45 M-14.25 -22.4 L-14.9 -23.85 -15.55 -24.35 -15.1 -23.5 -14.25 -22.4 M-10.2 -18.65 L-9.8 -18.3 -10.35 -19.1 -11.35 -20.1 -11.35 -20.05 -10.2 -18.65 M-10.7 -19.65 L-11.3 -20.55 -11.35 -20.25 -10.7 -19.65 M-16.05 -24.75 L-15.9 -24.6 -15.95 -24.7 -16.05 -24.75 M-19.9 1.8 L-19.35 1.65 -19.4 1.55 -19.9 1.8 M-10.25 5.55 L-10.3 5.3 -10.95 5.65 -13.3 8.0 -11.65 6.0 -11.75 6.1 -12.5 6.75 -17.2 12.05 Q-15.15 11.35 -13.5 10.45 L-13.3 10.25 -13.8 9.7 -14.2 9.15 -12.25 8.15 -10.1 5.9 -10.2 5.65 -12.5 7.85 -10.25 5.55 M-9.75 6.55 L-10.0 6.1 -12.0 8.0 -9.75 6.55 M-6.55 9.5 L-7.2 10.45 -8.6 13.6 -8.1 13.0 -6.2 9.4 -6.4 9.35 -6.85 10.15 -6.55 9.5 M-7.85 8.5 L-8.0 8.6 -8.85 9.45 -9.2 10.5 -7.8 8.55 -7.85 8.5 M-7.45 8.75 L-7.5 8.75 -9.05 11.35 -7.45 8.75 M-20.1 1.9 L-20.5 2.1 -20.05 2.9 -18.9 2.15 -19.25 1.75 -20.1 1.9 M-18.45 2.65 L-19.1 2.8 -19.8 3.2 Q-18.85 4.2 -17.0 3.8 L-18.45 2.65 M-18.55 2.5 L-18.85 2.65 -18.5 2.55 -18.55 2.5 M-2.8 13.8 L-2.75 13.65 -2.7 13.2 -2.8 13.05 -2.85 13.05 -2.8 13.8 -2.9 13.15 -3.8 13.8 -4.1 16.3 -3.6 16.25 -2.8 13.85 -2.8 13.8 M-4.1 16.3 L-3.9 14.0 -5.05 16.4 -4.1 16.3 M-4.2 13.95 L-4.7 14.1 -6.0 16.45 -5.15 16.4 -4.2 13.95 M-2.8 16.05 L-2.75 14.6 -3.4 16.2 -2.8 16.05 M-7.8 15.55 L-8.25 16.75 -7.55 15.4 -7.8 15.55 M-5.5 14.2 L-5.65 14.2 -5.95 14.65 -5.7 14.2 -6.25 14.2 -6.3 14.2 -6.35 14.3 -7.8 16.75 Q-7.35 16.4 -6.5 16.45 L-5.5 14.2 M-2.5 17.4 L-4.1 17.9 -4.5 18.75 -4.2 17.9 -6.95 18.25 -7.8 19.7 Q-3.8 19.0 -2.5 17.4 M-2.25 15.9 L-1.9 15.8 Q-1.9 14.85 -2.4 13.75 L-2.6 14.25 -2.75 16.05 -2.25 15.9 M-21.55 4.75 L-21.45 4.15 -22.1 4.5 -21.55 4.75 M-21.35 3.75 L-20.8 2.25 Q-22.15 2.9 -23.55 3.7 L-22.35 4.4 -21.35 3.75 M-26.6 0.65 L-24.65 0.45 -26.9 0.2 -26.6 0.65 M-23.75 3.6 L-19.85 1.25 -26.25 1.2 -23.75 3.6" fill="#000000" fill-opacity="0.003921569" fill-rule="evenodd" stroke="none"/>
      <path d="M13.2 -28.05 L14.0 -32.5 12.3 -27.7 12.85 -33.1 Q12.15 -30.05 10.6 -28.35 L12.7 -32.95 10.15 -29.1 11.9 -33.35 10.05 -30.3 10.15 -31.65 9.55 -29.4 8.8 -27.85 9.05 -32.8 7.75 -26.55 7.35 -26.45 7.25 -26.4 7.65 -27.85 7.2 -26.4 6.8 -26.3 6.2 -26.2 8.05 -32.45 5.85 -27.55 5.8 -27.9 5.75 -27.35 5.05 -25.7 5.25 -29.2 4.95 -25.45 3.7 -22.35 3.8 -23.35 3.65 -22.25 3.35 -21.5 3.5 -23.25 3.25 -21.2 3.2 -21.0 3.1 -21.95 3.1 -22.1 3.3 -22.1 3.3 -23.2 4.15 -28.4 3.15 -25.15 2.9 -26.8 3.0 -28.25 3.65 -32.4 3.4 -31.6 3.25 -31.1 3.25 -31.0 2.45 -28.35 2.35 -28.6 2.5 -31.5 2.3 -28.75 1.9 -29.65 2.15 -35.2 1.25 -30.65 Q0.5 -31.6 -0.55 -32.05 L-0.65 -33.7 -0.75 -32.15 -1.4 -32.35 -1.55 -33.5 -1.55 -32.35 -3.05 -32.45 Q-2.25 -31.0 -1.6 -29.3 L-1.55 -26.5 -1.75 -26.75 -3.45 -31.3 -3.2 -33.5 -3.6 -31.65 -4.1 -32.8 -4.1 -33.05 -4.15 -32.85 -4.2 -32.95 -4.15 -32.8 -4.35 -31.55 -4.9 -32.6 -4.45 -31.1 -4.65 -28.65 -4.8 -28.65 -5.35 -31.6 -5.2 -28.7 -5.55 -28.7 -5.7 -29.1 -5.6 -32.3 Q-7.25 -31.7 -8.1 -30.5 L-9.5 -35.9 -9.05 -30.6 -10.45 -35.1 Q-10.1 -31.15 -9.4 -27.55 L-9.7 -27.7 -9.95 -28.2 -9.75 -27.75 -9.9 -27.85 -10.55 -29.4 -10.3 -28.15 -11.65 -29.4 -12.55 -30.7 -13.65 -32.1 -14.6 -32.55 -19.3 -29.05 -19.55 -29.4 -19.35 -29.0 -21.25 -27.45 Q-29.85 -20.0 -28.85 -13.05 -28.4 -10.05 -27.1 -7.5 -26.85 -6.85 -26.2 -6.35 L-27.5 -6.1 -28.15 -6.45 Q-31.95 -8.45 -33.75 -7.1 -35.5 -5.7 -35.0 -3.85 -34.6 -2.45 -32.9 -1.45 L-35.2 0.55 Q-42.5 7.55 -41.55 15.7 -41.05 19.2 -39.9 22.4 -39.4 23.9 -38.05 24.85 -40.05 26.55 -43.35 26.05 -46.95 25.45 -49.5 27.5 -52.1 29.55 -52.2 31.2 -52.3 32.85 -49.7 32.9 -47.1 32.9 -40.8 31.2 -34.55 29.5 -35.2 27.55 -35.75 25.55 -35.65 23.9 -35.6 22.75 -36.6 23.5 -38.85 20.0 -39.55 15.75 -40.45 10.05 -36.2 4.55 -33.95 1.7 -31.25 -0.75 L-29.5 -0.25 -28.85 0.95 -29.15 0.95 -28.85 1.0 Q-27.5 3.1 -25.25 4.5 L-26.0 5.0 -25.15 4.55 -23.7 5.35 -25.3 6.4 -23.6 5.4 -22.9 5.7 -23.65 5.8 -23.05 7.25 -24.15 7.7 -22.95 7.45 Q-22.1 8.7 -20.5 8.7 L-24.95 10.9 -19.85 9.4 -15.75 7.9 -15.85 7.95 -19.8 11.0 -16.65 8.7 -18.4 10.3 -15.9 8.15 -16.0 8.35 -15.8 8.1 -15.25 7.7 -13.55 6.95 -15.25 9.15 -15.3 9.15 -17.5 12.15 -19.1 12.6 -18.25 13.2 -19.4 14.75 -18.2 13.25 -16.4 14.2 -17.9 15.55 -15.9 14.35 Q-11.9 15.4 -9.25 9.85 L-9.05 9.65 -9.3 10.65 -12.35 14.8 -9.35 11.0 -9.4 11.2 -9.3 10.95 -8.5 9.9 -10.45 13.65 -12.7 17.15 -10.95 14.55 -11.5 15.6 -10.45 13.75 -7.2 8.9 -7.05 9.0 -6.95 9.05 -7.9 11.5 -7.95 11.6 -7.95 11.65 -8.9 13.9 -11.9 16.55 -9.9 16.35 -10.55 17.5 -9.85 16.35 -10.15 17.1 -9.8 16.3 -7.9 15.6 -8.45 17.1 -11.15 22.05 -9.05 18.75 -8.3 17.55 -7.3 18.15 -8.05 19.75 -8.7 19.85 -8.15 19.9 -9.65 22.9 -7.9 19.95 Q-2.75 20.35 -0.05 18.85 L-0.15 20.6 0.0 18.8 0.15 18.7 0.1 19.6 0.2 18.7 1.5 17.55 1.45 19.95 0.9 24.8 2.25 16.85 3.9 16.45 4.25 19.55 4.05 16.45 4.35 16.35 4.35 19.15 4.5 16.7 4.85 25.25 5.05 16.1 5.15 16.45 5.65 19.75 5.2 16.05 5.5 15.95 5.85 19.15 5.7 15.85 6.05 15.7 6.55 16.8 6.15 15.7 6.85 15.35 7.45 19.15 7.1 15.25 7.25 15.15 8.05 16.75 7.35 15.1 7.9 14.75 8.7 17.6 8.0 14.85 8.05 14.85 7.95 14.7 8.6 14.15 9.15 14.9 10.3 18.25 9.3 15.15 10.35 16.45 10.9 18.55 10.45 16.6 13.1 19.8 13.7 22.15 13.3 20.0 14.65 21.5 13.05 18.8 12.8 17.65 14.1 19.05 15.3 22.2 14.4 19.4 14.7 19.7 15.35 21.85 14.85 19.9 16.0 21.05 Q16.85 23.8 16.4 26.65 15.8 30.25 14.1 33.35 13.3 32.25 13.15 33.65 L12.85 35.25 12.6 35.6 12.75 35.7 11.9 38.0 Q10.9 40.35 16.5 43.45 22.1 46.55 24.55 47.0 27.0 47.4 27.25 45.35 27.45 43.35 25.4 40.4 23.45 37.5 19.9 37.55 16.85 37.7 15.35 35.45 16.35 34.55 16.75 33.3 17.9 30.1 18.4 26.6 19.05 21.05 15.85 16.0 L15.65 15.5 16.75 15.15 16.95 15.05 17.3 15.25 17.0 15.05 18.05 14.6 18.6 14.9 18.15 14.6 20.5 13.35 18.65 13.8 17.3 14.0 14.95 12.1 14.5 11.05 16.05 12.75 14.35 10.7 13.35 8.25 15.05 10.15 13.4 8.15 15.8 9.75 18.65 13.8 16.05 9.95 Q19.95 12.4 24.65 14.55 L19.3 10.55 20.15 10.45 25.5 12.5 21.5 10.1 21.8 10.0 26.8 11.7 23.1 9.7 21.55 8.85 21.5 8.8 18.4 7.1 19.15 7.15 21.5 8.8 19.25 7.15 20.0 7.15 23.1 9.7 20.2 7.1 20.6 7.05 20.9 7.25 22.6 9.0 21.35 7.55 23.2 8.75 21.1 7.3 20.85 7.0 21.0 7.0 21.25 7.05 26.6 11.35 22.9 7.9 24.25 8.95 22.25 7.35 24.2 7.7 27.9 10.45 24.7 7.75 23.0 6.35 23.65 6.2 24.75 6.8 23.7 6.15 Q24.6 5.75 25.4 4.95 L26.0 4.95 25.45 4.9 26.6 3.45 32.0 3.9 27.1 2.6 27.1 2.55 27.05 2.55 26.35 2.4 32.85 2.7 24.5 0.85 25.25 0.25 22.95 0.3 15.95 -1.9 15.35 -2.35 16.6 -2.25 19.85 -1.8 20.7 -1.6 23.6 -0.45 21.95 -1.4 24.25 -1.2 25.95 -1.3 29.35 -0.35 33.5 1.25 31.3 0.25 31.95 0.45 30.75 0.0 27.0 -1.65 27.7 -2.05 29.6 -2.5 27.95 -2.3 28.4 -3.05 30.15 -3.55 28.5 -3.25 Q28.75 -4.2 28.55 -5.5 L27.25 -5.15 27.15 -5.15 26.55 -5.4 Q27.8 -5.8 28.95 -6.35 L26.1 -5.55 25.9 -5.65 25.6 -6.0 Q29.7 -6.9 34.05 -8.4 L24.35 -7.2 24.3 -7.25 24.3 -7.2 23.3 -7.05 23.5 -7.2 23.15 -7.05 21.9 -6.9 18.0 -7.85 27.9 -8.95 16.55 -8.1 23.05 -9.2 24.6 -9.2 23.8 -9.3 27.05 -9.8 23.35 -9.35 20.15 -9.75 28.2 -10.1 34.15 -10.05 22.9 -10.7 Q24.6 -11.3 25.05 -11.9 L27.5 -13.1 25.2 -12.35 25.15 -12.7 28.9 -13.7 25.05 -12.85 24.5 -13.45 26.1 -13.95 24.45 -13.5 24.25 -13.65 26.25 -14.05 23.7 -14.05 24.65 -14.6 Q30.4 -15.7 32.05 -19.65 36.0 -16.6 39.25 -13.0 44.25 -7.45 43.3 -2.6 42.45 1.6 39.15 4.5 L40.2 5.05 36.95 7.2 Q34.45 8.6 39.45 11.25 44.4 13.85 47.15 14.35 49.85 14.9 51.25 13.6 52.65 12.3 51.9 10.15 51.2 8.05 46.85 7.75 42.6 7.45 42.45 5.35 L42.35 4.8 Q43.45 4.2 43.85 3.25 45.15 0.7 45.6 -2.3 46.6 -9.25 38.0 -16.7 34.75 -19.55 31.35 -21.8 30.7 -21.65 30.4 -21.35 L29.3 -19.95 28.4 -18.65 Q26.9 -16.75 24.0 -15.9 L23.3 -15.85 24.15 -16.75 24.3 -16.8 24.2 -16.8 25.1 -17.8 24.0 -16.75 23.35 -16.65 24.2 -17.6 26.25 -18.4 24.55 -18.05 25.05 -18.65 24.4 -18.05 22.3 -17.5 26.05 -19.2 Q22.75 -18.5 19.45 -17.2 L20.6 -18.7 23.1 -21.35 24.2 -22.1 23.3 -21.55 24.55 -22.9 21.6 -20.45 21.45 -20.35 21.55 -20.75 24.15 -23.75 21.8 -21.6 21.85 -22.5 23.05 -23.3 21.8 -22.8 21.7 -23.4 22.7 -24.1 21.8 -23.7 22.85 -26.1 21.6 -23.85 21.3 -24.5 21.75 -25.2 21.25 -24.6 20.5 -25.65 18.35 -23.05 19.45 -25.95 Q18.4 -23.65 17.05 -21.5 L17.0 -21.35 16.95 -21.35 14.95 -20.15 16.05 -22.8 20.2 -26.8 17.0 -24.6 18.25 -27.25 16.45 -24.65 Q16.55 -25.95 16.15 -27.0 L17.1 -28.15 16.95 -28.0 16.05 -27.25 15.85 -27.55 15.95 -27.85 16.5 -28.6 16.3 -28.4 16.5 -28.65 16.15 -28.3 16.9 -30.4 15.6 -27.95 14.6 -28.85 14.6 -29.0 15.4 -30.15 14.65 -29.45 14.85 -32.1 14.3 -29.1 14.1 -28.9 14.75 -32.0 13.2 -28.05 13.15 -27.95 13.15 -28.0 13.2 -28.05 M6.05 -25.75 L6.4 -25.2 5.85 -23.75 5.9 -25.2 6.05 -25.75 M6.65 -24.8 L6.65 -24.7 5.75 -22.5 5.8 -23.05 6.45 -25.15 6.65 -24.8 M13.65 -27.4 L13.8 -27.9 13.95 -28.1 13.65 -27.4 M11.65 -15.2 L12.05 -15.7 13.3 -17.05 13.45 -17.15 12.25 -15.7 11.65 -15.2 M10.45 -14.8 L9.05 -13.35 9.75 -14.15 10.4 -14.95 10.45 -14.8 M19.35 -14.1 L19.7 -14.1 19.3 -13.8 16.7 -13.5 17.15 -13.8 17.9 -14.05 19.35 -14.1 M6.95 -24.3 L5.6 -20.6 6.75 -24.65 6.95 -24.3 M5.0 -17.35 L5.25 -18.7 7.05 -24.2 7.15 -24.05 Q5.9 -20.85 5.0 -17.35 L4.95 -17.15 4.95 -17.2 5.0 -17.35 M9.05 -21.1 L9.2 -20.8 8.45 -19.95 8.6 -20.4 9.05 -21.1 M0.8 -21.7 L0.7 -22.1 0.8 -22.1 0.8 -21.75 0.8 -21.7 M0.6 -21.3 L0.7 -21.35 0.6 -20.85 0.6 -21.3 M4.65 -20.55 L4.7 -20.85 4.5 -20.1 4.65 -20.55 M4.8 -21.25 L4.75 -20.9 4.7 -20.85 M17.5 -8.7 L21.85 -9.2 18.65 -9.15 17.5 -8.7 M20.05 -10.8 L21.05 -11.1 22.15 -11.9 18.1 -10.8 20.05 -10.8 M20.2 -12.0 L22.65 -12.8 22.45 -12.3 19.7 -11.7 20.2 -12.0 M16.6 -6.35 L15.8 -6.3 14.15 -6.35 14.0 -6.4 15.75 -6.5 16.6 -6.35 M14.15 -11.65 L12.4 -10.95 13.4 -11.5 14.15 -11.65 M12.25 -10.5 L14.95 -11.85 16.6 -12.2 12.6 -10.55 12.25 -10.5 M12.2 -6.9 L12.8 -7.05 13.65 -6.9 12.3 -6.85 12.2 -6.9 M14.05 -6.65 L14.7 -6.7 15.1 -6.65 14.05 -6.65 M14.4 -1.95 L15.05 -1.45 15.45 -1.35 15.1 -1.8 14.4 -1.95 M14.75 -2.25 L14.65 -2.4 14.3 -2.4 14.75 -2.25 M18.15 -0.7 L21.85 0.2 22.85 0.3 16.8 -1.35 Q17.4 -1.0 18.15 -0.7 M24.8 -22.5 L24.35 -22.15 24.2 -22.1 M22.85 -15.8 L22.5 -15.8 23.1 -16.35 23.85 -16.6 22.85 -15.8 M22.85 -16.6 L21.0 -16.3 23.8 -17.45 22.85 -16.6 M21.8 -15.7 L20.75 -15.55 22.3 -16.1 21.8 -15.7 M22.5 -13.3 L21.15 -12.5 22.7 -12.95 22.75 -13.35 22.5 -13.3 M28.2 -10.1 L27.05 -9.8 M22.9 -4.4 L23.05 -4.45 23.15 -4.45 22.9 -4.4 M23.7 -5.6 L23.85 -5.65 24.15 -5.6 24.1 -5.45 23.7 -5.6 M20.55 -4.85 L22.35 -5.2 23.35 -5.0 21.5 -4.75 20.55 -4.85 M27.0 -5.1 L26.35 -4.95 26.25 -5.15 26.8 -5.15 27.0 -5.1 M26.15 -5.25 L26.6 -5.2 26.2 -5.2 26.15 -5.25 M21.3 2.85 L21.0 2.7 22.0 2.7 20.65 2.55 20.15 2.3 23.2 2.9 21.3 2.85 M21.05 6.3 L22.4 6.45 24.0 7.55 21.65 6.8 21.5 6.65 21.65 6.75 21.4 6.6 21.05 6.3 M19.65 2.6 L19.85 2.6 20.0 2.65 19.65 2.6 M17.9 1.95 L17.55 1.75 18.3 2.05 17.9 1.95 M17.35 1.8 L16.95 1.5 17.6 1.9 17.35 1.8 M17.3 5.0 L15.8 4.25 15.35 3.7 16.9 4.7 17.3 5.0 M17.1 4.3 L18.3 4.95 19.0 5.4 19.7 6.1 19.05 5.8 17.7 4.85 17.1 4.3 M16.55 3.65 L16.15 3.4 16.05 3.35 16.55 3.65 M12.05 1.65 L12.3 1.8 13.0 2.4 12.05 1.65 M11.55 3.1 L11.5 3.05 11.35 2.85 11.55 3.1 M12.45 11.0 L13.3 11.9 13.05 11.3 12.9 11.0 12.3 10.45 12.3 10.5 12.45 11.0 M13.9 10.4 L14.55 11.8 14.15 11.45 13.4 10.35 12.9 9.25 13.8 10.25 13.9 10.4 M12.75 12.05 L13.75 12.85 14.0 13.5 12.8 12.2 12.75 12.05 M12.7 8.05 L13.5 9.6 13.0 9.0 12.6 8.4 12.7 8.05 M6.0 4.55 L6.3 5.3 6.15 5.4 6.1 5.2 6.05 5.0 6.0 4.55 M3.6 9.95 L3.8 10.4 3.85 10.9 3.8 11.0 3.75 11.1 3.6 10.6 3.6 9.95 M3.35 11.8 L2.85 12.45 3.1 10.1 3.35 11.8 M5.9 11.55 L6.05 11.25 6.4 12.95 6.0 11.95 5.9 11.55 M5.45 12.3 L5.6 14.25 5.7 14.55 6.35 13.75 6.1 12.75 5.65 11.9 5.45 12.3 M6.35 13.7 L6.2 13.0 6.45 13.5 6.35 13.7 M5.1 12.95 L5.05 12.8 5.1 12.75 5.1 12.95 M5.4 14.85 L5.25 13.8 5.0 13.25 5.0 14.25 5.1 15.05 5.4 14.85 M8.95 18.5 L8.7 17.6 M4.2 13.75 L4.3 14.5 4.3 15.65 4.0 15.85 3.85 14.1 4.2 13.75 M2.4 16.05 L2.5 15.15 3.65 14.3 3.85 15.95 2.25 16.8 2.4 16.05 M1.7 17.3 L1.5 19.55 1.6 17.45 1.7 17.3 M15.25 12.85 L17.05 14.05 16.0 14.1 15.35 13.15 15.25 12.85 M15.7 14.0 L15.45 13.45 15.95 14.1 15.8 14.1 15.7 14.0 M15.15 13.0 L15.55 13.85 14.85 13.25 14.6 13.05 14.45 12.7 14.4 12.65 14.2 12.1 14.8 12.55 15.15 13.0 M13.95 13.05 L14.25 13.8 14.45 13.85 14.05 13.1 13.95 13.05 M14.45 12.7 L14.85 13.25 M15.0 14.0 L15.35 14.05 14.9 13.75 15.0 14.0 M12.4 17.2 L11.4 16.05 12.65 18.2 12.4 17.2 M14.2 18.2 L13.8 17.55 13.25 15.9 13.4 15.9 13.45 16.0 14.2 18.2 M12.8 15.9 L12.7 15.9 12.9 16.2 12.8 15.9 M14.1 16.95 L14.6 18.75 15.95 20.85 Q15.35 18.85 14.1 16.95 M-17.6 -25.35 L-16.8 -24.1 -16.05 -22.85 -16.8 -23.5 -16.0 -22.7 -15.65 -22.1 -15.9 -22.2 -16.6 -22.9 -15.95 -22.2 -16.1 -22.25 -16.85 -23.1 -18.0 -24.35 -16.75 -22.6 Q-18.65 -23.6 -20.3 -25.8 -18.4 -21.9 -15.6 -18.25 -17.75 -20.2 -19.5 -22.45 L-18.25 -20.6 -22.0 -24.3 -18.65 -27.55 -17.35 -25.05 -17.6 -25.35 M-12.5 -25.9 L-11.8 -25.0 -12.35 -26.95 Q-14.4 -28.25 -15.3 -30.4 L-18.35 -27.85 -16.55 -25.4 -16.15 -25.2 -16.6 -26.65 -15.9 -25.05 -15.2 -24.65 -15.25 -24.9 -15.7 -25.55 -15.3 -25.05 -15.45 -25.5 -15.9 -26.0 -15.45 -25.55 -16.05 -27.55 -15.05 -25.1 -13.85 -23.85 -13.05 -23.35 -15.05 -26.6 -12.6 -23.05 -11.45 -22.25 -15.45 -27.15 -11.1 -22.25 -11.0 -22.3 -11.0 -22.15 -10.45 -21.5 -10.4 -21.45 -10.8 -22.45 -13.65 -25.85 -10.95 -22.8 -11.75 -24.85 -12.5 -25.9 -12.75 -26.2 -13.1 -26.65 M-12.0 -26.75 L-10.85 -23.85 -9.5 -22.15 -10.25 -24.55 -11.75 -26.65 -12.0 -26.75 M-4.2 -31.25 L-3.8 -30.4 -3.7 -31.1 -4.1 -32.7 -4.2 -31.25 M-5.7 -28.8 L-5.7 -28.95 -5.6 -28.7 -5.65 -28.7 -5.7 -28.8 M-9.0 -25.6 L-8.95 -25.45 -9.05 -25.6 -9.0 -25.6 M-9.6 -25.0 L-9.8 -25.85 -10.05 -25.9 -9.6 -25.0 M-3.5 -30.3 L-3.55 -29.8 -3.2 -29.0 -3.5 -30.3 M-4.25 -30.45 L-3.95 -29.45 -4.0 -28.45 -4.25 -28.55 -4.25 -30.45 M-22.5 -23.75 L-22.2 -24.05 -17.95 -18.35 -18.6 -18.8 -20.6 -20.45 -19.9 -19.6 -20.25 -19.8 -19.75 -19.35 -17.85 -17.2 -18.05 -17.25 -20.8 -19.4 -19.65 -18.05 -19.9 -18.2 -21.7 -19.1 -19.7 -18.0 -18.95 -17.25 -21.2 -18.75 -18.3 -16.6 -18.15 -16.45 -24.9 -20.55 -22.5 -23.75 M-23.0 -9.1 L-22.05 -9.1 -21.85 -9.9 -22.05 -10.0 -22.85 -10.25 -22.2 -10.1 -22.5 -10.25 -23.15 -10.35 -22.6 -10.3 -23.9 -11.05 -21.95 -10.4 -22.7 -11.0 -23.3 -11.55 -23.55 -11.65 -23.35 -11.6 -23.4 -11.65 -26.55 -13.5 -26.55 -13.35 Q-25.8 -9.6 -23.05 -6.9 L-22.25 -7.0 -22.05 -8.85 -22.6 -8.95 -22.05 -8.9 -22.05 -9.05 -23.0 -9.1 -23.35 -9.15 M-26.65 -16.0 L-24.75 -15.65 -24.5 -16.7 -22.55 -15.7 -21.35 -15.25 -21.55 -15.4 -20.7 -15.0 -20.6 -14.95 -22.45 -16.3 -26.35 -17.4 -26.65 -16.0 M-26.65 -13.95 L-24.35 -13.05 -24.45 -13.3 -26.7 -14.85 -26.65 -13.95 M-26.7 -15.25 L-24.75 -14.35 -24.75 -15.45 -26.65 -15.9 -26.7 -15.25 M-22.0 -16.15 L-20.25 -15.25 -21.1 -15.9 -22.0 -16.15 M-22.05 -15.45 L-21.25 -15.05 -21.0 -15.0 -22.05 -15.45 M-20.7 -16.75 L-24.95 -20.5 -25.5 -19.45 -20.7 -16.75 M-25.5 -19.45 L-26.3 -17.5 -21.95 -16.55 -25.5 -19.45 M-27.3 -6.0 Q-24.65 -4.75 -23.4 -5.7 L-23.9 -5.45 Q-25.15 -5.65 -25.95 -6.15 L-27.3 -6.0 M-2.65 -22.3 L-2.75 -22.55 -2.7 -22.5 -2.65 -22.3 M-2.75 -21.75 L-3.15 -22.4 -3.25 -23.45 -3.0 -22.95 -2.75 -21.75 M-4.9 -21.25 L-5.15 -21.15 -4.65 -19.65 -4.5 -19.4 -4.9 -21.25 M-9.15 -19.05 L-9.55 -19.4 M-10.05 -22.65 L-9.35 -21.7 -9.2 -21.3 -10.05 -22.65 M-8.85 -20.4 L-9.6 -21.2 -10.7 -23.5 -10.15 -22.8 -9.1 -21.05 -8.85 -20.4 M-7.6 -14.15 L-7.2 -13.85 -11.45 -19.4 -11.55 -18.9 -8.5 -15.0 -7.6 -14.15 M-2.1 -18.0 L-2.1 -17.85 -2.15 -18.1 -2.1 -18.0 M-14.2 -24.05 L-15.0 -25.0 -14.75 -24.4 -14.2 -24.05 M-12.85 -21.85 L-12.45 -21.9 -13.65 -22.85 -12.85 -21.85 M-13.75 -22.45 L-13.4 -21.8 -13.2 -21.8 -13.35 -22.05 -13.4 -22.1 -13.75 -22.45 -14.2 -23.3 -13.4 -22.1 M-14.25 -22.4 L-14.9 -23.85 -15.55 -24.35 -15.1 -23.5 -14.25 -22.4 M-10.2 -18.65 L-9.8 -18.3 -10.35 -19.1 -11.35 -20.1 -11.35 -20.05 -10.2 -18.65 M-10.7 -19.65 L-11.3 -20.55 -11.35 -20.25 -10.7 -19.65 M-16.05 -24.75 L-15.95 -24.7 -15.9 -24.6 -16.05 -24.75 M-16.85 -23.1 L-16.6 -22.9 M-7.45 8.75 L-9.05 11.35 -7.5 8.75 -7.45 8.75 M-7.85 8.5 L-7.8 8.55 -9.2 10.5 -8.85 9.45 -8.0 8.6 -7.85 8.5 M-6.55 9.5 L-6.85 10.15 -6.4 9.35 -6.2 9.4 -8.1 13.0 -8.6 13.6 -7.2 10.45 -6.55 9.5 M-9.75 6.55 L-12.0 8.0 -10.0 6.1 -9.75 6.55 M-10.25 5.55 L-12.5 7.85 -10.2 5.65 -10.1 5.9 -12.25 8.15 -14.2 9.15 -13.8 9.7 -13.3 10.25 -13.5 10.45 Q-15.15 11.35 -17.2 12.05 L-12.5 6.75 -11.75 6.1 -11.65 6.0 -13.3 8.0 -10.95 5.65 -10.3 5.3 -10.25 5.55 M-19.9 1.8 L-19.4 1.55 -19.35 1.65 -19.9 1.8 M-20.1 1.9 L-20.5 2.1 -20.05 2.9 -18.9 2.15 -19.25 1.75 -20.1 1.9 M-18.55 2.5 L-18.5 2.55 -18.85 2.65 -18.55 2.5 M-18.45 2.65 L-17.0 3.8 Q-18.85 4.2 -19.8 3.2 L-19.1 2.8 -18.45 2.65 M-13.8 9.7 L-14.2 10.05 M-11.9 16.55 L-11.5 15.6 M-10.15 17.1 L-10.65 18.25 M-2.8 13.8 L-2.75 13.65 -2.7 13.2 -2.8 13.05 -2.85 13.05 -2.8 13.8 -2.9 13.15 -3.8 13.8 -4.1 16.3 -3.6 16.25 -2.8 13.85 -2.8 13.8 M-4.2 13.95 L-5.15 16.4 -6.0 16.45 -4.7 14.1 -4.2 13.95 M-4.1 16.3 L-5.05 16.4 -3.9 14.0 -4.1 16.3 M-2.8 16.05 L-2.75 14.6 -3.4 16.2 -2.8 16.05 M-2.25 15.9 L-2.75 16.05 -2.6 14.25 -2.4 13.75 Q-1.9 14.85 -1.9 15.8 L-2.25 15.9 M-2.5 17.4 Q-3.8 19.0 -7.8 19.7 L-6.95 18.25 -4.2 17.9 -4.5 18.75 -4.1 17.9 -2.5 17.4 M-5.5 14.2 L-6.5 16.45 Q-7.35 16.4 -7.8 16.75 L-6.35 14.3 -6.3 14.2 -6.25 14.2 -5.7 14.2 -5.95 14.65 -5.65 14.2 -5.5 14.2 M-7.8 15.55 L-7.55 15.4 -8.25 16.75 -7.8 15.55 M-21.55 4.75 L-21.45 4.15 -22.1 4.5 -21.55 4.75 M-21.35 3.75 L-20.8 2.25 Q-22.15 2.9 -23.55 3.7 L-22.35 4.4 -21.35 3.75 M-26.6 0.65 L-24.65 0.45 -26.9 0.2 -26.6 0.65 M-23.75 3.6 L-19.85 1.25 -26.25 1.2 -23.75 3.6 Z" fill="none" stroke="#defabe" stroke-linecap="round" stroke-linejoin="round" stroke-width="5.0"/>
    </g>
    <g id="shape1">
      <path d="M1.8 1.9 L0.1 0.55 1.85 1.65 1.8 1.9 M1.45 2.1 L-0.2 0.65 1.5 1.85 1.45 2.1 M0.05 2.45 L0.0 2.3 -0.05 2.35 -1.1 0.45 -0.35 1.5 -0.8 0.45 0.25 2.25 0.05 2.45 M-2.25 0.25 L-1.9 1.5 -2.15 1.65 -2.35 0.3 -2.35 0.25 -2.45 -0.5 -2.3 0.05 -1.8 -1.8 -2.1 0.25 -2.25 0.25 M-1.8 2.2 L-1.85 0.0 -1.6 2.05 -1.8 2.2 M-0.3 2.55 L-1.1 0.5 -0.15 2.35 -0.3 2.55 M-2.25 1.5 L-2.5 1.65 -2.7 -0.5 -2.25 1.5" fill="#204d1c" fill-rule="evenodd" stroke="none"/>
    </g>
    <g id="shape2">
      <path d="M2.3 -0.6 L4.25 -1.05 Q4.7 -0.05 22.4 1.9 L3.25 0.75 Q9.45 3.2 22.0 15.15 10.5 5.3 3.0 3.1 4.35 9.15 6.15 15.85 L0.9 2.1 -0.9 22.85 Q-0.25 12.75 -0.15 3.6 -5.45 8.75 -13.35 15.1 4.55 -0.95 -3.25 2.8 -12.95 6.45 -26.05 4.55 7.45 2.45 -3.45 0.3 -7.9 -1.55 -20.5 -5.45 -6.15 -1.3 -3.4 -1.2 -8.35 -4.9 -15.4 -16.45 -6.55 -5.6 -0.55 -0.65 -0.7 -10.25 -3.9 -22.85 0.35 -13.8 0.05 -1.2 2.0 -9.6 2.8 -14.55 L1.05 -1.25 Q4.2 -4.25 6.5 -7.05 L2.3 -0.6 M8.7 -1.85 L6.5 -1.7 Q15.2 -4.4 20.9 -9.7 16.55 -4.55 8.7 -1.85" fill="#204d1c" fill-rule="evenodd" stroke="none"/>
    </g>
    <g id="shape3">
      <path d="M16.6 -2.35 Q17.5 -1.7 17.25 -0.85 17.0 0.05 15.8 0.55 L11.9 1.2 Q9.25 1.45 9.9 0.3 L10.75 -1.8 11.6 -1.85 Q12.15 -1.1 14.0 -2.05 15.8 -3.05 16.6 -2.35" fill="#204d1c" fill-rule="evenodd" stroke="none"/>
      <path d="M24.2 16.6 L20.0 15.8 Q17.0 14.95 17.3 14.0 L17.55 12.35 Q17.5 11.55 18.5 12.55 19.5 13.6 21.15 13.3 22.9 13.05 24.1 14.0 25.3 15.0 25.35 15.8 25.4 16.55 24.2 16.6" fill="#204d1c" fill-rule="evenodd" stroke="none"/>
      <path d="M14.25 -0.6 L14.65 -0.95 17.35 1.25 Q20.8 4.55 20.35 8.45 L19.55 11.6 Q19.3 12.55 18.2 13.0 L17.6 12.7 Q18.95 10.8 19.4 8.45 19.85 5.7 17.8 3.15 L14.95 0.15 Q14.05 2.95 10.75 4.0 L9.65 4.3 Q8.4 4.75 7.7 4.1 7.9 3.55 8.75 3.65 L10.55 3.4 Q12.5 2.65 13.45 1.05 L13.8 0.25 14.25 -0.6" fill="#204d1c" fill-rule="evenodd" stroke="none"/>
      <path d="M6.15 -12.9 L6.65 -13.55 7.15 -14.2 7.55 -14.45 10.75 -11.95 Q14.8 -8.5 14.3 -5.2 14.1 -3.8 13.5 -2.6 13.2 -1.8 12.0 -1.6 L11.25 -2.0 Q12.8 -3.35 13.2 -5.35 13.7 -7.65 11.3 -10.25 L7.9 -13.4 Q6.95 -11.1 3.2 -10.85 L1.9 -10.75 Q0.45 -10.6 -0.4 -11.35 -0.15 -11.8 0.8 -11.55 L2.9 -11.4 Q5.2 -11.7 6.15 -12.9" fill="#204d1c" fill-rule="evenodd" stroke="none"/>
    </g>
    <g id="shape4">
      <path d="M6.5 -7.05 L5.95 -6.2 5.85 -6.25 6.5 -7.05 M2.8 -14.55 L2.1 -9.25 1.9 -9.45 2.8 -14.55 M10.0 -2.95 Q16.4 -5.5 20.9 -9.7 24.8 -4.5 10.5 -2.5 L10.0 -2.95 M13.9 4.65 Q14.95 14.55 22.25 7.7 15.45 18.3 8.85 8.55 L13.9 4.65 M4.15 7.95 Q10.2 15.9 6.65 21.45 6.65 10.1 3.5 8.75 L4.15 7.95 M13.25 0.2 Q17.7 0.85 23.0 -3.05 22.9 5.1 12.7 0.85 L13.25 0.2 M-11.95 -6.7 Q-19.0 -12.45 -15.4 -16.45 -13.85 -12.6 -10.3 -8.75 L-11.95 -6.7 M-14.5 -3.55 L-20.5 -5.45 -14.35 -3.7 -14.5 -3.55 M-4.45 -16.35 Q-0.4 -18.8 -1.8 -24.35 0.6 -19.2 1.55 -12.95 L-4.45 -16.35 M-8.65 4.75 Q-22.4 9.15 -23.5 2.75 L-11.4 2.55 -8.65 4.75 M-4.75 7.9 Q-12.9 24.45 -13.35 15.1 -9.85 18.7 -5.2 7.55 L-4.75 7.9 M-0.9 22.85 Q2.15 16.45 -0.35 11.45 L0.05 11.8 Q5.3 19.4 -0.9 22.85" fill="#204d1c" fill-rule="evenodd" stroke="none"/>
    </g>
    <g id="shape5">
      <path d="M-21.65 7.8 Q-22.95 8.05 -23.6 7.45 -24.25 6.85 -23.9 5.8 -23.55 4.8 -21.5 4.65 -19.45 4.55 -19.45 3.5 -19.35 2.55 -18.7 3.15 L-16.85 4.4 Q-15.65 5.1 -18.0 6.3 -20.35 7.55 -21.65 7.8" fill="#204d1c" fill-rule="evenodd" stroke="none"/>
      <path d="M-10.95 23.2 Q-12.15 23.4 -12.25 22.45 -12.35 21.5 -11.4 20.15 -10.45 18.75 -8.75 18.8 -7.1 18.8 -6.35 17.4 -5.65 16.0 -5.55 16.95 L-5.0 18.95 Q-4.5 20.1 -7.15 21.6 -9.8 23.0 -10.95 23.2" fill="#204d1c" fill-rule="evenodd" stroke="none"/>
      <path d="M3.55 8.8 Q4.4 8.7 4.6 9.25 3.9 9.9 2.65 9.45 L1.55 9.15 Q-1.75 8.1 -2.65 5.3 L-5.5 8.3 Q-7.55 10.85 -7.1 13.6 -6.65 15.95 -5.3 17.85 L-5.9 18.15 Q-7.0 17.7 -7.25 16.75 L-8.05 13.6 Q-8.5 9.7 -5.05 6.4 L-2.35 4.2 -1.95 4.55 -1.5 5.4 -1.15 6.2 Q-0.2 7.8 1.75 8.55 L3.55 8.8" fill="#204d1c" fill-rule="evenodd" stroke="none"/>
      <path d="M-12.75 -7.8 Q-11.8 -6.6 -9.5 -6.3 L-7.4 -6.45 Q-6.45 -6.7 -6.2 -6.25 -7.05 -5.5 -8.5 -5.65 L-9.8 -5.75 Q-13.55 -6.0 -14.5 -8.3 L-17.9 -5.15 Q-20.3 -2.55 -19.8 -0.25 -19.4 1.75 -17.85 3.1 L-18.6 3.5 Q-19.8 3.3 -20.1 2.5 -20.7 1.3 -20.9 -0.1 -21.4 -3.4 -17.35 -6.85 L-14.15 -9.35 -13.75 -9.1 -13.25 -8.45 -12.75 -7.8" fill="#204d1c" fill-rule="evenodd" stroke="none"/>
      <path d="M3.75 -3.15 L3.75 -3.25 3.9 -3.15 3.8 -3.15 3.85 -3.15 3.8 -3.15 3.75 -3.15 M7.0 -3.95 Q7.8 -5.4 8.85 -5.65 10.2 -5.95 10.9 -4.0 11.55 -2.05 10.8 0.0 10.05 2.05 8.35 3.0 6.65 3.95 5.75 2.75 L5.65 2.55 5.65 2.65 Q5.7 4.3 4.0 5.25 L0.65 5.45 Q-1.05 4.75 -1.7 2.8 -2.35 0.85 -1.55 -1.1 -0.95 -2.6 1.15 -1.7 L1.1 -1.6 Q0.75 -0.7 1.1 0.25 1.4 1.15 2.15 1.5 L3.75 1.35 4.55 0.65 4.8 0.2 4.8 0.15 4.9 0.0 5.0 -0.5 5.05 -0.75 5.35 0.35 6.35 0.1 Q7.15 -0.35 7.5 -1.3 7.8 -2.25 7.5 -3.15 L7.0 -3.95" fill="#d2ffce" fill-rule="evenodd" stroke="none"/>
      <path d="M3.75 -3.15 L3.8 -3.15 3.85 -3.15 3.8 -3.15 3.9 -3.15 4.65 -1.9 Q5.5 -0.4 6.5 -2.85 L7.0 -3.95 7.5 -3.15 Q7.8 -2.25 7.5 -1.3 7.15 -0.35 6.35 0.1 L5.35 0.35 5.05 -0.75 5.0 -0.5 4.9 0.0 4.8 0.15 4.8 0.2 4.55 0.65 3.75 1.35 2.15 1.5 Q1.4 1.15 1.1 0.25 0.75 -0.7 1.1 -1.6 L1.15 -1.7 Q1.5 -2.6 2.25 -3.0 L3.75 -3.15" fill="#204d1c" fill-rule="evenodd" stroke="none"/>
    </g>
  </defs>
</svg>
